G04 DipTrace 4.2.0.1*
G04 BottomMask.gbr*
%MOMM*%
G04 #@! TF.FileFunction,Soldermask,Bot*
G04 #@! TF.Part,Single*
%ADD16R,1.7X1.7*%
%ADD17C,1.8*%
%ADD19R,1.6X1.6*%
%ADD24R,1.8X1.8*%
%ADD29C,3.2*%
%ADD39R,1.6X2.2*%
%ADD41O,1.6X2.4*%
%ADD43R,1.9X1.9*%
%ADD44C,1.624*%
%ADD46C,1.624*%
%ADD48C,1.6*%
%ADD51C,1.7*%
%ADD53C,1.9*%
%FSLAX35Y35*%
G04*
G71*
G90*
G75*
G01*
G04 BotMask*
%LPD*%
D17*
X9061750Y6175750D3*
D24*
X9511750D3*
D53*
X8936750Y5925750D3*
X9636750D3*
D51*
X5360220Y5928150D3*
D16*
X5106220D3*
D19*
X8416623Y1714377D3*
D48*
X9426623D3*
X4668890Y4460733D3*
X4668884Y4714733D3*
X4668878Y4968733D3*
X4668873Y5222733D3*
X4668867Y5476733D3*
X4668862Y5730733D3*
X4668856Y5984733D3*
X4668850Y6238733D3*
X2890850Y6238694D3*
D3*
X2890856Y5984694D3*
X2890862Y5730694D3*
X2890867Y5476694D3*
X2890873Y5222694D3*
X2890878Y4968694D3*
X2890884Y4714694D3*
X2890890Y4460694D3*
D17*
X6839250Y6175750D3*
D24*
X7289250D3*
D53*
X6714250Y5925750D3*
X7414250D3*
D17*
X7950500Y6175750D3*
D24*
X8400500D3*
D53*
X7825500Y5925750D3*
X8525500D3*
D48*
X6492750Y3127250D3*
X6746750D3*
X7000750D3*
X7254750D3*
X7508750D3*
X7762750D3*
X8016750D3*
X8270750D3*
X8524750D3*
D3*
X8778750D3*
X9032750D3*
X9286750D3*
X9540750D3*
X9794750D3*
X10048750D3*
Y5667250D3*
X9794750D3*
X9540750D3*
X9286750D3*
X9032750D3*
X8778750D3*
X8524750D3*
X8270750D3*
X8016750D3*
X7762750D3*
X7508750D3*
X7254750D3*
X7000750D3*
X6746750D3*
X6492750D3*
X7826250Y1889000D3*
Y2143000D3*
Y2397000D3*
Y1635000D3*
Y1381000D3*
D19*
X1730250Y4079750D3*
D48*
Y3825750D3*
Y3571750D3*
Y3317750D3*
D19*
X5692957Y6048250D3*
D48*
X5946957D3*
X6200957D3*
X6454957D3*
X2045000Y4086250D3*
Y3832250D3*
Y3578250D3*
D3*
Y3324250D3*
D29*
X1283000Y6118250D3*
Y1292250D3*
X10681000D3*
Y6118250D3*
D48*
X5879607Y5584093D3*
X5498607D3*
D46*
X5556127Y4175000D3*
D44*
X4540127D3*
D46*
X5556127Y3698750D3*
D44*
X4540127D3*
D46*
X5556123Y3222500D3*
D44*
X4540123D3*
D46*
X5556127Y2746250D3*
D44*
X4540127D3*
D46*
X9429627Y1238123D3*
D44*
X8413627D3*
D46*
X5146603Y5638353D3*
D44*
Y4622353D3*
D43*
X1365123Y5016373D3*
D53*
Y4762373D3*
D48*
X9921750Y2873250D3*
Y2619250D3*
Y2365250D3*
Y2111250D3*
Y1857250D3*
Y1603250D3*
X2682750Y2762127D3*
Y2508127D3*
Y2254127D3*
D41*
X8286669Y2523997D3*
D39*
X8604119Y2524003D3*
X8286678Y2015997D3*
X8604128Y2016003D3*
G36*
X3270127Y1895797D2*
X5048127D1*
Y1546550D1*
X3270127D1*
Y1895797D1*
G37*
M02*
