G04 DipTrace 4.2.0.1*
G04 BottomSilk.gbr*
%MOMM*%
G04 #@! TF.FileFunction,Legend,Bot*
G04 #@! TF.Part,Single*
%ADD10C,0.12*%
%ADD54C,0.19608*%
%FSLAX35Y35*%
G04*
G71*
G90*
G75*
G01*
G04 BotSilk*
%LPD*%
X10681000Y6372250D2*
D10*
X1283000D1*
X1029000Y6118250D2*
G02X1283000Y6372250I253995J5D01*
G01*
Y1038250D2*
G02X1029000Y1292250I-5J253995D01*
G01*
X10935000D2*
G02X10681000Y1038250I-253995J-5D01*
G01*
Y6372250D2*
G02X10935000Y6118250I5J-253995D01*
G01*
X1029000D2*
Y1292250D1*
X1283000Y1038250D2*
X10681000D1*
X10935000Y1292250D2*
Y6118250D1*
X8191378Y2015995D2*
X8699378Y2016005D1*
X8699369Y2524005D1*
X8191369Y2523995D1*
X8191378Y2015995D1*
X8445369Y2524000D2*
X8191373Y2269995D1*
X1904873Y4206750D2*
X2190627D1*
Y3206623D1*
X1904873D1*
Y4206750D1*
X2243420Y4205338D2*
D54*
X2371030D1*
X2243420Y4290411D1*
X2371030D1*
X2243420Y4087226D2*
Y4166122D1*
X2371030D1*
Y4087226D1*
X2304207Y4166122D2*
Y4117549D1*
X2243420Y4048010D2*
X2371030Y3962937D1*
X2243420D2*
X2371030Y4048010D1*
X2243420Y3881185D2*
X2371030D1*
X2243420Y3923722D2*
Y3838649D1*
Y3799433D2*
X2371030D1*
X2243420Y3723717D2*
X2249457Y3735931D1*
X2261670Y3748004D1*
X2273743Y3754181D1*
X2291993Y3760217D1*
X2322457D1*
X2340566Y3754181D1*
X2352780Y3748004D1*
X2364853Y3735931D1*
X2371030Y3723717D1*
Y3699431D1*
X2364853Y3687358D1*
X2352780Y3675144D1*
X2340566Y3669108D1*
X2322457Y3663071D1*
X2291993D1*
X2273743Y3669108D1*
X2261670Y3675144D1*
X2249457Y3687358D1*
X2243420Y3699431D1*
Y3723717D1*
Y3538782D2*
X2371030D1*
X2243420Y3623855D1*
X2371030D1*
X2392087Y3499567D2*
Y3384170D1*
X2243420Y3344955D2*
X2371030D1*
Y3302418D1*
X2364853Y3284168D1*
X2352780Y3271955D1*
X2340566Y3265918D1*
X2322457Y3259882D1*
X2291993D1*
X2273743Y3265918D1*
X2261670Y3271955D1*
X2249457Y3284168D1*
X2243420Y3302418D1*
Y3344955D1*
Y3220666D2*
X2371030D1*
X2261670Y3096377D2*
X2249457Y3108450D1*
X2243420Y3126700D1*
Y3150987D1*
X2249457Y3169237D1*
X2261670Y3181450D1*
X2273743D1*
X2285957Y3175273D1*
X2291993Y3169237D1*
X2298030Y3157164D1*
X2310243Y3120664D1*
X2316280Y3108450D1*
X2322457Y3102414D1*
X2334530Y3096377D1*
X2352780D1*
X2364853Y3108450D1*
X2371030Y3126700D1*
Y3150987D1*
X2364853Y3169237D1*
X2352780Y3181450D1*
X2310243Y3057161D2*
Y3002411D1*
X2304207Y2984302D1*
X2298030Y2978125D1*
X2285957Y2972088D1*
X2267707D1*
X2255634Y2978125D1*
X2249457Y2984302D1*
X2243420Y3002411D1*
Y3057161D1*
X2371030D1*
X2243420Y2932873D2*
X2371030D1*
Y2860013D1*
Y2723511D2*
X2243420Y2772224D1*
X2371030Y2820797D1*
X2328493Y2802547D2*
Y2741761D1*
X2243420Y2684295D2*
X2304207Y2635722D1*
X2371030D1*
X2243420Y2587149D2*
X2304207Y2635722D1*
X8005379Y2675163D2*
X8132990Y2644702D1*
X8005380Y2614376D1*
X8132991Y2584056D1*
X8005382Y2553590D1*
X8023634Y2429302D2*
X8011420Y2441374D1*
X8005383Y2459624D1*
Y2483911D1*
X8011419Y2502161D1*
X8023632Y2514375D1*
X8035705D1*
X8047919Y2508198D1*
X8053956Y2502162D1*
X8059992Y2490089D1*
X8072207Y2453589D1*
X8078243Y2441376D1*
X8084420Y2435339D1*
X8096494Y2429303D1*
X8114744D1*
X8126816Y2441376D1*
X8132993Y2459627D1*
X8132992Y2483913D1*
X8126815Y2502163D1*
X8114742Y2514376D1*
X8035848Y2383909D2*
X8029812D1*
X8017598Y2377872D1*
X8011562Y2371836D1*
X8005526Y2359622D1*
Y2335335D1*
X8011563Y2323263D1*
X8017599Y2317226D1*
X8029813Y2311049D1*
X8041886Y2311050D1*
X8054099Y2317227D1*
X8072209Y2329300D1*
X8132994Y2390088D1*
X8132996Y2305015D1*
X8005528Y2235474D2*
X8011564Y2253583D1*
X8023637Y2259761D1*
X8035850D1*
X8047924Y2253584D1*
X8054101Y2241511D1*
X8060138Y2217225D1*
X8066175Y2198975D1*
X8078388Y2186902D1*
X8090462Y2180866D1*
X8108712D1*
X8120784Y2186903D1*
X8126961Y2192939D1*
X8132998Y2211189D1*
X8132997Y2235476D1*
X8126960Y2253585D1*
X8120783Y2259762D1*
X8108710Y2265799D1*
X8090460Y2265798D1*
X8078387Y2259762D1*
X8066174Y2247548D1*
X8060138Y2229438D1*
X8054101Y2205151D1*
X8047925Y2192938D1*
X8035852Y2186901D1*
X8023638D1*
X8011565Y2192937D1*
X8005528Y2211187D1*
Y2235474D1*
X8029816Y2141649D2*
X8023639Y2129435D1*
X8005530Y2111185D1*
X8132999Y2111187D1*
X8035854Y2065793D2*
X8029817D1*
X8017604Y2059756D1*
X8011568Y2053719D1*
X8005531Y2041506D1*
X8005532Y2017219D1*
X8011569Y2005146D1*
X8017605Y1999110D1*
X8029819Y1992933D1*
X8041892D1*
X8054105Y1999110D1*
X8072215Y2011184D1*
X8133000Y2071972D1*
X8133002Y1986898D1*
X8005393Y1947680D2*
X8133002Y1947683D1*
X8066179Y1947682D2*
X8053966Y1935468D1*
X8047930Y1923395D1*
Y1905145D1*
X8053967Y1893072D1*
X8066180Y1880858D1*
X8084431Y1874822D1*
X8096504D1*
X8114754Y1880859D1*
X8126826Y1893073D1*
X8133003Y1905146D1*
Y1923396D1*
X8126826Y1935469D1*
X8114752Y1947682D1*
M02*
