G04 DipTrace 4.2.0.1*
G04 2 - Bottom.gbr*
%MOMM*%
G04 #@! TF.FileFunction,Copper,L2,Bot*
G04 #@! TF.Part,Single*
G04 #@! TA.AperFunction,Conductor*
%ADD13C,0.5*%
%ADD14C,0.33*%
G04 #@! TA.AperFunction,ComponentPad*
%ADD15C,1.7*%
%ADD16R,1.7X1.7*%
%ADD17C,1.8*%
%ADD18C,1.6*%
%ADD19R,1.6X1.6*%
%ADD20R,1.5X1.5*%
%ADD21C,1.5*%
%ADD22C,1.524*%
%ADD23C,1.524*%
%ADD24R,1.8X1.8*%
%ADD25O,1.5X2.3*%
%ADD26R,1.5X2.1*%
G04 #@! TA.AperFunction,ViaPad*
%ADD27C,1.016*%
%ADD56C,0.31373*%
%FSLAX35Y35*%
G04*
G71*
G90*
G75*
G01*
G04 Bottom*
%LPD*%
X9921750Y2873250D2*
D13*
X10223373D1*
Y5492627D1*
X10048750Y5667250D1*
X8413627Y1238123D2*
X7985003D1*
X7842127Y1381000D1*
X7826250D1*
X4540127Y4175000D2*
Y3698750D1*
X4540123Y3222500D2*
Y3698750D1*
X4540127D1*
X8413627Y1238123D2*
X8762873D1*
X8889873Y1111123D1*
X9810623D1*
X10366250Y1666750D1*
Y2730373D1*
X10223373Y2873250D1*
X5730750Y1492123D2*
X7429377D1*
X7540500Y1381000D1*
X7826250D1*
X5556127Y2746250D2*
X5683127D1*
X5730750Y2793873D1*
Y2873250D1*
X5360220Y5928150D2*
D14*
X5692957D1*
Y6048250D1*
X5879607Y5584093D2*
X5734713D1*
X5692957Y5625850D1*
Y5928150D1*
X5730750Y4857623D2*
X5734713D1*
Y5584093D1*
X4540123Y3222500D2*
X4350730D1*
X4362317Y3217780D1*
X4358450Y2081563D2*
X4979963D1*
X5569403Y1492123D1*
X5730750D1*
X2045000Y4086250D2*
D13*
Y4231997D1*
X1974997Y4302000D1*
X1635000D1*
X1301623Y3968623D1*
Y2920877D1*
X1968373Y2254127D1*
X2682750D1*
X10048750Y3127250D2*
X9937623Y3016123D1*
X9858247D1*
X9778873Y2936750D1*
Y2816257D1*
X9848880Y2746250D1*
X10118753D1*
X10239250Y2625753D1*
Y1873123D1*
X10096377Y1730250D1*
X9442497D1*
X9426623Y1714377D1*
X10048750Y3127250D2*
Y4147870D1*
X10050227D1*
X6530533Y4145713D2*
X5844340D1*
X5667250Y3968623D1*
X5556127D1*
X3889250D2*
X3771623Y4086250D1*
X2045000D1*
X4668890Y4460733D2*
D14*
Y4426233D1*
X5126500Y3968623D1*
X5556127D1*
X9511750Y6175750D2*
X9984750D1*
X10556750Y5603750D1*
Y4048000D1*
X10461500Y3952750D1*
Y3492377D1*
X10588500Y3365377D1*
X8524750Y3127250D2*
Y3381250D1*
X5556123Y3222500D2*
X5714873Y3381250D1*
X6619750D1*
X8524750D2*
X8635873D1*
X7000750Y3127250D2*
Y2889123D1*
X6667377Y2555750D1*
X4746500D1*
X4556000Y2746250D1*
X4540127D1*
X4143250D1*
X3190750Y3698750D1*
X1977063D1*
X1904873Y3770940D1*
Y3902937D1*
X1970563Y3968627D1*
X3603497D1*
X3714623Y3857500D1*
X3946663D1*
X4016667Y3927503D1*
Y4124313D1*
X3680287Y4460693D1*
X2890890D1*
X8270750Y5667250D2*
Y5032250D1*
X6349873D2*
X6334000D1*
X6143500Y4841750D1*
X6095877D1*
X1555627Y4032123D2*
X1603253Y4079750D1*
X1730250D1*
X6095873Y1365123D2*
X2158880D1*
X1555627Y1968377D1*
X9286750Y3555873D2*
Y3127250D1*
X4063873Y3143123D2*
X4238497Y2968500D1*
X5016377D1*
X5523837Y3475960D1*
X6063583D1*
X6143500Y3555877D1*
X6619750D1*
X1889000Y3143127D2*
X1619123D1*
X1523873Y3238377D1*
Y3492373D1*
X1603250Y3571750D1*
X1730250D1*
X9921750Y1857250D2*
X10026370D1*
X10096373Y1927253D1*
Y2406370D1*
X10010493Y2492250D1*
X9689063D1*
X9413750Y2767563D1*
Y5286250D1*
X9032750Y5667250D1*
X7254750Y3127250D2*
Y4286123D1*
X5556127Y4175000D2*
X5663000Y4281873D1*
X6530533D1*
X7289250Y6175750D2*
X7162750Y6302250D1*
X5040327D1*
X4894223Y6156147D1*
Y4658103D1*
X5373937Y4178390D1*
X5556127D1*
Y4175000D1*
X8400500Y6175750D2*
X8527000Y6302250D1*
X10048750D1*
X10715500Y5635500D1*
Y4016250D1*
X10588500Y3889250D1*
X5556127Y3698750D2*
X5960947D1*
X6151447Y3889250D1*
X6619750D1*
X7508750Y3127250D2*
Y3889250D1*
X7635750D2*
X7508750D1*
X9921750Y1603250D2*
Y1412750D1*
X9747123Y1238123D1*
X9429627D1*
X8985127D1*
X8778750Y1444500D1*
Y3127250D1*
X9636750Y5925750D2*
D13*
X8936750D1*
X8525500D1*
X7825500D1*
X7414250D1*
X6714250D1*
X6839250Y6175750D2*
X6714250D1*
Y5925750D1*
X7950500Y6175750D2*
Y5925750D1*
X7825500D1*
X9061750Y6175750D2*
Y5925750D1*
X8936750D1*
X9636750D2*
X9794750D1*
Y5667250D1*
Y3127250D2*
Y5667250D1*
X5946957Y6048250D2*
Y6166333D1*
X6013307Y6232683D1*
X6657317D1*
X6714250Y6175750D1*
X8286670Y2523997D2*
X8159620D1*
X8064373Y2428750D1*
Y1635000D1*
X7826250D1*
X2045000Y3324250D2*
Y2685500D1*
X2222373Y2508127D1*
X2682750D1*
X2714500D1*
X2952627Y2270000D1*
Y2202417D1*
X5068083D1*
X5635500Y1635000D1*
X7826250D1*
X9763000Y3095500D2*
X9794750Y3127250D1*
X9921750Y2619250D2*
X9810623D1*
X9683623Y2746250D1*
Y3031997D1*
X9778877Y3127250D1*
X9794750D1*
X9636750Y5925750D2*
X10044250D1*
X10350373Y5619627D1*
Y2952627D1*
X10493250Y2809750D1*
Y1555627D1*
X10382123Y1444500D1*
X8556500D2*
X8254873D1*
X8064373Y1635000D1*
X2890857Y5984693D2*
X4668857D1*
Y5984733D1*
X2952627Y2202417D2*
Y2158873D1*
X2746253Y1952500D1*
X1984250D1*
X1206373Y2730377D1*
Y4016247D1*
X2031877Y4841750D1*
X4743720D1*
X4806567Y4904597D1*
Y5866773D1*
X4688607Y5984733D1*
X4668857D1*
X5146603Y4622353D2*
D14*
X5142913D1*
X4969443Y4795820D1*
Y6096043D1*
X5106087Y6232683D1*
X6013307D1*
X8016750Y5667250D2*
Y5159250D1*
X6254627D2*
X6064127Y4968750D1*
X5984750D1*
X1444500Y3873377D2*
X1492127Y3825750D1*
X1730250D1*
X5984750Y1238123D2*
X2063627D1*
X1444500Y1857250D1*
X9032750Y3714623D2*
Y3127250D1*
X4063873Y3413000D2*
Y3333627D1*
X4365500Y3032000D1*
X4937000D1*
X5465983Y3560983D1*
X5989860D1*
X6143500Y3714623D1*
X6619750D1*
X3159000Y3413000D2*
X2460500D1*
X2428750Y3444750D1*
X1857250D1*
X1730250Y3317750D1*
X4668850Y6238730D2*
X3602923D1*
X3475943Y6111750D1*
X2047750D1*
X1809623Y5873623D1*
Y5127497D1*
X1698500Y5016373D1*
X1365123D1*
X4668860Y5730730D2*
X3602847D1*
X3475827Y5857750D1*
X2079500D1*
X1952500Y5730750D1*
Y5079873D1*
X1635000Y4762373D1*
X1365123D1*
X2682750Y2762127D2*
X2698623D1*
X3143917Y2316833D1*
X7158710D1*
X7588127Y2746250D1*
X7864503D1*
X8143750Y3025497D1*
Y3200120D1*
X8213753Y3270123D1*
X8318377D1*
X8397750Y3190750D1*
Y2711747D1*
X8429500Y2679997D1*
Y2190623D1*
X8286677Y2047800D1*
Y2015997D1*
X8416623Y1714377D2*
X8572377D1*
X8604127Y1746127D1*
Y2016003D1*
X5106220Y5928150D2*
Y5678737D1*
X5146603Y5638353D1*
X5498607Y5584093D2*
X5209920D1*
X5155660Y5638353D1*
X5146603D1*
X5498607Y5584093D2*
Y5531243D1*
X5501887Y5527963D1*
Y4560753D1*
X5608460Y4454180D1*
X6669520D1*
X6746750Y4376950D1*
Y3127250D1*
X8016750D2*
Y4254377D1*
X7872220Y4398907D1*
X7034157D1*
X6873750Y4238500D1*
Y3032000D1*
X6726080Y2884330D1*
X6338793D1*
X6222873Y3000250D1*
X5540253D1*
X5429127Y2889123D1*
X4143250D1*
X3200123Y3832250D1*
X2045000D1*
X8778750Y5667250D2*
X8747000D1*
Y4778250D1*
X6540373D2*
X6524503D1*
X6318127Y4571873D1*
Y4556000D1*
X7826250Y2143000D2*
X6318127D1*
X7762750Y5667250D2*
Y5286250D1*
X6159373D2*
X6000623Y5127500D1*
X5873627D1*
Y1127000D2*
X1936623D1*
X1111123Y1952500D1*
Y4063873D1*
X2143000Y5095750D1*
X3436490D1*
X3563510Y4968730D1*
X4668877D1*
X6200957Y6048250D2*
Y5693270D1*
X6369850Y5524377D1*
X6746750D1*
Y5667250D1*
Y4762377D1*
X6873753Y4635373D1*
X8985127D1*
X9159750Y4460750D1*
Y2857377D1*
X9651877Y2365250D1*
X9921750D1*
X6454957Y6048250D2*
Y5918757D1*
X6579463Y5794250D1*
X7365877D1*
X7492877Y5667250D1*
X7508750D1*
X6454957Y6048250D2*
X6447110D1*
X6334330Y6161030D1*
X6118897D1*
X6075410Y6117543D1*
Y5971070D1*
X6101433Y5945047D1*
Y5633263D1*
X6305573Y5429123D1*
X6540377D1*
X6651500Y5318000D1*
Y4698873D1*
X6810250Y4540123D1*
X8835747D1*
X8905750Y4470120D1*
Y2692123D1*
X9486623Y2111250D1*
X9921750D1*
X8270750Y3127250D2*
Y2841500D1*
X7826250Y2397000D1*
X2045000Y3578250D2*
X3168373D1*
X4317873Y2428750D1*
X7096000D1*
X7762750Y3095500D1*
Y3127250D1*
X8524750Y5667250D2*
Y4905250D1*
X6445127D2*
X6222877Y4683000D1*
X6207000D1*
X7826250Y1889000D2*
X6207000D1*
X4711040Y4718460D2*
X4668883D1*
Y4714730D1*
X5397233Y5272197D2*
Y4526467D1*
X5539560Y4384140D1*
X6581853D1*
X6646373Y4319620D1*
Y4087733D1*
X6582373Y4023733D1*
X5952123D1*
X5766550Y3838160D1*
X5077330D1*
X4514920Y4400570D1*
Y4574110D1*
X4655540Y4714730D1*
X4668883D1*
X6334833Y5858147D2*
Y5718023D1*
X6385607Y5667250D1*
X6492750D1*
X5843283Y5858147D2*
X5936193D1*
X6004930Y5789410D1*
Y5396187D1*
X5883333Y5274590D1*
X5873160D1*
X8604120Y2524003D2*
X8604127Y2841500D1*
X9540750D2*
Y3127250D1*
D27*
X6619750Y3381250D3*
X10588500Y3365377D3*
X8524750Y3381250D3*
X8635873D3*
X6619750Y3889250D3*
X10588500D3*
X7508750D3*
X7635750D3*
X7254750Y4286123D3*
X8747000Y4778250D3*
X6530533Y4281873D3*
X8524750Y4905250D3*
X8270750Y5032250D3*
X8016750Y5159250D3*
X7762750Y5286250D3*
X6540373Y4778250D3*
X6445127Y4905250D3*
X6349873Y5032250D3*
X6254627Y5159250D3*
X6159373Y5286250D3*
X6318127Y4556000D3*
X6207000Y4683000D3*
X6095877Y4841750D3*
X5984750Y4968750D3*
X5873627Y5127500D3*
X6318127Y2143000D3*
X6207000Y1889000D3*
X6095873Y1365123D3*
X5984750Y1238123D3*
X5873627Y1127000D3*
X1555627Y4032123D3*
X1444500Y3873377D3*
X1555627Y1968377D3*
X1444500Y1857250D3*
X6334833Y5858147D3*
X5843283D3*
X8604127Y2841500D3*
X9540750D3*
X6619750Y3555877D3*
Y3714623D3*
X9286750Y3555873D3*
X9032750Y3714623D3*
X3159000Y3413000D3*
X4063873D3*
X1889000Y3143127D3*
X4063873Y3143123D3*
X5730750Y4857623D3*
Y1492123D3*
Y2873250D3*
X10050227Y4147870D3*
X6530533Y4145713D3*
X5556127Y3968623D3*
X3889250D3*
X5397233Y5272197D3*
X5873160Y5274590D3*
X5731063Y2776303D3*
X8556500Y1444500D3*
X10382123D3*
X4362317Y3217780D3*
X4358450Y2081563D3*
D15*
X9061750Y6175750D3*
D16*
X9511750D3*
D17*
X8936750Y5925750D3*
X9636750D3*
D18*
X5360220Y5928150D3*
D19*
X5106220D3*
D20*
X8416623Y1714377D3*
D21*
X9426623D3*
X4668890Y4460733D3*
X4668884Y4714733D3*
X4668878Y4968733D3*
X4668873Y5222733D3*
X4668867Y5476733D3*
X4668862Y5730733D3*
X4668856Y5984733D3*
X4668850Y6238733D3*
X2890850Y6238694D3*
D3*
X2890856Y5984694D3*
X2890862Y5730694D3*
X2890867Y5476694D3*
X2890873Y5222694D3*
X2890878Y4968694D3*
X2890884Y4714694D3*
X2890890Y4460694D3*
D15*
X6839250Y6175750D3*
D16*
X7289250D3*
D17*
X6714250Y5925750D3*
X7414250D3*
D15*
X7950500Y6175750D3*
D16*
X8400500D3*
D17*
X7825500Y5925750D3*
X8525500D3*
D21*
X6492750Y3127250D3*
X6746750D3*
X7000750D3*
X7254750D3*
X7508750D3*
X7762750D3*
X8016750D3*
X8270750D3*
X8524750D3*
D3*
X8778750D3*
X9032750D3*
X9286750D3*
X9540750D3*
X9794750D3*
X10048750D3*
Y5667250D3*
X9794750D3*
X9540750D3*
X9286750D3*
X9032750D3*
X8778750D3*
X8524750D3*
X8270750D3*
X8016750D3*
X7762750D3*
X7508750D3*
X7254750D3*
X7000750D3*
X6746750D3*
X6492750D3*
X7826250Y1889000D3*
Y2143000D3*
Y2397000D3*
Y1635000D3*
Y1381000D3*
D20*
X1730250Y4079750D3*
D21*
Y3825750D3*
Y3571750D3*
Y3317750D3*
D20*
X5692957Y6048250D3*
D21*
X5946957D3*
X6200957D3*
X6454957D3*
X2045000Y4086250D3*
Y3832250D3*
Y3578250D3*
D3*
Y3324250D3*
X5879607Y5584093D3*
X5498607D3*
D22*
X5556127Y4175000D3*
D23*
X4540127D3*
D22*
X5556127Y3698750D3*
D23*
X4540127D3*
D22*
X5556123Y3222500D3*
D23*
X4540123D3*
D22*
X5556127Y2746250D3*
D23*
X4540127D3*
D22*
X9429627Y1238123D3*
D23*
X8413627D3*
D22*
X5146603Y5638353D3*
D23*
Y4622353D3*
D24*
X1365123Y5016373D3*
D17*
Y4762373D3*
D21*
X9921750Y2873250D3*
Y2619250D3*
Y2365250D3*
Y2111250D3*
Y1857250D3*
Y1603250D3*
X2682750Y2762127D3*
Y2508127D3*
Y2254127D3*
D25*
X8286669Y2523997D3*
D26*
X8604119Y2524003D3*
X8286678Y2015997D3*
X8604128Y2016003D3*
X4994310Y1816597D2*
D56*
Y1612421D1*
X4906710D1*
X4877510Y1622304D1*
X4867852Y1631963D1*
X4858193Y1651280D1*
Y1680480D1*
X4867852Y1700021D1*
X4877510Y1709680D1*
X4906710Y1719338D1*
X4877510Y1729221D1*
X4867852Y1738880D1*
X4858193Y1758197D1*
Y1777738D1*
X4867852Y1797055D1*
X4877510Y1806938D1*
X4906710Y1816597D1*
X4994310D1*
Y1719338D2*
X4906710D1*
X4795448Y1816597D2*
Y1612421D1*
X4577269D2*
Y1816597D1*
X4654986Y1612421D1*
X4732703Y1816597D1*
Y1612421D1*
X4494983Y1816372D2*
X4388290D1*
X4446466Y1738655D1*
X4417266D1*
X4397949Y1728997D1*
X4388290Y1719338D1*
X4378407Y1690138D1*
Y1670821D1*
X4388290Y1641621D1*
X4407607Y1622080D1*
X4436807Y1612421D1*
X4466007D1*
X4494983Y1622080D1*
X4504641Y1631963D1*
X4514524Y1651280D1*
X4305779Y1767855D2*
Y1777513D1*
X4296120Y1797055D1*
X4286462Y1806713D1*
X4266920Y1816372D1*
X4228062D1*
X4208745Y1806713D1*
X4199087Y1797055D1*
X4189204Y1777513D1*
Y1758197D1*
X4199087Y1738655D1*
X4218404Y1709680D1*
X4315662Y1612421D1*
X4179545D1*
X3919286Y1748538D2*
X3860886Y1612421D1*
X3802710Y1748538D1*
X3720424Y1816372D2*
X3613731D1*
X3671907Y1738655D1*
X3642707D1*
X3623390Y1728997D1*
X3613731Y1719338D1*
X3603848Y1690138D1*
Y1670821D1*
X3613731Y1641621D1*
X3633048Y1622080D1*
X3662248Y1612421D1*
X3691448D1*
X3720424Y1622080D1*
X3730082Y1631963D1*
X3739965Y1651280D1*
X3531445Y1631963D2*
X3541103Y1622080D1*
X3531445Y1612421D1*
X3521562Y1622080D1*
X3531445Y1631963D1*
X3400417Y1816372D2*
X3429617Y1806713D1*
X3449158Y1777513D1*
X3458817Y1728997D1*
Y1699797D1*
X3449158Y1651280D1*
X3429617Y1622080D1*
X3400417Y1612421D1*
X3381100D1*
X3351900Y1622080D1*
X3332583Y1651280D1*
X3322700Y1699797D1*
Y1728997D1*
X3332583Y1777513D1*
X3351900Y1806713D1*
X3381100Y1816372D1*
X3400417D1*
X3332583Y1777513D2*
X3449158Y1651280D1*
M02*
