M48
METRIC,0000.00
T01C0.486
T02C0.9
T03C0.965
T04C1.0
T05C1.1
T06C1.3
T07C3.2
%
T01
X+006620Y+003381
X+006620Y+003556
X+006620Y+003715
X+006620Y+003889
X+006531Y+004146
X+006531Y+004282
X+006318Y+004556
X+006207Y+004683
X+006096Y+004842
X+005985Y+004969
X+005874Y+005128
X+005873Y+005275
X+006159Y+005286
X+006255Y+005159
X+006350Y+005032
X+006445Y+004905
X+006540Y+004778
X+005731Y+004858
X+005397Y+005272
X+005843Y+005858
X+006335Y+005858
X+007763Y+005286
X+008017Y+005159
X+008271Y+005032
X+008525Y+004905
X+008747Y+004778
X+009033Y+003715
X+009287Y+003556
X+008636Y+003381
X+008525Y+003381
X+008604Y+002842
X+009541Y+002842
X+010588Y+003365
X+010588Y+003889
X+010050Y+004148
X+007636Y+003889
X+007509Y+003889
X+007255Y+004286
X+005556Y+003969
X+005731Y+002873
X+005731Y+002776
X+006318Y+002143
X+006207Y+001889
X+006096Y+001365
X+005985Y+001238
X+005874Y+001127
X+005731Y+001492
X+004358Y+002082
X+004064Y+003143
X+004064Y+003413
X+004362Y+003218
X+003889Y+003969
X+003159Y+003413
X+001889Y+003143
X+001444Y+003873
X+001556Y+004032
X+001556Y+001968
X+001444Y+001857
X+008556Y+001445
X+010382Y+001445
T02
X+008417Y+001714
X+007826Y+001635
X+007826Y+001889
X+007826Y+002143
X+007826Y+002397
X+007763Y+003127
X+007509Y+003127
X+007255Y+003127
X+007001Y+003127
X+006747Y+003127
X+006493Y+003127
X+008017Y+003127
X+008271Y+003127
X+008525Y+003127
X+008779Y+003127
X+009033Y+003127
X+009287Y+003127
X+009541Y+003127
X+009795Y+003127
X+010049Y+003127
X+009922Y+002873
X+009922Y+002619
X+009922Y+002365
X+009922Y+002111
X+009922Y+001857
X+009922Y+001603
X+009427Y+001714
X+007826Y+001381
X+007763Y+005667
X+008017Y+005667
X+008271Y+005667
X+008525Y+005667
X+008779Y+005667
X+009033Y+005667
X+009287Y+005667
X+009541Y+005667
X+009795Y+005667
X+010049Y+005667
X+007509Y+005667
X+007255Y+005667
X+007001Y+005667
X+006747Y+005667
X+006493Y+005667
X+006455Y+006048
X+006201Y+006048
X+005947Y+006048
X+005693Y+006048
X+005880Y+005584
X+005499Y+005584
X+004669Y+005477
X+004669Y+005731
X+004669Y+005985
X+004669Y+006239
X+004669Y+005223
X+004669Y+004969
X+004669Y+004715
X+004669Y+004461
X+002891Y+004461
X+002891Y+004715
X+002891Y+004969
X+002891Y+005223
X+002891Y+005477
X+002891Y+005731
X+002891Y+005985
X+002891Y+006239
X+002045Y+004086
X+002045Y+003832
X+002045Y+003578
X+002045Y+003324
X+001730Y+003318
X+001730Y+003572
X+001730Y+003826
X+001730Y+004080
X+002683Y+002762
X+002683Y+002508
X+002683Y+002254
T03
X+005556Y+004175
X+005556Y+003699
X+005556Y+003223
X+005556Y+002746
X+004540Y+002746
X+004540Y+003223
X+004540Y+003699
X+004540Y+004175
X+005147Y+004622
X+005147Y+005638
X+008414Y+001238
X+009430Y+001238
T04
X+009062Y+006176
X+009512Y+006176
X+008400Y+006176
X+007950Y+006176
X+007289Y+006176
X+006839Y+006176
X+005360Y+005928
X+005106Y+005928
T05
X+001365Y+005016
X+001365Y+004762
T06
X+008937Y+005926
X+008525Y+005926
X+007825Y+005926
X+007414Y+005926
X+006714Y+005926
X+009637Y+005926
T07
X+001283Y+006118
X+001283Y+001292
X+010681Y+001292
X+010681Y+006118
T00
M30
