G04 DipTrace 4.2.0.1*
G04 1 - Top.gbr*
%MOMM*%
G04 #@! TF.FileFunction,Copper,L1,Top*
G04 #@! TF.Part,Single*
G04 #@! TA.AperFunction,Conductor*
%ADD13C,0.5*%
%ADD14C,0.33*%
G04 #@! TA.AperFunction,ComponentPad*
%ADD15C,1.7*%
%ADD16R,1.7X1.7*%
%ADD17C,1.8*%
%ADD18C,1.6*%
%ADD19R,1.6X1.6*%
%ADD20R,1.5X1.5*%
%ADD21C,1.5*%
%ADD22C,1.524*%
%ADD23C,1.524*%
%ADD24R,1.8X1.8*%
G04 #@! TA.AperFunction,ViaPad*
%ADD27C,1.016*%
%FSLAX35Y35*%
G04*
G71*
G90*
G75*
G01*
G04 Top*
%LPD*%
X5730750Y4857623D2*
D13*
Y2873250D1*
Y2776303D1*
Y1492123D1*
Y2873250D2*
D3*
X5731063Y2776303D2*
X5730750D1*
X4362317Y3217780D2*
D14*
X4358450Y2081563D1*
X10050227Y4147870D2*
D13*
X6530533D1*
Y4145713D1*
X5556127Y3968623D2*
X3889250D1*
X8635873Y3381250D2*
D14*
X10588500D1*
Y3365377D1*
X6619750Y3381250D2*
X8524750D1*
X8635873D1*
X8270750Y5032250D2*
X6349873D1*
X6095877Y4841750D2*
Y1365123D1*
X6095873D1*
X1555627Y4032123D2*
Y1968377D1*
X6619750Y3555877D2*
X9286750D1*
Y3555873D1*
X1889000Y3143127D2*
X4063873D1*
Y3143123D1*
X6530533Y4281873D2*
Y4286123D1*
X7254750D1*
X10588500Y3889250D2*
X7635750D1*
X7508750D1*
X6619750D1*
X7635750D2*
D3*
X8556500Y1444500D2*
D13*
X10382123D1*
X8016750Y5159250D2*
D14*
X6254627D1*
X5984750Y4968750D2*
Y1238123D1*
X1444500Y3873377D2*
Y1857250D1*
X6619750Y3714623D2*
X9032750D1*
X3159000Y3413000D2*
X4063873D1*
X8747000Y4778250D2*
X6540373D1*
X6318127Y4556000D2*
Y2143000D1*
X7762750Y5286250D2*
X6159373D1*
X5873627Y5127500D2*
Y1127000D1*
X8524750Y4905250D2*
X6445127D1*
X6207000Y4683000D2*
Y1889000D1*
X5873160Y5274590D2*
X5397233D1*
Y5272197D1*
X5843283Y5858147D2*
X6334833D1*
X9540750Y2841500D2*
X8604127D1*
D27*
X6619750Y3381250D3*
X10588500Y3365377D3*
X8524750Y3381250D3*
X8635873D3*
X6619750Y3889250D3*
X10588500D3*
X7508750D3*
X7635750D3*
X7254750Y4286123D3*
X8747000Y4778250D3*
X6530533Y4281873D3*
X8524750Y4905250D3*
X8270750Y5032250D3*
X8016750Y5159250D3*
X7762750Y5286250D3*
X6540373Y4778250D3*
X6445127Y4905250D3*
X6349873Y5032250D3*
X6254627Y5159250D3*
X6159373Y5286250D3*
X6318127Y4556000D3*
X6207000Y4683000D3*
X6095877Y4841750D3*
X5984750Y4968750D3*
X5873627Y5127500D3*
X6318127Y2143000D3*
X6207000Y1889000D3*
X6095873Y1365123D3*
X5984750Y1238123D3*
X5873627Y1127000D3*
X1555627Y4032123D3*
X1444500Y3873377D3*
X1555627Y1968377D3*
X1444500Y1857250D3*
X6334833Y5858147D3*
X5843283D3*
X8604127Y2841500D3*
X9540750D3*
X6619750Y3555877D3*
Y3714623D3*
X9286750Y3555873D3*
X9032750Y3714623D3*
X3159000Y3413000D3*
X4063873D3*
X1889000Y3143127D3*
X4063873Y3143123D3*
X5730750Y4857623D3*
Y1492123D3*
Y2873250D3*
X10050227Y4147870D3*
X6530533Y4145713D3*
X5556127Y3968623D3*
X3889250D3*
X5397233Y5272197D3*
X5873160Y5274590D3*
X5731063Y2776303D3*
X8556500Y1444500D3*
X10382123D3*
X4362317Y3217780D3*
X4358450Y2081563D3*
D15*
X9061750Y6175750D3*
D16*
X9511750D3*
D17*
X8936750Y5925750D3*
X9636750D3*
D18*
X5360220Y5928150D3*
D19*
X5106220D3*
D20*
X8416623Y1714377D3*
D21*
X9426623D3*
X4668890Y4460733D3*
X4668884Y4714733D3*
X4668878Y4968733D3*
X4668873Y5222733D3*
X4668867Y5476733D3*
X4668862Y5730733D3*
X4668856Y5984733D3*
X4668850Y6238733D3*
X2890850Y6238694D3*
D3*
X2890856Y5984694D3*
X2890862Y5730694D3*
X2890867Y5476694D3*
X2890873Y5222694D3*
X2890878Y4968694D3*
X2890884Y4714694D3*
X2890890Y4460694D3*
D15*
X6839250Y6175750D3*
D16*
X7289250D3*
D17*
X6714250Y5925750D3*
X7414250D3*
D15*
X7950500Y6175750D3*
D16*
X8400500D3*
D17*
X7825500Y5925750D3*
X8525500D3*
D21*
X6492750Y3127250D3*
X6746750D3*
X7000750D3*
X7254750D3*
X7508750D3*
X7762750D3*
X8016750D3*
X8270750D3*
X8524750D3*
D3*
X8778750D3*
X9032750D3*
X9286750D3*
X9540750D3*
X9794750D3*
X10048750D3*
Y5667250D3*
X9794750D3*
X9540750D3*
X9286750D3*
X9032750D3*
X8778750D3*
X8524750D3*
X8270750D3*
X8016750D3*
X7762750D3*
X7508750D3*
X7254750D3*
X7000750D3*
X6746750D3*
X6492750D3*
X7826250Y1889000D3*
Y2143000D3*
Y2397000D3*
Y1635000D3*
Y1381000D3*
D20*
X1730250Y4079750D3*
D21*
Y3825750D3*
Y3571750D3*
Y3317750D3*
D20*
X5692957Y6048250D3*
D21*
X5946957D3*
X6200957D3*
X6454957D3*
X2045000Y4086250D3*
Y3832250D3*
Y3578250D3*
D3*
Y3324250D3*
X5879607Y5584093D3*
X5498607D3*
D22*
X5556127Y4175000D3*
D23*
X4540127D3*
D22*
X5556127Y3698750D3*
D23*
X4540127D3*
D22*
X5556123Y3222500D3*
D23*
X4540123D3*
D22*
X5556127Y2746250D3*
D23*
X4540127D3*
D22*
X9429627Y1238123D3*
D23*
X8413627D3*
D22*
X5146603Y5638353D3*
D23*
Y4622353D3*
D24*
X1365123Y5016373D3*
D17*
Y4762373D3*
D21*
X9921750Y2873250D3*
Y2619250D3*
Y2365250D3*
Y2111250D3*
Y1857250D3*
Y1603250D3*
X2682750Y2762127D3*
Y2508127D3*
Y2254127D3*
M02*
