G04 DipTrace 4.2.0.1*
G04 TopSilk.gbr*
%MOMM*%
G04 #@! TF.FileFunction,Legend,Top*
G04 #@! TF.Part,Single*
%ADD10C,0.12*%
%ADD54C,0.19608*%
%ADD55C,0.11765*%
%FSLAX35Y35*%
G04*
G71*
G90*
G75*
G01*
G04 TopSilk*
%LPD*%
X9636727Y5775750D2*
D10*
Y5800777D1*
Y6035723D2*
Y6060750D1*
Y5775750D2*
X9611733D1*
Y5800777D1*
X8976727Y6360763D2*
X9596773D1*
X8936773Y5775750D2*
Y5800777D1*
Y5775750D2*
X8961767D1*
Y5800777D1*
X8936773Y6035723D2*
Y6060750D1*
X9596773Y6360763D2*
Y6308283D1*
X8966783Y6100717D2*
Y6060750D1*
X9596773D2*
X9636727D1*
X8936773D2*
X8976727D1*
Y6278253D2*
Y6360763D1*
X8961767Y6035723D2*
Y6055743D1*
X9611733Y6035723D2*
Y6055743D1*
X8976727Y6060750D2*
X9596773D1*
X9106790Y6490750D2*
X9466710D1*
Y6360763D1*
X9106790Y6485747D2*
Y6360763D1*
X9286750Y6313217D2*
Y6118237D1*
Y6113230D2*
X9261757Y6163280D1*
X9286750Y6113230D2*
X9311743Y6163280D1*
X9286750Y6328230D2*
X9261757Y6273247D1*
X9286750Y6328230D2*
X9311743Y6273247D1*
X5055573Y5775750D2*
X5410867D1*
X5055573Y6080550D2*
X5410867D1*
Y5775750D2*
G03X5410867Y6080550I153J152400D01*
G01*
X5055573D2*
G03X5055573Y5775750I-153J-152400D01*
G01*
X8666423Y1599377D2*
Y1829377D1*
X9176823D1*
X8751220Y1599377D2*
Y1829377D1*
X9176823Y1599377D2*
Y1829377D1*
X8666423Y1599377D2*
X9176823D1*
X3652892Y4333711D2*
X2763892Y4333691D1*
X3906892Y4333716D2*
G03X3652892Y4333711I-127000J-3D01*
G01*
X2763892Y4333691D2*
X2763848Y6365691D1*
X4795848Y6365736D1*
X4795892Y4333736D1*
X3906892Y4333716D1*
X7414227Y5775750D2*
Y5800777D1*
Y6035723D2*
Y6060750D1*
Y5775750D2*
X7389233D1*
Y5800777D1*
X6754227Y6360763D2*
X7374273D1*
X6714273Y5775750D2*
Y5800777D1*
Y5775750D2*
X6739267D1*
Y5800777D1*
X6714273Y6035723D2*
Y6060750D1*
X7374273Y6360763D2*
Y6308283D1*
X6744283Y6100717D2*
Y6060750D1*
X7374273D2*
X7414227D1*
X6714273D2*
X6754227D1*
Y6278253D2*
Y6360763D1*
X6739267Y6035723D2*
Y6055743D1*
X7389233Y6035723D2*
Y6055743D1*
X6754227Y6060750D2*
X7374273D1*
X6884290Y6490750D2*
X7244210D1*
Y6360763D1*
X6884290Y6485747D2*
Y6360763D1*
X7064250Y6313217D2*
Y6118237D1*
Y6113230D2*
X7039257Y6163280D1*
X7064250Y6113230D2*
X7089243Y6163280D1*
X7064250Y6328230D2*
X7039257Y6273247D1*
X7064250Y6328230D2*
X7089243Y6273247D1*
X8525477Y5775750D2*
Y5800777D1*
Y6035723D2*
Y6060750D1*
Y5775750D2*
X8500483D1*
Y5800777D1*
X7865477Y6360763D2*
X8485523D1*
X7825523Y5775750D2*
Y5800777D1*
Y5775750D2*
X7850517D1*
Y5800777D1*
X7825523Y6035723D2*
Y6060750D1*
X8485523Y6360763D2*
Y6308283D1*
X7855533Y6100717D2*
Y6060750D1*
X8485523D2*
X8525477D1*
X7825523D2*
X7865477D1*
Y6278253D2*
Y6360763D1*
X7850517Y6035723D2*
Y6055743D1*
X8500483Y6035723D2*
Y6055743D1*
X7865477Y6060750D2*
X8485523D1*
X7995540Y6490750D2*
X8355460D1*
Y6360763D1*
X7995540Y6485747D2*
Y6360763D1*
X8175500Y6313217D2*
Y6118237D1*
Y6113230D2*
X8150507Y6163280D1*
X8175500Y6113230D2*
X8200493Y6163280D1*
X8175500Y6328230D2*
X8150507Y6273247D1*
X8175500Y6328230D2*
X8200493Y6273247D1*
X5984750Y3000250D2*
X10937750D1*
Y5794250D1*
X5984750D1*
Y3000250D1*
X5159250Y1254000D2*
X7953250D1*
Y2524000D1*
X5159250D1*
Y1254000D1*
Y1762000D2*
X5032250D1*
X4905250Y2016000D1*
X4778250Y1508000D1*
X4651250Y2016000D1*
X4524250Y1508000D1*
X4397250Y2016000D1*
X4270250Y1508000D1*
X4143250Y2016000D1*
X4016250Y1508000D1*
X3889250Y2016000D1*
X3762250Y1508000D1*
X3635250Y2016000D1*
X3508250Y1508000D1*
X3381250Y2016000D1*
X3254250Y1508000D1*
X3127250Y2016000D1*
X3000250Y1508000D1*
X2873250Y2016000D1*
X2746250Y1508000D1*
X1476520Y4206750D2*
Y3190750D1*
X1602900D1*
X1476520Y4206750D2*
X1602900D1*
X1137850Y4122423D2*
X1476520D1*
X1137850D2*
X1095250Y4079750D1*
X1137850Y4037077D1*
X1476520D1*
X1137850Y3868423D2*
X1476520D1*
X1137850D2*
X1095250Y3825750D1*
X1137850Y3783077D1*
X1476520D1*
X1137850Y3614423D2*
X1476520D1*
X1137850D2*
X1095250Y3571750D1*
X1137850Y3529077D1*
X1476520D1*
X1137850Y3360423D2*
X1476520D1*
X1137850D2*
X1095250Y3317750D1*
X1137850Y3275077D1*
X1476520D1*
X1602900Y4206750D2*
Y3190750D1*
X6581957Y5921250D2*
Y6175250D1*
X5565957Y5921250D2*
X6581957D1*
X5565957Y6175250D2*
X6581957D1*
X5565957Y5921250D2*
Y6175250D1*
X5752607Y5806343D2*
X5625607D1*
G03X5625607Y5361843I0J-222250D01*
G01*
X5752607D1*
G03X5752607Y5806343I0J222250D01*
G01*
X4794583Y4302000D2*
X5301670D1*
Y4048000D2*
Y4302000D1*
X4794583Y4048000D2*
X5301670D1*
X4794583D2*
Y4302000D1*
Y3825750D2*
X5301670D1*
Y3571750D2*
Y3825750D1*
X4794583Y3571750D2*
X5301670D1*
X4794583D2*
Y3825750D1*
X4794580Y3349500D2*
X5301667D1*
Y3095500D2*
Y3349500D1*
X4794580Y3095500D2*
X5301667D1*
X4794580D2*
Y3349500D1*
X4794583Y2873250D2*
X5301670D1*
Y2619250D2*
Y2873250D1*
X4794583Y2619250D2*
X5301670D1*
X4794583D2*
Y2873250D1*
X8668083Y1365123D2*
X9175170D1*
Y1111123D2*
Y1365123D1*
X8668083Y1111123D2*
X9175170D1*
X8668083D2*
Y1365123D1*
X5019603Y4876810D2*
Y5383897D1*
X5273603D2*
X5019603D1*
X5273603Y4876810D2*
Y5383897D1*
Y4876810D2*
X5019603D1*
X1746123Y5270373D2*
X1111123D1*
Y4508373D1*
X1746123D1*
Y5270373D1*
X10175750Y3000250D2*
Y1476250D1*
X10937750D1*
Y3000250D1*
X10175750D1*
X10048750Y2873250D2*
X10175750D1*
X10048750Y2619250D2*
X10175750D1*
X10048750Y2365250D2*
X10175750D1*
X10048750Y2111250D2*
X10175750D1*
X10048750Y1857250D2*
X10175750D1*
X10048750Y1603250D2*
X10175750D1*
X1031750Y2889127D2*
Y2127127D1*
X2809750D1*
Y2889127D1*
X1031750D1*
G36*
X2870333Y1213290D2*
X2852333Y1219290D1*
X2844333Y1223290D1*
X2838333Y1229290D1*
Y1231290D1*
X2836333Y1235290D1*
X2832333Y1241290D1*
X2830333Y1247290D1*
X2828333Y1249290D1*
Y1257290D1*
X2830333Y1259290D1*
Y1261290D1*
X2834333Y1263290D1*
X2839000Y1265290D1*
X2843667D1*
X2848333Y1263290D1*
X2852333Y1259290D1*
Y1257290D1*
X2856333Y1251290D1*
X2858333Y1247290D1*
X2864333Y1241290D1*
X2876333Y1237290D1*
X2902333D1*
X2908333Y1239290D1*
X2912333Y1241290D1*
X2926333Y1255290D1*
X2928333Y1261290D1*
Y1287290D1*
X2926333Y1293290D1*
X2914333Y1305290D1*
X2910333Y1307290D1*
X2886333Y1309290D1*
X2882333Y1311290D1*
Y1313290D1*
X2880333Y1315290D1*
Y1323290D1*
X2882333Y1325290D1*
X2888333Y1335290D1*
X2900333Y1351290D1*
X2908333Y1361290D1*
X2910333Y1365290D1*
X2850333Y1367290D1*
X2846333Y1369290D1*
Y1371290D1*
X2844333Y1373290D1*
Y1381290D1*
X2846333Y1383290D1*
Y1385290D1*
X2854333Y1389290D1*
X2881667Y1391290D1*
X2909000D1*
X2936333Y1389290D1*
X2942333Y1387290D1*
X2946333Y1385290D1*
Y1383290D1*
X2948333Y1381290D1*
Y1373290D1*
X2946333Y1371290D1*
X2940333Y1361290D1*
X2928333Y1345290D1*
X2920333Y1335290D1*
X2918333Y1331290D1*
X2928333Y1325290D1*
X2936333Y1321290D1*
X2946333Y1311290D1*
Y1309290D1*
X2950333Y1297290D1*
X2952333Y1289290D1*
X2954333Y1287290D1*
Y1261290D1*
X2952333Y1259290D1*
X2950333Y1251290D1*
X3048333D1*
X3046333Y1261290D1*
X3044333Y1269290D1*
X3042333Y1279290D1*
X3040333Y1287290D1*
X3038333Y1289290D1*
Y1311290D1*
X3040333Y1313290D1*
X3042333Y1321290D1*
X3044333Y1331290D1*
X3046333Y1339290D1*
X3048333Y1349290D1*
X3050333Y1355290D1*
X3054333Y1361290D1*
X3056333Y1365290D1*
X3060333Y1371290D1*
Y1373290D1*
X3066333Y1379290D1*
X3070333Y1381290D1*
X3094333Y1389290D1*
X3099667Y1391290D1*
X3105000D1*
X3110333Y1389290D1*
X3118333Y1387290D1*
X3136333Y1381290D1*
X3140333Y1379290D1*
X3146333Y1373290D1*
Y1371290D1*
X3148333Y1367290D1*
X3152333Y1361290D1*
X3156333Y1353290D1*
X3158333Y1347290D1*
X3160333Y1339290D1*
X3162333Y1329290D1*
X3164333Y1321290D1*
X3166333Y1319290D1*
Y1281290D1*
X3164333Y1279290D1*
X3162333Y1271290D1*
X3160333Y1261290D1*
X3158333Y1253290D1*
X3156333Y1247290D1*
X3152333Y1239290D1*
X3148333Y1233290D1*
X3146333Y1229290D1*
Y1227290D1*
X3140333Y1221290D1*
X3136333Y1219290D1*
X3118333Y1213290D1*
X3180333D1*
Y1445290D1*
X1872333D1*
Y1389290D1*
X1898333D1*
X1921000Y1391290D1*
X1943667D1*
X1966333Y1389290D1*
X2272333D1*
X2299667Y1391290D1*
X2327000D1*
X2354333Y1389290D1*
X2444333D1*
X2454333Y1391290D1*
X2464333D1*
X2474333Y1389290D1*
X2482333Y1387290D1*
X2498333Y1379290D1*
X2508333Y1369290D1*
Y1367290D1*
X2512333Y1359290D1*
X2514333Y1353290D1*
X2516333Y1351290D1*
Y1329290D1*
X2514333Y1327290D1*
X2512333Y1321290D1*
X2508333Y1315290D1*
X2506333Y1311290D1*
X2498333Y1299290D1*
X2496333Y1295290D1*
X2492333Y1289290D1*
X2442333Y1237290D1*
X2512333Y1235290D1*
X2518333Y1233290D1*
X2522333Y1231290D1*
Y1229290D1*
X2524333Y1227290D1*
Y1219290D1*
X2522333Y1217290D1*
Y1215290D1*
X2518333Y1213290D1*
X2480333Y1211290D1*
X2442333D1*
X2404333Y1213290D1*
X2400333Y1215290D1*
Y1217290D1*
X2398333Y1219290D1*
Y1227290D1*
X2400333Y1229290D1*
X2472333Y1305290D1*
X2476333Y1311290D1*
X2478333Y1315290D1*
X2486333Y1327290D1*
X2490333Y1335290D1*
Y1347290D1*
X2488333Y1351290D1*
X2478333Y1361290D1*
X2470333Y1365290D1*
X2450333D1*
X2446333Y1363290D1*
X2440333Y1359290D1*
X2432333Y1351290D1*
X2428333Y1343290D1*
X2426333Y1335290D1*
Y1333290D1*
X2418333Y1329290D1*
X2414333D1*
X2406333Y1333290D1*
Y1335290D1*
X2404333Y1339290D1*
X2402333Y1341290D1*
Y1347290D1*
X2404333Y1349290D1*
X2406333Y1353290D1*
X2408333Y1359290D1*
X2412333Y1367290D1*
Y1369290D1*
X2420333Y1377290D1*
X2432333Y1383290D1*
X2434333Y1385290D1*
X2438333Y1387290D1*
X2444333Y1389290D1*
X2354333D1*
X2360333Y1387290D1*
X2364333Y1385290D1*
Y1383290D1*
X2366333Y1381290D1*
Y1373290D1*
X2364333Y1371290D1*
X2358333Y1361290D1*
X2354333Y1355290D1*
X2342333Y1339290D1*
X2338333Y1333290D1*
Y1331290D1*
X2340333Y1329290D1*
X2356333Y1321290D1*
X2364333Y1313290D1*
Y1309290D1*
X2366333Y1303290D1*
X2368333Y1299290D1*
X2372333Y1287290D1*
X2374333Y1285290D1*
Y1263290D1*
X2372333Y1261290D1*
X2368333Y1249290D1*
X2366333Y1245290D1*
X2364333Y1239290D1*
Y1237290D1*
X2348333Y1221290D1*
X2344333Y1219290D1*
X2326333Y1213290D1*
X2313667Y1211290D1*
X2301000D1*
X2288333Y1213290D1*
X2218333D1*
X2214333Y1211290D1*
X2210333D1*
X2202333Y1215290D1*
Y1217290D1*
X2200333Y1221290D1*
X2198333Y1307290D1*
X2196333Y1301290D1*
X2194333Y1297290D1*
X2190333Y1285290D1*
X2188333Y1281290D1*
X2184333Y1269290D1*
X2182333Y1265290D1*
X2178333Y1253290D1*
X2176333Y1249290D1*
X2172333Y1237290D1*
X2170333Y1233290D1*
X2168333Y1227290D1*
X2166333Y1223290D1*
X2164333Y1217290D1*
Y1215290D1*
X2156333Y1211290D1*
X2152333D1*
X2144333Y1215290D1*
Y1217290D1*
X2142333Y1221290D1*
X2138333Y1233290D1*
X2136333Y1237290D1*
X2132333Y1249290D1*
X2130333Y1253290D1*
X2126333Y1265290D1*
X2124333Y1269290D1*
X2120333Y1281290D1*
X2118333Y1285290D1*
X2114333Y1297290D1*
X2112333Y1301290D1*
X2108333Y1313290D1*
X2106333Y1217290D1*
Y1215290D1*
X2098333Y1211290D1*
X2094333D1*
X2086333Y1215290D1*
Y1217290D1*
X2084333Y1221290D1*
X2082333Y1223290D1*
Y1377290D1*
X2084333Y1379290D1*
X2086333Y1383290D1*
Y1385290D1*
X2094333Y1389290D1*
X2098333D1*
X2106333Y1385290D1*
Y1383290D1*
X2108333Y1377290D1*
X2110333Y1373290D1*
X2112333Y1367290D1*
X2114333Y1363290D1*
X2118333Y1351290D1*
X2120333Y1347290D1*
X2124333Y1335290D1*
X2126333Y1331290D1*
X2130333Y1319290D1*
X2132333Y1315290D1*
X2136333Y1303290D1*
X2138333Y1299290D1*
X2142333Y1287290D1*
X2144333Y1283290D1*
X2148333Y1271290D1*
X2150333Y1267290D1*
X2154333Y1255290D1*
X2158333Y1267290D1*
X2160333Y1271290D1*
X2164333Y1283290D1*
X2166333Y1287290D1*
X2170333Y1299290D1*
X2172333Y1303290D1*
X2176333Y1315290D1*
X2178333Y1319290D1*
X2182333Y1331290D1*
X2184333Y1335290D1*
X2188333Y1347290D1*
X2190333Y1351290D1*
X2194333Y1363290D1*
X2196333Y1367290D1*
X2200333Y1379290D1*
X2202333Y1383290D1*
Y1385290D1*
X2210333Y1389290D1*
X2214333D1*
X2222333Y1385290D1*
Y1383290D1*
X2224333Y1381290D1*
Y1219290D1*
X2218333Y1213290D1*
X2288333D1*
X2270333Y1219290D1*
X2266333Y1221290D1*
X2258333Y1229290D1*
Y1231290D1*
X2256333Y1235290D1*
X2252333Y1241290D1*
X2250333Y1247290D1*
X2248333Y1249290D1*
Y1257290D1*
X2250333Y1259290D1*
Y1261290D1*
X2254333Y1263290D1*
X2259000Y1265290D1*
X2263667D1*
X2268333Y1263290D1*
X2272333Y1259290D1*
Y1257290D1*
X2276333Y1251290D1*
X2278333Y1247290D1*
X2284333Y1241290D1*
X2288333Y1239290D1*
X2294333Y1237290D1*
X2320333D1*
X2326333Y1239290D1*
X2330333Y1241290D1*
X2346333Y1257290D1*
X2348333Y1263290D1*
Y1285290D1*
X2346333Y1291290D1*
X2344333Y1295290D1*
X2336333Y1303290D1*
X2328333Y1307290D1*
X2306333Y1309290D1*
X2302333Y1311290D1*
Y1313290D1*
X2300333Y1315290D1*
Y1323290D1*
X2302333Y1325290D1*
X2308333Y1335290D1*
X2312333Y1341290D1*
X2318333Y1349290D1*
X2322333Y1355290D1*
X2328333Y1363290D1*
Y1365290D1*
X2268333Y1367290D1*
X2264333Y1369290D1*
Y1371290D1*
X2262333Y1373290D1*
Y1381290D1*
X2264333Y1383290D1*
X2272333Y1389290D1*
X1966333D1*
X1974333Y1387290D1*
X2044333D1*
X2048333Y1389290D1*
X2052333D1*
X2060333Y1385290D1*
Y1383290D1*
X2062333Y1381290D1*
Y1219290D1*
X2060333Y1217290D1*
Y1215290D1*
X2052333Y1211290D1*
X2048333D1*
X2040333Y1215290D1*
Y1217290D1*
X2038333Y1221290D1*
X2036333Y1223290D1*
Y1377290D1*
X2038333Y1379290D1*
X2039333Y1381290D1*
X2040425Y1383112D1*
X2042352Y1385247D1*
X2044333Y1387290D1*
X1974333D1*
X1992333Y1381290D1*
X1996333Y1379290D1*
X2006333Y1369290D1*
Y1367290D1*
X2010333Y1359290D1*
X2012333Y1353290D1*
X2014333Y1351290D1*
Y1329290D1*
X2012333Y1327290D1*
X2010333Y1321290D1*
X2006333Y1315290D1*
X2004333Y1311290D1*
X2000333Y1305290D1*
Y1303290D1*
X2004333Y1297290D1*
X2006333Y1293290D1*
X2010333Y1287290D1*
X2012333Y1281290D1*
X2014333Y1279290D1*
Y1249290D1*
X2012333Y1247290D1*
X2010333Y1241290D1*
X2006333Y1235290D1*
X2004333Y1231290D1*
Y1229290D1*
X1996333Y1221290D1*
X1992333Y1219290D1*
X1974333Y1213290D1*
X1947667Y1211290D1*
X1921000D1*
X1894333Y1213290D1*
X1890333Y1215290D1*
Y1217290D1*
X1888333Y1221290D1*
X1886333Y1223290D1*
Y1377290D1*
X1888333Y1379290D1*
X1890333Y1383290D1*
X1898333Y1389290D1*
X1872333D1*
Y1139290D1*
X3180333D1*
Y1213290D1*
X3118333D1*
X3108333Y1211290D1*
X3098333D1*
X3088333Y1213290D1*
X3006333D1*
X3001000Y1211290D1*
X2995667D1*
X2990333Y1213290D1*
X2986333Y1215290D1*
X2980333Y1221290D1*
Y1225290D1*
X2978333Y1227290D1*
Y1235290D1*
X2980333Y1237290D1*
Y1241290D1*
X2986333Y1247290D1*
X2990333Y1249290D1*
X2995667Y1251290D1*
X3001000D1*
X3006333Y1249290D1*
X3014333Y1241290D1*
Y1237290D1*
X3016333Y1235290D1*
Y1227290D1*
X3014333Y1225290D1*
X3006333Y1213290D1*
X3088333D1*
X3070333Y1219290D1*
X3066333Y1221290D1*
X3060333Y1227290D1*
Y1229290D1*
X3056333Y1235290D1*
X3054333Y1239290D1*
X3050333Y1245290D1*
X3048333Y1251290D1*
X2950333D1*
X2946333Y1239290D1*
Y1237290D1*
X2930333Y1221290D1*
X2926333Y1219290D1*
X2908333Y1213290D1*
X2895667Y1211290D1*
X2883000D1*
X2870333Y1213290D1*
X2758333D1*
X2753000Y1211290D1*
X2747667D1*
X2742333Y1213290D1*
X2738333Y1217290D1*
Y1219290D1*
X2736333Y1225290D1*
X2732333Y1233290D1*
X2730333Y1239290D1*
X2726333Y1247290D1*
X2724333Y1253290D1*
X2720333Y1261290D1*
X2718333Y1267290D1*
X2714333Y1275290D1*
X2712333Y1281290D1*
X2708333Y1289290D1*
X2706333Y1295290D1*
X2702333Y1303290D1*
X2700333Y1309290D1*
X2698333Y1313290D1*
X2696333Y1319290D1*
X2694333Y1321290D1*
Y1329290D1*
X2696333Y1331290D1*
Y1333290D1*
X2700333Y1335290D1*
X2705000Y1337290D1*
X2709667D1*
X2714333Y1335290D1*
X2718333Y1331290D1*
Y1329290D1*
X2720333Y1323290D1*
X2724333Y1315290D1*
X2726333Y1309290D1*
X2730333Y1301290D1*
X2732333Y1295290D1*
X2736333Y1287290D1*
X2738333Y1281290D1*
X2742333Y1273290D1*
X2744333Y1267290D1*
X2748333Y1259290D1*
X2750333Y1253290D1*
X2752333Y1259290D1*
X2756333Y1267290D1*
X2758333Y1273290D1*
X2762333Y1281290D1*
X2764333Y1287290D1*
X2768333Y1295290D1*
X2770333Y1301290D1*
X2774333Y1309290D1*
X2776333Y1315290D1*
X2780333Y1323290D1*
X2782333Y1329290D1*
Y1331290D1*
X2786333Y1335290D1*
X2791000Y1337290D1*
X2795667D1*
X2800333Y1335290D1*
X2804333Y1333290D1*
Y1331290D1*
X2806333Y1329290D1*
Y1321290D1*
X2804333Y1319290D1*
X2802333Y1313290D1*
X2800333Y1309290D1*
X2798333Y1303290D1*
X2794333Y1295290D1*
X2792333Y1289290D1*
X2788333Y1281290D1*
X2786333Y1275290D1*
X2782333Y1267290D1*
X2780333Y1261290D1*
X2776333Y1253290D1*
X2774333Y1247290D1*
X2770333Y1239290D1*
X2768333Y1233290D1*
X2764333Y1225290D1*
X2762333Y1219290D1*
X2758333Y1213290D1*
X2870333D1*
G37*
G36*
X1912333Y1365290D2*
Y1317290D1*
X1968333D1*
X1974333Y1319290D1*
X1978333Y1321290D1*
X1984333Y1327290D1*
X1988333Y1335290D1*
Y1347290D1*
X1986333Y1351290D1*
X1978333Y1359290D1*
X1974333Y1361290D1*
X1962333Y1365290D1*
X1912333D1*
G37*
G36*
X3100333D2*
X3088333Y1361290D1*
X3084333Y1359290D1*
X3080333Y1355290D1*
X3076333Y1349290D1*
X3070333Y1337290D1*
X3068333Y1329290D1*
X3066333Y1319290D1*
X3064333Y1311290D1*
Y1289290D1*
X3066333Y1281290D1*
X3068333D1*
X3072333Y1285290D1*
X3092333Y1307290D1*
X3114333Y1331290D1*
X3128333Y1347290D1*
Y1351290D1*
X3126333Y1355290D1*
X3122333Y1359290D1*
X3118333Y1361290D1*
X3106333Y1365290D1*
X3100333D1*
G37*
G36*
X3138333Y1319290D2*
X3134333Y1315290D1*
X3112333Y1291290D1*
X3092333Y1269290D1*
X3076333Y1251290D1*
X3080333Y1245290D1*
X3084333Y1241290D1*
X3088333Y1239290D1*
X3094333Y1237290D1*
X3112333D1*
X3118333Y1239290D1*
X3122333Y1241290D1*
X3126333Y1245290D1*
X3128333Y1249290D1*
X3132333Y1255290D1*
X3136333Y1263290D1*
X3138333Y1273290D1*
X3140333Y1281290D1*
Y1319290D1*
X3138333D1*
G37*
G36*
X1912333Y1291290D2*
Y1237290D1*
X1968333D1*
X1974333Y1239290D1*
X1978333Y1241290D1*
X1984333Y1247290D1*
X1988333Y1255290D1*
Y1273290D1*
X1984333Y1281290D1*
X1978333Y1287290D1*
X1964333Y1291290D1*
X1912333D1*
G37*
G36*
X3538682Y3885881D2*
X3532770Y3879971D1*
X3526858Y3871106D1*
X3525887Y3867521D1*
X3523902Y3865196D1*
X3491387Y3862240D1*
Y3838600D1*
X3520946Y3835645D1*
X3523902Y3832690D1*
Y3812004D1*
X3526858Y3809049D1*
Y3788363D1*
X3523724Y3785154D1*
X3522194Y3785634D1*
X3520946Y3788363D1*
X3503211Y3809049D1*
X3420443Y3897701D1*
X3382016Y3939073D1*
X3352456Y3968623D1*
Y3944983D1*
X3429311Y3862240D1*
X3470695Y3817914D1*
X3503211Y3785408D1*
X3535726D1*
Y3794274D1*
X3532770Y3826780D1*
X3529265Y3830102D1*
X3530178Y3832075D1*
X3532770Y3835645D1*
X3631303Y3838600D1*
X3729835D1*
X3828367Y3835645D1*
Y3820869D1*
X3810632Y3817914D1*
Y3776543D1*
X3801764Y3767678D1*
X3763336Y3726307D1*
X3760202Y3723097D1*
X3758671Y3723577D1*
X3757424Y3726307D1*
Y3744037D1*
X3642141D1*
Y3702666D1*
X3736732Y3699711D1*
X3724908Y3687891D1*
X3671701Y3631744D1*
X3668567Y3628535D1*
X3667036Y3629015D1*
X3665789Y3631744D1*
X3662833Y3637654D1*
X3580066Y3726307D1*
X3541638Y3767678D1*
X3535726Y3785408D1*
X3503211D1*
X3512078Y3773588D1*
X3529814Y3755858D1*
Y3741082D1*
X3538682D1*
X3540890Y3742980D1*
X3542422Y3742807D1*
X3544594Y3741082D1*
X3553462Y3729262D1*
X3591890Y3687891D1*
X3633273Y3643565D1*
X3656921Y3619924D1*
Y3616969D1*
X3651009Y3611059D1*
X3580066Y3537182D1*
Y3534227D1*
X3562330Y3516496D1*
X3557997Y3516796D1*
X3556418Y3519451D1*
Y3551957D1*
X3550506Y3622879D1*
X3544594Y3687891D1*
X3541638Y3723352D1*
X3538682Y3741082D1*
X3529814D1*
X3532770Y3708576D1*
X3541638Y3602193D1*
X3547550Y3537182D1*
X3550506Y3516496D1*
X3583022D1*
X3624405Y3557867D1*
Y3560822D1*
X3668745Y3605149D1*
X3671442Y3604019D1*
X3674019Y3601140D1*
X3674657Y3599238D1*
X3713085Y3557867D1*
X3795852Y3469215D1*
X3798808Y3466260D1*
Y3460350D1*
X3795674Y3457140D1*
X3794143Y3457620D1*
X3792896Y3460350D1*
X3769248D1*
X3760380Y3457395D1*
X3754468Y3454440D1*
X3733776Y3433754D1*
X3730820Y3427844D1*
X3727864Y3418979D1*
Y3404203D1*
X3674657Y3401248D1*
X3621449D1*
X3568242Y3404203D1*
Y3413068D1*
X3562330Y3483990D1*
X3559374Y3486945D1*
Y3492856D1*
X3583022Y3516496D1*
X3550506D1*
Y3504676D1*
X3503211Y3457395D1*
X3426355Y3377607D1*
X3355412Y3303730D1*
X3349500Y3294865D1*
X3358368Y3286000D1*
X3361324D1*
X3393840Y3318506D1*
X3547550Y3478080D1*
X3548033Y3480366D1*
X3549846Y3482788D1*
X3551303Y3482718D1*
X3553462Y3481035D1*
Y3466260D1*
X3556418Y3430799D1*
X3559374Y3401248D1*
X3742644D1*
X3745600Y3418979D1*
X3748556Y3424889D1*
Y3427844D1*
X3757424Y3436709D1*
X3769248Y3442619D1*
X3777131Y3445574D1*
X3785013D1*
X3792896Y3442619D1*
X3804720Y3436709D1*
X3813588Y3427844D1*
Y3424889D1*
X3816544Y3418979D1*
X3819500Y3416023D1*
Y3395338D1*
X3816544Y3392383D1*
Y3389428D1*
X3801764Y3374652D1*
X3795852Y3371697D1*
X3785999Y3368742D1*
X3776145D1*
X3766292Y3371697D1*
X3760380Y3374652D1*
X3745600Y3389428D1*
Y3392383D1*
X3742644Y3401248D1*
X3559374D1*
Y3398293D1*
X3562330Y3392383D1*
X3568242Y3389428D1*
Y3348057D1*
X3606670D1*
Y3389428D1*
X3648053Y3392383D1*
X3689437D1*
X3730820Y3389428D1*
Y3386473D1*
X3733776Y3380563D1*
X3739688Y3371697D1*
X3745600Y3365787D1*
X3754468Y3359877D1*
X3766292Y3353967D1*
X3795852D1*
X3813588Y3362832D1*
X3822456Y3371697D1*
X3828367Y3380563D1*
X3831323Y3386473D1*
X3834279Y3395338D1*
Y3418979D1*
X3831323Y3421934D1*
Y3427844D1*
X3833531Y3429742D1*
X3835026Y3429494D1*
X3836708Y3427050D1*
X3837235Y3424889D1*
X3875663Y3383518D1*
X3958430Y3294865D1*
X3970254Y3306686D1*
X3943650Y3336236D1*
X3860883Y3424889D1*
X3854971Y3430799D1*
X3834279D1*
X3831145Y3427589D1*
X3829618Y3428063D1*
X3827028Y3432351D1*
X3830428Y3433071D1*
X3832087Y3432633D1*
X3834279Y3430799D1*
X3854971D1*
X3831323Y3454440D1*
X3810632D1*
X3807497Y3451230D1*
X3805970Y3451704D1*
X3803380Y3455992D1*
X3806780Y3456711D1*
X3808439Y3456274D1*
X3810632Y3454440D1*
X3831323D1*
X3825412Y3463305D1*
X3807676Y3481035D1*
Y3492856D1*
X3801764D1*
X3798630Y3489646D1*
X3797099Y3490126D1*
X3795852Y3492856D1*
X3784028Y3507631D1*
X3701261Y3596283D1*
X3680569Y3616969D1*
X3698305Y3634699D1*
X3778116Y3717442D1*
Y3720397D1*
X3810632Y3752903D1*
X3814573Y3755858D1*
X3818514D1*
X3822456Y3752903D1*
Y3729262D1*
X3819500Y3726307D1*
X3816544Y3690846D1*
X3813588Y3661295D1*
X3804720Y3554912D1*
X3801764Y3525361D1*
Y3492856D1*
X3807676D1*
X3810632Y3504676D1*
X3816544Y3575598D1*
X3822456Y3640610D1*
X3828367Y3711531D1*
X3831323Y3744037D1*
Y3752903D1*
X3875663Y3755858D1*
Y3764723D1*
X3866795D1*
X3852015Y3761768D1*
X3837235D1*
X3822456Y3764723D1*
X3852015Y3794274D1*
X3860883Y3806094D1*
X3863091Y3807992D1*
X3864622Y3807819D1*
X3866795Y3806094D1*
Y3764723D1*
X3875663D1*
Y3809049D1*
X3843147D1*
X3825412Y3791319D1*
X3822277Y3788109D1*
X3820747Y3788589D1*
X3819500Y3791319D1*
Y3809049D1*
X3827382Y3812004D1*
X3835265D1*
X3843147Y3809049D1*
X3875663D1*
Y3820869D1*
X3925915Y3871106D1*
X3987990Y3936117D1*
Y3959758D1*
X3952518Y3924297D1*
X3878619Y3847465D1*
Y3844510D1*
X3854971Y3820869D1*
X3849059Y3817914D1*
X3843147D1*
X3837235Y3820869D1*
Y3835645D1*
X3854971Y3838600D1*
X3872707Y3856330D1*
X3875663Y3862240D1*
Y3865196D1*
X3828367D1*
X3747571Y3862240D1*
X3666774D1*
X3585978Y3865196D1*
Y3903612D1*
X3591890Y3906567D1*
X3606670Y3909522D1*
X3633273Y3912477D1*
X3636437Y3914241D1*
X3639004Y3914052D1*
X3642141Y3912477D1*
Y3900657D1*
X3736732D1*
Y3909522D1*
X3742644Y3912477D1*
X3748556D1*
X3754468Y3909522D1*
X3769248Y3906567D1*
X3781072Y3903612D1*
X3789940Y3900657D1*
X3801764Y3894746D1*
X3822456Y3874061D1*
Y3871106D1*
X3828367Y3865196D1*
X3875663D1*
Y3879971D1*
X3872707Y3885881D1*
X3866795Y3891791D1*
X3860883Y3894746D1*
X3843147D1*
X3837235Y3891791D1*
X3834279Y3888836D1*
X3832789Y3885873D1*
X3831073Y3882787D1*
X3828185Y3879709D1*
X3826663Y3880196D1*
X3825412Y3882926D1*
X3804720Y3903612D1*
X3792896Y3909522D1*
X3784028Y3912477D1*
X3727864D1*
Y3909522D1*
X3702246Y3906567D1*
X3676628D1*
X3651009Y3909522D1*
Y3927252D1*
X3676628Y3930207D1*
X3702246D1*
X3727864Y3927252D1*
Y3912477D1*
X3784028D1*
X3775160Y3915432D1*
X3760380Y3918387D1*
X3739688Y3921342D1*
X3736732Y3924297D1*
Y3936117D1*
X3642141D1*
Y3924297D1*
X3600758Y3918387D1*
X3595831Y3915432D1*
X3590904D1*
X3585978Y3918387D1*
Y3924297D1*
X3553462D1*
Y3900657D1*
X3550506Y3897701D1*
X3544594Y3894746D1*
X3541638Y3891791D1*
X3538682Y3885881D1*
X3547550D1*
X3549758Y3887779D1*
X3551289Y3887606D1*
X3553462Y3885881D1*
Y3865196D1*
X3546565Y3862240D1*
X3539667D1*
X3532770Y3865196D1*
X3535726Y3868151D1*
X3544594Y3879971D1*
X3547550Y3885881D1*
X3538682D1*
G37*
G36*
X3778116Y3427844D2*
X3766292Y3421934D1*
X3760380Y3410113D1*
Y3401248D1*
X3763336Y3395338D1*
X3769248Y3389428D1*
X3775160Y3386473D1*
X3786984D1*
X3792896Y3389428D1*
X3798808Y3395338D1*
X3801764Y3401248D1*
Y3410113D1*
X3795852Y3421934D1*
X3784028Y3427844D1*
X3778116D1*
G37*
G36*
X3783909Y2969050D2*
X3795687Y2979266D1*
X3803860Y2978337D1*
X3815453Y2969050D1*
X3831225D1*
X3846997Y2984958D1*
X3783909D1*
X3767185Y2967681D1*
X3759034Y2970232D1*
X3745215Y2993316D1*
X3763359Y2997188D1*
X3772210Y2994832D1*
X3783909Y2984958D1*
X3846997D1*
X3862769Y3000866D1*
X3846997D1*
X3830274Y2983589D1*
X3822145Y2986139D1*
X3811888Y3003843D1*
X3816999Y3014423D1*
X3827550Y3026454D1*
X3835263Y3025512D1*
X3844185Y3012498D1*
X3846997Y3000866D1*
X3862769D1*
X3878541Y3016774D1*
Y3032682D1*
X3861818Y3015404D1*
X3853667Y3017956D1*
X3839848Y3041040D1*
X3857992Y3044912D1*
X3866843Y3042556D1*
X3878541Y3032682D1*
X3881117Y3044985D1*
X3890792Y3058025D1*
X3898510Y3057554D1*
X3909213Y3048234D1*
X3910086Y3080406D1*
X3894313D1*
X3877590Y3063128D1*
X3869439Y3065680D1*
X3855620Y3088764D1*
X3873764Y3092636D1*
X3882615Y3090280D1*
X3894313Y3080406D1*
X3910086D1*
Y3096314D1*
X3893362Y3079036D1*
X3885211Y3081588D1*
X3871392Y3104672D1*
X3889536Y3108544D1*
X3898387Y3106188D1*
X3910086Y3096314D1*
Y3112221D1*
X3894313Y3159945D1*
X3878541Y3112221D1*
X3862769Y3080406D1*
X3858765Y3061638D1*
X3846076Y3047123D1*
X3837908Y3049802D1*
X3831225Y3064498D1*
X3799681Y3048590D1*
X3776483Y3035359D1*
X3794984Y3044169D1*
X3803341Y3041613D1*
X3808494Y3025482D1*
X3799346Y3015420D1*
X3790328Y3018053D1*
X3783909Y3032682D1*
X3768136Y3016774D1*
Y3000866D1*
X3736592Y2969050D1*
X3720820D1*
X3689276Y3000866D1*
X3672553Y2983589D1*
X3664402Y2986140D1*
X3650582Y3009224D1*
X3668726Y3013096D1*
X3677578Y3010740D1*
X3689276Y3000866D1*
Y3016774D1*
X3673504Y3064498D1*
Y3144037D1*
X3657732Y3207669D1*
X3641960Y3223577D1*
Y3207669D1*
X3657732Y3191761D1*
Y3128129D1*
X3641960Y3112221D1*
X3626187Y3080406D1*
Y3064498D1*
X3641960D1*
X3653738Y3074714D1*
X3661528Y3073088D1*
X3666588Y3057320D1*
X3657397Y3047238D1*
X3648377Y3049869D1*
X3641960Y3064498D1*
X3626187D1*
X3610415Y3048590D1*
X3626187D1*
X3637966Y3058806D1*
X3645756Y3057180D1*
X3650816Y3041412D1*
X3641625Y3031330D1*
X3632605Y3033961D1*
X3626187Y3048590D1*
X3610415D1*
Y3032682D1*
X3622194Y3042898D1*
X3629984Y3041272D1*
X3635043Y3025504D1*
X3625853Y3015422D1*
X3616833Y3018053D1*
X3610415Y3032682D1*
Y3016774D1*
X3626187D1*
X3637966Y3026990D1*
X3645944Y3025657D1*
X3654459Y3011986D1*
X3653390Y2997491D1*
X3641091Y2983503D1*
X3632886Y2986143D1*
X3622748Y3003655D1*
X3626187Y3016774D1*
X3610415D1*
X3578871Y2984958D1*
X3610415D1*
X3622194Y2995174D1*
X3629984Y2993549D1*
X3635043Y2977781D1*
X3625853Y2967698D1*
X3616833Y2970329D1*
X3610415Y2984958D1*
X3578871D1*
X3562148Y2967681D1*
X3553981Y2970264D1*
X3547327Y2984958D1*
Y2969050D1*
X3563099D1*
X3574878Y2979266D1*
X3583051Y2978337D1*
X3594643Y2969050D1*
X3657732D1*
X3669510Y2979266D1*
X3677300Y2977641D1*
X3682360Y2961873D1*
X3673169Y2951790D1*
X3664149Y2954421D1*
X3657732Y2969050D1*
X3594643D1*
X3577920Y2951773D1*
X3569753Y2954356D1*
X3563099Y2969050D1*
X3547327D1*
Y2953143D1*
X3578871D1*
X3590650Y2963359D1*
X3598823Y2962430D1*
X3610415Y2953143D1*
X3673504D1*
X3685282Y2963359D1*
X3693072Y2961733D1*
X3698132Y2945965D1*
X3688942Y2935882D1*
X3679921Y2938514D1*
X3673504Y2953143D1*
X3610415D1*
X3593692Y2935865D1*
X3585525Y2938448D1*
X3578871Y2953143D1*
X3547327D1*
X3530604Y2935865D1*
X3522437Y2938448D1*
X3515783Y2953143D1*
X3499059Y2935865D1*
X3490930Y2938415D1*
X3480674Y2956119D1*
X3485784Y2966699D1*
X3496336Y2978730D1*
X3504241Y2978177D1*
X3507897Y2969050D1*
Y2953143D1*
X3523669D1*
Y2984958D1*
X3468466D1*
X3451743Y2967681D1*
X3443592Y2970232D1*
X3429773Y2993316D1*
X3447917Y2997188D1*
X3456768Y2994832D1*
X3468466Y2984958D1*
X3515783D1*
Y3000866D1*
X3499059Y2983589D1*
X3490930Y2986139D1*
X3480674Y3003843D1*
X3485784Y3014423D1*
X3496336Y3026454D1*
X3504241Y3025900D1*
X3507897Y3016774D1*
Y3000866D1*
X3523669D1*
Y3032682D1*
X3500010D1*
X3483287Y3015404D1*
X3475136Y3017956D1*
X3461317Y3041040D1*
X3479461Y3044912D1*
X3488312Y3042556D1*
X3500010Y3032682D1*
X3515783D1*
X3484238Y3064498D1*
X3467515Y3047220D1*
X3459386Y3049770D1*
X3449130Y3067474D1*
X3454240Y3078054D1*
X3464791Y3090086D1*
X3472696Y3089532D1*
X3476352Y3080406D1*
Y3064498D1*
X3492124D1*
Y3080406D1*
X3436922Y3128129D1*
X3421150D1*
X3452694Y3096314D1*
Y3048590D1*
X3436922Y3032682D1*
Y2984958D1*
X3452694Y2937235D1*
X3468466D1*
X3480245Y2947451D1*
X3488418Y2946522D1*
X3500010Y2937235D1*
X3563099D1*
X3574878Y2947451D1*
X3582667Y2945825D1*
X3587727Y2930057D1*
X3578537Y2919975D1*
X3569517Y2922606D1*
X3563099Y2937235D1*
X3500010D1*
X3483287Y2919957D1*
X3475121Y2922540D1*
X3468466Y2937235D1*
X3452694D1*
Y2921327D1*
X3500010D1*
X3511789Y2931543D1*
X3519579Y2929917D1*
X3524639Y2914149D1*
X3515448Y2904067D1*
X3506428Y2906698D1*
X3500010Y2921327D1*
X3452694D1*
X3426407Y2905419D1*
X3400121D1*
X3373834Y2921327D1*
X3342289Y2953143D1*
X3325566Y2935865D1*
X3317415Y2938417D1*
X3303596Y2961501D1*
X3321740Y2965372D1*
X3330514Y2962865D1*
X3341179Y2952691D1*
X3326517Y2969050D1*
X3309794Y2951773D1*
X3301643Y2954324D1*
X3287823Y2977408D1*
X3305968Y2981280D1*
X3314819Y2978924D1*
X3326517Y2969050D1*
X3294973Y3000866D1*
X3231885Y3032682D1*
X3263429Y2984958D1*
X3279201Y2953143D1*
X3294973Y2905419D1*
X3358061D1*
X3369840Y2915635D1*
X3378013Y2914706D1*
X3389606Y2905419D1*
X3452694D1*
X3464473Y2915635D1*
X3472263Y2914009D1*
X3477322Y2898241D1*
X3468132Y2888159D1*
X3459112Y2890790D1*
X3452694Y2905419D1*
X3389606D1*
X3372882Y2888141D1*
X3364716Y2890725D1*
X3358061Y2905419D1*
X3294973D1*
Y2889511D1*
X3342289D1*
X3354068Y2899727D1*
X3362241Y2898798D1*
X3373834Y2889511D1*
X3436922D1*
X3448701Y2899727D1*
X3456490Y2898101D1*
X3461550Y2882333D1*
X3452360Y2872251D1*
X3443340Y2874882D1*
X3436922Y2889511D1*
X3373834D1*
X3357110Y2872233D1*
X3348944Y2874817D1*
X3342289Y2889511D1*
X3294973D1*
X3310745Y2873603D1*
X3373834D1*
X3385612Y2883819D1*
X3393402Y2882193D1*
X3398462Y2866425D1*
X3389271Y2856343D1*
X3380251Y2858974D1*
X3373834Y2873603D1*
X3310745D1*
Y2857695D1*
X3358061D1*
X3369840Y2867911D1*
X3377630Y2866285D1*
X3382690Y2850518D1*
X3373499Y2840435D1*
X3364479Y2843066D1*
X3358061Y2857695D1*
X3310745D1*
X3326517Y2841787D1*
X3405378D1*
X3417156Y2852003D1*
X3425134Y2850670D1*
X3434110Y2837516D1*
X3436922Y2825879D1*
X3452694Y2841787D1*
X3460642Y2857592D1*
X3469184Y2872284D1*
X3480381Y2883560D1*
X3488438Y2882817D1*
X3500010Y2873603D1*
X3594643Y2921327D1*
X3606422Y2931543D1*
X3614595Y2930614D1*
X3626187Y2921327D1*
X3736592D1*
Y2953143D1*
X3748371Y2963359D1*
X3756544Y2962430D1*
X3768136Y2953143D1*
Y2905419D1*
X3831225D1*
X3843004Y2915635D1*
X3850981Y2914302D1*
X3859496Y2900631D1*
X3858427Y2886135D1*
X3846128Y2872147D1*
X3837923Y2874788D1*
X3827785Y2892300D1*
X3831225Y2905419D1*
X3768136D1*
X3815453Y2873603D1*
X3846997D1*
X3858776Y2883819D1*
X3866566Y2882193D1*
X3871625Y2866425D1*
X3862435Y2856343D1*
X3853415Y2858974D1*
X3846997Y2873603D1*
X3815453D1*
X3846997Y2857695D1*
X3910086Y2794064D1*
Y2778156D1*
X3941630D1*
X3953408Y2788372D1*
X3961198Y2786746D1*
X3966258Y2770978D1*
X3957068Y2760896D1*
X3948047Y2763527D1*
X3941630Y2778156D1*
X3910086D1*
X3941630Y2746340D1*
X3935890Y2726780D1*
X3919106Y2713231D1*
X3904832Y2715774D1*
X3894313Y2730432D1*
X3405378D1*
X3388655Y2713154D1*
X3380504Y2715706D1*
X3366684Y2738790D1*
X3384828Y2742662D1*
X3393680Y2740306D1*
X3405378Y2730432D1*
X3894313D1*
X3846997Y2762248D1*
X3689276D1*
X3662989Y2746340D1*
X3636703D1*
X3610415Y2762248D1*
X3468466D1*
X3436922Y2746340D1*
X3417691Y2729738D1*
X3399455Y2731795D1*
X3389606Y2746340D1*
X3373834D1*
X3357110Y2729062D1*
X3348959Y2731614D1*
X3335140Y2754698D1*
X3353284Y2758570D1*
X3362135Y2756214D1*
X3373834Y2746340D1*
X3389606D1*
X3405378Y2778156D1*
Y2841787D1*
X3326517D1*
X3342289Y2825879D1*
X3373834D1*
X3385612Y2836095D1*
X3393402Y2834470D1*
X3398462Y2818702D1*
X3389271Y2808619D1*
X3380251Y2811250D1*
X3373834Y2825879D1*
X3342289D1*
X3294973Y2794064D1*
X3373834D1*
X3385612Y2804280D1*
X3393402Y2802654D1*
X3398462Y2786886D1*
X3389271Y2776804D1*
X3380251Y2779435D1*
X3373834Y2794064D1*
X3294973D1*
Y2778156D1*
X3358061D1*
X3369840Y2788372D1*
X3377630Y2786746D1*
X3382690Y2770978D1*
X3373499Y2760896D1*
X3364479Y2763527D1*
X3358061Y2778156D1*
X3294973D1*
X3278250Y2760878D1*
X3270121Y2763428D1*
X3259992Y2780943D1*
X3263429Y2794064D1*
X3246706Y2776786D1*
X3238555Y2779338D1*
X3224735Y2802422D1*
X3242879Y2806294D1*
X3251653Y2803786D1*
X3262318Y2793612D1*
X3247657Y2809971D1*
X3231885D1*
X3215161Y2792694D1*
X3207010Y2795246D1*
X3193191Y2818329D1*
X3211335Y2822201D1*
X3220186Y2819845D1*
X3231885Y2809971D1*
X3247657D1*
X3216112Y2825879D1*
X3199389Y2808602D1*
X3191222Y2811185D1*
X3184568Y2825879D1*
X3121480D1*
Y2809971D1*
X3133258Y2820188D1*
X3141431Y2819258D1*
X3153024Y2809971D1*
X3216112Y2762248D1*
X3279201D1*
X3290979Y2772464D1*
X3298769Y2770838D1*
X3303829Y2755070D1*
X3294639Y2744988D1*
X3285619Y2747619D1*
X3279201Y2762248D1*
X3216112D1*
X3231885Y2746340D1*
X3243663Y2756556D1*
X3251453Y2754930D1*
X3256513Y2739162D1*
X3247322Y2729080D1*
X3238302Y2731711D1*
X3231885Y2746340D1*
Y2730432D1*
X3294973D1*
X3297549Y2742735D1*
X3307223Y2755775D1*
X3314806Y2755021D1*
X3323249Y2741550D1*
X3322177Y2727058D1*
X3309876Y2713069D1*
X3301634Y2715743D1*
X3294973Y2730432D1*
X3231885D1*
X3263429Y2714524D1*
X3326517D1*
X3338296Y2724740D1*
X3346469Y2723811D1*
X3358061Y2714524D1*
X3594643D1*
X3606422Y2724740D1*
X3614399Y2723407D1*
X3623375Y2710253D1*
X3626187Y2698616D1*
X3594643Y2666800D1*
X3568356Y2650893D1*
X3542070D1*
X3515783Y2666800D1*
X3578871Y2698616D1*
X3594643Y2714524D1*
X3358061D1*
X3341338Y2697247D1*
X3333171Y2699830D1*
X3326517Y2714524D1*
X3263429D1*
X3294973Y2698616D1*
X3306752Y2708832D1*
X3314541Y2707206D1*
X3319601Y2691439D1*
X3310411Y2681356D1*
X3301391Y2683987D1*
X3294973Y2698616D1*
Y2682708D1*
X3389606D1*
X3406458Y2693328D1*
X3421150Y2698616D1*
X3452694Y2666800D1*
Y2650893D1*
X3468466Y2634985D1*
X3578871D1*
X3610415Y2650893D1*
X3626187Y2666800D1*
X3641960Y2714524D1*
X3653738Y2724740D1*
X3661911Y2723811D1*
X3673504Y2714524D1*
Y2682708D1*
X3720820Y2634985D1*
X3831225D1*
X3894313Y2698616D1*
X3908702Y2692533D1*
X3922456Y2677037D1*
X3925858Y2666800D1*
X3957402Y2650893D1*
X3925858Y2619077D1*
X3973174D1*
X3984953Y2629293D1*
X3992742Y2627667D1*
X3997802Y2611899D1*
X3988612Y2601817D1*
X3979592Y2604448D1*
X3973174Y2619077D1*
X3925858D1*
Y2603169D1*
X3988946D1*
X4000725Y2613385D1*
X4008515Y2611759D1*
X4013574Y2595991D1*
X4004384Y2585909D1*
X3995364Y2588540D1*
X3988946Y2603169D1*
X3925858D1*
X3910086Y2555445D1*
X3894313Y2523629D1*
Y2507722D1*
X3906092Y2517938D1*
X3913882Y2516312D1*
X3918942Y2500544D1*
X3909751Y2490461D1*
X3900731Y2493093D1*
X3894313Y2507722D1*
X3878541Y2491814D1*
X3925858D1*
X3937636Y2502030D1*
X3945426Y2500404D1*
X3950486Y2484636D1*
X3941295Y2474554D1*
X3932275Y2477185D1*
X3925858Y2491814D1*
X3878541D1*
X3846997Y2475906D1*
X3878541D1*
X3890320Y2486122D1*
X3898110Y2484496D1*
X3903169Y2468728D1*
X3893979Y2458646D1*
X3884959Y2461277D1*
X3878541Y2475906D1*
X3846997D1*
X3752364Y2428182D1*
X3748360Y2409414D1*
X3735671Y2394900D1*
X3727503Y2397578D1*
X3720820Y2412274D1*
X3657732D1*
X3641008Y2394997D1*
X3632842Y2397580D1*
X3626187Y2412274D1*
X3515783Y2444090D1*
X3468466D1*
X3451743Y2426812D1*
X3443592Y2429364D1*
X3429773Y2452448D1*
X3447917Y2456320D1*
X3456768Y2453964D1*
X3468466Y2444090D1*
X3515783D1*
X3500010Y2459998D1*
X3452694D1*
X3435971Y2442720D1*
X3427820Y2445272D1*
X3414000Y2468356D1*
X3432145Y2472228D1*
X3440996Y2469872D1*
X3452694Y2459998D1*
X3500010D1*
X3452694Y2491814D1*
X3421150Y2523629D1*
X3405378D1*
X3388655Y2506352D1*
X3380504Y2508903D1*
X3366684Y2531987D1*
X3384828Y2535859D1*
X3393680Y2533503D1*
X3405378Y2523629D1*
X3421150D1*
X3389606Y2587261D1*
X3358061D1*
X3341338Y2569983D1*
X3333187Y2572535D1*
X3319368Y2595619D1*
X3337512Y2599491D1*
X3346363Y2597135D1*
X3358061Y2587261D1*
X3389606D1*
X3373834Y2619077D1*
X3263429D1*
X3246706Y2601799D1*
X3238555Y2604351D1*
X3224735Y2627435D1*
X3242879Y2631307D1*
X3251731Y2628951D1*
X3263429Y2619077D1*
X3373834D1*
X3358061Y2634985D1*
X3294973D1*
X3278250Y2617707D1*
X3270099Y2620259D1*
X3256279Y2643343D1*
X3274423Y2647215D1*
X3283275Y2644859D1*
X3294973Y2634985D1*
X3358061D1*
X3373834Y2650893D1*
X3389606Y2682708D1*
X3294973D1*
X3271775Y2669478D1*
X3290276Y2678288D1*
X3298634Y2675731D1*
X3303786Y2659601D1*
X3294639Y2649539D1*
X3285620Y2652172D1*
X3279201Y2666800D1*
X3231885Y2650893D1*
X3310745D1*
X3322524Y2661109D1*
X3330314Y2659483D1*
X3335373Y2643715D1*
X3326183Y2633632D1*
X3317163Y2636264D1*
X3310745Y2650893D1*
X3231885D1*
X3208687Y2637662D1*
X3227188Y2646472D1*
X3235545Y2643915D1*
X3240698Y2627785D1*
X3231550Y2617723D1*
X3222532Y2620356D1*
X3216112Y2634985D1*
X3199389Y2617707D1*
X3191260Y2620257D1*
X3181131Y2637772D1*
X3184568Y2650893D1*
X3089935Y2619077D1*
X3200340D1*
X3212119Y2629293D1*
X3219909Y2627667D1*
X3224968Y2611899D1*
X3215778Y2601817D1*
X3206758Y2604448D1*
X3200340Y2619077D1*
X3089935D1*
X3074163Y2603169D1*
X3105708Y2619077D1*
X3137252D1*
X3168796Y2603169D1*
X3263429D1*
X3275207Y2613385D1*
X3283185Y2612052D1*
X3291700Y2598381D1*
X3290631Y2583885D1*
X3278332Y2569898D1*
X3270127Y2572538D1*
X3259989Y2590050D1*
X3263429Y2603169D1*
X3168796D1*
X3200340Y2587261D1*
X3212119Y2597477D1*
X3220096Y2596144D1*
X3229072Y2582990D1*
X3231885Y2571353D1*
X3342289D1*
X3354068Y2581569D1*
X3361858Y2579943D1*
X3366917Y2564175D1*
X3357727Y2554093D1*
X3348707Y2556724D1*
X3342289Y2571353D1*
X3231885D1*
X3326517Y2539537D1*
X3338296Y2549753D1*
X3346086Y2548128D1*
X3351145Y2532360D1*
X3341955Y2522277D1*
X3332935Y2524908D1*
X3326517Y2539537D1*
X3303320Y2526307D1*
X3321820Y2535117D1*
X3330178Y2532560D1*
X3335331Y2516429D1*
X3326183Y2506368D1*
X3317164Y2509001D1*
X3310745Y2523629D1*
X3294973Y2507722D1*
X3405378D1*
X3417156Y2517938D1*
X3425134Y2516604D1*
X3433649Y2502933D1*
X3432580Y2488438D1*
X3420281Y2474450D1*
X3412038Y2477124D1*
X3405378Y2491814D1*
X3373834D1*
X3357110Y2474536D1*
X3348959Y2477088D1*
X3335140Y2500172D1*
X3353284Y2504044D1*
X3362135Y2501688D1*
X3373834Y2491814D1*
X3405378D1*
Y2507722D1*
X3294973D1*
X3263429Y2491814D1*
X3310745D1*
X3322524Y2502030D1*
X3330314Y2500404D1*
X3335373Y2484636D1*
X3326183Y2474554D1*
X3317163Y2477185D1*
X3310745Y2491814D1*
X3263429D1*
X3231885Y2475906D1*
X3358061D1*
X3369840Y2486122D1*
X3377630Y2484496D1*
X3382690Y2468728D1*
X3373499Y2458646D1*
X3364479Y2461277D1*
X3358061Y2475906D1*
X3231885D1*
X3200340Y2459998D1*
X3326517D1*
X3338296Y2470214D1*
X3346086Y2468588D1*
X3351145Y2452820D1*
X3341955Y2442738D1*
X3332935Y2445369D1*
X3326517Y2459998D1*
X3200340D1*
X3177143Y2446767D1*
X3195643Y2455577D1*
X3204001Y2453021D1*
X3209154Y2436890D1*
X3200006Y2426828D1*
X3190987Y2429461D1*
X3184568Y2444090D1*
X3153024Y2412274D1*
X3164803Y2422490D1*
X3172976Y2421561D1*
X3184568Y2412274D1*
X3231885Y2428182D1*
X3243663Y2438398D1*
X3251836Y2437469D1*
X3263429Y2428182D1*
X3310745D1*
X3337032Y2444090D1*
X3363318D1*
X3389606Y2428182D1*
X3468466D1*
X3480245Y2438398D1*
X3488035Y2436772D1*
X3493094Y2421004D1*
X3483904Y2410922D1*
X3474884Y2413553D1*
X3468466Y2428182D1*
X3389606D1*
Y2412274D1*
X3531555D1*
X3543333Y2422490D1*
X3551123Y2420864D1*
X3556183Y2405097D1*
X3546992Y2395014D1*
X3537972Y2397645D1*
X3531555Y2412274D1*
X3389606D1*
X3405378Y2396366D1*
X3417156Y2406582D1*
X3425330Y2405653D1*
X3436922Y2396366D1*
X3500010D1*
X3511789Y2406582D1*
X3519579Y2404957D1*
X3524639Y2389189D1*
X3515448Y2379106D1*
X3506428Y2381737D1*
X3500010Y2396366D1*
X3436922D1*
X3420199Y2379089D1*
X3412032Y2381672D1*
X3405378Y2396366D1*
X3389606Y2380458D1*
X3626187D1*
X3637966Y2390674D1*
X3645756Y2389049D1*
X3650816Y2373281D1*
X3641625Y2363198D1*
X3632605Y2365829D1*
X3626187Y2380458D1*
X3389606D1*
X3373834Y2364550D1*
X3405378D1*
X3417156Y2374767D1*
X3425134Y2373433D1*
X3433649Y2359762D1*
X3432580Y2345267D1*
X3420281Y2331279D1*
X3412076Y2333920D1*
X3401938Y2351431D1*
X3405378Y2364550D1*
X3373834D1*
X3358061Y2348643D1*
X3326517Y2285011D1*
Y2253195D1*
X3373834Y2285011D1*
X3468466Y2332735D1*
X3484238Y2348643D1*
X3468466D1*
X3451743Y2331365D1*
X3443614Y2333915D1*
X3433358Y2351619D1*
X3438468Y2362199D1*
X3449019Y2374230D1*
X3456732Y2373289D1*
X3465654Y2360274D1*
X3468466Y2348643D1*
X3484238D1*
X3487508Y2359436D1*
X3501797Y2372590D1*
X3514898Y2372568D1*
X3531555Y2364550D1*
X3563099D1*
X3574878Y2374767D1*
X3582667Y2373141D1*
X3587727Y2357373D1*
X3578537Y2347290D1*
X3569517Y2349922D1*
X3563099Y2364550D1*
X3531555D1*
Y2348643D1*
X3594643D1*
X3597219Y2360946D1*
X3606893Y2373985D1*
X3614477Y2373231D1*
X3622919Y2359761D1*
X3621847Y2345269D1*
X3609546Y2331279D1*
X3601304Y2333953D1*
X3594643Y2348643D1*
X3531555D1*
X3547327Y2332735D1*
X3578871D1*
X3590650Y2342951D1*
X3598440Y2341325D1*
X3603499Y2325557D1*
X3594309Y2315475D1*
X3585289Y2318106D1*
X3578871Y2332735D1*
X3547327D1*
X3531555Y2316827D1*
X3610415D1*
X3622194Y2327043D1*
X3629984Y2325417D1*
X3635043Y2309649D1*
X3625853Y2299567D1*
X3616833Y2302198D1*
X3610415Y2316827D1*
X3531555D1*
Y2300919D1*
X3547327D1*
X3559105Y2311135D1*
X3566895Y2309509D1*
X3571955Y2293741D1*
X3562765Y2283659D1*
X3553745Y2286290D1*
X3547327Y2300919D1*
X3531555D1*
Y2285011D1*
X3563099D1*
X3574878Y2295227D1*
X3582667Y2293601D1*
X3587727Y2277833D1*
X3578537Y2267751D1*
X3569517Y2270382D1*
X3563099Y2285011D1*
X3531555D1*
Y2141840D1*
X3547327Y2205472D1*
Y2221379D1*
X3578871Y2253195D1*
X3610415Y2269103D1*
X3626187Y2285011D1*
X3649907Y2332631D1*
X3658449Y2347324D1*
X3669646Y2358599D1*
X3677704Y2357856D1*
X3689276Y2348643D1*
X3752364D1*
X3764143Y2358859D1*
X3771933Y2357233D1*
X3776993Y2341465D1*
X3767802Y2331383D1*
X3758782Y2334014D1*
X3752364Y2348643D1*
X3689276D1*
Y2332735D1*
X3701055Y2342951D1*
X3708844Y2341325D1*
X3713904Y2325557D1*
X3704714Y2315475D1*
X3697578Y2317446D1*
X3686995Y2339637D1*
X3705048Y2316827D1*
X3752364D1*
X3764143Y2327043D1*
X3771933Y2325417D1*
X3776993Y2309649D1*
X3767802Y2299567D1*
X3758782Y2302198D1*
X3752364Y2316827D1*
X3705048D1*
Y2300919D1*
X3736592D1*
X3748371Y2311135D1*
X3756161Y2309509D1*
X3761220Y2293741D1*
X3752030Y2283659D1*
X3743010Y2286290D1*
X3736592Y2300919D1*
X3705048D1*
X3720820Y2269103D1*
X3732599Y2279319D1*
X3740389Y2277693D1*
X3745448Y2261925D1*
X3736258Y2251843D1*
X3727238Y2254474D1*
X3720820Y2269103D1*
Y2253195D1*
X3736592Y2205472D1*
X3748371Y2215688D1*
X3756161Y2214062D1*
X3761220Y2198294D1*
X3752030Y2188212D1*
X3743010Y2190843D1*
X3736592Y2205472D1*
Y2173656D1*
X3768136Y2141840D1*
X3783909Y2253195D1*
Y2348643D1*
X3815453Y2364550D1*
X3768136D1*
X3751413Y2347273D1*
X3743262Y2349825D1*
X3729443Y2372908D1*
X3747587Y2376780D1*
X3756438Y2374425D1*
X3768136Y2364550D1*
X3815453D1*
Y2380458D1*
X3752364D1*
X3735641Y2363181D1*
X3727490Y2365732D1*
X3713671Y2388816D1*
X3731815Y2392688D1*
X3740666Y2390332D1*
X3752364Y2380458D1*
X3815453D1*
Y2396366D1*
X3798730Y2379089D1*
X3790563Y2381672D1*
X3783909Y2396366D1*
X3626187D1*
X3609464Y2379089D1*
X3601313Y2381640D1*
X3587494Y2404724D1*
X3605638Y2408596D1*
X3614489Y2406240D1*
X3626187Y2396366D1*
X3783909D1*
X3786484Y2408669D1*
X3796159Y2421709D1*
X3803742Y2420955D1*
X3812641Y2407997D1*
X3815453Y2396366D1*
X3827231Y2406582D1*
X3835405Y2405653D1*
X3846997Y2396366D1*
X3910086D1*
X3921864Y2406582D1*
X3930037Y2405653D1*
X3941630Y2396366D1*
Y2364550D1*
X3924907Y2347273D1*
X3916740Y2349856D1*
X3910086Y2364550D1*
Y2396366D1*
X3846997D1*
Y2380458D1*
X3878541Y2348643D1*
X3890320Y2358859D1*
X3898110Y2357233D1*
X3903169Y2341465D1*
X3893979Y2331383D1*
X3884959Y2334014D1*
X3878541Y2348643D1*
X3910086Y2316827D1*
Y2300919D1*
X3925858D1*
X3937636Y2311135D1*
X3945426Y2309509D1*
X3950486Y2293741D1*
X3941295Y2283659D1*
X3932275Y2286290D1*
X3925858Y2300919D1*
X3910086D1*
Y2285011D1*
X3921864Y2295227D1*
X3929654Y2293601D1*
X3934714Y2277833D1*
X3925523Y2267751D1*
X3916503Y2270382D1*
X3910086Y2285011D1*
X3941630Y2253195D1*
X3973174Y2237287D1*
Y2253195D1*
X3957402Y2300919D1*
X3941630Y2396366D1*
X3925858Y2412274D1*
X3910086D1*
X3893362Y2394997D1*
X3885211Y2397548D1*
X3871392Y2420632D1*
X3889536Y2424504D1*
X3898387Y2422148D1*
X3910086Y2412274D1*
X3925858D1*
X3910086Y2428182D1*
X3862769D1*
X3846046Y2410904D1*
X3837895Y2413456D1*
X3824075Y2436540D1*
X3842220Y2440412D1*
X3851071Y2438056D1*
X3862769Y2428182D1*
X3910086D1*
X3925858Y2444090D1*
X3894313D1*
X3877590Y2426812D1*
X3869439Y2429364D1*
X3855620Y2452448D1*
X3873764Y2456320D1*
X3882615Y2453964D1*
X3894313Y2444090D1*
X3925858D1*
X3941630Y2459998D1*
X3953408Y2470214D1*
X3961582Y2469285D1*
X3973174Y2459998D1*
X4020490D1*
X4032269Y2470214D1*
X4040059Y2468588D1*
X4045119Y2452820D1*
X4035928Y2442738D1*
X4026908Y2445369D1*
X4020490Y2459998D1*
X3973174D1*
X4004718Y2444090D1*
X4036262D1*
X4048041Y2454306D1*
X4055831Y2452680D1*
X4060891Y2436912D1*
X4051700Y2426830D1*
X4042680Y2429461D1*
X4036262Y2444090D1*
X4004718D1*
X4036262Y2412274D1*
X4067807D1*
X4079585Y2422490D1*
X4087375Y2420864D1*
X4092435Y2405097D1*
X4083244Y2395014D1*
X4074224Y2397645D1*
X4067807Y2412274D1*
X4036262D1*
X4099351Y2380458D1*
X4116233Y2389957D1*
X4129928Y2388936D1*
X4146667Y2380458D1*
Y2396366D1*
X4130895Y2412274D1*
X4114172Y2394997D1*
X4106043Y2397547D1*
X4095914Y2415061D1*
X4099351Y2428182D1*
X4067807Y2444090D1*
X4078669Y2447956D1*
X4069488Y2443498D1*
X4057386Y2445557D1*
X4045221Y2468090D1*
X4063042Y2472169D1*
X4071805Y2469705D1*
X4082472Y2459548D1*
X4067807Y2475906D1*
X4004718D1*
X3987995Y2458628D1*
X3979844Y2461180D1*
X3966025Y2484264D1*
X3984169Y2488136D1*
X3993020Y2485780D1*
X4004718Y2475906D1*
X4067807D1*
Y2491814D1*
X4052035D1*
X4035311Y2474536D1*
X4027160Y2477088D1*
X4013341Y2500172D1*
X4031485Y2504044D1*
X4040336Y2501688D1*
X4052035Y2491814D1*
X4067807D1*
X4052035Y2507722D1*
X4020490D1*
X4003767Y2490444D1*
X3995616Y2492996D1*
X3981797Y2516080D1*
X3999941Y2519952D1*
X4008792Y2517596D1*
X4020490Y2507722D1*
X4052035D1*
X4036262Y2523629D1*
X3988946D1*
X3972223Y2506352D1*
X3964072Y2508903D1*
X3950252Y2531987D1*
X3968397Y2535859D1*
X3977248Y2533503D1*
X3988946Y2523629D1*
X4036262D1*
X4020490Y2539537D1*
X3957402D1*
X3940679Y2522260D1*
X3932550Y2524810D1*
X3922293Y2542514D1*
X3927403Y2553094D1*
X3937955Y2565125D1*
X3945667Y2564183D1*
X3954590Y2551169D1*
X3957402Y2539537D1*
X4020490D1*
X4001786Y2557421D1*
X4004718Y2571353D1*
X4036262Y2587261D1*
X4057291Y2603169D1*
X4078322D1*
X4099351Y2587261D1*
X4193984Y2571353D1*
X4225528Y2587261D1*
X4241300Y2603169D1*
X4209756D1*
X4193033Y2585891D1*
X4184866Y2588475D1*
X4178212Y2603169D1*
X4115123D1*
X4098400Y2585891D1*
X4090249Y2588443D1*
X4076429Y2611527D1*
X4094574Y2615399D1*
X4103425Y2613043D1*
X4115123Y2603169D1*
X4178212D1*
X4146667Y2619077D1*
X4099351D1*
X4082628Y2601799D1*
X4074477Y2604351D1*
X4060657Y2627435D1*
X4078801Y2631307D1*
X4087653Y2628951D1*
X4099351Y2619077D1*
X4146667D1*
X4115123Y2650893D1*
X4111119Y2632124D1*
X4098430Y2617610D1*
X4090261Y2620289D1*
X4083579Y2634985D1*
X4020490D1*
X4003767Y2617707D1*
X3995638Y2620257D1*
X3985382Y2637961D1*
X3990492Y2648541D1*
X4001043Y2660573D1*
X4008756Y2659631D1*
X4017678Y2646617D1*
X4020490Y2634985D1*
X4083579D1*
Y2666800D1*
X4066856Y2649523D1*
X4058689Y2652106D1*
X4059921Y2666800D1*
Y2670777D1*
X4044149D1*
Y2666800D1*
X4035311Y2649523D1*
X4027145Y2652106D1*
X4020490Y2666800D1*
X3973174D1*
X3956451Y2649523D1*
X3948322Y2652073D1*
X3938065Y2669777D1*
X3943175Y2680357D1*
X3953727Y2692388D1*
X3961440Y2691447D1*
X3970362Y2678432D1*
X3973174Y2666800D1*
X4020490D1*
Y2682708D1*
X4004718Y2698616D1*
X3862769D1*
X3857585Y2679317D1*
X3846997Y2666800D1*
X3815453Y2650893D1*
X3783909D1*
X3752364Y2666800D1*
X3815453Y2698616D1*
X3832335Y2708115D1*
X3846030Y2707094D1*
X3862769Y2698616D1*
X4004718D1*
Y2714524D1*
X3957402D1*
X3940679Y2697247D1*
X3932528Y2699798D1*
X3918708Y2722882D1*
X3936852Y2726754D1*
X3945704Y2724398D1*
X3957402Y2714524D1*
X4004718D1*
X4015581Y2718390D1*
X4006400Y2713932D1*
X3994298Y2715991D1*
X3982133Y2738524D1*
X3999953Y2742603D1*
X4008792Y2740290D1*
X4020490Y2730432D1*
X4052035Y2746340D1*
X3988946D1*
X3972223Y2729062D1*
X3964094Y2731612D1*
X3953837Y2749316D1*
X3958948Y2759897D1*
X3969499Y2771928D1*
X3977212Y2770986D1*
X3986134Y2757972D1*
X3988946Y2746340D1*
X4052035D1*
X4054610Y2758643D1*
X4064285Y2771683D1*
X4072059Y2771309D1*
X4083579Y2762248D1*
X4146667D1*
X4178212Y2778156D1*
X4162439D1*
X4145716Y2760878D1*
X4137549Y2763462D1*
X4130895Y2778156D1*
X4067807D1*
X4051084Y2760878D1*
X4042933Y2763430D1*
X4029113Y2786514D1*
X4047257Y2790386D1*
X4056109Y2788030D1*
X4067807Y2778156D1*
X4130895D1*
X4142674Y2788372D1*
X4150847Y2787443D1*
X4162439Y2778156D1*
X4178212D1*
X4209756Y2794064D1*
X4178212Y2809971D1*
X4146667Y2794064D1*
X4129944Y2776786D1*
X4121777Y2779369D1*
X4115123Y2794064D1*
X4052035D1*
X4035311Y2776786D1*
X4027160Y2779338D1*
X4013341Y2802422D1*
X4031485Y2806294D1*
X4040336Y2803938D1*
X4052035Y2794064D1*
X4115123D1*
X4099351Y2809971D1*
X4036262D1*
X4019539Y2792694D1*
X4011372Y2795277D1*
X4004718Y2809971D1*
X3941630D1*
X3924907Y2792694D1*
X3916756Y2795246D1*
X3902936Y2818329D1*
X3921080Y2822201D1*
X3929932Y2819845D1*
X3941630Y2809971D1*
X4004718D1*
Y2825879D1*
X3987995Y2808602D1*
X3979828Y2811185D1*
X3973174Y2825879D1*
X3925858D1*
X3909134Y2808602D1*
X3900983Y2811153D1*
X3887164Y2834237D1*
X3905308Y2838109D1*
X3914159Y2835753D1*
X3925858Y2825879D1*
X3973174D1*
Y2857695D1*
X3957402D1*
X3940679Y2840418D1*
X3932528Y2842969D1*
X3918708Y2866053D1*
X3936852Y2869925D1*
X3945704Y2867569D1*
X3957402Y2857695D1*
X3973174D1*
X3988946Y2873603D1*
X3973174D1*
X3956451Y2856325D1*
X3948300Y2858877D1*
X3934480Y2881961D1*
X3952625Y2885833D1*
X3961476Y2883477D1*
X3973174Y2873603D1*
X3988946D1*
X4004718Y2889511D1*
X3988946D1*
X3972223Y2872233D1*
X3964056Y2874817D1*
X3957402Y2889511D1*
X3894313D1*
X3877590Y2872233D1*
X3869439Y2874785D1*
X3855620Y2897869D1*
X3873764Y2901741D1*
X3882615Y2899385D1*
X3894313Y2889511D1*
X3957402D1*
X3969181Y2899727D1*
X3977354Y2898798D1*
X3988946Y2889511D1*
X4004718D1*
X4020490Y2905419D1*
X3957402D1*
X3940679Y2888141D1*
X3932550Y2890691D1*
X3922293Y2908395D1*
X3927403Y2918976D1*
X3937955Y2931007D1*
X3945667Y2930065D1*
X3954590Y2917051D1*
X3957402Y2905419D1*
X4020490D1*
X4036262Y2921327D1*
X3988946D1*
X3972223Y2904049D1*
X3964094Y2906599D1*
X3953837Y2924303D1*
X3958948Y2934883D1*
X3969499Y2946915D1*
X3977212Y2945973D1*
X3986134Y2932959D1*
X3988946Y2921327D1*
X4036262D1*
X4099351Y2984958D1*
X4082628Y2967681D1*
X4074477Y2970232D1*
X4060657Y2993316D1*
X4078801Y2997188D1*
X4087653Y2994832D1*
X4099351Y2984958D1*
Y3000866D1*
X4083579D1*
X4036262Y2969050D1*
X4017032Y2952449D1*
X3998796Y2954506D1*
X3988946Y2969050D1*
X3925858Y2953143D1*
X3894313Y2921327D1*
X3877590Y2904049D1*
X3869423Y2906633D1*
X3862769Y2921327D1*
X3799681D1*
X3782958Y2904049D1*
X3774807Y2906601D1*
X3760987Y2929685D1*
X3779131Y2933557D1*
X3787983Y2931201D1*
X3799681Y2921327D1*
X3870655D1*
Y2953143D1*
X3854883D1*
Y2937235D1*
X3846046Y2919957D1*
X3837879Y2922540D1*
X3831225Y2937235D1*
Y2969050D1*
X3815453D1*
X3798730Y2951773D1*
X3790563Y2954356D1*
X3783909Y2969050D1*
X3720820D1*
X3704097Y2951773D1*
X3695946Y2954324D1*
X3682126Y2977408D1*
X3700271Y2981280D1*
X3709122Y2978924D1*
X3720820Y2969050D1*
X3783909D1*
G37*
G36*
X4209756Y2825879D2*
D1*
G37*
G36*
X3862769Y2619077D2*
D1*
G37*
G36*
X3531555Y2539537D2*
D1*
G37*
G36*
X3778332Y2545162D2*
X3762559Y2529254D1*
X3773714Y2518004D1*
X3789486Y2533912D1*
X3778332Y2545162D1*
G37*
G36*
X3572135Y2503585D2*
X3577332Y2494973D1*
X3590806Y2503243D1*
X3585607Y2511858D1*
X3572135Y2503585D1*
G37*
G36*
X3720820Y2507722D2*
X3626187Y2491814D1*
X3705048D1*
X3736592Y2507722D1*
X3720820D1*
G37*
X9260882Y2799775D2*
D55*
X9290026Y2723209D1*
X9319170Y2799775D1*
X9397365Y2781581D2*
X9393743Y2788825D1*
X9386415Y2796153D1*
X9379171Y2799775D1*
X9364599D1*
X9357271Y2796153D1*
X9350028Y2788825D1*
X9346321Y2781581D1*
X9342699Y2770631D1*
Y2752353D1*
X9346321Y2741487D1*
X9350028Y2734159D1*
X9357271Y2726915D1*
X9364599Y2723209D1*
X9379171D1*
X9386415Y2726915D1*
X9393743Y2734159D1*
X9397365Y2741487D1*
X9475560Y2781581D2*
X9471938Y2788825D1*
X9464610Y2796153D1*
X9457367Y2799775D1*
X9442795D1*
X9435467Y2796153D1*
X9428223Y2788825D1*
X9424517Y2781581D1*
X9420895Y2770631D1*
Y2752353D1*
X9424517Y2741487D1*
X9428223Y2734159D1*
X9435467Y2726915D1*
X9442795Y2723209D1*
X9457367D1*
X9464610Y2726915D1*
X9471938Y2734159D1*
X9475560Y2741487D1*
X9315548Y2642850D2*
X9311926Y2650094D1*
X9304598Y2657422D1*
X9297354Y2661044D1*
X9282782D1*
X9275454Y2657422D1*
X9268210Y2650094D1*
X9264504Y2642850D1*
X9260882Y2631900D1*
Y2613622D1*
X9264504Y2602756D1*
X9268210Y2595428D1*
X9275454Y2588184D1*
X9282782Y2584478D1*
X9297354D1*
X9304598Y2588184D1*
X9311926Y2595428D1*
X9315548Y2602756D1*
Y2613622D1*
X9297354D1*
X9390121Y2661044D2*
Y2584478D1*
X9339078Y2661044D1*
Y2584478D1*
X9413651Y2661044D2*
Y2584478D1*
X9439173D1*
X9450123Y2588184D1*
X9457451Y2595428D1*
X9461073Y2602756D1*
X9464695Y2613622D1*
Y2631900D1*
X9461073Y2642850D1*
X9457451Y2650094D1*
X9450123Y2657422D1*
X9439173Y2661044D1*
X9413651D1*
X9311926Y2511363D2*
X9304682Y2518691D1*
X9293732Y2522313D1*
X9279160D1*
X9268210Y2518691D1*
X9260882Y2511363D1*
Y2504119D1*
X9264589Y2496791D1*
X9268210Y2493169D1*
X9275454Y2489547D1*
X9297354Y2482219D1*
X9304682Y2478597D1*
X9308304Y2474891D1*
X9311926Y2467647D1*
Y2456697D1*
X9304682Y2449453D1*
X9293732Y2445747D1*
X9279160D1*
X9268210Y2449453D1*
X9260882Y2456697D1*
X9390121Y2504119D2*
X9386499Y2511363D1*
X9379171Y2518691D1*
X9371928Y2522313D1*
X9357356D1*
X9350028Y2518691D1*
X9342784Y2511363D1*
X9339078Y2504119D1*
X9335456Y2493169D1*
Y2474891D1*
X9339078Y2464025D1*
X9342784Y2456697D1*
X9350028Y2449453D1*
X9357356Y2445747D1*
X9371928D1*
X9379171Y2449453D1*
X9386499Y2456697D1*
X9390121Y2464025D1*
X9413651Y2522313D2*
Y2445747D1*
X9457367D1*
X9311926Y2372632D2*
X9304682Y2379960D1*
X9293732Y2383582D1*
X9279160D1*
X9268210Y2379960D1*
X9260882Y2372632D1*
Y2365388D1*
X9264589Y2358060D1*
X9268210Y2354438D1*
X9275454Y2350816D1*
X9297354Y2343488D1*
X9304682Y2339866D1*
X9308304Y2336160D1*
X9311926Y2328916D1*
Y2317966D1*
X9304682Y2310722D1*
X9293732Y2307016D1*
X9279160D1*
X9268210Y2310722D1*
X9260882Y2317966D1*
X9335456Y2383582D2*
Y2307016D1*
X9360978D1*
X9371928Y2310722D1*
X9379256Y2317966D1*
X9382878Y2325294D1*
X9386499Y2336160D1*
Y2354438D1*
X9382878Y2365388D1*
X9379256Y2372632D1*
X9371928Y2379960D1*
X9360978Y2383582D1*
X9335456D1*
X9468401Y2307016D2*
X9439173Y2383582D1*
X9410029Y2307016D1*
X9420979Y2332538D2*
X9457451D1*
X9260882Y2244851D2*
Y2168285D1*
X9286404D1*
X9297354Y2171992D1*
X9304682Y2179235D1*
X9308304Y2186563D1*
X9311926Y2197429D1*
Y2215707D1*
X9308304Y2226657D1*
X9304682Y2233901D1*
X9297354Y2241229D1*
X9286404Y2244851D1*
X9260882D1*
X9335456D2*
Y2168285D1*
X9386499Y2244851D2*
Y2168285D1*
X9335456Y2208379D2*
X9386499D1*
X9435551Y2244851D2*
Y2168285D1*
X9410029Y2244851D2*
X9461073D1*
X9488308Y2226573D2*
Y2230195D1*
X9491930Y2237523D1*
X9495552Y2241145D1*
X9502880Y2244767D1*
X9517452D1*
X9524696Y2241145D1*
X9528318Y2237523D1*
X9532024Y2230195D1*
Y2222951D1*
X9528318Y2215623D1*
X9521074Y2204757D1*
X9484602Y2168285D1*
X9535646D1*
X9562882Y2226573D2*
Y2230195D1*
X9566503Y2237523D1*
X9570125Y2241145D1*
X9577453Y2244767D1*
X9592025D1*
X9599269Y2241145D1*
X9602891Y2237523D1*
X9606597Y2230195D1*
Y2222951D1*
X9602891Y2215623D1*
X9595647Y2204757D1*
X9559175Y2168285D1*
X9610219D1*
X9260882Y2106120D2*
Y2029554D1*
X9286404D1*
X9297354Y2033261D1*
X9304682Y2040504D1*
X9308304Y2047832D1*
X9311926Y2058698D1*
Y2076976D1*
X9308304Y2087926D1*
X9304682Y2095170D1*
X9297354Y2102498D1*
X9286404Y2106120D1*
X9260882D1*
X9386499Y2095170D2*
X9379256Y2102498D1*
X9368306Y2106120D1*
X9353734D1*
X9342784Y2102498D1*
X9335456Y2095170D1*
Y2087926D1*
X9339162Y2080598D1*
X9342784Y2076976D1*
X9350028Y2073354D1*
X9371928Y2066026D1*
X9379256Y2062404D1*
X9382878Y2058698D1*
X9386499Y2051454D1*
Y2040504D1*
X9379256Y2033261D1*
X9368306Y2029554D1*
X9353734D1*
X9342784Y2033261D1*
X9335456Y2040504D1*
X9410029Y2091464D2*
X9417357Y2095170D1*
X9428307Y2106036D1*
Y2029554D1*
X9470030Y2106036D2*
X9459164Y2102414D1*
X9455458Y2095170D1*
Y2087842D1*
X9459164Y2080598D1*
X9466408Y2076892D1*
X9480980Y2073270D1*
X9491930Y2069648D1*
X9499174Y2062320D1*
X9502796Y2055076D1*
Y2044126D1*
X9499174Y2036882D1*
X9495552Y2033176D1*
X9484602Y2029554D1*
X9470030D1*
X9459164Y2033176D1*
X9455458Y2036882D1*
X9451836Y2044126D1*
Y2055076D1*
X9455458Y2062320D1*
X9462786Y2069648D1*
X9473652Y2073270D1*
X9488224Y2076892D1*
X9495552Y2080598D1*
X9499174Y2087842D1*
Y2095170D1*
X9495552Y2102414D1*
X9484602Y2106036D1*
X9470030D1*
X4847800Y5490227D2*
D54*
X4853837Y5471977D1*
X4872087Y5459763D1*
X4902410Y5453727D1*
X4920660D1*
X4950983Y5459763D1*
X4969233Y5471977D1*
X4975270Y5490227D1*
Y5502300D1*
X4969233Y5520550D1*
X4950983Y5532623D1*
X4920660Y5538800D1*
X4902410D1*
X4872087Y5532623D1*
X4853837Y5520550D1*
X4847800Y5502300D1*
Y5490227D1*
X4872087Y5532623D2*
X4950983Y5459763D1*
X4963056Y5584052D2*
X4969233Y5578015D1*
X4975270Y5584052D1*
X4969233Y5590229D1*
X4963056Y5584052D1*
X4872087Y5629445D2*
X4865910Y5641658D1*
X4847800Y5659908D1*
X4975270D1*
X4890197Y5699124D2*
X4950983D1*
X4969093Y5705160D1*
X4975270Y5717374D1*
Y5735624D1*
X4969093Y5747697D1*
X4950983Y5765947D1*
X4890197D2*
X4975270D1*
X8617008Y1990936D2*
X8629222Y1997113D1*
X8647472Y2015223D1*
Y1887754D1*
X8771760Y2015363D2*
Y1887754D1*
X8686687Y2015363D1*
Y1887754D1*
X8871763D2*
Y2015223D1*
X8810976Y1930290D1*
X8902086D1*
X8941301Y1990936D2*
X8953515Y1997113D1*
X8971765Y2015223D1*
Y1887754D1*
X9071767D2*
Y2015223D1*
X9010981Y1930290D1*
X9102090D1*
X9171629Y2015223D2*
X9153519Y2009186D1*
X9147342Y1997113D1*
Y1984900D1*
X9153519Y1972827D1*
X9165592Y1966650D1*
X9189879Y1960613D1*
X9208129Y1954577D1*
X9220202Y1942363D1*
X9226239Y1930290D1*
Y1912040D1*
X9220202Y1899967D1*
X9214165Y1893790D1*
X9195915Y1887754D1*
X9171629D1*
X9153519Y1893790D1*
X9147342Y1899967D1*
X9141306Y1912040D1*
Y1930290D1*
X9147342Y1942363D1*
X9159556Y1954577D1*
X9177665Y1960613D1*
X9201952Y1966650D1*
X9214165Y1972827D1*
X9220202Y1984900D1*
Y1997113D1*
X9214165Y2009186D1*
X9195915Y2015223D1*
X9171629D1*
X3247712Y4290625D2*
X3247715Y4163015D1*
X3290252Y4163016D1*
X3308502Y4169194D1*
X3320715Y4181267D1*
X3326751Y4193480D1*
X3332787Y4211590D1*
X3332786Y4242054D1*
X3326750Y4260304D1*
X3320713Y4272376D1*
X3308499Y4284590D1*
X3290249Y4290626D1*
X3247712Y4290625D1*
X3451038Y4290629D2*
X3372001Y4290628D1*
X3372004Y4163018D1*
X3372002Y4229841D2*
X3420576Y4229842D1*
X3490255Y4226755D2*
X3560447Y4226757D1*
X3599663Y4223810D2*
X3654413Y4223811D1*
X3672522Y4229848D1*
X3678699Y4236025D1*
X3684735Y4248098D1*
Y4266348D1*
X3678698Y4278421D1*
X3672521Y4284598D1*
X3654411Y4290634D1*
X3599661Y4290633D1*
X3599664Y4163023D1*
X3723950Y4290635D2*
X3723953Y4163026D1*
X3796812Y4163027D1*
X3933315Y4163030D2*
X3884598Y4290639D1*
X3836028Y4163028D1*
X3854277Y4205565D2*
X3915064Y4205567D1*
X3972528Y4290641D2*
X4021102Y4229855D1*
X4021103Y4163032D1*
X4069674Y4290643D2*
X4021102Y4229855D1*
X4187786Y4290646D2*
X4108889Y4290644D1*
X4108892Y4163034D1*
X4187788Y4163036D1*
X4108891Y4229857D2*
X4157464Y4229858D1*
X4227003Y4229860D2*
X4281612Y4229861D1*
X4299862Y4236038D1*
X4306039Y4242075D1*
X4312075Y4254148D1*
Y4266362D1*
X4306038Y4278435D1*
X4299861Y4284612D1*
X4281611Y4290648D1*
X4227001Y4290646D1*
X4227004Y4163037D1*
X4269539Y4229861D2*
X4312077Y4163039D1*
X9947341Y5980237D2*
X9868444D1*
Y5852627D1*
X9947341D1*
X9868444Y5919450D2*
X9917017D1*
X10071629Y5961987D2*
X10059556Y5974200D1*
X10041306Y5980237D1*
X10017020D1*
X9998770Y5974200D1*
X9986556Y5961987D1*
Y5949914D1*
X9992733Y5937700D1*
X9998770Y5931664D1*
X10010843Y5925627D1*
X10047343Y5913414D1*
X10059556Y5907377D1*
X10065593Y5901200D1*
X10071629Y5889127D1*
Y5870877D1*
X10059556Y5858804D1*
X10041306Y5852627D1*
X10017020D1*
X9998770Y5858804D1*
X9986556Y5870877D1*
X10110845Y5913414D2*
X10165595D1*
X10183705Y5919450D1*
X10189882Y5925627D1*
X10195918Y5937700D1*
Y5955950D1*
X10189882Y5968023D1*
X10183705Y5974200D1*
X10165595Y5980237D1*
X10110845D1*
Y5852627D1*
X10247347Y5980096D2*
X10314030D1*
X10277670Y5931523D1*
X10295920D1*
X10307993Y5925487D1*
X10314030Y5919450D1*
X10320207Y5901200D1*
Y5889127D1*
X10314030Y5870877D1*
X10301957Y5858664D1*
X10283707Y5852627D1*
X10265457D1*
X10247347Y5858664D1*
X10241311Y5864840D1*
X10235134Y5876914D1*
X10365599Y5949773D2*
Y5955810D1*
X10371636Y5968023D1*
X10377673Y5974060D1*
X10389886Y5980096D1*
X10414173D1*
X10426246Y5974060D1*
X10432282Y5968023D1*
X10438459Y5955810D1*
Y5943737D1*
X10432282Y5931523D1*
X10420209Y5913414D1*
X10359423Y5852627D1*
X10444496D1*
X6579206Y2722457D2*
Y2594847D1*
X6664279Y2722457D2*
Y2594847D1*
X6579206Y2661670D2*
X6664279D1*
X6794605Y2692134D2*
X6788568Y2704207D1*
X6776355Y2716420D1*
X6764281Y2722457D1*
X6739995D1*
X6727781Y2716420D1*
X6715708Y2704207D1*
X6709531Y2692134D1*
X6703495Y2673884D1*
Y2643420D1*
X6709531Y2625310D1*
X6715708Y2613097D1*
X6727781Y2601024D1*
X6739995Y2594847D1*
X6764281D1*
X6776355Y2601024D1*
X6788568Y2613097D1*
X6794605Y2625310D1*
X6833820Y2658582D2*
X6904013D1*
X6943228Y2698030D2*
X6955442Y2704207D1*
X6973692Y2722316D1*
Y2594847D1*
X7019084Y2691993D2*
Y2698030D1*
X7025121Y2710243D1*
X7031157Y2716280D1*
X7043371Y2722316D1*
X7067657D1*
X7079730Y2716280D1*
X7085767Y2710243D1*
X7091944Y2698030D1*
Y2685957D1*
X7085767Y2673743D1*
X7073694Y2655634D1*
X7012907Y2594847D1*
X7097980D1*
X5014795Y6233627D2*
Y6361237D1*
X4966222Y6233627D1*
X4917649Y6361237D1*
Y6233627D1*
X5151297D2*
X5102584Y6361237D1*
X5054011Y6233627D1*
X5072261Y6276164D2*
X5133047D1*
X5190513Y6361237D2*
X5275586Y6233627D1*
Y6361237D2*
X5190513Y6233627D1*
X5375588D2*
Y6361096D1*
X5314802Y6276164D1*
X5405911D1*
X5505913Y6233627D2*
Y6361096D1*
X5445127Y6276164D1*
X5536236D1*
X5611952Y6361096D2*
X5593702Y6355060D1*
X5581489Y6336810D1*
X5575452Y6306487D1*
Y6288237D1*
X5581489Y6257914D1*
X5593702Y6239664D1*
X5611952Y6233627D1*
X5624025D1*
X5642275Y6239664D1*
X5654348Y6257914D1*
X5660525Y6288237D1*
Y6306487D1*
X5654348Y6336810D1*
X5642275Y6355060D1*
X5624025Y6361096D1*
X5611952D1*
X5654348Y6336810D2*
X5581489Y6257914D1*
X5736241Y6361096D2*
X5717991Y6355060D1*
X5705777Y6336810D1*
X5699741Y6306487D1*
Y6288237D1*
X5705777Y6257914D1*
X5717991Y6239664D1*
X5736241Y6233627D1*
X5748314D1*
X5766564Y6239664D1*
X5778637Y6257914D1*
X5784814Y6288237D1*
Y6306487D1*
X5778637Y6336810D1*
X5766564Y6355060D1*
X5748314Y6361096D1*
X5736241D1*
X5778637Y6336810D2*
X5705777Y6257914D1*
X5903066Y6318700D2*
X5896889Y6300450D1*
X5884816Y6288237D1*
X5866566Y6282200D1*
X5860530D1*
X5842280Y6288237D1*
X5830207Y6300450D1*
X5824030Y6318700D1*
Y6324737D1*
X5830207Y6342987D1*
X5842280Y6355060D1*
X5860530Y6361096D1*
X5866566D1*
X5884816Y6355060D1*
X5896889Y6342987D1*
X5903066Y6318700D1*
Y6288237D1*
X5896889Y6257914D1*
X5884816Y6239664D1*
X5866566Y6233627D1*
X5854493D1*
X5836243Y6239664D1*
X5830207Y6251877D1*
X5942282Y6233627D2*
X6027355Y6361096D1*
X6066571Y6361237D2*
Y6233627D1*
X6121321D1*
X6139571Y6239804D1*
X6145607Y6245840D1*
X6151644Y6257914D1*
Y6276164D1*
X6145607Y6288377D1*
X6139571Y6294414D1*
X6121321Y6300450D1*
X6139571Y6306627D1*
X6145607Y6312664D1*
X6151644Y6324737D1*
Y6336950D1*
X6145607Y6349023D1*
X6139571Y6355200D1*
X6121321Y6361237D1*
X6066571D1*
Y6300450D2*
X6121321D1*
X6190859Y6361237D2*
Y6233627D1*
X6275933Y6361237D2*
Y6233627D1*
X6190859Y6300450D2*
X6275933D1*
X6315148Y6336810D2*
X6327362Y6342987D1*
X6345612Y6361096D1*
Y6233627D1*
X6409114D2*
X6469900Y6361096D1*
X6384827D1*
X6581976D2*
X6521330D1*
X6515293Y6306487D1*
X6521330Y6312523D1*
X6539580Y6318700D1*
X6557689D1*
X6575939Y6312523D1*
X6588153Y6300450D1*
X6594189Y6282200D1*
Y6270127D1*
X6588153Y6251877D1*
X6575939Y6239664D1*
X6557689Y6233627D1*
X6539580D1*
X6521330Y6239664D1*
X6515293Y6245840D1*
X6509116Y6257914D1*
X6669905Y6361096D2*
X6651655Y6355060D1*
X6639441Y6336810D1*
X6633405Y6306487D1*
Y6288237D1*
X6639441Y6257914D1*
X6651655Y6239664D1*
X6669905Y6233627D1*
X6681978D1*
X6700228Y6239664D1*
X6712301Y6257914D1*
X6718478Y6288237D1*
Y6306487D1*
X6712301Y6336810D1*
X6700228Y6355060D1*
X6681978Y6361096D1*
X6669905D1*
X6712301Y6336810D2*
X6639441Y6257914D1*
X5566153Y4661277D2*
Y4716027D1*
X5560117Y4734136D1*
X5553940Y4740313D1*
X5541867Y4746350D1*
X5523617D1*
X5511544Y4740313D1*
X5505367Y4734136D1*
X5499330Y4716027D1*
Y4661277D1*
X5626940D1*
X5499330Y4785566D2*
X5626940D1*
X5566153D2*
X5547903Y4803816D1*
X5541867Y4816029D1*
Y4834279D1*
X5547903Y4846352D1*
X5566153Y4852389D1*
X5626940D1*
X5541867Y4921927D2*
X5547903Y4909854D1*
X5560117Y4897641D1*
X5578367Y4891604D1*
X5590440D1*
X5608690Y4897641D1*
X5620763Y4909854D1*
X5626940Y4921927D1*
Y4940177D1*
X5620763Y4952391D1*
X5608690Y4964464D1*
X5590440Y4970641D1*
X5578367D1*
X5560117Y4964464D1*
X5547903Y4952391D1*
X5541867Y4940177D1*
Y4921927D1*
X5499330Y5028107D2*
X5602653D1*
X5620763Y5034143D1*
X5626940Y5046357D1*
Y5058430D1*
X5541867Y5009857D2*
Y5052393D1*
Y5127968D2*
X5547903Y5115895D1*
X5560117Y5103682D1*
X5578367Y5097645D1*
X5590440D1*
X5608690Y5103682D1*
X5620763Y5115895D1*
X5626940Y5127968D1*
Y5146218D1*
X5620763Y5158432D1*
X5608690Y5170505D1*
X5590440Y5176682D1*
X5578367D1*
X5560117Y5170505D1*
X5547903Y5158432D1*
X5541867Y5146218D1*
Y5127968D1*
X5563205Y5215898D2*
Y5286090D1*
X5749877Y4585031D2*
X5834950D1*
X5786377D2*
X5768127Y4591207D1*
X5755913Y4603281D1*
X5749877Y4615494D1*
Y4633744D1*
X5786377Y4672960D2*
Y4745819D1*
X5774163D1*
X5761950Y4739783D1*
X5755913Y4733746D1*
X5749877Y4721533D1*
Y4703283D1*
X5755913Y4691210D1*
X5768127Y4678996D1*
X5786377Y4672960D1*
X5798450D1*
X5816700Y4678996D1*
X5828773Y4691210D1*
X5834950Y4703283D1*
Y4721533D1*
X5828773Y4733746D1*
X5816700Y4745819D1*
X5768127Y4851858D2*
X5755913Y4845822D1*
X5749877Y4827572D1*
Y4809322D1*
X5755913Y4791072D1*
X5768127Y4785035D1*
X5780200Y4791072D1*
X5786377Y4803285D1*
X5792413Y4833608D1*
X5798450Y4845822D1*
X5810663Y4851858D1*
X5816700D1*
X5828773Y4845822D1*
X5834950Y4827572D1*
Y4809322D1*
X5828773Y4791072D1*
X5816700Y4785035D1*
X5707340Y4891074D2*
X5713377Y4897110D1*
X5707340Y4903287D1*
X5701163Y4897110D1*
X5707340Y4891074D1*
X5749877Y4897110D2*
X5834950D1*
X5768127Y5009326D2*
X5755913Y5003289D1*
X5749877Y4985039D1*
Y4966789D1*
X5755913Y4948539D1*
X5768127Y4942503D1*
X5780200Y4948539D1*
X5786377Y4960753D1*
X5792413Y4991076D1*
X5798450Y5003289D1*
X5810663Y5009326D1*
X5816700D1*
X5828773Y5003289D1*
X5834950Y4985039D1*
Y4966789D1*
X5828773Y4948539D1*
X5816700Y4942503D1*
X5707340Y5066792D2*
X5810663D1*
X5828773Y5072828D1*
X5834950Y5085042D1*
Y5097115D1*
X5749877Y5048542D2*
Y5091078D1*
Y5166654D2*
X5755913Y5154580D1*
X5768127Y5142367D1*
X5786377Y5136330D1*
X5798450D1*
X5816700Y5142367D1*
X5828773Y5154580D1*
X5834950Y5166654D1*
Y5184904D1*
X5828773Y5197117D1*
X5816700Y5209190D1*
X5798450Y5215367D1*
X5786377D1*
X5768127Y5209190D1*
X5755913Y5197117D1*
X5749877Y5184904D1*
Y5166654D1*
Y5254583D2*
X5834950D1*
X5786377D2*
X5768127Y5260760D1*
X5755913Y5272833D1*
X5749877Y5285046D1*
Y5303296D1*
X5020193Y4360377D2*
Y4487846D1*
X4959407Y4402914D1*
X5050516D1*
X5095769Y4372590D2*
X5089732Y4366414D1*
X5095769Y4360377D1*
X5101946Y4366414D1*
X5095769Y4372590D1*
X5165448Y4360377D2*
X5226234Y4487846D1*
X5141161D1*
X5265450Y4487987D2*
Y4360377D1*
X5326237Y4445450D2*
X5265450Y4384664D1*
X5289737Y4408950D2*
X5332273Y4360377D1*
X4922480Y3884127D2*
Y4011596D1*
X4861694Y3926664D1*
X4952803D1*
X4998055Y3896340D2*
X4992019Y3890164D1*
X4998055Y3884127D1*
X5004232Y3890164D1*
X4998055Y3896340D1*
X5067735Y3884127D2*
X5128521Y4011596D1*
X5043448D1*
X5167737Y4011737D2*
Y3884127D1*
X5228523Y3969200D2*
X5167737Y3908414D1*
X5192023Y3932700D2*
X5234560Y3884127D1*
X4922477Y3407877D2*
Y3535346D1*
X4861690Y3450414D1*
X4952800D1*
X4998052Y3420090D2*
X4992015Y3413914D1*
X4998052Y3407877D1*
X5004229Y3413914D1*
X4998052Y3420090D1*
X5067731Y3407877D2*
X5128518Y3535346D1*
X5043445D1*
X5167733Y3535487D2*
Y3407877D1*
X5228520Y3492950D2*
X5167733Y3432164D1*
X5192020Y3456450D2*
X5234556Y3407877D1*
X4922480Y2931627D2*
Y3059096D1*
X4861694Y2974164D1*
X4952803D1*
X4998055Y2943840D2*
X4992019Y2937664D1*
X4998055Y2931627D1*
X5004232Y2937664D1*
X4998055Y2943840D1*
X5067735Y2931627D2*
X5128521Y3059096D1*
X5043448D1*
X5167737Y3059237D2*
Y2931627D1*
X5228523Y3016700D2*
X5167737Y2955914D1*
X5192023Y2980200D2*
X5234560Y2931627D1*
X8750425Y1550970D2*
X8817108D1*
X8780748Y1502396D1*
X8798998D1*
X8811071Y1496360D1*
X8817108Y1490323D1*
X8823285Y1472073D1*
Y1460000D1*
X8817108Y1441750D1*
X8805035Y1429537D1*
X8786785Y1423500D1*
X8768535D1*
X8750425Y1429537D1*
X8744389Y1435714D1*
X8738212Y1447787D1*
X8868537Y1435714D2*
X8862501Y1429537D1*
X8868537Y1423500D1*
X8874714Y1429537D1*
X8868537Y1435714D1*
X8926143Y1550970D2*
X8992826D1*
X8956466Y1502396D1*
X8974716D1*
X8986789Y1496360D1*
X8992826Y1490323D1*
X8999003Y1472073D1*
Y1460000D1*
X8992826Y1441750D1*
X8980753Y1429537D1*
X8962503Y1423500D1*
X8944253D1*
X8926143Y1429537D1*
X8920107Y1435714D1*
X8913930Y1447787D1*
X9038218Y1551110D2*
Y1423500D1*
X9099005Y1508573D2*
X9038218Y1447787D1*
X9062505Y1472073D2*
X9105042Y1423500D1*
X4872087Y5008735D2*
X4865910Y5020948D1*
X4847800Y5039198D1*
X4975270D1*
X4847800Y5114914D2*
X4853837Y5096664D1*
X4872087Y5084450D1*
X4902410Y5078414D1*
X4920660D1*
X4950983Y5084450D1*
X4969233Y5096664D1*
X4975270Y5114914D1*
Y5126987D1*
X4969233Y5145237D1*
X4950983Y5157310D1*
X4920660Y5163487D1*
X4902410D1*
X4872087Y5157310D1*
X4853837Y5145237D1*
X4847800Y5126987D1*
Y5114914D1*
X4872087Y5157310D2*
X4950983Y5084450D1*
X4847660Y5202702D2*
X4975270D1*
X4890197Y5263489D2*
X4950983Y5202702D1*
X4926697Y5226989D2*
X4975270Y5269525D1*
X1228770Y5438110D2*
X1216697Y5450323D1*
X1198447Y5456360D1*
X1174161D1*
X1155911Y5450323D1*
X1143697Y5438110D1*
Y5426037D1*
X1149874Y5413823D1*
X1155911Y5407787D1*
X1167984Y5401750D1*
X1204484Y5389537D1*
X1216697Y5383500D1*
X1222734Y5377323D1*
X1228770Y5365250D1*
Y5347000D1*
X1216697Y5334927D1*
X1198447Y5328750D1*
X1174161D1*
X1155911Y5334927D1*
X1143697Y5347000D1*
X1267986Y5389537D2*
X1322736D1*
X1340846Y5395573D1*
X1347023Y5401750D1*
X1353059Y5413823D1*
Y5432073D1*
X1347023Y5444146D1*
X1340846Y5450323D1*
X1322736Y5456360D1*
X1267986D1*
Y5328750D1*
X1471171Y5456360D2*
X1392275D1*
Y5328750D1*
X1471171D1*
X1392275Y5395573D2*
X1440848D1*
X1607673Y5328750D2*
X1558960Y5456360D1*
X1510387Y5328750D1*
X1528637Y5371287D2*
X1589423D1*
X1646889Y5456360D2*
Y5328750D1*
X1731962Y5456360D2*
X1646889Y5371287D1*
X1677212Y5401750D2*
X1731962Y5328750D1*
X1850074Y5456360D2*
X1771178D1*
Y5328750D1*
X1850074D1*
X1771178Y5395573D2*
X1819751D1*
X1889290D2*
X1943899D1*
X1962149Y5401750D1*
X1968326Y5407787D1*
X1974363Y5419860D1*
Y5432073D1*
X1968326Y5444146D1*
X1962149Y5450323D1*
X1943899Y5456360D1*
X1889290D1*
Y5328750D1*
X1931826Y5395573D2*
X1974363Y5328750D1*
X9660763Y1348120D2*
X9788373Y1378583D1*
X9660763Y1408906D1*
X9788373Y1439229D1*
X9660763Y1469693D1*
Y1508908D2*
X9788373D1*
X9721550Y1548124D2*
Y1602734D1*
X9715373Y1620984D1*
X9709336Y1627161D1*
X9697263Y1633197D1*
X9685050D1*
X9672977Y1627161D1*
X9666800Y1620984D1*
X9660763Y1602734D1*
Y1548124D1*
X9788373D1*
X9721550Y1590661D2*
X9788373Y1633197D1*
X9660763Y1751309D2*
Y1672413D1*
X9788373D1*
Y1751309D1*
X9721550Y1672413D2*
Y1720986D1*
X9660763Y1790525D2*
X9788373D1*
Y1833061D1*
X9782196Y1851311D1*
X9770123Y1863525D1*
X9757910Y1869561D1*
X9739800Y1875598D1*
X9709336D1*
X9691086Y1869561D1*
X9679013Y1863525D1*
X9666800Y1851311D1*
X9660763Y1833061D1*
Y1790525D1*
X9809431Y1914813D2*
Y2030210D1*
X9679013Y2154498D2*
X9666800Y2142425D1*
X9660763Y2124175D1*
Y2099889D1*
X9666800Y2081639D1*
X9679013Y2069425D1*
X9691086D1*
X9703300Y2075602D1*
X9709336Y2081639D1*
X9715373Y2093712D1*
X9727586Y2130212D1*
X9733623Y2142425D1*
X9739800Y2148462D1*
X9751873Y2154498D1*
X9770123D1*
X9782196Y2142425D1*
X9788373Y2124175D1*
Y2099889D1*
X9782196Y2081639D1*
X9770123Y2069425D1*
X9660763Y2272610D2*
Y2193714D1*
X9788373D1*
Y2272610D1*
X9721550Y2193714D2*
Y2242287D1*
X9660763Y2396899D2*
X9788373D1*
X9660763Y2311826D1*
X9788373D1*
X9679013Y2521188D2*
X9666800Y2509115D1*
X9660763Y2490865D1*
Y2466578D1*
X9666800Y2448328D1*
X9679013Y2436115D1*
X9691086D1*
X9703300Y2442292D1*
X9709336Y2448328D1*
X9715373Y2460401D1*
X9727586Y2496901D1*
X9733623Y2509115D1*
X9739800Y2515151D1*
X9751873Y2521188D1*
X9770123D1*
X9782196Y2509115D1*
X9788373Y2490865D1*
Y2466578D1*
X9782196Y2448328D1*
X9770123Y2436115D1*
X9660763Y2596903D2*
X9666800Y2584690D1*
X9679013Y2572617D1*
X9691086Y2566440D1*
X9709336Y2560403D1*
X9739800D1*
X9757910Y2566440D1*
X9770123Y2572617D1*
X9782196Y2584690D1*
X9788373Y2596903D1*
Y2621190D1*
X9782196Y2633263D1*
X9770123Y2645476D1*
X9757910Y2651513D1*
X9739800Y2657550D1*
X9709336D1*
X9691086Y2651513D1*
X9679013Y2645476D1*
X9666800Y2633263D1*
X9660763Y2621190D1*
Y2596903D1*
X9721550Y2696765D2*
Y2751375D1*
X9715373Y2769625D1*
X9709336Y2775802D1*
X9697263Y2781838D1*
X9685050D1*
X9672977Y2775802D1*
X9666800Y2769625D1*
X9660763Y2751375D1*
Y2696765D1*
X9788373D1*
X9721550Y2739302D2*
X9788373Y2781838D1*
X9679013Y2906127D2*
X9666800Y2894054D1*
X9660763Y2875804D1*
Y2851517D1*
X9666800Y2833267D1*
X9679013Y2821054D1*
X9691086D1*
X9703300Y2827231D1*
X9709336Y2833267D1*
X9715373Y2845341D1*
X9727586Y2881841D1*
X9733623Y2894054D1*
X9739800Y2900091D1*
X9751873Y2906127D1*
X9770123D1*
X9782196Y2894054D1*
X9788373Y2875804D1*
Y2851517D1*
X9782196Y2833267D1*
X9770123Y2821054D1*
X1100800Y3075113D2*
X1131263Y2947504D1*
X1161587Y3075113D1*
X1191910Y2947504D1*
X1222373Y3075113D1*
X1346662Y3056863D2*
X1334589Y3069077D1*
X1316339Y3075113D1*
X1292052D1*
X1273802Y3069077D1*
X1261589Y3056863D1*
Y3044790D1*
X1267766Y3032577D1*
X1273802Y3026540D1*
X1285875Y3020504D1*
X1322375Y3008290D1*
X1334589Y3002254D1*
X1340625Y2996077D1*
X1346662Y2984004D1*
Y2965754D1*
X1334589Y2953681D1*
X1316339Y2947504D1*
X1292052D1*
X1273802Y2953681D1*
X1261589Y2965754D1*
X1392054Y3044650D2*
Y3050686D1*
X1398091Y3062900D1*
X1404127Y3068936D1*
X1416341Y3074973D1*
X1440627D1*
X1452701Y3068936D1*
X1458737Y3062900D1*
X1464914Y3050686D1*
Y3038613D1*
X1458737Y3026400D1*
X1446664Y3008290D1*
X1385877Y2947504D1*
X1470951D1*
X1540489Y3074973D2*
X1522380Y3068936D1*
X1516203Y3056863D1*
Y3044650D1*
X1522380Y3032577D1*
X1534453Y3026400D1*
X1558739Y3020363D1*
X1576989Y3014327D1*
X1589062Y3002113D1*
X1595099Y2990040D1*
Y2971790D1*
X1589062Y2959717D1*
X1583026Y2953540D1*
X1564776Y2947504D1*
X1540489D1*
X1522380Y2953540D1*
X1516203Y2959717D1*
X1510166Y2971790D1*
Y2990040D1*
X1516203Y3002113D1*
X1528416Y3014327D1*
X1546526Y3020363D1*
X1570812Y3026400D1*
X1583026Y3032577D1*
X1589062Y3044650D1*
Y3056863D1*
X1583026Y3068936D1*
X1564776Y3074973D1*
X1540489D1*
X1634315Y3050686D2*
X1646528Y3056863D1*
X1664778Y3074973D1*
Y2947504D1*
X1710171Y3044650D2*
Y3050686D1*
X1716207Y3062900D1*
X1722244Y3068936D1*
X1734457Y3074973D1*
X1758744D1*
X1770817Y3068936D1*
X1776853Y3062900D1*
X1783030Y3050686D1*
Y3038613D1*
X1776853Y3026400D1*
X1764780Y3008290D1*
X1703994Y2947504D1*
X1789067D1*
X1828283Y2926446D2*
X1943679D1*
X1982894Y3075113D2*
Y2947504D1*
X2025431D1*
X2043681Y2953681D1*
X2055894Y2965754D1*
X2061931Y2977967D1*
X2067967Y2996077D1*
Y3026540D1*
X2061931Y3044790D1*
X2055894Y3056863D1*
X2043681Y3069077D1*
X2025431Y3075113D1*
X1982894D1*
X2107183D2*
Y2947504D1*
X2231472Y3056863D2*
X2219399Y3069077D1*
X2201149Y3075113D1*
X2176862D1*
X2158612Y3069077D1*
X2146399Y3056863D1*
Y3044790D1*
X2152576Y3032577D1*
X2158612Y3026540D1*
X2170685Y3020504D1*
X2207185Y3008290D1*
X2219399Y3002254D1*
X2225435Y2996077D1*
X2231472Y2984004D1*
Y2965754D1*
X2219399Y2953681D1*
X2201149Y2947504D1*
X2176862D1*
X2158612Y2953681D1*
X2146399Y2965754D1*
X2270688Y3008290D2*
X2325438D1*
X2343547Y3014327D1*
X2349724Y3020504D1*
X2355761Y3032577D1*
Y3050827D1*
X2349724Y3062900D1*
X2343547Y3069077D1*
X2325438Y3075113D1*
X2270688D1*
Y2947504D1*
X2394976Y3075113D2*
Y2947504D1*
X2467836D1*
X2604338D2*
X2555625Y3075113D1*
X2507052Y2947504D1*
X2525302Y2990040D2*
X2586088D1*
X2643554Y3075113D2*
X2692127Y3014327D1*
Y2947504D1*
X2740700Y3075113D2*
X2692127Y3014327D1*
M02*
