<svg version="1.1" x="0px" y="0px" viewBox="0 0 298.7 298.7" style="enable-background:new 0 0 298.7 298.7;" xml:space="preserve">
	<path class="menu-svg-col1" d="M165.8,137.1c-3.3-3.5-8-5.7-13.1-5.7c-5,0-9.5,2-12.7,5.3c-8.5-7.9-38.8-38.4-36.4-68.9
	c2.1-26.5,32.6-34.4,49.5-34.4c17,0,47.5,8,49.6,34.4C205,98.9,173.5,129.9,165.8,137.1z"/>
	<path class="menu-svg-col1" d="M149.2,167c-3.7,14.5-15.2,50.6-40.7,62.8c-23.9,11.5-46.1-11-54.6-25.7c-8.5-14.7-16.9-45.1,5-60.2
	c25.3-17.3,66.7-6.4,77.8-3c-1.3,2.5-2.1,5.4-2.1,8.4C134.7,158.1,140.9,165.4,149.2,167z"/>
	<path class="menu-svg-col1" d="M251.4,204.6c-8.5,14.7-30.7,37.2-54.6,25.7C171,217.9,159.5,181.1,156,167c8.4-1.6,14.7-8.9,14.7-17.7
	c0-2.8-0.7-5.5-1.9-7.9c11.5-3.5,52.5-14.2,77.6,3C268.3,159.5,259.9,189.9,251.4,204.6z"/>
	<path class="menu-svg-bg" d="M152.7,0C70.3,0,3.3,67,3.3,149.3c0,82.4,67,149.3,149.3,149.3c82.3,0,149.3-67,149.3-149.3
	C302,67,235,0,152.7,0z M108.4,229.8c-23.9,11.5-46.1-11-54.6-25.7c-8.5-14.7-16.9-45.1,5-60.2c25.3-17.3,66.7-6.4,77.8-3
	c-1.3,2.5-2.1,5.4-2.1,8.4c0,8.8,6.2,16,14.5,17.7C145.5,181.4,133.9,217.6,108.4,229.8z M139.9,136.6c-8.5-7.9-38.8-38.4-36.4-68.9
	c2.1-26.5,32.6-34.4,49.5-34.4c17,0,47.5,8,49.6,34.4c2.4,31.2-29.1,62.3-36.8,69.4c-3.3-3.5-8-5.7-13.1-5.7
	C147.7,131.3,143.2,133.3,139.9,136.6z M196.8,230.3C171,217.9,159.5,181.1,156,167c8.4-1.6,14.7-8.9,14.7-17.7
	c0-2.8-0.7-5.5-1.9-7.9c11.5-3.5,52.5-14.2,77.6,3c21.9,15,13.5,45.4,5,60.1C243,219.2,220.8,241.7,196.8,230.3z"/>
</svg>
