G04 DipTrace 4.2.0.0*
G04 1 - Top.gbr*
%MOMM*%
G04 #@! TF.FileFunction,Copper,L1,Top*
G04 #@! TF.Part,Single*
G04 #@! TA.AperFunction,Conductor*
%ADD13C,0.6*%
%ADD14C,0.33*%
%ADD15C,0.9*%
G04 #@! TA.AperFunction,ComponentPad*
%ADD16C,2.0*%
%ADD17R,2.0X2.0*%
%ADD18R,1.6X1.6*%
%ADD19C,1.6*%
%ADD20C,1.7*%
%ADD21R,1.7X1.7*%
%ADD22C,2.0*%
%ADD23C,1.5*%
%ADD24R,1.5X1.5*%
%ADD25C,1.5*%
%ADD27C,3.3*%
G04 #@! TA.AperFunction,ViaPad*
%ADD28C,1.016*%
%FSLAX35Y35*%
G04*
G71*
G90*
G75*
G01*
G04 Top*
%LPD*%
X4870873Y6847623D2*
D14*
X4984747Y6733750D1*
Y4524370D1*
X4635500Y4175123D1*
X2619373D1*
X2984497Y4746623D2*
X2984927Y4746193D1*
Y4519900D1*
X3149543Y4355283D1*
X4555920D1*
X4746853Y4546217D1*
Y5079767D1*
X4492623Y5333997D1*
X9334500Y4778373D2*
X7619997D1*
X7318370Y5080000D1*
X6667500D1*
X6524623Y4937123D1*
Y4492623D1*
X5508623Y3476623D1*
X2070250D1*
X1968497Y3374870D1*
Y2206623D1*
X619123Y5429247D2*
X1825627D1*
X1968497Y5286377D1*
Y4746623D1*
X3746497Y2206623D2*
Y1990877D1*
X3848250Y1889123D1*
X4692497D1*
X7048497Y4245123D1*
Y4746623D1*
X1298997Y6847623D2*
X633123D1*
X142873Y6357373D1*
Y4921247D1*
X523873Y4540247D1*
X1000123D1*
X1142997Y4397373D1*
Y2530630D1*
X1244753Y2428873D1*
X1771493D1*
X1841497Y2358870D1*
Y2079623D1*
X1920873Y2000247D1*
X3444873D1*
X3492497Y2047870D1*
Y2206623D1*
X619123Y5175247D2*
X1254130D1*
X1333500Y5095877D1*
Y2873373D1*
X1335247D1*
X1460497Y2206623D2*
Y1863877D1*
X1562250Y1762123D1*
X4794250D1*
X5080000Y2047873D1*
X8597743D1*
X8699500Y2149630D1*
Y3143247D1*
X3807937Y5229787D2*
X3812120Y5225603D1*
X4205360D1*
X4508497Y4922467D1*
Y4746623D1*
X952497Y2206623D2*
D13*
X698497D1*
X571497Y2079623D1*
Y1063627D1*
X762050Y873073D1*
X1117123D1*
X8239123Y4270373D2*
X8064497D1*
X7937497Y4143373D1*
Y3438370D1*
X8089743Y3286123D1*
X8286750D1*
X8835870D1*
X8905873Y3216120D1*
Y1460497D1*
X8159750Y714373D1*
X3063873D1*
X2905173Y873073D1*
X2794000D1*
X2682873D1*
X1117123D1*
X2905123Y873123D2*
X2905173Y873073D1*
X2794000Y873123D2*
Y873073D1*
X8286750Y3286123D2*
D3*
X2476497Y5016500D2*
Y5238747D1*
X2571747Y5333997D1*
X2714623D1*
X856123Y1902373D2*
D15*
Y1571573D1*
Y1398123D1*
X926573Y1327673D1*
X1117123D1*
X856123Y1902373D2*
D13*
X1124500D1*
X1206497Y1984370D1*
Y2206623D1*
X619125Y6191247D2*
X516747D1*
X444497Y6118997D1*
Y5080000D1*
X571497Y4953000D1*
X1142997D1*
X1206497Y4889500D1*
Y4746623D1*
X1117123Y1571573D2*
D15*
X856123D1*
X9334500Y5032373D2*
D13*
X8241873D1*
X7635873D1*
X7413623Y5254623D1*
X6651623D1*
X8667747Y4397373D2*
Y4270373D1*
Y3682997D1*
X8493123Y3508373D1*
X8239123D1*
X8241873Y6847623D2*
Y5032373D1*
X8667747Y4270373D2*
D3*
X6508750Y5254623D2*
X6651623D1*
X1117123Y1571573D2*
D15*
X2587673D1*
X3238500Y920747D1*
X7921620D1*
X8556623Y1555750D1*
X2730497Y5016500D2*
D13*
X3016247Y5302250D1*
Y6715127D1*
X2873377Y6857997D1*
X2714623D1*
X5445873Y6597623D2*
X5532963Y6684713D1*
X5708750D1*
X8241873Y6847623D2*
Y6597623D1*
X7666873D1*
X5320873Y6847623D2*
X5445873Y6722623D1*
Y6597623D1*
X3238500Y5016500D2*
D14*
X3241120Y5019120D1*
X3885183D1*
X4000497Y4903807D1*
Y4746623D1*
X952497D2*
D13*
X539747D1*
X285747Y5000623D1*
Y6260247D1*
X470747Y6445247D1*
X619123D1*
X2140747Y3111500D2*
X2283623D1*
X3466623D1*
X3613623D1*
X5349873Y4984750D2*
Y5334000D1*
X5143497Y5540377D1*
Y7064373D1*
X4730750D1*
X4651377Y6985000D1*
X4587873D1*
D14*
X4397373D1*
D13*
X4333873D1*
X3508653D1*
X3381373Y6857720D1*
Y5461000D1*
X3381370D1*
Y5302247D1*
X4333873Y6985000D2*
Y6794497D1*
X4397373Y6730997D1*
D14*
X4603750D1*
D13*
X4651377Y6778623D1*
Y6985000D1*
X2283623Y3111500D2*
D3*
X3466623D2*
D3*
X6175373Y6719250D2*
X5955910Y6938713D1*
X5708750D1*
X5143497Y7064373D2*
X5583090D1*
X5708750Y6938713D1*
X1936750Y5953123D2*
X2222500D1*
X2428873Y6159497D1*
Y6476717D1*
X2556153Y6603997D1*
X2714623D1*
X1682750Y5953123D2*
Y6095997D1*
X1778000Y6191247D1*
X2111373D1*
X2206623Y6286497D1*
Y6969123D1*
X2349497Y7111997D1*
X2714623D1*
X4254497Y2206623D2*
D14*
Y2117877D1*
X4356250Y2016123D1*
X4587873D1*
X6858000Y4286250D1*
Y4746623D1*
X9334500Y4524373D2*
X7604123D1*
X7223123Y4905373D1*
X6769250D1*
X6699247Y4835370D1*
Y4413247D1*
X5588000Y3302000D1*
X4610253D1*
X4508497Y3200243D1*
Y2206623D1*
X6111873Y4984750D2*
Y4619623D1*
X5318123Y3825873D1*
X2413000D1*
X2143123Y4095750D1*
Y4476747D1*
X2222497Y4556120D1*
Y4746623D1*
X9334500Y2492373D2*
X9198127D1*
X9112247Y2578253D1*
Y3946367D1*
X9182253Y4016373D1*
X9334500D1*
X7508873Y4302123D2*
Y3047997D1*
X5708750Y6430713D2*
X6237370D1*
X6307373Y6500717D1*
Y6791873D1*
X6367373Y6851873D1*
X6627373D1*
X6683373Y6795873D1*
Y6719250D1*
X5708750Y6430713D2*
X5586623D1*
X5486067Y6330157D1*
Y5801877D1*
X5586070Y5701873D1*
X7616600D1*
X7747000Y5571473D1*
Y5207000D1*
X7683500Y4175123D2*
Y3190873D1*
X7683497D1*
X7953373Y5207000D2*
Y5699123D1*
X7760623Y5891873D1*
X7207247D1*
Y6449377D1*
X6937373Y6719250D1*
X5708750Y6176713D2*
X5982533D1*
X6267373Y5891873D1*
X7207247D1*
X6365873Y4984750D2*
Y4603747D1*
X5404000Y3641873D1*
X2727373D1*
X7318373Y4302123D2*
Y2968623D1*
X7540623Y2746373D1*
X8207373D1*
X8301810Y2233907D2*
X8299980Y2232077D1*
X5378673D1*
X5857873Y4984750D2*
Y4635500D1*
X5222873Y4000500D1*
X2492373D1*
X2317747Y4175127D1*
Y4429120D1*
X2476497Y4587870D1*
Y4746623D1*
D28*
X2727373Y3641873D3*
X8699500Y3143247D3*
X7318373Y4302123D3*
X8301810Y2233907D3*
X8207373Y2746373D3*
X5378673Y2232077D3*
X3807937Y5229787D3*
X7508873Y4302123D3*
X7683500Y4175123D3*
X7508873Y3047997D3*
X7683497Y3190873D3*
X6651623Y5254623D3*
X8667747Y4397373D3*
X2619373Y4175123D3*
X7747000Y5207000D3*
X7953373D3*
X6858000Y4746623D3*
X1335247Y2873373D3*
X2140747Y3111500D3*
X3613623D3*
X3381370Y5302247D3*
X7048497Y4746623D3*
X2905123Y873123D3*
X2794000D3*
X8286750Y3286123D3*
X3381377Y5461000D3*
X2283623Y3111500D3*
X3466623D3*
X8667747Y4270373D3*
X6508750Y5254623D3*
D16*
X8556623Y1555750D3*
D17*
X6524623D3*
D18*
X5708750Y6938713D3*
D19*
Y6684713D3*
Y6430713D3*
Y6176713D3*
Y5922713D3*
X6881873Y6207123D3*
X6492873D3*
D20*
X8241873Y6847623D3*
D21*
X7791873D3*
D22*
X8366873Y6597623D3*
X7666873D3*
D20*
X1748997Y6847623D3*
D21*
X1298997D3*
D22*
X1873997Y6597623D3*
X1173997D3*
D20*
X5320873Y6847623D3*
D21*
X4870873D3*
D22*
X5445873Y6597623D3*
X4745873D3*
D19*
X1936750Y5953123D3*
X1682750D3*
X4508497Y4746623D3*
X4254497D3*
X4000497D3*
X3746497D3*
X3492497D3*
X3238497D3*
X2984497D3*
X2730497D3*
X2476497D3*
X2222497D3*
X1968497D3*
X1714497D3*
X1460497D3*
X1206497D3*
X952497D3*
X4508497Y2206623D3*
X4254497D3*
X4000497D3*
X3746497D3*
X3492497D3*
X3238497D3*
X2984497D3*
X2730497D3*
X2476497D3*
X2222497D3*
X1968497D3*
X1714497D3*
X1460497D3*
X1206497D3*
D18*
X952497D3*
D23*
X5857873Y4984750D3*
X6111873D3*
X6365873D3*
X5603873D3*
D24*
X5349873D3*
X2714623Y5333997D3*
D23*
Y5587997D3*
Y5841997D3*
Y6095997D3*
Y6349997D3*
Y6603997D3*
Y6857997D3*
Y7111997D3*
X4492623D3*
Y6857997D3*
Y6603997D3*
Y6349997D3*
Y6095997D3*
Y5841997D3*
Y5587997D3*
Y5333997D3*
D25*
X2476497Y5016500D3*
X2730497D3*
X2984497Y5016497D3*
X3238500Y5016500D3*
D19*
X6937373Y6719250D3*
X6683373D3*
X6429373D3*
D18*
X6175373D3*
D19*
X8239123Y4016373D3*
Y3762373D3*
Y3508373D3*
D18*
Y4270373D3*
X9334500Y5286373D3*
D19*
Y5032373D3*
Y4778373D3*
Y4524373D3*
Y4270373D3*
Y4016373D3*
Y3762373D3*
Y3508373D3*
Y3254373D3*
Y3000373D3*
Y2746373D3*
Y2492373D3*
Y2238373D3*
Y1984373D3*
X1117123Y1327673D3*
Y1571573D3*
Y1127073D3*
D18*
Y873073D3*
D27*
X856123Y1902373D3*
Y542373D3*
D19*
X619125Y6445247D3*
Y6191247D3*
Y5937247D3*
Y5683247D3*
Y5429247D3*
Y5175247D3*
G36*
X5806707Y530540D2*
X5810707Y528540D1*
X5816707Y522540D1*
Y520540D1*
X5818707Y518540D1*
Y358540D1*
X5816707Y356540D1*
Y354540D1*
X5810707Y348540D1*
X5802707Y344540D1*
X5798707D1*
X5790707Y348540D1*
X5784707Y354540D1*
Y356540D1*
X5782707Y416540D1*
X5780707Y412540D1*
X5778707Y406540D1*
X5776707Y402540D1*
X5772707Y390540D1*
X5770707Y386540D1*
X5766707Y374540D1*
X5764707Y370540D1*
X5762707Y364540D1*
X5760707Y360540D1*
Y356540D1*
X5752707Y348540D1*
X5744707Y344540D1*
X5740707D1*
X5732707Y348540D1*
X5724707Y356540D1*
Y360540D1*
X5722707Y364540D1*
X5720707Y370540D1*
X5718707Y374540D1*
X5714707Y386540D1*
X5712707Y390540D1*
X5708707Y402540D1*
X5706707Y406540D1*
X5704707Y412540D1*
X5702707Y416540D1*
X5700707Y356540D1*
Y354540D1*
X5694707Y348540D1*
X5686707Y344540D1*
X5682707D1*
X5674707Y348540D1*
X5668707Y354540D1*
Y356540D1*
X5666707Y358540D1*
Y518540D1*
X5668707Y520540D1*
Y522540D1*
X5674707Y528540D1*
X5678707Y530540D1*
X5624707D1*
X5628707Y528540D1*
X5634707Y522540D1*
Y520540D1*
X5636707Y518540D1*
Y358540D1*
X5634707Y356540D1*
Y354540D1*
X5628707Y348540D1*
X5620707Y344540D1*
X5616707D1*
X5608707Y348540D1*
X5602707Y354540D1*
Y356540D1*
X5600707Y358540D1*
Y518540D1*
X5602707Y520540D1*
Y522540D1*
X5608707Y528540D1*
X5612707Y530540D1*
X5522707D1*
X5536707Y526540D1*
X5544707Y524540D1*
X5562707Y506540D1*
Y504540D1*
X5564707Y498540D1*
X5566707Y494540D1*
X5568707Y492540D1*
Y464540D1*
X5566707Y462540D1*
X5564707Y458540D1*
X5562707Y452540D1*
X5554707Y442540D1*
X5562707Y430540D1*
X5564707Y426540D1*
X5566707Y420540D1*
X5568707Y418540D1*
Y384540D1*
X5566707Y382540D1*
X5564707Y378540D1*
X5562707Y372540D1*
Y370540D1*
X5552707Y360540D1*
X5528707Y348540D1*
X5522707Y346540D1*
X5496040Y344540D1*
X5469373D1*
X5442707Y346540D1*
X5162707D1*
X5158707Y344540D1*
X5154707D1*
X5146707Y348540D1*
X5140707Y354540D1*
Y356540D1*
X5138707Y358540D1*
Y468540D1*
X5140707Y470540D1*
Y472540D1*
X5146707Y478540D1*
X5154707Y482540D1*
X5158707D1*
X5166707Y478540D1*
X5170707Y474540D1*
X5174707D1*
X5176707Y476540D1*
X5184707Y480540D1*
X5196707Y482540D1*
X5208707D1*
X5220707Y480540D1*
X5224707Y478540D1*
X5230707Y472540D1*
Y470540D1*
X5232707Y468540D1*
Y460540D1*
X5230707Y458540D1*
Y456540D1*
X5224707Y450540D1*
X5220707Y448540D1*
X5196707Y446540D1*
X5192707Y444540D1*
X5186707Y440540D1*
X5180707Y434540D1*
X5178707Y428540D1*
X5176707Y424540D1*
X5174707Y418540D1*
X5172707Y356540D1*
Y354540D1*
X5166707Y348540D1*
X5162707Y346540D1*
X5442707D1*
X5438707Y348540D1*
X5432707Y354540D1*
Y356540D1*
X5430707Y358540D1*
Y518540D1*
X5432707Y520540D1*
Y522540D1*
X5438707Y528540D1*
X5442707Y530540D1*
X4898707D1*
X4902707Y528540D1*
X4908707Y522540D1*
Y520540D1*
X4910707Y482540D1*
X4926707Y480540D1*
X5022707D1*
X5035373Y482540D1*
X5048040D1*
X5060707Y480540D1*
X5076707Y472540D1*
X5100707Y448540D1*
Y444540D1*
X5102707Y438540D1*
X5104707Y434540D1*
X5106707Y428540D1*
X5108707Y426540D1*
Y400540D1*
X5106707Y398540D1*
X5104707Y392540D1*
X5102707Y388540D1*
X5100707Y382540D1*
Y378540D1*
X5076707Y354540D1*
X5060707Y346540D1*
X5048040Y344540D1*
X5035373D1*
X5022707Y346540D1*
X5014707Y350540D1*
X5012707Y352540D1*
X5006707Y356540D1*
X5002707Y358540D1*
X4988707Y372540D1*
Y374540D1*
X4982707Y386540D1*
X4978707Y398540D1*
X4976707Y400540D1*
Y426540D1*
X4978707Y428540D1*
X4982707Y440540D1*
X4988707Y452540D1*
Y454540D1*
X5002707Y468540D1*
X5006707Y470540D1*
X5012707Y474540D1*
X5022707Y480540D1*
X4926707D1*
X4930707Y478540D1*
X4936707Y472540D1*
Y470540D1*
X4938707Y468540D1*
Y460540D1*
X4936707Y458540D1*
Y456540D1*
X4930707Y450540D1*
X4926707Y448540D1*
X4910707Y446540D1*
Y392540D1*
X4912707Y384540D1*
X4914707Y382540D1*
X4918707Y380540D1*
X4934707Y378540D1*
X4938707Y376540D1*
X4944707Y370540D1*
Y368540D1*
X4946707Y366540D1*
Y358540D1*
X4944707Y356540D1*
Y354540D1*
X4938707Y348540D1*
X4934707Y346540D1*
X4925373Y344540D1*
X4916040D1*
X4906707Y346540D1*
X4802707D1*
X4798707Y344540D1*
X4794707D1*
X4790707Y346540D1*
X4728707D1*
X4724707Y344540D1*
X4720707D1*
X4712707Y348540D1*
X4706707Y354540D1*
Y356540D1*
X4704707Y432540D1*
X4702707Y436540D1*
X4700707Y442540D1*
X4696707Y446540D1*
X4682707D1*
X4678707Y444540D1*
X4672707Y440540D1*
X4660707Y428540D1*
X4658707Y356540D1*
Y354540D1*
X4652707Y348540D1*
X4644707Y344540D1*
X4640707D1*
X4636707Y346540D1*
X4546707D1*
X4534040Y344540D1*
X4521373D1*
X4508707Y346540D1*
X4500707Y350540D1*
X4498707Y352540D1*
X4492707Y356540D1*
X4476707Y370540D1*
X4468707Y378540D1*
Y384540D1*
X4466707Y390540D1*
X4464707Y398540D1*
X4462707Y400540D1*
Y426540D1*
X4464707Y428540D1*
X4466707Y436540D1*
X4468707Y442540D1*
X4472707Y452540D1*
X4488707Y468540D1*
X4492707Y470540D1*
X4498707Y474540D1*
X4500707Y476540D1*
X4508707Y480540D1*
X4521373Y482540D1*
X4534040D1*
X4546707Y480540D1*
X4550707Y478540D1*
X4552707Y476540D1*
X4564707Y468540D1*
X4568707Y466540D1*
X4586707Y448540D1*
Y442540D1*
X4588707Y436540D1*
X4590707Y428540D1*
X4592707Y426540D1*
Y400540D1*
X4590707Y398540D1*
X4588707Y390540D1*
X4586707Y384540D1*
Y378540D1*
X4568707Y360540D1*
X4564707Y358540D1*
X4546707Y346540D1*
X4636707D1*
X4632707Y348540D1*
X4626707Y354540D1*
Y356540D1*
X4624707Y358540D1*
Y468540D1*
X4626707Y470540D1*
Y472540D1*
X4632707Y478540D1*
X4640707Y482540D1*
X4644707D1*
X4652707Y478540D1*
X4656707Y474540D1*
X4660707D1*
X4662707Y476540D1*
X4670707Y480540D1*
X4683373Y482540D1*
X4696040D1*
X4708707Y480540D1*
X4712707Y478540D1*
X4714707Y476540D1*
X4722707Y472540D1*
X4732707Y462540D1*
Y458540D1*
X4734707Y452540D1*
X4736707Y448540D1*
X4738707Y442540D1*
X4740707Y440540D1*
Y358540D1*
X4738707Y356540D1*
Y354540D1*
X4732707Y348540D1*
X4728707Y346540D1*
X4790707D1*
X4786707Y348540D1*
X4780707Y354540D1*
Y356540D1*
X4778707Y358540D1*
Y468540D1*
X4780707Y470540D1*
Y472540D1*
X4786707Y478540D1*
X4794707Y482540D1*
X4798707D1*
X4806707Y478540D1*
X4812707Y472540D1*
Y470540D1*
X4814707Y468540D1*
Y358540D1*
X4812707Y356540D1*
Y354540D1*
X4806707Y348540D1*
X4802707Y346540D1*
X4906707D1*
X4890707Y354540D1*
X4880707Y364540D1*
Y368540D1*
X4878707Y376540D1*
X4876707Y382540D1*
X4874707Y446540D1*
X4864707Y448540D1*
X4860707Y450540D1*
X4854707Y456540D1*
Y458540D1*
X4852707Y460540D1*
Y468540D1*
X4854707Y470540D1*
Y472540D1*
X4860707Y478540D1*
X4864707Y480540D1*
X4874707Y482540D1*
X4876707Y520540D1*
Y522540D1*
X4882707Y528540D1*
X4886707Y530540D1*
X4812707D1*
X4814707Y526540D1*
X4818707Y520540D1*
X4820707Y518540D1*
Y510540D1*
X4818707Y508540D1*
Y506540D1*
X4806707Y494540D1*
X4798707Y490540D1*
X4794707D1*
X4790707Y492540D1*
X3676707D1*
Y474540D1*
X3688707Y480540D1*
X3701373Y482540D1*
X3714040D1*
X3726707Y480540D1*
X3834707D1*
X3847373Y482540D1*
X3860040D1*
X3872707Y480540D1*
X3954707D1*
X3958707Y482540D1*
X3962707D1*
X3970707Y478540D1*
X3974707Y474540D1*
X3978707D1*
X3980707Y476540D1*
X3988707Y480540D1*
X4000707Y482540D1*
X4012707D1*
X4024707Y480540D1*
X4246707D1*
X4250707Y482540D1*
X4254707D1*
X4262707Y478540D1*
X4266707Y474540D1*
X4270707D1*
X4272707Y476540D1*
X4280707Y480540D1*
X4293373Y482540D1*
X4306040D1*
X4318707Y480540D1*
X4334707Y472540D1*
X4338707Y468540D1*
X4340707D1*
X4344707Y470540D1*
X4346707Y472540D1*
X4362707Y480540D1*
X4374707Y482540D1*
X4386707D1*
X4398707Y480540D1*
X4414707Y472540D1*
X4424707Y462540D1*
Y456540D1*
X4426707Y450540D1*
X4428707Y442540D1*
X4430707Y440540D1*
Y358540D1*
X4428707Y356540D1*
Y354540D1*
X4422707Y348540D1*
X4414707Y344540D1*
X4410707D1*
X4402707Y348540D1*
X4396707Y354540D1*
Y356540D1*
X4394707Y434540D1*
X4392707Y440540D1*
X4390707Y444540D1*
X4386707Y446540D1*
X4374707D1*
X4362707Y440540D1*
X4350707Y428540D1*
X4348707Y356540D1*
Y354540D1*
X4342707Y348540D1*
X4334707Y344540D1*
X4330707D1*
X4322707Y348540D1*
X4316707Y354540D1*
Y356540D1*
X4314707Y434540D1*
X4312707Y440540D1*
X4310707Y444540D1*
X4306707Y446540D1*
X4292707D1*
X4288707Y444540D1*
X4282707Y440540D1*
X4270707Y428540D1*
X4268707Y356540D1*
Y354540D1*
X4262707Y348540D1*
X4254707Y344540D1*
X4250707D1*
X4242707Y348540D1*
X4236707Y354540D1*
Y356540D1*
X4234707Y358540D1*
Y468540D1*
X4236707Y470540D1*
Y472540D1*
X4242707Y478540D1*
X4246707Y480540D1*
X4024707D1*
X4028707Y478540D1*
X4034707Y472540D1*
Y470540D1*
X4036707Y468540D1*
Y460540D1*
X4034707Y458540D1*
Y456540D1*
X4028707Y450540D1*
X4024707Y448540D1*
X4000707Y446540D1*
X3996707Y444540D1*
X3990707Y440540D1*
X3982707Y432540D1*
X3978707Y420540D1*
X3976707Y356540D1*
Y354540D1*
X3970707Y348540D1*
X3962707Y344540D1*
X3958707D1*
X3950707Y348540D1*
X3944707Y354540D1*
Y356540D1*
X3942707Y358540D1*
Y468540D1*
X3944707Y470540D1*
Y472540D1*
X3950707Y478540D1*
X3954707Y480540D1*
X3872707D1*
X3890707Y468540D1*
X3894707Y466540D1*
X3904707Y456540D1*
Y452540D1*
X3906707Y448540D1*
X3908707Y442540D1*
X3910707Y440540D1*
Y416540D1*
X3908707Y414540D1*
Y412540D1*
X3902707Y406540D1*
X3898707Y404540D1*
X3826707Y402540D1*
Y400540D1*
X3828707Y394540D1*
X3836707Y386540D1*
X3842707Y382540D1*
X3846707Y380540D1*
X3860707D1*
X3866707Y384540D1*
X3878707Y396540D1*
X3890707Y402540D1*
X3894707D1*
X3902707Y398540D1*
X3908707Y392540D1*
Y390540D1*
X3910707Y388540D1*
Y380540D1*
X3908707Y378540D1*
Y376540D1*
X3886707Y354540D1*
X3878707Y350540D1*
X3876707Y348540D1*
X3872707Y346540D1*
X3860040Y344540D1*
X3847373D1*
X3834707Y346540D1*
X3826707Y350540D1*
X3824707Y352540D1*
X3818707Y356540D1*
X3802707Y370540D1*
X3794707Y378540D1*
Y384540D1*
X3792707Y390540D1*
X3790707Y398540D1*
X3788707Y400540D1*
Y426540D1*
X3790707Y428540D1*
X3792707Y436540D1*
X3794707Y442540D1*
X3798707Y452540D1*
X3814707Y468540D1*
X3818707Y470540D1*
X3824707Y474540D1*
X3834707Y480540D1*
X3726707D1*
X3732707Y476540D1*
X3740707Y472540D1*
X3750707Y462540D1*
Y456540D1*
X3752707Y450540D1*
X3754707Y442540D1*
X3756707Y440540D1*
Y358540D1*
X3754707Y356540D1*
Y354540D1*
X3748707Y348540D1*
X3740707Y344540D1*
X3736707D1*
X3728707Y348540D1*
X3722707Y354540D1*
Y356540D1*
X3720707Y434540D1*
X3718707Y440540D1*
X3716707Y444540D1*
X3714707Y446540D1*
X3700707D1*
X3688707Y440540D1*
X3676707Y428540D1*
X3674707Y356540D1*
Y354540D1*
X3668707Y348540D1*
X3660707Y344540D1*
X3656707D1*
X3648707Y348540D1*
X3642707Y354540D1*
Y356540D1*
X3640707Y358540D1*
Y518540D1*
X3642707Y520540D1*
Y522540D1*
X3648707Y528540D1*
X3656707Y532540D1*
X3660707D1*
X3668707Y528540D1*
X3674707Y522540D1*
Y520540D1*
X3676707Y492540D1*
X4790707D1*
X4778707Y500540D1*
X4774707Y504540D1*
X4772707Y508540D1*
X4770707Y510540D1*
Y518540D1*
X4772707Y520540D1*
X4774707Y524540D1*
Y526540D1*
X4782707Y534540D1*
X4790707Y538540D1*
X2980707D1*
Y530540D1*
X3006707D1*
X3010707Y532540D1*
X3014707D1*
X3022707Y528540D1*
X3030707Y520540D1*
Y514540D1*
X3048707Y442540D1*
X3050707Y438540D1*
X3056707Y462540D1*
X3058707Y472540D1*
X3064707Y496540D1*
X3066707Y506540D1*
X3068707Y514540D1*
Y520540D1*
X3076707Y528540D1*
X3084707Y532540D1*
X3088707D1*
X3096707Y528540D1*
X3104707Y520540D1*
Y514540D1*
X3106707Y506540D1*
X3108707Y496540D1*
X3114707Y472540D1*
X3116707Y462540D1*
X3122707Y438540D1*
X3128707Y462540D1*
X3130707Y472540D1*
X3136707Y496540D1*
X3138707Y506540D1*
X3140707Y514540D1*
Y520540D1*
X3148707Y528540D1*
X3156707Y532540D1*
X3160707D1*
X3164707Y530540D1*
X3550707D1*
X3554707Y532540D1*
X3558707D1*
X3566707Y528540D1*
X3572707Y522540D1*
Y520540D1*
X3574707Y482540D1*
X3590707Y480540D1*
X3594707Y478540D1*
X3600707Y472540D1*
Y470540D1*
X3602707Y468540D1*
Y460540D1*
X3600707Y458540D1*
Y456540D1*
X3594707Y450540D1*
X3590707Y448540D1*
X3574707Y446540D1*
Y392540D1*
X3576707Y384540D1*
X3578707Y382540D1*
X3582707Y380540D1*
X3598707Y378540D1*
X3602707Y376540D1*
X3608707Y370540D1*
Y368540D1*
X3610707Y366540D1*
Y358540D1*
X3608707Y356540D1*
Y354540D1*
X3602707Y348540D1*
X3598707Y346540D1*
X3589373Y344540D1*
X3580040D1*
X3570707Y346540D1*
X3472707D1*
X3468707Y344540D1*
X3464707D1*
X3456707Y348540D1*
X3454707Y350540D1*
X3452707D1*
X3450707Y348540D1*
X3446707Y346540D1*
X3434040Y344540D1*
X3421373D1*
X3408707Y346540D1*
X3400707Y350540D1*
X3398707Y352540D1*
X3392707Y356540D1*
X3376707Y370540D1*
X3368707Y378540D1*
Y384540D1*
X3366707Y390540D1*
X3364707Y398540D1*
X3362707Y400540D1*
Y426540D1*
X3364707Y428540D1*
X3366707Y436540D1*
X3368707Y442540D1*
X3372707Y452540D1*
X3388707Y468540D1*
X3392707Y470540D1*
X3398707Y474540D1*
X3400707Y476540D1*
X3408707Y480540D1*
X3421373Y482540D1*
X3434040D1*
X3446707Y480540D1*
X3450707Y478540D1*
X3452707Y476540D1*
X3454707D1*
X3456707Y478540D1*
X3464707Y482540D1*
X3468707D1*
X3476707Y478540D1*
X3482707Y472540D1*
Y470540D1*
X3484707Y468540D1*
Y358540D1*
X3482707Y356540D1*
Y354540D1*
X3476707Y348540D1*
X3472707Y346540D1*
X3570707D1*
X3554707Y354540D1*
X3544707Y364540D1*
Y368540D1*
X3542707Y376540D1*
X3540707Y382540D1*
X3538707Y446540D1*
X3528707Y448540D1*
X3524707Y450540D1*
X3518707Y456540D1*
Y458540D1*
X3516707Y460540D1*
Y468540D1*
X3518707Y470540D1*
Y472540D1*
X3524707Y478540D1*
X3528707Y480540D1*
X3538707Y482540D1*
X3540707Y520540D1*
Y522540D1*
X3546707Y528540D1*
X3550707Y530540D1*
X3164707D1*
X3168707Y528540D1*
X3174707Y522540D1*
Y520540D1*
X3176707Y518540D1*
Y508540D1*
X3174707Y506540D1*
X3170707Y490540D1*
X3168707Y480540D1*
X3254707D1*
X3267373Y482540D1*
X3280040D1*
X3292707Y480540D1*
X3296707Y478540D1*
X3298707Y476540D1*
X3310707Y468540D1*
X3314707Y466540D1*
X3324707Y456540D1*
Y452540D1*
X3326707Y448540D1*
X3328707Y442540D1*
X3330707Y440540D1*
Y416540D1*
X3328707Y414540D1*
Y412540D1*
X3322707Y406540D1*
X3318707Y404540D1*
X3246707Y402540D1*
Y400540D1*
X3248707Y394540D1*
X3256707Y386540D1*
X3262707Y382540D1*
X3266707Y380540D1*
X3280707D1*
X3286707Y384540D1*
X3298707Y396540D1*
X3310707Y402540D1*
X3314707D1*
X3322707Y398540D1*
X3328707Y392540D1*
Y390540D1*
X3330707Y388540D1*
Y380540D1*
X3328707Y378540D1*
Y376540D1*
X3306707Y354540D1*
X3298707Y350540D1*
X3296707Y348540D1*
X3292707Y346540D1*
X3280040Y344540D1*
X3267373D1*
X3254707Y346540D1*
X3246707Y350540D1*
X3244707Y352540D1*
X3238707Y356540D1*
X3222707Y370540D1*
X3214707Y378540D1*
Y384540D1*
X3212707Y390540D1*
X3210707Y398540D1*
X3208707Y400540D1*
Y426540D1*
X3210707Y428540D1*
X3212707Y436540D1*
X3214707Y442540D1*
X3218707Y452540D1*
X3234707Y468540D1*
X3238707Y470540D1*
X3244707Y474540D1*
X3254707Y480540D1*
X3168707D1*
X3162707Y456540D1*
X3160707Y446540D1*
X3152707Y414540D1*
X3150707Y404540D1*
X3144707Y380540D1*
X3142707Y370540D1*
X3140707Y362540D1*
Y356540D1*
X3132707Y348540D1*
X3124707Y344540D1*
X3120707D1*
X3112707Y348540D1*
X3104707Y356540D1*
Y362540D1*
X3102707Y370540D1*
X3100707Y380540D1*
X3094707Y404540D1*
X3092707Y414540D1*
X3086707Y438540D1*
X3080707Y414540D1*
X3078707Y404540D1*
X3072707Y380540D1*
X3070707Y370540D1*
X3068707Y362540D1*
Y356540D1*
X3060707Y348540D1*
X3052707Y344540D1*
X3048707D1*
X3040707Y348540D1*
X3032707Y356540D1*
Y362540D1*
X2996707Y506540D1*
X2994707Y508540D1*
Y518540D1*
X2996707Y520540D1*
Y522540D1*
X3002707Y528540D1*
X3006707Y530540D1*
X2980707D1*
Y272540D1*
X7416707D1*
Y346540D1*
X7350707D1*
X7338040Y344540D1*
X7325373D1*
X7312707Y346540D1*
X7180707D1*
X7170707Y344540D1*
X7160707D1*
X7150707Y346540D1*
X7054707D1*
X7050707Y344540D1*
X7046707D1*
X7038707Y348540D1*
X7030707Y356540D1*
Y360540D1*
X7028707Y364540D1*
X7026707Y370540D1*
X7024707Y374540D1*
X7020707Y386540D1*
X7016707Y394540D1*
X6962707D1*
X6960707Y390540D1*
X6958707Y384540D1*
X6956707Y380540D1*
X6954707Y374540D1*
X6952707Y370540D1*
X6950707Y364540D1*
X6948707Y360540D1*
Y356540D1*
X6940707Y348540D1*
X6932707Y344540D1*
X6928707D1*
X6924707Y346540D1*
X6862707D1*
X6858707Y344540D1*
X6854707D1*
X6842707Y350540D1*
X6836707Y356540D1*
Y358540D1*
X6834707Y362540D1*
X6832707Y364540D1*
Y372540D1*
X6834707Y374540D1*
X6836707Y378540D1*
X6842707Y386540D1*
Y388540D1*
X6854707Y394540D1*
X6858707D1*
X6866707Y390540D1*
X6880707Y376540D1*
Y374540D1*
X6882707Y372540D1*
Y364540D1*
X6880707Y362540D1*
Y360540D1*
X6872707Y352540D1*
X6868707Y350540D1*
X6862707Y346540D1*
X6924707D1*
X6920707Y348540D1*
X6914707Y354540D1*
Y356540D1*
X6912707Y358540D1*
Y368540D1*
X6914707Y370540D1*
X6916707Y376540D1*
X6918707Y380540D1*
X6920707Y386540D1*
X6922707Y390540D1*
Y394540D1*
X6774707D1*
X6772707Y392540D1*
X6768707Y384540D1*
X6766707Y378540D1*
X6764707Y374540D1*
X6762707Y368540D1*
X6760707Y364540D1*
X6758707Y358540D1*
Y356540D1*
X6750707Y348540D1*
X6742707Y344540D1*
X6738707D1*
X6734707Y346540D1*
X6608707D1*
X6596040Y344540D1*
X6583373D1*
X6570707Y346540D1*
X6562707Y350540D1*
X6560707Y352540D1*
X6554707Y356540D1*
X6538707Y370540D1*
X6530707Y378540D1*
Y384540D1*
X6528707Y390540D1*
X6526707Y398540D1*
X6524707Y400540D1*
Y426540D1*
X6526707Y428540D1*
X6528707Y436540D1*
X6530707Y442540D1*
X6534707Y452540D1*
X6550707Y468540D1*
X6554707Y470540D1*
X6560707Y474540D1*
X6562707Y476540D1*
X6570707Y480540D1*
X6583373Y482540D1*
X6596040D1*
X6608707Y480540D1*
X6612707Y478540D1*
X6614707Y476540D1*
X6626707Y468540D1*
X6630707Y466540D1*
X6640707Y456540D1*
Y452540D1*
X6642707Y448540D1*
X6644707Y442540D1*
X6646707Y440540D1*
Y416540D1*
X6644707Y414540D1*
Y412540D1*
X6638707Y406540D1*
X6634707Y404540D1*
X6562707Y402540D1*
Y400540D1*
X6564707Y394540D1*
X6572707Y386540D1*
X6578707Y382540D1*
X6582707Y380540D1*
X6596707D1*
X6602707Y384540D1*
X6614707Y396540D1*
X6626707Y402540D1*
X6630707D1*
X6638707Y398540D1*
X6644707Y392540D1*
Y390540D1*
X6646707Y388540D1*
Y380540D1*
X6644707Y378540D1*
Y376540D1*
X6622707Y354540D1*
X6614707Y350540D1*
X6608707Y346540D1*
X6734707D1*
X6730707Y348540D1*
X6722707Y356540D1*
Y358540D1*
X6720707Y364540D1*
X6716707Y372540D1*
X6714707Y378540D1*
X6710707Y386540D1*
X6708707Y392540D1*
X6702707Y404540D1*
X6700707Y410540D1*
X6696707Y418540D1*
X6694707Y424540D1*
X6690707Y432540D1*
X6688707Y438540D1*
X6684707Y446540D1*
X6682707Y452540D1*
X6680707Y456540D1*
X6678707Y458540D1*
Y468540D1*
X6680707Y470540D1*
Y472540D1*
X6686707Y478540D1*
X6694707Y482540D1*
X6698707D1*
X6706707Y478540D1*
X6714707Y470540D1*
Y468540D1*
X6716707Y462540D1*
X6720707Y454540D1*
X6722707Y448540D1*
X6726707Y440540D1*
X6728707Y434540D1*
X6732707Y426540D1*
X6734707Y420540D1*
X6740707Y408540D1*
X6742707Y414540D1*
X6744707Y418540D1*
X6746707Y424540D1*
X6748707Y428540D1*
X6750707Y434540D1*
X6754707Y442540D1*
X6756707Y448540D1*
X6758707Y452540D1*
X6760707Y458540D1*
X6762707Y462540D1*
X6764707Y468540D1*
Y470540D1*
X6772707Y478540D1*
X6780707Y482540D1*
X6784707D1*
X6792707Y478540D1*
X6798707Y472540D1*
Y470540D1*
X6800707Y468540D1*
Y458540D1*
X6798707Y456540D1*
X6796707Y452540D1*
X6794707Y446540D1*
X6792707Y442540D1*
X6790707Y436540D1*
X6788707Y432540D1*
X6786707Y426540D1*
X6782707Y418540D1*
X6780707Y412540D1*
X6778707Y408540D1*
X6776707Y402540D1*
X6774707Y398540D1*
Y394540D1*
X6922707D1*
X6924707Y396540D1*
X6926707Y400540D1*
X6928707Y406540D1*
X6930707Y410540D1*
X6932707Y416540D1*
X6934707Y420540D1*
X6936707Y426540D1*
X6938707Y430540D1*
X6940707Y436540D1*
X6942707Y440540D1*
X6946707Y452540D1*
X6948707Y456540D1*
X6950707Y462540D1*
X6952707Y466540D1*
X6954707Y472540D1*
X6956707Y476540D1*
X6958707Y482540D1*
X6492707D1*
X6490707Y462540D1*
X6488707Y458540D1*
X6486707Y452540D1*
Y450540D1*
X6476707Y440540D1*
X6456707Y430540D1*
X6454707Y428540D1*
X6456707Y424540D1*
X6460707Y418540D1*
X6462707Y414540D1*
X6470707Y402540D1*
X6472707Y398540D1*
X6480707Y386540D1*
X6482707Y382540D1*
X6490707Y370540D1*
X6492707Y368540D1*
Y358540D1*
X6490707Y356540D1*
Y354540D1*
X6484707Y348540D1*
X6476707Y344540D1*
X6472707D1*
X6464707Y348540D1*
X6456707Y356540D1*
Y358540D1*
X6448707Y370540D1*
X6446707Y374540D1*
X6438707Y386540D1*
X6436707Y390540D1*
X6428707Y402540D1*
X6426707Y406540D1*
X6418707Y418540D1*
X6416707Y422540D1*
X6414707Y424540D1*
X6390707D1*
X6388707Y356540D1*
Y354540D1*
X6382707Y348540D1*
X6374707Y344540D1*
X6370707D1*
X6366707Y346540D1*
X6144707D1*
X6106707Y344540D1*
X6068707D1*
X6030707Y346540D1*
X6026707Y348540D1*
X6020707Y354540D1*
Y356540D1*
X6018707Y358540D1*
Y366540D1*
X6020707Y368540D1*
X6021707Y370540D1*
X6022798Y372362D1*
X6024725Y374497D1*
X6026707Y376540D1*
X6098707Y448540D1*
X6106707Y460540D1*
X6110707Y468540D1*
X6112707Y474540D1*
Y482540D1*
X6110707Y488540D1*
X6104707Y494540D1*
X6098707Y496540D1*
X6076707D1*
X6070707Y494540D1*
X6066707Y492540D1*
X6064707Y488540D1*
X6062707Y482540D1*
X6060707Y472540D1*
Y470540D1*
X6054707Y464540D1*
X6046707Y460540D1*
X6042707D1*
X6034707Y464540D1*
X6028707Y470540D1*
Y472540D1*
X6026707Y474540D1*
Y492540D1*
X6028707Y494540D1*
X6030707Y498540D1*
X6032707Y504540D1*
X6036707Y510540D1*
Y512540D1*
X6044707Y520540D1*
X6048707Y522540D1*
X6050707Y524540D1*
X6054707Y526540D1*
X6060707Y528540D1*
X6064707Y530540D1*
X6080040Y532540D1*
X6095373D1*
X6110707Y530540D1*
X6114707Y528540D1*
X6120707Y526540D1*
X6124707Y524540D1*
X6142707Y506540D1*
Y504540D1*
X6144707Y498540D1*
X6146707Y494540D1*
X6148707Y492540D1*
Y464540D1*
X6146707Y462540D1*
X6144707Y458540D1*
X6142707Y452540D1*
X6140707Y448540D1*
X6128707Y430540D1*
X6080707Y380540D1*
X6144707Y378540D1*
X6148707Y376540D1*
X6154707Y370540D1*
Y368540D1*
X6156707Y366540D1*
Y358540D1*
X6154707Y356540D1*
Y354540D1*
X6148707Y348540D1*
X6144707Y346540D1*
X6366707D1*
X6362707Y348540D1*
X6356707Y354540D1*
Y356540D1*
X6354707Y358540D1*
Y518540D1*
X6356707Y520540D1*
Y522540D1*
X6362707Y528540D1*
X6366707Y530540D1*
X6393373Y532540D1*
X6420040D1*
X6446707Y530540D1*
X6454707Y528540D1*
X6460707Y526540D1*
X6468707Y524540D1*
X6486707Y506540D1*
Y504540D1*
X6488707Y498540D1*
X6490707Y494540D1*
X6492707Y482540D1*
X6958707D1*
X6960707Y486540D1*
X6962707Y492540D1*
X6964707Y496540D1*
X6966707Y502540D1*
X6968707Y506540D1*
X6970707Y512540D1*
X6972707Y516540D1*
Y520540D1*
X6980707Y528540D1*
X6988707Y532540D1*
X6992707D1*
X7000707Y528540D1*
X7008707Y520540D1*
Y516540D1*
X7010707Y512540D1*
X7012707Y506540D1*
X7014707Y502540D1*
X7018707Y490540D1*
X7020707Y486540D1*
X7024707Y474540D1*
X7026707Y470540D1*
X7028707Y464540D1*
X7030707Y460540D1*
X7034707Y448540D1*
X7036707Y444540D1*
X7040707Y432540D1*
X7042707Y428540D1*
X7044707Y422540D1*
X7046707Y418540D1*
X7050707Y406540D1*
X7052707Y402540D1*
X7056707Y390540D1*
X7058707Y386540D1*
X7060707Y380540D1*
X7062707Y376540D1*
X7064707Y370540D1*
X7066707Y368540D1*
Y358540D1*
X7064707Y356540D1*
Y354540D1*
X7058707Y348540D1*
X7054707Y346540D1*
X7150707D1*
X7136707Y350540D1*
X7128707Y352540D1*
X7118707Y362540D1*
Y364540D1*
X7106707Y382540D1*
X7104707Y392540D1*
X7102707Y400540D1*
X7098707Y420540D1*
X7096707Y422540D1*
Y456540D1*
X7098707Y458540D1*
X7100707Y468540D1*
X7102707Y476540D1*
X7104707Y486540D1*
X7106707Y494540D1*
X7118707Y512540D1*
Y514540D1*
X7128707Y524540D1*
X7136707Y526540D1*
X7142707Y528540D1*
X7150707Y530540D1*
X7160707Y532540D1*
X7170707D1*
X7180707Y530540D1*
X7188707Y528540D1*
X7194707Y526540D1*
X7202707Y524540D1*
X7212707Y514540D1*
Y512540D1*
X7224707Y494540D1*
X7226707Y484540D1*
X7228707Y476540D1*
X7230707Y466540D1*
X7232707Y458540D1*
X7234707Y456540D1*
Y422540D1*
X7232707Y420540D1*
X7230707Y410540D1*
X7228707Y402540D1*
X7224707Y382540D1*
X7212707Y364540D1*
Y362540D1*
X7202707Y352540D1*
X7194707Y350540D1*
X7180707Y346540D1*
X7312707D1*
X7298707Y350540D1*
X7288707Y354540D1*
X7284707Y356540D1*
X7276707Y364540D1*
Y366540D1*
X7272707Y372540D1*
X7270707Y378540D1*
X7268707Y382540D1*
X7266707Y384540D1*
Y394540D1*
X7268707Y396540D1*
Y398540D1*
X7274707Y404540D1*
X7282707Y408540D1*
X7286707D1*
X7294707Y404540D1*
X7302707Y396540D1*
Y394540D1*
X7304707Y388540D1*
X7306707Y384540D1*
X7320707Y380540D1*
X7342707D1*
X7354707Y384540D1*
X7362707Y392540D1*
X7366707Y404540D1*
X7368707Y408540D1*
Y418540D1*
X7366707Y422540D1*
X7364707Y428540D1*
X7362707Y432540D1*
X7358707Y436540D1*
X7352707Y438540D1*
X7328707Y440540D1*
X7324707Y442540D1*
X7318707Y448540D1*
Y450540D1*
X7316707Y452540D1*
Y460540D1*
X7318707Y462540D1*
X7320707Y466540D1*
X7328707Y476540D1*
X7340707Y492540D1*
X7342707Y496540D1*
X7292707Y498540D1*
X7288707Y500540D1*
X7282707Y506540D1*
Y508540D1*
X7280707Y510540D1*
Y518540D1*
X7282707Y520540D1*
Y522540D1*
X7288707Y528540D1*
X7292707Y530540D1*
X7323373Y532540D1*
X7354040D1*
X7384707Y530540D1*
X7388707Y528540D1*
X7394707Y522540D1*
Y520540D1*
X7396707Y518540D1*
Y510540D1*
X7394707Y508540D1*
X7390707Y502540D1*
X7372707Y478540D1*
X7368707Y472540D1*
Y470540D1*
X7374707Y468540D1*
X7378707Y466540D1*
X7396707Y448540D1*
Y444540D1*
X7398707Y438540D1*
X7400707Y434540D1*
X7402707Y428540D1*
X7404707Y426540D1*
Y400540D1*
X7402707Y398540D1*
X7400707Y392540D1*
X7398707Y388540D1*
X7396707Y382540D1*
X7390707Y372540D1*
Y370540D1*
X7372707Y352540D1*
X7364707Y350540D1*
X7350707Y346540D1*
X7416707D1*
Y588540D1*
X2980707D1*
Y538540D1*
X4790707D1*
X4794707Y540540D1*
X4798707D1*
X4806707Y536540D1*
X4812707Y530540D1*
X4886707D1*
X4890707Y532540D1*
X4894707D1*
X4898707Y530540D1*
X5442707D1*
X5469373Y532540D1*
X5496040D1*
X5522707Y530540D1*
X5612707D1*
X5616707Y532540D1*
X5620707D1*
X5624707Y530540D1*
X5678707D1*
X5682707Y532540D1*
X5686707D1*
X5694707Y528540D1*
X5702707Y520540D1*
Y516540D1*
X5704707Y512540D1*
X5706707Y506540D1*
X5708707Y502540D1*
X5712707Y490540D1*
X5714707Y486540D1*
X5718707Y474540D1*
X5720707Y470540D1*
X5722707Y464540D1*
X5724707Y460540D1*
X5728707Y448540D1*
X5730707Y444540D1*
X5734707Y432540D1*
X5736707Y428540D1*
X5738707Y422540D1*
X5740707Y418540D1*
X5742707Y412540D1*
X5744707Y418540D1*
X5746707Y422540D1*
X5748707Y428540D1*
X5750707Y432540D1*
X5754707Y444540D1*
X5756707Y448540D1*
X5760707Y460540D1*
X5762707Y464540D1*
X5764707Y470540D1*
X5766707Y474540D1*
X5770707Y486540D1*
X5772707Y490540D1*
X5776707Y502540D1*
X5778707Y506540D1*
X5780707Y512540D1*
X5782707Y516540D1*
Y520540D1*
X5790707Y528540D1*
X5798707Y532540D1*
X5802707D1*
X5806707Y530540D1*
X5876707D1*
X5907373Y532540D1*
X5938040D1*
X5968707Y530540D1*
X5972707Y528540D1*
X5978707Y522540D1*
Y520540D1*
X5980707Y518540D1*
Y510540D1*
X5978707Y508540D1*
X5974707Y502540D1*
X5956707Y478540D1*
X5952707Y472540D1*
Y470540D1*
X5958707Y468540D1*
X5962707Y466540D1*
X5980707Y448540D1*
Y444540D1*
X5982707Y438540D1*
X5984707Y434540D1*
X5986707Y428540D1*
X5988707Y426540D1*
Y400540D1*
X5986707Y398540D1*
X5984707Y392540D1*
X5982707Y388540D1*
X5980707Y382540D1*
X5974707Y372540D1*
Y370540D1*
X5956707Y352540D1*
X5948707Y350540D1*
X5942707Y348540D1*
X5934707Y346540D1*
X5922040Y344540D1*
X5909373D1*
X5896707Y346540D1*
X5888707Y348540D1*
X5882707Y350540D1*
X5872707Y354540D1*
X5868707Y356540D1*
X5860707Y364540D1*
Y366540D1*
X5856707Y372540D1*
X5854707Y378540D1*
X5852707Y382540D1*
X5850707Y384540D1*
Y394540D1*
X5852707Y396540D1*
Y398540D1*
X5858707Y404540D1*
X5866707Y408540D1*
X5870707D1*
X5878707Y404540D1*
X5886707Y396540D1*
Y394540D1*
X5888707Y388540D1*
X5890707Y384540D1*
X5904707Y380540D1*
X5926707D1*
X5938707Y384540D1*
X5946707Y392540D1*
X5950707Y404540D1*
X5952707Y408540D1*
Y418540D1*
X5950707Y422540D1*
X5948707Y428540D1*
X5946707Y432540D1*
X5942707Y436540D1*
X5936707Y438540D1*
X5912707Y440540D1*
X5908707Y442540D1*
X5902707Y448540D1*
Y450540D1*
X5900707Y452540D1*
Y460540D1*
X5902707Y462540D1*
X5904707Y466540D1*
X5912707Y476540D1*
X5924707Y492540D1*
X5926707Y496540D1*
X5876707Y498540D1*
X5872707Y500540D1*
X5866707Y506540D1*
Y508540D1*
X5864707Y510540D1*
Y518540D1*
X5866707Y520540D1*
Y522540D1*
X5872707Y528540D1*
X5876707Y530540D1*
X5806707D1*
G37*
G36*
X5466707Y496540D2*
Y460540D1*
X5512707D1*
X5528707Y466540D1*
X5530707Y468540D1*
X5532707Y474540D1*
Y482540D1*
X5530707Y488540D1*
X5526707Y492540D1*
X5514707Y496540D1*
X5466707D1*
G37*
G36*
X6390707D2*
Y460540D1*
X6436707D1*
X6452707Y466540D1*
X6454707Y468540D1*
X6456707Y474540D1*
Y482540D1*
X6454707Y488540D1*
X6450707Y492540D1*
X6438707Y496540D1*
X6390707D1*
G37*
G36*
X7158707D2*
X7152707Y494540D1*
X7148707Y492540D1*
X7144707Y488540D1*
X7140707Y482540D1*
X7138707Y478540D1*
X7136707Y470540D1*
X7134707Y460540D1*
X7132707Y452540D1*
Y428540D1*
X7144707Y440540D1*
X7160707Y458540D1*
X7178707Y478540D1*
X7186707Y488540D1*
X7182707Y492540D1*
X7178707Y494540D1*
X7172707Y496540D1*
X7158707D1*
G37*
G36*
X6990707Y464540D2*
X6990049Y462114D1*
X6988707Y460540D1*
X6986707Y456540D1*
X6984707Y450540D1*
X6982707Y446540D1*
X6980707Y440540D1*
X6978707Y436540D1*
X6976707Y430540D1*
X7002707D1*
Y432540D1*
X6998707Y444540D1*
X6996707Y448540D1*
X6994707Y454540D1*
X6992707Y458540D1*
X6990707Y460540D1*
Y464540D1*
G37*
G36*
X7198707Y448540D2*
X7186707Y436540D1*
X7170707Y418540D1*
X7152707Y398540D1*
X7144707Y388540D1*
X7148707Y384540D1*
X7152707Y382540D1*
X7158707Y380540D1*
X7172707D1*
X7178707Y382540D1*
X7182707Y384540D1*
X7186707Y388540D1*
X7190707Y394540D1*
X7192707Y398540D1*
X7196707Y418540D1*
X7198707Y426540D1*
Y448540D1*
G37*
G36*
X3266707Y446540D2*
X3262707Y444540D1*
X3256707Y440540D1*
X3254707Y438540D1*
X3290707D1*
Y440540D1*
X3280707Y446540D1*
X3266707D1*
G37*
G36*
X3420707D2*
X3416707Y444540D1*
X3410707Y440540D1*
X3402707Y432540D1*
X3398707Y420540D1*
Y406540D1*
X3402707Y394540D1*
X3410707Y386540D1*
X3416707Y382540D1*
X3420707Y380540D1*
X3434707D1*
X3440707Y384540D1*
X3448707Y392540D1*
Y434540D1*
X3440707Y442540D1*
X3434707Y446540D1*
X3420707D1*
G37*
G36*
X3846707D2*
X3842707Y444540D1*
X3836707Y440540D1*
X3834707Y438540D1*
X3870707D1*
Y440540D1*
X3860707Y446540D1*
X3846707D1*
G37*
G36*
X4520707D2*
X4516707Y444540D1*
X4510707Y440540D1*
X4502707Y432540D1*
X4498707Y420540D1*
Y406540D1*
X4502707Y394540D1*
X4510707Y386540D1*
X4516707Y382540D1*
X4520707Y380540D1*
X4534707D1*
X4544707Y386540D1*
X4552707Y394540D1*
X4556707Y406540D1*
Y420540D1*
X4552707Y432540D1*
X4544707Y440540D1*
X4534707Y446540D1*
X4520707D1*
G37*
G36*
X5034707D2*
X5030707Y444540D1*
X5024707Y440540D1*
X5018707Y434540D1*
X5016707Y428540D1*
X5014707Y424540D1*
X5012707Y418540D1*
Y408540D1*
X5014707Y402540D1*
X5016707Y398540D1*
X5018707Y392540D1*
X5024707Y386540D1*
X5030707Y382540D1*
X5034707Y380540D1*
X5048707D1*
X5056707Y384540D1*
X5066707Y394540D1*
X5068707Y398540D1*
X5070707Y404540D1*
X5072707Y408540D1*
Y418540D1*
X5070707Y422540D1*
X5068707Y428540D1*
X5066707Y432540D1*
X5056707Y442540D1*
X5048707Y446540D1*
X5034707D1*
G37*
G36*
X6582707D2*
X6578707Y444540D1*
X6572707Y440540D1*
X6570707Y438540D1*
X6606707D1*
Y440540D1*
X6596707Y446540D1*
X6582707D1*
G37*
G36*
X5466707Y424540D2*
Y380540D1*
X5512707D1*
X5528707Y386540D1*
X5530707Y388540D1*
X5532707Y394540D1*
Y410540D1*
X5528707Y418540D1*
X5512707Y424540D1*
X5466707D1*
G37*
G36*
X6086200Y1528446D2*
X6088676Y1537664D1*
X6098937Y1554451D1*
X6137148Y1567454D1*
X6200832Y1580456D1*
X6226306Y1593459D1*
X6251780Y1619463D1*
Y1632466D1*
X6239043D1*
X6200832Y1619463D1*
X6162621D1*
X6124411Y1632466D1*
X6047989Y1645468D1*
Y1658471D1*
X6098937Y1710481D1*
X6124411Y1723483D1*
X6149884Y1749488D1*
Y1788496D1*
X6137148Y1775493D1*
X6111674Y1762491D1*
X6035252Y1749488D1*
X5997042Y1736486D1*
X5970800Y1709361D1*
X5964235Y1711446D1*
X5956056Y1725761D1*
X5958831Y1736486D1*
Y1775493D1*
X5997042Y1814500D1*
X6009779Y1840505D1*
Y1866510D1*
X5997042Y1905518D1*
X5984305D1*
Y1879513D1*
X5946094Y1840505D1*
X5920621Y1827503D1*
X5882410Y1801498D1*
X5869673Y1775493D1*
X5866439Y1760153D1*
X5856192Y1748289D1*
X5849596Y1750479D1*
X5844199Y1762491D1*
X5818725Y1827503D1*
Y1892515D1*
X5805989Y1931523D1*
X5793252Y1957528D1*
X5780515Y1970530D1*
X5767778Y1853508D1*
X5729567Y1775493D1*
X5726333Y1760153D1*
X5716087Y1748289D1*
X5709490Y1750479D1*
X5704093Y1762491D1*
X5678620Y1801498D1*
X5665883Y1827503D1*
X5602198Y1892515D1*
X5589461D1*
X5614935Y1866510D1*
Y1710481D1*
X5599405Y1696911D1*
X5584679Y1698593D1*
X5576725Y1710481D1*
X5500303Y1775493D1*
X5462093Y1801498D1*
X5436619D1*
X5474830Y1736486D1*
X5487566Y1697478D1*
X5729567D1*
X5767778Y1710481D1*
X5805989D1*
X5920621Y1671473D1*
X5933357Y1658471D1*
X5958831Y1645468D1*
X5969092Y1628681D1*
X5971568Y1619463D1*
X5997042Y1593459D1*
Y1567454D1*
X5983537Y1553332D1*
X5976942Y1555443D1*
X5971568Y1567454D1*
X5946094Y1580456D1*
X5818725D1*
X5797497Y1567454D1*
X5776270D1*
X5755041Y1580456D1*
X5640409D1*
X5614935Y1567454D1*
X5599405Y1553884D1*
X5584638Y1555552D1*
X5572509Y1570784D1*
X5577912Y1578423D1*
X5589461Y1593459D1*
Y1606461D1*
X5640409Y1658471D1*
X5691357Y1684476D1*
X5729567Y1697478D1*
X5487566D1*
X5500303Y1671473D1*
X5525777Y1645468D1*
Y1619463D1*
X5504548Y1606461D1*
X5483321D1*
X5462093Y1619463D1*
X5436619Y1632466D1*
X5334724D1*
X5436619Y1580456D1*
Y1567454D1*
X5449356Y1554451D1*
X5563988D1*
X5573500Y1562801D1*
X5579790Y1561472D1*
X5583876Y1548584D1*
X5576455Y1540343D1*
X5569170Y1542494D1*
X5563988Y1554451D1*
X5449356D1*
X5462093Y1541449D1*
X5742304D1*
X5751816Y1549799D1*
X5758258Y1548709D1*
X5765507Y1537958D1*
X5767778Y1528446D1*
X5742304Y1502441D1*
X5721076Y1489439D1*
X5699848D1*
X5678620Y1502441D1*
X5729567Y1528446D1*
X5742304Y1541449D1*
X5462093D1*
X5500303Y1515444D1*
X5576725D1*
X5590334Y1524124D1*
X5602198Y1528446D1*
X5627672Y1502441D1*
Y1489439D1*
X5640409Y1476436D1*
X5729567D1*
X5755041Y1489439D1*
X5767778Y1502441D1*
X5780515Y1541449D1*
X5790027Y1549799D1*
X5796627Y1549040D1*
X5805989Y1541449D1*
Y1515444D1*
X5844199Y1476436D1*
X5933357D1*
X5984305Y1528446D1*
X5996169Y1524124D1*
X6009779Y1515444D1*
Y1489439D1*
X5997042Y1476436D1*
X6009779Y1463434D1*
Y1437429D1*
X5997042Y1424427D1*
X5992855Y1408652D1*
X5984305Y1398422D1*
X5958831Y1385419D1*
X5933357Y1346412D1*
X5919852Y1332290D1*
X5913257Y1334401D1*
X5907884Y1346412D1*
X5844199Y1307404D1*
X5830694Y1293282D1*
X5824099Y1295394D1*
X5818725Y1307404D1*
X5803195Y1293835D1*
X5788469Y1295516D1*
X5780515Y1307404D1*
X5764985Y1293835D1*
X5750258Y1295516D1*
X5742304Y1307404D1*
X5665883Y1333409D1*
X5640409Y1346412D1*
X5589461Y1398422D1*
Y1411424D1*
X5576725Y1437429D1*
X5563988Y1450431D1*
Y1489439D1*
X5576725Y1502441D1*
Y1515444D1*
X5500303D1*
X5347461Y1476436D1*
X5321987Y1463434D1*
X5309250Y1450431D1*
X5360198D1*
X5369709Y1458782D1*
X5376310Y1458022D1*
X5385671Y1450431D1*
X5436619Y1424427D1*
X5474830Y1411424D1*
X5491812Y1424427D1*
X5508795D1*
X5525777Y1411424D1*
X5487566Y1372417D1*
X5436619Y1346412D1*
X5398408Y1320407D1*
X5385671Y1307404D1*
X5372934Y1281399D1*
X5385671D1*
X5538514Y1307404D1*
X5552148Y1315168D1*
X5562982Y1313708D1*
X5573352Y1301861D1*
X5572432Y1291219D1*
X5563988Y1281399D1*
X5525777Y1216387D1*
Y1151375D1*
X5563988Y1190382D1*
X5589461Y1203385D1*
X5627672Y1216387D1*
X5653146Y1242392D1*
X5662658Y1250742D1*
X5669258Y1249983D1*
X5678473Y1242001D1*
X5691357Y1229390D1*
Y1190382D1*
X5678620Y1177380D1*
Y1086362D1*
X5691357Y1073360D1*
X5704093Y1112367D1*
Y1125370D1*
X5742304Y1164377D1*
X5767778Y1177380D1*
X5780515Y1203385D1*
Y1229390D1*
X5790027Y1237740D1*
X5796627Y1236980D1*
X5805989Y1229390D1*
X5831462Y1177380D1*
X5844199Y1125370D1*
X5856936Y1086362D1*
X5869673Y1073360D1*
X5895147D1*
Y1203385D1*
X5907884Y1216387D1*
Y1242392D1*
X5924866Y1255394D1*
X5941849D1*
X5958831Y1242392D1*
X5971568Y1229390D1*
X5984020Y1215751D1*
X5994524Y1199511D1*
X5997042Y1190382D1*
X6035252Y1151375D1*
X6060726Y1138372D1*
X6073463D1*
X6047989Y1177380D1*
X6035252Y1255394D1*
X6022516Y1281399D1*
X6009779Y1294402D1*
Y1320407D1*
X6023412Y1328171D1*
X6034472Y1327336D1*
X6047989Y1320407D1*
X6057501Y1328757D1*
X6064102Y1327998D1*
X6073463Y1320407D1*
X6098937Y1294402D1*
X6149884Y1268397D1*
X6200832D1*
X6175358Y1294402D1*
X6149884Y1307404D1*
X6137148Y1320407D1*
Y1346412D1*
X6111674Y1385419D1*
X6086200Y1398422D1*
X6071095Y1413039D1*
X6073463Y1424427D1*
X6111674Y1437429D1*
X6149884D1*
X6188095Y1424427D1*
X6239043D1*
X6264516Y1437429D1*
X6277253Y1450431D1*
X6200832Y1463434D1*
X6175358Y1476436D1*
X6149884Y1502441D1*
X6124411Y1515444D1*
X6086200Y1528446D1*
X5958831D1*
X5954645Y1512672D1*
X5946094Y1502441D1*
X5920621Y1489439D1*
X5895147D1*
X5869673Y1502441D1*
X5920621Y1528446D1*
X5934254Y1536210D1*
X5945314Y1535375D1*
X5958831Y1528446D1*
X6086200D1*
G37*
G36*
X5674116Y1624061D2*
X5661379Y1611059D1*
X5670387Y1601863D1*
X5683123Y1614866D1*
X5674116Y1624061D1*
G37*
G36*
X5869673Y1619463D2*
D1*
G37*
G36*
X5895147Y1606461D2*
D1*
G37*
G36*
X5958831Y1463434D2*
X5895147Y1398422D1*
X5869673Y1385419D1*
X5831462Y1372417D1*
X5805989Y1359414D1*
X5780515D1*
X5729567Y1385419D1*
X5665883Y1424427D1*
X5678620Y1398422D1*
X5755041Y1359414D1*
X5844199D1*
X5869673Y1372417D1*
X5933357Y1424427D1*
Y1437429D1*
X5958831Y1463434D1*
G37*
G36*
X5640409Y1450431D2*
D1*
G37*
M02*
