G04 DipTrace 4.2.0.1*
G04 1 - Top.gbr*
%MOMM*%
G04 #@! TF.FileFunction,Copper,L1,Top*
G04 #@! TF.Part,Single*
G04 #@! TA.AperFunction,Conductor*
%ADD13C,0.6*%
%ADD14C,0.33*%
%ADD15C,0.9*%
G04 #@! TA.AperFunction,ComponentPad*
%ADD17C,2.0*%
%ADD18R,2.0X2.0*%
%ADD19C,1.6*%
%ADD20C,1.7*%
%ADD21R,1.7X1.7*%
%ADD22C,2.0*%
%ADD23R,1.6X1.6*%
%ADD24C,1.5*%
%ADD25R,1.5X1.5*%
%ADD27C,3.3*%
G04 #@! TA.AperFunction,ViaPad*
%ADD28C,1.016*%
%FSLAX35Y35*%
G04*
G71*
G90*
G75*
G01*
G04 Top*
%LPD*%
X8172873Y423123D2*
D13*
X8167373Y428623D1*
X7127877D1*
X6762750Y793750D1*
Y1905000D1*
X6873873Y2016123D1*
D14*
X7064373D1*
D13*
X7159623D1*
X7270750Y2127250D1*
Y2889250D1*
X6969123Y3921127D2*
X6254750D1*
X6096000Y3762377D1*
Y3466530D1*
X5968720Y3339250D1*
X5074500D1*
X4619627Y3794123D1*
X4528000D1*
D14*
X4327953D1*
D13*
X4064000D1*
X4000500Y3857623D1*
X3968000D1*
D14*
X3778000D1*
D13*
X3036373D1*
X2830000Y3651250D1*
X2714627D1*
X555627Y3937000D2*
X2328000D1*
Y3929250D1*
X555627Y3429000D2*
X793750D1*
X920750Y3302000D1*
D14*
X1190623D1*
D13*
X3492503D1*
X3540127Y3349623D1*
X3738000D1*
D14*
X4016377D1*
D13*
X4206873Y3159127D1*
X4429123D1*
X1489500Y423127D2*
X1690377Y222250D1*
X6032500D1*
X6492873Y682623D1*
Y1936750D1*
X6699250Y2143127D1*
X6969123D1*
X4839123Y423127D2*
X5064123Y648127D1*
Y825497D1*
X6635750Y2397127D1*
X6969123D1*
X555627Y2667000D2*
X762000D1*
X968373Y2460623D1*
X1149377D1*
X1212873Y2524123D1*
X4328000D1*
D14*
X4528000D1*
D13*
X5889627D1*
X5889623Y3540123D2*
Y3968750D1*
X6350000Y4429127D1*
X6969123D1*
X1063627Y3429000D2*
D15*
X1254127Y3619500D1*
X2365377D1*
X3048000Y4302123D1*
X3444873D1*
X3556050Y4413300D1*
Y4582000D1*
Y5000673D1*
X3730627Y5175250D1*
X6892000D1*
X6969123Y5098127D1*
Y4937127D1*
X9461500Y3984627D2*
X8175623D1*
X7953373Y3762377D1*
X7544873D1*
X7408000Y3899250D1*
Y4789250D1*
X7260123Y4937127D1*
X6969123D1*
X984250Y5080000D2*
Y5195500D1*
X1098000Y5309250D1*
X2378000D1*
X2526750Y5160500D1*
Y4843000D1*
X2857550D1*
X3101450D1*
Y4582000D1*
X2857550D2*
Y4843000D1*
X555627Y4191000D2*
X2659750D1*
X2857550Y4388800D1*
Y4582000D1*
X3886750Y4843000D2*
X4046623Y4683127D1*
X4429123D1*
X9445627Y1476367D2*
X9098000D1*
Y2301877D1*
X9445627D1*
X4429123Y4683127D2*
X6969123D1*
X9445627Y2301877D2*
X9096373D1*
Y3063870D1*
X9318627Y3286123D1*
X9667873D1*
X9868000Y3486250D1*
Y4259250D1*
X9638000Y4489250D1*
Y5429250D1*
X9558623Y5508627D1*
X9461500D1*
X7683500D2*
X9461500D1*
X3825877Y1920877D2*
X3592503Y2154250D1*
X1563000D1*
X1248000Y1839250D1*
X1238250Y1619250D2*
X1364500Y1493000D1*
Y673127D1*
X1238250Y1825623D2*
Y1619250D1*
X1939500Y423127D2*
X1951877D1*
X2068000Y539250D1*
Y673127D1*
X2064500D1*
X1364500D1*
X7683500Y5508627D2*
X7682877Y5509250D1*
X3767700D1*
X3101450Y4843000D1*
X8622873Y423123D2*
X8628000Y428250D1*
Y673123D1*
X8747873D1*
X8959873D1*
X9098000Y811250D1*
Y1476367D1*
X8747873Y673123D2*
D14*
D3*
X8047873D2*
D15*
X8747873D1*
X2064500Y673127D2*
D14*
D3*
X9445627Y1730367D2*
D15*
Y2047877D1*
X730250Y5080000D2*
X555627Y4905377D1*
Y4445000D1*
X3238500Y5254623D2*
Y5651500D1*
X3079750D2*
Y5254623D1*
X2921000Y5651500D2*
Y5254623D1*
X6969123Y1635127D2*
D13*
X7213877D1*
X7448000Y1869250D1*
Y2849250D1*
X7608000Y3009250D1*
X8358000D1*
X8833373Y3484623D1*
X9540873D1*
X6969123Y4175127D2*
X7122123D1*
X7207250Y4090000D1*
Y3429000D1*
X7064373Y3286123D1*
D14*
X6868000D1*
D13*
X6238877D1*
X6142003Y3189250D1*
X4970500D1*
X4619623Y3540127D1*
X4528000D1*
D14*
X4328000D1*
D13*
X4048120D1*
X3984623Y3603623D1*
D14*
X3778000D1*
D13*
X3048000D1*
X2905127Y3460750D1*
X2714627D1*
X1063627Y3175000D2*
X1571623D1*
X1714500Y3032123D1*
X4328000D1*
D14*
X4528000D1*
D13*
X6635753D1*
X6762750Y2905127D1*
X6969123D1*
X9445627Y2555877D2*
X9610720D1*
X9738000Y2428597D1*
Y1365530D1*
X9610720Y1238250D1*
X9461510D1*
X9445627Y1222367D1*
X2159000Y1539873D2*
X4108623D1*
X4203877Y1635127D1*
X4429123D1*
X9445627Y968367D2*
X9620240D1*
X9921873Y1270000D1*
Y2535377D1*
X9647373Y2809877D1*
X9445627D1*
X2159000Y1778000D2*
X2369250D1*
X2438000Y1709250D1*
X3963503D1*
X4270377Y2016123D1*
X4338073D1*
D14*
X4524373D1*
D13*
X4619623Y2111373D1*
Y2317753D1*
X4540250Y2397127D1*
X4429123D1*
X555627Y1905000D2*
X968373D1*
X1412623Y2349250D1*
X4048000D1*
X4254123Y2143127D1*
X4429123D1*
Y1889127D2*
X5778503D1*
X6413500Y2524123D1*
X6874150D1*
D14*
X7064373D1*
D13*
X7128050Y2587800D1*
Y3019300D1*
X7283750Y3175000D1*
X8255000D1*
X8794750Y3714750D1*
X9588500D1*
X9699623Y3825873D1*
Y4127500D1*
X9588497Y4238627D1*
X9461500D1*
X1063627Y2921000D2*
X1476377D1*
X1619250Y2778127D1*
X4328000D1*
D14*
X4528000D1*
D13*
X6604000D1*
X6731000Y2651127D1*
X6969123D1*
D28*
X5889627Y2524123D3*
X5889623Y3540123D3*
X2714627Y3651250D3*
X2328000Y3929250D3*
X2159000Y1778000D3*
Y1539873D3*
X2714627Y3460750D3*
X3238500Y5254623D3*
Y5651500D3*
X7270750Y2889250D3*
X3079750Y5254623D3*
X2921000D3*
X3079750Y5651500D3*
X2921000D3*
X1238250Y1619250D3*
Y1825623D3*
D17*
X3825877Y1920877D3*
D18*
X1793877D3*
D19*
X9540873Y3484623D3*
Y3095623D3*
D20*
X1939500Y423127D3*
D21*
X1489500D3*
D22*
X2064500Y673127D3*
X1364500D3*
D20*
X5289123Y423127D3*
D21*
X4839123D3*
D22*
X5414123Y673127D3*
X4714123D3*
D20*
X8622873Y423123D3*
D21*
X8172873D3*
D22*
X8747873Y673123D3*
X8047873D3*
D19*
X9826623Y5016500D3*
Y5270500D3*
X4429123Y1381127D3*
Y1635127D3*
Y1889127D3*
Y2143127D3*
Y2397127D3*
Y2651127D3*
Y2905127D3*
Y3159127D3*
Y3413127D3*
Y3667127D3*
Y3921127D3*
Y4175127D3*
Y4429127D3*
Y4683127D3*
Y4937127D3*
X6969123Y1381127D3*
Y1635127D3*
Y1889127D3*
Y2143127D3*
Y2397127D3*
Y2651127D3*
Y2905127D3*
Y3159127D3*
Y3413127D3*
Y3667127D3*
Y3921127D3*
Y4175127D3*
Y4429127D3*
Y4683127D3*
D23*
Y4937127D3*
D24*
X3870627Y3730627D3*
Y3984627D3*
Y4238627D3*
Y3476627D3*
D25*
Y3222627D3*
X9461500Y3984627D3*
D24*
Y4238627D3*
Y4492627D3*
Y4746627D3*
Y5000627D3*
Y5254627D3*
Y5508627D3*
Y5762627D3*
X7683500D3*
Y5508627D3*
Y5254627D3*
Y5000627D3*
Y4746627D3*
Y4492627D3*
Y4238627D3*
Y3984627D3*
D19*
X9445627Y714367D3*
Y968367D3*
Y1222367D3*
Y1476367D3*
D23*
Y1730367D3*
D19*
Y2809877D3*
Y2555877D3*
Y2301877D3*
D23*
Y2047877D3*
D19*
X1063627Y3175000D3*
Y2921000D3*
Y2667000D3*
D23*
Y3429000D3*
D19*
X555627Y4445000D3*
Y4191000D3*
Y3937000D3*
Y3683000D3*
Y3429000D3*
Y3175000D3*
Y2921000D3*
Y2667000D3*
Y2413000D3*
Y2159000D3*
Y1905000D3*
Y1651000D3*
Y1397000D3*
Y1143000D3*
X3101450Y4582000D3*
X2857550D3*
X3302050D3*
D23*
X3556050D3*
D27*
X2526750Y4843000D3*
X3886750D3*
D19*
X730250Y5079998D3*
X984250D3*
X1238250D3*
X1492250D3*
X1746250D3*
X2000250D3*
G36*
X8113417Y1077333D2*
X8116750Y1075667D1*
X8123417Y1069000D1*
Y1064000D1*
X8125083Y1055667D1*
X8130083Y1035667D1*
X8131750Y1027333D1*
X8136750Y1007333D1*
X8138417Y999000D1*
X8141750Y985667D1*
X8143417Y977333D1*
X8148417Y957333D1*
X8150083Y949000D1*
X8151750Y942333D1*
X8153417Y940667D1*
Y932333D1*
X8151750Y930667D1*
Y929000D1*
X8146750Y924000D1*
X8140083Y920667D1*
X8136750D1*
X8130083Y924000D1*
X8123417Y930667D1*
Y935667D1*
X8121750Y944000D1*
X8116750Y964000D1*
X8115083Y972333D1*
X8111750Y985667D1*
X8110083Y994000D1*
X8108417Y1000667D1*
X8106750Y997333D1*
X8105083Y989000D1*
X8091750Y935667D1*
Y930667D1*
X8085083Y924000D1*
X8078417Y920667D1*
X8075083D1*
X8068417Y924000D1*
X8061750Y930667D1*
Y935667D1*
X8060083Y944000D1*
X8055083Y964000D1*
X8053417Y972333D1*
X8050083Y985667D1*
X8048417Y994000D1*
X8046750Y1000667D1*
X8045083Y992333D1*
X8040083Y972333D1*
X8038417Y964000D1*
X8033417Y944000D1*
X8031750Y935667D1*
Y930667D1*
X8025083Y924000D1*
X8018417Y920667D1*
X8015083D1*
X8008417Y924000D1*
X8003417Y929000D1*
Y930667D1*
X8001750Y932333D1*
Y940667D1*
X8003417Y942333D1*
X8005083Y949000D1*
X8006750Y957333D1*
X8008417Y964000D1*
X7700083D1*
X7698417Y930667D1*
Y929000D1*
X7693417Y924000D1*
X7686750Y920667D1*
X7683417D1*
X7676750Y924000D1*
X7671750Y929000D1*
Y930667D1*
X7670083Y964000D1*
X7656750Y965667D1*
X7653417Y967333D1*
X7648417Y972333D1*
Y974000D1*
X7646750Y975667D1*
Y982333D1*
X7648417Y984000D1*
Y985667D1*
X7653417Y990667D1*
X7656750Y992333D1*
X7670083Y994000D1*
Y1039000D1*
X7668417Y1044000D1*
X7666750Y1047333D1*
X7665083Y1049000D1*
X7650083Y1050667D1*
X7646750Y1052333D1*
X7641750Y1057333D1*
Y1059000D1*
X7640083Y1060667D1*
Y1067333D1*
X7641750Y1069000D1*
Y1070667D1*
X7646750Y1075667D1*
X7650083Y1077333D1*
X7605083D1*
X7608417Y1075667D1*
X7613417Y1070667D1*
Y1069000D1*
X7615083Y1067333D1*
Y932333D1*
X7613417Y930667D1*
Y929000D1*
X7608417Y924000D1*
X7601750Y920667D1*
X7598417D1*
X7591750Y924000D1*
X7586750Y929000D1*
Y930667D1*
X7585083Y964000D1*
X7271750D1*
Y872333D1*
X8938417D1*
Y922333D1*
X8913417D1*
X8891194Y920667D1*
X8868972D1*
X8846750Y922333D1*
X8771750D1*
X8768417Y920667D1*
X8765083D1*
X8761750Y922333D1*
X8716750D1*
X8713417Y920667D1*
X8710083D1*
X8703417Y924000D1*
X8696750Y930667D1*
Y934000D1*
X8695083Y937333D1*
X8691750Y947333D1*
X8690083Y950667D1*
X8686750Y960667D1*
X8685083Y964000D1*
X8681750Y974000D1*
X8680083Y977333D1*
X8676750Y987333D1*
X8675083Y990667D1*
X8673417Y995667D1*
X8671750Y999000D1*
X8668417Y1009000D1*
X8666750Y1012333D1*
X8663417Y1022333D1*
X8660083Y1012333D1*
X8658417Y1009000D1*
X8655083Y999000D1*
X8653417Y995667D1*
X8651750Y990667D1*
X8650083Y987333D1*
X8646750Y977333D1*
X8645083Y974000D1*
X8641750Y964000D1*
X8640083Y960667D1*
X8636750Y950667D1*
X8635083Y947333D1*
X8631750Y937333D1*
X8630083Y934000D1*
Y930667D1*
X8623417Y924000D1*
X8616750Y920667D1*
X8613417D1*
X8610083Y922333D1*
X8551750D1*
X8526194Y920667D1*
X8500639D1*
X8475083Y922333D1*
X8471750Y924000D1*
X8466750Y929000D1*
Y930667D1*
X8465083Y932333D1*
Y939000D1*
X8466750Y940667D1*
X8473417Y950667D1*
X8488417Y970667D1*
Y974000D1*
X8483417Y975667D1*
X8480083Y977333D1*
X8465083Y992333D1*
Y995667D1*
X8463417Y1000667D1*
X8461750Y1004000D1*
X8460083Y1009000D1*
X8458417Y1010667D1*
Y1032333D1*
X8460083Y1034000D1*
X8461750Y1039000D1*
X8463417Y1042333D1*
X8465083Y1047333D1*
Y1050667D1*
X8485083Y1070667D1*
X8495083Y1074000D1*
X8498417Y1075667D1*
X8503417Y1077333D1*
X8513972Y1079000D1*
X8524528D1*
X8535083Y1077333D1*
X8545083Y1074000D1*
X8558417Y1067333D1*
X8568417Y1057333D1*
Y1054000D1*
X8570083Y1050667D1*
X8571750Y1045667D1*
X8573417Y1044000D1*
Y1035667D1*
X8571750Y1034000D1*
Y1032333D1*
X8566750Y1027333D1*
X8560083Y1024000D1*
X8556750D1*
X8550083Y1027333D1*
X8543417Y1034000D1*
Y1037333D1*
X8540083Y1044000D1*
X8531750Y1047333D1*
X8526750Y1049000D1*
X8511750D1*
X8503417Y1045667D1*
X8500083Y1044000D1*
X8493417Y1037333D1*
X8491750Y1034000D1*
X8490083Y1029000D1*
X8488417Y1025667D1*
Y1017333D1*
X8490083Y1014000D1*
X8491750Y1009000D1*
X8493417Y1005667D1*
X8496750Y1002333D1*
X8501750Y1000667D1*
X8521750Y999000D1*
X8525083Y997333D1*
X8530083Y992333D1*
Y990667D1*
X8531750Y989000D1*
Y982333D1*
X8530083Y980667D1*
X8528417Y977333D1*
X8513417Y957333D1*
X8510083Y952333D1*
Y950667D1*
X8551750Y949000D1*
X8555083Y947333D1*
X8560083Y942333D1*
Y940667D1*
X8561750Y939000D1*
Y932333D1*
X8560083Y930667D1*
Y929000D1*
X8555083Y924000D1*
X8551750Y922333D1*
X8610083D1*
X8606750Y924000D1*
X8601750Y929000D1*
Y930667D1*
X8600083Y932333D1*
Y1067333D1*
X8601750Y1069000D1*
Y1070667D1*
X8606750Y1075667D1*
X8613417Y1079000D1*
X8616750D1*
X8623417Y1075667D1*
X8628417Y1070667D1*
Y1069000D1*
X8630083Y1017333D1*
X8631750Y1022333D1*
X8633417Y1025667D1*
X8636750Y1035667D1*
X8638417Y1039000D1*
X8641750Y1049000D1*
X8643417Y1052333D1*
X8646750Y1062333D1*
X8648417Y1065667D1*
Y1069000D1*
X8655083Y1075667D1*
X8661750Y1079000D1*
X8665083D1*
X8671750Y1075667D1*
X8678417Y1069000D1*
Y1065667D1*
X8680083Y1062333D1*
X8683417Y1052333D1*
X8685083Y1049000D1*
X8688417Y1039000D1*
X8690083Y1035667D1*
X8693417Y1025667D1*
X8695083Y1022333D1*
X8696750Y1017333D1*
X8698417Y1069000D1*
Y1070667D1*
X8703417Y1075667D1*
X8710083Y1079000D1*
X8713417D1*
X8720083Y1075667D1*
X8725083Y1070667D1*
Y1069000D1*
X8726750Y1067333D1*
Y932333D1*
X8725083Y930667D1*
Y929000D1*
X8720083Y924000D1*
X8716750Y922333D1*
X8761750D1*
X8758417Y924000D1*
X8753417Y929000D1*
Y930667D1*
X8751750Y932333D1*
Y1067333D1*
X8753417Y1069000D1*
Y1070667D1*
X8758417Y1075667D1*
X8765083Y1079000D1*
X8768417D1*
X8775083Y1075667D1*
X8780083Y1070667D1*
Y1069000D1*
X8781750Y1067333D1*
Y932333D1*
X8780083Y930667D1*
Y929000D1*
X8775083Y924000D1*
X8771750Y922333D1*
X8846750D1*
X8838417Y925667D1*
X8828417Y929000D1*
X8813417Y944000D1*
Y945667D1*
X8811750Y950667D1*
X8810083Y954000D1*
X8808417Y955667D1*
Y977333D1*
X8810083Y979000D1*
X8811750Y984000D1*
X8813417Y987333D1*
X8820083Y997333D1*
X8813417Y1005667D1*
X8811750Y1010667D1*
X8810083Y1014000D1*
X8808417Y1015667D1*
Y1044000D1*
X8810083Y1045667D1*
X8811750Y1050667D1*
X8813417Y1054000D1*
Y1057333D1*
X8821750Y1065667D1*
X8841750Y1075667D1*
X8846750Y1077333D1*
X8868972Y1079000D1*
X8891194D1*
X8913417Y1077333D1*
X8916750Y1075667D1*
X8921750Y1070667D1*
Y1069000D1*
X8923417Y1067333D1*
Y932333D1*
X8921750Y930667D1*
Y929000D1*
X8916750Y924000D1*
X8913417Y922333D1*
X8938417D1*
Y1165667D1*
X8496750D1*
X8493417Y1164000D1*
X8490083D1*
X8483417Y1167333D1*
X8478417Y1172333D1*
X8416750D1*
X8413417Y1170667D1*
X8410083D1*
X8403417Y1174000D1*
X8398417Y1179000D1*
Y1180667D1*
X8396750Y1212333D1*
X8383417Y1214000D1*
X8303417D1*
X8292861Y1212333D1*
X8282306D1*
X8271750Y1214000D1*
X8196750D1*
X8193417Y1212333D1*
X8190083D1*
X8183417Y1215667D1*
X8180083Y1219000D1*
X8176750D1*
X8175083Y1217333D1*
X8168417Y1214000D1*
X8158417Y1212333D1*
X8148417D1*
X8138417Y1214000D1*
X8135083Y1215667D1*
X8130083Y1220667D1*
Y1222333D1*
X8128417Y1224000D1*
Y1230667D1*
X8130083Y1232333D1*
Y1234000D1*
X8135083Y1239000D1*
X8138417Y1240667D1*
X8158417Y1242333D1*
X8161750Y1244000D1*
X8166750Y1247333D1*
X8171750Y1252333D1*
X8173417Y1257333D1*
X8175083Y1260667D1*
X8176750Y1265667D1*
X8178417Y1317333D1*
Y1319000D1*
X8183417Y1324000D1*
X8190083Y1327333D1*
X8193417D1*
X8200083Y1324000D1*
X8205083Y1319000D1*
Y1317333D1*
X8206750Y1315667D1*
Y1224000D1*
X8205083Y1222333D1*
Y1220667D1*
X8200083Y1215667D1*
X8196750Y1214000D1*
X8271750D1*
X8258417Y1220667D1*
X8238417Y1240667D1*
Y1244000D1*
X8236750Y1249000D1*
X8235083Y1252333D1*
X8233417Y1257333D1*
X8231750Y1259000D1*
Y1282333D1*
X8233417Y1284000D1*
X8235083Y1287333D1*
X8236750Y1292333D1*
X8238417Y1295667D1*
X8243417Y1304000D1*
Y1305667D1*
X8258417Y1320667D1*
X8263417Y1322333D1*
X8266750Y1324000D1*
X8271750Y1325667D1*
X8282306Y1327333D1*
X8292861D1*
X8303417Y1325667D1*
X8306750Y1324000D1*
X8311750Y1322333D1*
X8315083Y1320667D1*
X8331750Y1304000D1*
Y1302333D1*
X8335083Y1297333D1*
X8336750Y1292333D1*
X8338417Y1289000D1*
X8340083Y1284000D1*
X8341750Y1282333D1*
Y1259000D1*
X8340083Y1257333D1*
X8336750Y1247333D1*
X8331750Y1237333D1*
Y1235667D1*
X8320083Y1224000D1*
X8316750Y1222333D1*
X8311750Y1219000D1*
X8303417Y1214000D1*
X8383417D1*
X8380083Y1215667D1*
X8375083Y1220667D1*
Y1222333D1*
X8373417Y1224000D1*
Y1230667D1*
X8375083Y1232333D1*
Y1234000D1*
X8380083Y1239000D1*
X8383417Y1240667D1*
X8396750Y1242333D1*
Y1289000D1*
X8395083Y1294000D1*
X8391750Y1297333D1*
X8376750Y1299000D1*
X8373417Y1300667D1*
X8368417Y1305667D1*
Y1307333D1*
X8366750Y1309000D1*
Y1315667D1*
X8368417Y1317333D1*
Y1319000D1*
X8373417Y1324000D1*
X8376750Y1325667D1*
X8384528Y1327333D1*
X8392306D1*
X8400083Y1325667D1*
X8486750D1*
X8490083Y1327333D1*
X8493417D1*
X8500083Y1324000D1*
X8505083Y1319000D1*
Y1317333D1*
X8506750Y1315667D1*
Y1224000D1*
X8505083Y1222333D1*
Y1220667D1*
X8500083Y1215667D1*
X8493417Y1212333D1*
X8490083D1*
X8483417Y1215667D1*
X8478417Y1220667D1*
Y1222333D1*
X8476750Y1224000D1*
Y1315667D1*
X8478417Y1317333D1*
Y1319000D1*
X8483417Y1324000D1*
X8486750Y1325667D1*
X8400083D1*
X8408417Y1322333D1*
X8413417Y1320667D1*
X8421750Y1312333D1*
Y1307333D1*
X8423417Y1302333D1*
X8425083Y1295667D1*
X8426750Y1242333D1*
X8435083Y1240667D1*
X8438417Y1239000D1*
X8443417Y1234000D1*
Y1232333D1*
X8445083Y1230667D1*
Y1224000D1*
X8443417Y1222333D1*
Y1220667D1*
X8438417Y1215667D1*
X8435083Y1214000D1*
X8426750Y1212333D1*
X8425083Y1180667D1*
Y1179000D1*
X8420083Y1174000D1*
X8416750Y1172333D1*
X8478417D1*
X8476750Y1175667D1*
X8473417Y1180667D1*
X8471750Y1182333D1*
Y1189000D1*
X8473417Y1190667D1*
X8476750Y1195667D1*
Y1197333D1*
X8483417Y1204000D1*
X8490083Y1207333D1*
X8493417D1*
X8503417Y1202333D1*
X8510083Y1195667D1*
Y1194000D1*
X8511750Y1190667D1*
X8513417Y1189000D1*
Y1182333D1*
X8511750Y1180667D1*
X8510083Y1177333D1*
Y1175667D1*
X8503417Y1169000D1*
X8496750Y1165667D1*
X8938417D1*
Y1172333D1*
X8913417D1*
X8910083Y1170667D1*
X8906750D1*
X8900083Y1174000D1*
X8893417Y1180667D1*
Y1184000D1*
X8891750Y1187333D1*
X8890083Y1192333D1*
X8888417Y1195667D1*
X8885083Y1205667D1*
X8883417Y1209000D1*
X8880083Y1219000D1*
X8878417Y1222333D1*
X8876750Y1227333D1*
X8875083Y1230667D1*
X8871750Y1240667D1*
X8870083Y1244000D1*
X8866750Y1254000D1*
X8865083Y1257333D1*
X8863417Y1262333D1*
X8861750Y1265667D1*
X8860083Y1270667D1*
X8856750Y1264000D1*
X8855083Y1259000D1*
X8853417Y1255667D1*
X8851750Y1250667D1*
X8850083Y1247333D1*
X8846750Y1237333D1*
X8845083Y1234000D1*
X8843417Y1229000D1*
X8841750Y1225667D1*
X8840083Y1220667D1*
X8838417Y1217333D1*
X8836750Y1212333D1*
X8835083Y1209000D1*
X8833417Y1204000D1*
X8831750Y1200667D1*
X8830083Y1195667D1*
X8828417Y1192333D1*
X8826750Y1187333D1*
X8825083Y1184000D1*
Y1180667D1*
X8818417Y1174000D1*
X8811750Y1170667D1*
X8808417D1*
X8801750Y1174000D1*
X8796750Y1179000D1*
Y1180667D1*
X8795083Y1214000D1*
X8731750D1*
X8721194Y1212333D1*
X8710639D1*
X8700083Y1214000D1*
X8625083D1*
X8621750Y1212333D1*
X8618417D1*
X8611750Y1215667D1*
X8608417Y1219000D1*
X8605083D1*
X8603417Y1217333D1*
X8596750Y1214000D1*
X8586194Y1212333D1*
X8575639D1*
X8565083Y1214000D1*
X8561750Y1215667D1*
X8560083Y1217333D1*
X8553417Y1220667D1*
X8545083Y1229000D1*
Y1232333D1*
X8543417Y1237333D1*
X8541750Y1240667D1*
X8540083Y1245667D1*
X8538417Y1247333D1*
Y1315667D1*
X8540083Y1317333D1*
Y1319000D1*
X8545083Y1324000D1*
X8551750Y1327333D1*
X8555083D1*
X8561750Y1324000D1*
X8566750Y1319000D1*
Y1317333D1*
X8568417Y1254000D1*
X8570083Y1250667D1*
X8571750Y1245667D1*
X8575083Y1242333D1*
X8586750D1*
X8590083Y1244000D1*
X8595083Y1247333D1*
X8605083Y1257333D1*
X8606750Y1317333D1*
Y1319000D1*
X8611750Y1324000D1*
X8618417Y1327333D1*
X8621750D1*
X8628417Y1324000D1*
X8633417Y1319000D1*
Y1317333D1*
X8635083Y1315667D1*
Y1224000D1*
X8633417Y1222333D1*
Y1220667D1*
X8628417Y1215667D1*
X8625083Y1214000D1*
X8700083D1*
X8685083Y1224000D1*
X8681750Y1225667D1*
X8666750Y1240667D1*
Y1245667D1*
X8665083Y1250667D1*
X8663417Y1257333D1*
X8661750Y1259000D1*
Y1282333D1*
X8663417Y1284000D1*
X8665083Y1289000D1*
X8666750Y1295667D1*
Y1299000D1*
X8688417Y1320667D1*
X8691750Y1322333D1*
X8696750Y1324000D1*
X8700083Y1325667D1*
X8710639Y1327333D1*
X8721194D1*
X8731750Y1325667D1*
X8735083Y1324000D1*
X8740083Y1322333D1*
X8743417Y1320667D1*
X8745083Y1319000D1*
X8748417Y1317333D1*
X8761750Y1304000D1*
Y1302333D1*
X8765083Y1295667D1*
X8766750Y1289000D1*
X8768417Y1284000D1*
X8770083Y1282333D1*
Y1259000D1*
X8768417Y1257333D1*
X8766750Y1250667D1*
X8765083Y1245667D1*
X8761750Y1237333D1*
X8748417Y1224000D1*
X8745083Y1222333D1*
X8740083Y1219000D1*
X8731750Y1214000D1*
X8795083D1*
X8796750Y1317333D1*
Y1319000D1*
X8801750Y1324000D1*
X8808417Y1327333D1*
X8811750D1*
X8818417Y1324000D1*
X8823417Y1319000D1*
Y1317333D1*
X8825083Y1264000D1*
X8826750Y1269000D1*
X8828417Y1272333D1*
X8830083Y1277333D1*
X8831750Y1280667D1*
X8833417Y1285667D1*
X8835083Y1289000D1*
X8836750Y1294000D1*
X8838417Y1297333D1*
X8840083Y1302333D1*
X8841750Y1305667D1*
X8843417Y1310667D1*
X8845083Y1314000D1*
Y1317333D1*
X8851750Y1324000D1*
X8858417Y1327333D1*
X8861750D1*
X8868417Y1324000D1*
X8875083Y1317333D1*
Y1314000D1*
X8876750Y1310667D1*
X8878417Y1305667D1*
X8880083Y1302333D1*
X8883417Y1292333D1*
X8885083Y1289000D1*
X8888417Y1279000D1*
X8890083Y1275667D1*
X8891750Y1270667D1*
X8893417Y1267333D1*
X8895083Y1317333D1*
Y1319000D1*
X8900083Y1324000D1*
X8906750Y1327333D1*
X8910083D1*
X8916750Y1324000D1*
X8921750Y1319000D1*
Y1317333D1*
X8923417Y1315667D1*
Y1182333D1*
X8921750Y1180667D1*
Y1179000D1*
X8916750Y1174000D1*
X8913417Y1172333D1*
X8938417D1*
Y1390667D1*
X7271750D1*
Y1325667D1*
X7550083D1*
X7558417Y1327333D1*
X7566750D1*
X7575083Y1325667D1*
X7661750D1*
X7665083Y1327333D1*
X7668417D1*
X7678417Y1322333D1*
X7685083Y1315667D1*
X7686750Y1312333D1*
X7688417Y1310667D1*
Y1304000D1*
X7686750Y1302333D1*
X7685083Y1299000D1*
Y1297333D1*
X7678417Y1290667D1*
X7668417Y1285667D1*
X7665083D1*
X7658417Y1289000D1*
X7646750Y1300667D1*
Y1302333D1*
X7645083Y1304000D1*
Y1310667D1*
X7646750Y1312333D1*
Y1314000D1*
X7653417Y1320667D1*
X7656750Y1322333D1*
X7661750Y1325667D1*
X7575083D1*
X7586750Y1322333D1*
X7593417Y1320667D1*
X7601750Y1312333D1*
Y1310667D1*
X7611750Y1295667D1*
X7613417Y1289000D1*
X7615083Y1285667D1*
X7743417D1*
X7745083Y1317333D1*
Y1319000D1*
X7750083Y1324000D1*
X7756750Y1327333D1*
X7760083D1*
X7763417Y1325667D1*
X7906750D1*
X7910083Y1327333D1*
X7913417D1*
X7920083Y1324000D1*
X7926750Y1317333D1*
Y1315667D1*
X7928417Y1310667D1*
X7931750Y1304000D1*
X7933417Y1299000D1*
X7936750Y1292333D1*
X7938417Y1287333D1*
X7943417Y1277333D1*
X7945083Y1272333D1*
X7948417Y1265667D1*
X7950083Y1260667D1*
X7953417Y1254000D1*
X7955083Y1249000D1*
X7958417Y1242333D1*
X7960083Y1237333D1*
X7961750Y1234000D1*
X7963417Y1232333D1*
Y1224000D1*
X7961750Y1222333D1*
Y1220667D1*
X7956750Y1215667D1*
X7950083Y1212333D1*
X7946750D1*
X7940083Y1215667D1*
X7933417Y1222333D1*
Y1224000D1*
X7931750Y1229000D1*
X7928417Y1235667D1*
X7926750Y1240667D1*
X7923417Y1247333D1*
X7921750Y1252333D1*
X7918417Y1259000D1*
X7916750Y1264000D1*
X7911750Y1274000D1*
X7908417Y1267333D1*
X7906750Y1262333D1*
X7901750Y1252333D1*
X7900083Y1247333D1*
X7896750Y1240667D1*
X7895083Y1235667D1*
X7891750Y1229000D1*
X7890083Y1224000D1*
Y1222333D1*
X7883417Y1215667D1*
X7876750Y1212333D1*
X7873417D1*
X7866750Y1215667D1*
X7861750Y1220667D1*
Y1222333D1*
X7860083Y1224000D1*
Y1232333D1*
X7861750Y1234000D1*
X7863417Y1237333D1*
X7865083Y1242333D1*
X7868417Y1249000D1*
X7870083Y1254000D1*
X7873417Y1260667D1*
X7875083Y1265667D1*
X7880083Y1275667D1*
X7881750Y1280667D1*
X7885083Y1287333D1*
X7886750Y1292333D1*
X7890083Y1299000D1*
X7891750Y1304000D1*
X7895083Y1310667D1*
X7896750Y1315667D1*
Y1317333D1*
X7903417Y1324000D1*
X7906750Y1325667D1*
X7763417D1*
X7766750Y1324000D1*
X7771750Y1319000D1*
Y1317333D1*
X7773417Y1285667D1*
X7825083Y1284000D1*
X7828417Y1282333D1*
X7833417Y1277333D1*
Y1275667D1*
X7835083Y1274000D1*
Y1267333D1*
X7833417Y1265667D1*
X7831750Y1262333D1*
X7821750Y1249000D1*
X7818417Y1244000D1*
X7808417Y1230667D1*
X7805083Y1225667D1*
X7795083Y1212333D1*
X7791750Y1207333D1*
X7781750Y1194000D1*
X7778417Y1189000D1*
X7773417Y1182333D1*
X7770083Y1177333D1*
Y1175667D1*
X7760083Y1170667D1*
X7756750D1*
X7750083Y1174000D1*
X7745083Y1179000D1*
Y1180667D1*
X7743417Y1255667D1*
X7723417Y1257333D1*
X7720083Y1259000D1*
X7715083Y1264000D1*
Y1265667D1*
X7713417Y1267333D1*
Y1274000D1*
X7715083Y1275667D1*
Y1277333D1*
X7720083Y1282333D1*
X7723417Y1284000D1*
X7743417Y1285667D1*
X7615083D1*
Y1280667D1*
X7616750Y1274000D1*
X7618417Y1265667D1*
X7620083Y1264000D1*
Y1235667D1*
X7618417Y1234000D1*
X7616750Y1225667D1*
X7615083Y1219000D1*
X7613417Y1210667D1*
X7611750Y1204000D1*
X7601750Y1189000D1*
Y1187333D1*
X7593417Y1179000D1*
X7588417Y1177333D1*
X7585083Y1175667D1*
X7575083Y1172333D1*
X7566750Y1170667D1*
X7558417D1*
X7550083Y1172333D1*
X7545083Y1174000D1*
X7541750Y1175667D1*
X7531750Y1179000D1*
X7523417Y1187333D1*
Y1189000D1*
X7513417Y1204000D1*
X7511750Y1212333D1*
X7510083Y1219000D1*
X7508417Y1227333D1*
X7506750Y1234000D1*
X7505083Y1235667D1*
Y1264000D1*
X7506750Y1265667D1*
X7508417Y1272333D1*
X7510083Y1280667D1*
X7511750Y1287333D1*
X7513417Y1295667D1*
X7523417Y1310667D1*
Y1312333D1*
X7531750Y1320667D1*
X7538417Y1322333D1*
X7550083Y1325667D1*
X7271750D1*
Y1077333D1*
X7343417D1*
X7346750Y1079000D1*
X7350083D1*
X7353417Y1077333D1*
X7421750D1*
X7432306Y1079000D1*
X7442861D1*
X7453417Y1077333D1*
X7466750Y1070667D1*
X7468417Y1069000D1*
X7471750Y1067333D1*
X7483417Y1055667D1*
Y1054000D1*
X7488417Y1044000D1*
X7491750Y1034000D1*
X7493417Y1032333D1*
Y1010667D1*
X7491750Y1009000D1*
X7488417Y999000D1*
X7483417Y989000D1*
Y987333D1*
X7471750Y975667D1*
X7468417Y974000D1*
X7466750Y972333D1*
X7453417Y965667D1*
X7442861Y964000D1*
X7432306D1*
X7421750Y965667D1*
X7418417Y967333D1*
X7416750Y969000D1*
X7406750Y975667D1*
X7403417Y977333D1*
X7395083Y985667D1*
Y987333D1*
X7393417Y992333D1*
X7391750Y995667D1*
X7390083Y997333D1*
Y1019000D1*
X7391750Y1020667D1*
Y1022333D1*
X7396750Y1027333D1*
X7400083Y1029000D1*
X7461750Y1030667D1*
X7460083Y1034000D1*
X7458417Y1039000D1*
X7453417Y1044000D1*
X7443417Y1049000D1*
X7431750D1*
X7426750Y1045667D1*
X7416750Y1035667D1*
X7406750Y1030667D1*
X7403417D1*
X7396750Y1034000D1*
X7391750Y1039000D1*
Y1040667D1*
X7390083Y1042333D1*
Y1049000D1*
X7391750Y1050667D1*
Y1052333D1*
X7410083Y1070667D1*
X7416750Y1074000D1*
X7421750Y1077333D1*
X7353417D1*
X7356750Y1075667D1*
X7361750Y1070667D1*
Y1069000D1*
X7363417Y1067333D1*
Y975667D1*
X7361750Y974000D1*
Y972333D1*
X7356750Y967333D1*
X7350083Y964000D1*
X7346750D1*
X7340083Y967333D1*
X7336750Y970667D1*
X7335083D1*
X7325083Y965667D1*
X7315083Y964000D1*
X7305083D1*
X7295083Y965667D1*
X7291750Y967333D1*
X7286750Y972333D1*
Y974000D1*
X7285083Y975667D1*
Y982333D1*
X7286750Y984000D1*
Y985667D1*
X7291750Y990667D1*
X7295083Y992333D1*
X7315083Y994000D1*
X7325083Y999000D1*
X7330083Y1004000D1*
X7331750Y1010667D1*
X7333417Y1015667D1*
X7335083Y1069000D1*
Y1070667D1*
X7340083Y1075667D1*
X7343417Y1077333D1*
X7271750D1*
Y964000D1*
X7585083D1*
Y970667D1*
X7583417Y969000D1*
X7576750Y965667D1*
X7566194Y964000D1*
X7555639D1*
X7545083Y965667D1*
X7531750Y972333D1*
X7523417Y980667D1*
Y984000D1*
X7521750Y990667D1*
X7520083Y995667D1*
X7518417Y997333D1*
Y1067333D1*
X7520083Y1069000D1*
Y1070667D1*
X7525083Y1075667D1*
X7531750Y1079000D1*
X7535083D1*
X7541750Y1075667D1*
X7546750Y1070667D1*
Y1069000D1*
X7548417Y1004000D1*
X7550083Y997333D1*
X7551750Y995667D1*
X7555083Y994000D1*
X7566750D1*
X7570083Y995667D1*
X7575083Y999000D1*
X7585083Y1009000D1*
X7586750Y1069000D1*
Y1070667D1*
X7591750Y1075667D1*
X7598417Y1079000D1*
X7601750D1*
X7605083Y1077333D1*
X7650083D1*
X7658417Y1079000D1*
X7666750D1*
X7675083Y1077333D1*
X7755083D1*
X7758417Y1079000D1*
X7761750D1*
X7768417Y1075667D1*
X7770083Y1074000D1*
X7771750D1*
X7773417Y1075667D1*
X7776750Y1077333D1*
X7787306Y1079000D1*
X7797861D1*
X7808417Y1077333D1*
X7905083D1*
X7915639Y1079000D1*
X7926194D1*
X7936750Y1077333D1*
X7950083Y1070667D1*
X7951750Y1069000D1*
X7955083Y1067333D1*
X7966750Y1055667D1*
Y1054000D1*
X7971750Y1044000D1*
X7975083Y1034000D1*
X7976750Y1032333D1*
Y1010667D1*
X7975083Y1009000D1*
X7971750Y999000D1*
X7966750Y989000D1*
Y987333D1*
X7955083Y975667D1*
X7951750Y974000D1*
X7950083Y972333D1*
X7936750Y965667D1*
X7926194Y964000D1*
X7915639D1*
X7905083Y965667D1*
X7901750Y967333D1*
X7900083Y969000D1*
X7890083Y975667D1*
X7886750Y977333D1*
X7878417Y985667D1*
Y987333D1*
X7876750Y992333D1*
X7875083Y995667D1*
X7873417Y997333D1*
Y1019000D1*
X7875083Y1020667D1*
Y1022333D1*
X7880083Y1027333D1*
X7883417Y1029000D1*
X7945083Y1030667D1*
X7943417Y1034000D1*
X7941750Y1039000D1*
X7936750Y1044000D1*
X7926750Y1049000D1*
X7915083D1*
X7910083Y1045667D1*
X7900083Y1035667D1*
X7890083Y1030667D1*
X7886750D1*
X7880083Y1034000D1*
X7875083Y1039000D1*
Y1040667D1*
X7873417Y1042333D1*
Y1049000D1*
X7875083Y1050667D1*
Y1052333D1*
X7893417Y1070667D1*
X7900083Y1074000D1*
X7905083Y1077333D1*
X7808417D1*
X7823417Y1069000D1*
X7826750Y1067333D1*
X7838417Y1055667D1*
Y1054000D1*
X7841750Y1045667D1*
X7843417Y1040667D1*
X7845083Y1034000D1*
X7846750Y1032333D1*
Y1010667D1*
X7845083Y1009000D1*
X7843417Y1002333D1*
X7841750Y997333D1*
X7838417Y989000D1*
Y987333D1*
X7826750Y975667D1*
X7823417Y974000D1*
X7821750Y972333D1*
X7808417Y965667D1*
X7797861Y964000D1*
X7787306D1*
X7776750Y965667D1*
X7773417Y967333D1*
X7771750Y969000D1*
X7770083D1*
X7768417Y967333D1*
X7761750Y964000D1*
X7758417D1*
X7751750Y967333D1*
X7746750Y972333D1*
Y974000D1*
X7745083Y975667D1*
Y1067333D1*
X7746750Y1069000D1*
Y1070667D1*
X7751750Y1075667D1*
X7755083Y1077333D1*
X7675083D1*
X7683417Y1072333D1*
X7686750Y1070667D1*
X7695083Y1062333D1*
Y1057333D1*
X7696750Y1052333D1*
X7698417Y1045667D1*
X7700083Y994000D1*
X7708417Y992333D1*
X7711750Y990667D1*
X7716750Y985667D1*
Y984000D1*
X7718417Y982333D1*
Y975667D1*
X7716750Y974000D1*
Y972333D1*
X7711750Y967333D1*
X7708417Y965667D1*
X7700083Y964000D1*
X8008417D1*
X8011750Y977333D1*
X8013417Y985667D1*
X8018417Y1005667D1*
X8020083Y1014000D1*
X8023417Y1027333D1*
X8025083Y1035667D1*
X8030083Y1055667D1*
X8031750Y1064000D1*
Y1069000D1*
X8038417Y1075667D1*
X8045083Y1079000D1*
X8048417D1*
X8055083Y1075667D1*
X8061750Y1069000D1*
Y1064000D1*
X8063417Y1055667D1*
X8068417Y1035667D1*
X8070083Y1027333D1*
X8075083Y1007333D1*
X8076750Y999000D1*
X8078417Y1002333D1*
X8080083Y1010667D1*
X8093417Y1064000D1*
Y1069000D1*
X8100083Y1075667D1*
X8106750Y1079000D1*
X8110083D1*
X8113417Y1077333D1*
X8328417D1*
X8360083Y1079000D1*
X8391750D1*
X8423417Y1077333D1*
X8426750Y1075667D1*
X8431750Y1070667D1*
Y1069000D1*
X8433417Y1067333D1*
Y1060667D1*
X8431750Y1059000D1*
X8430083Y1055667D1*
X8370083Y994000D1*
X8363417Y985667D1*
X8358417Y979000D1*
X8356750Y974000D1*
X8355083Y970667D1*
Y964000D1*
X8356750Y959000D1*
X8361750Y954000D1*
X8366750Y950667D1*
X8385083D1*
X8388417Y952333D1*
X8393417Y955667D1*
X8395083Y959000D1*
X8396750Y964000D1*
X8398417Y972333D1*
Y974000D1*
X8403417Y979000D1*
X8410083Y982333D1*
X8413417D1*
X8420083Y979000D1*
X8425083Y974000D1*
Y972333D1*
X8426750Y970667D1*
Y955667D1*
X8425083Y954000D1*
X8423417Y950667D1*
X8421750Y945667D1*
X8418417Y940667D1*
Y939000D1*
X8411750Y932333D1*
X8408417Y930667D1*
X8403417Y927333D1*
X8401750Y925667D1*
X8395083Y922333D1*
X8382306Y920667D1*
X8369528D1*
X8356750Y922333D1*
X8353417Y924000D1*
X8351750Y925667D1*
X8345083Y929000D1*
X8330083Y944000D1*
Y945667D1*
X8328417Y950667D1*
X8326750Y954000D1*
X8325083Y955667D1*
Y977333D1*
X8326750Y979000D1*
X8328417Y984000D1*
X8330083Y987333D1*
X8335083Y995667D1*
X8348417Y1012333D1*
X8383417Y1049000D1*
X8328417Y1050667D1*
X8325083Y1052333D1*
X8320083Y1057333D1*
Y1059000D1*
X8318417Y1060667D1*
Y1067333D1*
X8320083Y1069000D1*
Y1070667D1*
X8325083Y1075667D1*
X8328417Y1077333D1*
X8113417D1*
G37*
G36*
X8893417Y950667D2*
Y982333D1*
X8855083D1*
X8841750Y977333D1*
X8838417Y970667D1*
Y964000D1*
X8840083Y959000D1*
X8843417Y955667D1*
X8846750Y954000D1*
X8855083Y950667D1*
X8893417D1*
G37*
G36*
X7926750Y994000D2*
X7936750Y999000D1*
X7938417Y1000667D1*
X7905083D1*
X7906750Y999000D1*
X7915083Y994000D1*
X7926750D1*
G37*
G36*
X7798417D2*
X7808417Y999000D1*
X7813417Y1004000D1*
X7815083Y1010667D1*
X7816750Y1015667D1*
Y1027333D1*
X7815083Y1032333D1*
X7813417Y1039000D1*
X7808417Y1044000D1*
X7798417Y1049000D1*
X7786750D1*
X7781750Y1045667D1*
X7775083Y1039000D1*
Y1004000D1*
X7781750Y997333D1*
X7786750Y994000D1*
X7798417D1*
G37*
G36*
X7443417D2*
X7453417Y999000D1*
X7455083Y1000667D1*
X7421750D1*
X7423417Y999000D1*
X7431750Y994000D1*
X7443417D1*
G37*
G36*
X8893417Y1012333D2*
Y1049000D1*
X8855083D1*
X8841750Y1044000D1*
X8838417Y1037333D1*
Y1024000D1*
X8840083Y1019000D1*
X8843417Y1015667D1*
X8853417Y1012333D1*
X8893417D1*
G37*
G36*
X7566750Y1200667D2*
X7571750Y1202333D1*
X7575083Y1204000D1*
X7580083Y1209000D1*
X7583417Y1214000D1*
X7585083Y1217333D1*
X7586750Y1224000D1*
X7588417Y1232333D1*
X7590083Y1239000D1*
Y1257333D1*
X7573417Y1240667D1*
X7555083Y1220667D1*
X7545083Y1209000D1*
X7550083Y1204000D1*
X7558417Y1200667D1*
X7566750D1*
G37*
G36*
X7773417Y1230667D2*
Y1232333D1*
X7778417Y1237333D1*
X7783417Y1244000D1*
X7786750Y1249000D1*
X7791750Y1255667D1*
X7773417D1*
Y1230667D1*
G37*
G36*
X8721750Y1242333D2*
X8725083Y1244000D1*
X8730083Y1247333D1*
X8736750Y1254000D1*
X8740083Y1264000D1*
Y1275667D1*
X8738417Y1282333D1*
X8736750Y1287333D1*
X8730083Y1294000D1*
X8726750Y1295667D1*
X8721750Y1297333D1*
X8710083D1*
X8705083Y1295667D1*
X8695083Y1285667D1*
X8693417Y1282333D1*
X8691750Y1275667D1*
Y1264000D1*
X8695083Y1254000D1*
X8701750Y1247333D1*
X8710083Y1242333D1*
X8721750D1*
G37*
G36*
X8293417D2*
X8296750Y1244000D1*
X8301750Y1247333D1*
X8306750Y1252333D1*
X8308417Y1257333D1*
X8310083Y1260667D1*
X8311750Y1265667D1*
Y1275667D1*
X8310083Y1279000D1*
X8308417Y1284000D1*
X8306750Y1287333D1*
X8298417Y1295667D1*
X8293417Y1297333D1*
X8280083D1*
X8273417Y1294000D1*
X8266750Y1287333D1*
X8265083Y1282333D1*
X8263417Y1279000D1*
X8261750Y1274000D1*
Y1265667D1*
X8263417Y1262333D1*
X8265083Y1257333D1*
X8266750Y1254000D1*
X8275083Y1245667D1*
X8281750Y1242333D1*
X8293417D1*
G37*
G36*
X7535083D2*
X7551750Y1259000D1*
X7570083Y1279000D1*
X7580083Y1290667D1*
X7576750Y1294000D1*
X7573417Y1295667D1*
X7568417Y1297333D1*
X7556750D1*
X7551750Y1295667D1*
X7548417Y1294000D1*
X7545083Y1290667D1*
X7541750Y1285667D1*
X7540083Y1282333D1*
X7538417Y1274000D1*
X7536750Y1267333D1*
X7535083Y1259000D1*
Y1242333D1*
G37*
G36*
X7871184Y2094676D2*
X7867988Y2082778D1*
X7854743Y2061107D1*
X7805418Y2044323D1*
X7723210Y2027538D1*
X7690326Y2010754D1*
X7657443Y1977185D1*
Y1960400D1*
X7673885D1*
X7723210Y1977185D1*
X7772535D1*
X7821859Y1960400D1*
X7920509Y1943616D1*
Y1926831D1*
X7854743Y1859693D1*
X7821859Y1842909D1*
X7788976Y1809340D1*
Y1758986D1*
X7805418Y1775771D1*
X7838301Y1792555D1*
X7936951Y1809340D1*
X7986276Y1826124D1*
X8020150Y1861138D1*
X8028624Y1858448D1*
X8039183Y1839968D1*
X8035601Y1826124D1*
Y1775771D1*
X7986276Y1725417D1*
X7969834Y1691848D1*
Y1658279D1*
X7986276Y1607926D1*
X8002717D1*
Y1641495D1*
X8052042Y1691848D1*
X8084925Y1708633D1*
X8134250Y1742202D1*
X8150692Y1775771D1*
X8154866Y1795573D1*
X8168094Y1810887D1*
X8176609Y1808061D1*
X8183575Y1792555D1*
X8216458Y1708633D1*
Y1624710D1*
X8232900Y1574357D1*
X8249342Y1540788D1*
X8265783Y1524003D1*
X8282225Y1675064D1*
X8331550Y1775771D1*
X8335724Y1795573D1*
X8348952Y1810887D1*
X8357467Y1808061D1*
X8364433Y1792555D1*
X8397316Y1742202D1*
X8413758Y1708633D1*
X8495966Y1624710D1*
X8512408D1*
X8479524Y1658279D1*
Y1859693D1*
X8499572Y1877209D1*
X8518581Y1875039D1*
X8528849Y1859693D1*
X8627499Y1775771D1*
X8676824Y1742202D1*
X8709707D1*
X8660382Y1826124D1*
X8643941Y1876478D1*
X8331550D1*
X8282225Y1859693D1*
X8232900D1*
X8084925Y1910047D1*
X8068484Y1926831D1*
X8035601Y1943616D1*
X8022355Y1965286D1*
X8019159Y1977185D1*
X7986276Y2010754D1*
Y2044323D1*
X8003709Y2062552D1*
X8012222Y2059826D1*
X8019159Y2044323D1*
X8052042Y2027538D1*
X8216458D1*
X8243862Y2044323D1*
X8271263D1*
X8298667Y2027538D1*
X8446641D1*
X8479524Y2044323D1*
X8499572Y2061839D1*
X8518634Y2059685D1*
X8534291Y2040024D1*
X8527317Y2030163D1*
X8512408Y2010754D1*
Y1993969D1*
X8446641Y1926831D1*
X8380875Y1893262D1*
X8331550Y1876478D1*
X8643941D1*
X8627499Y1910047D1*
X8594616Y1943616D1*
Y1977185D1*
X8622019Y1993969D1*
X8649421D1*
X8676824Y1977185D1*
X8709707Y1960400D1*
X8841240D1*
X8709707Y2027538D1*
Y2044323D1*
X8693265Y2061107D1*
X8545291D1*
X8533012Y2050328D1*
X8524892Y2052043D1*
X8519617Y2068680D1*
X8529198Y2079318D1*
X8538601Y2076542D1*
X8545291Y2061107D1*
X8693265D1*
X8676824Y2077892D1*
X8315108D1*
X8302830Y2067113D1*
X8294513Y2068519D1*
X8285156Y2082398D1*
X8282225Y2094676D1*
X8315108Y2128245D1*
X8342511Y2145030D1*
X8369913D1*
X8397316Y2128245D1*
X8331550Y2094676D1*
X8315108Y2077892D1*
X8676824D1*
X8627499Y2111461D1*
X8528849D1*
X8511281Y2100255D1*
X8495966Y2094676D1*
X8463083Y2128245D1*
Y2145030D1*
X8446641Y2161814D1*
X8331550D1*
X8298667Y2145030D1*
X8282225Y2128245D1*
X8265783Y2077892D1*
X8253505Y2067113D1*
X8244985Y2068093D1*
X8232900Y2077892D1*
Y2111461D1*
X8183575Y2161814D1*
X8068484D1*
X8002717Y2094676D1*
X7987402Y2100255D1*
X7969834Y2111461D1*
Y2145030D1*
X7986276Y2161814D1*
X7969834Y2178599D1*
Y2212168D1*
X7986276Y2228952D1*
X7991680Y2249315D1*
X8002717Y2262521D1*
X8035601Y2279306D1*
X8068484Y2329659D1*
X8085917Y2347889D1*
X8094430Y2345163D1*
X8101367Y2329659D1*
X8183575Y2380012D1*
X8201008Y2398242D1*
X8209522Y2395516D1*
X8216458Y2380012D1*
X8236506Y2397529D1*
X8255515Y2395359D1*
X8265783Y2380012D1*
X8285831Y2397529D1*
X8304840Y2395359D1*
X8315108Y2380012D1*
X8413758Y2346443D1*
X8446641Y2329659D1*
X8512408Y2262521D1*
Y2245737D1*
X8528849Y2212168D1*
X8545291Y2195383D1*
Y2145030D1*
X8528849Y2128245D1*
Y2111461D1*
X8627499D1*
X8824798Y2161814D1*
X8857682Y2178599D1*
X8874123Y2195383D1*
X8808357D1*
X8796078Y2184604D1*
X8787558Y2185584D1*
X8775474Y2195383D1*
X8709707Y2228952D1*
X8660382Y2245737D1*
X8638461Y2228952D1*
X8616537D1*
X8594616Y2245737D1*
X8643941Y2296090D1*
X8709707Y2329659D1*
X8759032Y2363228D1*
X8775474Y2380012D1*
X8791915Y2413581D1*
X8775474D1*
X8578174Y2380012D1*
X8560575Y2369990D1*
X8546590Y2371875D1*
X8533203Y2387168D1*
X8534390Y2400906D1*
X8545291Y2413581D1*
X8594616Y2497504D1*
Y2581426D1*
X8545291Y2531073D1*
X8512408Y2514288D1*
X8463083Y2497504D1*
X8430200Y2463935D1*
X8417921Y2453156D1*
X8409401Y2454136D1*
X8397505Y2464440D1*
X8380875Y2480719D1*
Y2531073D1*
X8397316Y2547857D1*
Y2665349D1*
X8380875Y2682133D1*
X8364433Y2631780D1*
Y2614995D1*
X8315108Y2564642D1*
X8282225Y2547857D1*
X8265783Y2514288D1*
Y2480719D1*
X8253505Y2469940D1*
X8244985Y2470921D1*
X8232900Y2480719D1*
X8200017Y2547857D1*
X8183575Y2614995D1*
X8167134Y2665349D1*
X8150692Y2682133D1*
X8117809D1*
Y2514288D1*
X8101367Y2497504D1*
Y2463935D1*
X8079445Y2447150D1*
X8057522D1*
X8035601Y2463935D1*
X8019159Y2480719D1*
X8003086Y2498325D1*
X7989526Y2519289D1*
X7986276Y2531073D1*
X7936951Y2581426D1*
X7904068Y2598211D1*
X7887626D1*
X7920509Y2547857D1*
X7936951Y2447150D1*
X7953392Y2413581D1*
X7969834Y2396797D1*
Y2363228D1*
X7952235Y2353206D1*
X7937959Y2354284D1*
X7920509Y2363228D1*
X7908231Y2352449D1*
X7899711Y2353429D1*
X7887626Y2363228D1*
X7854743Y2396797D1*
X7788976Y2430366D1*
X7723210D1*
X7756093Y2396797D1*
X7788976Y2380012D1*
X7805418Y2363228D1*
Y2329659D1*
X7838301Y2279306D1*
X7871184Y2262521D1*
X7890682Y2243652D1*
X7887626Y2228952D1*
X7838301Y2212168D1*
X7788976D1*
X7739651Y2228952D1*
X7673885D1*
X7641002Y2212168D1*
X7624560Y2195383D1*
X7723210Y2178599D1*
X7756093Y2161814D1*
X7788976Y2128245D1*
X7821859Y2111461D1*
X7871184Y2094676D1*
X8035601D1*
X8041005Y2115039D1*
X8052042Y2128245D1*
X8084925Y2145030D1*
X8117809D1*
X8150692Y2128245D1*
X8084925Y2094676D1*
X8067326Y2084654D1*
X8053050Y2085732D1*
X8035601Y2094676D1*
X7871184D1*
G37*
G36*
X8403130Y1971250D2*
X8419572Y1988034D1*
X8407944Y1999904D1*
X8391503Y1983120D1*
X8403130Y1971250D1*
G37*
G36*
X8150692Y1977185D2*
D1*
G37*
G36*
X8117809Y1993969D2*
D1*
G37*
G36*
X8035601Y2178599D2*
X8117809Y2262521D1*
X8150692Y2279306D1*
X8200017Y2296090D1*
X8232900Y2312874D1*
X8265783D1*
X8331550Y2279306D1*
X8413758Y2228952D1*
X8397316Y2262521D1*
X8298667Y2312874D1*
X8183575D1*
X8150692Y2296090D1*
X8068484Y2228952D1*
Y2212168D1*
X8035601Y2178599D1*
G37*
G36*
X8446641Y2195383D2*
D1*
G37*
M02*
