G04 DipTrace 4.2.0.1*
G04 BottomSilk.gbr*
%MOMM*%
G04 #@! TF.FileFunction,Legend,Bot*
G04 #@! TF.Part,Single*
%ADD10C,0.12*%
%ADD54C,0.19608*%
%ADD55C,0.33333*%
%FSLAX35Y35*%
G04*
G71*
G90*
G75*
G01*
G04 BotSilk*
%LPD*%
X6667500Y1936750D2*
D10*
X6397623D1*
Y1174750D2*
X6667500D1*
X6397623Y1936750D2*
Y1174750D1*
X6667500Y1936750D2*
G02X6667500Y1174750I1063625J-381000D01*
G01*
X6489000Y5962623D2*
X6465000D1*
X6489000Y5816623D2*
X6465000D1*
X2406623Y702373D2*
Y726373D1*
X2260623Y702373D2*
Y726373D1*
X742247Y6978623D2*
X718247D1*
X742247Y6832623D2*
X718247D1*
X6340497Y805747D2*
Y781747D1*
X6486497Y805747D2*
Y781747D1*
X2609873Y726373D2*
Y702373D1*
X2755873Y726373D2*
Y702373D1*
X8219373Y3136873D2*
X8195373D1*
X8219373Y2990873D2*
X8195373D1*
X8952497Y6002873D2*
Y6087873D1*
X8192497D1*
Y6002873D1*
X8952497Y5712873D2*
Y5627873D1*
X8192497D1*
Y5712873D1*
X9031497Y5978873D2*
Y5736873D1*
X3064873Y728123D2*
Y643123D1*
X3824873D1*
Y728123D1*
X3064873Y1018123D2*
Y1103123D1*
X3824873D1*
Y1018123D1*
X2985873Y752123D2*
Y994123D1*
X1734500Y873747D2*
X1948500D1*
X1734500Y713747D2*
X1948500D1*
X2086500Y874747D2*
Y712747D1*
X3962247Y1801000D2*
Y1755000D1*
X4102247Y1801000D2*
Y1755000D1*
X6499997Y5626247D2*
X6453997D1*
X6499997Y5486247D2*
X6453997D1*
X6286497Y6334120D2*
Y6984997D1*
X6667497Y6334120D2*
Y6984997D1*
X6222997Y7238997D2*
Y6984997D1*
X6730997D1*
Y7238997D1*
X6222997D1*
X3848247Y1755000D2*
Y1801000D1*
X3708247Y1755000D2*
Y1801000D1*
X3594250Y1755000D2*
Y1801000D1*
X3454250Y1755000D2*
Y1801000D1*
X2578247Y1755000D2*
Y1801000D1*
X2438247Y1755000D2*
Y1801000D1*
X6168250Y2136623D2*
X6214250D1*
X6168250Y2276623D2*
X6214250D1*
X6214247Y2006750D2*
X6168247D1*
X6214247Y1866750D2*
X6168247D1*
X2184247Y1801000D2*
Y1755000D1*
X2324247Y1801000D2*
Y1755000D1*
X8016873Y6732623D2*
X8206873D1*
Y6672623D1*
X8275780D1*
X8016873Y6732623D2*
X7826873D1*
Y6672623D1*
X7757967D1*
X8282933Y7072623D2*
X7741873D1*
X7821873Y7252623D2*
Y7072623D1*
X8211873D1*
Y7252623D1*
X7821873D1*
X8401873Y7092623D2*
X8336407D1*
G36*
X7583873Y6847623D2*
X7584087Y6850886D1*
X7584725Y6854094D1*
X7585776Y6857190D1*
X7587223Y6860123D1*
X7589039Y6862842D1*
X7591196Y6865301D1*
X7593654Y6867457D1*
X7596373Y6869274D1*
X7599306Y6870720D1*
X7602403Y6871771D1*
X7605610Y6872409D1*
X7608873Y6872623D1*
X7612136Y6872409D1*
X7615344Y6871771D1*
X7618440Y6870720D1*
X7621373Y6869274D1*
X7624092Y6867457D1*
X7626551Y6865301D1*
X7628707Y6862842D1*
X7630524Y6860123D1*
X7631970Y6857190D1*
X7633021Y6854094D1*
X7633659Y6850886D1*
X7633873Y6847623D1*
D1*
X7633659Y6844360D1*
X7633021Y6841153D1*
X7631970Y6838056D1*
X7630524Y6835123D1*
X7628707Y6832404D1*
X7626551Y6829946D1*
X7624092Y6827789D1*
X7621373Y6825973D1*
X7618440Y6824526D1*
X7615344Y6823475D1*
X7612136Y6822837D1*
X7608873Y6822623D1*
X7605610Y6822837D1*
X7602403Y6823475D1*
X7599306Y6824526D1*
X7596373Y6825973D1*
X7593654Y6827789D1*
X7591196Y6829946D1*
X7589039Y6832404D1*
X7587223Y6835123D1*
X7585776Y6838056D1*
X7584725Y6841153D1*
X7584087Y6844360D1*
X7583873Y6847623D1*
D1*
G37*
X8276873Y6673933D2*
D10*
Y6732623D1*
X8316873D1*
Y6777030D1*
Y6918217D2*
Y7041623D1*
X8351873D1*
Y6714663D1*
Y6480583D2*
Y6447623D1*
X8381873D1*
Y6480583D1*
Y6714663D2*
Y6857573D1*
X7756873Y6673933D2*
Y6732623D1*
X7716873D1*
Y6744627D1*
Y6950620D2*
Y7041623D1*
X7681873D1*
Y6714663D1*
Y6480583D2*
Y6447623D1*
X7651873D1*
Y6480583D1*
Y6714663D2*
Y6788463D1*
X7711017Y7092623D2*
X7631873D1*
Y7006877D1*
Y6941370D2*
Y6892123D1*
Y6803123D2*
Y6710310D1*
Y6484937D2*
Y6427623D1*
X8401873D2*
Y6484937D1*
Y6710310D2*
Y6799143D1*
Y6865103D2*
Y6953127D1*
Y7019120D2*
Y7092623D1*
X8381873Y6857573D2*
Y6959880D1*
Y7072623D1*
X8282933D1*
X8016873D1*
X7651873Y6788463D2*
X7650873Y6997767D1*
X7651873Y6996767D2*
Y7072623D1*
X8016873D1*
X1523997Y6732623D2*
X1713997D1*
Y6672623D1*
X1782903D1*
X1523997Y6732623D2*
X1333997D1*
Y6672623D1*
X1265090D1*
X1790057Y7072623D2*
X1248997D1*
X1328997Y7252623D2*
Y7072623D1*
X1718997D1*
Y7252623D1*
X1328997D1*
X1908997Y7092623D2*
X1843530D1*
G36*
X1090997Y6847623D2*
X1091211Y6850886D1*
X1091849Y6854094D1*
X1092900Y6857190D1*
X1094346Y6860123D1*
X1096163Y6862842D1*
X1098319Y6865301D1*
X1100778Y6867457D1*
X1103497Y6869274D1*
X1106430Y6870720D1*
X1109526Y6871771D1*
X1112734Y6872409D1*
X1115997Y6872623D1*
X1119260Y6872409D1*
X1122467Y6871771D1*
X1125564Y6870720D1*
X1128497Y6869274D1*
X1131216Y6867457D1*
X1133674Y6865301D1*
X1135831Y6862842D1*
X1137647Y6860123D1*
X1139094Y6857190D1*
X1140145Y6854094D1*
X1140783Y6850886D1*
X1140997Y6847623D1*
D1*
X1140783Y6844360D1*
X1140145Y6841153D1*
X1139094Y6838056D1*
X1137647Y6835123D1*
X1135831Y6832404D1*
X1133674Y6829946D1*
X1131216Y6827789D1*
X1128497Y6825973D1*
X1125564Y6824526D1*
X1122467Y6823475D1*
X1119260Y6822837D1*
X1115997Y6822623D1*
X1112734Y6822837D1*
X1109526Y6823475D1*
X1106430Y6824526D1*
X1103497Y6825973D1*
X1100778Y6827789D1*
X1098319Y6829946D1*
X1096163Y6832404D1*
X1094346Y6835123D1*
X1092900Y6838056D1*
X1091849Y6841153D1*
X1091211Y6844360D1*
X1090997Y6847623D1*
D1*
G37*
X1783997Y6673933D2*
D10*
Y6732623D1*
X1823997D1*
Y6777030D1*
Y6918217D2*
Y7041623D1*
X1858997D1*
Y6714663D1*
Y6480583D2*
Y6447623D1*
X1888997D1*
Y6480583D1*
Y6714663D2*
Y6857573D1*
X1263997Y6673933D2*
Y6732623D1*
X1223997D1*
Y6744627D1*
Y6950620D2*
Y7041623D1*
X1188997D1*
Y6714663D1*
Y6480583D2*
Y6447623D1*
X1158997D1*
Y6480583D1*
Y6714663D2*
Y6788463D1*
X1218140Y7092623D2*
X1138997D1*
Y7006877D1*
Y6941370D2*
Y6892123D1*
Y6803123D2*
Y6710310D1*
Y6484937D2*
Y6427623D1*
X1908997D2*
Y6484937D1*
Y6710310D2*
Y6799143D1*
Y6865103D2*
Y6953127D1*
Y7019120D2*
Y7092623D1*
X1888997Y6857573D2*
Y6959880D1*
Y7072623D1*
X1790057D1*
X1523997D1*
X1158997Y6788463D2*
X1157997Y6997767D1*
X1158997Y6996767D2*
Y7072623D1*
X1523997D1*
X4889500Y6732623D2*
X5079500D1*
Y6672623D1*
X5148407D1*
X4889500Y6732623D2*
X4699500D1*
Y6672623D1*
X4630593D1*
X5155560Y7072623D2*
X4614500D1*
X4694500Y7252623D2*
Y7072623D1*
X5084500D1*
Y7252623D1*
X4694500D1*
X5274500Y7092623D2*
X5209033D1*
G36*
X4456500Y6847623D2*
X4456714Y6850886D1*
X4457352Y6854094D1*
X4458403Y6857190D1*
X4459849Y6860123D1*
X4461666Y6862842D1*
X4463822Y6865301D1*
X4466281Y6867457D1*
X4469000Y6869274D1*
X4471933Y6870720D1*
X4475030Y6871771D1*
X4478237Y6872409D1*
X4481500Y6872623D1*
X4484763Y6872409D1*
X4487970Y6871771D1*
X4491067Y6870720D1*
X4494000Y6869274D1*
X4496719Y6867457D1*
X4499178Y6865301D1*
X4501334Y6862842D1*
X4503151Y6860123D1*
X4504597Y6857190D1*
X4505648Y6854094D1*
X4506286Y6850886D1*
X4506500Y6847623D1*
D1*
X4506286Y6844360D1*
X4505648Y6841153D1*
X4504597Y6838056D1*
X4503151Y6835123D1*
X4501334Y6832404D1*
X4499178Y6829946D1*
X4496719Y6827789D1*
X4494000Y6825973D1*
X4491067Y6824526D1*
X4487970Y6823475D1*
X4484763Y6822837D1*
X4481500Y6822623D1*
X4478237Y6822837D1*
X4475030Y6823475D1*
X4471933Y6824526D1*
X4469000Y6825973D1*
X4466281Y6827789D1*
X4463822Y6829946D1*
X4461666Y6832404D1*
X4459849Y6835123D1*
X4458403Y6838056D1*
X4457352Y6841153D1*
X4456714Y6844360D1*
X4456500Y6847623D1*
D1*
G37*
X5149500Y6673933D2*
D10*
Y6732623D1*
X5189500D1*
Y6777030D1*
Y6918217D2*
Y7041623D1*
X5224500D1*
Y6714663D1*
Y6480583D2*
Y6447623D1*
X5254500D1*
Y6480583D1*
Y6714663D2*
Y6857573D1*
X4629500Y6673933D2*
Y6732623D1*
X4589500D1*
Y6744627D1*
Y6950620D2*
Y7041623D1*
X4554500D1*
Y6714663D1*
Y6480583D2*
Y6447623D1*
X4524500D1*
Y6480583D1*
Y6714663D2*
Y6788463D1*
X4583643Y7092623D2*
X4504500D1*
Y7006877D1*
Y6941370D2*
Y6892123D1*
Y6803123D2*
Y6710310D1*
Y6484937D2*
Y6427623D1*
X5274500D2*
Y6484937D1*
Y6710310D2*
Y6799143D1*
Y6865103D2*
Y6953127D1*
Y7019120D2*
Y7092623D1*
X5254500Y6857573D2*
Y6959880D1*
Y7072623D1*
X5155560D1*
X4889500D1*
X4524500Y6788463D2*
X4523500Y6997767D1*
X4524500Y6996767D2*
Y7072623D1*
X4889500D1*
X31747Y2238373D2*
Y4683123D1*
X63497D2*
G02X63497Y4683123I158750J0D01*
G01*
Y2270123D2*
G02X63497Y2270123I158750J0D01*
G01*
X4762497Y2285998D2*
G02X4762497Y2285998I142875J0D01*
G01*
Y4667248D2*
G02X4762497Y4667248I142875J0D01*
G01*
X31747Y4714873D2*
G02X190497Y4873623I158750J0D01*
G01*
X4921247D2*
G02X5111747Y4683123I-2J-190502D01*
G01*
Y2270123D2*
G02X4921247Y2079623I-190502J2D01*
G01*
X190497D2*
G02X31747Y2238373I0J158750D01*
G01*
Y4714873D2*
Y4683123D1*
X190497Y4873623D2*
X4921247D1*
X5111747Y4683123D2*
Y2270123D1*
X4921247Y2079623D2*
X190497D1*
X6492873Y2317750D2*
Y5111750D1*
X5222873D1*
Y2317750D1*
X6492873D1*
X3524250Y5206997D2*
X4413250D1*
X3270250D2*
G02X3524250Y5206997I127000J0D01*
G01*
X4413250D2*
Y7238997D1*
X2381250D1*
Y5206997D1*
X3270250D1*
X6003623Y1634123D2*
X6033623D1*
Y874123D1*
X6003623D1*
X5013623Y1634123D2*
X4983623D1*
Y874123D1*
X5013623D1*
G36*
X5997623Y711123D2*
X5997837Y714386D1*
X5998475Y717594D1*
X5999526Y720690D1*
X6000973Y723623D1*
X6002789Y726342D1*
X6004946Y728801D1*
X6007404Y730957D1*
X6010123Y732774D1*
X6013056Y734220D1*
X6016153Y735271D1*
X6019360Y735909D1*
X6022623Y736123D1*
X6025886Y735909D1*
X6029094Y735271D1*
X6032190Y734220D1*
X6035123Y732774D1*
X6037842Y730957D1*
X6040301Y728801D1*
X6042457Y726342D1*
X6044274Y723623D1*
X6045720Y720690D1*
X6046771Y717594D1*
X6047409Y714386D1*
X6047623Y711123D1*
D1*
X6047409Y707860D1*
X6046771Y704653D1*
X6045720Y701556D1*
X6044274Y698623D1*
X6042457Y695904D1*
X6040301Y693446D1*
X6037842Y691289D1*
X6035123Y689473D1*
X6032190Y688026D1*
X6029094Y686975D1*
X6025886Y686337D1*
X6022623Y686123D1*
X6019360Y686337D1*
X6016153Y686975D1*
X6013056Y688026D1*
X6010123Y689473D1*
X6007404Y691289D1*
X6004946Y693446D1*
X6002789Y695904D1*
X6000973Y698623D1*
X5999526Y701556D1*
X5998475Y704653D1*
X5997837Y707860D1*
X5997623Y711123D1*
D1*
G37*
X5349873Y7175500D2*
D10*
X7207247D1*
X5349873D2*
Y7016750D1*
X7207247Y7175500D2*
Y7016750D1*
X5587997D1*
X5349873D2*
X5365747D1*
X6873873Y6778627D2*
X6826250D1*
X6873873Y7191377D2*
X5826127D1*
Y6778627D1*
X6873873Y7191377D2*
Y6778627D1*
X5826127D2*
X5857873D1*
X1601500Y1089373D2*
X2101500D1*
Y1609373D1*
X1601500D1*
Y1089373D1*
X1861500Y1609373D2*
X1601500Y1349373D1*
X852497Y1912373D2*
X22497D1*
Y532373D1*
X852497D1*
X1272497D2*
X1442497D1*
Y1912373D1*
X1272497D1*
X793752Y6572247D2*
Y6699247D1*
X31752D2*
Y4921247D1*
X793752D2*
Y5048247D1*
Y6699247D2*
X31752D1*
X793752Y4921247D2*
X31752D1*
X9175747Y5461000D2*
X9493247D1*
Y1809747D1*
X9175747D1*
Y5461000D1*
X8064500Y4445000D2*
X8413747D1*
Y3333747D1*
X8064500D1*
Y4445000D1*
X7942048Y3578140D2*
D54*
X7814439D1*
X7942048Y3493067D1*
X7814439D1*
X7942048Y3696252D2*
Y3617356D1*
X7814439D1*
Y3696252D1*
X7881262Y3617356D2*
Y3665929D1*
X7942048Y3735468D2*
X7814439Y3820541D1*
X7942048D2*
X7814439Y3735468D1*
X7942048Y3902293D2*
X7814439D1*
X7942048Y3859757D2*
Y3944830D1*
Y3984045D2*
X7814439D1*
X7942048Y4059761D2*
X7936012Y4047548D1*
X7923798Y4035475D1*
X7911725Y4029298D1*
X7893475Y4023261D1*
X7863012D1*
X7844902Y4029298D1*
X7832689Y4035475D1*
X7820616Y4047548D1*
X7814439Y4059761D1*
Y4084048D1*
X7820616Y4096121D1*
X7832689Y4108334D1*
X7844902Y4114371D1*
X7863012Y4120407D1*
X7893475D1*
X7911725Y4114371D1*
X7923798Y4108334D1*
X7936012Y4096121D1*
X7942048Y4084048D1*
Y4059761D1*
Y4244696D2*
X7814439D1*
X7942048Y4159623D1*
X7814439D1*
X9053298Y3571483D2*
X8925689D1*
X9053298Y3610699D2*
X8925689D1*
Y3683558D1*
X9053298Y3722774D2*
X8925689D1*
X9010762Y3841026D2*
X8992512Y3834849D1*
X8980298Y3822776D1*
X8974262Y3804526D1*
Y3798490D1*
X8980298Y3780240D1*
X8992512Y3768167D1*
X9010762Y3761990D1*
X9016798D1*
X9035048Y3768167D1*
X9047121Y3780240D1*
X9053158Y3798490D1*
Y3804526D1*
X9047121Y3822776D1*
X9035048Y3834849D1*
X9010762Y3841026D1*
X8980298D1*
X8949975Y3834849D1*
X8931725Y3822776D1*
X8925689Y3804526D1*
Y3792453D1*
X8931725Y3774203D1*
X8943939Y3768167D1*
X9053158Y3892455D2*
Y3959138D1*
X9004585Y3922778D1*
Y3941028D1*
X8998548Y3953102D1*
X8992512Y3959138D1*
X8974262Y3965315D1*
X8962189D1*
X8943939Y3959138D1*
X8931725Y3947065D1*
X8925689Y3928815D1*
Y3910565D1*
X8931725Y3892455D1*
X8937902Y3886419D1*
X8949975Y3880242D1*
X8925689Y4065317D2*
X9053158D1*
X8968225Y4004531D1*
Y4095640D1*
X9028871Y4134856D2*
X9035048Y4147069D1*
X9053158Y4165319D1*
X8925689D1*
X2104769Y5637798D2*
X2116843Y5650012D1*
X2135093Y5656048D1*
X2159379D1*
X2177629Y5650012D1*
X2189843Y5637798D1*
Y5625725D1*
X2183666Y5613512D1*
X2177629Y5607475D1*
X2165556Y5601439D1*
X2129056Y5589225D1*
X2116843Y5583189D1*
X2110806Y5577012D1*
X2104769Y5564939D1*
Y5546689D1*
X2116843Y5534616D1*
X2135093Y5528439D1*
X2159379D1*
X2177629Y5534616D1*
X2189843Y5546689D1*
X2065554Y5589225D2*
X2010804D1*
X1992694Y5595262D1*
X1986517Y5601439D1*
X1980481Y5613512D1*
Y5631762D1*
X1986517Y5643835D1*
X1992694Y5650012D1*
X2010804Y5656048D1*
X2065554D1*
Y5528439D1*
X1862369Y5656048D2*
X1941265D1*
Y5528439D1*
X1862369D1*
X1941265Y5595262D2*
X1892692D1*
X1725867Y5528439D2*
X1774580Y5656048D1*
X1823153Y5528439D1*
X1804903Y5570975D2*
X1744117D1*
X1686651Y5656048D2*
Y5528439D1*
X1601578Y5656048D2*
X1686651Y5570975D1*
X1656328Y5601439D2*
X1601578Y5528439D1*
X1483466Y5656048D2*
X1562362D1*
Y5528439D1*
X1483466D1*
X1562362Y5595262D2*
X1513789D1*
X1444250D2*
X1389641D1*
X1371391Y5601439D1*
X1365214Y5607475D1*
X1359177Y5619548D1*
Y5631762D1*
X1365214Y5643835D1*
X1371391Y5650012D1*
X1389641Y5656048D1*
X1444250D1*
Y5528439D1*
X1401714Y5595262D2*
X1359177Y5528439D1*
X8176093Y324408D2*
D55*
X8139536Y171276D1*
X8103149Y324408D1*
X8066761Y171276D1*
X8030205Y324408D1*
X7963538Y229564D2*
X7876107D1*
Y244220D1*
X7883351Y258876D1*
X7890594Y266120D1*
X7905251Y273364D1*
X7927151D1*
X7941638Y266120D1*
X7956294Y251464D1*
X7963538Y229564D1*
Y215076D1*
X7956294Y193176D1*
X7941638Y178689D1*
X7927151Y171276D1*
X7905251D1*
X7890594Y178689D1*
X7876107Y193176D1*
X7722008Y273364D2*
Y171276D1*
Y251464D2*
X7736496Y266120D1*
X7751152Y273364D1*
X7772884D1*
X7787540Y266120D1*
X7802028Y251464D1*
X7809440Y229564D1*
Y215076D1*
X7802028Y193176D1*
X7787540Y178689D1*
X7772884Y171276D1*
X7751152D1*
X7736496Y178689D1*
X7722008Y193176D1*
X7633442Y324408D2*
Y200420D1*
X7626198Y178689D1*
X7611542Y171276D1*
X7597054D1*
X7655342Y273364D2*
X7604298D1*
X7530387Y324408D2*
Y171276D1*
Y244220D2*
X7508487Y266120D1*
X7493831Y273364D1*
X7471931D1*
X7457444Y266120D1*
X7450200Y244220D1*
Y171276D1*
X7383533Y229564D2*
X7296102D1*
Y244220D1*
X7303345Y258876D1*
X7310589Y266120D1*
X7325245Y273364D1*
X7347145D1*
X7361633Y266120D1*
X7376289Y251464D1*
X7383533Y229564D1*
Y215076D1*
X7376289Y193176D1*
X7361633Y178689D1*
X7347145Y171276D1*
X7325245D1*
X7310589Y178689D1*
X7296102Y193176D1*
X7229435Y273364D2*
Y171276D1*
Y229564D2*
X7222023Y251464D1*
X7207535Y266120D1*
X7192879Y273364D1*
X7170979D1*
X6936568D2*
Y171276D1*
Y244220D2*
X6914668Y266120D1*
X6900012Y273364D1*
X6878281D1*
X6863625Y266120D1*
X6856381Y244220D1*
Y171276D1*
Y244220D2*
X6834481Y266120D1*
X6819825Y273364D1*
X6798093D1*
X6783437Y266120D1*
X6776025Y244220D1*
Y171276D1*
X6672970Y273364D2*
X6687458Y266120D1*
X6702114Y251464D1*
X6709358Y229564D1*
Y215076D1*
X6702114Y193176D1*
X6687458Y178689D1*
X6672970Y171276D1*
X6651070D1*
X6636414Y178689D1*
X6621926Y193176D1*
X6614514Y215076D1*
Y229564D1*
X6621926Y251464D1*
X6636414Y266120D1*
X6651070Y273364D1*
X6672970D1*
X6547847D2*
Y171276D1*
Y244220D2*
X6525947Y266120D1*
X6511291Y273364D1*
X6489560D1*
X6474904Y266120D1*
X6467660Y244220D1*
Y171276D1*
X6400993Y324408D2*
X6393749Y317164D1*
X6386337Y324408D1*
X6393749Y331820D1*
X6400993Y324408D1*
X6393749Y273364D2*
Y171276D1*
X6297770Y324408D2*
Y200420D1*
X6290526Y178689D1*
X6275870Y171276D1*
X6261383D1*
X6319670Y273364D2*
X6268626D1*
X6158328D2*
X6172816Y266120D1*
X6187472Y251464D1*
X6194716Y229564D1*
Y215076D1*
X6187472Y193176D1*
X6172816Y178689D1*
X6158328Y171276D1*
X6136428D1*
X6121772Y178689D1*
X6107284Y193176D1*
X6099872Y215076D1*
Y229564D1*
X6107284Y251464D1*
X6121772Y266120D1*
X6136428Y273364D1*
X6158328D1*
X6033205D2*
Y171276D1*
Y229564D2*
X6025793Y251464D1*
X6011305Y266120D1*
X5996649Y273364D1*
X5974749D1*
X5740339Y324408D2*
Y171276D1*
X5674639D1*
X5652739Y178689D1*
X5645495Y185933D1*
X5638251Y200420D1*
Y222320D1*
X5645495Y236976D1*
X5652739Y244220D1*
X5674639Y251464D1*
X5652739Y258876D1*
X5645495Y266120D1*
X5638251Y280608D1*
Y295264D1*
X5645495Y309752D1*
X5652739Y317164D1*
X5674639Y324408D1*
X5740339D1*
Y251464D2*
X5674639D1*
X5571585Y324408D2*
Y171276D1*
X5388343D2*
Y324408D1*
X5446630Y171276D1*
X5504918Y324408D1*
Y171276D1*
X5307020Y324239D2*
X5227001D1*
X5270632Y265952D1*
X5248732D1*
X5234244Y258708D1*
X5227001Y251464D1*
X5219588Y229564D1*
Y215076D1*
X5227001Y193176D1*
X5241488Y178520D1*
X5263388Y171276D1*
X5285288D1*
X5307020Y178520D1*
X5314264Y185933D1*
X5321676Y200420D1*
X5145509Y287852D2*
Y295096D1*
X5138265Y309752D1*
X5131022Y316996D1*
X5116365Y324239D1*
X5087222D1*
X5072734Y316996D1*
X5065490Y309752D1*
X5058078Y295096D1*
Y280608D1*
X5065490Y265952D1*
X5079978Y244220D1*
X5152922Y171276D1*
X5050834D1*
X4816424Y273364D2*
X4772624Y171276D1*
X4728992Y273364D1*
X4589382Y171276D2*
Y324239D1*
X4662325Y222320D1*
X4552994D1*
X4479083Y185933D2*
X4486327Y178520D1*
X4479083Y171276D1*
X4471671Y178520D1*
X4479083Y185933D1*
X4361204Y324239D2*
X4383104Y316996D1*
X4397761Y295096D1*
X4405004Y258708D1*
Y236808D1*
X4397761Y200420D1*
X4383104Y178520D1*
X4361204Y171276D1*
X4346717D1*
X4324817Y178520D1*
X4310329Y200420D1*
X4302917Y236808D1*
Y258708D1*
X4310329Y295096D1*
X4324817Y316996D1*
X4346717Y324239D1*
X4361204D1*
X4310329Y295096D2*
X4397761Y200420D1*
X7994257Y2871542D2*
D54*
Y2743932D1*
X7939507D1*
X7921257Y2750109D1*
X7915221Y2756145D1*
X7909184Y2768218D1*
Y2786468D1*
X7915221Y2798682D1*
X7921257Y2804718D1*
X7939507Y2810755D1*
X7921257Y2816932D1*
X7915221Y2822968D1*
X7909184Y2835042D1*
Y2847255D1*
X7915221Y2859328D1*
X7921257Y2865505D1*
X7939507Y2871542D1*
X7994257D1*
Y2810755D2*
X7939507D1*
X7772682Y2743932D2*
X7821395Y2871542D1*
X7869968Y2743932D1*
X7851718Y2786468D2*
X7790932D1*
X7690930Y2871542D2*
Y2743932D1*
X7733466Y2871542D2*
X7648393D1*
X7473518Y2871401D2*
X7406835D1*
X7443194Y2822828D1*
X7424944D1*
X7412871Y2816792D1*
X7406835Y2810755D1*
X7400658Y2792505D1*
Y2780432D1*
X7406835Y2762182D1*
X7418908Y2749968D1*
X7437158Y2743932D1*
X7455408D1*
X7473518Y2749968D1*
X7479554Y2756145D1*
X7485731Y2768218D1*
X7361442Y2871542D2*
X7312869Y2743932D1*
X7264296Y2871542D1*
X7052613Y5913313D2*
X7070863Y5907276D1*
X7083076Y5889026D1*
X7089113Y5858703D1*
Y5840453D1*
X7083076Y5810130D1*
X7070863Y5791880D1*
X7052613Y5785844D1*
X7040540D1*
X7022290Y5791880D1*
X7010217Y5810130D1*
X7004040Y5840453D1*
Y5858703D1*
X7010217Y5889026D1*
X7022290Y5907276D1*
X7040540Y5913313D1*
X7052613D1*
X7010217Y5889026D2*
X7083076Y5810130D1*
X6958788Y5798057D2*
X6964824Y5791880D1*
X6958788Y5785844D1*
X6952611Y5791880D1*
X6958788Y5798057D1*
X6913395Y5889026D2*
X6901181Y5895203D1*
X6882931Y5913313D1*
Y5785844D1*
X6843716Y5870917D2*
Y5810130D1*
X6837679Y5792021D1*
X6825466Y5785844D1*
X6807216D1*
X6795143Y5792021D1*
X6776893Y5810130D1*
Y5870917D2*
Y5785844D1*
X6658640Y5913453D2*
X6737677D1*
Y5785844D1*
Y5852667D2*
X6689104D1*
X2772220Y122887D2*
X2766183Y104637D1*
X2747933Y92424D1*
X2717610Y86387D1*
X2699360D1*
X2669037Y92424D1*
X2650787Y104637D1*
X2644750Y122887D1*
Y134960D1*
X2650787Y153210D1*
X2669037Y165283D1*
X2699360Y171460D1*
X2717610D1*
X2747933Y165283D1*
X2766183Y153210D1*
X2772220Y134960D1*
Y122887D1*
X2747933Y165283D2*
X2669037Y92424D1*
X2656964Y216712D2*
X2650787Y210676D1*
X2644750Y216712D1*
X2650787Y222889D1*
X2656964Y216712D1*
X2747933Y262105D2*
X2754110Y274319D1*
X2772220Y292569D1*
X2644750D1*
X2729823Y331784D2*
X2669037D1*
X2650927Y337821D1*
X2644750Y350034D1*
Y368284D1*
X2650927Y380357D1*
X2669037Y398607D1*
X2729823D2*
X2644750D1*
X2772360Y516860D2*
Y437823D1*
X2644750D1*
X2711573D2*
Y486396D1*
X908983Y7185470D2*
X927233Y7179433D1*
X939446Y7161183D1*
X945483Y7130860D1*
Y7112610D1*
X939446Y7082287D1*
X927233Y7064037D1*
X908983Y7058000D1*
X896910D1*
X878660Y7064037D1*
X866587Y7082287D1*
X860410Y7112610D1*
Y7130860D1*
X866587Y7161183D1*
X878660Y7179433D1*
X896910Y7185470D1*
X908983D1*
X866587Y7161183D2*
X939446Y7082287D1*
X815158Y7070214D2*
X821194Y7064037D1*
X815158Y7058000D1*
X808981Y7064037D1*
X815158Y7070214D1*
X769765Y7161183D2*
X757551Y7167360D1*
X739301Y7185470D1*
Y7058000D1*
X700086Y7143073D2*
Y7082287D1*
X694049Y7064177D1*
X681836Y7058000D1*
X663586D1*
X651513Y7064177D1*
X633263Y7082287D1*
Y7143073D2*
Y7058000D1*
X515010Y7185610D2*
X594047D1*
Y7058000D1*
Y7124823D2*
X545474D1*
X6276280Y615010D2*
X6270243Y596760D1*
X6251993Y584547D1*
X6221670Y578510D1*
X6203420D1*
X6173097Y584547D1*
X6154847Y596760D1*
X6148810Y615010D1*
Y627084D1*
X6154847Y645334D1*
X6173097Y657407D1*
X6203420Y663584D1*
X6221670D1*
X6251993Y657407D1*
X6270243Y645334D1*
X6276280Y627084D1*
Y615010D1*
X6251993Y657407D2*
X6173097Y584547D1*
X6161024Y708836D2*
X6154847Y702799D1*
X6148810Y708836D1*
X6154847Y715013D1*
X6161024Y708836D1*
X6251993Y754228D2*
X6258170Y766442D1*
X6276280Y784692D1*
X6148810D1*
X6233883Y823908D2*
X6173097D1*
X6154987Y829944D1*
X6148810Y842158D1*
Y860408D1*
X6154987Y872481D1*
X6173097Y890731D1*
X6233883D2*
X6148810D1*
X6276420Y1008983D2*
Y929946D1*
X6148810D1*
X6215633D2*
Y978519D1*
X2418656Y122887D2*
X2412620Y104637D1*
X2394370Y92424D1*
X2364047Y86387D1*
X2345797D1*
X2315474Y92424D1*
X2297224Y104637D1*
X2291187Y122887D1*
Y134960D1*
X2297224Y153210D1*
X2315474Y165283D1*
X2345797Y171460D1*
X2364047D1*
X2394370Y165283D1*
X2412620Y153210D1*
X2418656Y134960D1*
Y122887D1*
X2394370Y165283D2*
X2315474Y92424D1*
X2303400Y216712D2*
X2297224Y210676D1*
X2291187Y216712D1*
X2297224Y222889D1*
X2303400Y216712D1*
X2394370Y262105D2*
X2400547Y274319D1*
X2418656Y292569D1*
X2291187D1*
X2376260Y331784D2*
X2315474D1*
X2297364Y337821D1*
X2291187Y350034D1*
Y368284D1*
X2297364Y380357D1*
X2315474Y398607D1*
X2376260D2*
X2291187D1*
X2418797Y516860D2*
Y437823D1*
X2291187D1*
X2358010D2*
Y486396D1*
X8592483Y2946846D2*
X8610733Y2940810D1*
X8622946Y2922560D1*
X8628983Y2892237D1*
Y2873987D1*
X8622946Y2843664D1*
X8610733Y2825414D1*
X8592483Y2819377D1*
X8580410D1*
X8562160Y2825414D1*
X8550087Y2843664D1*
X8543910Y2873987D1*
Y2892237D1*
X8550087Y2922560D1*
X8562160Y2940810D1*
X8580410Y2946846D1*
X8592483D1*
X8550087Y2922560D2*
X8622946Y2843664D1*
X8498658Y2831590D2*
X8504694Y2825414D1*
X8498658Y2819377D1*
X8492481Y2825414D1*
X8498658Y2831590D1*
X8453265Y2922560D2*
X8441051Y2928737D1*
X8422801Y2946846D1*
Y2819377D1*
X8383586Y2904450D2*
Y2843664D1*
X8377549Y2825554D1*
X8365336Y2819377D1*
X8347086D1*
X8335013Y2825554D1*
X8316763Y2843664D1*
Y2904450D2*
Y2819377D1*
X8198510Y2946987D2*
X8277547D1*
Y2819377D1*
Y2886200D2*
X8228974D1*
X8824163Y5491560D2*
X8811949Y5497737D1*
X8793699Y5515846D1*
Y5388377D1*
X8717984Y5515846D2*
X8736234Y5509810D1*
X8748447Y5491560D1*
X8754484Y5461237D1*
Y5442987D1*
X8748447Y5412664D1*
X8736234Y5394414D1*
X8717984Y5388377D1*
X8705910D1*
X8687660Y5394414D1*
X8675587Y5412664D1*
X8669410Y5442987D1*
Y5461237D1*
X8675587Y5491560D1*
X8687660Y5509810D1*
X8705910Y5515846D1*
X8717984D1*
X8675587Y5491560D2*
X8748447Y5412664D1*
X8593695Y5515846D2*
X8611945Y5509810D1*
X8624158Y5491560D1*
X8630195Y5461237D1*
Y5442987D1*
X8624158Y5412664D1*
X8611945Y5394414D1*
X8593695Y5388377D1*
X8581622D1*
X8563372Y5394414D1*
X8551299Y5412664D1*
X8545122Y5442987D1*
Y5461237D1*
X8551299Y5491560D1*
X8563372Y5509810D1*
X8581622Y5515846D1*
X8593695D1*
X8551299Y5491560D2*
X8624158Y5412664D1*
X8505906Y5473450D2*
Y5412664D1*
X8499869Y5394554D1*
X8487656Y5388377D1*
X8469406D1*
X8457333Y5394554D1*
X8439083Y5412664D1*
Y5473450D2*
Y5388377D1*
X8320831Y5515987D2*
X8399867D1*
Y5388377D1*
Y5455200D2*
X8351294D1*
X3696539Y555620D2*
X3684326Y561797D1*
X3666076Y579906D1*
Y452437D1*
X3590360Y579906D2*
X3608610Y573870D1*
X3620824Y555620D1*
X3626860Y525297D1*
Y507047D1*
X3620824Y476724D1*
X3608610Y458474D1*
X3590360Y452437D1*
X3578287D1*
X3560037Y458474D1*
X3547964Y476724D1*
X3541787Y507047D1*
Y525297D1*
X3547964Y555620D1*
X3560037Y573870D1*
X3578287Y579906D1*
X3590360D1*
X3547964Y555620D2*
X3620824Y476724D1*
X3466071Y579906D2*
X3484321Y573870D1*
X3496535Y555620D1*
X3502571Y525297D1*
Y507047D1*
X3496535Y476724D1*
X3484321Y458474D1*
X3466071Y452437D1*
X3453998D1*
X3435748Y458474D1*
X3423675Y476724D1*
X3417498Y507047D1*
Y525297D1*
X3423675Y555620D1*
X3435748Y573870D1*
X3453998Y579906D1*
X3466071D1*
X3423675Y555620D2*
X3496535Y476724D1*
X3378283Y537510D2*
Y476724D1*
X3372246Y458614D1*
X3360033Y452437D1*
X3341783D1*
X3329710Y458614D1*
X3311460Y476724D1*
Y537510D2*
Y452437D1*
X3193207Y580047D2*
X3272244D1*
Y452437D1*
Y519260D2*
X3223671D1*
X2130883Y610483D2*
Y482874D1*
X2006595Y610483D2*
Y482874D1*
X2091668Y610483D1*
Y482874D1*
X1906592D2*
Y610343D1*
X1967379Y525410D1*
X1876269D1*
X1837054Y586056D2*
X1824840Y592233D1*
X1806590Y610343D1*
Y482874D1*
X1706588D2*
Y610343D1*
X1767375Y525410D1*
X1676265D1*
X1606726Y610343D2*
X1624836Y604306D1*
X1631013Y592233D1*
Y580020D1*
X1624836Y567947D1*
X1612763Y561770D1*
X1588476Y555733D1*
X1570226Y549697D1*
X1558153Y537483D1*
X1552117Y525410D1*
Y507160D1*
X1558153Y495087D1*
X1564190Y488910D1*
X1582440Y482874D1*
X1606726D1*
X1624836Y488910D1*
X1631013Y495087D1*
X1637049Y507160D1*
Y525410D1*
X1631013Y537483D1*
X1618799Y549697D1*
X1600690Y555733D1*
X1576403Y561770D1*
X1564190Y567947D1*
X1558153Y580020D1*
Y592233D1*
X1564190Y604306D1*
X1582440Y610343D1*
X1606726D1*
X3976094Y1312941D2*
X4103563D1*
X4018630Y1252155D1*
Y1343264D1*
X4103703Y1382480D2*
X3976094D1*
X4061167Y1443267D2*
X4000380Y1382480D1*
X4024667Y1406767D2*
X3976094Y1449303D1*
Y1512805D2*
X4103563Y1573592D1*
Y1488519D1*
X6951179Y5579743D2*
X6938965Y5585920D1*
X6920715Y5604030D1*
Y5476560D1*
X6845000Y5604030D2*
X6863250Y5597993D1*
X6875463Y5579743D1*
X6881500Y5549420D1*
Y5531170D1*
X6875463Y5500847D1*
X6863250Y5482597D1*
X6845000Y5476560D1*
X6832927D1*
X6814677Y5482597D1*
X6802604Y5500847D1*
X6796427Y5531170D1*
Y5549420D1*
X6802604Y5579743D1*
X6814677Y5597993D1*
X6832927Y5604030D1*
X6845000D1*
X6802604Y5579743D2*
X6875463Y5500847D1*
X6757211Y5604170D2*
Y5476560D1*
X6696424Y5561633D2*
X6757211Y5500847D1*
X6732924Y5525133D2*
X6690388Y5476560D1*
X6208267Y5978067D2*
X6214303Y5990140D1*
X6226517Y6002353D1*
X6238590Y6008390D1*
X6262876D1*
X6275090Y6002353D1*
X6287163Y5990140D1*
X6293340Y5978067D1*
X6299376Y5959817D1*
Y5929353D1*
X6293340Y5911244D1*
X6287163Y5899030D1*
X6275090Y5886957D1*
X6262876Y5880780D1*
X6238590D1*
X6226517Y5886957D1*
X6214303Y5899030D1*
X6208267Y5911244D1*
Y5929353D1*
X6238590D1*
X6169051Y6008390D2*
Y5880780D1*
X6096192D1*
X5984116Y6008250D2*
X6044762D1*
X6050799Y5953640D1*
X6044762Y5959676D1*
X6026512Y5965853D1*
X6008403D1*
X5990153Y5959676D1*
X5977939Y5947603D1*
X5971903Y5929353D1*
Y5917280D1*
X5977939Y5899030D1*
X5990153Y5886817D1*
X6008403Y5880780D1*
X6026512D1*
X6044762Y5886817D1*
X6050799Y5892994D1*
X6056976Y5905067D1*
X5859827Y6008250D2*
X5920474D1*
X5926510Y5953640D1*
X5920474Y5959676D1*
X5902224Y5965853D1*
X5884114D1*
X5865864Y5959676D1*
X5853651Y5947603D1*
X5847614Y5929353D1*
Y5917280D1*
X5853651Y5899030D1*
X5865864Y5886817D1*
X5884114Y5880780D1*
X5902224D1*
X5920474Y5886817D1*
X5926510Y5892994D1*
X5932687Y5905067D1*
X5802221Y5977926D2*
Y5983963D1*
X5796185Y5996176D1*
X5790148Y6002213D1*
X5777935Y6008250D1*
X5753648D1*
X5741575Y6002213D1*
X5735539Y5996176D1*
X5729362Y5983963D1*
Y5971890D1*
X5735539Y5959676D1*
X5747612Y5941567D1*
X5808398Y5880780D1*
X5723325D1*
X5653786Y6008250D2*
X5671896Y6002213D1*
X5678073Y5990140D1*
Y5977926D1*
X5671896Y5965853D1*
X5659823Y5959676D1*
X5635536Y5953640D1*
X5617286Y5947603D1*
X5605213Y5935390D1*
X5599177Y5923317D1*
Y5905067D1*
X5605213Y5892994D1*
X5611250Y5886817D1*
X5629500Y5880780D1*
X5653786D1*
X5671896Y5886817D1*
X5678073Y5892994D1*
X5684110Y5905067D1*
Y5923317D1*
X5678073Y5935390D1*
X5665860Y5947603D1*
X5647750Y5953640D1*
X5623463Y5959676D1*
X5611250Y5965853D1*
X5605213Y5977926D1*
Y5990140D1*
X5611250Y6002213D1*
X5629500Y6008250D1*
X5653786D1*
X3722094Y1319428D2*
X3849563D1*
X3764630Y1258641D1*
Y1349751D1*
X3849703Y1388967D2*
X3722094D1*
X3807167Y1449753D2*
X3746380Y1388967D1*
X3770667Y1413253D2*
X3722094Y1455790D1*
Y1519292D2*
X3849563Y1580079D1*
Y1495005D1*
X3460440Y1312941D2*
X3587910D1*
X3502977Y1252155D1*
Y1343264D1*
X3588050Y1382480D2*
X3460440D1*
X3545513Y1443267D2*
X3484727Y1382480D1*
X3509013Y1406767D2*
X3460440Y1449303D1*
Y1512805D2*
X3587910Y1573592D1*
Y1488519D1*
X2452094Y1312941D2*
X2579563D1*
X2494630Y1252155D1*
Y1343264D1*
X2579703Y1382480D2*
X2452094D1*
X2537167Y1443267D2*
X2476380Y1382480D1*
X2500667Y1406767D2*
X2452094Y1449303D1*
Y1512805D2*
X2579563Y1573592D1*
Y1488519D1*
X5926052Y2131190D2*
Y2258660D1*
X5986839Y2173727D1*
X5895729D1*
X5856513Y2258800D2*
Y2131190D1*
X5795727Y2216263D2*
X5856513Y2155477D1*
X5832227Y2179763D2*
X5789690Y2131190D1*
X5726188D2*
X5665401Y2258660D1*
X5750475D1*
X5926052Y1911500D2*
Y2038970D1*
X5986839Y1954037D1*
X5895729D1*
X5856513Y2039110D2*
Y1911500D1*
X5795727Y1996573D2*
X5856513Y1935787D1*
X5832227Y1960073D2*
X5789690Y1911500D1*
X5726188D2*
X5665401Y2038970D1*
X5750475D1*
X2198094Y1312941D2*
X2325563D1*
X2240630Y1252155D1*
Y1343264D1*
X2325703Y1382480D2*
X2198094D1*
X2283167Y1443267D2*
X2222380Y1382480D1*
X2246667Y1406767D2*
X2198094Y1449303D1*
Y1512805D2*
X2325563Y1573592D1*
Y1488519D1*
X8414742Y6359550D2*
Y6231940D1*
X8372206D1*
X8353956Y6238117D1*
X8341742Y6250190D1*
X8335706Y6262404D1*
X8329669Y6280513D1*
Y6310977D1*
X8335706Y6329227D1*
X8341742Y6341300D1*
X8353956Y6353513D1*
X8372206Y6359550D1*
X8414742D1*
X8290454D2*
Y6231940D1*
X8166165Y6341300D2*
X8178238Y6353513D1*
X8196488Y6359550D1*
X8220774D1*
X8239024Y6353513D1*
X8251238Y6341300D1*
Y6329227D1*
X8245061Y6317013D1*
X8239024Y6310977D1*
X8226951Y6304940D1*
X8190451Y6292727D1*
X8178238Y6286690D1*
X8172201Y6280513D1*
X8166165Y6268440D1*
Y6250190D1*
X8178238Y6238117D1*
X8196488Y6231940D1*
X8220774D1*
X8239024Y6238117D1*
X8251238Y6250190D1*
X8126949Y6292727D2*
X8072199D1*
X8054090Y6298763D1*
X8047913Y6304940D1*
X8041876Y6317013D1*
Y6335263D1*
X8047913Y6347336D1*
X8054090Y6353513D1*
X8072199Y6359550D1*
X8126949D1*
Y6231940D1*
X8002660Y6359550D2*
Y6231940D1*
X7929801D1*
X7793299D2*
X7842012Y6359550D1*
X7890585Y6231940D1*
X7872335Y6274477D2*
X7811549D1*
X7754083Y6359550D2*
X7705510Y6298763D1*
Y6231940D1*
X7656937Y6359550D2*
X7705510Y6298763D1*
X7617721Y6335123D2*
X7605508Y6341300D1*
X7587258Y6359410D1*
Y6231940D1*
X2060294Y6384107D2*
Y6256497D1*
X2017757D1*
X1999507Y6262674D1*
X1987294Y6274747D1*
X1981257Y6286960D1*
X1975221Y6305070D1*
Y6335534D1*
X1981257Y6353784D1*
X1987294Y6365857D1*
X1999507Y6378070D1*
X2017757Y6384107D1*
X2060294D1*
X1936005D2*
Y6256497D1*
X1811716Y6365857D2*
X1823789Y6378070D1*
X1842039Y6384107D1*
X1866326D1*
X1884576Y6378070D1*
X1896789Y6365857D1*
Y6353784D1*
X1890613Y6341570D1*
X1884576Y6335534D1*
X1872503Y6329497D1*
X1836003Y6317284D1*
X1823789Y6311247D1*
X1817753Y6305070D1*
X1811716Y6292997D1*
Y6274747D1*
X1823789Y6262674D1*
X1842039Y6256497D1*
X1866326D1*
X1884576Y6262674D1*
X1896789Y6274747D1*
X1772501Y6317284D2*
X1717751D1*
X1699641Y6323320D1*
X1693464Y6329497D1*
X1687428Y6341570D1*
Y6359820D1*
X1693464Y6371893D1*
X1699641Y6378070D1*
X1717751Y6384107D1*
X1772501D1*
Y6256497D1*
X1648212Y6384107D2*
Y6256497D1*
X1575352D1*
X1438850D2*
X1487564Y6384107D1*
X1536137Y6256497D1*
X1517887Y6299034D2*
X1457100D1*
X1399634Y6384107D2*
X1351061Y6323320D1*
Y6256497D1*
X1302488Y6384107D2*
X1351061Y6323320D1*
X1257096Y6353643D2*
Y6359680D1*
X1251059Y6371893D1*
X1245023Y6377930D1*
X1232809Y6383966D1*
X1208523D1*
X1196449Y6377930D1*
X1190413Y6371893D1*
X1184236Y6359680D1*
Y6347607D1*
X1190413Y6335393D1*
X1202486Y6317284D1*
X1263273Y6256497D1*
X1178199D1*
X5095471Y6288247D2*
X5144184Y6415857D1*
X5192757Y6288247D1*
X5174507Y6330784D2*
X5113721D1*
X5056255Y6415857D2*
Y6288247D1*
X4983395D1*
X4846893D2*
X4895607Y6415857D1*
X4944180Y6288247D1*
X4925930Y6330784D2*
X4865143D1*
X4807678Y6355070D2*
X4753068D1*
X4734818Y6361247D1*
X4728641Y6367284D1*
X4722605Y6379357D1*
Y6391570D1*
X4728641Y6403643D1*
X4734818Y6409820D1*
X4753068Y6415857D1*
X4807678D1*
Y6288247D1*
X4765141Y6355070D2*
X4722605Y6288247D1*
X4586243D2*
Y6415857D1*
X4634816Y6288247D1*
X4683389Y6415857D1*
Y6288247D1*
X3271433Y5059610D2*
X3350329D1*
Y4932000D1*
X3271433D1*
X3350329Y4998823D2*
X3301756D1*
X3147144Y5041360D2*
X3159217Y5053573D1*
X3177467Y5059610D1*
X3201754D1*
X3220004Y5053573D1*
X3232217Y5041360D1*
Y5029287D1*
X3226040Y5017073D1*
X3220004Y5011037D1*
X3207931Y5005000D1*
X3171431Y4992787D1*
X3159217Y4986750D1*
X3153181Y4980573D1*
X3147144Y4968500D1*
Y4950250D1*
X3159217Y4938177D1*
X3177467Y4932000D1*
X3201754D1*
X3220004Y4938177D1*
X3232217Y4950250D1*
X3107929Y4992787D2*
X3053179D1*
X3035069Y4998823D1*
X3028892Y5005000D1*
X3022856Y5017073D1*
Y5035323D1*
X3028892Y5047396D1*
X3035069Y5053573D1*
X3053179Y5059610D1*
X3107929D1*
Y4932000D1*
X2971426Y5059470D2*
X2904744D1*
X2941103Y5010896D1*
X2922853D1*
X2910780Y5004860D1*
X2904744Y4998823D1*
X2898567Y4980573D1*
Y4968500D1*
X2904744Y4950250D1*
X2916817Y4938037D1*
X2935067Y4932000D1*
X2953317D1*
X2971426Y4938037D1*
X2977463Y4944214D1*
X2983640Y4956287D1*
X2853174Y5029146D2*
Y5035183D1*
X2847138Y5047396D1*
X2841101Y5053433D1*
X2828888Y5059470D1*
X2804601D1*
X2792528Y5053433D1*
X2786492Y5047396D1*
X2780315Y5035183D1*
Y5023110D1*
X2786492Y5010896D1*
X2798565Y4992787D1*
X2859351Y4932000D1*
X2774278D1*
X2526543Y5059610D2*
Y4932000D1*
X2611616Y5059610D1*
Y4932000D1*
X2457004Y5017073D2*
X2469077Y5011037D1*
X2481291Y4998823D1*
X2487327Y4980573D1*
Y4968500D1*
X2481291Y4950250D1*
X2469077Y4938177D1*
X2457004Y4932000D1*
X2438754D1*
X2426541Y4938177D1*
X2414468Y4950250D1*
X2408291Y4968500D1*
Y4980573D1*
X2414468Y4998823D1*
X2426541Y5011037D1*
X2438754Y5017073D1*
X2457004D1*
X2296215Y5059610D2*
Y4932000D1*
Y4998823D2*
X2308288Y5011037D1*
X2320502Y5017073D1*
X2338752D1*
X2350825Y5011037D1*
X2363038Y4998823D1*
X2369075Y4980573D1*
Y4968500D1*
X2363038Y4950250D1*
X2350825Y4938177D1*
X2338752Y4932000D1*
X2320502D1*
X2308288Y4938177D1*
X2296215Y4950250D1*
X2257000Y4980573D2*
X2184140D1*
Y4992787D1*
X2190177Y5005000D1*
X2196213Y5011037D1*
X2208427Y5017073D1*
X2226677D1*
X2238750Y5011037D1*
X2250963Y4998823D1*
X2257000Y4980573D1*
Y4968500D1*
X2250963Y4950250D1*
X2238750Y4938177D1*
X2226677Y4932000D1*
X2208427D1*
X2196213Y4938177D1*
X2184140Y4950250D1*
X2047778Y4932000D2*
Y5059610D1*
X2096351Y4932000D1*
X2144924Y5059610D1*
Y4932000D1*
X1917453Y5029287D2*
X1923489Y5041360D1*
X1935703Y5053573D1*
X1947776Y5059610D1*
X1972062D1*
X1984276Y5053573D1*
X1996349Y5041360D1*
X2002526Y5029287D1*
X2008562Y5011037D1*
Y4980573D1*
X2002526Y4962464D1*
X1996349Y4950250D1*
X1984276Y4938177D1*
X1972062Y4932000D1*
X1947776D1*
X1935703Y4938177D1*
X1923489Y4950250D1*
X1917453Y4962464D1*
X1878237Y5059610D2*
Y4968500D1*
X1872201Y4950250D1*
X1859987Y4938177D1*
X1841737Y4932000D1*
X1829664D1*
X1811414Y4938177D1*
X1799201Y4950250D1*
X1793164Y4968500D1*
Y5059610D1*
X6149077Y5322673D2*
Y5195064D1*
X6064004Y5322673D2*
Y5195064D1*
X6149077Y5261887D2*
X6064004D1*
X5933679Y5292350D2*
X5939715Y5304423D1*
X5951929Y5316637D1*
X5964002Y5322673D1*
X5988288D1*
X6000502Y5316637D1*
X6012575Y5304423D1*
X6018752Y5292350D1*
X6024788Y5274100D1*
Y5243637D1*
X6018752Y5225527D1*
X6012575Y5213314D1*
X6000502Y5201241D1*
X5988288Y5195064D1*
X5964002D1*
X5951929Y5201241D1*
X5939715Y5213314D1*
X5933679Y5225527D1*
X5894463Y5258798D2*
X5824271D1*
X5785055Y5298246D2*
X5772842Y5304423D1*
X5754592Y5322533D1*
Y5195064D1*
X5709199Y5292210D2*
Y5298246D1*
X5703162Y5310460D1*
X5697126Y5316496D1*
X5684912Y5322533D1*
X5660626D1*
X5648553Y5316496D1*
X5642516Y5310460D1*
X5636339Y5298246D1*
Y5286173D1*
X5642516Y5273960D1*
X5654589Y5255850D1*
X5715376Y5195064D1*
X5630303D1*
X4659330Y4923313D2*
X4531720D1*
Y4965850D1*
X4537897Y4984100D1*
X4549970Y4996313D1*
X4562184Y5002350D1*
X4580293Y5008386D1*
X4610757D1*
X4629007Y5002350D1*
X4641080Y4996313D1*
X4653293Y4984100D1*
X4659330Y4965850D1*
Y4923313D1*
Y5126638D2*
Y5047602D1*
X4531720D1*
X4598543D2*
Y5096175D1*
X4592507Y5165854D2*
Y5220604D1*
X4598543Y5238714D1*
X4604720Y5244891D1*
X4616793Y5250927D1*
X4635043D1*
X4647116Y5244891D1*
X4653293Y5238714D1*
X4659330Y5220604D1*
Y5165854D1*
X4531720D1*
X4659330Y5290143D2*
X4531720D1*
X4616793Y5402218D2*
X4531720D1*
X4598543D2*
X4610757Y5390145D1*
X4616793Y5377932D1*
Y5359822D1*
X4610757Y5347609D1*
X4598543Y5335535D1*
X4580293Y5329359D1*
X4568220D1*
X4549970Y5335535D1*
X4537897Y5347609D1*
X4531720Y5359822D1*
Y5377932D1*
X4537897Y5390145D1*
X4549970Y5402218D1*
X4616793Y5447611D2*
X4531720Y5483970D1*
X4507434Y5471897D1*
X4495220Y5459684D1*
X4489184Y5447611D1*
Y5441434D1*
X4616793Y5520470D2*
X4531720Y5483970D1*
X4580293Y5559686D2*
Y5632546D1*
X4592507D1*
X4604720Y5626509D1*
X4610757Y5620473D1*
X4616793Y5608259D1*
Y5590009D1*
X4610757Y5577936D1*
X4598543Y5565723D1*
X4580293Y5559686D1*
X4568220D1*
X4549970Y5565723D1*
X4537897Y5577936D1*
X4531720Y5590009D1*
Y5608259D1*
X4537897Y5620473D1*
X4549970Y5632546D1*
X4616793Y5671761D2*
X4531720D1*
X4580293D2*
X4598543Y5677938D1*
X4610757Y5690011D1*
X4616793Y5702225D1*
Y5720475D1*
X4531720Y5980283D2*
X4659330D1*
X4531720Y5931710D1*
X4659330Y5883137D1*
X4531720D1*
X4659330Y6019499D2*
X4653293Y6025535D1*
X4659330Y6031712D1*
X4665507Y6025535D1*
X4659330Y6019499D1*
X4616793Y6025535D2*
X4531720D1*
X4616793Y6070928D2*
X4531720D1*
X4592507D2*
X4610757Y6089178D1*
X4616793Y6101391D1*
Y6119501D1*
X4610757Y6131715D1*
X4592507Y6137751D1*
X4531720D1*
X4659330Y6176967D2*
X4653293Y6183003D1*
X4659330Y6189180D1*
X4665507Y6183003D1*
X4659330Y6176967D1*
X4616793Y6183003D2*
X4531720D1*
X4897453Y928170D2*
X4769844D1*
Y970706D1*
X4776021Y988956D1*
X4788094Y1001170D1*
X4800307Y1007206D1*
X4818417Y1013243D1*
X4848880D1*
X4867130Y1007206D1*
X4879203Y1001170D1*
X4891417Y988956D1*
X4897453Y970706D1*
Y928170D1*
X4879203Y1137532D2*
X4891417Y1125458D1*
X4897453Y1107208D1*
Y1082922D1*
X4891417Y1064672D1*
X4879203Y1052458D1*
X4867130D1*
X4854917Y1058635D1*
X4848880Y1064672D1*
X4842844Y1076745D1*
X4830630Y1113245D1*
X4824594Y1125458D1*
X4818417Y1131495D1*
X4806344Y1137532D1*
X4788094D1*
X4776021Y1125458D1*
X4769844Y1107208D1*
Y1082922D1*
X4776021Y1064672D1*
X4788094Y1052458D1*
X4897313Y1188961D2*
Y1255643D1*
X4848740Y1219284D1*
Y1237534D1*
X4842703Y1249607D1*
X4836667Y1255643D1*
X4818417Y1261820D1*
X4806344D1*
X4788094Y1255643D1*
X4775880Y1243570D1*
X4769844Y1225320D1*
Y1207070D1*
X4775880Y1188961D1*
X4782057Y1182924D1*
X4794130Y1176747D1*
X4866990Y1307213D2*
X4873026D1*
X4885240Y1313249D1*
X4891276Y1319286D1*
X4897313Y1331499D1*
Y1355786D1*
X4891276Y1367859D1*
X4885240Y1373896D1*
X4873026Y1380073D1*
X4860953D1*
X4848740Y1373896D1*
X4830630Y1361823D1*
X4769844Y1301036D1*
Y1386109D1*
X4897313Y1437538D2*
Y1504221D1*
X4848740Y1467861D1*
Y1486111D1*
X4842703Y1498184D1*
X4836667Y1504221D1*
X4818417Y1510398D1*
X4806344D1*
X4788094Y1504221D1*
X4775880Y1492148D1*
X4769844Y1473898D1*
Y1455648D1*
X4775880Y1437538D1*
X4782057Y1431502D1*
X4794130Y1425325D1*
X4873026Y1549614D2*
X4879203Y1561827D1*
X4897313Y1580077D1*
X4769844D1*
X5746767Y6233826D2*
X5619157D1*
Y6288576D1*
X5625334Y6306826D1*
X5631370Y6312863D1*
X5643444Y6318899D1*
X5661694D1*
X5673907Y6312863D1*
X5679944Y6306826D1*
X5685980Y6288576D1*
X5692157Y6306826D1*
X5698194Y6312863D1*
X5710267Y6318899D1*
X5722480D1*
X5734553Y6312863D1*
X5740730Y6306826D1*
X5746767Y6288576D1*
Y6233826D1*
X5685980D2*
Y6288576D1*
X5746767Y6358115D2*
X5619157D1*
X5746767Y6443188D2*
X5619157D1*
X5685980Y6358115D2*
Y6443188D1*
X5722340Y6482404D2*
X5728517Y6494617D1*
X5746626Y6512867D1*
X5619157D1*
Y6576370D2*
X5746626Y6637156D1*
Y6552083D1*
Y6749231D2*
Y6688585D1*
X5692017Y6682549D1*
X5698053Y6688585D1*
X5704230Y6706835D1*
Y6724945D1*
X5698053Y6743195D1*
X5685980Y6755408D1*
X5667730Y6761445D1*
X5655657D1*
X5637407Y6755408D1*
X5625194Y6743195D1*
X5619157Y6724945D1*
Y6706835D1*
X5625194Y6688585D1*
X5631370Y6682549D1*
X5643444Y6676372D1*
X5746626Y6837161D2*
X5740590Y6818911D1*
X5722340Y6806697D1*
X5692017Y6800661D1*
X5673767D1*
X5643444Y6806697D1*
X5625194Y6818911D1*
X5619157Y6837161D1*
Y6849234D1*
X5625194Y6867484D1*
X5643444Y6879557D1*
X5673767Y6885734D1*
X5692017D1*
X5722340Y6879557D1*
X5740590Y6867484D1*
X5746626Y6849234D1*
Y6837161D1*
X5722340Y6879557D2*
X5643444Y6806697D1*
X6939257Y6061847D2*
X7066867D1*
X6939257Y6013274D1*
X7066867Y5964701D1*
X6939257D1*
Y6198350D2*
X7066867Y6149636D1*
X6939257Y6101063D1*
X6981794Y6119313D2*
Y6180100D1*
X7066867Y6237565D2*
X6939257Y6322638D1*
X7066867D2*
X6939257Y6237565D1*
Y6422641D2*
X7066726D1*
X6981794Y6361854D1*
Y6452964D1*
X6939257Y6552966D2*
X7066726D1*
X6981794Y6492179D1*
Y6583289D1*
X7066726Y6659005D2*
X7060690Y6640755D1*
X7042440Y6628541D1*
X7012117Y6622505D1*
X6993867D1*
X6963544Y6628541D1*
X6945294Y6640755D1*
X6939257Y6659005D1*
Y6671078D1*
X6945294Y6689328D1*
X6963544Y6701401D1*
X6993867Y6707578D1*
X7012117D1*
X7042440Y6701401D1*
X7060690Y6689328D1*
X7066726Y6671078D1*
Y6659005D1*
X7042440Y6701401D2*
X6963544Y6628541D1*
X7066726Y6783293D2*
X7060690Y6765043D1*
X7042440Y6752830D1*
X7012117Y6746793D1*
X6993867D1*
X6963544Y6752830D1*
X6945294Y6765043D1*
X6939257Y6783293D1*
Y6795367D1*
X6945294Y6813617D1*
X6963544Y6825690D1*
X6993867Y6831867D1*
X7012117D1*
X7042440Y6825690D1*
X7060690Y6813617D1*
X7066726Y6795367D1*
Y6783293D1*
X7042440Y6825690D2*
X6963544Y6752830D1*
X7024330Y6950119D2*
X7006080Y6943942D1*
X6993867Y6931869D1*
X6987830Y6913619D1*
Y6907582D1*
X6993867Y6889332D1*
X7006080Y6877259D1*
X7024330Y6871082D1*
X7030367D1*
X7048617Y6877259D1*
X7060690Y6889332D1*
X7066726Y6907582D1*
Y6913619D1*
X7060690Y6931869D1*
X7048617Y6943942D1*
X7024330Y6950119D1*
X6993867D1*
X6963544Y6943942D1*
X6945294Y6931869D1*
X6939257Y6913619D1*
Y6901546D1*
X6945294Y6883296D1*
X6957507Y6877259D1*
X2911648Y1115397D2*
X2881184Y987787D1*
X2850861Y1115397D1*
X2820538Y987787D1*
X2790075Y1115397D1*
X2665786Y1097147D2*
X2677859Y1109360D1*
X2696109Y1115397D1*
X2720396D1*
X2738646Y1109360D1*
X2750859Y1097147D1*
Y1085074D1*
X2744682Y1072860D1*
X2738646Y1066824D1*
X2726572Y1060787D1*
X2690072Y1048574D1*
X2677859Y1042537D1*
X2671822Y1036360D1*
X2665786Y1024287D1*
Y1006037D1*
X2677859Y993964D1*
X2696109Y987787D1*
X2720396D1*
X2738646Y993964D1*
X2750859Y1006037D1*
X2620393Y1084933D2*
Y1090970D1*
X2614357Y1103183D1*
X2608320Y1109220D1*
X2596107Y1115256D1*
X2571820D1*
X2559747Y1109220D1*
X2553711Y1103183D1*
X2547534Y1090970D1*
Y1078897D1*
X2553711Y1066683D1*
X2565784Y1048574D1*
X2626570Y987787D1*
X2541497D1*
X2471958Y1115256D2*
X2490068Y1109220D1*
X2496245Y1097147D1*
Y1084933D1*
X2490068Y1072860D1*
X2477995Y1066683D1*
X2453708Y1060647D1*
X2435458Y1054610D1*
X2423385Y1042397D1*
X2417349Y1030324D1*
Y1012074D1*
X2423385Y1000000D1*
X2429422Y993824D1*
X2447672Y987787D1*
X2471958D1*
X2490068Y993824D1*
X2496245Y1000000D1*
X2502281Y1012074D1*
Y1030324D1*
X2496245Y1042397D1*
X2484031Y1054610D1*
X2465922Y1060647D1*
X2441635Y1066683D1*
X2429422Y1072860D1*
X2423385Y1084933D1*
Y1097147D1*
X2429422Y1109220D1*
X2447672Y1115256D1*
X2471958D1*
X2378133Y1090970D2*
X2365920Y1097147D1*
X2347670Y1115256D1*
Y987787D1*
X2302277Y1084933D2*
Y1090970D1*
X2296240Y1103183D1*
X2290204Y1109220D1*
X2277990Y1115256D1*
X2253704D1*
X2241631Y1109220D1*
X2235594Y1103183D1*
X2229417Y1090970D1*
Y1078897D1*
X2235594Y1066683D1*
X2247667Y1048574D1*
X2308454Y987787D1*
X2223381D1*
X2184165Y1115397D2*
Y987787D1*
Y1054610D2*
X2171952Y1066824D1*
X2159879Y1072860D1*
X2141629D1*
X2129556Y1066824D1*
X2117342Y1054610D1*
X2111306Y1036360D1*
Y1024287D1*
X2117342Y1006037D1*
X2129556Y993964D1*
X2141629Y987787D1*
X2159879D1*
X2171952Y993964D1*
X2184165Y1006037D1*
X2064929Y286673D2*
X2034465Y159064D1*
X2004142Y286673D1*
X1973819Y159064D1*
X1943356Y286673D1*
X1819067Y268423D2*
X1831140Y280637D1*
X1849390Y286673D1*
X1873677D1*
X1891927Y280637D1*
X1904140Y268423D1*
Y256350D1*
X1897963Y244137D1*
X1891927Y238100D1*
X1879853Y232064D1*
X1843353Y219850D1*
X1831140Y213814D1*
X1825103Y207637D1*
X1819067Y195564D1*
Y177314D1*
X1831140Y165241D1*
X1849390Y159064D1*
X1873677D1*
X1891927Y165241D1*
X1904140Y177314D1*
X1773674Y256210D2*
Y262246D1*
X1767638Y274460D1*
X1761601Y280496D1*
X1749388Y286533D1*
X1725101D1*
X1713028Y280496D1*
X1706992Y274460D1*
X1700815Y262246D1*
Y250173D1*
X1706992Y237960D1*
X1719065Y219850D1*
X1779851Y159064D1*
X1694778D1*
X1625239Y286533D2*
X1643349Y280496D1*
X1649526Y268423D1*
Y256210D1*
X1643349Y244137D1*
X1631276Y237960D1*
X1606989Y231923D1*
X1588739Y225887D1*
X1576666Y213673D1*
X1570630Y201600D1*
Y183350D1*
X1576666Y171277D1*
X1582703Y165100D1*
X1600953Y159064D1*
X1625239D1*
X1643349Y165100D1*
X1649526Y171277D1*
X1655562Y183350D1*
Y201600D1*
X1649526Y213673D1*
X1637312Y225887D1*
X1619203Y231923D1*
X1594916Y237960D1*
X1582703Y244137D1*
X1576666Y256210D1*
Y268423D1*
X1582703Y280496D1*
X1600953Y286533D1*
X1625239D1*
X1531414Y262246D2*
X1519201Y268423D1*
X1500951Y286533D1*
Y159064D1*
X1455558Y256210D2*
Y262246D1*
X1449522Y274460D1*
X1443485Y280496D1*
X1431272Y286533D1*
X1406985D1*
X1394912Y280496D1*
X1388875Y274460D1*
X1382698Y262246D1*
Y250173D1*
X1388875Y237960D1*
X1400948Y219850D1*
X1461735Y159064D1*
X1376662D1*
X1337446Y286673D2*
Y159064D1*
Y225887D2*
X1325233Y238100D1*
X1313160Y244137D1*
X1294910D1*
X1282837Y238100D1*
X1270623Y225887D1*
X1264587Y207637D1*
Y195564D1*
X1270623Y177314D1*
X1282837Y165241D1*
X1294910Y159064D1*
X1313160D1*
X1325233Y165241D1*
X1337446Y177314D1*
X1101924Y286673D2*
Y159064D1*
X1059388D1*
X1041138Y165241D1*
X1028924Y177314D1*
X1022888Y189527D1*
X1016851Y207637D1*
Y238100D1*
X1022888Y256350D1*
X1028924Y268423D1*
X1041138Y280637D1*
X1059388Y286673D1*
X1101924D1*
X977636D2*
X971599Y280637D1*
X965422Y286673D1*
X971599Y292850D1*
X977636Y286673D1*
X971599Y244137D2*
Y159064D1*
X859383Y225887D2*
X865420Y238100D1*
X883670Y244137D1*
X901920D1*
X920170Y238100D1*
X926207Y225887D1*
X920170Y213814D1*
X907957Y207637D1*
X877633Y201600D1*
X865420Y195564D1*
X859383Y183350D1*
Y177314D1*
X865420Y165241D1*
X883670Y159064D1*
X901920D1*
X920170Y165241D1*
X926207Y177314D1*
X820168Y244137D2*
Y116527D1*
Y225887D2*
X807954Y237960D1*
X795881Y244137D1*
X777631D1*
X765418Y237960D1*
X753345Y225887D1*
X747168Y207637D1*
Y195423D1*
X753345Y177314D1*
X765418Y165100D1*
X777631Y159064D1*
X795881D1*
X807954Y165100D1*
X820168Y177314D1*
X707952Y286673D2*
Y159064D1*
X595877Y244137D2*
Y159064D1*
Y225887D2*
X607950Y238100D1*
X620163Y244137D1*
X638273D1*
X650486Y238100D1*
X662559Y225887D1*
X668736Y207637D1*
Y195564D1*
X662559Y177314D1*
X650486Y165241D1*
X638273Y159064D1*
X620163D1*
X607950Y165241D1*
X595877Y177314D1*
X550484Y244137D2*
X514125Y159064D1*
X526198Y134777D1*
X538411Y122564D1*
X550484Y116527D1*
X556661D1*
X477625Y244137D2*
X514125Y159064D1*
X1091492Y4951866D2*
X963882Y4982330D1*
X1091492Y5012653D1*
X963882Y5042976D1*
X1091492Y5073439D1*
Y5112655D2*
X963882D1*
X1030705Y5151871D2*
Y5206480D1*
X1036882Y5224730D1*
X1042919Y5230907D1*
X1054992Y5236944D1*
X1067205D1*
X1079278Y5230907D1*
X1085455Y5224730D1*
X1091492Y5206480D1*
Y5151871D1*
X963882D1*
X1030705Y5194407D2*
X963882Y5236944D1*
X1091492Y5355056D2*
Y5276159D1*
X963882D1*
Y5355056D1*
X1030705Y5276159D2*
Y5324733D1*
X1091492Y5394271D2*
X963882D1*
Y5436808D1*
X970059Y5455058D1*
X982132Y5467271D1*
X994345Y5473308D1*
X1012455Y5479344D1*
X1042919D1*
X1061169Y5473308D1*
X1073242Y5467271D1*
X1085455Y5455058D1*
X1091492Y5436808D1*
Y5394271D1*
X942824Y5518560D2*
Y5633956D1*
X1073242Y5758245D2*
X1085455Y5746172D1*
X1091492Y5727922D1*
Y5703635D1*
X1085455Y5685385D1*
X1073242Y5673172D1*
X1061169D1*
X1048955Y5679349D1*
X1042919Y5685385D1*
X1036882Y5697458D1*
X1024669Y5733958D1*
X1018632Y5746172D1*
X1012455Y5752208D1*
X1000382Y5758245D1*
X982132D1*
X970059Y5746172D1*
X963882Y5727922D1*
Y5703635D1*
X970059Y5685385D1*
X982132Y5673172D1*
X1091492Y5876357D2*
Y5797461D1*
X963882D1*
Y5876357D1*
X1030705Y5797461D2*
Y5846034D1*
X1091492Y6000646D2*
X963882D1*
X1091492Y5915573D1*
X963882D1*
X1073242Y6124934D2*
X1085455Y6112861D1*
X1091492Y6094611D1*
Y6070325D1*
X1085455Y6052075D1*
X1073242Y6039861D1*
X1061169D1*
X1048955Y6046038D1*
X1042919Y6052075D1*
X1036882Y6064148D1*
X1024669Y6100648D1*
X1018632Y6112861D1*
X1012455Y6118898D1*
X1000382Y6124934D1*
X982132D1*
X970059Y6112861D1*
X963882Y6094611D1*
Y6070325D1*
X970059Y6052075D1*
X982132Y6039861D1*
X1091492Y6200650D2*
X1085455Y6188437D1*
X1073242Y6176364D1*
X1061169Y6170187D1*
X1042919Y6164150D1*
X1012455D1*
X994345Y6170187D1*
X982132Y6176364D1*
X970059Y6188437D1*
X963882Y6200650D1*
Y6224937D1*
X970059Y6237010D1*
X982132Y6249223D1*
X994345Y6255260D1*
X1012455Y6261296D1*
X1042919D1*
X1061169Y6255260D1*
X1073242Y6249223D1*
X1085455Y6237010D1*
X1091492Y6224937D1*
Y6200650D1*
X1030705Y6300512D2*
Y6355122D1*
X1036882Y6373372D1*
X1042919Y6379548D1*
X1054992Y6385585D1*
X1067205D1*
X1079278Y6379548D1*
X1085455Y6373372D1*
X1091492Y6355122D1*
Y6300512D1*
X963882D1*
X1030705Y6343048D2*
X963882Y6385585D1*
X1073242Y6509874D2*
X1085455Y6497801D1*
X1091492Y6479551D1*
Y6455264D1*
X1085455Y6437014D1*
X1073242Y6424801D1*
X1061169D1*
X1048955Y6430978D1*
X1042919Y6437014D1*
X1036882Y6449087D1*
X1024669Y6485587D1*
X1018632Y6497801D1*
X1012455Y6503837D1*
X1000382Y6509874D1*
X982132D1*
X970059Y6497801D1*
X963882Y6479551D1*
Y6455264D1*
X970059Y6437014D1*
X982132Y6424801D1*
M02*
