G04 DipTrace 4.2.0.0*
G04 BottomSilk.gbr*
%MOMM*%
G04 #@! TF.FileFunction,Legend,Bot*
G04 #@! TF.Part,Single*
%ADD10C,0.12*%
%ADD55C,0.19608*%
%ADD56C,0.33333*%
%FSLAX35Y35*%
G04*
G71*
G90*
G75*
G01*
G04 BotSilk*
%LPD*%
X6667500Y1936750D2*
D10*
X6397623D1*
Y1174750D2*
X6667500D1*
X6397623Y1936750D2*
Y1174750D1*
X6667500Y1936750D2*
G02X6667500Y1174750I1063625J-381000D01*
G01*
X6695373Y5962623D2*
X6671373D1*
X6695373Y5816623D2*
X6671373D1*
X2406623Y702373D2*
Y726373D1*
X2260623Y702373D2*
Y726373D1*
X885123Y6931000D2*
X861123D1*
X885123Y6785000D2*
X861123D1*
X6340497Y805747D2*
Y781747D1*
X6486497Y805747D2*
Y781747D1*
X2609873Y726373D2*
Y702373D1*
X2755873Y726373D2*
Y702373D1*
X8219373Y3136873D2*
X8195373D1*
X8219373Y2990873D2*
X8195373D1*
X8571500Y6018747D2*
Y6103747D1*
X7811500D1*
Y6018747D1*
X8571500Y5728747D2*
Y5643747D1*
X7811500D1*
Y5728747D1*
X8650500Y5994747D2*
Y5752747D1*
X3064873Y728123D2*
Y643123D1*
X3824873D1*
Y728123D1*
X3064873Y1018123D2*
Y1103123D1*
X3824873D1*
Y1018123D1*
X2985873Y752123D2*
Y994123D1*
X1655123Y873747D2*
X1869123D1*
X1655123Y713747D2*
X1869123D1*
X2007123Y874747D2*
Y712747D1*
X5089720Y5264897D2*
X5135720D1*
X5089720Y5404897D2*
X5135720D1*
X6706370Y5626247D2*
X6660370D1*
X6706370Y5486247D2*
X6660370D1*
X6492873Y6334123D2*
Y6429377D1*
X6873873Y6334123D2*
Y6429377D1*
X6429373Y6683377D2*
Y6429377D1*
X6937373D1*
Y6683377D1*
X6429373D1*
X3816500Y1564500D2*
Y1610500D1*
X3676500Y1564500D2*
Y1610500D1*
X3562500Y1564500D2*
Y1610500D1*
X3422500Y1564500D2*
Y1610500D1*
X2546500Y1564500D2*
Y1610500D1*
X2406500Y1564500D2*
Y1610500D1*
X6168250Y2136623D2*
X6214250D1*
X6168250Y2276623D2*
X6214250D1*
X6214247Y2006750D2*
X6168247D1*
X6214247Y1866750D2*
X6168247D1*
X2152500Y1610500D2*
Y1564500D1*
X2292500Y1610500D2*
Y1564500D1*
X8016873Y6732623D2*
X8206873D1*
Y6672623D1*
X8275780D1*
X8016873Y6732623D2*
X7826873D1*
Y6672623D1*
X7757967D1*
X8282933Y7072623D2*
X7741873D1*
X7821873Y7252623D2*
Y7072623D1*
X8211873D1*
Y7252623D1*
X7821873D1*
X8401873Y7092623D2*
X8336407D1*
G36*
X7583873Y6847623D2*
X7584087Y6850886D1*
X7584725Y6854094D1*
X7585776Y6857190D1*
X7587223Y6860123D1*
X7589039Y6862842D1*
X7591196Y6865301D1*
X7593654Y6867457D1*
X7596373Y6869274D1*
X7599306Y6870720D1*
X7602403Y6871771D1*
X7605610Y6872409D1*
X7608873Y6872623D1*
X7612136Y6872409D1*
X7615344Y6871771D1*
X7618440Y6870720D1*
X7621373Y6869274D1*
X7624092Y6867457D1*
X7626551Y6865301D1*
X7628707Y6862842D1*
X7630524Y6860123D1*
X7631970Y6857190D1*
X7633021Y6854094D1*
X7633659Y6850886D1*
X7633873Y6847623D1*
D1*
X7633659Y6844360D1*
X7633021Y6841153D1*
X7631970Y6838056D1*
X7630524Y6835123D1*
X7628707Y6832404D1*
X7626551Y6829946D1*
X7624092Y6827789D1*
X7621373Y6825973D1*
X7618440Y6824526D1*
X7615344Y6823475D1*
X7612136Y6822837D1*
X7608873Y6822623D1*
X7605610Y6822837D1*
X7602403Y6823475D1*
X7599306Y6824526D1*
X7596373Y6825973D1*
X7593654Y6827789D1*
X7591196Y6829946D1*
X7589039Y6832404D1*
X7587223Y6835123D1*
X7585776Y6838056D1*
X7584725Y6841153D1*
X7584087Y6844360D1*
X7583873Y6847623D1*
D1*
G37*
X8276873Y6673933D2*
D10*
Y6732623D1*
X8316873D1*
Y6777030D1*
Y6918217D2*
Y7041623D1*
X8351873D1*
Y6714663D1*
Y6480583D2*
Y6447623D1*
X8381873D1*
Y6480583D1*
Y6714663D2*
Y6857573D1*
X7756873Y6673933D2*
Y6732623D1*
X7716873D1*
Y6744627D1*
Y6950620D2*
Y7041623D1*
X7681873D1*
Y6714663D1*
Y6480583D2*
Y6447623D1*
X7651873D1*
Y6480583D1*
Y6714663D2*
Y6788463D1*
X7711017Y7092623D2*
X7631873D1*
Y7006877D1*
Y6941370D2*
Y6892123D1*
Y6803123D2*
Y6710310D1*
Y6484937D2*
Y6427623D1*
X8401873D2*
Y6484937D1*
Y6710310D2*
Y6799143D1*
Y6865103D2*
Y6953127D1*
Y7019120D2*
Y7092623D1*
X8381873Y6857573D2*
Y6959880D1*
Y7072623D1*
X8282933D1*
X8016873D1*
X7651873Y6788463D2*
X7650873Y6997767D1*
X7651873Y6996767D2*
Y7072623D1*
X8016873D1*
X1523997Y6732623D2*
X1713997D1*
Y6672623D1*
X1782903D1*
X1523997Y6732623D2*
X1333997D1*
Y6672623D1*
X1265090D1*
X1790057Y7072623D2*
X1248997D1*
X1328997Y7252623D2*
Y7072623D1*
X1718997D1*
Y7252623D1*
X1328997D1*
X1908997Y7092623D2*
X1843530D1*
G36*
X1090997Y6847623D2*
X1091211Y6850886D1*
X1091849Y6854094D1*
X1092900Y6857190D1*
X1094346Y6860123D1*
X1096163Y6862842D1*
X1098319Y6865301D1*
X1100778Y6867457D1*
X1103497Y6869274D1*
X1106430Y6870720D1*
X1109526Y6871771D1*
X1112734Y6872409D1*
X1115997Y6872623D1*
X1119260Y6872409D1*
X1122467Y6871771D1*
X1125564Y6870720D1*
X1128497Y6869274D1*
X1131216Y6867457D1*
X1133674Y6865301D1*
X1135831Y6862842D1*
X1137647Y6860123D1*
X1139094Y6857190D1*
X1140145Y6854094D1*
X1140783Y6850886D1*
X1140997Y6847623D1*
D1*
X1140783Y6844360D1*
X1140145Y6841153D1*
X1139094Y6838056D1*
X1137647Y6835123D1*
X1135831Y6832404D1*
X1133674Y6829946D1*
X1131216Y6827789D1*
X1128497Y6825973D1*
X1125564Y6824526D1*
X1122467Y6823475D1*
X1119260Y6822837D1*
X1115997Y6822623D1*
X1112734Y6822837D1*
X1109526Y6823475D1*
X1106430Y6824526D1*
X1103497Y6825973D1*
X1100778Y6827789D1*
X1098319Y6829946D1*
X1096163Y6832404D1*
X1094346Y6835123D1*
X1092900Y6838056D1*
X1091849Y6841153D1*
X1091211Y6844360D1*
X1090997Y6847623D1*
D1*
G37*
X1783997Y6673933D2*
D10*
Y6732623D1*
X1823997D1*
Y6777030D1*
Y6918217D2*
Y7041623D1*
X1858997D1*
Y6714663D1*
Y6480583D2*
Y6447623D1*
X1888997D1*
Y6480583D1*
Y6714663D2*
Y6857573D1*
X1263997Y6673933D2*
Y6732623D1*
X1223997D1*
Y6744627D1*
Y6950620D2*
Y7041623D1*
X1188997D1*
Y6714663D1*
Y6480583D2*
Y6447623D1*
X1158997D1*
Y6480583D1*
Y6714663D2*
Y6788463D1*
X1218140Y7092623D2*
X1138997D1*
Y7006877D1*
Y6941370D2*
Y6892123D1*
Y6803123D2*
Y6710310D1*
Y6484937D2*
Y6427623D1*
X1908997D2*
Y6484937D1*
Y6710310D2*
Y6799143D1*
Y6865103D2*
Y6953127D1*
Y7019120D2*
Y7092623D1*
X1888997Y6857573D2*
Y6959880D1*
Y7072623D1*
X1790057D1*
X1523997D1*
X1158997Y6788463D2*
X1157997Y6997767D1*
X1158997Y6996767D2*
Y7072623D1*
X1523997D1*
X5095873Y6732623D2*
X5285873D1*
Y6672623D1*
X5354780D1*
X5095873Y6732623D2*
X4905873D1*
Y6672623D1*
X4836967D1*
X5361933Y7072623D2*
X4820873D1*
X4900873Y7252623D2*
Y7072623D1*
X5290873D1*
Y7252623D1*
X4900873D1*
X5480873Y7092623D2*
X5415407D1*
G36*
X4662873Y6847623D2*
X4663087Y6850886D1*
X4663725Y6854094D1*
X4664776Y6857190D1*
X4666223Y6860123D1*
X4668039Y6862842D1*
X4670196Y6865301D1*
X4672654Y6867457D1*
X4675373Y6869274D1*
X4678306Y6870720D1*
X4681403Y6871771D1*
X4684610Y6872409D1*
X4687873Y6872623D1*
X4691136Y6872409D1*
X4694344Y6871771D1*
X4697440Y6870720D1*
X4700373Y6869274D1*
X4703092Y6867457D1*
X4705551Y6865301D1*
X4707707Y6862842D1*
X4709524Y6860123D1*
X4710970Y6857190D1*
X4712021Y6854094D1*
X4712659Y6850886D1*
X4712873Y6847623D1*
D1*
X4712659Y6844360D1*
X4712021Y6841153D1*
X4710970Y6838056D1*
X4709524Y6835123D1*
X4707707Y6832404D1*
X4705551Y6829946D1*
X4703092Y6827789D1*
X4700373Y6825973D1*
X4697440Y6824526D1*
X4694344Y6823475D1*
X4691136Y6822837D1*
X4687873Y6822623D1*
X4684610Y6822837D1*
X4681403Y6823475D1*
X4678306Y6824526D1*
X4675373Y6825973D1*
X4672654Y6827789D1*
X4670196Y6829946D1*
X4668039Y6832404D1*
X4666223Y6835123D1*
X4664776Y6838056D1*
X4663725Y6841153D1*
X4663087Y6844360D1*
X4662873Y6847623D1*
D1*
G37*
X5355873Y6673933D2*
D10*
Y6732623D1*
X5395873D1*
Y6777030D1*
Y6918217D2*
Y7041623D1*
X5430873D1*
Y6714663D1*
Y6480583D2*
Y6447623D1*
X5460873D1*
Y6480583D1*
Y6714663D2*
Y6857573D1*
X4835873Y6673933D2*
Y6732623D1*
X4795873D1*
Y6744627D1*
Y6950620D2*
Y7041623D1*
X4760873D1*
Y6714663D1*
Y6480583D2*
Y6447623D1*
X4730873D1*
Y6480583D1*
Y6714663D2*
Y6788463D1*
X4790017Y7092623D2*
X4710873D1*
Y7006877D1*
Y6941370D2*
Y6892123D1*
Y6803123D2*
Y6710310D1*
Y6484937D2*
Y6427623D1*
X5480873D2*
Y6484937D1*
Y6710310D2*
Y6799143D1*
Y6865103D2*
Y6953127D1*
Y7019120D2*
Y7092623D1*
X5460873Y6857573D2*
Y6959880D1*
Y7072623D1*
X5361933D1*
X5095873D1*
X4730873Y6788463D2*
X4729873Y6997767D1*
X4730873Y6996767D2*
Y7072623D1*
X5095873D1*
X-3Y2238373D2*
Y4683123D1*
X31747D2*
G02X31747Y4683123I158750J0D01*
G01*
Y2270123D2*
G02X31747Y2270123I158750J0D01*
G01*
X4730747Y2285998D2*
G02X4730747Y2285998I142875J0D01*
G01*
Y4667248D2*
G02X4730747Y4667248I142875J0D01*
G01*
X-3Y4714873D2*
G02X158747Y4873623I158750J0D01*
G01*
X4889497D2*
G02X5079997Y4683123I-2J-190502D01*
G01*
Y2270123D2*
G02X4889497Y2079623I-190502J2D01*
G01*
X158747D2*
G02X-3Y2238373I0J158750D01*
G01*
Y4714873D2*
Y4683123D1*
X158747Y4873623D2*
X4889497D1*
X5079997Y4683123D2*
Y2270123D1*
X4889497Y2079623D2*
X158747D1*
X6492873Y2317750D2*
Y5111750D1*
X5222873D1*
Y2317750D1*
X6492873D1*
X3730623Y5206997D2*
X4619623D1*
X3476623D2*
G02X3730623Y5206997I127000J0D01*
G01*
X4619623D2*
Y7238997D1*
X2587623D1*
Y5206997D1*
X3476623D1*
X6003623Y1634123D2*
X6033623D1*
Y874123D1*
X6003623D1*
X5013623Y1634123D2*
X4983623D1*
Y874123D1*
X5013623D1*
G36*
X5997623Y711123D2*
X5997837Y714386D1*
X5998475Y717594D1*
X5999526Y720690D1*
X6000973Y723623D1*
X6002789Y726342D1*
X6004946Y728801D1*
X6007404Y730957D1*
X6010123Y732774D1*
X6013056Y734220D1*
X6016153Y735271D1*
X6019360Y735909D1*
X6022623Y736123D1*
X6025886Y735909D1*
X6029094Y735271D1*
X6032190Y734220D1*
X6035123Y732774D1*
X6037842Y730957D1*
X6040301Y728801D1*
X6042457Y726342D1*
X6044274Y723623D1*
X6045720Y720690D1*
X6046771Y717594D1*
X6047409Y714386D1*
X6047623Y711123D1*
D1*
X6047409Y707860D1*
X6046771Y704653D1*
X6045720Y701556D1*
X6044274Y698623D1*
X6042457Y695904D1*
X6040301Y693446D1*
X6037842Y691289D1*
X6035123Y689473D1*
X6032190Y688026D1*
X6029094Y686975D1*
X6025886Y686337D1*
X6022623Y686123D1*
X6019360Y686337D1*
X6016153Y686975D1*
X6013056Y688026D1*
X6010123Y689473D1*
X6007404Y691289D1*
X6004946Y693446D1*
X6002789Y695904D1*
X6000973Y698623D1*
X5999526Y701556D1*
X5998475Y704653D1*
X5997837Y707860D1*
X5997623Y711123D1*
D1*
G37*
X6048373Y7254873D2*
D10*
Y6588127D1*
X7064373D1*
Y7254873D1*
X6048373D1*
X1522123Y1089373D2*
X2022123D1*
Y1609373D1*
X1522123D1*
Y1089373D1*
X1782123Y1609373D2*
X1522123Y1349373D1*
X646123Y1912373D2*
X-183877D1*
Y532373D1*
X646123D1*
X1066123D2*
X1236123D1*
Y1912373D1*
X1066123D1*
X587375Y6572247D2*
Y6699247D1*
X-174625D2*
Y4921247D1*
X587375D2*
Y5048247D1*
Y6699247D2*
X-174625D1*
X587375Y4921247D2*
X-174625D1*
X9175747Y5461000D2*
X9493247D1*
Y1809747D1*
X9175747D1*
Y5461000D1*
X8064500Y4445000D2*
X8413747D1*
Y3333747D1*
X8064500D1*
Y4445000D1*
X7942048Y3578140D2*
D55*
X7814439D1*
X7942048Y3493067D1*
X7814439D1*
X7942048Y3696252D2*
Y3617356D1*
X7814439D1*
Y3696252D1*
X7881262Y3617356D2*
Y3665929D1*
X7942048Y3735468D2*
X7814439Y3820541D1*
X7942048D2*
X7814439Y3735468D1*
X7942048Y3902293D2*
X7814439D1*
X7942048Y3859757D2*
Y3944830D1*
Y3984045D2*
X7814439D1*
X7942048Y4059761D2*
X7936012Y4047548D1*
X7923798Y4035475D1*
X7911725Y4029298D1*
X7893475Y4023261D1*
X7863012D1*
X7844902Y4029298D1*
X7832689Y4035475D1*
X7820616Y4047548D1*
X7814439Y4059761D1*
Y4084048D1*
X7820616Y4096121D1*
X7832689Y4108334D1*
X7844902Y4114371D1*
X7863012Y4120407D1*
X7893475D1*
X7911725Y4114371D1*
X7923798Y4108334D1*
X7936012Y4096121D1*
X7942048Y4084048D1*
Y4059761D1*
Y4244696D2*
X7814439D1*
X7942048Y4159623D1*
X7814439D1*
X9053298Y3571483D2*
X8925689D1*
X9053298Y3610699D2*
X8925689D1*
Y3683558D1*
X9053298Y3722774D2*
X8925689D1*
X9010762Y3841026D2*
X8992512Y3834849D1*
X8980298Y3822776D1*
X8974262Y3804526D1*
Y3798490D1*
X8980298Y3780240D1*
X8992512Y3768167D1*
X9010762Y3761990D1*
X9016798D1*
X9035048Y3768167D1*
X9047121Y3780240D1*
X9053158Y3798490D1*
Y3804526D1*
X9047121Y3822776D1*
X9035048Y3834849D1*
X9010762Y3841026D1*
X8980298D1*
X8949975Y3834849D1*
X8931725Y3822776D1*
X8925689Y3804526D1*
Y3792453D1*
X8931725Y3774203D1*
X8943939Y3768167D1*
X9053158Y3892455D2*
Y3959138D1*
X9004585Y3922778D1*
Y3941028D1*
X8998548Y3953102D1*
X8992512Y3959138D1*
X8974262Y3965315D1*
X8962189D1*
X8943939Y3959138D1*
X8931725Y3947065D1*
X8925689Y3928815D1*
Y3910565D1*
X8931725Y3892455D1*
X8937902Y3886419D1*
X8949975Y3880242D1*
X8925689Y4065317D2*
X9053158D1*
X8968225Y4004531D1*
Y4095640D1*
X9028871Y4134856D2*
X9035048Y4147069D1*
X9053158Y4165319D1*
X8925689D1*
X2104769Y5637798D2*
X2116843Y5650012D1*
X2135093Y5656048D1*
X2159379D1*
X2177629Y5650012D1*
X2189843Y5637798D1*
Y5625725D1*
X2183666Y5613512D1*
X2177629Y5607475D1*
X2165556Y5601439D1*
X2129056Y5589225D1*
X2116843Y5583189D1*
X2110806Y5577012D1*
X2104769Y5564939D1*
Y5546689D1*
X2116843Y5534616D1*
X2135093Y5528439D1*
X2159379D1*
X2177629Y5534616D1*
X2189843Y5546689D1*
X2065554Y5589225D2*
X2010804D1*
X1992694Y5595262D1*
X1986517Y5601439D1*
X1980481Y5613512D1*
Y5631762D1*
X1986517Y5643835D1*
X1992694Y5650012D1*
X2010804Y5656048D1*
X2065554D1*
Y5528439D1*
X1862369Y5656048D2*
X1941265D1*
Y5528439D1*
X1862369D1*
X1941265Y5595262D2*
X1892692D1*
X1725867Y5528439D2*
X1774580Y5656048D1*
X1823153Y5528439D1*
X1804903Y5570975D2*
X1744117D1*
X1686651Y5656048D2*
Y5528439D1*
X1601578Y5656048D2*
X1686651Y5570975D1*
X1656328Y5601439D2*
X1601578Y5528439D1*
X1483466Y5656048D2*
X1562362D1*
Y5528439D1*
X1483466D1*
X1562362Y5595262D2*
X1513789D1*
X1444250D2*
X1389641D1*
X1371391Y5601439D1*
X1365214Y5607475D1*
X1359177Y5619548D1*
Y5631762D1*
X1365214Y5643835D1*
X1371391Y5650012D1*
X1389641Y5656048D1*
X1444250D1*
Y5528439D1*
X1401714Y5595262D2*
X1359177Y5528439D1*
X8609580Y324408D2*
D56*
X8573024Y171276D1*
X8536636Y324408D1*
X8500249Y171276D1*
X8463693Y324408D1*
X8397026Y229564D2*
X8309594D1*
Y244220D1*
X8316838Y258876D1*
X8324082Y266120D1*
X8338738Y273364D1*
X8360638D1*
X8375126Y266120D1*
X8389782Y251464D1*
X8397026Y229564D1*
Y215076D1*
X8389782Y193176D1*
X8375126Y178689D1*
X8360638Y171276D1*
X8338738D1*
X8324082Y178689D1*
X8309594Y193176D1*
X8155496Y273364D2*
Y171276D1*
Y251464D2*
X8169984Y266120D1*
X8184640Y273364D1*
X8206372D1*
X8221028Y266120D1*
X8235515Y251464D1*
X8242928Y229564D1*
Y215076D1*
X8235515Y193176D1*
X8221028Y178689D1*
X8206372Y171276D1*
X8184640D1*
X8169984Y178689D1*
X8155496Y193176D1*
X8066929Y324408D2*
Y200420D1*
X8059686Y178689D1*
X8045029Y171276D1*
X8030542D1*
X8088829Y273364D2*
X8037786D1*
X7963875Y324408D2*
Y171276D1*
Y244220D2*
X7941975Y266120D1*
X7927319Y273364D1*
X7905419D1*
X7890931Y266120D1*
X7883687Y244220D1*
Y171276D1*
X7817021Y229564D2*
X7729589D1*
Y244220D1*
X7736833Y258876D1*
X7744077Y266120D1*
X7758733Y273364D1*
X7780633D1*
X7795121Y266120D1*
X7809777Y251464D1*
X7817021Y229564D1*
Y215076D1*
X7809777Y193176D1*
X7795121Y178689D1*
X7780633Y171276D1*
X7758733D1*
X7744077Y178689D1*
X7729589Y193176D1*
X7662923Y273364D2*
Y171276D1*
Y229564D2*
X7655510Y251464D1*
X7641023Y266120D1*
X7626366Y273364D1*
X7604466D1*
X7370056D2*
Y171276D1*
Y244220D2*
X7348156Y266120D1*
X7333500Y273364D1*
X7311768D1*
X7297112Y266120D1*
X7289868Y244220D1*
Y171276D1*
Y244220D2*
X7267968Y266120D1*
X7253312Y273364D1*
X7231581D1*
X7216925Y266120D1*
X7209512Y244220D1*
Y171276D1*
X7106458Y273364D2*
X7120946Y266120D1*
X7135602Y251464D1*
X7142846Y229564D1*
Y215076D1*
X7135602Y193176D1*
X7120946Y178689D1*
X7106458Y171276D1*
X7084558D1*
X7069902Y178689D1*
X7055414Y193176D1*
X7048002Y215076D1*
Y229564D1*
X7055414Y251464D1*
X7069902Y266120D1*
X7084558Y273364D1*
X7106458D1*
X6981335D2*
Y171276D1*
Y244220D2*
X6959435Y266120D1*
X6944779Y273364D1*
X6923047D1*
X6908391Y266120D1*
X6901147Y244220D1*
Y171276D1*
X6834481Y324408D2*
X6827237Y317164D1*
X6819825Y324408D1*
X6827237Y331820D1*
X6834481Y324408D1*
X6827237Y273364D2*
Y171276D1*
X6731258Y324408D2*
Y200420D1*
X6724014Y178689D1*
X6709358Y171276D1*
X6694870D1*
X6753158Y273364D2*
X6702114D1*
X6591816D2*
X6606304Y266120D1*
X6620960Y251464D1*
X6628204Y229564D1*
Y215076D1*
X6620960Y193176D1*
X6606304Y178689D1*
X6591816Y171276D1*
X6569916D1*
X6555260Y178689D1*
X6540772Y193176D1*
X6533360Y215076D1*
Y229564D1*
X6540772Y251464D1*
X6555260Y266120D1*
X6569916Y273364D1*
X6591816D1*
X6466693D2*
Y171276D1*
Y229564D2*
X6459281Y251464D1*
X6444793Y266120D1*
X6430137Y273364D1*
X6408237D1*
X6173827Y324408D2*
Y171276D1*
X6108127D1*
X6086227Y178689D1*
X6078983Y185933D1*
X6071739Y200420D1*
Y222320D1*
X6078983Y236976D1*
X6086227Y244220D1*
X6108127Y251464D1*
X6086227Y258876D1*
X6078983Y266120D1*
X6071739Y280608D1*
Y295264D1*
X6078983Y309752D1*
X6086227Y317164D1*
X6108127Y324408D1*
X6173827D1*
Y251464D2*
X6108127D1*
X6005072Y324408D2*
Y171276D1*
X5821830D2*
Y324408D1*
X5880118Y171276D1*
X5938406Y324408D1*
Y171276D1*
X5740507Y324239D2*
X5660488D1*
X5704120Y265952D1*
X5682220D1*
X5667732Y258708D1*
X5660488Y251464D1*
X5653076Y229564D1*
Y215076D1*
X5660488Y193176D1*
X5674976Y178520D1*
X5696876Y171276D1*
X5718776D1*
X5740507Y178520D1*
X5747751Y185933D1*
X5755164Y200420D1*
X5578997Y287852D2*
Y295096D1*
X5571753Y309752D1*
X5564509Y316996D1*
X5549853Y324239D1*
X5520709D1*
X5506222Y316996D1*
X5498978Y309752D1*
X5491565Y295096D1*
Y280608D1*
X5498978Y265952D1*
X5513465Y244220D1*
X5586409Y171276D1*
X5484322D1*
X5249911Y251464D2*
X5184380D1*
X5162480Y258876D1*
X5155067Y266120D1*
X5147824Y280608D1*
Y295264D1*
X5155067Y309752D1*
X5162480Y317164D1*
X5184380Y324408D1*
X5249911D1*
Y171276D1*
X5198867Y251464D2*
X5147824Y171276D1*
X5081157Y229564D2*
X4993725D1*
Y244220D1*
X5000969Y258876D1*
X5008213Y266120D1*
X5022869Y273364D1*
X5044769D1*
X5059257Y266120D1*
X5073913Y251464D1*
X5081157Y229564D1*
Y215076D1*
X5073913Y193176D1*
X5059257Y178689D1*
X5044769Y171276D1*
X5022869D1*
X5008213Y178689D1*
X4993725Y193176D1*
X4927059Y273364D2*
X4883259Y171276D1*
X4839627Y273364D1*
X4765717Y185933D2*
X4772961Y178520D1*
X4765717Y171276D1*
X4758304Y178520D1*
X4765717Y185933D1*
X4574894Y171276D2*
X4633350Y324408D1*
X4691638Y171276D1*
X4669738Y222320D2*
X4596794D1*
X4464427Y324239D2*
X4486327Y316996D1*
X4500983Y295096D1*
X4508227Y258708D1*
Y236808D1*
X4500983Y200420D1*
X4486327Y178520D1*
X4464427Y171276D1*
X4449939D1*
X4428039Y178520D1*
X4413552Y200420D1*
X4406139Y236808D1*
Y258708D1*
X4413552Y295096D1*
X4428039Y316996D1*
X4449939Y324239D1*
X4464427D1*
X4413552Y295096D2*
X4500983Y200420D1*
X4339473Y295096D2*
X4324817Y302508D1*
X4302917Y324239D1*
Y171276D1*
X5980412Y6109832D2*
D55*
X5852802D1*
Y6164582D1*
X5858979Y6182832D1*
X5865015Y6188869D1*
X5877089Y6194905D1*
X5895339D1*
X5907552Y6188869D1*
X5913589Y6182832D1*
X5919625Y6164582D1*
X5925802Y6182832D1*
X5931839Y6188869D1*
X5943912Y6194905D1*
X5956125D1*
X5968198Y6188869D1*
X5974375Y6182832D1*
X5980412Y6164582D1*
Y6109832D1*
X5919625D2*
Y6164582D1*
X5980412Y6234121D2*
X5852802D1*
X5980412Y6319194D2*
X5852802D1*
X5919625Y6234121D2*
Y6319194D1*
X5955985Y6358410D2*
X5962162Y6370623D1*
X5980271Y6388873D1*
X5852802D1*
Y6452375D2*
X5980271Y6513162D1*
Y6428089D1*
Y6625237D2*
Y6564591D1*
X5925662Y6558554D1*
X5931698Y6564591D1*
X5937875Y6582841D1*
Y6600951D1*
X5931698Y6619201D1*
X5919625Y6631414D1*
X5901375Y6637451D1*
X5889302D1*
X5871052Y6631414D1*
X5858839Y6619201D1*
X5852802Y6600951D1*
Y6582841D1*
X5858839Y6564591D1*
X5865015Y6558554D1*
X5877089Y6552378D1*
X5980271Y6713166D2*
X5974235Y6694916D1*
X5955985Y6682703D1*
X5925662Y6676666D1*
X5907412D1*
X5877089Y6682703D1*
X5858839Y6694916D1*
X5852802Y6713166D1*
Y6725239D1*
X5858839Y6743489D1*
X5877089Y6755562D1*
X5907412Y6761739D1*
X5925662D1*
X5955985Y6755562D1*
X5974235Y6743489D1*
X5980271Y6725239D1*
Y6713166D1*
X5955985Y6755562D2*
X5877089Y6682703D1*
X7994257Y2871542D2*
Y2743932D1*
X7939507D1*
X7921257Y2750109D1*
X7915221Y2756145D1*
X7909184Y2768218D1*
Y2786468D1*
X7915221Y2798682D1*
X7921257Y2804718D1*
X7939507Y2810755D1*
X7921257Y2816932D1*
X7915221Y2822968D1*
X7909184Y2835042D1*
Y2847255D1*
X7915221Y2859328D1*
X7921257Y2865505D1*
X7939507Y2871542D1*
X7994257D1*
Y2810755D2*
X7939507D1*
X7772682Y2743932D2*
X7821395Y2871542D1*
X7869968Y2743932D1*
X7851718Y2786468D2*
X7790932D1*
X7690930Y2871542D2*
Y2743932D1*
X7733466Y2871542D2*
X7648393D1*
X7473518Y2871401D2*
X7406835D1*
X7443194Y2822828D1*
X7424944D1*
X7412871Y2816792D1*
X7406835Y2810755D1*
X7400658Y2792505D1*
Y2780432D1*
X7406835Y2762182D1*
X7418908Y2749968D1*
X7437158Y2743932D1*
X7455408D1*
X7473518Y2749968D1*
X7479554Y2756145D1*
X7485731Y2768218D1*
X7361442Y2871542D2*
X7312869Y2743932D1*
X7264296Y2871542D1*
X7258986Y5913313D2*
X7277236Y5907276D1*
X7289450Y5889026D1*
X7295486Y5858703D1*
Y5840453D1*
X7289450Y5810130D1*
X7277236Y5791880D1*
X7258986Y5785844D1*
X7246913D1*
X7228663Y5791880D1*
X7216590Y5810130D1*
X7210413Y5840453D1*
Y5858703D1*
X7216590Y5889026D1*
X7228663Y5907276D1*
X7246913Y5913313D1*
X7258986D1*
X7216590Y5889026D2*
X7289450Y5810130D1*
X7165161Y5798057D2*
X7171197Y5791880D1*
X7165161Y5785844D1*
X7158984Y5791880D1*
X7165161Y5798057D1*
X7119768Y5889026D2*
X7107555Y5895203D1*
X7089305Y5913313D1*
Y5785844D1*
X7050089Y5870917D2*
Y5810130D1*
X7044053Y5792021D1*
X7031839Y5785844D1*
X7013589D1*
X7001516Y5792021D1*
X6983266Y5810130D1*
Y5870917D2*
Y5785844D1*
X6865014Y5913453D2*
X6944050D1*
Y5785844D1*
Y5852667D2*
X6895477D1*
X2772220Y122887D2*
X2766183Y104637D1*
X2747933Y92424D1*
X2717610Y86387D1*
X2699360D1*
X2669037Y92424D1*
X2650787Y104637D1*
X2644750Y122887D1*
Y134960D1*
X2650787Y153210D1*
X2669037Y165283D1*
X2699360Y171460D1*
X2717610D1*
X2747933Y165283D1*
X2766183Y153210D1*
X2772220Y134960D1*
Y122887D1*
X2747933Y165283D2*
X2669037Y92424D1*
X2656964Y216712D2*
X2650787Y210676D1*
X2644750Y216712D1*
X2650787Y222889D1*
X2656964Y216712D1*
X2747933Y262105D2*
X2754110Y274319D1*
X2772220Y292569D1*
X2644750D1*
X2729823Y331784D2*
X2669037D1*
X2650927Y337821D1*
X2644750Y350034D1*
Y368284D1*
X2650927Y380357D1*
X2669037Y398607D1*
X2729823D2*
X2644750D1*
X2772360Y516860D2*
Y437823D1*
X2644750D1*
X2711573D2*
Y486396D1*
X1051860Y7137846D2*
X1070110Y7131810D1*
X1082323Y7113560D1*
X1088360Y7083237D1*
Y7064987D1*
X1082323Y7034664D1*
X1070110Y7016414D1*
X1051860Y7010377D1*
X1039786D1*
X1021536Y7016414D1*
X1009463Y7034664D1*
X1003286Y7064987D1*
Y7083237D1*
X1009463Y7113560D1*
X1021536Y7131810D1*
X1039786Y7137846D1*
X1051860D1*
X1009463Y7113560D2*
X1082323Y7034664D1*
X958034Y7022590D2*
X964071Y7016414D1*
X958034Y7010377D1*
X951857Y7016414D1*
X958034Y7022590D1*
X912642Y7113560D2*
X900428Y7119737D1*
X882178Y7137846D1*
Y7010377D1*
X842962Y7095450D2*
Y7034664D1*
X836926Y7016554D1*
X824712Y7010377D1*
X806462D1*
X794389Y7016554D1*
X776139Y7034664D1*
Y7095450D2*
Y7010377D1*
X657887Y7137987D2*
X736924D1*
Y7010377D1*
Y7077200D2*
X688351D1*
X6276280Y615010D2*
X6270243Y596760D1*
X6251993Y584547D1*
X6221670Y578510D1*
X6203420D1*
X6173097Y584547D1*
X6154847Y596760D1*
X6148810Y615010D1*
Y627084D1*
X6154847Y645334D1*
X6173097Y657407D1*
X6203420Y663584D1*
X6221670D1*
X6251993Y657407D1*
X6270243Y645334D1*
X6276280Y627084D1*
Y615010D1*
X6251993Y657407D2*
X6173097Y584547D1*
X6161024Y708836D2*
X6154847Y702799D1*
X6148810Y708836D1*
X6154847Y715013D1*
X6161024Y708836D1*
X6251993Y754228D2*
X6258170Y766442D1*
X6276280Y784692D1*
X6148810D1*
X6233883Y823908D2*
X6173097D1*
X6154987Y829944D1*
X6148810Y842158D1*
Y860408D1*
X6154987Y872481D1*
X6173097Y890731D1*
X6233883D2*
X6148810D1*
X6276420Y1008983D2*
Y929946D1*
X6148810D1*
X6215633D2*
Y978519D1*
X2418656Y122887D2*
X2412620Y104637D1*
X2394370Y92424D1*
X2364047Y86387D1*
X2345797D1*
X2315474Y92424D1*
X2297224Y104637D1*
X2291187Y122887D1*
Y134960D1*
X2297224Y153210D1*
X2315474Y165283D1*
X2345797Y171460D1*
X2364047D1*
X2394370Y165283D1*
X2412620Y153210D1*
X2418656Y134960D1*
Y122887D1*
X2394370Y165283D2*
X2315474Y92424D1*
X2303400Y216712D2*
X2297224Y210676D1*
X2291187Y216712D1*
X2297224Y222889D1*
X2303400Y216712D1*
X2394370Y262105D2*
X2400547Y274319D1*
X2418656Y292569D1*
X2291187D1*
X2376260Y331784D2*
X2315474D1*
X2297364Y337821D1*
X2291187Y350034D1*
Y368284D1*
X2297364Y380357D1*
X2315474Y398607D1*
X2376260D2*
X2291187D1*
X2418797Y516860D2*
Y437823D1*
X2291187D1*
X2358010D2*
Y486396D1*
X8592483Y2946846D2*
X8610733Y2940810D1*
X8622946Y2922560D1*
X8628983Y2892237D1*
Y2873987D1*
X8622946Y2843664D1*
X8610733Y2825414D1*
X8592483Y2819377D1*
X8580410D1*
X8562160Y2825414D1*
X8550087Y2843664D1*
X8543910Y2873987D1*
Y2892237D1*
X8550087Y2922560D1*
X8562160Y2940810D1*
X8580410Y2946846D1*
X8592483D1*
X8550087Y2922560D2*
X8622946Y2843664D1*
X8498658Y2831590D2*
X8504694Y2825414D1*
X8498658Y2819377D1*
X8492481Y2825414D1*
X8498658Y2831590D1*
X8453265Y2922560D2*
X8441051Y2928737D1*
X8422801Y2946846D1*
Y2819377D1*
X8383586Y2904450D2*
Y2843664D1*
X8377549Y2825554D1*
X8365336Y2819377D1*
X8347086D1*
X8335013Y2825554D1*
X8316763Y2843664D1*
Y2904450D2*
Y2819377D1*
X8198510Y2946987D2*
X8277547D1*
Y2819377D1*
Y2886200D2*
X8228974D1*
X8443166Y5507433D2*
X8430953Y5513610D1*
X8412703Y5531720D1*
Y5404250D1*
X8336987Y5531720D2*
X8355237Y5525683D1*
X8367450Y5507433D1*
X8373487Y5477110D1*
Y5458860D1*
X8367450Y5428537D1*
X8355237Y5410287D1*
X8336987Y5404250D1*
X8324914D1*
X8306664Y5410287D1*
X8294591Y5428537D1*
X8288414Y5458860D1*
Y5477110D1*
X8294591Y5507433D1*
X8306664Y5525683D1*
X8324914Y5531720D1*
X8336987D1*
X8294591Y5507433D2*
X8367450Y5428537D1*
X8212698Y5531720D2*
X8230948Y5525683D1*
X8243162Y5507433D1*
X8249198Y5477110D1*
Y5458860D1*
X8243162Y5428537D1*
X8230948Y5410287D1*
X8212698Y5404250D1*
X8200625D1*
X8182375Y5410287D1*
X8170302Y5428537D1*
X8164125Y5458860D1*
Y5477110D1*
X8170302Y5507433D1*
X8182375Y5525683D1*
X8200625Y5531720D1*
X8212698D1*
X8170302Y5507433D2*
X8243162Y5428537D1*
X8124909Y5489323D2*
Y5428537D1*
X8118873Y5410427D1*
X8106659Y5404250D1*
X8088409D1*
X8076336Y5410427D1*
X8058086Y5428537D1*
Y5489323D2*
Y5404250D1*
X7939834Y5531860D2*
X8018871D1*
Y5404250D1*
Y5471073D2*
X7970297D1*
X3696539Y555620D2*
X3684326Y561797D1*
X3666076Y579906D1*
Y452437D1*
X3590360Y579906D2*
X3608610Y573870D1*
X3620824Y555620D1*
X3626860Y525297D1*
Y507047D1*
X3620824Y476724D1*
X3608610Y458474D1*
X3590360Y452437D1*
X3578287D1*
X3560037Y458474D1*
X3547964Y476724D1*
X3541787Y507047D1*
Y525297D1*
X3547964Y555620D1*
X3560037Y573870D1*
X3578287Y579906D1*
X3590360D1*
X3547964Y555620D2*
X3620824Y476724D1*
X3466071Y579906D2*
X3484321Y573870D1*
X3496535Y555620D1*
X3502571Y525297D1*
Y507047D1*
X3496535Y476724D1*
X3484321Y458474D1*
X3466071Y452437D1*
X3453998D1*
X3435748Y458474D1*
X3423675Y476724D1*
X3417498Y507047D1*
Y525297D1*
X3423675Y555620D1*
X3435748Y573870D1*
X3453998Y579906D1*
X3466071D1*
X3423675Y555620D2*
X3496535Y476724D1*
X3378283Y537510D2*
Y476724D1*
X3372246Y458614D1*
X3360033Y452437D1*
X3341783D1*
X3329710Y458614D1*
X3311460Y476724D1*
Y537510D2*
Y452437D1*
X3193207Y580047D2*
X3272244D1*
Y452437D1*
Y519260D2*
X3223671D1*
X2051507Y610483D2*
Y482874D1*
X1927218Y610483D2*
Y482874D1*
X2012291Y610483D1*
Y482874D1*
X1827216D2*
Y610343D1*
X1888002Y525410D1*
X1796893D1*
X1757677Y586056D2*
X1745464Y592233D1*
X1727214Y610343D1*
Y482874D1*
X1627211D2*
Y610343D1*
X1687998Y525410D1*
X1596888D1*
X1527350Y610343D2*
X1545459Y604306D1*
X1551636Y592233D1*
Y580020D1*
X1545459Y567947D1*
X1533386Y561770D1*
X1509100Y555733D1*
X1490850Y549697D1*
X1478776Y537483D1*
X1472740Y525410D1*
Y507160D1*
X1478776Y495087D1*
X1484813Y488910D1*
X1503063Y482874D1*
X1527350D1*
X1545459Y488910D1*
X1551636Y495087D1*
X1557673Y507160D1*
Y525410D1*
X1551636Y537483D1*
X1539423Y549697D1*
X1521313Y555733D1*
X1497026Y561770D1*
X1484813Y567947D1*
X1478776Y580020D1*
Y592233D1*
X1484813Y604306D1*
X1503063Y610343D1*
X1527350D1*
X5212652Y5484274D2*
Y5611743D1*
X5273439Y5526810D1*
X5182329D1*
X5143113Y5611883D2*
Y5484274D1*
X5082327Y5569347D2*
X5143113Y5508560D1*
X5118827Y5532847D2*
X5076290Y5484274D1*
X5012788D2*
X4952001Y5611743D1*
X5037075D1*
X7157552Y5579743D2*
X7145339Y5585920D1*
X7127089Y5604030D1*
Y5476560D1*
X7051373Y5604030D2*
X7069623Y5597993D1*
X7081836Y5579743D1*
X7087873Y5549420D1*
Y5531170D1*
X7081836Y5500847D1*
X7069623Y5482597D1*
X7051373Y5476560D1*
X7039300D1*
X7021050Y5482597D1*
X7008977Y5500847D1*
X7002800Y5531170D1*
Y5549420D1*
X7008977Y5579743D1*
X7021050Y5597993D1*
X7039300Y5604030D1*
X7051373D1*
X7008977Y5579743D2*
X7081836Y5500847D1*
X6963584Y5604170D2*
Y5476560D1*
X6902798Y5561633D2*
X6963584Y5500847D1*
X6939298Y5525133D2*
X6896761Y5476560D1*
X6414644Y5700257D2*
X6420680Y5712330D1*
X6432894Y5724543D1*
X6444967Y5730580D1*
X6469253D1*
X6481467Y5724543D1*
X6493540Y5712330D1*
X6499717Y5700257D1*
X6505753Y5682007D1*
Y5651543D1*
X6499717Y5633434D1*
X6493540Y5621220D1*
X6481467Y5609147D1*
X6469253Y5602970D1*
X6444967D1*
X6432894Y5609147D1*
X6420680Y5621220D1*
X6414644Y5633434D1*
Y5651543D1*
X6444967D1*
X6375428Y5730580D2*
Y5602970D1*
X6302568D1*
X6190493Y5730440D2*
X6251139D1*
X6257176Y5675830D1*
X6251139Y5681866D1*
X6232889Y5688043D1*
X6214779D1*
X6196529Y5681866D1*
X6184316Y5669793D1*
X6178279Y5651543D1*
Y5639470D1*
X6184316Y5621220D1*
X6196529Y5609007D1*
X6214779Y5602970D1*
X6232889D1*
X6251139Y5609007D1*
X6257176Y5615184D1*
X6263353Y5627257D1*
X6066204Y5730440D2*
X6126850D1*
X6132887Y5675830D1*
X6126850Y5681866D1*
X6108600Y5688043D1*
X6090491D1*
X6072241Y5681866D1*
X6060027Y5669793D1*
X6053991Y5651543D1*
Y5639470D1*
X6060027Y5621220D1*
X6072241Y5609007D1*
X6090491Y5602970D1*
X6108600D1*
X6126850Y5609007D1*
X6132887Y5615184D1*
X6139064Y5627257D1*
X6008598Y5700116D2*
Y5706153D1*
X6002562Y5718366D1*
X5996525Y5724403D1*
X5984312Y5730440D1*
X5960025D1*
X5947952Y5724403D1*
X5941915Y5718366D1*
X5935738Y5706153D1*
Y5694080D1*
X5941915Y5681866D1*
X5953988Y5663757D1*
X6014775Y5602970D1*
X5929702D1*
X5860163Y5730440D2*
X5878273Y5724403D1*
X5884450Y5712330D1*
Y5700116D1*
X5878273Y5688043D1*
X5866200Y5681866D1*
X5841913Y5675830D1*
X5823663Y5669793D1*
X5811590Y5657580D1*
X5805554Y5645507D1*
Y5627257D1*
X5811590Y5615184D1*
X5817627Y5609007D1*
X5835877Y5602970D1*
X5860163D1*
X5878273Y5609007D1*
X5884450Y5615184D1*
X5890486Y5627257D1*
Y5645507D1*
X5884450Y5657580D1*
X5872236Y5669793D1*
X5854127Y5675830D1*
X5829840Y5681866D1*
X5817627Y5688043D1*
X5811590Y5700116D1*
Y5712330D1*
X5817627Y5724403D1*
X5835877Y5730440D1*
X5860163D1*
X3846432Y1257814D2*
Y1385283D1*
X3907219Y1300350D1*
X3816109D1*
X3776893Y1385423D2*
Y1257814D1*
X3716107Y1342887D2*
X3776893Y1282100D1*
X3752607Y1306387D2*
X3710070Y1257814D1*
X3646568D2*
X3585781Y1385283D1*
X3670855D1*
X3206440Y1487568D2*
X3333910D1*
X3248977Y1426781D1*
Y1517891D1*
X3334050Y1557107D2*
X3206440D1*
X3291513Y1617893D2*
X3230727Y1557107D1*
X3255013Y1581393D2*
X3206440Y1623930D1*
Y1687432D2*
X3333910Y1748219D1*
Y1663145D1*
X2625877Y1487568D2*
X2753346D1*
X2668414Y1426781D1*
Y1517891D1*
X2753487Y1557107D2*
X2625877D1*
X2710950Y1617893D2*
X2650164Y1557107D1*
X2674450Y1581393D2*
X2625877Y1623930D1*
Y1687432D2*
X2753346Y1748219D1*
Y1663145D1*
X5910179Y2126937D2*
Y2254406D1*
X5970965Y2169474D1*
X5879856D1*
X5840640Y2254547D2*
Y2126937D1*
X5779853Y2212010D2*
X5840640Y2151224D1*
X5816353Y2175510D2*
X5773817Y2126937D1*
X5710315D2*
X5649528Y2254406D1*
X5734601D1*
X6620702Y2006750D2*
Y2134220D1*
X6681489Y2049287D1*
X6590379D1*
X6551163Y2134360D2*
Y2006750D1*
X6490377Y2091823D2*
X6551163Y2031037D1*
X6526877Y2055323D2*
X6484340Y2006750D1*
X6420838D2*
X6360051Y2134220D1*
X6445125D1*
X2417682Y1257814D2*
Y1385283D1*
X2478469Y1300350D1*
X2387359D1*
X2348143Y1385423D2*
Y1257814D1*
X2287357Y1342887D2*
X2348143Y1282100D1*
X2323857Y1306387D2*
X2281320Y1257814D1*
X2217818D2*
X2157031Y1385283D1*
X2242105D1*
X8414742Y6359550D2*
Y6231940D1*
X8372206D1*
X8353956Y6238117D1*
X8341742Y6250190D1*
X8335706Y6262404D1*
X8329669Y6280513D1*
Y6310977D1*
X8335706Y6329227D1*
X8341742Y6341300D1*
X8353956Y6353513D1*
X8372206Y6359550D1*
X8414742D1*
X8290454D2*
Y6231940D1*
X8166165Y6341300D2*
X8178238Y6353513D1*
X8196488Y6359550D1*
X8220774D1*
X8239024Y6353513D1*
X8251238Y6341300D1*
Y6329227D1*
X8245061Y6317013D1*
X8239024Y6310977D1*
X8226951Y6304940D1*
X8190451Y6292727D1*
X8178238Y6286690D1*
X8172201Y6280513D1*
X8166165Y6268440D1*
Y6250190D1*
X8178238Y6238117D1*
X8196488Y6231940D1*
X8220774D1*
X8239024Y6238117D1*
X8251238Y6250190D1*
X8126949Y6292727D2*
X8072199D1*
X8054090Y6298763D1*
X8047913Y6304940D1*
X8041876Y6317013D1*
Y6335263D1*
X8047913Y6347336D1*
X8054090Y6353513D1*
X8072199Y6359550D1*
X8126949D1*
Y6231940D1*
X8002660Y6359550D2*
Y6231940D1*
X7929801D1*
X7793299D2*
X7842012Y6359550D1*
X7890585Y6231940D1*
X7872335Y6274477D2*
X7811549D1*
X7754083Y6359550D2*
X7705510Y6298763D1*
Y6231940D1*
X7656937Y6359550D2*
X7705510Y6298763D1*
X7617721Y6335123D2*
X7605508Y6341300D1*
X7587258Y6359410D1*
Y6231940D1*
X2060294Y6384107D2*
Y6256497D1*
X2017757D1*
X1999507Y6262674D1*
X1987294Y6274747D1*
X1981257Y6286960D1*
X1975221Y6305070D1*
Y6335534D1*
X1981257Y6353784D1*
X1987294Y6365857D1*
X1999507Y6378070D1*
X2017757Y6384107D1*
X2060294D1*
X1936005D2*
Y6256497D1*
X1811716Y6365857D2*
X1823789Y6378070D1*
X1842039Y6384107D1*
X1866326D1*
X1884576Y6378070D1*
X1896789Y6365857D1*
Y6353784D1*
X1890613Y6341570D1*
X1884576Y6335534D1*
X1872503Y6329497D1*
X1836003Y6317284D1*
X1823789Y6311247D1*
X1817753Y6305070D1*
X1811716Y6292997D1*
Y6274747D1*
X1823789Y6262674D1*
X1842039Y6256497D1*
X1866326D1*
X1884576Y6262674D1*
X1896789Y6274747D1*
X1772501Y6317284D2*
X1717751D1*
X1699641Y6323320D1*
X1693464Y6329497D1*
X1687428Y6341570D1*
Y6359820D1*
X1693464Y6371893D1*
X1699641Y6378070D1*
X1717751Y6384107D1*
X1772501D1*
Y6256497D1*
X1648212Y6384107D2*
Y6256497D1*
X1575352D1*
X1438850D2*
X1487564Y6384107D1*
X1536137Y6256497D1*
X1517887Y6299034D2*
X1457100D1*
X1399634Y6384107D2*
X1351061Y6323320D1*
Y6256497D1*
X1302488Y6384107D2*
X1351061Y6323320D1*
X1257096Y6353643D2*
Y6359680D1*
X1251059Y6371893D1*
X1245023Y6377930D1*
X1232809Y6383966D1*
X1208523D1*
X1196449Y6377930D1*
X1190413Y6371893D1*
X1184236Y6359680D1*
Y6347607D1*
X1190413Y6335393D1*
X1202486Y6317284D1*
X1263273Y6256497D1*
X1178199D1*
X5301844Y6288247D2*
X5350558Y6415857D1*
X5399131Y6288247D1*
X5380881Y6330784D2*
X5320094D1*
X5262628Y6415857D2*
Y6288247D1*
X5189769D1*
X5053267D2*
X5101980Y6415857D1*
X5150553Y6288247D1*
X5132303Y6330784D2*
X5071517D1*
X5014051Y6355070D2*
X4959441D1*
X4941191Y6361247D1*
X4935014Y6367284D1*
X4928978Y6379357D1*
Y6391570D1*
X4935014Y6403643D1*
X4941191Y6409820D1*
X4959441Y6415857D1*
X5014051D1*
Y6288247D1*
X4971514Y6355070D2*
X4928978Y6288247D1*
X4792616D2*
Y6415857D1*
X4841189Y6288247D1*
X4889762Y6415857D1*
Y6288247D1*
X3684183Y1975610D2*
X3763079D1*
Y1848000D1*
X3684183D1*
X3763079Y1914823D2*
X3714506D1*
X3559894Y1957360D2*
X3571967Y1969573D1*
X3590217Y1975610D1*
X3614504D1*
X3632754Y1969573D1*
X3644967Y1957360D1*
Y1945287D1*
X3638790Y1933073D1*
X3632754Y1927037D1*
X3620681Y1921000D1*
X3584181Y1908787D1*
X3571967Y1902750D1*
X3565931Y1896573D1*
X3559894Y1884500D1*
Y1866250D1*
X3571967Y1854177D1*
X3590217Y1848000D1*
X3614504D1*
X3632754Y1854177D1*
X3644967Y1866250D1*
X3520679Y1908787D2*
X3465929D1*
X3447819Y1914823D1*
X3441642Y1921000D1*
X3435606Y1933073D1*
Y1951323D1*
X3441642Y1963396D1*
X3447819Y1969573D1*
X3465929Y1975610D1*
X3520679D1*
Y1848000D1*
X3384176Y1975470D2*
X3317494D1*
X3353853Y1926896D1*
X3335603D1*
X3323530Y1920860D1*
X3317494Y1914823D1*
X3311317Y1896573D1*
Y1884500D1*
X3317494Y1866250D1*
X3329567Y1854037D1*
X3347817Y1848000D1*
X3366067D1*
X3384176Y1854037D1*
X3390213Y1860214D1*
X3396390Y1872287D1*
X3265924Y1945146D2*
Y1951183D1*
X3259888Y1963396D1*
X3253851Y1969433D1*
X3241638Y1975470D1*
X3217351D1*
X3205278Y1969433D1*
X3199242Y1963396D1*
X3193065Y1951183D1*
Y1939110D1*
X3199242Y1926896D1*
X3211315Y1908787D1*
X3272101Y1848000D1*
X3187028D1*
X2939293Y1975610D2*
Y1848000D1*
X3024366Y1975610D1*
Y1848000D1*
X2869754Y1933073D2*
X2881827Y1927037D1*
X2894041Y1914823D1*
X2900077Y1896573D1*
Y1884500D1*
X2894041Y1866250D1*
X2881827Y1854177D1*
X2869754Y1848000D1*
X2851504D1*
X2839291Y1854177D1*
X2827218Y1866250D1*
X2821041Y1884500D1*
Y1896573D1*
X2827218Y1914823D1*
X2839291Y1927037D1*
X2851504Y1933073D1*
X2869754D1*
X2708965Y1975610D2*
Y1848000D1*
Y1914823D2*
X2721038Y1927037D1*
X2733252Y1933073D1*
X2751502D1*
X2763575Y1927037D1*
X2775788Y1914823D1*
X2781825Y1896573D1*
Y1884500D1*
X2775788Y1866250D1*
X2763575Y1854177D1*
X2751502Y1848000D1*
X2733252D1*
X2721038Y1854177D1*
X2708965Y1866250D1*
X2669750Y1896573D2*
X2596890D1*
Y1908787D1*
X2602927Y1921000D1*
X2608963Y1927037D1*
X2621177Y1933073D1*
X2639427D1*
X2651500Y1927037D1*
X2663713Y1914823D1*
X2669750Y1896573D1*
Y1884500D1*
X2663713Y1866250D1*
X2651500Y1854177D1*
X2639427Y1848000D1*
X2621177D1*
X2608963Y1854177D1*
X2596890Y1866250D1*
X2460528Y1848000D2*
Y1975610D1*
X2509101Y1848000D1*
X2557674Y1975610D1*
Y1848000D1*
X2330203Y1945287D2*
X2336239Y1957360D1*
X2348453Y1969573D1*
X2360526Y1975610D1*
X2384812D1*
X2397026Y1969573D1*
X2409099Y1957360D1*
X2415276Y1945287D1*
X2421312Y1927037D1*
Y1896573D1*
X2415276Y1878464D1*
X2409099Y1866250D1*
X2397026Y1854177D1*
X2384812Y1848000D1*
X2360526D1*
X2348453Y1854177D1*
X2336239Y1866250D1*
X2330203Y1878464D1*
X2290987Y1975610D2*
Y1884500D1*
X2284951Y1866250D1*
X2272737Y1854177D1*
X2254487Y1848000D1*
X2242414D1*
X2224164Y1854177D1*
X2211951Y1866250D1*
X2205914Y1884500D1*
Y1975610D1*
X6149077Y5322673D2*
Y5195064D1*
X6064004Y5322673D2*
Y5195064D1*
X6149077Y5261887D2*
X6064004D1*
X5933679Y5292350D2*
X5939715Y5304423D1*
X5951929Y5316637D1*
X5964002Y5322673D1*
X5988288D1*
X6000502Y5316637D1*
X6012575Y5304423D1*
X6018752Y5292350D1*
X6024788Y5274100D1*
Y5243637D1*
X6018752Y5225527D1*
X6012575Y5213314D1*
X6000502Y5201241D1*
X5988288Y5195064D1*
X5964002D1*
X5951929Y5201241D1*
X5939715Y5213314D1*
X5933679Y5225527D1*
X5894463Y5258798D2*
X5824271D1*
X5785055Y5298246D2*
X5772842Y5304423D1*
X5754592Y5322533D1*
Y5195064D1*
X5709199Y5292210D2*
Y5298246D1*
X5703162Y5310460D1*
X5697126Y5316496D1*
X5684912Y5322533D1*
X5660626D1*
X5648553Y5316496D1*
X5642516Y5310460D1*
X5636339Y5298246D1*
Y5286173D1*
X5642516Y5273960D1*
X5654589Y5255850D1*
X5715376Y5195064D1*
X5630303D1*
X4865703Y4923313D2*
X4738094D1*
Y4965850D1*
X4744271Y4984100D1*
X4756344Y4996313D1*
X4768557Y5002350D1*
X4786667Y5008386D1*
X4817130D1*
X4835380Y5002350D1*
X4847453Y4996313D1*
X4859667Y4984100D1*
X4865703Y4965850D1*
Y4923313D1*
Y5126638D2*
Y5047602D1*
X4738094D1*
X4804917D2*
Y5096175D1*
X4798880Y5165854D2*
Y5220604D1*
X4804917Y5238714D1*
X4811094Y5244891D1*
X4823167Y5250927D1*
X4841417D1*
X4853490Y5244891D1*
X4859667Y5238714D1*
X4865703Y5220604D1*
Y5165854D1*
X4738094D1*
X4865703Y5290143D2*
X4738094D1*
X4823167Y5402218D2*
X4738094D1*
X4804917D2*
X4817130Y5390145D1*
X4823167Y5377932D1*
Y5359822D1*
X4817130Y5347609D1*
X4804917Y5335535D1*
X4786667Y5329359D1*
X4774594D1*
X4756344Y5335535D1*
X4744271Y5347609D1*
X4738094Y5359822D1*
Y5377932D1*
X4744271Y5390145D1*
X4756344Y5402218D1*
X4823167Y5447611D2*
X4738094Y5483970D1*
X4713807Y5471897D1*
X4701594Y5459684D1*
X4695557Y5447611D1*
Y5441434D1*
X4823167Y5520470D2*
X4738094Y5483970D1*
X4786667Y5559686D2*
Y5632546D1*
X4798880D1*
X4811094Y5626509D1*
X4817130Y5620473D1*
X4823167Y5608259D1*
Y5590009D1*
X4817130Y5577936D1*
X4804917Y5565723D1*
X4786667Y5559686D1*
X4774594D1*
X4756344Y5565723D1*
X4744271Y5577936D1*
X4738094Y5590009D1*
Y5608259D1*
X4744271Y5620473D1*
X4756344Y5632546D1*
X4823167Y5671761D2*
X4738094D1*
X4786667D2*
X4804917Y5677938D1*
X4817130Y5690011D1*
X4823167Y5702225D1*
Y5720475D1*
X4738094Y5980283D2*
X4865703D1*
X4738094Y5931710D1*
X4865703Y5883137D1*
X4738094D1*
X4865703Y6019499D2*
X4859667Y6025535D1*
X4865703Y6031712D1*
X4871880Y6025535D1*
X4865703Y6019499D1*
X4823167Y6025535D2*
X4738094D1*
X4823167Y6070928D2*
X4738094D1*
X4798880D2*
X4817130Y6089178D1*
X4823167Y6101391D1*
Y6119501D1*
X4817130Y6131715D1*
X4798880Y6137751D1*
X4738094D1*
X4865703Y6176967D2*
X4859667Y6183003D1*
X4865703Y6189180D1*
X4871880Y6183003D1*
X4865703Y6176967D1*
X4823167Y6183003D2*
X4738094D1*
X4897453Y928170D2*
X4769844D1*
Y970706D1*
X4776021Y988956D1*
X4788094Y1001170D1*
X4800307Y1007206D1*
X4818417Y1013243D1*
X4848880D1*
X4867130Y1007206D1*
X4879203Y1001170D1*
X4891417Y988956D1*
X4897453Y970706D1*
Y928170D1*
X4879203Y1137532D2*
X4891417Y1125458D1*
X4897453Y1107208D1*
Y1082922D1*
X4891417Y1064672D1*
X4879203Y1052458D1*
X4867130D1*
X4854917Y1058635D1*
X4848880Y1064672D1*
X4842844Y1076745D1*
X4830630Y1113245D1*
X4824594Y1125458D1*
X4818417Y1131495D1*
X4806344Y1137532D1*
X4788094D1*
X4776021Y1125458D1*
X4769844Y1107208D1*
Y1082922D1*
X4776021Y1064672D1*
X4788094Y1052458D1*
X4897313Y1188961D2*
Y1255643D1*
X4848740Y1219284D1*
Y1237534D1*
X4842703Y1249607D1*
X4836667Y1255643D1*
X4818417Y1261820D1*
X4806344D1*
X4788094Y1255643D1*
X4775880Y1243570D1*
X4769844Y1225320D1*
Y1207070D1*
X4775880Y1188961D1*
X4782057Y1182924D1*
X4794130Y1176747D1*
X4866990Y1307213D2*
X4873026D1*
X4885240Y1313249D1*
X4891276Y1319286D1*
X4897313Y1331499D1*
Y1355786D1*
X4891276Y1367859D1*
X4885240Y1373896D1*
X4873026Y1380073D1*
X4860953D1*
X4848740Y1373896D1*
X4830630Y1361823D1*
X4769844Y1301036D1*
Y1386109D1*
X4897313Y1437538D2*
Y1504221D1*
X4848740Y1467861D1*
Y1486111D1*
X4842703Y1498184D1*
X4836667Y1504221D1*
X4818417Y1510398D1*
X4806344D1*
X4788094Y1504221D1*
X4775880Y1492148D1*
X4769844Y1473898D1*
Y1455648D1*
X4775880Y1437538D1*
X4782057Y1431502D1*
X4794130Y1425325D1*
X4873026Y1549614D2*
X4879203Y1561827D1*
X4897313Y1580077D1*
X4769844D1*
X6244798Y6820177D2*
X6117189Y6868750D1*
X6244798Y6917323D1*
X6214475Y7047649D2*
X6226548Y7041612D1*
X6238762Y7029399D1*
X6244798Y7017326D1*
Y6993039D1*
X6238762Y6980826D1*
X6226548Y6968753D1*
X6214475Y6962576D1*
X6196225Y6956539D1*
X6165762D1*
X6147652Y6962576D1*
X6135439Y6968753D1*
X6123366Y6980826D1*
X6117189Y6993039D1*
Y7017326D1*
X6123366Y7029399D1*
X6135439Y7041612D1*
X6147652Y7047649D1*
X6214475Y7177974D2*
X6226548Y7171937D1*
X6238762Y7159724D1*
X6244798Y7147651D1*
Y7123364D1*
X6238762Y7111151D1*
X6226548Y7099078D1*
X6214475Y7092901D1*
X6196225Y7086864D1*
X6165762D1*
X6147652Y7092901D1*
X6135439Y7099078D1*
X6123366Y7111151D1*
X6117189Y7123364D1*
Y7147651D1*
X6123366Y7159724D1*
X6135439Y7171937D1*
X6147652Y7177974D1*
X6467102Y6911287D2*
X6479175Y6905250D1*
X6491388Y6893037D1*
X6497425Y6880964D1*
Y6856677D1*
X6491388Y6844464D1*
X6479175Y6832391D1*
X6467102Y6826214D1*
X6448852Y6820177D1*
X6418388D1*
X6400279Y6826214D1*
X6388065Y6832391D1*
X6375992Y6844464D1*
X6369815Y6856677D1*
Y6880964D1*
X6375992Y6893037D1*
X6388065Y6905250D1*
X6400279Y6911287D1*
X6418388D1*
Y6880964D1*
X6497425Y7035576D2*
X6369815D1*
X6497425Y6950503D1*
X6369815D1*
X6497425Y7074791D2*
X6369815D1*
Y7117328D1*
X6375992Y7135578D1*
X6388065Y7147791D1*
X6400279Y7153828D1*
X6418388Y7159864D1*
X6448852D1*
X6467102Y7153828D1*
X6479175Y7147791D1*
X6491388Y7135578D1*
X6497425Y7117328D1*
Y7074791D1*
X6987175Y6902164D2*
X6999388Y6890091D1*
X7005425Y6871841D1*
Y6847554D1*
X6999388Y6829304D1*
X6987175Y6817091D1*
X6975102D1*
X6962888Y6823268D1*
X6956852Y6829304D1*
X6950815Y6841377D1*
X6938602Y6877877D1*
X6932565Y6890091D1*
X6926388Y6896127D1*
X6914315Y6902164D1*
X6896065D1*
X6883992Y6890091D1*
X6877815Y6871841D1*
Y6847554D1*
X6883992Y6829304D1*
X6896065Y6817091D1*
X7005425Y6941379D2*
X6877815D1*
Y6983916D1*
X6883992Y7002166D1*
X6896065Y7014379D1*
X6908279Y7020416D1*
X6926388Y7026452D1*
X6956852D1*
X6975102Y7020416D1*
X6987175Y7014379D1*
X6999388Y7002166D1*
X7005425Y6983916D1*
Y6941379D1*
X6877815Y7162955D2*
X7005425Y7114241D1*
X6877815Y7065668D1*
X6920352Y7083918D2*
Y7144705D1*
X6733172Y6905250D2*
X6745385Y6893177D1*
X6751422Y6874927D1*
Y6850641D1*
X6745385Y6832391D1*
X6733172Y6820177D1*
X6721099D1*
X6708885Y6826354D1*
X6702849Y6832391D1*
X6696812Y6844464D1*
X6684599Y6880964D1*
X6678562Y6893177D1*
X6672385Y6899214D1*
X6660312Y6905250D1*
X6642062D1*
X6629989Y6893177D1*
X6623812Y6874927D1*
Y6850641D1*
X6629989Y6832391D1*
X6642062Y6820177D1*
X6721099Y7035576D2*
X6733172Y7029539D1*
X6745385Y7017326D1*
X6751422Y7005253D1*
Y6980966D1*
X6745385Y6968753D1*
X6733172Y6956679D1*
X6721099Y6950503D1*
X6702849Y6944466D1*
X6672385D1*
X6654275Y6950503D1*
X6642062Y6956679D1*
X6629989Y6968753D1*
X6623812Y6980966D1*
Y7005253D1*
X6629989Y7017326D1*
X6642062Y7029539D1*
X6654275Y7035576D1*
X6751422Y7074791D2*
X6623812D1*
Y7147651D1*
X7145630Y6078034D2*
X7273240D1*
X7145630Y6029461D1*
X7273240Y5980888D1*
X7145630D1*
Y6214536D2*
X7273240Y6165823D1*
X7145630Y6117250D1*
X7188167Y6135500D2*
Y6196286D1*
X7273240Y6253752D2*
X7145630Y6338825D1*
X7273240D2*
X7145630Y6253752D1*
Y6438827D2*
X7273100D1*
X7188167Y6378041D1*
Y6469150D1*
X7145630Y6569153D2*
X7273100D1*
X7188167Y6508366D1*
Y6599476D1*
X7273100Y6675191D2*
X7267063Y6656941D1*
X7248813Y6644728D1*
X7218490Y6638691D1*
X7200240D1*
X7169917Y6644728D1*
X7151667Y6656941D1*
X7145630Y6675191D1*
Y6687264D1*
X7151667Y6705514D1*
X7169917Y6717588D1*
X7200240Y6723764D1*
X7218490D1*
X7248813Y6717588D1*
X7267063Y6705514D1*
X7273100Y6687264D1*
Y6675191D1*
X7248813Y6717588D2*
X7169917Y6644728D1*
X7273100Y6799480D2*
X7267063Y6781230D1*
X7248813Y6769017D1*
X7218490Y6762980D1*
X7200240D1*
X7169917Y6769017D1*
X7151667Y6781230D1*
X7145630Y6799480D1*
Y6811553D1*
X7151667Y6829803D1*
X7169917Y6841876D1*
X7200240Y6848053D1*
X7218490D1*
X7248813Y6841876D1*
X7267063Y6829803D1*
X7273100Y6811553D1*
Y6799480D1*
X7248813Y6841876D2*
X7169917Y6769017D1*
X7230703Y6966305D2*
X7212453Y6960128D1*
X7200240Y6948055D1*
X7194203Y6929805D1*
Y6923769D1*
X7200240Y6905519D1*
X7212453Y6893446D1*
X7230703Y6887269D1*
X7236740D1*
X7254990Y6893446D1*
X7267063Y6905519D1*
X7273100Y6923769D1*
Y6929805D1*
X7267063Y6948055D1*
X7254990Y6960128D1*
X7230703Y6966305D1*
X7200240D1*
X7169917Y6960128D1*
X7151667Y6948055D1*
X7145630Y6929805D1*
Y6917732D1*
X7151667Y6899482D1*
X7163880Y6893446D1*
X2832271Y1115397D2*
X2801808Y987787D1*
X2771485Y1115397D1*
X2741161Y987787D1*
X2710698Y1115397D1*
X2586409Y1097147D2*
X2598482Y1109360D1*
X2616732Y1115397D1*
X2641019D1*
X2659269Y1109360D1*
X2671482Y1097147D1*
Y1085074D1*
X2665305Y1072860D1*
X2659269Y1066824D1*
X2647196Y1060787D1*
X2610696Y1048574D1*
X2598482Y1042537D1*
X2592446Y1036360D1*
X2586409Y1024287D1*
Y1006037D1*
X2598482Y993964D1*
X2616732Y987787D1*
X2641019D1*
X2659269Y993964D1*
X2671482Y1006037D1*
X2541017Y1084933D2*
Y1090970D1*
X2534980Y1103183D1*
X2528944Y1109220D1*
X2516730Y1115256D1*
X2492444D1*
X2480370Y1109220D1*
X2474334Y1103183D1*
X2468157Y1090970D1*
Y1078897D1*
X2474334Y1066683D1*
X2486407Y1048574D1*
X2547194Y987787D1*
X2462120D1*
X2392582Y1115256D2*
X2410691Y1109220D1*
X2416868Y1097147D1*
Y1084933D1*
X2410691Y1072860D1*
X2398618Y1066683D1*
X2374332Y1060647D1*
X2356082Y1054610D1*
X2344009Y1042397D1*
X2337972Y1030324D1*
Y1012074D1*
X2344009Y1000000D1*
X2350045Y993824D1*
X2368295Y987787D1*
X2392582D1*
X2410691Y993824D1*
X2416868Y1000000D1*
X2422905Y1012074D1*
Y1030324D1*
X2416868Y1042397D1*
X2404655Y1054610D1*
X2386545Y1060647D1*
X2362259Y1066683D1*
X2350045Y1072860D1*
X2344009Y1084933D1*
Y1097147D1*
X2350045Y1109220D1*
X2368295Y1115256D1*
X2392582D1*
X2298756Y1090970D2*
X2286543Y1097147D1*
X2268293Y1115256D1*
Y987787D1*
X2222900Y1084933D2*
Y1090970D1*
X2216864Y1103183D1*
X2210827Y1109220D1*
X2198614Y1115256D1*
X2174327D1*
X2162254Y1109220D1*
X2156218Y1103183D1*
X2150041Y1090970D1*
Y1078897D1*
X2156218Y1066683D1*
X2168291Y1048574D1*
X2229077Y987787D1*
X2144004D1*
X2104789Y1115397D2*
Y987787D1*
Y1054610D2*
X2092575Y1066824D1*
X2080502Y1072860D1*
X2062252D1*
X2050179Y1066824D1*
X2037965Y1054610D1*
X2031929Y1036360D1*
Y1024287D1*
X2037965Y1006037D1*
X2050179Y993964D1*
X2062252Y987787D1*
X2080502D1*
X2092575Y993964D1*
X2104789Y1006037D1*
X2152082Y301727D2*
X2121619Y174117D1*
X2091296Y301727D1*
X2060972Y174117D1*
X2030509Y301727D1*
X1906220Y283477D2*
X1918293Y295690D1*
X1936543Y301727D1*
X1960830D1*
X1979080Y295690D1*
X1991293Y283477D1*
Y271404D1*
X1985116Y259190D1*
X1979080Y253154D1*
X1967007Y247117D1*
X1930507Y234904D1*
X1918293Y228867D1*
X1912257Y222690D1*
X1906220Y210617D1*
Y192367D1*
X1918293Y180294D1*
X1936543Y174117D1*
X1960830D1*
X1979080Y180294D1*
X1991293Y192367D1*
X1860828Y271263D2*
Y277300D1*
X1854791Y289513D1*
X1848755Y295550D1*
X1836541Y301586D1*
X1812255D1*
X1800182Y295550D1*
X1794145Y289513D1*
X1787968Y277300D1*
Y265227D1*
X1794145Y253013D1*
X1806218Y234904D1*
X1867005Y174117D1*
X1781932D1*
X1712393Y301586D2*
X1730502Y295550D1*
X1736679Y283477D1*
Y271263D1*
X1730502Y259190D1*
X1718429Y253013D1*
X1694143Y246977D1*
X1675893Y240940D1*
X1663820Y228727D1*
X1657783Y216654D1*
Y198404D1*
X1663820Y186330D1*
X1669856Y180154D1*
X1688106Y174117D1*
X1712393D1*
X1730502Y180154D1*
X1736679Y186330D1*
X1742716Y198404D1*
Y216654D1*
X1736679Y228727D1*
X1724466Y240940D1*
X1706356Y246977D1*
X1682070Y253013D1*
X1669856Y259190D1*
X1663820Y271263D1*
Y283477D1*
X1669856Y295550D1*
X1688106Y301586D1*
X1712393D1*
X1618567Y277300D2*
X1606354Y283477D1*
X1588104Y301586D1*
Y174117D1*
X1542711Y271263D2*
Y277300D1*
X1536675Y289513D1*
X1530638Y295550D1*
X1518425Y301586D1*
X1494138D1*
X1482065Y295550D1*
X1476029Y289513D1*
X1469852Y277300D1*
Y265227D1*
X1476029Y253013D1*
X1488102Y234904D1*
X1548888Y174117D1*
X1463815D1*
X1424600Y301727D2*
Y174117D1*
Y240940D2*
X1412386Y253154D1*
X1400313Y259190D1*
X1382063D1*
X1369990Y253154D1*
X1357776Y240940D1*
X1351740Y222690D1*
Y210617D1*
X1357776Y192367D1*
X1369990Y180294D1*
X1382063Y174117D1*
X1400313D1*
X1412386Y180294D1*
X1424600Y192367D1*
X1189078Y301727D2*
Y174117D1*
X1146541D1*
X1128291Y180294D1*
X1116078Y192367D1*
X1110041Y204580D1*
X1104005Y222690D1*
Y253154D1*
X1110041Y271404D1*
X1116078Y283477D1*
X1128291Y295690D1*
X1146541Y301727D1*
X1189078D1*
X1064789D2*
X1058752Y295690D1*
X1052576Y301727D1*
X1058752Y307904D1*
X1064789Y301727D1*
X1058752Y259190D2*
Y174117D1*
X946537Y240940D2*
X952573Y253154D1*
X970823Y259190D1*
X989073D1*
X1007323Y253154D1*
X1013360Y240940D1*
X1007323Y228867D1*
X995110Y222690D1*
X964787Y216654D1*
X952573Y210617D1*
X946537Y198404D1*
Y192367D1*
X952573Y180294D1*
X970823Y174117D1*
X989073D1*
X1007323Y180294D1*
X1013360Y192367D1*
X907321Y259190D2*
Y131580D1*
Y240940D2*
X895108Y253013D1*
X883035Y259190D1*
X864785D1*
X852571Y253013D1*
X840498Y240940D1*
X834321Y222690D1*
Y210477D1*
X840498Y192367D1*
X852571Y180154D1*
X864785Y174117D1*
X883035D1*
X895108Y180154D1*
X907321Y192367D1*
X795105Y301727D2*
Y174117D1*
X683030Y259190D2*
Y174117D1*
Y240940D2*
X695103Y253154D1*
X707317Y259190D1*
X725426D1*
X737640Y253154D1*
X749713Y240940D1*
X755890Y222690D1*
Y210617D1*
X749713Y192367D1*
X737640Y180294D1*
X725426Y174117D1*
X707317D1*
X695103Y180294D1*
X683030Y192367D1*
X637638Y259190D2*
X601278Y174117D1*
X613351Y149830D1*
X625564Y137617D1*
X637638Y131580D1*
X643814D1*
X564778Y259190D2*
X601278Y174117D1*
X885115Y4951866D2*
X757505Y4982330D1*
X885115Y5012653D1*
X757505Y5042976D1*
X885115Y5073439D1*
Y5112655D2*
X757505D1*
X824328Y5151871D2*
Y5206480D1*
X830505Y5224730D1*
X836542Y5230907D1*
X848615Y5236944D1*
X860828D1*
X872901Y5230907D1*
X879078Y5224730D1*
X885115Y5206480D1*
Y5151871D1*
X757505D1*
X824328Y5194407D2*
X757505Y5236944D1*
X885115Y5355056D2*
Y5276159D1*
X757505D1*
Y5355056D1*
X824328Y5276159D2*
Y5324733D1*
X885115Y5394271D2*
X757505D1*
Y5436808D1*
X763682Y5455058D1*
X775755Y5467271D1*
X787969Y5473308D1*
X806078Y5479344D1*
X836542D1*
X854792Y5473308D1*
X866865Y5467271D1*
X879078Y5455058D1*
X885115Y5436808D1*
Y5394271D1*
X736448Y5518560D2*
Y5633956D1*
X866865Y5758245D2*
X879078Y5746172D1*
X885115Y5727922D1*
Y5703635D1*
X879078Y5685385D1*
X866865Y5673172D1*
X854792D1*
X842578Y5679349D1*
X836542Y5685385D1*
X830505Y5697458D1*
X818292Y5733958D1*
X812255Y5746172D1*
X806078Y5752208D1*
X794005Y5758245D1*
X775755D1*
X763682Y5746172D1*
X757505Y5727922D1*
Y5703635D1*
X763682Y5685385D1*
X775755Y5673172D1*
X885115Y5876357D2*
Y5797461D1*
X757505D1*
Y5876357D1*
X824328Y5797461D2*
Y5846034D1*
X885115Y6000646D2*
X757505D1*
X885115Y5915573D1*
X757505D1*
X866865Y6124934D2*
X879078Y6112861D1*
X885115Y6094611D1*
Y6070325D1*
X879078Y6052075D1*
X866865Y6039861D1*
X854792D1*
X842578Y6046038D1*
X836542Y6052075D1*
X830505Y6064148D1*
X818292Y6100648D1*
X812255Y6112861D1*
X806078Y6118898D1*
X794005Y6124934D1*
X775755D1*
X763682Y6112861D1*
X757505Y6094611D1*
Y6070325D1*
X763682Y6052075D1*
X775755Y6039861D1*
X885115Y6200650D2*
X879078Y6188437D1*
X866865Y6176364D1*
X854792Y6170187D1*
X836542Y6164150D1*
X806078D1*
X787969Y6170187D1*
X775755Y6176364D1*
X763682Y6188437D1*
X757505Y6200650D1*
Y6224937D1*
X763682Y6237010D1*
X775755Y6249223D1*
X787969Y6255260D1*
X806078Y6261296D1*
X836542D1*
X854792Y6255260D1*
X866865Y6249223D1*
X879078Y6237010D1*
X885115Y6224937D1*
Y6200650D1*
X824328Y6300512D2*
Y6355122D1*
X830505Y6373372D1*
X836542Y6379548D1*
X848615Y6385585D1*
X860828D1*
X872901Y6379548D1*
X879078Y6373372D1*
X885115Y6355122D1*
Y6300512D1*
X757505D1*
X824328Y6343048D2*
X757505Y6385585D1*
X866865Y6509874D2*
X879078Y6497801D1*
X885115Y6479551D1*
Y6455264D1*
X879078Y6437014D1*
X866865Y6424801D1*
X854792D1*
X842578Y6430978D1*
X836542Y6437014D1*
X830505Y6449087D1*
X818292Y6485587D1*
X812255Y6497801D1*
X806078Y6503837D1*
X794005Y6509874D1*
X775755D1*
X763682Y6497801D1*
X757505Y6479551D1*
Y6455264D1*
X763682Y6437014D1*
X775755Y6424801D1*
M02*
