G04 DipTrace 4.2.0.1*
G04 BottomSilk.gbr*
%MOMM*%
G04 #@! TF.FileFunction,Legend,Bot*
G04 #@! TF.Part,Single*
%ADD10C,0.12*%
%ADD16C,0.47627*%
%ADD55C,0.19608*%
%ADD56C,0.15686*%
%ADD58C,0.23529*%
%FSLAX35Y35*%
G04*
G71*
G90*
G75*
G01*
G04 BotSilk*
%LPD*%
X9229750Y3298127D2*
D10*
Y3274127D1*
X9375750Y3298127D2*
Y3274127D1*
X2784500Y4330000D2*
Y4306000D1*
X2930500Y4330000D2*
Y4306000D1*
X886000Y5226250D2*
X910000D1*
X886000Y5372250D2*
X910000D1*
X2766127Y2705127D2*
X2790127D1*
X2766127Y2851127D2*
X2790127D1*
X3877373Y4435500D2*
X3901373D1*
X3877373Y4581500D2*
X3901373D1*
X8645500Y4052000D2*
Y4076000D1*
X8499500Y4052000D2*
Y4076000D1*
X156623Y5348873D2*
X71623D1*
Y4588873D1*
X156623D1*
X446623Y5348873D2*
X531623D1*
Y4588873D1*
X446623D1*
X180623Y5427873D2*
X422623D1*
X3586750Y5066250D2*
Y5151250D1*
X2826750D1*
Y5066250D1*
X3586750Y4776250D2*
Y4691250D1*
X2826750D1*
Y4776250D1*
X3665750Y5042250D2*
Y4800250D1*
X3361377Y4206250D2*
X3147377D1*
X3361377Y4366250D2*
X3147377D1*
X3009377Y4205250D2*
Y4367250D1*
X8563127Y3263123D2*
Y3309123D1*
X8423127Y3263123D2*
Y3309123D1*
X8851750D2*
Y3263123D1*
X8991750Y3309123D2*
Y3263123D1*
X7341373Y2213123D2*
X7295373D1*
X7341373Y2073123D2*
X7295373D1*
X7341373Y2467127D2*
X7295373D1*
X7341373Y2327127D2*
X7295373D1*
X7341000Y3479250D2*
X7295000D1*
X7341000Y3339250D2*
X7295000D1*
X1308250Y5422123D2*
Y5468123D1*
X1168250Y5422123D2*
Y5468123D1*
X1422250D2*
Y5422123D1*
X1562250Y5468123D2*
Y5422123D1*
X2070250D2*
Y5468123D1*
X1930250Y5422123D2*
Y5468123D1*
X2283127Y1525000D2*
X2253127D1*
Y2285000D1*
X2283127D1*
X3273127Y1525000D2*
X3303127D1*
Y2285000D1*
X3273127D1*
G36*
X2289127Y2448000D2*
X2288913Y2444737D1*
X2288275Y2441530D1*
X2287224Y2438433D1*
X2285777Y2435500D1*
X2283961Y2432781D1*
X2281804Y2430322D1*
X2279346Y2428166D1*
X2276627Y2426349D1*
X2273694Y2424903D1*
X2270597Y2423852D1*
X2267390Y2423214D1*
X2264127Y2423000D1*
X2260864Y2423214D1*
X2257656Y2423852D1*
X2254560Y2424903D1*
X2251627Y2426349D1*
X2248908Y2428166D1*
X2246449Y2430322D1*
X2244293Y2432781D1*
X2242476Y2435500D1*
X2241030Y2438433D1*
X2239979Y2441530D1*
X2239341Y2444737D1*
X2239127Y2448000D1*
D1*
X2239341Y2451263D1*
X2239979Y2454470D1*
X2241030Y2457567D1*
X2242476Y2460500D1*
X2244293Y2463219D1*
X2246449Y2465678D1*
X2248908Y2467834D1*
X2251627Y2469651D1*
X2254560Y2471097D1*
X2257656Y2472148D1*
X2260864Y2472786D1*
X2264127Y2473000D1*
X2267390Y2472786D1*
X2270597Y2472148D1*
X2273694Y2471097D1*
X2276627Y2469651D1*
X2279346Y2467834D1*
X2281804Y2465678D1*
X2283961Y2463219D1*
X2285777Y2460500D1*
X2287224Y2457567D1*
X2288275Y2454470D1*
X2288913Y2451263D1*
X2289127Y2448000D1*
D1*
G37*
X3222623Y3940500D2*
D10*
X3079750D1*
X3124123Y3431500D2*
X3414123Y3721500D1*
X3397250Y3940500D2*
X3413123D1*
Y3432500D1*
X3397250D2*
X3413123D1*
X2899250D2*
X2883377D1*
Y3940500D1*
X2899250D2*
X2883377D1*
X3234123Y3431500D2*
X3074123D1*
D16*
X2262187Y2008188D3*
X2286000Y1825623D2*
D10*
X2254250D1*
X2762250Y1841500D2*
X2794000D1*
Y1539877D1*
X2762250D1*
G36*
X5461580Y5398929D2*
X5453815Y5406442D1*
Y5410198D1*
X5434400Y5432736D1*
X5422751Y5447761D1*
X5407220Y5466542D1*
X5414986Y5481567D1*
X5446049Y5519130D1*
X5465463Y5541667D1*
X5512058Y5598011D1*
X5531472Y5620549D1*
X5547004Y5639330D1*
X5551121Y5643410D1*
X5553131Y5642800D1*
X5554770Y5639330D1*
Y5613036D1*
X5558652Y5564205D1*
X5562535Y5511617D1*
X5570301Y5413954D1*
X5574184Y5361367D1*
X5581950Y5263704D1*
X5597481D1*
Y5297510D1*
X5593598Y5346342D1*
X5585833Y5451517D1*
X5581950Y5500348D1*
X5578067Y5556692D1*
X5574184Y5616793D1*
X5570301Y5643086D1*
X5527589D1*
X5508175Y5620549D1*
X5484878Y5594255D1*
X5469346Y5575474D1*
X5457697Y5560449D1*
X5418869Y5515374D1*
X5403337Y5496592D1*
X5395571Y5485323D1*
X5392671Y5482911D1*
X5390708Y5483226D1*
X5388498Y5486332D1*
X5387805Y5489080D1*
X5368391Y5511617D1*
X5356742Y5526642D1*
X5337328Y5549180D1*
X5321796Y5567961D1*
X5302382Y5590499D1*
X5255787Y5646843D1*
X5236373Y5669380D1*
X5232490Y5673137D1*
Y5703187D1*
X5236373Y5706943D1*
X5248022Y5710699D1*
X5263553Y5718212D1*
X5267436Y5721968D1*
X5275202Y5736993D1*
Y5748262D1*
X5365802Y5752018D1*
X5456403D1*
X5547004Y5748262D1*
Y5718212D1*
X5550887Y5714456D1*
Y5669380D1*
X5539238Y5658112D1*
X5527589Y5643086D1*
X5570301D1*
Y5669380D1*
X5581950Y5680649D1*
X5597481Y5699430D1*
X5636310Y5744506D1*
X5647959Y5759531D1*
X5663490Y5778312D1*
X5667373Y5785825D1*
Y5793337D1*
X5663490Y5797093D1*
X5659608D1*
X5640193Y5778312D1*
X5593598Y5721968D1*
X5574184Y5699430D1*
X5571284Y5697018D1*
X5569272Y5697238D1*
X5566418Y5699430D1*
Y5725724D1*
X5562535Y5752018D1*
X5259670D1*
Y5740749D1*
X5248022Y5729481D1*
X5240256Y5725724D1*
X5233784Y5721968D1*
X5227313D1*
X5220841Y5725724D1*
X5213076Y5729481D1*
X5201427Y5740749D1*
Y5763287D1*
X5216958Y5778312D1*
X5226018Y5782068D1*
X5235079D1*
X5244139Y5778312D1*
X5251904Y5774556D1*
X5256509Y5770333D1*
X5255787Y5767043D1*
X5259670Y5752018D1*
X5562535D1*
Y5770799D1*
X5547004D1*
X5541827Y5767043D1*
X5536649D1*
X5531472Y5770799D1*
Y5778312D1*
X5536649Y5782068D1*
X5541827D1*
X5547004Y5778312D1*
Y5770799D1*
X5562535D1*
Y5793337D1*
X5554770Y5797093D1*
X5519824D1*
X5515941Y5793337D1*
Y5770799D1*
X5435694Y5767043D1*
X5355448D1*
X5275202Y5770799D1*
X5267436Y5778312D1*
Y5782068D1*
X5263553Y5785825D1*
X5251904Y5793337D1*
X5240256Y5797093D1*
X5224724D1*
X5213076Y5793337D1*
X5205310Y5789581D1*
X5189778Y5774556D1*
X5185895Y5767043D1*
Y5736993D1*
X5182996Y5734581D1*
X5180983Y5734800D1*
X5178130Y5736993D1*
X5170364Y5748262D1*
X5147066Y5774556D1*
X5131535Y5793337D1*
X5127652Y5797093D1*
X5119886D1*
X5116003Y5793337D1*
Y5785825D1*
X5123769Y5774556D1*
X5143184Y5752018D1*
X5158715Y5733237D1*
X5182012D1*
X5186129Y5737317D1*
X5188136Y5736714D1*
X5191538Y5731263D1*
X5187071Y5730349D1*
X5184892Y5730905D1*
X5182012Y5733237D1*
X5158715D1*
X5174247Y5718212D1*
X5193661D1*
X5197778Y5722291D1*
X5199785Y5721689D1*
X5203187Y5716238D1*
X5198720Y5715324D1*
X5196541Y5715880D1*
X5193661Y5718212D1*
X5174247D1*
Y5714456D1*
X5197544D1*
X5201661Y5718535D1*
X5203668Y5717933D1*
X5207070Y5712482D1*
X5202603Y5711568D1*
X5200424Y5712124D1*
X5197544Y5714456D1*
X5174247D1*
X5178130Y5710699D1*
X5201427D1*
X5206161Y5714619D1*
X5210651Y5714134D1*
X5213076Y5710699D1*
X5220841Y5706943D1*
Y5695674D1*
X5217942Y5693262D1*
X5215929Y5693481D1*
X5213076Y5695674D1*
X5201427Y5710699D1*
X5178130D1*
X5189778Y5695674D1*
X5209193Y5673137D1*
X5216958Y5643086D1*
X5228607D1*
X5232724Y5647166D1*
X5234735Y5646556D1*
X5236373Y5643086D1*
X5244139Y5631818D1*
X5275202Y5594255D1*
X5298499Y5567961D1*
X5314031Y5549180D1*
X5325679Y5534155D1*
X5364508Y5489080D1*
X5380040Y5474055D1*
Y5466542D1*
X5372274Y5459030D1*
X5333445Y5413954D1*
Y5410198D1*
X5321796Y5398929D1*
X5306265Y5395173D1*
X5302382Y5391417D1*
Y5372635D1*
X5286850Y5357610D1*
X5248022Y5312535D1*
X5236373Y5297510D1*
X5220841Y5278729D1*
X5209193Y5263704D1*
X5206293Y5261292D1*
X5204281Y5261511D1*
X5201427Y5263704D1*
Y5282485D1*
X5205310Y5286241D1*
X5209193Y5346342D1*
X5213076Y5402686D1*
X5216958Y5455273D1*
X5220841Y5504105D1*
X5224724Y5556692D1*
X5228607Y5605524D1*
Y5643086D1*
X5216958D1*
X5213076Y5639330D1*
X5205310Y5541667D1*
X5201427Y5489080D1*
X5193661Y5391417D1*
Y5346342D1*
X5154832Y5342585D1*
X5147066Y5335073D1*
Y5323804D1*
X5162598D1*
X5171658Y5327560D1*
X5180718D1*
X5189778Y5323804D1*
Y5308779D1*
X5180718Y5305023D1*
X5171658D1*
X5162598Y5308779D1*
Y5323804D1*
X5147066D1*
Y5301266D1*
X5150949Y5293754D1*
X5162598Y5289998D1*
X5185895Y5286241D1*
Y5259948D1*
X5182012Y5256191D1*
X5166481Y5252435D1*
X5162598Y5248679D1*
X5158715Y5222385D1*
X5154832Y5214872D1*
X5150949Y5196091D1*
X5131535Y5173553D1*
X5116003Y5154772D1*
Y5147260D1*
X5119886Y5143503D1*
X5127652D1*
X5139301Y5154772D1*
X5158715Y5177310D1*
X5159991Y5181867D1*
X5162598Y5184822D1*
X5189778Y5188579D1*
X5193895Y5192658D1*
X5195906Y5192048D1*
X5197544Y5188579D1*
X5209193Y5177310D1*
X5232490Y5166041D1*
X5259670Y5162285D1*
X5356742Y5154772D1*
X5361347Y5150549D1*
X5360625Y5147260D1*
X5368391Y5143503D1*
X5418869D1*
X5426634Y5151016D1*
X5427911Y5155573D1*
X5430517Y5158528D1*
X5523707Y5162285D1*
X5550887Y5166041D1*
X5562535Y5169797D1*
X5570301Y5173553D1*
X5597481Y5199847D1*
X5598467Y5204279D1*
X5601591Y5207706D1*
X5603602Y5207074D1*
X5605247Y5203604D1*
X5616896Y5188579D1*
X5632427Y5169797D1*
X5651842Y5147260D1*
X5655725Y5143503D1*
X5667373D1*
Y5154772D1*
X5659608Y5166041D1*
X5628544Y5203604D1*
X5624662Y5207360D1*
X5581950D1*
Y5203604D1*
X5574184Y5196091D1*
X5550887Y5184822D1*
X5446049Y5181066D1*
X5341211D1*
X5236373Y5184822D1*
X5224724Y5188579D1*
X5216958Y5192335D1*
X5201427Y5207360D1*
Y5211116D1*
X5197544Y5214872D1*
X5326973Y5218629D1*
X5456403D1*
X5585833Y5214872D1*
X5585078Y5212210D1*
X5581950Y5207360D1*
X5624662D1*
X5613013Y5218629D1*
X5620779Y5226141D1*
X5624662Y5237410D1*
Y5248679D1*
X5620779Y5252435D1*
X5601364Y5256191D1*
X5558652D1*
X5447343Y5252435D1*
X5336034D1*
X5224724Y5256191D1*
Y5259948D1*
X5240256Y5274973D1*
X5279085Y5320048D1*
X5290733Y5335073D1*
X5292691Y5338839D1*
X5294945Y5342762D1*
X5298739Y5346674D1*
X5300729Y5346064D1*
X5303230Y5341926D1*
X5302382Y5338829D1*
X5306265Y5335073D1*
X5480995D1*
X5488995Y5342909D1*
X5491005Y5342299D1*
X5492643Y5338829D1*
X5496526Y5331317D1*
X5515941Y5308779D1*
X5547004Y5271216D1*
X5558652Y5256191D1*
X5601364D1*
X5597481Y5263704D1*
X5581950D1*
X5579050Y5261292D1*
X5577086Y5261606D1*
X5574876Y5264712D1*
X5574184Y5267460D1*
X5543121Y5305023D1*
X5504292Y5350098D1*
X5500409Y5353854D1*
X5469346D1*
X5417574Y5350098D1*
X5365802D1*
X5314031Y5353854D1*
Y5361367D1*
X5317913Y5365123D1*
Y5368879D1*
X5325679Y5376392D1*
X5370980Y5380148D1*
X5416280D1*
X5461580Y5376392D1*
X5466185Y5372169D1*
X5465463Y5368879D1*
X5469346Y5353854D1*
X5500409D1*
X5492643Y5365123D1*
X5484878Y5391417D1*
X5480995Y5395173D1*
X5461580Y5398929D1*
X5442166D1*
X5409809Y5395173D1*
X5377451D1*
X5345094Y5398929D1*
Y5402686D1*
X5356742Y5413954D1*
X5380040Y5440248D1*
X5387805Y5451517D1*
X5391922Y5455597D1*
X5393933Y5454987D1*
X5395571Y5451517D1*
X5411103Y5432736D1*
X5430517Y5410198D1*
X5442166Y5398929D1*
X5461580D1*
G37*
G36*
X5236373Y5744506D2*
X5237649Y5749063D1*
X5240256Y5752018D1*
X5232490Y5759531D1*
X5228607D1*
X5224724Y5755774D1*
Y5748262D1*
X5228607Y5744506D1*
X5236373D1*
G37*
G36*
X8243154Y1996341D2*
X8241042Y1988479D1*
X8232290Y1974160D1*
X8199697Y1963069D1*
X8145376Y1951978D1*
X8123647Y1940887D1*
X8101919Y1918706D1*
Y1907615D1*
X8112783D1*
X8145376Y1918706D1*
X8177968D1*
X8210561Y1907615D1*
X8275747Y1896524D1*
Y1885433D1*
X8232290Y1841070D1*
X8210561Y1829979D1*
X8188833Y1807797D1*
Y1774525D1*
X8199697Y1785616D1*
X8221425Y1796706D1*
X8286611Y1807797D1*
X8319204Y1818888D1*
X8341587Y1842025D1*
X8347187Y1840247D1*
X8354164Y1828036D1*
X8351796Y1818888D1*
Y1785616D1*
X8319204Y1752343D1*
X8308339Y1730162D1*
Y1707980D1*
X8319204Y1674707D1*
X8330068D1*
Y1696889D1*
X8362661Y1730162D1*
X8384389Y1741252D1*
X8416982Y1763434D1*
X8427846Y1785616D1*
X8430605Y1798701D1*
X8439345Y1808820D1*
X8444971Y1806952D1*
X8449575Y1796706D1*
X8471303Y1741252D1*
Y1685798D1*
X8482167Y1652526D1*
X8493032Y1630344D1*
X8503896Y1619253D1*
X8514760Y1719071D1*
X8547353Y1785616D1*
X8550111Y1798701D1*
X8558852Y1808820D1*
X8564478Y1806952D1*
X8569081Y1796706D1*
X8590810Y1763434D1*
X8601674Y1741252D1*
X8655995Y1685798D1*
X8666860D1*
X8645131Y1707980D1*
Y1841070D1*
X8658378Y1852644D1*
X8670939Y1851210D1*
X8677724Y1841070D1*
X8742910Y1785616D1*
X8775502Y1763434D1*
X8797231D1*
X8764638Y1818888D1*
X8753774Y1852161D1*
X8547353D1*
X8514760Y1841070D1*
X8482167D1*
X8384389Y1874342D1*
X8373525Y1885433D1*
X8351796Y1896524D1*
X8343044Y1910843D1*
X8340932Y1918706D1*
X8319204Y1940887D1*
Y1963069D1*
X8330723Y1975115D1*
X8336348Y1973313D1*
X8340932Y1963069D1*
X8362661Y1951978D1*
X8471303D1*
X8489411Y1963069D1*
X8507517D1*
X8525624Y1951978D1*
X8623403D1*
X8645131Y1963069D1*
X8658378Y1974643D1*
X8670974Y1973220D1*
X8681320Y1960228D1*
X8676711Y1953713D1*
X8666860Y1940887D1*
Y1929796D1*
X8623403Y1885433D1*
X8579946Y1863251D1*
X8547353Y1852161D1*
X8753774D1*
X8742910Y1874342D1*
X8721181Y1896524D1*
Y1918706D1*
X8739288Y1929796D1*
X8757395D1*
X8775502Y1918706D1*
X8797231Y1907615D1*
X8884145D1*
X8797231Y1951978D1*
Y1963069D1*
X8786367Y1974160D1*
X8688588D1*
X8680475Y1967037D1*
X8675109Y1968171D1*
X8671624Y1979164D1*
X8677954Y1986193D1*
X8684168Y1984359D1*
X8688588Y1974160D1*
X8786367D1*
X8775502Y1985250D1*
X8536489D1*
X8528375Y1978128D1*
X8522880Y1979057D1*
X8516697Y1988228D1*
X8514760Y1996341D1*
X8536489Y2018523D1*
X8554596Y2029614D1*
X8572703D1*
X8590810Y2018523D1*
X8547353Y1996341D1*
X8536489Y1985250D1*
X8775502D1*
X8742910Y2007432D1*
X8677724D1*
X8666116Y2000028D1*
X8655995Y1996341D1*
X8634267Y2018523D1*
Y2029614D1*
X8623403Y2040705D1*
X8547353D1*
X8525624Y2029614D1*
X8514760Y2018523D1*
X8503896Y1985250D1*
X8495782Y1978128D1*
X8490153Y1978776D1*
X8482167Y1985250D1*
Y2007432D1*
X8449575Y2040705D1*
X8373525D1*
X8330068Y1996341D1*
X8319948Y2000028D1*
X8308339Y2007432D1*
Y2029614D1*
X8319204Y2040705D1*
X8308339Y2051795D1*
Y2073977D1*
X8319204Y2085068D1*
X8322775Y2098523D1*
X8330068Y2107249D1*
X8351796Y2118340D1*
X8373525Y2151613D1*
X8385044Y2163658D1*
X8390670Y2161857D1*
X8395253Y2151613D1*
X8449575Y2184885D1*
X8461094Y2196931D1*
X8466720Y2195130D1*
X8471303Y2184885D1*
X8484550Y2196460D1*
X8497111Y2195026D1*
X8503896Y2184885D1*
X8517143Y2196460D1*
X8529704Y2195026D1*
X8536489Y2184885D1*
X8601674Y2162704D1*
X8623403Y2151613D1*
X8666860Y2107249D1*
Y2096159D1*
X8677724Y2073977D1*
X8688588Y2062886D1*
Y2029614D1*
X8677724Y2018523D1*
Y2007432D1*
X8742910D1*
X8873281Y2040705D1*
X8895009Y2051795D1*
X8905873Y2062886D1*
X8862416D1*
X8854303Y2055764D1*
X8848673Y2056411D1*
X8840688Y2062886D1*
X8797231Y2085068D1*
X8764638Y2096159D1*
X8750153Y2085068D1*
X8735666D1*
X8721181Y2096159D1*
X8753774Y2129431D1*
X8797231Y2151613D1*
X8829824Y2173794D1*
X8840688Y2184885D1*
X8851552Y2207067D1*
X8840688D1*
X8710317Y2184885D1*
X8698688Y2178263D1*
X8689447Y2179508D1*
X8680601Y2189613D1*
X8681385Y2198691D1*
X8688588Y2207067D1*
X8721181Y2262521D1*
Y2317975D1*
X8688588Y2284703D1*
X8666860Y2273612D1*
X8634267Y2262521D1*
X8612538Y2240339D1*
X8604425Y2233217D1*
X8598795Y2233865D1*
X8590935Y2240673D1*
X8579946Y2251430D1*
Y2284703D1*
X8590810Y2295793D1*
Y2373429D1*
X8579946Y2384520D1*
X8569081Y2351248D1*
Y2340157D1*
X8536489Y2306884D1*
X8514760Y2295793D1*
X8503896Y2273612D1*
Y2251430D1*
X8495782Y2244308D1*
X8490153Y2244955D1*
X8482167Y2251430D1*
X8460439Y2295793D1*
X8449575Y2340157D1*
X8438710Y2373429D1*
X8427846Y2384520D1*
X8406118D1*
Y2273612D1*
X8395253Y2262521D1*
Y2240339D1*
X8380768Y2229249D1*
X8366282D1*
X8351796Y2240339D1*
X8340932Y2251430D1*
X8330311Y2263063D1*
X8321351Y2276916D1*
X8319204Y2284703D1*
X8286611Y2317975D1*
X8264882Y2329066D1*
X8254018D1*
X8275747Y2295793D1*
X8286611Y2229249D1*
X8297475Y2207067D1*
X8308339Y2195976D1*
Y2173794D1*
X8296710Y2167172D1*
X8287277Y2167884D1*
X8275747Y2173794D1*
X8267633Y2166672D1*
X8262003Y2167320D1*
X8254018Y2173794D1*
X8232290Y2195976D1*
X8188833Y2218158D1*
X8145376D1*
X8167104Y2195976D1*
X8188833Y2184885D1*
X8199697Y2173794D1*
Y2151613D1*
X8221425Y2118340D1*
X8243154Y2107249D1*
X8256038Y2094781D1*
X8254018Y2085068D1*
X8221425Y2073977D1*
X8188833D1*
X8156240Y2085068D1*
X8112783D1*
X8091054Y2073977D1*
X8080190Y2062886D1*
X8145376Y2051795D1*
X8167104Y2040705D1*
X8188833Y2018523D1*
X8210561Y2007432D1*
X8243154Y1996341D1*
X8351796D1*
X8355367Y2009797D1*
X8362661Y2018523D1*
X8384389Y2029614D1*
X8406118D1*
X8427846Y2018523D1*
X8384389Y1996341D1*
X8372760Y1989719D1*
X8363327Y1990431D1*
X8351796Y1996341D1*
X8243154D1*
G37*
G36*
X8594652Y1914784D2*
X8605516Y1925875D1*
X8597833Y1933718D1*
X8586968Y1922627D1*
X8594652Y1914784D1*
G37*
G36*
X8427846Y1918706D2*
D1*
G37*
G36*
X8406118Y1929796D2*
D1*
G37*
G36*
X8351796Y2051795D2*
X8406118Y2107249D1*
X8427846Y2118340D1*
X8460439Y2129431D1*
X8482167Y2140522D1*
X8503896D1*
X8547353Y2118340D1*
X8601674Y2085068D1*
X8590810Y2107249D1*
X8525624Y2140522D1*
X8449575D1*
X8427846Y2129431D1*
X8373525Y2085068D1*
Y2073977D1*
X8351796Y2051795D1*
G37*
G36*
X8623403Y2062886D2*
D1*
G37*
X675399Y4387325D2*
D55*
X723972Y4514935D1*
X772545Y4387325D1*
X902871Y4417648D2*
X896834Y4405575D1*
X884621Y4393362D1*
X872548Y4387325D1*
X848261D1*
X836048Y4393362D1*
X823975Y4405575D1*
X817798Y4417648D1*
X811761Y4435898D1*
Y4466362D1*
X817798Y4484471D1*
X823975Y4496685D1*
X836048Y4508758D1*
X848261Y4514935D1*
X872548D1*
X884621Y4508758D1*
X896834Y4496685D1*
X902871Y4484471D1*
X1033196Y4417648D2*
X1027160Y4405575D1*
X1014946Y4393362D1*
X1002873Y4387325D1*
X978586D1*
X966373Y4393362D1*
X954300Y4405575D1*
X948123Y4417648D1*
X942086Y4435898D1*
Y4466362D1*
X948123Y4484471D1*
X954300Y4496685D1*
X966373Y4508758D1*
X978586Y4514935D1*
X1002873D1*
X1014946Y4508758D1*
X1027160Y4496685D1*
X1033196Y4484471D1*
X764619Y4162648D2*
X758582Y4150575D1*
X746369Y4138362D1*
X734295Y4132325D1*
X710009D1*
X697795Y4138362D1*
X685722Y4150575D1*
X679545Y4162648D1*
X673509Y4180898D1*
Y4211362D1*
X679545Y4229471D1*
X685722Y4241685D1*
X697795Y4253758D1*
X710009Y4259935D1*
X734295D1*
X746369Y4253758D1*
X758582Y4241685D1*
X764619Y4229471D1*
Y4211362D1*
X734295D1*
X888907Y4132325D2*
Y4259935D1*
X803834Y4132325D1*
Y4259935D1*
X928123Y4132325D2*
Y4259935D1*
X970660D1*
X988910Y4253758D1*
X1001123Y4241685D1*
X1007160Y4229471D1*
X1013196Y4211362D1*
Y4180898D1*
X1007160Y4162648D1*
X1001123Y4150575D1*
X988910Y4138362D1*
X970660Y4132325D1*
X928123D1*
X768907Y3897648D2*
X762871Y3885575D1*
X750657Y3873362D1*
X738584Y3867325D1*
X714298D1*
X702084Y3873362D1*
X690011Y3885575D1*
X683834Y3897648D1*
X677798Y3915898D1*
Y3946362D1*
X683834Y3964471D1*
X690011Y3976685D1*
X702084Y3988758D1*
X714298Y3994935D1*
X738584D1*
X750657Y3988758D1*
X762871Y3976685D1*
X768907Y3964471D1*
X893196Y3885575D2*
X881123Y3873362D1*
X862873Y3867325D1*
X838586D1*
X820336Y3873362D1*
X808123Y3885575D1*
Y3897648D1*
X814300Y3909862D1*
X820336Y3915898D1*
X832410Y3921935D1*
X868910Y3934148D1*
X881123Y3940185D1*
X887160Y3946362D1*
X893196Y3958435D1*
Y3976685D1*
X881123Y3988758D1*
X862873Y3994935D1*
X838586D1*
X820336Y3988758D1*
X808123Y3976685D1*
X690722Y3683112D2*
X745332D1*
X763582Y3676935D1*
X769759Y3670898D1*
X775795Y3658825D1*
Y3646612D1*
X769759Y3634539D1*
X763582Y3628362D1*
X745332Y3622325D1*
X690722D1*
Y3749935D1*
X733259Y3683112D2*
X775795Y3749935D1*
X893907Y3622325D2*
X815011D1*
Y3749935D1*
X893907D1*
X815011Y3683112D2*
X863584D1*
X1018196Y3640575D2*
X1006123Y3628362D1*
X987873Y3622325D1*
X963586D1*
X945336Y3628362D1*
X933123Y3640575D1*
Y3652648D1*
X939300Y3664862D1*
X945336Y3670898D1*
X957410Y3676935D1*
X993910Y3689148D1*
X1006123Y3695185D1*
X1012160Y3701362D1*
X1018196Y3713435D1*
Y3731685D1*
X1006123Y3743758D1*
X987873Y3749935D1*
X963586D1*
X945336Y3743758D1*
X933123Y3731685D1*
X677798Y3372325D2*
Y3499935D1*
X720334D1*
X738584Y3493758D1*
X750798Y3481685D1*
X756834Y3469471D1*
X762871Y3451362D1*
Y3420898D1*
X756834Y3402648D1*
X750798Y3390575D1*
X738584Y3378362D1*
X720334Y3372325D1*
X677798D1*
X893196Y3402648D2*
X887160Y3390575D1*
X874946Y3378362D1*
X862873Y3372325D1*
X838586D1*
X826373Y3378362D1*
X814300Y3390575D1*
X808123Y3402648D1*
X802086Y3420898D1*
Y3451362D1*
X808123Y3469471D1*
X814300Y3481685D1*
X826373Y3493758D1*
X838586Y3499935D1*
X862873D1*
X874946Y3493758D1*
X887160Y3481685D1*
X893196Y3469471D1*
X759692Y3130575D2*
X747619Y3118362D1*
X729369Y3112325D1*
X705082D1*
X686832Y3118362D1*
X674619Y3130575D1*
Y3142648D1*
X680795Y3154862D1*
X686832Y3160898D1*
X698905Y3166935D1*
X735405Y3179148D1*
X747619Y3185185D1*
X753655Y3191362D1*
X759692Y3203435D1*
Y3221685D1*
X747619Y3233758D1*
X729369Y3239935D1*
X705082D1*
X686832Y3233758D1*
X674619Y3221685D1*
X798907Y3112325D2*
Y3239935D1*
X841444D1*
X859694Y3233758D1*
X871907Y3221685D1*
X877944Y3209471D1*
X883980Y3191362D1*
Y3160898D1*
X877944Y3142648D1*
X871907Y3130575D1*
X859694Y3118362D1*
X841444Y3112325D1*
X798907D1*
X923196D2*
Y3239935D1*
X752089Y2873310D2*
D56*
X742430Y2863539D1*
X727830Y2858710D1*
X708401D1*
X693801Y2863539D1*
X684030Y2873310D1*
Y2882969D1*
X688972Y2892739D1*
X693801Y2897569D1*
X703460Y2902398D1*
X732660Y2912169D1*
X742430Y2916998D1*
X747260Y2921939D1*
X752089Y2931598D1*
Y2946198D1*
X742430Y2955856D1*
X727830Y2960798D1*
X708401D1*
X693801Y2955856D1*
X684030Y2946198D1*
X856349Y2882969D2*
X851520Y2873310D1*
X841749Y2863539D1*
X832091Y2858710D1*
X812661D1*
X802891Y2863539D1*
X793232Y2873310D1*
X788291Y2882969D1*
X783461Y2897569D1*
Y2921939D1*
X788291Y2936427D1*
X793232Y2946198D1*
X802891Y2955856D1*
X812661Y2960798D1*
X832091D1*
X841749Y2955856D1*
X851520Y2946198D1*
X856349Y2936427D1*
X887722Y2858710D2*
Y2960798D1*
X955780Y2858710D2*
X887722Y2926769D1*
X911980Y2902398D2*
X955780Y2960798D1*
X688572Y2614583D2*
Y2716671D1*
X746860D1*
X841349Y2614583D2*
X778232D1*
Y2716671D1*
X841349D1*
X778232Y2663213D2*
X817091D1*
X872722Y2614583D2*
Y2716671D1*
X906751D1*
X921351Y2711730D1*
X931122Y2702071D1*
X935951Y2692300D1*
X940780Y2677813D1*
Y2653442D1*
X935951Y2638842D1*
X931122Y2629183D1*
X921351Y2619413D1*
X906751Y2614583D1*
X872722D1*
X787545Y2375575D2*
D55*
X775472Y2363362D1*
X757222Y2357325D1*
X732936D1*
X714686Y2363362D1*
X702472Y2375575D1*
Y2387648D1*
X708649Y2399862D1*
X714686Y2405898D1*
X726759Y2411935D1*
X763259Y2424148D1*
X775472Y2430185D1*
X781509Y2436362D1*
X787545Y2448435D1*
Y2466685D1*
X775472Y2478758D1*
X757222Y2484935D1*
X732936D1*
X714686Y2478758D1*
X702472Y2466685D1*
X826761Y2357325D2*
Y2484935D1*
X869298D1*
X887548Y2478758D1*
X899761Y2466685D1*
X905798Y2454471D1*
X911834Y2436362D1*
Y2405898D1*
X905798Y2387648D1*
X899761Y2375575D1*
X887548Y2363362D1*
X869298Y2357325D1*
X826761D1*
X987550D2*
X975336Y2363362D1*
X963263Y2375575D1*
X957086Y2387648D1*
X951050Y2405898D1*
Y2436362D1*
X957086Y2454471D1*
X963263Y2466685D1*
X975336Y2478758D1*
X987550Y2484935D1*
X1011836D1*
X1023910Y2478758D1*
X1036123Y2466685D1*
X1042160Y2454471D1*
X1048196Y2436362D1*
Y2405898D1*
X1042160Y2387648D1*
X1036123Y2375575D1*
X1023910Y2363362D1*
X1011836Y2357325D1*
X987550D1*
X744358Y2087325D2*
Y2214935D1*
X701822Y2087325D2*
X786895D1*
X826111Y2235992D2*
X941507D1*
X1071832Y2117648D2*
X1065795Y2105575D1*
X1053582Y2093362D1*
X1041509Y2087325D1*
X1017222D1*
X1005009Y2093362D1*
X992936Y2105575D1*
X986759Y2117648D1*
X980722Y2135898D1*
Y2166362D1*
X986759Y2184471D1*
X992936Y2196685D1*
X1005009Y2208758D1*
X1017222Y2214935D1*
X1041509D1*
X1053582Y2208758D1*
X1065795Y2196685D1*
X1071832Y2184471D1*
X1111048Y2087325D2*
Y2214935D1*
X1183907D1*
X1223123Y2087325D2*
Y2214935D1*
X1308196Y2087325D2*
X1223123Y2172398D1*
X1253446Y2141935D2*
X1308196Y2214935D1*
X711434Y1842325D2*
Y1969935D1*
X668897Y1842325D2*
X753970D1*
X793186Y1990992D2*
X908582D1*
X1032871Y1860575D2*
X1020798Y1848362D1*
X1002548Y1842325D1*
X978261D1*
X960011Y1848362D1*
X947798Y1860575D1*
Y1872648D1*
X953975Y1884862D1*
X960011Y1890898D1*
X972084Y1896935D1*
X1008584Y1909148D1*
X1020798Y1915185D1*
X1026834Y1921362D1*
X1032871Y1933435D1*
Y1951685D1*
X1020798Y1963758D1*
X1002548Y1969935D1*
X978261D1*
X960011Y1963758D1*
X947798Y1951685D1*
X1163196Y1872648D2*
X1157160Y1860575D1*
X1144946Y1848362D1*
X1132873Y1842325D1*
X1108586D1*
X1096373Y1848362D1*
X1084300Y1860575D1*
X1078123Y1872648D1*
X1072086Y1890898D1*
Y1921362D1*
X1078123Y1939471D1*
X1084300Y1951685D1*
X1096373Y1963758D1*
X1108586Y1969935D1*
X1132873D1*
X1144946Y1963758D1*
X1157160Y1951685D1*
X1163196Y1939471D1*
X703254Y1582325D2*
Y1709935D1*
X660718Y1582325D2*
X745791D1*
X785007Y1730992D2*
X900403D1*
X939619Y1582325D2*
Y1709935D1*
X982155D1*
X1000405Y1703758D1*
X1012619Y1691685D1*
X1018655Y1679471D1*
X1024692Y1661362D1*
Y1630898D1*
X1018655Y1612648D1*
X1012619Y1600575D1*
X1000405Y1588362D1*
X982155Y1582325D1*
X939619D1*
X1063907D2*
Y1709935D1*
X1188196Y1582325D2*
Y1709935D1*
X1103123Y1582325D1*
Y1709935D1*
X745397Y1342325D2*
Y1469935D1*
X702861Y1342325D2*
X787934D1*
X827149Y1490992D2*
X942545D1*
X981761Y1342325D2*
Y1469935D1*
X1024298D1*
X1042548Y1463758D1*
X1054761Y1451685D1*
X1060798Y1439471D1*
X1066834Y1421362D1*
Y1390898D1*
X1060798Y1372648D1*
X1054761Y1360575D1*
X1042548Y1348362D1*
X1024298Y1342325D1*
X981761D1*
X1142550D2*
X1130336Y1348362D1*
X1118263Y1360575D1*
X1112086Y1372648D1*
X1106050Y1390898D1*
Y1421362D1*
X1112086Y1439471D1*
X1118263Y1451685D1*
X1130336Y1463758D1*
X1142550Y1469935D1*
X1166836D1*
X1178910Y1463758D1*
X1191123Y1451685D1*
X1197160Y1439471D1*
X1203196Y1421362D1*
Y1390898D1*
X1197160Y1372648D1*
X1191123Y1360575D1*
X1178910Y1348362D1*
X1166836Y1342325D1*
X1142550D1*
X746041Y1077325D2*
Y1204935D1*
X703504Y1077325D2*
X788578D1*
X827793Y1225992D2*
X943189D1*
X982405Y1077325D2*
Y1204935D1*
X1021621Y1138112D2*
X1076230D1*
X1094480Y1131935D1*
X1100657Y1125898D1*
X1106694Y1113825D1*
Y1101612D1*
X1100657Y1089539D1*
X1094480Y1083362D1*
X1076230Y1077325D1*
X1021621D1*
Y1204935D1*
X1064157Y1138112D2*
X1106694Y1204935D1*
X1182410Y1077325D2*
X1170336Y1083221D1*
X1158123Y1095435D1*
X1152086Y1107648D1*
X1145910Y1125898D1*
Y1156221D1*
X1152086Y1174471D1*
X1158123Y1186544D1*
X1170336Y1198758D1*
X1182410Y1204794D1*
X1206696D1*
X1218910Y1198758D1*
X1230983Y1186544D1*
X1237019Y1174471D1*
X1243196Y1156221D1*
Y1125898D1*
X1237019Y1107648D1*
X1230983Y1095435D1*
X1218910Y1083221D1*
X1206696Y1077325D1*
X1182410D1*
X1200660Y1180508D2*
X1237019Y1217008D1*
X1203899Y3362325D2*
X1252472Y3489935D1*
X1301045Y3362325D1*
X1431371Y3392648D2*
X1425334Y3380575D1*
X1413121Y3368362D1*
X1401048Y3362325D1*
X1376761D1*
X1364548Y3368362D1*
X1352475Y3380575D1*
X1346298Y3392648D1*
X1340261Y3410898D1*
Y3441362D1*
X1346298Y3459471D1*
X1352475Y3471685D1*
X1364548Y3483758D1*
X1376761Y3489935D1*
X1401048D1*
X1413121Y3483758D1*
X1425334Y3471685D1*
X1431371Y3459471D1*
X1561696Y3392648D2*
X1555660Y3380575D1*
X1543446Y3368362D1*
X1531373Y3362325D1*
X1507086D1*
X1494873Y3368362D1*
X1482800Y3380575D1*
X1476623Y3392648D1*
X1470586Y3410898D1*
Y3441362D1*
X1476623Y3459471D1*
X1482800Y3471685D1*
X1494873Y3483758D1*
X1507086Y3489935D1*
X1531373D1*
X1543446Y3483758D1*
X1555660Y3471685D1*
X1561696Y3459471D1*
X1244871Y3112325D2*
Y3239935D1*
X1202334Y3112325D2*
X1287407D1*
X1326623D2*
X1411696Y3239935D1*
Y3112325D2*
X1326623Y3239935D1*
X1202334Y2918112D2*
X1256944D1*
X1275194Y2911935D1*
X1281371Y2905898D1*
X1287407Y2893825D1*
Y2881612D1*
X1281371Y2869539D1*
X1275194Y2863362D1*
X1256944Y2857325D1*
X1202334D1*
Y2984935D1*
X1244871Y2918112D2*
X1287407Y2984935D1*
X1326623Y2857325D2*
X1411696Y2984935D1*
Y2857325D2*
X1326623Y2984935D1*
X1277245Y2627648D2*
X1271209Y2615575D1*
X1258995Y2603362D1*
X1246922Y2597325D1*
X1222636D1*
X1210422Y2603362D1*
X1198349Y2615575D1*
X1192172Y2627648D1*
X1186136Y2645898D1*
Y2676362D1*
X1192172Y2694471D1*
X1198349Y2706685D1*
X1210422Y2718758D1*
X1222636Y2724935D1*
X1246922D1*
X1258995Y2718758D1*
X1271209Y2706685D1*
X1277245Y2694471D1*
Y2676362D1*
X1246922D1*
X1401534Y2597325D2*
Y2724935D1*
X1316461Y2597325D1*
Y2724935D1*
X1440750Y2597325D2*
Y2724935D1*
X1483286D1*
X1501536Y2718758D1*
X1513750Y2706685D1*
X1519786Y2694471D1*
X1525823Y2676362D1*
Y2645898D1*
X1519786Y2627648D1*
X1513750Y2615575D1*
X1501536Y2603362D1*
X1483286Y2597325D1*
X1440750D1*
X7279750Y924813D2*
D58*
Y1077945D1*
X7345450D1*
X7367350Y1070533D1*
X7374594Y1063289D1*
X7381838Y1048801D1*
Y1026901D1*
X7374594Y1012245D1*
X7367350Y1005001D1*
X7345450Y997757D1*
X7367350Y990345D1*
X7374594Y983101D1*
X7381838Y968613D1*
Y953957D1*
X7374594Y939470D1*
X7367350Y932057D1*
X7345450Y924813D1*
X7279750D1*
Y997757D2*
X7345450D1*
X7428897Y924813D2*
Y1077945D1*
X7592531D2*
Y924813D1*
X7534243Y1077945D1*
X7475956Y924813D1*
Y1077945D1*
X7654246Y924982D2*
X7734265D1*
X7690634Y983270D1*
X7712534D1*
X7727021Y990513D1*
X7734265Y997757D1*
X7741677Y1019657D1*
Y1034145D1*
X7734265Y1056045D1*
X7719777Y1070701D1*
X7697877Y1077945D1*
X7675977D1*
X7654246Y1070701D1*
X7647002Y1063289D1*
X7639590Y1048801D1*
X7796149Y961370D2*
Y954126D1*
X7803392Y939470D1*
X7810636Y932226D1*
X7825292Y924982D1*
X7854436D1*
X7868924Y932226D1*
X7876168Y939470D1*
X7883580Y954126D1*
Y968613D1*
X7876168Y983270D1*
X7861680Y1005001D1*
X7788736Y1077945D1*
X7890824D1*
X8086019Y924813D2*
X8122575Y1077945D1*
X8158962Y924813D1*
X8195350Y1077945D1*
X8231906Y924813D1*
X8278965Y1019657D2*
X8366397D1*
Y1005001D1*
X8359153Y990345D1*
X8351909Y983101D1*
X8337253Y975857D1*
X8315353D1*
X8300865Y983101D1*
X8286209Y997757D1*
X8278965Y1019657D1*
Y1034145D1*
X8286209Y1056045D1*
X8300865Y1070533D1*
X8315353Y1077945D1*
X8337253D1*
X8351909Y1070533D1*
X8366397Y1056045D1*
X8500887Y975857D2*
Y1077945D1*
Y997757D2*
X8486399Y983101D1*
X8471743Y975857D1*
X8450012D1*
X8435355Y983101D1*
X8420868Y997757D1*
X8413455Y1019657D1*
Y1034145D1*
X8420868Y1056045D1*
X8435355Y1070533D1*
X8450012Y1077945D1*
X8471743D1*
X8486399Y1070533D1*
X8500887Y1056045D1*
X8569846Y924813D2*
Y1048801D1*
X8577090Y1070533D1*
X8591746Y1077945D1*
X8606233D1*
X8547946Y975857D2*
X8598990D1*
X8653292Y924813D2*
Y1077945D1*
Y1005001D2*
X8675192Y983101D1*
X8689848Y975857D1*
X8711748D1*
X8726236Y983101D1*
X8733480Y1005001D1*
Y1077945D1*
X8780539Y1019657D2*
X8867970D1*
Y1005001D1*
X8860726Y990345D1*
X8853483Y983101D1*
X8838826Y975857D1*
X8816926D1*
X8802439Y983101D1*
X8787783Y997757D1*
X8780539Y1019657D1*
Y1034145D1*
X8787783Y1056045D1*
X8802439Y1070533D1*
X8816926Y1077945D1*
X8838826D1*
X8853483Y1070533D1*
X8867970Y1056045D1*
X8915029Y975857D2*
Y1077945D1*
Y1019657D2*
X8922441Y997757D1*
X8936929Y983101D1*
X8951585Y975857D1*
X8973485D1*
X7396326Y1355407D2*
Y1202275D1*
X7338038Y1355407D1*
X7279750Y1202275D1*
Y1355407D1*
X7479772Y1253319D2*
X7465284Y1260563D1*
X7450628Y1275219D1*
X7443384Y1297119D1*
Y1311607D1*
X7450628Y1333507D1*
X7465284Y1347995D1*
X7479772Y1355407D1*
X7501672D1*
X7516328Y1347995D1*
X7530816Y1333507D1*
X7538228Y1311607D1*
Y1297119D1*
X7530816Y1275219D1*
X7516328Y1260563D1*
X7501672Y1253319D1*
X7479772D1*
X7585287D2*
Y1355407D1*
Y1282463D2*
X7607187Y1260563D1*
X7621843Y1253319D1*
X7643575D1*
X7658231Y1260563D1*
X7665475Y1282463D1*
Y1355407D1*
X7712534Y1202275D2*
X7719777Y1209519D1*
X7727190Y1202275D1*
X7719777Y1194863D1*
X7712534Y1202275D1*
X7719777Y1253319D2*
Y1355407D1*
X7796149Y1202275D2*
Y1326263D1*
X7803392Y1347995D1*
X7818049Y1355407D1*
X7832536D1*
X7774249Y1253319D2*
X7825292D1*
X7915983D2*
X7901495Y1260563D1*
X7886839Y1275219D1*
X7879595Y1297119D1*
Y1311607D1*
X7886839Y1333507D1*
X7901495Y1347995D1*
X7915983Y1355407D1*
X7937883D1*
X7952539Y1347995D1*
X7967027Y1333507D1*
X7974439Y1311607D1*
Y1297119D1*
X7967027Y1275219D1*
X7952539Y1260563D1*
X7937883Y1253319D1*
X7915983D1*
X8021498D2*
Y1355407D1*
Y1297119D2*
X8028910Y1275219D1*
X8043398Y1260563D1*
X8058054Y1253319D1*
X8079954D1*
X8275148D2*
X8318948Y1355407D1*
X8362580Y1253319D1*
X8482583Y1355407D2*
Y1202444D1*
X8409639Y1304363D1*
X8518970D1*
X8573273Y1340751D2*
X8566029Y1348163D1*
X8573273Y1355407D1*
X8580685Y1348163D1*
X8573273Y1340751D1*
X8671544Y1202444D2*
X8649644Y1209688D1*
X8634988Y1231588D1*
X8627744Y1267975D1*
Y1289875D1*
X8634988Y1326263D1*
X8649644Y1348163D1*
X8671544Y1355407D1*
X8686032D1*
X8707932Y1348163D1*
X8722420Y1326263D1*
X8729832Y1289875D1*
Y1267975D1*
X8722420Y1231588D1*
X8707932Y1209688D1*
X8686032Y1202444D1*
X8671544D1*
X8722420Y1231588D2*
X8634988Y1326263D1*
X1932198Y4945110D2*
D55*
X2059808D1*
Y4902573D1*
X2053631Y4884323D1*
X2041558Y4872110D1*
X2029345Y4866073D1*
X2011235Y4860037D1*
X1980771D1*
X1962521Y4866073D1*
X1950448Y4872110D1*
X1938235Y4884323D1*
X1932198Y4902573D1*
Y4945110D1*
X1950448Y4735748D2*
X1938235Y4747821D1*
X1932198Y4766071D1*
Y4790357D1*
X1938235Y4808607D1*
X1950448Y4820821D1*
X1962521D1*
X1974735Y4814644D1*
X1980771Y4808607D1*
X1986808Y4796534D1*
X1999021Y4760034D1*
X2005058Y4747821D1*
X2011235Y4741784D1*
X2023308Y4735748D1*
X2041558D1*
X2053631Y4747821D1*
X2059808Y4766071D1*
Y4790357D1*
X2053631Y4808607D1*
X2041558Y4820821D1*
X1956625Y4696532D2*
X1950448Y4684319D1*
X1932339Y4666069D1*
X2059808D1*
X1932339Y4596530D2*
X1938375Y4614639D1*
X1950448Y4620816D1*
X1962662D1*
X1974735Y4614639D1*
X1980912Y4602566D1*
X1986948Y4578280D1*
X1992985Y4560030D1*
X2005198Y4547957D1*
X2017271Y4541920D1*
X2035521D1*
X2047595Y4547957D1*
X2053771Y4553993D1*
X2059808Y4572243D1*
Y4596530D1*
X2053771Y4614639D1*
X2047595Y4620816D1*
X2035521Y4626853D1*
X2017271D1*
X2005198Y4620816D1*
X1992985Y4608603D1*
X1986948Y4590493D1*
X1980912Y4566207D1*
X1974735Y4553993D1*
X1962662Y4547957D1*
X1950448D1*
X1938375Y4553993D1*
X1932339Y4572243D1*
Y4596530D1*
X1932198Y4502705D2*
X2059808D1*
Y4447955D1*
X2053631Y4429705D1*
X2047595Y4423668D1*
X2035521Y4417631D1*
X2017271D1*
X2005058Y4423668D1*
X1999021Y4429705D1*
X1992985Y4447955D1*
X1986808Y4429705D1*
X1980771Y4423668D1*
X1968698Y4417631D1*
X1956485D1*
X1944412Y4423668D1*
X1938235Y4429705D1*
X1932198Y4447955D1*
Y4502705D1*
X1992985D2*
Y4447955D1*
X1962662Y4372239D2*
X1956625D1*
X1944412Y4366202D1*
X1938375Y4360166D1*
X1932339Y4347952D1*
Y4323666D1*
X1938375Y4311593D1*
X1944412Y4305556D1*
X1956625Y4299379D1*
X1968698D1*
X1980912Y4305556D1*
X1999021Y4317629D1*
X2059808Y4378416D1*
Y4293343D1*
X1932339Y4217627D2*
X1938375Y4235877D1*
X1956625Y4248090D1*
X1986948Y4254127D1*
X2005198D1*
X2035521Y4248090D1*
X2053771Y4235877D1*
X2059808Y4217627D1*
Y4205554D1*
X2053771Y4187304D1*
X2035521Y4175231D1*
X2005198Y4169054D1*
X1986948D1*
X1956625Y4175231D1*
X1938375Y4187304D1*
X1932339Y4205554D1*
Y4217627D1*
X1956625Y4175231D2*
X2035521Y4248090D1*
X1678202Y4941782D2*
X1805811D1*
Y4899246D1*
X1799634Y4880996D1*
X1787561Y4868782D1*
X1775348Y4862746D1*
X1757238Y4856709D1*
X1726775D1*
X1708525Y4862746D1*
X1696452Y4868782D1*
X1684238Y4880996D1*
X1678202Y4899246D1*
Y4941782D1*
Y4817493D2*
X1805811D1*
X1678202Y4732420D2*
X1805811D1*
X1738988Y4817493D2*
Y4732420D1*
X1678202Y4650668D2*
X1805811D1*
X1678202Y4693205D2*
Y4608131D1*
X1708665Y4562739D2*
X1702629D1*
X1690415Y4556702D1*
X1684379Y4550666D1*
X1678342Y4538452D1*
Y4514166D1*
X1684379Y4502093D1*
X1690415Y4496056D1*
X1702629Y4489879D1*
X1714702D1*
X1726915Y4496056D1*
X1745025Y4508129D1*
X1805811Y4568916D1*
Y4483843D1*
X1708665Y4438450D2*
X1702629D1*
X1690415Y4432414D1*
X1684379Y4426377D1*
X1678342Y4414164D1*
Y4389877D1*
X1684379Y4377804D1*
X1690415Y4371767D1*
X1702629Y4365590D1*
X1714702D1*
X1726915Y4371767D1*
X1745025Y4383840D1*
X1805811Y4444627D1*
Y4359554D1*
X1442452Y4858472D2*
X1430238Y4870545D1*
X1424202Y4888795D1*
Y4913081D1*
X1430238Y4931331D1*
X1442452Y4943545D1*
X1454525D1*
X1466738Y4937368D1*
X1472775Y4931331D1*
X1478811Y4919258D1*
X1491025Y4882758D1*
X1497061Y4870545D1*
X1503238Y4864508D1*
X1515311Y4858472D1*
X1533561D1*
X1545634Y4870545D1*
X1551811Y4888795D1*
Y4913081D1*
X1545634Y4931331D1*
X1533561Y4943545D1*
X1424202Y4819256D2*
X1551811D1*
Y4776719D1*
X1545634Y4758469D1*
X1533561Y4746256D1*
X1521348Y4740219D1*
X1503238Y4734183D1*
X1472775D1*
X1454525Y4740219D1*
X1442452Y4746256D1*
X1430238Y4758469D1*
X1424202Y4776719D1*
Y4819256D1*
X1551811Y4597681D2*
X1424202Y4646394D1*
X1551811Y4694967D1*
X1509275Y4676717D2*
Y4615931D1*
X1188448Y4855955D2*
X1176235Y4868028D1*
X1170198Y4886278D1*
Y4910564D1*
X1176235Y4928814D1*
X1188448Y4941028D1*
X1200521D1*
X1212735Y4934851D1*
X1218771Y4928814D1*
X1224808Y4916741D1*
X1237021Y4880241D1*
X1243058Y4868028D1*
X1249235Y4861991D1*
X1261308Y4855955D1*
X1279558D1*
X1291631Y4868028D1*
X1297808Y4886278D1*
Y4910564D1*
X1291631Y4928814D1*
X1279558Y4941028D1*
X1200521Y4725629D2*
X1188448Y4731666D1*
X1176235Y4743879D1*
X1170198Y4755952D1*
Y4780239D1*
X1176235Y4792452D1*
X1188448Y4804525D1*
X1200521Y4810702D1*
X1218771Y4816739D1*
X1249235D1*
X1267345Y4810702D1*
X1279558Y4804525D1*
X1291631Y4792452D1*
X1297808Y4780239D1*
Y4755952D1*
X1291631Y4743879D1*
X1279558Y4731666D1*
X1267345Y4725629D1*
X1170198Y4686414D2*
X1297808D1*
Y4613554D1*
X678075Y4955477D2*
X805685Y4906904D1*
X678075Y4858331D1*
X708398Y4728006D2*
X696325Y4734042D1*
X684112Y4746256D1*
X678075Y4758329D1*
Y4782616D1*
X684112Y4794829D1*
X696325Y4806902D1*
X708398Y4813079D1*
X726648Y4819116D1*
X757112D1*
X775221Y4813079D1*
X787435Y4806902D1*
X799508Y4794829D1*
X805685Y4782616D1*
Y4758329D1*
X799508Y4746256D1*
X787435Y4734042D1*
X775221Y4728006D1*
X708398Y4597681D2*
X696325Y4603717D1*
X684112Y4615931D1*
X678075Y4628004D1*
Y4652290D1*
X684112Y4664504D1*
X696325Y4676577D1*
X708398Y4682754D1*
X726648Y4688790D1*
X757112D1*
X775221Y4682754D1*
X787435Y4676577D1*
X799508Y4664504D1*
X805685Y4652290D1*
Y4628004D1*
X799508Y4615931D1*
X787435Y4603717D1*
X775221Y4597681D1*
X946525Y4862131D2*
X934452Y4868168D1*
X922238Y4880381D1*
X916202Y4892455D1*
Y4916741D1*
X922238Y4928955D1*
X934452Y4941028D1*
X946525Y4947205D1*
X964775Y4953241D1*
X995238D1*
X1013348Y4947205D1*
X1025561Y4941028D1*
X1037634Y4928955D1*
X1043811Y4916741D1*
Y4892455D1*
X1037634Y4880381D1*
X1025561Y4868168D1*
X1013348Y4862131D1*
X995238D1*
Y4892455D1*
X916202Y4737843D2*
X1043811D1*
X916202Y4822916D1*
X1043811D1*
X916202Y4698627D2*
X1043811D1*
Y4656090D1*
X1037634Y4637840D1*
X1025561Y4625627D1*
X1013348Y4619590D1*
X995238Y4613554D1*
X964775D1*
X946525Y4619590D1*
X934452Y4625627D1*
X922238Y4637840D1*
X916202Y4656090D1*
Y4698627D1*
X9052904Y3444863D2*
X9058940Y3463113D1*
X9077190Y3475326D1*
X9107513Y3481363D1*
X9125763D1*
X9156086Y3475326D1*
X9174336Y3463113D1*
X9180373Y3444863D1*
Y3432790D1*
X9174336Y3414540D1*
X9156086Y3402467D1*
X9125763Y3396290D1*
X9107513D1*
X9077190Y3402467D1*
X9058940Y3414540D1*
X9052904Y3432790D1*
Y3444863D1*
X9077190Y3402467D2*
X9156086Y3475326D1*
X9168160Y3351038D2*
X9174336Y3357074D1*
X9180373Y3351038D1*
X9174336Y3344861D1*
X9168160Y3351038D1*
X9077190Y3305645D2*
X9071013Y3293431D1*
X9052904Y3275181D1*
X9180373D1*
X9095300Y3235966D2*
X9156086D1*
X9174196Y3229929D1*
X9180373Y3217716D1*
Y3199466D1*
X9174196Y3187393D1*
X9156086Y3169143D1*
X9095300D2*
X9180373D1*
X9052763Y3050890D2*
Y3129927D1*
X9180373D1*
X9113550D2*
Y3081354D1*
X2577654Y4496736D2*
X2583690Y4514986D1*
X2601940Y4527200D1*
X2632263Y4533236D1*
X2650513D1*
X2680836Y4527200D1*
X2699086Y4514986D1*
X2705123Y4496736D1*
Y4484663D1*
X2699086Y4466413D1*
X2680836Y4454340D1*
X2650513Y4448163D1*
X2632263D1*
X2601940Y4454340D1*
X2583690Y4466413D1*
X2577654Y4484663D1*
Y4496736D1*
X2601940Y4454340D2*
X2680836Y4527200D1*
X2692910Y4402911D2*
X2699086Y4408947D1*
X2705123Y4402911D1*
X2699086Y4396734D1*
X2692910Y4402911D1*
X2601940Y4357518D2*
X2595763Y4345305D1*
X2577654Y4327055D1*
X2705123D1*
X2620050Y4287839D2*
X2680836D1*
X2698946Y4281803D1*
X2705123Y4269589D1*
Y4251339D1*
X2698946Y4239266D1*
X2680836Y4221016D1*
X2620050D2*
X2705123D1*
X2577513Y4102764D2*
Y4181800D1*
X2705123D1*
X2638300D2*
Y4133227D1*
X529264Y5449404D2*
X511014Y5455440D1*
X498800Y5473690D1*
X492764Y5504013D1*
Y5522263D1*
X498800Y5552586D1*
X511014Y5570836D1*
X529264Y5576873D1*
X541337D1*
X559587Y5570836D1*
X571660Y5552586D1*
X577837Y5522263D1*
Y5504013D1*
X571660Y5473690D1*
X559587Y5455440D1*
X541337Y5449404D1*
X529264D1*
X571660Y5473690D2*
X498800Y5552586D1*
X623089Y5564660D2*
X617053Y5570836D1*
X623089Y5576873D1*
X629266Y5570836D1*
X623089Y5564660D1*
X668482Y5473690D2*
X680695Y5467513D1*
X698945Y5449404D1*
Y5576873D1*
X738161Y5491800D2*
Y5552586D1*
X744197Y5570696D1*
X756411Y5576873D1*
X774661D1*
X786734Y5570696D1*
X804984Y5552586D1*
Y5491800D2*
Y5576873D1*
X923236Y5449263D2*
X844200D1*
Y5576873D1*
Y5510050D2*
X892773D1*
X2629390Y2915344D2*
X2611140Y2921380D1*
X2598927Y2939630D1*
X2592890Y2969953D1*
Y2988203D1*
X2598927Y3018526D1*
X2611140Y3036776D1*
X2629390Y3042813D1*
X2641464D1*
X2659714Y3036776D1*
X2671787Y3018526D1*
X2677964Y2988203D1*
Y2969953D1*
X2671787Y2939630D1*
X2659714Y2921380D1*
X2641464Y2915344D1*
X2629390D1*
X2671787Y2939630D2*
X2598927Y3018526D1*
X2723216Y3030600D2*
X2717179Y3036776D1*
X2723216Y3042813D1*
X2729393Y3036776D1*
X2723216Y3030600D1*
X2768608Y2939630D2*
X2780822Y2933453D1*
X2799072Y2915344D1*
Y3042813D1*
X2838288Y2957740D2*
Y3018526D1*
X2844324Y3036636D1*
X2856538Y3042813D1*
X2874788D1*
X2886861Y3036636D1*
X2905111Y3018526D1*
Y2957740D2*
Y3042813D1*
X3023363Y2915203D2*
X2944326D1*
Y3042813D1*
Y2975990D2*
X2992899D1*
X4107507Y4748706D2*
X4113544Y4766956D1*
X4131794Y4779170D1*
X4162117Y4785206D1*
X4180367D1*
X4210690Y4779170D1*
X4228940Y4766956D1*
X4234976Y4748706D1*
Y4736633D1*
X4228940Y4718383D1*
X4210690Y4706310D1*
X4180367Y4700133D1*
X4162117D1*
X4131794Y4706310D1*
X4113544Y4718383D1*
X4107507Y4736633D1*
Y4748706D1*
X4131794Y4706310D2*
X4210690Y4779170D1*
X4222763Y4654881D2*
X4228940Y4660917D1*
X4234976Y4654881D1*
X4228940Y4648704D1*
X4222763Y4654881D1*
X4131794Y4609488D2*
X4125617Y4597275D1*
X4107507Y4579025D1*
X4234976D1*
X4149903Y4539809D2*
X4210690D1*
X4228799Y4533773D1*
X4234976Y4521559D1*
Y4503309D1*
X4228799Y4491236D1*
X4210690Y4472986D1*
X4149903D2*
X4234976D1*
X4107367Y4354734D2*
Y4433770D1*
X4234976D1*
X4168153D2*
Y4385197D1*
X8709717Y4242736D2*
X8715754Y4260986D1*
X8734004Y4273200D1*
X8764327Y4279236D1*
X8782577D1*
X8812900Y4273200D1*
X8831150Y4260986D1*
X8837186Y4242736D1*
Y4230663D1*
X8831150Y4212413D1*
X8812900Y4200340D1*
X8782577Y4194163D1*
X8764327D1*
X8734004Y4200340D1*
X8715754Y4212413D1*
X8709717Y4230663D1*
Y4242736D1*
X8734004Y4200340D2*
X8812900Y4273200D1*
X8824973Y4148911D2*
X8831150Y4154947D1*
X8837186Y4148911D1*
X8831150Y4142734D1*
X8824973Y4148911D1*
X8734004Y4103518D2*
X8727827Y4091305D1*
X8709717Y4073055D1*
X8837186D1*
X8752113Y4033839D2*
X8812900D1*
X8831009Y4027803D1*
X8837186Y4015589D1*
Y3997339D1*
X8831009Y3985266D1*
X8812900Y3967016D1*
X8752113D2*
X8837186D1*
X8709577Y3848764D2*
Y3927800D1*
X8837186D1*
X8770363D2*
Y3879227D1*
X254594Y4420539D2*
X248417Y4408326D1*
X230307Y4390076D1*
X357776D1*
X230307Y4314360D2*
X236344Y4332610D1*
X254594Y4344824D1*
X284917Y4350860D1*
X303167D1*
X333490Y4344824D1*
X351740Y4332610D1*
X357776Y4314360D1*
Y4302287D1*
X351740Y4284037D1*
X333490Y4271964D1*
X303167Y4265787D1*
X284917D1*
X254594Y4271964D1*
X236344Y4284037D1*
X230307Y4302287D1*
Y4314360D1*
X254594Y4271964D2*
X333490Y4344824D1*
X230307Y4190071D2*
X236344Y4208321D1*
X254594Y4220535D1*
X284917Y4226571D1*
X303167D1*
X333490Y4220535D1*
X351740Y4208321D1*
X357776Y4190071D1*
Y4177998D1*
X351740Y4159748D1*
X333490Y4147675D1*
X303167Y4141498D1*
X284917D1*
X254594Y4147675D1*
X236344Y4159748D1*
X230307Y4177998D1*
Y4190071D1*
X254594Y4147675D2*
X333490Y4220535D1*
X272703Y4102283D2*
X333490D1*
X351599Y4096246D1*
X357776Y4084033D1*
Y4065783D1*
X351599Y4053710D1*
X333490Y4035460D1*
X272703D2*
X357776D1*
X230167Y3917207D2*
Y3996244D1*
X357776D1*
X290953D2*
Y3947671D1*
X3310427Y5238754D2*
X3322641Y5232577D1*
X3340891Y5214467D1*
Y5341936D1*
X3416606Y5214467D2*
X3398356Y5220504D1*
X3386143Y5238754D1*
X3380106Y5269077D1*
Y5287327D1*
X3386143Y5317650D1*
X3398356Y5335900D1*
X3416606Y5341936D1*
X3428680D1*
X3446930Y5335900D1*
X3459003Y5317650D1*
X3465180Y5287327D1*
Y5269077D1*
X3459003Y5238754D1*
X3446930Y5220504D1*
X3428680Y5214467D1*
X3416606D1*
X3459003Y5238754D2*
X3386143Y5317650D1*
X3540895Y5214467D2*
X3522645Y5220504D1*
X3510432Y5238754D1*
X3504395Y5269077D1*
Y5287327D1*
X3510432Y5317650D1*
X3522645Y5335900D1*
X3540895Y5341936D1*
X3552968D1*
X3571218Y5335900D1*
X3583291Y5317650D1*
X3589468Y5287327D1*
Y5269077D1*
X3583291Y5238754D1*
X3571218Y5220504D1*
X3552968Y5214467D1*
X3540895D1*
X3583291Y5238754D2*
X3510432Y5317650D1*
X3628684Y5256863D2*
Y5317650D1*
X3634721Y5335759D1*
X3646934Y5341936D1*
X3665184D1*
X3677257Y5335759D1*
X3695507Y5317650D1*
Y5256863D2*
Y5341936D1*
X3813759Y5214327D2*
X3734723D1*
Y5341936D1*
Y5275113D2*
X3783296D1*
X2964993Y4033263D2*
Y4160873D1*
X3089282Y4033263D2*
Y4160873D1*
X3004209Y4033263D1*
Y4160873D1*
X3189284D2*
Y4033404D1*
X3128498Y4118336D1*
X3219607D1*
X3258823Y4057690D2*
X3271036Y4051513D1*
X3289286Y4033404D1*
Y4160873D1*
X3389289D2*
Y4033404D1*
X3328502Y4118336D1*
X3419612D1*
X3489150Y4033404D2*
X3471041Y4039440D1*
X3464864Y4051513D1*
Y4063727D1*
X3471041Y4075800D1*
X3483114Y4081977D1*
X3507400Y4088013D1*
X3525650Y4094050D1*
X3537724Y4106263D1*
X3543760Y4118336D1*
Y4136586D1*
X3537724Y4148660D1*
X3531687Y4154836D1*
X3513437Y4160873D1*
X3489150D1*
X3471041Y4154836D1*
X3464864Y4148660D1*
X3458827Y4136586D1*
Y4118336D1*
X3464864Y4106263D1*
X3477077Y4094050D1*
X3495187Y4088013D1*
X3519474Y4081977D1*
X3531687Y4075800D1*
X3537724Y4063727D1*
Y4051513D1*
X3531687Y4039440D1*
X3513437Y4033404D1*
X3489150D1*
X8324813Y3366059D2*
X8197344D1*
X8282276Y3426845D1*
Y3335736D1*
X8197203Y3296520D2*
X8324813D1*
X8239740Y3235733D2*
X8300526Y3296520D1*
X8276240Y3272233D2*
X8324813Y3229697D1*
Y3166195D2*
X8197344Y3105408D1*
Y3190481D1*
X8669190Y3416519D2*
X8663013Y3404305D1*
X8644904Y3386055D1*
X8772373D1*
X8644904Y3310340D2*
X8650940Y3328590D1*
X8669190Y3340803D1*
X8699513Y3346840D1*
X8717763D1*
X8748086Y3340803D1*
X8766336Y3328590D1*
X8772373Y3310340D1*
Y3298267D1*
X8766336Y3280017D1*
X8748086Y3267944D1*
X8717763Y3261767D1*
X8699513D1*
X8669190Y3267944D1*
X8650940Y3280017D1*
X8644904Y3298267D1*
Y3310340D1*
X8669190Y3267944D2*
X8748086Y3340803D1*
X8644763Y3222551D2*
X8772373D1*
X8687300Y3161764D2*
X8748086Y3222551D1*
X8723800Y3198264D2*
X8772373Y3155728D1*
X7578441Y2199276D2*
Y2071807D1*
X7517655Y2156740D1*
X7608764D1*
X7647980Y2071667D2*
Y2199276D1*
X7708767Y2114203D2*
X7647980Y2174990D1*
X7672267Y2150703D2*
X7714803Y2199276D1*
X7778305D2*
X7839092Y2071807D1*
X7754019D1*
X7578441Y2453280D2*
Y2325810D1*
X7517655Y2410743D1*
X7608764D1*
X7647980Y2325670D2*
Y2453280D1*
X7708767Y2368207D2*
X7647980Y2428993D1*
X7672267Y2404707D2*
X7714803Y2453280D1*
X7778305D2*
X7839092Y2325810D1*
X7754019D1*
X7578068Y3465403D2*
Y3337934D1*
X7517281Y3422866D1*
X7608391D1*
X7647607Y3337793D2*
Y3465403D1*
X7708393Y3380330D2*
X7647607Y3441116D1*
X7671893Y3416830D2*
X7714430Y3465403D1*
X7777932D2*
X7838719Y3337934D1*
X7753645D1*
X1749936Y5545055D2*
X1622467D1*
X1707400Y5605842D1*
Y5514732D1*
X1622327Y5475517D2*
X1749936D1*
X1664863Y5414730D2*
X1725650Y5475517D1*
X1701363Y5451230D2*
X1749936Y5408694D1*
Y5345191D2*
X1622467Y5284405D1*
Y5369478D1*
X1112873Y5675055D2*
X985404D1*
X1070336Y5735842D1*
Y5644732D1*
X985263Y5605517D2*
X1112873D1*
X1027800Y5544730D2*
X1088586Y5605517D1*
X1064300Y5581230D2*
X1112873Y5538694D1*
Y5475191D2*
X985404Y5414405D1*
Y5499478D1*
X2261936Y5545055D2*
X2134467D1*
X2219400Y5605842D1*
Y5514732D1*
X2134327Y5475517D2*
X2261936D1*
X2176863Y5414730D2*
X2237650Y5475517D1*
X2213363Y5451230D2*
X2261936Y5408694D1*
Y5345191D2*
X2134467Y5284405D1*
Y5369478D1*
X6540259Y4869078D2*
X6588832Y4996688D1*
X6637405Y4869078D1*
X6676621D2*
Y4996688D1*
X6800909Y4869078D2*
Y4996688D1*
X6715836Y4869078D1*
Y4996688D1*
X6552332Y4645401D2*
X6546295Y4633328D1*
X6534082Y4621115D1*
X6522009Y4615078D1*
X6497722D1*
X6485509Y4621115D1*
X6473436Y4633328D1*
X6467259Y4645401D1*
X6461222Y4663651D1*
Y4694115D1*
X6467259Y4712225D1*
X6473436Y4724438D1*
X6485509Y4736511D1*
X6497722Y4742688D1*
X6522009D1*
X6534082Y4736511D1*
X6546295Y4724438D1*
X6552332Y4712225D1*
Y4694115D1*
X6522009D1*
X6676621Y4615078D2*
Y4742688D1*
X6591548Y4615078D1*
Y4742688D1*
X6715836Y4615078D2*
Y4742688D1*
X6758373D1*
X6776623Y4736511D1*
X6788836Y4724438D1*
X6794873Y4712225D1*
X6800909Y4694115D1*
Y4663651D1*
X6794873Y4645401D1*
X6788836Y4633328D1*
X6776623Y4621115D1*
X6758373Y4615078D1*
X6715836D1*
X6307075Y4391401D2*
X6301039Y4379328D1*
X6288825Y4367115D1*
X6276752Y4361078D1*
X6252466D1*
X6240252Y4367115D1*
X6228179Y4379328D1*
X6222002Y4391401D1*
X6215966Y4409651D1*
Y4440115D1*
X6222002Y4458225D1*
X6228179Y4470438D1*
X6240252Y4482511D1*
X6252466Y4488688D1*
X6276752D1*
X6288825Y4482511D1*
X6301039Y4470438D1*
X6307075Y4458225D1*
Y4440115D1*
X6276752D1*
X6346291Y4427901D2*
X6401041D1*
X6419151Y4421865D1*
X6425327Y4415688D1*
X6431364Y4403615D1*
Y4385365D1*
X6425327Y4373292D1*
X6419151Y4367115D1*
X6401041Y4361078D1*
X6346291D1*
Y4488688D1*
X6470580Y4361078D2*
Y4488688D1*
X6546295Y4361078D2*
X6534082Y4367115D1*
X6522009Y4379328D1*
X6515832Y4391401D1*
X6509795Y4409651D1*
Y4440115D1*
X6515832Y4458225D1*
X6522009Y4470438D1*
X6534082Y4482511D1*
X6546295Y4488688D1*
X6570582D1*
X6582655Y4482511D1*
X6594868Y4470438D1*
X6600905Y4458225D1*
X6606942Y4440115D1*
Y4409651D1*
X6600905Y4391401D1*
X6594868Y4379328D1*
X6582655Y4367115D1*
X6570582Y4361078D1*
X6546295D1*
X6646157Y4385505D2*
X6658371Y4379328D1*
X6676621Y4361219D1*
Y4488688D1*
X6728050Y4361219D2*
X6794732D1*
X6758373Y4409792D1*
X6776623D1*
X6788696Y4415828D1*
X6794732Y4421865D1*
X6800909Y4440115D1*
Y4452188D1*
X6794732Y4470438D1*
X6782659Y4482651D1*
X6764409Y4488688D1*
X6746159D1*
X6728050Y4482651D1*
X6722013Y4476475D1*
X6715836Y4464401D1*
X6307075Y4137401D2*
X6301039Y4125328D1*
X6288825Y4113115D1*
X6276752Y4107078D1*
X6252466D1*
X6240252Y4113115D1*
X6228179Y4125328D1*
X6222002Y4137401D1*
X6215966Y4155651D1*
Y4186115D1*
X6222002Y4204225D1*
X6228179Y4216438D1*
X6240252Y4228511D1*
X6252466Y4234688D1*
X6276752D1*
X6288825Y4228511D1*
X6301039Y4216438D1*
X6307075Y4204225D1*
Y4186115D1*
X6276752D1*
X6346291Y4173901D2*
X6401041D1*
X6419151Y4167865D1*
X6425327Y4161688D1*
X6431364Y4149615D1*
Y4131365D1*
X6425327Y4119292D1*
X6419151Y4113115D1*
X6401041Y4107078D1*
X6346291D1*
Y4234688D1*
X6470580Y4107078D2*
Y4234688D1*
X6546295Y4107078D2*
X6534082Y4113115D1*
X6522009Y4125328D1*
X6515832Y4137401D1*
X6509795Y4155651D1*
Y4186115D1*
X6515832Y4204225D1*
X6522009Y4216438D1*
X6534082Y4228511D1*
X6546295Y4234688D1*
X6570582D1*
X6582655Y4228511D1*
X6594868Y4216438D1*
X6600905Y4204225D1*
X6606942Y4186115D1*
Y4155651D1*
X6600905Y4137401D1*
X6594868Y4125328D1*
X6582655Y4113115D1*
X6570582Y4107078D1*
X6546295D1*
X6646157Y4131505D2*
X6658371Y4125328D1*
X6676621Y4107219D1*
Y4234688D1*
X6722013Y4137542D2*
Y4131505D1*
X6728050Y4119292D1*
X6734086Y4113255D1*
X6746300Y4107219D1*
X6770586D1*
X6782659Y4113255D1*
X6788696Y4119292D1*
X6794873Y4131505D1*
Y4143578D1*
X6788696Y4155792D1*
X6776623Y4173901D1*
X6715836Y4234688D1*
X6800909D1*
X6300295Y3883401D2*
X6294259Y3871328D1*
X6282045Y3859115D1*
X6269972Y3853078D1*
X6245686D1*
X6233472Y3859115D1*
X6221399Y3871328D1*
X6215222Y3883401D1*
X6209186Y3901651D1*
Y3932115D1*
X6215222Y3950225D1*
X6221399Y3962438D1*
X6233472Y3974511D1*
X6245686Y3980688D1*
X6269972D1*
X6282045Y3974511D1*
X6294259Y3962438D1*
X6300295Y3950225D1*
Y3932115D1*
X6269972D1*
X6339511Y3919901D2*
X6394261D1*
X6412371Y3913865D1*
X6418548Y3907688D1*
X6424584Y3895615D1*
Y3877365D1*
X6418548Y3865292D1*
X6412371Y3859115D1*
X6394261Y3853078D1*
X6339511D1*
Y3980688D1*
X6463800Y3853078D2*
Y3980688D1*
X6539515Y3853078D2*
X6527302Y3859115D1*
X6515229Y3871328D1*
X6509052Y3883401D1*
X6503015Y3901651D1*
Y3932115D1*
X6509052Y3950225D1*
X6515229Y3962438D1*
X6527302Y3974511D1*
X6539515Y3980688D1*
X6563802D1*
X6575875Y3974511D1*
X6588089Y3962438D1*
X6594125Y3950225D1*
X6600162Y3932115D1*
Y3901651D1*
X6594125Y3883401D1*
X6588089Y3871328D1*
X6575875Y3859115D1*
X6563802Y3853078D1*
X6539515D1*
X6639377Y3877505D2*
X6651591Y3871328D1*
X6669841Y3853219D1*
Y3980688D1*
X6769843D2*
Y3853219D1*
X6709056Y3938151D1*
X6800166D1*
X6252466Y3629401D2*
X6246429Y3617328D1*
X6234216Y3605115D1*
X6222143Y3599078D1*
X6197856D1*
X6185643Y3605115D1*
X6173569Y3617328D1*
X6167393Y3629401D1*
X6161356Y3647651D1*
Y3678115D1*
X6167393Y3696225D1*
X6173569Y3708438D1*
X6185643Y3720511D1*
X6197856Y3726688D1*
X6222143D1*
X6234216Y3720511D1*
X6246429Y3708438D1*
X6252466Y3696225D1*
Y3678115D1*
X6222143D1*
X6291681Y3665901D2*
X6346431D1*
X6364541Y3659865D1*
X6370718Y3653688D1*
X6376754Y3641615D1*
Y3623365D1*
X6370718Y3611292D1*
X6364541Y3605115D1*
X6346431Y3599078D1*
X6291681D1*
Y3726688D1*
X6415970Y3599078D2*
Y3726688D1*
X6491686Y3599078D2*
X6479472Y3605115D1*
X6467399Y3617328D1*
X6461222Y3629401D1*
X6455186Y3647651D1*
Y3678115D1*
X6461222Y3696225D1*
X6467399Y3708438D1*
X6479472Y3720511D1*
X6491686Y3726688D1*
X6515972D1*
X6528045Y3720511D1*
X6540259Y3708438D1*
X6546295Y3696225D1*
X6552332Y3678115D1*
Y3647651D1*
X6546295Y3629401D1*
X6540259Y3617328D1*
X6528045Y3605115D1*
X6515972Y3599078D1*
X6491686D1*
X6597724Y3629542D2*
Y3623505D1*
X6603761Y3611292D1*
X6609798Y3605255D1*
X6622011Y3599219D1*
X6646298D1*
X6658371Y3605255D1*
X6664407Y3611292D1*
X6670584Y3623505D1*
Y3635578D1*
X6664407Y3647792D1*
X6652334Y3665901D1*
X6591548Y3726688D1*
X6676621D1*
X6740123D2*
X6800909Y3599219D1*
X6715836D1*
X6263223Y3375401D2*
X6257186Y3363328D1*
X6244973Y3351115D1*
X6232899Y3345078D1*
X6208613D1*
X6196399Y3351115D1*
X6184326Y3363328D1*
X6178149Y3375401D1*
X6172113Y3393651D1*
Y3424115D1*
X6178149Y3442225D1*
X6184326Y3454438D1*
X6196399Y3466511D1*
X6208613Y3472688D1*
X6232899D1*
X6244973Y3466511D1*
X6257186Y3454438D1*
X6263223Y3442225D1*
Y3424115D1*
X6232899D1*
X6302438Y3411901D2*
X6357188D1*
X6375298Y3405865D1*
X6381475Y3399688D1*
X6387511Y3387615D1*
Y3369365D1*
X6381475Y3357292D1*
X6375298Y3351115D1*
X6357188Y3345078D1*
X6302438D1*
Y3472688D1*
X6426727Y3345078D2*
Y3472688D1*
X6502443Y3345078D2*
X6490229Y3351115D1*
X6478156Y3363328D1*
X6471979Y3375401D1*
X6465943Y3393651D1*
Y3424115D1*
X6471979Y3442225D1*
X6478156Y3454438D1*
X6490229Y3466511D1*
X6502443Y3472688D1*
X6526729D1*
X6538802Y3466511D1*
X6551016Y3454438D1*
X6557052Y3442225D1*
X6563089Y3424115D1*
Y3393651D1*
X6557052Y3375401D1*
X6551016Y3363328D1*
X6538802Y3351115D1*
X6526729Y3345078D1*
X6502443D1*
X6608481Y3375542D2*
Y3369505D1*
X6614518Y3357292D1*
X6620554Y3351255D1*
X6632768Y3345219D1*
X6657054D1*
X6669128Y3351255D1*
X6675164Y3357292D1*
X6681341Y3369505D1*
Y3381578D1*
X6675164Y3393792D1*
X6663091Y3411901D1*
X6602304Y3472688D1*
X6687378D1*
X6799453Y3363328D2*
X6793416Y3351255D1*
X6775166Y3345219D1*
X6763093D1*
X6744843Y3351255D1*
X6732630Y3369505D1*
X6726593Y3399828D1*
Y3430151D1*
X6732630Y3454438D1*
X6744843Y3466651D1*
X6763093Y3472688D1*
X6769130D1*
X6787239Y3466651D1*
X6799453Y3454438D1*
X6805489Y3436188D1*
Y3430151D1*
X6799453Y3411901D1*
X6787239Y3399828D1*
X6769130Y3393792D1*
X6763093D1*
X6744843Y3399828D1*
X6732630Y3411901D1*
X6726593Y3430151D1*
X6252466Y3137275D2*
X6246429Y3125202D1*
X6234216Y3112988D1*
X6222143Y3106952D1*
X6197856D1*
X6185643Y3112988D1*
X6173569Y3125202D1*
X6167393Y3137275D1*
X6161356Y3155525D1*
Y3185988D1*
X6167393Y3204098D1*
X6173569Y3216311D1*
X6185643Y3228384D1*
X6197856Y3234561D1*
X6222143D1*
X6234216Y3228384D1*
X6246429Y3216311D1*
X6252466Y3204098D1*
Y3185988D1*
X6222143D1*
X6291681Y3173775D2*
X6346431D1*
X6364541Y3167738D1*
X6370718Y3161561D1*
X6376754Y3149488D1*
Y3131238D1*
X6370718Y3119165D1*
X6364541Y3112988D1*
X6346431Y3106952D1*
X6291681D1*
Y3234561D1*
X6415970Y3106952D2*
Y3234561D1*
X6491686Y3106952D2*
X6479472Y3112988D1*
X6467399Y3125202D1*
X6461222Y3137275D1*
X6455186Y3155525D1*
Y3185988D1*
X6461222Y3204098D1*
X6467399Y3216311D1*
X6479472Y3228384D1*
X6491686Y3234561D1*
X6515972D1*
X6528045Y3228384D1*
X6540259Y3216311D1*
X6546295Y3204098D1*
X6552332Y3185988D1*
Y3155525D1*
X6546295Y3137275D1*
X6540259Y3125202D1*
X6528045Y3112988D1*
X6515972Y3106952D1*
X6491686D1*
X6597724Y3137415D2*
Y3131379D1*
X6603761Y3119165D1*
X6609798Y3113129D1*
X6622011Y3107092D1*
X6646298D1*
X6658371Y3113129D1*
X6664407Y3119165D1*
X6670584Y3131379D1*
Y3143452D1*
X6664407Y3155665D1*
X6652334Y3173775D1*
X6591548Y3234561D1*
X6676621D1*
X6788696Y3107092D2*
X6728050D1*
X6722013Y3161702D1*
X6728050Y3155665D1*
X6746300Y3149488D1*
X6764409D1*
X6782659Y3155665D1*
X6794873Y3167738D1*
X6800909Y3185988D1*
Y3198061D1*
X6794873Y3216311D1*
X6782659Y3228525D1*
X6764409Y3234561D1*
X6746300D1*
X6728050Y3228525D1*
X6722013Y3222348D1*
X6715836Y3210275D1*
X6252466Y2867401D2*
X6246429Y2855328D1*
X6234216Y2843115D1*
X6222143Y2837078D1*
X6197856D1*
X6185643Y2843115D1*
X6173569Y2855328D1*
X6167393Y2867401D1*
X6161356Y2885651D1*
Y2916115D1*
X6167393Y2934225D1*
X6173569Y2946438D1*
X6185643Y2958511D1*
X6197856Y2964688D1*
X6222143D1*
X6234216Y2958511D1*
X6246429Y2946438D1*
X6252466Y2934225D1*
Y2916115D1*
X6222143D1*
X6291681Y2903901D2*
X6346431D1*
X6364541Y2897865D1*
X6370718Y2891688D1*
X6376754Y2879615D1*
Y2861365D1*
X6370718Y2849292D1*
X6364541Y2843115D1*
X6346431Y2837078D1*
X6291681D1*
Y2964688D1*
X6415970Y2837078D2*
Y2964688D1*
X6491686Y2837078D2*
X6479472Y2843115D1*
X6467399Y2855328D1*
X6461222Y2867401D1*
X6455186Y2885651D1*
Y2916115D1*
X6461222Y2934225D1*
X6467399Y2946438D1*
X6479472Y2958511D1*
X6491686Y2964688D1*
X6515972D1*
X6528045Y2958511D1*
X6540259Y2946438D1*
X6546295Y2934225D1*
X6552332Y2916115D1*
Y2885651D1*
X6546295Y2867401D1*
X6540259Y2855328D1*
X6528045Y2843115D1*
X6515972Y2837078D1*
X6491686D1*
X6603761Y2837219D2*
X6670444D1*
X6634084Y2885792D1*
X6652334D1*
X6664407Y2891828D1*
X6670444Y2897865D1*
X6676621Y2916115D1*
Y2928188D1*
X6670444Y2946438D1*
X6658371Y2958651D1*
X6640121Y2964688D1*
X6621871D1*
X6603761Y2958651D1*
X6597724Y2952475D1*
X6591548Y2940401D1*
X6728050Y2837219D2*
X6794732D1*
X6758373Y2885792D1*
X6776623D1*
X6788696Y2891828D1*
X6794732Y2897865D1*
X6800909Y2916115D1*
Y2928188D1*
X6794732Y2946438D1*
X6782659Y2958651D1*
X6764409Y2964688D1*
X6746159D1*
X6728050Y2958651D1*
X6722013Y2952475D1*
X6715836Y2940401D1*
X6252466Y2613401D2*
X6246429Y2601328D1*
X6234216Y2589115D1*
X6222143Y2583078D1*
X6197856D1*
X6185643Y2589115D1*
X6173569Y2601328D1*
X6167393Y2613401D1*
X6161356Y2631651D1*
Y2662115D1*
X6167393Y2680225D1*
X6173569Y2692438D1*
X6185643Y2704511D1*
X6197856Y2710688D1*
X6222143D1*
X6234216Y2704511D1*
X6246429Y2692438D1*
X6252466Y2680225D1*
Y2662115D1*
X6222143D1*
X6291681Y2649901D2*
X6346431D1*
X6364541Y2643865D1*
X6370718Y2637688D1*
X6376754Y2625615D1*
Y2607365D1*
X6370718Y2595292D1*
X6364541Y2589115D1*
X6346431Y2583078D1*
X6291681D1*
Y2710688D1*
X6415970Y2583078D2*
Y2710688D1*
X6491686Y2583078D2*
X6479472Y2589115D1*
X6467399Y2601328D1*
X6461222Y2613401D1*
X6455186Y2631651D1*
Y2662115D1*
X6461222Y2680225D1*
X6467399Y2692438D1*
X6479472Y2704511D1*
X6491686Y2710688D1*
X6515972D1*
X6528045Y2704511D1*
X6540259Y2692438D1*
X6546295Y2680225D1*
X6552332Y2662115D1*
Y2631651D1*
X6546295Y2613401D1*
X6540259Y2601328D1*
X6528045Y2589115D1*
X6515972Y2583078D1*
X6491686D1*
X6603761Y2583219D2*
X6670444D1*
X6634084Y2631792D1*
X6652334D1*
X6664407Y2637828D1*
X6670444Y2643865D1*
X6676621Y2662115D1*
Y2674188D1*
X6670444Y2692438D1*
X6658371Y2704651D1*
X6640121Y2710688D1*
X6621871D1*
X6603761Y2704651D1*
X6597724Y2698475D1*
X6591548Y2686401D1*
X6722013Y2613542D2*
Y2607505D1*
X6728050Y2595292D1*
X6734086Y2589255D1*
X6746300Y2583219D1*
X6770586D1*
X6782659Y2589255D1*
X6788696Y2595292D1*
X6794873Y2607505D1*
Y2619578D1*
X6788696Y2631792D1*
X6776623Y2649901D1*
X6715836Y2710688D1*
X6800909D1*
X6252466Y2359401D2*
X6246429Y2347328D1*
X6234216Y2335115D1*
X6222143Y2329078D1*
X6197856D1*
X6185643Y2335115D1*
X6173569Y2347328D1*
X6167393Y2359401D1*
X6161356Y2377651D1*
Y2408115D1*
X6167393Y2426225D1*
X6173569Y2438438D1*
X6185643Y2450511D1*
X6197856Y2456688D1*
X6222143D1*
X6234216Y2450511D1*
X6246429Y2438438D1*
X6252466Y2426225D1*
Y2408115D1*
X6222143D1*
X6291681Y2395901D2*
X6346431D1*
X6364541Y2389865D1*
X6370718Y2383688D1*
X6376754Y2371615D1*
Y2353365D1*
X6370718Y2341292D1*
X6364541Y2335115D1*
X6346431Y2329078D1*
X6291681D1*
Y2456688D1*
X6415970Y2329078D2*
Y2456688D1*
X6491686Y2329078D2*
X6479472Y2335115D1*
X6467399Y2347328D1*
X6461222Y2359401D1*
X6455186Y2377651D1*
Y2408115D1*
X6461222Y2426225D1*
X6467399Y2438438D1*
X6479472Y2450511D1*
X6491686Y2456688D1*
X6515972D1*
X6528045Y2450511D1*
X6540259Y2438438D1*
X6546295Y2426225D1*
X6552332Y2408115D1*
Y2377651D1*
X6546295Y2359401D1*
X6540259Y2347328D1*
X6528045Y2335115D1*
X6515972Y2329078D1*
X6491686D1*
X6603761Y2329219D2*
X6670444D1*
X6634084Y2377792D1*
X6652334D1*
X6664407Y2383828D1*
X6670444Y2389865D1*
X6676621Y2408115D1*
Y2420188D1*
X6670444Y2438438D1*
X6658371Y2450651D1*
X6640121Y2456688D1*
X6621871D1*
X6603761Y2450651D1*
X6597724Y2444475D1*
X6591548Y2432401D1*
X6788696Y2329219D2*
X6728050D1*
X6722013Y2383828D1*
X6728050Y2377792D1*
X6746300Y2371615D1*
X6764409D1*
X6782659Y2377792D1*
X6794873Y2389865D1*
X6800909Y2408115D1*
Y2420188D1*
X6794873Y2438438D1*
X6782659Y2450651D1*
X6764409Y2456688D1*
X6746300D1*
X6728050Y2450651D1*
X6722013Y2444475D1*
X6715836Y2432401D1*
X6249446Y2105401D2*
X6243409Y2093328D1*
X6231196Y2081115D1*
X6219123Y2075078D1*
X6194836D1*
X6182623Y2081115D1*
X6170550Y2093328D1*
X6164373Y2105401D1*
X6158336Y2123651D1*
Y2154115D1*
X6164373Y2172225D1*
X6170550Y2184438D1*
X6182623Y2196511D1*
X6194836Y2202688D1*
X6219123D1*
X6231196Y2196511D1*
X6243409Y2184438D1*
X6249446Y2172225D1*
Y2154115D1*
X6219123D1*
X6288661Y2141901D2*
X6343411D1*
X6361521Y2135865D1*
X6367698Y2129688D1*
X6373734Y2117615D1*
Y2099365D1*
X6367698Y2087292D1*
X6361521Y2081115D1*
X6343411Y2075078D1*
X6288661D1*
Y2202688D1*
X6412950Y2075078D2*
Y2202688D1*
X6488666Y2075078D2*
X6476452Y2081115D1*
X6464379Y2093328D1*
X6458202Y2105401D1*
X6452166Y2123651D1*
Y2154115D1*
X6458202Y2172225D1*
X6464379Y2184438D1*
X6476452Y2196511D1*
X6488666Y2202688D1*
X6512952D1*
X6525025Y2196511D1*
X6537239Y2184438D1*
X6543275Y2172225D1*
X6549312Y2154115D1*
Y2123651D1*
X6543275Y2105401D1*
X6537239Y2093328D1*
X6525025Y2081115D1*
X6512952Y2075078D1*
X6488666D1*
X6600741Y2075219D2*
X6667424D1*
X6631064Y2123792D1*
X6649314D1*
X6661387Y2129828D1*
X6667424Y2135865D1*
X6673601Y2154115D1*
Y2166188D1*
X6667424Y2184438D1*
X6655351Y2196651D1*
X6637101Y2202688D1*
X6618851D1*
X6600741Y2196651D1*
X6594705Y2190475D1*
X6588528Y2178401D1*
X6773603Y2202688D2*
Y2075219D1*
X6712816Y2160151D1*
X6803926D1*
X6261519Y1851401D2*
X6255482Y1839328D1*
X6243269Y1827115D1*
X6231196Y1821078D1*
X6206909D1*
X6194696Y1827115D1*
X6182623Y1839328D1*
X6176446Y1851401D1*
X6170409Y1869651D1*
Y1900115D1*
X6176446Y1918225D1*
X6182623Y1930438D1*
X6194696Y1942511D1*
X6206909Y1948688D1*
X6231196D1*
X6243269Y1942511D1*
X6255482Y1930438D1*
X6261519Y1918225D1*
Y1900115D1*
X6231196D1*
X6300734Y1887901D2*
X6355484D1*
X6373594Y1881865D1*
X6379771Y1875688D1*
X6385808Y1863615D1*
Y1845365D1*
X6379771Y1833292D1*
X6373594Y1827115D1*
X6355484Y1821078D1*
X6300734D1*
Y1948688D1*
X6425023Y1821078D2*
Y1948688D1*
X6500739Y1821078D2*
X6488525Y1827115D1*
X6476452Y1839328D1*
X6470275Y1851401D1*
X6464239Y1869651D1*
Y1900115D1*
X6470275Y1918225D1*
X6476452Y1930438D1*
X6488525Y1942511D1*
X6500739Y1948688D1*
X6525025D1*
X6537099Y1942511D1*
X6549312Y1930438D1*
X6555349Y1918225D1*
X6561385Y1900115D1*
Y1869651D1*
X6555349Y1851401D1*
X6549312Y1839328D1*
X6537099Y1827115D1*
X6525025Y1821078D1*
X6500739D1*
X6612814Y1821219D2*
X6679497D1*
X6643137Y1869792D1*
X6661387D1*
X6673460Y1875828D1*
X6679497Y1881865D1*
X6685674Y1900115D1*
Y1912188D1*
X6679497Y1930438D1*
X6667424Y1942651D1*
X6649174Y1948688D1*
X6630924D1*
X6612814Y1942651D1*
X6606778Y1936475D1*
X6600601Y1924401D1*
X6803926Y1863615D2*
X6797749Y1881865D1*
X6785676Y1894078D1*
X6767426Y1900115D1*
X6761390D1*
X6743140Y1894078D1*
X6731066Y1881865D1*
X6724890Y1863615D1*
Y1857578D1*
X6731066Y1839328D1*
X6743140Y1827255D1*
X6761390Y1821219D1*
X6767426D1*
X6785676Y1827255D1*
X6797749Y1839328D1*
X6803926Y1863615D1*
Y1894078D1*
X6797749Y1924401D1*
X6785676Y1942651D1*
X6767426Y1948688D1*
X6755353D1*
X6737103Y1942651D1*
X6731066Y1930438D1*
X6261589Y1597401D2*
X6255553Y1585328D1*
X6243339Y1573115D1*
X6231266Y1567078D1*
X6206980D1*
X6194766Y1573115D1*
X6182693Y1585328D1*
X6176516Y1597401D1*
X6170480Y1615651D1*
Y1646115D1*
X6176516Y1664225D1*
X6182693Y1676438D1*
X6194766Y1688511D1*
X6206980Y1694688D1*
X6231266D1*
X6243339Y1688511D1*
X6255553Y1676438D1*
X6261589Y1664225D1*
Y1646115D1*
X6231266D1*
X6300805Y1633901D2*
X6355555D1*
X6373664Y1627865D1*
X6379841Y1621688D1*
X6385878Y1609615D1*
Y1591365D1*
X6379841Y1579292D1*
X6373664Y1573115D1*
X6355555Y1567078D1*
X6300805D1*
Y1694688D1*
X6425094Y1567078D2*
Y1694688D1*
X6500809Y1567078D2*
X6488596Y1573115D1*
X6476523Y1585328D1*
X6470346Y1597401D1*
X6464309Y1615651D1*
Y1646115D1*
X6470346Y1664225D1*
X6476523Y1676438D1*
X6488596Y1688511D1*
X6500809Y1694688D1*
X6525096D1*
X6537169Y1688511D1*
X6549382Y1676438D1*
X6555419Y1664225D1*
X6561455Y1646115D1*
Y1615651D1*
X6555419Y1597401D1*
X6549382Y1585328D1*
X6537169Y1573115D1*
X6525096Y1567078D1*
X6500809D1*
X6612885Y1567219D2*
X6679567D1*
X6643208Y1615792D1*
X6661458D1*
X6673531Y1621828D1*
X6679567Y1627865D1*
X6685744Y1646115D1*
Y1658188D1*
X6679567Y1676438D1*
X6667494Y1688651D1*
X6649244Y1694688D1*
X6630994D1*
X6612885Y1688651D1*
X6606848Y1682475D1*
X6600671Y1670401D1*
X6797820Y1585328D2*
X6791783Y1573255D1*
X6773533Y1567219D1*
X6761460D1*
X6743210Y1573255D1*
X6730996Y1591505D1*
X6724960Y1621828D1*
Y1652151D1*
X6730996Y1676438D1*
X6743210Y1688651D1*
X6761460Y1694688D1*
X6767496D1*
X6785606Y1688651D1*
X6797820Y1676438D1*
X6803856Y1658188D1*
Y1652151D1*
X6797820Y1633901D1*
X6785606Y1621828D1*
X6767496Y1615792D1*
X6761460D1*
X6743210Y1621828D1*
X6730996Y1633901D1*
X6724960Y1652151D1*
X6679637Y1313078D2*
X6600741D1*
Y1440688D1*
X6679637D1*
X6600741Y1373865D2*
X6649314D1*
X6803926Y1313078D2*
Y1440688D1*
X6718853Y1313078D1*
Y1440688D1*
X4670662Y1343401D2*
X4664626Y1331328D1*
X4652412Y1319115D1*
X4640339Y1313078D1*
X4616053D1*
X4603839Y1319115D1*
X4591766Y1331328D1*
X4585589Y1343401D1*
X4579553Y1361651D1*
Y1392115D1*
X4585589Y1410225D1*
X4591766Y1422438D1*
X4603839Y1434511D1*
X4616053Y1440688D1*
X4640339D1*
X4652412Y1434511D1*
X4664626Y1422438D1*
X4670662Y1410225D1*
Y1392115D1*
X4640339D1*
X4709878Y1379901D2*
X4764628D1*
X4782738Y1373865D1*
X4788914Y1367688D1*
X4794951Y1355615D1*
Y1337365D1*
X4788914Y1325292D1*
X4782738Y1319115D1*
X4764628Y1313078D1*
X4709878D1*
Y1440688D1*
X4834167Y1313078D2*
Y1440688D1*
X4909882Y1313078D2*
X4897669Y1319115D1*
X4885596Y1331328D1*
X4879419Y1343401D1*
X4873382Y1361651D1*
Y1392115D1*
X4879419Y1410225D1*
X4885596Y1422438D1*
X4897669Y1434511D1*
X4909882Y1440688D1*
X4934169D1*
X4946242Y1434511D1*
X4958455Y1422438D1*
X4964492Y1410225D1*
X4970529Y1392115D1*
Y1361651D1*
X4964492Y1343401D1*
X4958455Y1331328D1*
X4946242Y1319115D1*
X4934169Y1313078D1*
X4909882D1*
X5015921Y1343542D2*
Y1337505D1*
X5021958Y1325292D1*
X5027994Y1319255D1*
X5040208Y1313219D1*
X5064494D1*
X5076567Y1319255D1*
X5082604Y1325292D1*
X5088781Y1337505D1*
Y1349578D1*
X5082604Y1361792D1*
X5070531Y1379901D1*
X5009744Y1440688D1*
X5094817D1*
X5146246Y1313219D2*
X5212929D1*
X5176570Y1361792D1*
X5194820D1*
X5206893Y1367828D1*
X5212929Y1373865D1*
X5219106Y1392115D1*
Y1404188D1*
X5212929Y1422438D1*
X5200856Y1434651D1*
X5182606Y1440688D1*
X5164356D1*
X5146246Y1434651D1*
X5140210Y1428475D1*
X5134033Y1416401D1*
X4670662Y1597401D2*
X4664626Y1585328D1*
X4652412Y1573115D1*
X4640339Y1567078D1*
X4616053D1*
X4603839Y1573115D1*
X4591766Y1585328D1*
X4585589Y1597401D1*
X4579553Y1615651D1*
Y1646115D1*
X4585589Y1664225D1*
X4591766Y1676438D1*
X4603839Y1688511D1*
X4616053Y1694688D1*
X4640339D1*
X4652412Y1688511D1*
X4664626Y1676438D1*
X4670662Y1664225D1*
Y1646115D1*
X4640339D1*
X4709878Y1633901D2*
X4764628D1*
X4782738Y1627865D1*
X4788914Y1621688D1*
X4794951Y1609615D1*
Y1591365D1*
X4788914Y1579292D1*
X4782738Y1573115D1*
X4764628Y1567078D1*
X4709878D1*
Y1694688D1*
X4834167Y1567078D2*
Y1694688D1*
X4909882Y1567078D2*
X4897669Y1573115D1*
X4885596Y1585328D1*
X4879419Y1597401D1*
X4873382Y1615651D1*
Y1646115D1*
X4879419Y1664225D1*
X4885596Y1676438D1*
X4897669Y1688511D1*
X4909882Y1694688D1*
X4934169D1*
X4946242Y1688511D1*
X4958455Y1676438D1*
X4964492Y1664225D1*
X4970529Y1646115D1*
Y1615651D1*
X4964492Y1597401D1*
X4958455Y1585328D1*
X4946242Y1573115D1*
X4934169Y1567078D1*
X4909882D1*
X5015921Y1597542D2*
Y1591505D1*
X5021958Y1579292D1*
X5027994Y1573255D1*
X5040208Y1567219D1*
X5064494D1*
X5076567Y1573255D1*
X5082604Y1579292D1*
X5088781Y1591505D1*
Y1603578D1*
X5082604Y1615792D1*
X5070531Y1633901D1*
X5009744Y1694688D1*
X5094817D1*
X5140210Y1597542D2*
Y1591505D1*
X5146246Y1579292D1*
X5152283Y1573255D1*
X5164496Y1567219D1*
X5188783D1*
X5200856Y1573255D1*
X5206893Y1579292D1*
X5213070Y1591505D1*
Y1603578D1*
X5206893Y1615792D1*
X5194820Y1633901D1*
X5134033Y1694688D1*
X5219106D1*
X4626365Y1821078D2*
Y1948688D1*
X4583829Y1821078D2*
X4668902D1*
X4708118D2*
X4793191Y1948688D1*
Y1821078D2*
X4708118Y1948688D1*
X4832406Y1821078D2*
Y1948688D1*
X4874943D1*
X4893193Y1942511D1*
X4905406Y1930438D1*
X4911443Y1918225D1*
X4917479Y1900115D1*
Y1869651D1*
X4911443Y1851401D1*
X4905406Y1839328D1*
X4893193Y1827115D1*
X4874943Y1821078D1*
X4832406D1*
X4599705Y2135865D2*
X4654315D1*
X4672565Y2129688D1*
X4678742Y2123651D1*
X4684779Y2111578D1*
Y2099365D1*
X4678742Y2087292D1*
X4672565Y2081115D1*
X4654315Y2075078D1*
X4599705D1*
Y2202688D1*
X4642242Y2135865D2*
X4684779Y2202688D1*
X4723994Y2075078D2*
X4809067Y2202688D1*
Y2075078D2*
X4723994Y2202688D1*
X4848283Y2075078D2*
Y2202688D1*
X4890820D1*
X4909070Y2196511D1*
X4921283Y2184438D1*
X4927320Y2172225D1*
X4933356Y2154115D1*
Y2123651D1*
X4927320Y2105401D1*
X4921283Y2093328D1*
X4909070Y2081115D1*
X4890820Y2075078D1*
X4848283D1*
X4670662Y2359401D2*
X4664625Y2347328D1*
X4652412Y2335115D1*
X4640339Y2329078D1*
X4616052D1*
X4603839Y2335115D1*
X4591766Y2347328D1*
X4585589Y2359401D1*
X4579552Y2377651D1*
Y2408115D1*
X4585589Y2426225D1*
X4591766Y2438438D1*
X4603839Y2450511D1*
X4616052Y2456688D1*
X4640339D1*
X4652412Y2450511D1*
X4664625Y2438438D1*
X4670662Y2426225D1*
Y2408115D1*
X4640339D1*
X4709878Y2395901D2*
X4764628D1*
X4782737Y2389865D1*
X4788914Y2383688D1*
X4794951Y2371615D1*
Y2353365D1*
X4788914Y2341292D1*
X4782737Y2335115D1*
X4764628Y2329078D1*
X4709878D1*
Y2456688D1*
X4834166Y2329078D2*
Y2456688D1*
X4909882Y2329078D2*
X4897669Y2335115D1*
X4885595Y2347328D1*
X4879419Y2359401D1*
X4873382Y2377651D1*
Y2408115D1*
X4879419Y2426225D1*
X4885595Y2438438D1*
X4897669Y2450511D1*
X4909882Y2456688D1*
X4934169D1*
X4946242Y2450511D1*
X4958455Y2438438D1*
X4964492Y2426225D1*
X4970528Y2408115D1*
Y2377651D1*
X4964492Y2359401D1*
X4958455Y2347328D1*
X4946242Y2335115D1*
X4934169Y2329078D1*
X4909882D1*
X5015921Y2359542D2*
Y2353505D1*
X5021957Y2341292D1*
X5027994Y2335255D1*
X5040207Y2329219D1*
X5064494D1*
X5076567Y2335255D1*
X5082603Y2341292D1*
X5088780Y2353505D1*
Y2365578D1*
X5082603Y2377792D1*
X5070530Y2395901D1*
X5009744Y2456688D1*
X5094817D1*
X5134033Y2353505D2*
X5146246Y2347328D1*
X5164496Y2329219D1*
Y2456688D1*
X4673682Y2613401D2*
X4667645Y2601328D1*
X4655432Y2589115D1*
X4643359Y2583078D1*
X4619072D1*
X4606859Y2589115D1*
X4594786Y2601328D1*
X4588609Y2613401D1*
X4582572Y2631651D1*
Y2662115D1*
X4588609Y2680225D1*
X4594786Y2692438D1*
X4606859Y2704511D1*
X4619072Y2710688D1*
X4643359D1*
X4655432Y2704511D1*
X4667645Y2692438D1*
X4673682Y2680225D1*
Y2662115D1*
X4643359D1*
X4712897Y2649901D2*
X4767647D1*
X4785757Y2643865D1*
X4791934Y2637688D1*
X4797971Y2625615D1*
Y2607365D1*
X4791934Y2595292D1*
X4785757Y2589115D1*
X4767647Y2583078D1*
X4712897D1*
Y2710688D1*
X4837186Y2583078D2*
Y2710688D1*
X4912902Y2583078D2*
X4900688Y2589115D1*
X4888615Y2601328D1*
X4882438Y2613401D1*
X4876402Y2631651D1*
Y2662115D1*
X4882438Y2680225D1*
X4888615Y2692438D1*
X4900688Y2704511D1*
X4912902Y2710688D1*
X4937188D1*
X4949262Y2704511D1*
X4961475Y2692438D1*
X4967512Y2680225D1*
X4973548Y2662115D1*
Y2631651D1*
X4967512Y2613401D1*
X4961475Y2601328D1*
X4949262Y2589115D1*
X4937188Y2583078D1*
X4912902D1*
X5012764Y2607505D2*
X5024977Y2601328D1*
X5043227Y2583219D1*
Y2710688D1*
X5161479Y2625615D2*
X5155302Y2643865D1*
X5143229Y2656078D1*
X5124979Y2662115D1*
X5118943D1*
X5100693Y2656078D1*
X5088620Y2643865D1*
X5082443Y2625615D1*
Y2619578D1*
X5088620Y2601328D1*
X5100693Y2589255D1*
X5118943Y2583219D1*
X5124979D1*
X5143229Y2589255D1*
X5155302Y2601328D1*
X5161479Y2625615D1*
Y2656078D1*
X5155302Y2686401D1*
X5143229Y2704651D1*
X5124979Y2710688D1*
X5112906D1*
X5094656Y2704651D1*
X5088620Y2692438D1*
X4670732Y2867401D2*
X4664696Y2855328D1*
X4652482Y2843115D1*
X4640409Y2837078D1*
X4616123D1*
X4603909Y2843115D1*
X4591836Y2855328D1*
X4585659Y2867401D1*
X4579623Y2885651D1*
Y2916115D1*
X4585659Y2934225D1*
X4591836Y2946438D1*
X4603909Y2958511D1*
X4616123Y2964688D1*
X4640409D1*
X4652482Y2958511D1*
X4664696Y2946438D1*
X4670732Y2934225D1*
Y2916115D1*
X4640409D1*
X4709948Y2903901D2*
X4764698D1*
X4782808Y2897865D1*
X4788984Y2891688D1*
X4795021Y2879615D1*
Y2861365D1*
X4788984Y2849292D1*
X4782808Y2843115D1*
X4764698Y2837078D1*
X4709948D1*
Y2964688D1*
X4834237Y2837078D2*
Y2964688D1*
X4909952Y2837078D2*
X4897739Y2843115D1*
X4885666Y2855328D1*
X4879489Y2867401D1*
X4873452Y2885651D1*
Y2916115D1*
X4879489Y2934225D1*
X4885666Y2946438D1*
X4897739Y2958511D1*
X4909952Y2964688D1*
X4934239D1*
X4946312Y2958511D1*
X4958525Y2946438D1*
X4964562Y2934225D1*
X4970599Y2916115D1*
Y2885651D1*
X4964562Y2867401D1*
X4958525Y2855328D1*
X4946312Y2843115D1*
X4934239Y2837078D1*
X4909952D1*
X5009814Y2861505D2*
X5022028Y2855328D1*
X5040278Y2837219D1*
Y2964688D1*
X5109816Y2837219D2*
X5091707Y2843255D1*
X5085530Y2855328D1*
Y2867542D1*
X5091707Y2879615D1*
X5103780Y2885792D1*
X5128066Y2891828D1*
X5146316Y2897865D1*
X5158390Y2910078D1*
X5164426Y2922151D1*
Y2940401D1*
X5158390Y2952475D1*
X5152353Y2958651D1*
X5134103Y2964688D1*
X5109816D1*
X5091707Y2958651D1*
X5085530Y2952475D1*
X5079493Y2940401D1*
Y2922151D1*
X5085530Y2910078D1*
X5097743Y2897865D1*
X5115853Y2891828D1*
X5140140Y2885792D1*
X5152353Y2879615D1*
X5158390Y2867542D1*
Y2855328D1*
X5152353Y2843255D1*
X5134103Y2837219D1*
X5109816D1*
X4673681Y3121401D2*
X4667644Y3109328D1*
X4655431Y3097115D1*
X4643358Y3091078D1*
X4619071D1*
X4606858Y3097115D1*
X4594785Y3109328D1*
X4588608Y3121401D1*
X4582571Y3139651D1*
Y3170115D1*
X4588608Y3188225D1*
X4594785Y3200438D1*
X4606858Y3212511D1*
X4619071Y3218688D1*
X4643358D1*
X4655431Y3212511D1*
X4667644Y3200438D1*
X4673681Y3188225D1*
Y3170115D1*
X4643358D1*
X4712897Y3157901D2*
X4767647D1*
X4785756Y3151865D1*
X4791933Y3145688D1*
X4797970Y3133615D1*
Y3115365D1*
X4791933Y3103292D1*
X4785756Y3097115D1*
X4767647Y3091078D1*
X4712897D1*
Y3218688D1*
X4837185Y3091078D2*
Y3218688D1*
X4912901Y3091078D2*
X4900688Y3097115D1*
X4888615Y3109328D1*
X4882438Y3121401D1*
X4876401Y3139651D1*
Y3170115D1*
X4882438Y3188225D1*
X4888615Y3200438D1*
X4900688Y3212511D1*
X4912901Y3218688D1*
X4937188D1*
X4949261Y3212511D1*
X4961474Y3200438D1*
X4967511Y3188225D1*
X4973547Y3170115D1*
Y3139651D1*
X4967511Y3121401D1*
X4961474Y3109328D1*
X4949261Y3097115D1*
X4937188Y3091078D1*
X4912901D1*
X5085623Y3091219D2*
X5024976D1*
X5018940Y3145828D1*
X5024976Y3139792D1*
X5043226Y3133615D1*
X5061336D1*
X5079586Y3139792D1*
X5091800Y3151865D1*
X5097836Y3170115D1*
Y3182188D1*
X5091800Y3200438D1*
X5079586Y3212651D1*
X5061336Y3218688D1*
X5043226D1*
X5024976Y3212651D1*
X5018940Y3206475D1*
X5012763Y3194401D1*
X4673682Y3375401D2*
X4667645Y3363328D1*
X4655432Y3351115D1*
X4643359Y3345078D1*
X4619072D1*
X4606859Y3351115D1*
X4594786Y3363328D1*
X4588609Y3375401D1*
X4582572Y3393651D1*
Y3424115D1*
X4588609Y3442225D1*
X4594786Y3454438D1*
X4606859Y3466511D1*
X4619072Y3472688D1*
X4643359D1*
X4655432Y3466511D1*
X4667645Y3454438D1*
X4673682Y3442225D1*
Y3424115D1*
X4643359D1*
X4712898Y3411901D2*
X4767648D1*
X4785757Y3405865D1*
X4791934Y3399688D1*
X4797971Y3387615D1*
Y3369365D1*
X4791934Y3357292D1*
X4785757Y3351115D1*
X4767648Y3345078D1*
X4712898D1*
Y3472688D1*
X4837186Y3345078D2*
Y3472688D1*
X4912902Y3345078D2*
X4900689Y3351115D1*
X4888615Y3363328D1*
X4882439Y3375401D1*
X4876402Y3393651D1*
Y3424115D1*
X4882439Y3442225D1*
X4888615Y3454438D1*
X4900689Y3466511D1*
X4912902Y3472688D1*
X4937189D1*
X4949262Y3466511D1*
X4961475Y3454438D1*
X4967512Y3442225D1*
X4973548Y3424115D1*
Y3393651D1*
X4967512Y3375401D1*
X4961475Y3363328D1*
X4949262Y3351115D1*
X4937189Y3345078D1*
X4912902D1*
X5012764Y3369505D2*
X5024977Y3363328D1*
X5043227Y3345219D1*
Y3472688D1*
X5106730D2*
X5167516Y3345219D1*
X5082443D1*
X4670662Y3629401D2*
X4664626Y3617328D1*
X4652412Y3605115D1*
X4640339Y3599078D1*
X4616053D1*
X4603839Y3605115D1*
X4591766Y3617328D1*
X4585589Y3629401D1*
X4579553Y3647651D1*
Y3678115D1*
X4585589Y3696225D1*
X4591766Y3708438D1*
X4603839Y3720511D1*
X4616053Y3726688D1*
X4640339D1*
X4652412Y3720511D1*
X4664626Y3708438D1*
X4670662Y3696225D1*
Y3678115D1*
X4640339D1*
X4709878Y3665901D2*
X4764628D1*
X4782737Y3659865D1*
X4788914Y3653688D1*
X4794951Y3641615D1*
Y3623365D1*
X4788914Y3611292D1*
X4782737Y3605115D1*
X4764628Y3599078D1*
X4709878D1*
Y3726688D1*
X4834167Y3599078D2*
Y3726688D1*
X4909882Y3599078D2*
X4897669Y3605115D1*
X4885596Y3617328D1*
X4879419Y3629401D1*
X4873382Y3647651D1*
Y3678115D1*
X4879419Y3696225D1*
X4885596Y3708438D1*
X4897669Y3720511D1*
X4909882Y3726688D1*
X4934169D1*
X4946242Y3720511D1*
X4958455Y3708438D1*
X4964492Y3696225D1*
X4970528Y3678115D1*
Y3647651D1*
X4964492Y3629401D1*
X4958455Y3617328D1*
X4946242Y3605115D1*
X4934169Y3599078D1*
X4909882D1*
X5009744Y3623505D2*
X5021958Y3617328D1*
X5040208Y3599219D1*
Y3726688D1*
X5152283Y3617328D2*
X5146246Y3605255D1*
X5127996Y3599219D1*
X5115923D1*
X5097673Y3605255D1*
X5085460Y3623505D1*
X5079423Y3653828D1*
Y3684151D1*
X5085460Y3708438D1*
X5097673Y3720651D1*
X5115923Y3726688D1*
X5121960D1*
X5140069Y3720651D1*
X5152283Y3708438D1*
X5158319Y3690188D1*
Y3684151D1*
X5152283Y3665901D1*
X5140069Y3653828D1*
X5121960Y3647792D1*
X5115923D1*
X5097673Y3653828D1*
X5085460Y3665901D1*
X5079423Y3684151D1*
X4673681Y3883401D2*
X4667645Y3871328D1*
X4655431Y3859115D1*
X4643358Y3853078D1*
X4619072D1*
X4606858Y3859115D1*
X4594785Y3871328D1*
X4588608Y3883401D1*
X4582572Y3901651D1*
Y3932115D1*
X4588608Y3950225D1*
X4594785Y3962438D1*
X4606858Y3974511D1*
X4619072Y3980688D1*
X4643358D1*
X4655431Y3974511D1*
X4667645Y3962438D1*
X4673681Y3950225D1*
Y3932115D1*
X4643358D1*
X4712897Y3919901D2*
X4767647D1*
X4785756Y3913865D1*
X4791933Y3907688D1*
X4797970Y3895615D1*
Y3877365D1*
X4791933Y3865292D1*
X4785756Y3859115D1*
X4767647Y3853078D1*
X4712897D1*
Y3980688D1*
X4837186Y3853078D2*
Y3980688D1*
X4912901Y3853078D2*
X4900688Y3859115D1*
X4888615Y3871328D1*
X4882438Y3883401D1*
X4876401Y3901651D1*
Y3932115D1*
X4882438Y3950225D1*
X4888615Y3962438D1*
X4900688Y3974511D1*
X4912901Y3980688D1*
X4937188D1*
X4949261Y3974511D1*
X4961474Y3962438D1*
X4967511Y3950225D1*
X4973547Y3932115D1*
Y3901651D1*
X4967511Y3883401D1*
X4961474Y3871328D1*
X4949261Y3859115D1*
X4937188Y3853078D1*
X4912901D1*
X5073550Y3980688D2*
Y3853219D1*
X5012763Y3938151D1*
X5103873D1*
X4670661Y4137401D2*
X4664624Y4125328D1*
X4652411Y4113115D1*
X4640338Y4107078D1*
X4616051D1*
X4603838Y4113115D1*
X4591765Y4125328D1*
X4585588Y4137401D1*
X4579551Y4155651D1*
Y4186115D1*
X4585588Y4204225D1*
X4591765Y4216438D1*
X4603838Y4228511D1*
X4616051Y4234688D1*
X4640338D1*
X4652411Y4228511D1*
X4664624Y4216438D1*
X4670661Y4204225D1*
Y4186115D1*
X4640338D1*
X4709877Y4173901D2*
X4764627D1*
X4782736Y4167865D1*
X4788913Y4161688D1*
X4794950Y4149615D1*
Y4131365D1*
X4788913Y4119292D1*
X4782736Y4113115D1*
X4764627Y4107078D1*
X4709877D1*
Y4234688D1*
X4834165Y4107078D2*
Y4234688D1*
X4909881Y4107078D2*
X4897668Y4113115D1*
X4885595Y4125328D1*
X4879418Y4137401D1*
X4873381Y4155651D1*
Y4186115D1*
X4879418Y4204225D1*
X4885595Y4216438D1*
X4897668Y4228511D1*
X4909881Y4234688D1*
X4934168D1*
X4946241Y4228511D1*
X4958454Y4216438D1*
X4964491Y4204225D1*
X4970527Y4186115D1*
Y4155651D1*
X4964491Y4137401D1*
X4958454Y4125328D1*
X4946241Y4113115D1*
X4934168Y4107078D1*
X4909881D1*
X5015920Y4137542D2*
Y4131505D1*
X5021956Y4119292D1*
X5027993Y4113255D1*
X5040206Y4107219D1*
X5064493D1*
X5076566Y4113255D1*
X5082603Y4119292D1*
X5088780Y4131505D1*
Y4143578D1*
X5082603Y4155792D1*
X5070530Y4173901D1*
X5009743Y4234688D1*
X5094816D1*
X4670662Y4391401D2*
X4664625Y4379328D1*
X4652412Y4367115D1*
X4640339Y4361078D1*
X4616052D1*
X4603839Y4367115D1*
X4591766Y4379328D1*
X4585589Y4391401D1*
X4579552Y4409651D1*
Y4440115D1*
X4585589Y4458225D1*
X4591766Y4470438D1*
X4603839Y4482511D1*
X4616052Y4488688D1*
X4640339D1*
X4652412Y4482511D1*
X4664625Y4470438D1*
X4670662Y4458225D1*
Y4440115D1*
X4640339D1*
X4709878Y4427901D2*
X4764628D1*
X4782737Y4421865D1*
X4788914Y4415688D1*
X4794951Y4403615D1*
Y4385365D1*
X4788914Y4373292D1*
X4782737Y4367115D1*
X4764628Y4361078D1*
X4709878D1*
Y4488688D1*
X4834166Y4361078D2*
Y4488688D1*
X4909882Y4361078D2*
X4897669Y4367115D1*
X4885595Y4379328D1*
X4879419Y4391401D1*
X4873382Y4409651D1*
Y4440115D1*
X4879419Y4458225D1*
X4885595Y4470438D1*
X4897669Y4482511D1*
X4909882Y4488688D1*
X4934169D1*
X4946242Y4482511D1*
X4958455Y4470438D1*
X4964492Y4458225D1*
X4970528Y4440115D1*
Y4409651D1*
X4964492Y4391401D1*
X4958455Y4379328D1*
X4946242Y4367115D1*
X4934169Y4361078D1*
X4909882D1*
X5009744Y4385505D2*
X5021957Y4379328D1*
X5040207Y4361219D1*
Y4488688D1*
X5152283Y4361219D2*
X5091636D1*
X5085600Y4415828D1*
X5091636Y4409792D1*
X5109886Y4403615D1*
X5127996D1*
X5146246Y4409792D1*
X5158460Y4421865D1*
X5164496Y4440115D1*
Y4452188D1*
X5158460Y4470438D1*
X5146246Y4482651D1*
X5127996Y4488688D1*
X5109886D1*
X5091636Y4482651D1*
X5085600Y4476475D1*
X5079423Y4464401D1*
X4670662Y4645401D2*
X4664625Y4633328D1*
X4652412Y4621115D1*
X4640339Y4615078D1*
X4616052D1*
X4603839Y4621115D1*
X4591766Y4633328D1*
X4585589Y4645401D1*
X4579552Y4663651D1*
Y4694115D1*
X4585589Y4712225D1*
X4591766Y4724438D1*
X4603839Y4736511D1*
X4616052Y4742688D1*
X4640339D1*
X4652412Y4736511D1*
X4664625Y4724438D1*
X4670662Y4712225D1*
Y4694115D1*
X4640339D1*
X4794951Y4615078D2*
Y4742688D1*
X4709878Y4615078D1*
Y4742688D1*
X4834166Y4615078D2*
Y4742688D1*
X4876703D1*
X4894953Y4736511D1*
X4907166Y4724438D1*
X4913203Y4712225D1*
X4919239Y4694115D1*
Y4663651D1*
X4913203Y4645401D1*
X4907166Y4633328D1*
X4894953Y4621115D1*
X4876703Y4615078D1*
X4834166D1*
X4634161Y4878274D2*
Y4987633D1*
X4579551Y4933024D2*
X4688911D1*
X4740340Y4869219D2*
X4807023D1*
X4770663Y4917792D1*
X4788913D1*
X4800986Y4923828D1*
X4807023Y4929865D1*
X4813200Y4948115D1*
Y4960188D1*
X4807023Y4978438D1*
X4794950Y4990651D1*
X4776700Y4996688D1*
X4758450D1*
X4740340Y4990651D1*
X4734304Y4984475D1*
X4728127Y4972401D1*
X4858452Y4984475D2*
X4852415Y4990651D1*
X4858452Y4996688D1*
X4864629Y4990651D1*
X4858452Y4984475D1*
X4916058Y4869219D2*
X4982741D1*
X4946381Y4917792D1*
X4964631D1*
X4976704Y4923828D1*
X4982741Y4929865D1*
X4988918Y4948115D1*
Y4960188D1*
X4982741Y4978438D1*
X4970668Y4990651D1*
X4952418Y4996688D1*
X4934168D1*
X4916058Y4990651D1*
X4910021Y4984475D1*
X4903844Y4972401D1*
X5028133Y4869078D2*
X5076706Y4996688D1*
X5125279Y4869078D1*
X3988029Y3162212D2*
X4036602Y3289821D1*
X4085175Y3162212D1*
X4215501Y3192535D2*
X4209464Y3180462D1*
X4197251Y3168248D1*
X4185178Y3162212D1*
X4160891D1*
X4148678Y3168248D1*
X4136605Y3180462D1*
X4130428Y3192535D1*
X4124391Y3210785D1*
Y3241248D1*
X4130428Y3259358D1*
X4136605Y3271571D1*
X4148678Y3283644D1*
X4160891Y3289821D1*
X4185178D1*
X4197251Y3283644D1*
X4209464Y3271571D1*
X4215501Y3259358D1*
X4345826Y3192535D2*
X4339790Y3180462D1*
X4327576Y3168248D1*
X4315503Y3162212D1*
X4291216D1*
X4279003Y3168248D1*
X4266930Y3180462D1*
X4260753Y3192535D1*
X4254716Y3210785D1*
Y3241248D1*
X4260753Y3259358D1*
X4266930Y3271571D1*
X4279003Y3283644D1*
X4291216Y3289821D1*
X4315503D1*
X4327576Y3283644D1*
X4339790Y3271571D1*
X4345826Y3259358D1*
X4065462Y3438911D2*
X4059425Y3426838D1*
X4047212Y3414625D1*
X4035139Y3408588D1*
X4010852D1*
X3998639Y3414625D1*
X3986566Y3426838D1*
X3980389Y3438911D1*
X3974352Y3457161D1*
Y3487625D1*
X3980389Y3505735D1*
X3986566Y3517948D1*
X3998639Y3530021D1*
X4010852Y3536198D1*
X4035139D1*
X4047212Y3530021D1*
X4059425Y3517948D1*
X4065462Y3505735D1*
Y3487625D1*
X4035139D1*
X4189751Y3408588D2*
Y3536198D1*
X4104678Y3408588D1*
Y3536198D1*
X4228966Y3408588D2*
Y3536198D1*
X4271503D1*
X4289753Y3530021D1*
X4301966Y3517948D1*
X4308003Y3505735D1*
X4314039Y3487625D1*
Y3457161D1*
X4308003Y3438911D1*
X4301966Y3426838D1*
X4289753Y3414625D1*
X4271503Y3408588D1*
X4228966D1*
X3988029Y3729928D2*
X4042638D1*
X4060888Y3723751D1*
X4067065Y3717715D1*
X4073102Y3705642D1*
Y3693428D1*
X4067065Y3681355D1*
X4060888Y3675178D1*
X4042638Y3669142D1*
X3988029D1*
Y3796751D1*
X4030565Y3729928D2*
X4073102Y3796751D1*
X4112318Y3669142D2*
X4197391Y3796751D1*
Y3669142D2*
X4112318Y3796751D1*
X4236606Y3669142D2*
Y3796751D1*
X4279143D1*
X4297393Y3790574D1*
X4309606Y3778501D1*
X4315643Y3766288D1*
X4321679Y3748178D1*
Y3717715D1*
X4315643Y3699465D1*
X4309606Y3687392D1*
X4297393Y3675178D1*
X4279143Y3669142D1*
X4236606D1*
X4019905Y3930712D2*
Y4058321D1*
X3977369Y3930712D2*
X4062442D1*
X4101658D2*
X4186731Y4058321D1*
Y3930712D2*
X4101658Y4058321D1*
X4225946Y3930712D2*
Y4058321D1*
X4268483D1*
X4286733Y4052144D1*
X4298946Y4040071D1*
X4304983Y4027858D1*
X4311019Y4009748D1*
Y3979285D1*
X4304983Y3961035D1*
X4298946Y3948962D1*
X4286733Y3936748D1*
X4268483Y3930712D1*
X4225946D1*
X4062442Y4197888D2*
X4050369Y4185675D1*
X4032119Y4179638D1*
X4007833D1*
X3989583Y4185675D1*
X3977369Y4197888D1*
Y4209961D1*
X3983546Y4222175D1*
X3989583Y4228211D1*
X4001656Y4234248D1*
X4038156Y4246461D1*
X4050369Y4252498D1*
X4056406Y4258675D1*
X4062442Y4270748D1*
Y4288998D1*
X4050369Y4301071D1*
X4032119Y4307248D1*
X4007833D1*
X3989583Y4301071D1*
X3977369Y4288998D1*
X4180554Y4179638D2*
X4101658D1*
Y4307248D1*
X4180554D1*
X4101658Y4240425D2*
X4150231D1*
X4262306Y4179638D2*
Y4307248D1*
X4219770Y4179638D2*
X4304843D1*
X8974703Y3916578D2*
X9023276Y4044188D1*
X9071849Y3916578D1*
X9202174Y3946901D2*
X9196138Y3934828D1*
X9183924Y3922615D1*
X9171851Y3916578D1*
X9147564D1*
X9135351Y3922615D1*
X9123278Y3934828D1*
X9117101Y3946901D1*
X9111064Y3965151D1*
Y3995615D1*
X9117101Y4013725D1*
X9123278Y4025938D1*
X9135351Y4038011D1*
X9147564Y4044188D1*
X9171851D1*
X9183924Y4038011D1*
X9196138Y4025938D1*
X9202174Y4013725D1*
X9332499Y3946901D2*
X9326463Y3934828D1*
X9314249Y3922615D1*
X9302176Y3916578D1*
X9277890D1*
X9265676Y3922615D1*
X9253603Y3934828D1*
X9247426Y3946901D1*
X9241390Y3965151D1*
Y3995615D1*
X9247426Y4013725D1*
X9253603Y4025938D1*
X9265676Y4038011D1*
X9277890Y4044188D1*
X9302176D1*
X9314249Y4038011D1*
X9326463Y4025938D1*
X9332499Y4013725D1*
X9123138Y4231362D2*
X9177747D1*
X9195997Y4225185D1*
X9202174Y4219148D1*
X9208211Y4207075D1*
Y4194862D1*
X9202174Y4182789D1*
X9195997Y4176612D1*
X9177747Y4170575D1*
X9123138D1*
Y4298185D1*
X9165674Y4231362D2*
X9208211Y4298185D1*
X9247426Y4170575D2*
X9332499Y4298185D1*
Y4170575D2*
X9247426Y4298185D1*
X9165674Y4424575D2*
Y4552185D1*
X9123138Y4424575D2*
X9208211D1*
X9247426D2*
X9332499Y4552185D1*
Y4424575D2*
X9247426Y4552185D1*
X8862417Y4678578D2*
Y4806188D1*
X8904953D1*
X8923203Y4800011D1*
X8935417Y4787938D1*
X8941453Y4775725D1*
X8947490Y4757615D1*
Y4727151D1*
X8941453Y4708901D1*
X8935417Y4696828D1*
X8923203Y4684615D1*
X8904953Y4678578D1*
X8862417D1*
X9083992Y4806188D2*
X9035279Y4678578D1*
X8986705Y4806188D1*
X9004955Y4763651D2*
X9065742D1*
X9214317Y4708901D2*
X9208281Y4696828D1*
X9196067Y4684615D1*
X9183994Y4678578D1*
X9159708D1*
X9147494Y4684615D1*
X9135421Y4696828D1*
X9129244Y4708901D1*
X9123208Y4727151D1*
Y4757615D1*
X9129244Y4775725D1*
X9135421Y4787938D1*
X9147494Y4800011D1*
X9159708Y4806188D1*
X9183994D1*
X9196067Y4800011D1*
X9208281Y4787938D1*
X9214317Y4775725D1*
X9253533Y4739365D2*
X9308143D1*
X9326393Y4733188D1*
X9332570Y4727151D1*
X9338606Y4715078D1*
Y4702865D1*
X9332570Y4690792D1*
X9326393Y4684615D1*
X9308143Y4678578D1*
X9253533D1*
Y4806188D1*
X9296070Y4739365D2*
X9338606Y4806188D1*
X8868524Y4932575D2*
Y5060185D1*
X8911060D1*
X8929310Y5054008D1*
X8941524Y5041935D1*
X8947560Y5029721D1*
X8953597Y5011612D1*
Y4981148D1*
X8947560Y4962898D1*
X8941524Y4950825D1*
X8929310Y4938612D1*
X8911060Y4932575D1*
X8868524D1*
X9090099Y5060185D2*
X9041385Y4932575D1*
X8992812Y5060185D1*
X9011062Y5017648D2*
X9071849D1*
X9220424Y4962898D2*
X9214388Y4950825D1*
X9202174Y4938612D1*
X9190101Y4932575D1*
X9165814D1*
X9153601Y4938612D1*
X9141528Y4950825D1*
X9135351Y4962898D1*
X9129314Y4981148D1*
Y5011612D1*
X9135351Y5029721D1*
X9141528Y5041935D1*
X9153601Y5054008D1*
X9165814Y5060185D1*
X9190101D1*
X9202174Y5054008D1*
X9214388Y5041935D1*
X9220424Y5029721D1*
X9259640Y4932575D2*
Y5060185D1*
X9332499D1*
X9014243Y5204825D2*
X9002170Y5192612D1*
X8983920Y5186575D1*
X8959633D1*
X8941383Y5192612D1*
X8929170Y5204825D1*
Y5216898D1*
X8935347Y5229112D1*
X8941383Y5235148D1*
X8953456Y5241185D1*
X8989956Y5253398D1*
X9002170Y5259435D1*
X9008206Y5265612D1*
X9014243Y5277685D1*
Y5295935D1*
X9002170Y5308008D1*
X8983920Y5314185D1*
X8959633D1*
X8941383Y5308008D1*
X8929170Y5295935D1*
X9053458Y5253398D2*
X9108208D1*
X9126318Y5247362D1*
X9132495Y5241185D1*
X9138532Y5229112D1*
Y5210862D1*
X9132495Y5198789D1*
X9126318Y5192612D1*
X9108208Y5186575D1*
X9053458D1*
Y5314185D1*
X9177747Y5186575D2*
Y5314185D1*
X9262820Y5186575D2*
X9177747Y5271648D1*
X9208070Y5241185D2*
X9262820Y5314185D1*
X9302036Y5211002D2*
X9314249Y5204825D1*
X9332499Y5186715D1*
Y5314185D1*
X9083922Y5470901D2*
X9077885Y5458828D1*
X9065672Y5446615D1*
X9053599Y5440578D1*
X9029312D1*
X9017099Y5446615D1*
X9005026Y5458828D1*
X8998849Y5470901D1*
X8992812Y5489151D1*
Y5519615D1*
X8998849Y5537725D1*
X9005026Y5549938D1*
X9017099Y5562011D1*
X9029312Y5568188D1*
X9053599D1*
X9065672Y5562011D1*
X9077885Y5549938D1*
X9083922Y5537725D1*
Y5519615D1*
X9053599D1*
X9208211Y5440578D2*
Y5568188D1*
X9123138Y5440578D1*
Y5568188D1*
X9247426Y5440578D2*
Y5568188D1*
X9289963D1*
X9308213Y5562011D1*
X9320426Y5549938D1*
X9326463Y5537725D1*
X9332499Y5519615D1*
Y5489151D1*
X9326463Y5470901D1*
X9320426Y5458828D1*
X9308213Y5446615D1*
X9289963Y5440578D1*
X9247426D1*
X8959633Y5712828D2*
X8947560Y5700615D1*
X8929310Y5694578D1*
X8905024D1*
X8886774Y5700615D1*
X8874560Y5712828D1*
Y5724901D1*
X8880737Y5737115D1*
X8886774Y5743151D1*
X8898847Y5749188D1*
X8935347Y5761401D1*
X8947560Y5767438D1*
X8953597Y5773615D1*
X8959633Y5785688D1*
Y5803938D1*
X8947560Y5816011D1*
X8929310Y5822188D1*
X8905024D1*
X8886774Y5816011D1*
X8874560Y5803938D1*
X8998849Y5761401D2*
X9053599D1*
X9071708Y5755365D1*
X9077885Y5749188D1*
X9083922Y5737115D1*
Y5718865D1*
X9077885Y5706792D1*
X9071708Y5700615D1*
X9053599Y5694578D1*
X8998849D1*
Y5822188D1*
X9123138Y5694578D2*
Y5822188D1*
X9208211Y5694578D2*
X9123138Y5779651D1*
X9153461Y5749188D2*
X9208211Y5822188D1*
X9253603Y5725042D2*
Y5719005D1*
X9259640Y5706792D1*
X9265676Y5700755D1*
X9277890Y5694719D1*
X9302176D1*
X9314249Y5700755D1*
X9320286Y5706792D1*
X9326463Y5719005D1*
Y5731078D1*
X9320286Y5743292D1*
X9308213Y5761401D1*
X9247426Y5822188D1*
X9332499D1*
X7806320Y3916578D2*
Y4044188D1*
X7861070D1*
X7879320Y4038011D1*
X7885357Y4031975D1*
X7891393Y4019901D1*
Y4001651D1*
X7885357Y3989438D1*
X7879320Y3983401D1*
X7861070Y3977365D1*
X7879320Y3971188D1*
X7885357Y3965151D1*
X7891393Y3953078D1*
Y3940865D1*
X7885357Y3928792D1*
X7879320Y3922615D1*
X7861070Y3916578D1*
X7806320D1*
Y3977365D2*
X7861070D1*
X7930609Y3916578D2*
Y4007688D1*
X7936646Y4025938D1*
X7948859Y4038011D1*
X7967109Y4044188D1*
X7979182D1*
X7997432Y4038011D1*
X8009646Y4025938D1*
X8015682Y4007688D1*
Y3916578D1*
X8139971Y3934828D2*
X8127898Y3922615D1*
X8109648Y3916578D1*
X8085361D1*
X8067111Y3922615D1*
X8054898Y3934828D1*
Y3946901D1*
X8061075Y3959115D1*
X8067111Y3965151D1*
X8079184Y3971188D1*
X8115684Y3983401D1*
X8127898Y3989438D1*
X8133934Y3995615D1*
X8139971Y4007688D1*
Y4025938D1*
X8127898Y4038011D1*
X8109648Y4044188D1*
X8085361D1*
X8067111Y4038011D1*
X8054898Y4025938D1*
X8179187Y3916578D2*
X8227760Y3977365D1*
Y4044188D1*
X8276333Y3916578D2*
X8227760Y3977365D1*
X7806321Y4186452D2*
Y4277561D1*
X7812357Y4295811D1*
X7824571Y4307884D1*
X7842821Y4314061D1*
X7854894D1*
X7873144Y4307884D1*
X7885357Y4295811D1*
X7891394Y4277561D1*
Y4186452D1*
X8015683Y4204702D2*
X8003610Y4192488D1*
X7985360Y4186452D1*
X7961073D1*
X7942823Y4192488D1*
X7930610Y4204702D1*
Y4216775D1*
X7936787Y4228988D1*
X7942823Y4235025D1*
X7954896Y4241061D1*
X7991396Y4253275D1*
X8003610Y4259311D1*
X8009646Y4265488D1*
X8015683Y4277561D1*
Y4295811D1*
X8003610Y4307884D1*
X7985360Y4314061D1*
X7961073D1*
X7942823Y4307884D1*
X7930610Y4295811D1*
X8054898Y4186452D2*
Y4314061D1*
X8109648D1*
X8127898Y4307884D1*
X8133935Y4301848D1*
X8139971Y4289775D1*
Y4271525D1*
X8133935Y4259311D1*
X8127898Y4253275D1*
X8109648Y4247238D1*
X8127898Y4241061D1*
X8133935Y4235025D1*
X8139971Y4222952D1*
Y4210738D1*
X8133935Y4198665D1*
X8127898Y4192488D1*
X8109648Y4186452D1*
X8054898D1*
Y4247238D2*
X8109648D1*
X8179187Y4250327D2*
X8249379D1*
X7806320Y4440452D2*
Y4531561D1*
X7812357Y4549811D1*
X7824570Y4561884D1*
X7842820Y4568061D1*
X7854893D1*
X7873143Y4561884D1*
X7885357Y4549811D1*
X7891393Y4531561D1*
Y4440452D1*
X8015682Y4458702D2*
X8003609Y4446488D1*
X7985359Y4440452D1*
X7961072D1*
X7942822Y4446488D1*
X7930609Y4458702D1*
Y4470775D1*
X7936786Y4482988D1*
X7942822Y4489025D1*
X7954895Y4495061D1*
X7991395Y4507275D1*
X8003609Y4513311D1*
X8009645Y4519488D1*
X8015682Y4531561D1*
Y4549811D1*
X8003609Y4561884D1*
X7985359Y4568061D1*
X7961072D1*
X7942822Y4561884D1*
X7930609Y4549811D1*
X8054898Y4440452D2*
Y4568061D1*
X8109648D1*
X8127898Y4561884D1*
X8133934Y4555848D1*
X8139971Y4543775D1*
Y4525525D1*
X8133934Y4513311D1*
X8127898Y4507275D1*
X8109648Y4501238D1*
X8127898Y4495061D1*
X8133934Y4489025D1*
X8139971Y4476952D1*
Y4464738D1*
X8133934Y4452665D1*
X8127898Y4446488D1*
X8109648Y4440452D1*
X8054898D1*
Y4501238D2*
X8109648D1*
X8233796Y4449647D2*
Y4559007D1*
X8179186Y4504397D2*
X8288546D1*
X7903606Y4806188D2*
X7854893Y4678578D1*
X7806320Y4806188D1*
X7824570Y4763651D2*
X7885356D1*
X7942822Y4678578D2*
Y4806188D1*
X7985358D1*
X8003608Y4800011D1*
X8015822Y4787938D1*
X8021858Y4775725D1*
X8027895Y4757615D1*
Y4727151D1*
X8021858Y4708901D1*
X8015822Y4696828D1*
X8003608Y4684615D1*
X7985358Y4678578D1*
X7942822D1*
X8067111D2*
Y4806188D1*
X8152184Y4678578D2*
X8067111Y4763651D1*
X8097434Y4733188D2*
X8152184Y4806188D1*
X8270295Y4678578D2*
X8191399D1*
Y4806188D1*
X8270295D1*
X8191399Y4739365D2*
X8239972D1*
X8309511Y4678578D2*
X8358084Y4739365D1*
Y4806188D1*
X8406657Y4678578D2*
X8358084Y4739365D1*
X8452050Y4709042D2*
Y4703005D1*
X8458086Y4690792D1*
X8464123Y4684755D1*
X8476336Y4678719D1*
X8500623D1*
X8512696Y4684755D1*
X8518733Y4690792D1*
X8524910Y4703005D1*
Y4715078D1*
X8518733Y4727292D1*
X8506660Y4745401D1*
X8445873Y4806188D1*
X8530946D1*
X7903606Y5060188D2*
X7854892Y4932578D1*
X7806319Y5060188D1*
X7824569Y5017651D2*
X7885356D1*
X7942821Y4932578D2*
Y5060188D1*
X7985358D1*
X8003608Y5054011D1*
X8015821Y5041938D1*
X8021858Y5029725D1*
X8027894Y5011615D1*
Y4981151D1*
X8021858Y4962901D1*
X8015821Y4950828D1*
X8003608Y4938615D1*
X7985358Y4932578D1*
X7942821D1*
X8067110D2*
Y5060188D1*
X8152183Y4932578D2*
X8067110Y5017651D1*
X8097433Y4987188D2*
X8152183Y5060188D1*
X8270295Y4932578D2*
X8191399D1*
Y5060188D1*
X8270295D1*
X8191399Y4993365D2*
X8239972D1*
X8309511Y4932578D2*
X8358084Y4993365D1*
Y5060188D1*
X8406657Y4932578D2*
X8358084Y4993365D1*
X8445873Y4957005D2*
X8458086Y4950828D1*
X8476336Y4932719D1*
Y5060188D1*
X7806319Y5202452D2*
Y5330061D1*
X7882034Y5202452D2*
X7869821Y5208488D1*
X7857748Y5220702D1*
X7851571Y5232775D1*
X7845534Y5251025D1*
Y5281488D1*
X7851571Y5299598D1*
X7857748Y5311811D1*
X7869821Y5323884D1*
X7882034Y5330061D1*
X7906321D1*
X7918394Y5323884D1*
X7930608Y5311811D1*
X7936644Y5299598D1*
X7942681Y5281488D1*
Y5251025D1*
X7936644Y5232775D1*
X7930608Y5220702D1*
X7918394Y5208488D1*
X7906321Y5202452D1*
X7882034D1*
X7988073Y5232915D2*
Y5226879D1*
X7994110Y5214665D1*
X8000146Y5208629D1*
X8012360Y5202592D1*
X8036646D1*
X8048719Y5208629D1*
X8054756Y5214665D1*
X8060933Y5226879D1*
Y5238952D1*
X8054756Y5251165D1*
X8042683Y5269275D1*
X7981896Y5330061D1*
X8066969D1*
X7897429Y5486775D2*
X7891392Y5474702D1*
X7879179Y5462488D1*
X7867105Y5456452D1*
X7842819D1*
X7830605Y5462488D1*
X7818532Y5474702D1*
X7812355Y5486775D1*
X7806319Y5505025D1*
Y5535488D1*
X7812355Y5553598D1*
X7818532Y5565811D1*
X7830605Y5577884D1*
X7842819Y5584061D1*
X7867105D1*
X7879179Y5577884D1*
X7891392Y5565811D1*
X7897429Y5553598D1*
Y5535488D1*
X7867105D1*
X8021717Y5456452D2*
Y5584061D1*
X7936644Y5456452D1*
Y5584061D1*
X8060933Y5456452D2*
Y5584061D1*
X8103470D1*
X8121720Y5577884D1*
X8133933Y5565811D1*
X8139970Y5553598D1*
X8146006Y5535488D1*
Y5505025D1*
X8139970Y5486775D1*
X8133933Y5474702D1*
X8121720Y5462488D1*
X8103470Y5456452D1*
X8060933D1*
X7806318Y5703638D2*
Y5831248D1*
X7882034Y5703638D2*
X7869821Y5709675D1*
X7857748Y5721888D1*
X7851571Y5733961D1*
X7845534Y5752211D1*
Y5782675D1*
X7851571Y5800785D1*
X7857748Y5812998D1*
X7869821Y5825071D1*
X7882034Y5831248D1*
X7906321D1*
X7918394Y5825071D1*
X7930607Y5812998D1*
X7936644Y5800785D1*
X7942680Y5782675D1*
Y5752211D1*
X7936644Y5733961D1*
X7930607Y5721888D1*
X7918394Y5709675D1*
X7906321Y5703638D1*
X7882034D1*
X7981896Y5728065D2*
X7994109Y5721888D1*
X8012359Y5703779D1*
Y5831248D1*
X2452173Y1131013D2*
Y1258623D1*
X2494710D1*
X2512960Y1252446D1*
X2525173Y1240373D1*
X2531210Y1228160D1*
X2537246Y1210050D1*
Y1179586D1*
X2531210Y1161336D1*
X2525173Y1149263D1*
X2512960Y1137050D1*
X2494710Y1131013D1*
X2452173D1*
X2661535Y1149263D2*
X2649462Y1137050D1*
X2631212Y1131013D1*
X2606925D1*
X2588675Y1137050D1*
X2576462Y1149263D1*
Y1161336D1*
X2582639Y1173550D1*
X2588675Y1179586D1*
X2600748Y1185623D1*
X2637248Y1197836D1*
X2649462Y1203873D1*
X2655498Y1210050D1*
X2661535Y1222123D1*
Y1240373D1*
X2649462Y1252446D1*
X2631212Y1258623D1*
X2606925D1*
X2588675Y1252446D1*
X2576462Y1240373D1*
X2712964Y1131154D2*
X2779647D1*
X2743287Y1179727D1*
X2761537D1*
X2773610Y1185763D1*
X2779647Y1191800D1*
X2785824Y1210050D1*
Y1222123D1*
X2779647Y1240373D1*
X2767574Y1252586D1*
X2749324Y1258623D1*
X2731074D1*
X2712964Y1252586D1*
X2706927Y1246410D1*
X2700751Y1234336D1*
X2831216Y1161477D2*
Y1155440D1*
X2837253Y1143227D1*
X2843289Y1137190D1*
X2855503Y1131154D1*
X2879789D1*
X2891862Y1137190D1*
X2897899Y1143227D1*
X2904076Y1155440D1*
Y1167513D1*
X2897899Y1179727D1*
X2885826Y1197836D1*
X2825039Y1258623D1*
X2910112D1*
X2961542Y1131154D2*
X3028224D1*
X2991865Y1179727D1*
X3010115D1*
X3022188Y1185763D1*
X3028224Y1191800D1*
X3034401Y1210050D1*
Y1222123D1*
X3028224Y1240373D1*
X3016151Y1252586D1*
X2997901Y1258623D1*
X2979651D1*
X2961542Y1252586D1*
X2955505Y1246410D1*
X2949328Y1234336D1*
X3073617Y1155440D2*
X3085830Y1149263D1*
X3104080Y1131154D1*
Y1258623D1*
X9572076Y1669505D2*
X9620649Y1797115D1*
X9669222Y1669505D1*
X9799547Y1699828D2*
X9793511Y1687755D1*
X9781297Y1675542D1*
X9769224Y1669505D1*
X9744938D1*
X9732724Y1675542D1*
X9720651Y1687755D1*
X9714474Y1699828D1*
X9708438Y1718078D1*
Y1748542D1*
X9714474Y1766651D1*
X9720651Y1778865D1*
X9732724Y1790938D1*
X9744938Y1797115D1*
X9769224D1*
X9781297Y1790938D1*
X9793511Y1778865D1*
X9799547Y1766651D1*
X9929873Y1699828D2*
X9923836Y1687755D1*
X9911623Y1675542D1*
X9899550Y1669505D1*
X9875263D1*
X9863050Y1675542D1*
X9850977Y1687755D1*
X9844800Y1699828D1*
X9838763Y1718078D1*
Y1748542D1*
X9844800Y1766651D1*
X9850977Y1778865D1*
X9863050Y1790938D1*
X9875263Y1797115D1*
X9899550D1*
X9911623Y1790938D1*
X9923836Y1778865D1*
X9929873Y1766651D1*
X9657079Y1435951D2*
X9651042Y1423878D1*
X9638829Y1411665D1*
X9626755Y1405628D1*
X9602469D1*
X9590255Y1411665D1*
X9578182Y1423878D1*
X9572005Y1435951D1*
X9565969Y1454201D1*
Y1484665D1*
X9572005Y1502775D1*
X9578182Y1514988D1*
X9590255Y1527061D1*
X9602469Y1533238D1*
X9626755D1*
X9638829Y1527061D1*
X9651042Y1514988D1*
X9657079Y1502775D1*
Y1484665D1*
X9626755D1*
X9781367Y1405628D2*
Y1533238D1*
X9696294Y1405628D1*
Y1533238D1*
X9820583Y1405628D2*
Y1533238D1*
X9863120D1*
X9881370Y1527061D1*
X9893583Y1514988D1*
X9899620Y1502775D1*
X9905656Y1484665D1*
Y1454201D1*
X9899620Y1435951D1*
X9893583Y1423878D1*
X9881370Y1411665D1*
X9863120Y1405628D1*
X9820583D1*
X9657149Y1169158D2*
X9645076Y1156945D1*
X9626826Y1150908D1*
X9602539D1*
X9584289Y1156945D1*
X9572076Y1169158D1*
Y1181231D1*
X9578253Y1193445D1*
X9584289Y1199481D1*
X9596362Y1205518D1*
X9632862Y1217731D1*
X9645076Y1223768D1*
X9651112Y1229945D1*
X9657149Y1242018D1*
Y1260268D1*
X9645076Y1272341D1*
X9626826Y1278518D1*
X9602539D1*
X9584289Y1272341D1*
X9572076Y1260268D1*
X9787474Y1181231D2*
X9781438Y1169158D1*
X9769224Y1156945D1*
X9757151Y1150908D1*
X9732864D1*
X9720651Y1156945D1*
X9708578Y1169158D1*
X9702401Y1181231D1*
X9696364Y1199481D1*
Y1229945D1*
X9702401Y1248055D1*
X9708578Y1260268D1*
X9720651Y1272341D1*
X9732864Y1278518D1*
X9757151D1*
X9769224Y1272341D1*
X9781438Y1260268D1*
X9787474Y1248055D1*
X9826690Y1150908D2*
Y1278518D1*
X9899549D1*
X9663115Y923878D2*
X9651042Y911665D1*
X9632792Y905628D1*
X9608505D1*
X9590255Y911665D1*
X9578042Y923878D1*
Y935951D1*
X9584219Y948165D1*
X9590255Y954201D1*
X9602329Y960238D1*
X9638829Y972451D1*
X9651042Y978488D1*
X9657079Y984665D1*
X9663115Y996738D1*
Y1014988D1*
X9651042Y1027061D1*
X9632792Y1033238D1*
X9608505D1*
X9590255Y1027061D1*
X9578042Y1014988D1*
X9702331Y905628D2*
Y1033238D1*
X9744867D1*
X9763117Y1027061D1*
X9775331Y1014988D1*
X9781367Y1002775D1*
X9787404Y984665D1*
Y954201D1*
X9781367Y935951D1*
X9775331Y923878D1*
X9763117Y911665D1*
X9744867Y905628D1*
X9702331D1*
X9923906Y1033238D2*
X9875193Y905628D1*
X9826620Y1033238D1*
X9844870Y990701D2*
X9905656D1*
X9649906Y767238D2*
X9610936Y639628D1*
X9572077Y767238D1*
X9586677Y724701D2*
X9635306D1*
X9681279Y639628D2*
Y767238D1*
X9715308D1*
X9729908Y761061D1*
X9739679Y748988D1*
X9744508Y736775D1*
X9749337Y718665D1*
Y688201D1*
X9744508Y669951D1*
X9739679Y657878D1*
X9729908Y645665D1*
X9715308Y639628D1*
X9681279D1*
X9780710D2*
Y767238D1*
X9814739D1*
X9829339Y761061D1*
X9839110Y748988D1*
X9843939Y736775D1*
X9848768Y718665D1*
Y688201D1*
X9843939Y669951D1*
X9839110Y657878D1*
X9829339Y645665D1*
X9814739Y639628D1*
X9780710D1*
X9880141Y700415D2*
X9923829D1*
X9938429Y694238D1*
X9943370Y688201D1*
X9948199Y676128D1*
Y663915D1*
X9943370Y651842D1*
X9938429Y645665D1*
X9923829Y639628D1*
X9880141D1*
Y767238D1*
X9914170Y700415D2*
X9948199Y767238D1*
X9581133Y1984388D2*
X9629706Y2111998D1*
X9678279Y1984388D1*
X9808604Y2014711D2*
X9802568Y2002638D1*
X9790354Y1990425D1*
X9778281Y1984388D1*
X9753994D1*
X9741781Y1990425D1*
X9729708Y2002638D1*
X9723531Y2014711D1*
X9717494Y2032961D1*
Y2063425D1*
X9723531Y2081535D1*
X9729708Y2093748D1*
X9741781Y2105821D1*
X9753994Y2111998D1*
X9778281D1*
X9790354Y2105821D1*
X9802568Y2093748D1*
X9808604Y2081535D1*
X9938929Y2014711D2*
X9932893Y2002638D1*
X9920679Y1990425D1*
X9908606Y1984388D1*
X9884320D1*
X9872106Y1990425D1*
X9860033Y2002638D1*
X9853856Y2014711D1*
X9847820Y2032961D1*
Y2063425D1*
X9853856Y2081535D1*
X9860033Y2093748D1*
X9872106Y2105821D1*
X9884320Y2111998D1*
X9908606D1*
X9920679Y2105821D1*
X9932893Y2093748D1*
X9938929Y2081535D1*
X9672242Y2267338D2*
X9666205Y2255265D1*
X9653992Y2243052D1*
X9641919Y2237015D1*
X9617632D1*
X9605419Y2243052D1*
X9593346Y2255265D1*
X9587169Y2267338D1*
X9581132Y2285588D1*
Y2316052D1*
X9587169Y2334161D1*
X9593346Y2346375D1*
X9605419Y2358448D1*
X9617632Y2364625D1*
X9641919D1*
X9653992Y2358448D1*
X9666205Y2346375D1*
X9672242Y2334161D1*
Y2316052D1*
X9641919D1*
X9796531Y2237015D2*
Y2364625D1*
X9711458Y2237015D1*
Y2364625D1*
X9835746Y2237015D2*
Y2364625D1*
X9878283D1*
X9896533Y2358448D1*
X9908746Y2346375D1*
X9914783Y2334161D1*
X9920819Y2316052D1*
Y2285588D1*
X9914783Y2267338D1*
X9908746Y2255265D1*
X9896533Y2243052D1*
X9878283Y2237015D1*
X9835746D1*
X9663115Y2763265D2*
X9651042Y2751052D1*
X9632792Y2745015D1*
X9608505D1*
X9590255Y2751052D1*
X9578042Y2763265D1*
Y2775338D1*
X9584219Y2787552D1*
X9590255Y2793588D1*
X9602329Y2799625D1*
X9638829Y2811838D1*
X9651042Y2817875D1*
X9657079Y2824052D1*
X9663115Y2836125D1*
Y2854375D1*
X9651042Y2866448D1*
X9632792Y2872625D1*
X9608505D1*
X9590255Y2866448D1*
X9578042Y2854375D1*
X9702331Y2745015D2*
Y2872625D1*
X9744867D1*
X9763117Y2866448D1*
X9775331Y2854375D1*
X9781367Y2842161D1*
X9787404Y2824052D1*
Y2793588D1*
X9781367Y2775338D1*
X9775331Y2763265D1*
X9763117Y2751052D1*
X9744867Y2745015D1*
X9702331D1*
X9923906Y2872625D2*
X9875193Y2745015D1*
X9826620Y2872625D1*
X9844870Y2830088D2*
X9905656D1*
X9663115Y2519262D2*
X9651042Y2507048D1*
X9632792Y2501012D1*
X9608506D1*
X9590256Y2507048D1*
X9578042Y2519262D1*
Y2531335D1*
X9584219Y2543548D1*
X9590256Y2549585D1*
X9602329Y2555621D1*
X9638829Y2567835D1*
X9651042Y2573871D1*
X9657079Y2580048D1*
X9663115Y2592121D1*
Y2610371D1*
X9651042Y2622444D1*
X9632792Y2628621D1*
X9608506D1*
X9590256Y2622444D1*
X9578042Y2610371D1*
X9793441Y2531335D2*
X9787404Y2519262D1*
X9775191Y2507048D1*
X9763118Y2501012D1*
X9738831D1*
X9726618Y2507048D1*
X9714545Y2519262D1*
X9708368Y2531335D1*
X9702331Y2549585D1*
Y2580048D1*
X9708368Y2598158D1*
X9714545Y2610371D1*
X9726618Y2622444D1*
X9738831Y2628621D1*
X9763118D1*
X9775191Y2622444D1*
X9787404Y2610371D1*
X9793441Y2598158D1*
X9832656Y2501012D2*
Y2628621D1*
X9905516D1*
X2758579Y3162213D2*
X2789042Y3289823D1*
X2819365Y3162213D1*
X2849689Y3289823D1*
X2880152Y3162213D1*
X3004441Y3180463D2*
X2992368Y3168250D1*
X2974118Y3162213D1*
X2949831D1*
X2931581Y3168250D1*
X2919368Y3180463D1*
Y3192536D1*
X2925545Y3204750D1*
X2931581Y3210786D1*
X2943654Y3216823D1*
X2980154Y3229036D1*
X2992368Y3235073D1*
X2998404Y3241250D1*
X3004441Y3253323D1*
Y3271573D1*
X2992368Y3283646D1*
X2974118Y3289823D1*
X2949831D1*
X2931581Y3283646D1*
X2919368Y3271573D1*
X3049833Y3192677D2*
Y3186640D1*
X3055870Y3174427D1*
X3061906Y3168390D1*
X3074120Y3162354D1*
X3098406D1*
X3110480Y3168390D1*
X3116516Y3174427D1*
X3122693Y3186640D1*
Y3198713D1*
X3116516Y3210927D1*
X3104443Y3229036D1*
X3043656Y3289823D1*
X3128730D1*
X3198268Y3162354D2*
X3180159Y3168390D1*
X3173982Y3180463D1*
Y3192677D1*
X3180159Y3204750D1*
X3192232Y3210927D1*
X3216518Y3216963D1*
X3234768Y3223000D1*
X3246841Y3235213D1*
X3252878Y3247286D1*
Y3265536D1*
X3246841Y3277610D1*
X3240805Y3283786D1*
X3222555Y3289823D1*
X3198268D1*
X3180159Y3283786D1*
X3173982Y3277610D1*
X3167945Y3265536D1*
Y3247286D1*
X3173982Y3235213D1*
X3186195Y3223000D1*
X3204305Y3216963D1*
X3228591Y3210927D1*
X3240805Y3204750D1*
X3246841Y3192677D1*
Y3180463D1*
X3240805Y3168390D1*
X3222555Y3162354D1*
X3198268D1*
X3292094Y3186640D2*
X3304307Y3180463D1*
X3322557Y3162354D1*
Y3289823D1*
X3367950Y3192677D2*
Y3186640D1*
X3373986Y3174427D1*
X3380023Y3168390D1*
X3392236Y3162354D1*
X3416523D1*
X3428596Y3168390D1*
X3434632Y3174427D1*
X3440809Y3186640D1*
Y3198713D1*
X3434632Y3210927D1*
X3422559Y3229036D1*
X3361773Y3289823D1*
X3446846D1*
X3486061Y3162213D2*
Y3289823D1*
Y3223000D2*
X3498275Y3210786D1*
X3510348Y3204750D1*
X3528598D1*
X3540671Y3210786D1*
X3552885Y3223000D1*
X3558921Y3241250D1*
Y3253323D1*
X3552885Y3271573D1*
X3540671Y3283646D1*
X3528598Y3289823D1*
X3510348D1*
X3498275Y3283646D1*
X3486061Y3271573D1*
M02*
