M48
METRIC,0000.00
T01C0.486
T02C0.8
T03C0.9
T04C1.0
T05C1.2
T06C1.5
T07C2.3
T08C3.0
%
T01
X+005890Y+002524
X+005890Y+003540
X+007271Y+002889
X+002715Y+003461
X+002715Y+003651
X+002328Y+003929
X+002921Y+005255
X+003080Y+005255
X+003238Y+005255
X+003238Y+005651
X+003080Y+005651
X+002921Y+005651
X+002159Y+001778
X+002159Y+001540
X+001238Y+001619
X+001238Y+001826
T02
X+009541Y+003485
X+009541Y+003096
X+009446Y+001730
X+009446Y+001476
X+009446Y+001222
X+009446Y+000968
X+009446Y+000714
T03
X+009827Y+005016
X+009827Y+005270
X+009461Y+005255
X+009461Y+005001
X+009461Y+004747
X+009461Y+004493
X+009461Y+004239
X+009461Y+003985
X+009446Y+002810
X+009446Y+002556
X+009446Y+002302
X+009446Y+002048
X+006969Y+002143
X+006969Y+001889
X+006969Y+001635
X+006969Y+001381
X+006969Y+002397
X+006969Y+002651
X+006969Y+002905
X+006969Y+003159
X+006969Y+003413
X+006969Y+003667
X+006969Y+003921
X+006969Y+004175
X+006969Y+004429
X+006969Y+004683
X+006969Y+004937
X+007683Y+005001
X+007683Y+005255
X+007683Y+005509
X+007683Y+005763
X+007683Y+004747
X+007683Y+004493
X+007683Y+004239
X+007683Y+003985
X+009461Y+005509
X+009461Y+005763
X+004429Y+004937
X+004429Y+004683
X+004429Y+004429
X+004429Y+004175
X+004429Y+003921
X+004429Y+003667
X+004429Y+003413
X+004429Y+003159
X+004429Y+002905
X+004429Y+002651
X+004429Y+002397
X+004429Y+002143
X+004429Y+001889
X+004429Y+001635
X+004429Y+001381
X+003871Y+003223
X+003871Y+003477
X+003871Y+003731
X+003871Y+003985
X+003871Y+004239
X+003556Y+004582
X+003302Y+004582
X+003101Y+004582
X+002858Y+004582
X+002000Y+005080
X+001746Y+005080
X+001492Y+005080
X+001238Y+005080
X+000984Y+005080
X+000730Y+005080
X+000556Y+004445
X+000556Y+004191
X+000556Y+003937
X+000556Y+003683
X+000556Y+003429
X+000556Y+003175
X+000556Y+002921
X+000556Y+002667
X+000556Y+002413
X+000556Y+002159
X+000556Y+001905
X+000556Y+001651
X+000556Y+001397
X+000556Y+001143
X+001064Y+002667
X+001064Y+002921
X+001064Y+003175
X+001064Y+003429
T04
X+001939Y+000423
X+001489Y+000423
X+004839Y+000423
X+005289Y+000423
X+008173Y+000423
X+008623Y+000423
T05
X+003826Y+001921
X+001794Y+001921
T06
X+002064Y+000673
X+001364Y+000673
X+004714Y+000673
X+005414Y+000673
X+008048Y+000673
X+008748Y+000673
T07
X+002527Y+004843
X+003887Y+004843
T08
X+000216Y+005705
X+000216Y+000216
X+009880Y+000216
X+009880Y+005705
T00
M30
