M48
METRIC,0000.00
T01C0.486
T02C0.8
T03C0.9
T04C1.0
T05C1.2
T06C1.5
T07C2.3
T08C3.0
%
T01
X+002762Y+003651
X+002619Y+004175
X+002334Y+003112
X+002191Y+003112
X+001365Y+002873
X+003477Y+003112
X+003604Y+003112
X+005379Y+002232
X+007509Y+003048
X+007683Y+003191
X+008287Y+003286
X+008700Y+003143
X+008207Y+002746
X+008302Y+002234
X+007684Y+004175
X+007509Y+004302
X+007318Y+004302
X+007048Y+004747
X+006858Y+004747
X+006652Y+005255
X+006509Y+005255
X+007747Y+005207
X+007953Y+005207
X+008668Y+004397
X+008668Y+004270
X+003808Y+005230
X+003381Y+005302
X+003381Y+005461
X+002905Y+000873
X+002794Y+000873
T02
X+006882Y+006207
X+006493Y+006207
T03
X+002476Y+005016
X+002730Y+005016
X+002984Y+005016
X+003238Y+005016
X+003238Y+004747
X+003492Y+004747
X+003746Y+004747
X+004000Y+004747
X+004254Y+004747
X+004508Y+004747
X+004493Y+005334
X+004493Y+005588
X+004493Y+005842
X+004493Y+006096
X+004493Y+006350
X+004493Y+006604
X+004493Y+006858
X+004493Y+007112
X+005709Y+006939
X+005709Y+006685
X+005709Y+006431
X+005709Y+006177
X+005709Y+005923
X+006175Y+006699
X+006429Y+006699
X+006683Y+006699
X+006937Y+006699
X+006366Y+004985
X+006112Y+004985
X+005858Y+004985
X+005604Y+004985
X+005350Y+004985
X+002984Y+004747
X+002730Y+004747
X+002476Y+004747
X+002222Y+004747
X+001968Y+004747
X+001714Y+004747
X+001460Y+004747
X+001206Y+004747
X+000952Y+004747
X+000619Y+005175
X+000619Y+005429
X+000619Y+005683
X+000619Y+005937
X+000619Y+006191
X+000619Y+006445
X+001683Y+005953
X+001937Y+005953
X+002715Y+005842
X+002715Y+006096
X+002715Y+006350
X+002715Y+006604
X+002715Y+006858
X+002715Y+007112
X+002715Y+005588
X+002715Y+005334
X+002730Y+002207
X+002476Y+002207
X+002222Y+002207
X+001968Y+002207
X+001714Y+002207
X+001460Y+002207
X+001206Y+002207
X+000952Y+002207
X+001117Y+001572
X+001117Y+001328
X+001117Y+001127
X+001117Y+000873
X+002984Y+002207
X+003238Y+002207
X+003492Y+002207
X+003746Y+002207
X+004000Y+002207
X+004254Y+002207
X+004508Y+002207
X+008239Y+003508
X+008239Y+003762
X+008239Y+004016
X+008239Y+004270
X+009335Y+004270
X+009335Y+004524
X+009335Y+004778
X+009335Y+005032
X+009335Y+005286
X+009335Y+004016
X+009335Y+003762
X+009335Y+003508
X+009335Y+003254
X+009335Y+003000
X+009335Y+002746
X+009335Y+002492
X+009335Y+002238
X+009335Y+001984
T04
X+008242Y+006848
X+007792Y+006848
X+005321Y+006848
X+004871Y+006848
X+001749Y+006848
X+001299Y+006848
T05
X+008557Y+001556
X+006525Y+001556
T06
X+008367Y+006598
X+007667Y+006598
X+005446Y+006598
X+004746Y+006598
X+001874Y+006598
X+001174Y+006598
T07
X+000856Y+001902
X+000856Y+000542
T08
X+000238Y+007033
X+000238Y+000238
X+009303Y+000238
X+009303Y+001238
X+009303Y+006096
X+009303Y+007033
T00
M30
