G04 DipTrace 4.2.0.1*
G04 TopMask.gbr*
%MOMM*%
G04 #@! TF.FileFunction,Soldermask,Top*
G04 #@! TF.Part,Single*
%ADD19C,1.6*%
%ADD21R,1.7X1.7*%
%ADD23R,1.6X1.6*%
%ADD30C,3.0*%
%ADD38C,3.4*%
%ADD43C,1.6*%
%ADD45C,2.1*%
%ADD47R,1.8X1.8*%
%ADD48C,1.8*%
%ADD49C,1.7*%
%ADD51R,2.1X2.1*%
%ADD53C,2.1*%
%FSLAX35Y35*%
G04*
G71*
G90*
G75*
G01*
G04 TopMask*
%LPD*%
D53*
X8556623Y1555750D3*
D51*
X6524623D3*
D30*
X238150Y7032647D3*
X238123Y238123D3*
X9302747D3*
Y7032623D3*
Y1238247D3*
X9302750Y6096000D3*
D19*
X2508247Y5016500D3*
X2762247D3*
X3016247Y5016497D3*
X3270250Y5016500D3*
D49*
X6675497Y6207123D3*
X6286497D3*
D48*
X8241873Y6847623D3*
D47*
X7791873D3*
D45*
X8366873Y6597623D3*
X7666873D3*
D48*
X1748997Y6847623D3*
D47*
X1298997D3*
D45*
X1873997Y6597623D3*
X1173997D3*
D48*
X5114500Y6847623D3*
D47*
X4664500D3*
D45*
X5239500Y6597623D3*
X4539500D3*
D49*
X1936750Y5953123D3*
X1682750D3*
X4540247Y4746623D3*
X4286247D3*
X4032247D3*
X3778247D3*
X3524247D3*
X3270247D3*
X3016247D3*
X2762247D3*
X2508247D3*
X2254247D3*
X2000247D3*
X1746247D3*
X1492247D3*
X1238247D3*
X984247D3*
X4540247Y2206623D3*
X4286247D3*
X4032247D3*
X3778247D3*
X3524247D3*
X3270247D3*
X3016247D3*
X2762247D3*
X2508247D3*
X2254247D3*
X2000247D3*
X1746247D3*
X1492247D3*
X1238247D3*
D21*
X984247D3*
D43*
X5857873Y4984750D3*
X6111873D3*
X6365873D3*
X5603873D3*
D23*
X5349873D3*
X2508250Y5333997D3*
D43*
Y5587997D3*
Y5841997D3*
Y6095997D3*
Y6349997D3*
Y6603997D3*
Y6857997D3*
Y7111997D3*
X4286250D3*
Y6857997D3*
Y6603997D3*
Y6349997D3*
Y6095997D3*
Y5841997D3*
Y5587997D3*
Y5333997D3*
D21*
X5476873Y6937373D3*
D49*
Y6683373D3*
Y6429373D3*
Y6175373D3*
Y5921373D3*
X6731000Y6699250D3*
X6477000D3*
X6223000D3*
D21*
X5969000D3*
D49*
X8239123Y4016373D3*
Y3762373D3*
Y3508373D3*
D21*
Y4270373D3*
X9334500Y5286373D3*
D49*
Y5032373D3*
Y4778373D3*
Y4524373D3*
Y4270373D3*
Y4016373D3*
Y3762373D3*
Y3508373D3*
Y3254373D3*
Y3000373D3*
Y2746373D3*
Y2492373D3*
Y2238373D3*
Y1984373D3*
X1323497Y1327673D3*
Y1571573D3*
Y1127073D3*
D21*
Y873073D3*
D38*
X1062497Y1902373D3*
Y542373D3*
D49*
X825502Y6445247D3*
Y6191247D3*
Y5937247D3*
Y5683247D3*
Y5429247D3*
Y5175247D3*
G36*
X2968623Y603247D2*
X6937373D1*
Y254000D1*
X2968623D1*
Y603247D1*
G37*
G36*
X7104431Y1873250D2*
X7100034Y1872762D1*
X7096615Y1872273D1*
X7089777Y1870808D1*
X7087823Y1870319D1*
X7082938Y1868854D1*
X7079031Y1867388D1*
X7074146Y1865434D1*
X7065354Y1861038D1*
X7062911Y1859573D1*
X7055584Y1854688D1*
X7053142Y1852734D1*
X7051188Y1851269D1*
X7048257Y1848827D1*
X7038000Y1838569D1*
X7035557Y1835638D1*
X7033604Y1833195D1*
X7030673Y1829288D1*
X7029696Y1827822D1*
X7029207Y1826845D1*
X7028231Y1825380D1*
X7026765Y1822449D1*
X7025788Y1820984D1*
X7024323Y1818053D1*
X7023346Y1816588D1*
X7021881Y1813657D1*
X7020904Y1812191D1*
X7019438Y1809260D1*
X7018461Y1807795D1*
X7016996Y1804864D1*
X7016019Y1803399D1*
X7014065Y1799491D1*
X7013088Y1798026D1*
X7011623Y1795095D1*
X7010646Y1793629D1*
X7009181Y1790699D1*
X7008204Y1789233D1*
X7006738Y1786302D1*
X7005761Y1784837D1*
X7004296Y1781906D1*
X7003319Y1780441D1*
X7001854Y1777510D1*
X7000877Y1776045D1*
X6999411Y1773114D1*
X6998434Y1771648D1*
X6996969Y1768718D1*
X6995992Y1767252D1*
X6994527Y1764321D1*
X6993550Y1762856D1*
X6992084Y1759925D1*
X6991107Y1758460D1*
X6989642Y1755529D1*
X6988665Y1754063D1*
X6987200Y1751133D1*
X6986223Y1749667D1*
X6984757Y1746736D1*
X6983781Y1745271D1*
X6982315Y1742340D1*
X6981338Y1740875D1*
X6979873Y1737944D1*
X6978896Y1736479D1*
X6977431Y1733548D1*
X6976454Y1732082D1*
X6974988Y1729151D1*
X6974011Y1727686D1*
X6972546Y1724755D1*
X6971569Y1723290D1*
X6970104Y1720359D1*
X6969127Y1718894D1*
X6967661Y1715963D1*
X6966684Y1714497D1*
X6965219Y1711567D1*
X6964242Y1710101D1*
X6962777Y1707170D1*
X6961800Y1705705D1*
X6960334Y1702774D1*
X6959357Y1701309D1*
X6957892Y1698378D1*
X6956915Y1696912D1*
X6955450Y1693982D1*
X6954473Y1692516D1*
X6953007Y1689585D1*
X6952031Y1688120D1*
X6950565Y1685189D1*
X6949588Y1683724D1*
X6948123Y1680793D1*
X6947146Y1679328D1*
X6945681Y1676397D1*
X6944704Y1674931D1*
X6943238Y1672001D1*
X6942261Y1670535D1*
X6940796Y1667604D1*
X6939819Y1666139D1*
X6938354Y1663208D1*
X6937377Y1661743D1*
X6935911Y1658812D1*
X6934934Y1657346D1*
X6933957Y1655393D1*
Y1654416D1*
X6934446Y1653927D1*
X6936888Y1652462D1*
X6942261Y1649531D1*
X6946657Y1647089D1*
X6952031Y1644158D1*
X6956427Y1641715D1*
X6961800Y1638785D1*
X6966196Y1636342D1*
X6971569Y1633411D1*
X6975965Y1630969D1*
X6981338Y1628038D1*
X6985734Y1625596D1*
X6991107Y1622665D1*
X6995504Y1620223D1*
X7000877Y1617292D1*
X7005273Y1614850D1*
X7010646Y1611919D1*
X7015042Y1609476D1*
X7025788Y1603615D1*
X7030184Y1601172D1*
X7035557Y1598242D1*
X7039954Y1595799D1*
X7045327Y1592868D1*
X7049723Y1590426D1*
X7055096Y1587495D1*
X7059492Y1585053D1*
X7064865Y1582122D1*
X7069261Y1579680D1*
X7074634Y1576749D1*
X7079031Y1574307D1*
X7084404Y1571376D1*
X7088800Y1568933D1*
X7094173Y1566003D1*
X7098569Y1563560D1*
X7103942Y1560629D1*
X7108338Y1558187D1*
X7113711Y1555256D1*
X7118107Y1552814D1*
X7123481Y1549883D1*
X7127877Y1547441D1*
X7128854Y1546952D1*
X7129831D1*
X7130807Y1548906D1*
X7131784Y1550372D1*
X7133250Y1553302D1*
X7134227Y1554768D1*
X7135692Y1557699D1*
X7136669Y1559164D1*
X7138134Y1562095D1*
X7139111Y1563560D1*
X7140577Y1566491D1*
X7141554Y1567957D1*
X7143019Y1570887D1*
X7143996Y1572353D1*
X7145461Y1575284D1*
X7146438Y1576749D1*
X7147904Y1579680D1*
X7148881Y1581145D1*
X7150346Y1584076D1*
X7151323Y1585541D1*
X7152788Y1588472D1*
X7153765Y1589938D1*
X7155231Y1592868D1*
X7156207Y1594334D1*
X7157673Y1597265D1*
X7158650Y1598730D1*
X7160115Y1601661D1*
X7161092Y1603126D1*
X7162557Y1606057D1*
X7163534Y1607523D1*
X7165000Y1610453D1*
X7165977Y1611919D1*
X7167442Y1614850D1*
X7168419Y1616315D1*
X7169884Y1619246D1*
X7170861Y1620711D1*
X7172327Y1623642D1*
X7173304Y1625107D1*
X7174769Y1628038D1*
X7175746Y1629504D1*
X7177211Y1632435D1*
X7178188Y1633900D1*
X7179654Y1636831D1*
X7180631Y1638296D1*
X7182096Y1641227D1*
X7183073Y1642692D1*
X7184538Y1645623D1*
X7185515Y1647089D1*
X7186981Y1650019D1*
X7187957Y1651485D1*
X7189423Y1654416D1*
X7190400Y1655881D1*
X7191865Y1658812D1*
X7192842Y1660277D1*
X7194307Y1663208D1*
X7195284Y1664673D1*
X7196750Y1667604D1*
X7197727Y1669070D1*
X7199192Y1672001D1*
X7200169Y1673466D1*
X7201634Y1676397D1*
X7202611Y1677862D1*
X7204077Y1680793D1*
X7205054Y1682258D1*
X7206519Y1685189D1*
X7207496Y1686655D1*
X7208961Y1689585D1*
X7209938Y1691051D1*
X7211404Y1693982D1*
X7212381Y1695447D1*
X7213846Y1698378D1*
X7214823Y1699843D1*
X7216288Y1702774D1*
X7217265Y1704240D1*
X7218731Y1707170D1*
X7219707Y1708636D1*
X7221173Y1711567D1*
X7222150Y1713032D1*
X7223615Y1715963D1*
X7224592Y1717428D1*
X7226057Y1720359D1*
X7227034Y1721824D1*
X7228500Y1724755D1*
X7229477Y1726221D1*
X7230942Y1729151D1*
X7231919Y1730617D1*
X7233384Y1733548D1*
X7234361Y1735013D1*
X7235827Y1737944D1*
X7236804Y1739409D1*
X7238269Y1742340D1*
X7239246Y1743806D1*
X7240711Y1746736D1*
X7241688Y1748202D1*
X7243154Y1751133D1*
X7244131Y1752598D1*
X7245596Y1755529D1*
X7246573Y1756994D1*
X7247061Y1757971D1*
X7247141Y1758349D1*
X7247441Y1758749D1*
X7247676Y1758726D1*
X7247951Y1758328D1*
X7248038Y1757971D1*
X7249015Y1756506D1*
X7249504Y1755529D1*
X7250481Y1754063D1*
X7250969Y1753086D1*
X7251946Y1751621D1*
X7252923Y1749667D1*
X7253900Y1748202D1*
X7254388Y1747225D1*
X7255365Y1745759D1*
X7255854Y1744783D1*
X7256831Y1743317D1*
X7257807Y1741363D1*
X7258784Y1739898D1*
X7259273Y1738921D1*
X7260250Y1737455D1*
X7260738Y1736479D1*
X7261715Y1735013D1*
X7262692Y1733059D1*
X7263669Y1731594D1*
X7264157Y1730617D1*
X7265134Y1729151D1*
X7265623Y1728175D1*
X7266600Y1726709D1*
X7267088Y1725732D1*
X7268065Y1724267D1*
X7269042Y1722313D1*
X7270019Y1720847D1*
X7270507Y1719871D1*
X7271484Y1718405D1*
X7271973Y1717428D1*
X7272950Y1715963D1*
X7273927Y1714009D1*
X7274904Y1712544D1*
X7275392Y1711567D1*
X7276369Y1710101D1*
X7276857Y1709124D1*
X7277834Y1707659D1*
X7278811Y1705705D1*
X7279788Y1704240D1*
X7280277Y1703263D1*
X7281254Y1701797D1*
X7281742Y1700820D1*
X7282719Y1699355D1*
X7283207Y1698378D1*
X7284184Y1696912D1*
X7285161Y1694959D1*
X7286138Y1693493D1*
X7286627Y1692516D1*
X7287604Y1691051D1*
X7288092Y1690074D1*
X7289069Y1688609D1*
X7290046Y1686655D1*
X7291023Y1685189D1*
X7291511Y1684212D1*
X7292488Y1682747D1*
X7292977Y1681770D1*
X7293954Y1680305D1*
X7294931Y1678351D1*
X7295907Y1676885D1*
X7296396Y1675908D1*
X7297373Y1674443D1*
X7297861Y1673466D1*
X7298838Y1672001D1*
X7299815Y1670047D1*
X7300792Y1668581D1*
X7301281Y1667604D1*
X7302257Y1666139D1*
X7302746Y1665162D1*
X7303723Y1663697D1*
X7304211Y1662720D1*
X7305188Y1661254D1*
X7306165Y1659300D1*
X7307142Y1657835D1*
X7307631Y1656858D1*
X7308607Y1655393D1*
X7309096Y1654416D1*
X7310073Y1652950D1*
X7311050Y1650996D1*
X7312027Y1649531D1*
X7312515Y1648554D1*
X7313492Y1647089D1*
X7313981Y1646112D1*
X7314957Y1644646D1*
X7315934Y1642692D1*
X7316911Y1641227D1*
X7317400Y1640250D1*
X7318377Y1638785D1*
X7318865Y1637808D1*
X7319842Y1636342D1*
X7320331Y1635365D1*
X7321307Y1633900D1*
X7322284Y1631946D1*
X7323261Y1630481D1*
X7323750Y1629504D1*
X7324727Y1628038D1*
X7325215Y1627061D1*
X7325609Y1626431D1*
X7325704Y1626084D1*
X7323750Y1625107D1*
X7286138Y1603615D1*
X7281742Y1601172D1*
X7240711Y1577726D1*
X7239734Y1576749D1*
X7241200D1*
X7251457Y1577237D1*
X7470777Y1587984D1*
X7471265Y1588472D1*
X7472242Y1590426D1*
X7473219Y1591892D1*
X7474684Y1594822D1*
X7475661Y1596288D1*
X7477615Y1600196D1*
X7478592Y1601661D1*
X7480057Y1604592D1*
X7481034Y1606057D1*
X7482500Y1608988D1*
X7483477Y1610453D1*
X7484942Y1613384D1*
X7485919Y1614850D1*
X7487384Y1617780D1*
X7488361Y1619246D1*
X7489827Y1622177D1*
X7490804Y1623642D1*
X7492757Y1627550D1*
X7493734Y1629015D1*
X7495200Y1631946D1*
X7496177Y1633411D1*
X7497642Y1636342D1*
X7498619Y1637808D1*
X7500084Y1640738D1*
X7501061Y1642204D1*
X7502527Y1645135D1*
X7503504Y1646600D1*
X7504969Y1649531D1*
X7505946Y1650996D1*
X7507411Y1653927D1*
X7508388Y1655393D1*
X7510342Y1659300D1*
X7511319Y1660766D1*
X7512784Y1663697D1*
X7513761Y1665162D1*
X7515227Y1668093D1*
X7516204Y1669558D1*
X7517669Y1672489D1*
X7518646Y1673954D1*
X7520111Y1676885D1*
X7521088Y1678351D1*
X7522554Y1681281D1*
X7523531Y1682747D1*
X7525484Y1686655D1*
X7526461Y1688120D1*
X7527927Y1691051D1*
X7528904Y1692516D1*
X7530369Y1695447D1*
X7531346Y1696912D1*
X7532811Y1699843D1*
X7533788Y1701309D1*
X7535254Y1704240D1*
X7536231Y1705705D1*
X7537696Y1708636D1*
X7538673Y1710101D1*
X7540627Y1714009D1*
X7541604Y1715474D1*
X7543069Y1718405D1*
X7544046Y1719871D1*
X7545511Y1722801D1*
X7546488Y1724267D1*
X7547954Y1727198D1*
X7548931Y1728663D1*
X7550396Y1731594D1*
X7551373Y1733059D1*
X7552838Y1735990D1*
X7553815Y1737455D1*
X7555769Y1741363D1*
X7556746Y1742829D1*
X7558211Y1745759D1*
X7559188Y1747225D1*
X7560654Y1750156D1*
X7561631Y1751621D1*
X7563096Y1754552D1*
X7564073Y1756017D1*
X7565538Y1758948D1*
X7566515Y1760414D1*
X7567981Y1763344D1*
X7568957Y1764810D1*
X7570423Y1767741D1*
X7571400Y1769206D1*
X7573354Y1773114D1*
X7574331Y1774579D1*
X7575796Y1777510D1*
X7576773Y1778975D1*
X7577261Y1779952D1*
X7576773D1*
X7573842Y1778487D1*
X7570423Y1776533D1*
X7567981Y1775068D1*
X7564561Y1773114D1*
X7562119Y1771648D1*
X7555281Y1767741D1*
X7552838Y1766275D1*
X7549419Y1764321D1*
X7546977Y1762856D1*
X7540138Y1758948D1*
X7537696Y1757483D1*
X7534277Y1755529D1*
X7531834Y1754063D1*
X7524996Y1750156D1*
X7522554Y1748690D1*
X7519134Y1746736D1*
X7516692Y1745271D1*
X7509854Y1741363D1*
X7507411Y1739898D1*
X7503992Y1737944D1*
X7503015Y1736967D1*
X7502527D1*
X7501550Y1737944D1*
Y1738432D1*
X7501061Y1739409D1*
X7500084Y1740875D1*
X7499596Y1741852D1*
X7498619Y1743317D1*
X7498131Y1744294D1*
X7497154Y1745759D1*
X7496177Y1747713D1*
X7495200Y1749179D1*
X7494711Y1750156D1*
X7493734Y1751621D1*
X7493246Y1752598D1*
X7492269Y1754063D1*
X7491292Y1756017D1*
X7490315Y1757483D1*
X7489827Y1758460D1*
X7488850Y1759925D1*
X7488361Y1760902D1*
X7487384Y1762367D1*
X7486407Y1764321D1*
X7485431Y1765787D1*
X7484942Y1766764D1*
X7483965Y1768229D1*
X7482988Y1770183D1*
X7482011Y1771648D1*
X7481523Y1772625D1*
X7480546Y1774091D1*
X7480057Y1775068D1*
X7479081Y1776533D1*
X7478104Y1778487D1*
X7477127Y1779952D1*
X7476638Y1780929D1*
X7475661Y1782395D1*
X7475173Y1783372D1*
X7474196Y1784837D1*
X7473219Y1786791D1*
X7472242Y1788256D1*
X7471754Y1789233D1*
X7470777Y1790699D1*
X7470288Y1791676D1*
X7469311Y1793141D1*
X7468334Y1795095D1*
X7467357Y1796560D1*
X7466869Y1797537D1*
X7465892Y1799003D1*
X7465404Y1799980D1*
X7464427Y1801445D1*
X7463450Y1803399D1*
X7462473Y1804864D1*
X7461984Y1805841D1*
X7461007Y1807307D1*
X7460519Y1808284D1*
X7459542Y1809749D1*
X7458565Y1811703D1*
X7457588Y1813168D1*
X7457100Y1814145D1*
X7456123Y1815611D1*
X7455634Y1816588D1*
X7454657Y1818053D1*
X7453681Y1820007D1*
X7452704Y1821472D1*
X7452215Y1822449D1*
X7451238Y1823915D1*
X7450750Y1824892D1*
X7449773Y1826357D1*
X7448796Y1828311D1*
X7447819Y1829776D1*
X7447331Y1830753D1*
X7446354Y1832219D1*
X7445377Y1834172D1*
X7441469Y1840034D1*
X7439515Y1842476D1*
X7435607Y1846873D1*
X7430234Y1851757D1*
X7426327Y1854688D1*
X7423884Y1856154D1*
X7422419Y1857131D1*
X7413627Y1861527D1*
X7411184Y1862504D1*
X7409719Y1862992D1*
X7392134Y1866900D1*
X7389692Y1867388D1*
X7365757Y1867877D1*
X7138134Y1870319D1*
X7135204Y1870808D1*
X7132761Y1871296D1*
X7121527Y1873250D1*
X7104431D1*
G37*
G36*
X7590938Y1598242D2*
X7590450Y1597753D1*
X7587519Y1596288D1*
X7580681Y1592380D1*
X7578238Y1590915D1*
X7567981Y1585053D1*
X7565538Y1583588D1*
X7555281Y1577726D1*
X7552838Y1576261D1*
X7542581Y1570399D1*
X7540138Y1568933D1*
X7529881Y1563072D1*
X7527438Y1561606D1*
X7517181Y1555745D1*
X7514738Y1554279D1*
X7504481Y1548418D1*
X7502038Y1546952D1*
X7491781Y1541091D1*
X7489338Y1539625D1*
X7479081Y1533764D1*
X7476638Y1532298D1*
X7466381Y1526437D1*
X7463938Y1524971D1*
X7453681Y1519110D1*
X7451238Y1517644D1*
X7440981Y1511783D1*
X7438538Y1510317D1*
X7428281Y1504455D1*
X7425838Y1502990D1*
X7415581Y1497128D1*
X7413138Y1495663D1*
X7402881Y1489801D1*
X7397996Y1486871D1*
X7397507Y1486382D1*
X7398484Y1484917D1*
X7399461Y1482963D1*
X7400438Y1481497D1*
X7401415Y1479544D1*
X7402392Y1478078D1*
X7403369Y1476124D1*
X7404346Y1474659D1*
X7404834Y1473682D1*
X7405811Y1472216D1*
X7406788Y1470263D1*
X7407765Y1468797D1*
X7408742Y1466843D1*
X7409719Y1465378D1*
X7410696Y1463424D1*
X7411673Y1461959D1*
X7412650Y1460005D1*
X7413627Y1458539D1*
X7414604Y1456585D1*
X7415581Y1455120D1*
X7416069Y1454143D1*
X7417046Y1452678D1*
X7418023Y1450724D1*
X7419000Y1449258D1*
X7419977Y1447305D1*
X7420954Y1445839D1*
X7421931Y1443885D1*
X7422907Y1442420D1*
X7423884Y1440466D1*
X7424861Y1439001D1*
X7425838Y1437047D1*
X7426815Y1435581D1*
X7427304Y1434604D1*
X7428281Y1433139D1*
X7429257Y1431185D1*
X7430234Y1429720D1*
X7431211Y1427766D1*
X7432188Y1426300D1*
X7433165Y1424346D1*
X7434142Y1422881D1*
X7435119Y1420927D1*
X7436096Y1419462D1*
X7437073Y1417508D1*
X7438050Y1416042D1*
X7438538Y1415066D1*
X7439515Y1413600D1*
X7440492Y1411646D1*
X7441469Y1410181D1*
X7442446Y1408227D1*
X7443423Y1406762D1*
X7444400Y1404808D1*
X7445377Y1403342D1*
X7446354Y1401388D1*
X7447331Y1399923D1*
X7448307Y1397969D1*
X7449284Y1396504D1*
X7449773Y1395527D1*
X7450750Y1394061D1*
X7451727Y1392107D1*
X7452704Y1390642D1*
X7453681Y1388688D1*
X7454657Y1387223D1*
X7455634Y1385269D1*
X7456611Y1383804D1*
X7457588Y1381850D1*
X7458565Y1380384D1*
X7459542Y1378430D1*
X7460519Y1376965D1*
X7461007Y1375988D1*
X7461984Y1374523D1*
X7462961Y1372569D1*
X7463938Y1371103D1*
X7464915Y1369149D1*
X7465892Y1367684D1*
X7466869Y1365730D1*
X7467846Y1364265D1*
X7468823Y1362311D1*
X7469800Y1360845D1*
X7470777Y1358892D1*
X7471754Y1357426D1*
X7472242Y1356449D1*
X7473219Y1354984D1*
X7474196Y1353030D1*
X7475173Y1351565D1*
X7476150Y1349611D1*
X7477127Y1348145D1*
X7478104Y1346191D1*
X7479081Y1344726D1*
X7480057Y1342772D1*
X7481034Y1341307D1*
X7482011Y1339353D1*
X7482988Y1337887D1*
X7483477Y1336910D1*
X7484454Y1335445D1*
X7485431Y1333491D1*
X7486407Y1332026D1*
X7487384Y1330072D1*
X7488361Y1328606D1*
X7489338Y1326653D1*
X7490315Y1325187D1*
X7491292Y1323233D1*
X7492269Y1321768D1*
X7493246Y1319814D1*
X7494223Y1318349D1*
X7494711Y1317372D1*
X7495688Y1315906D1*
X7496665Y1313952D1*
X7497642Y1312487D1*
X7498619Y1310533D1*
X7499596Y1309068D1*
X7500573Y1307114D1*
X7501550Y1305648D1*
X7502527Y1303694D1*
X7503504Y1302229D1*
X7504481Y1300275D1*
X7505457Y1298810D1*
X7505946Y1297833D1*
X7506923Y1296367D1*
X7507900Y1294414D1*
X7508877Y1292948D1*
X7509854Y1290994D1*
X7510831Y1289529D1*
X7511807Y1287575D1*
X7512784Y1286110D1*
X7513761Y1284156D1*
X7514738Y1282690D1*
X7515715Y1280736D1*
X7516692Y1279271D1*
X7517181Y1278294D1*
X7518157Y1277317D1*
Y1276829D1*
X7512947Y1276340D1*
X7507737D1*
X7502527Y1276829D1*
X7378946Y1277806D1*
X7363804Y1278294D1*
Y1290017D1*
X7364292Y1290506D1*
X7366246Y1370126D1*
Y1376965D1*
X7365757Y1376476D1*
X7363315Y1371592D1*
X7362338Y1370126D1*
X7360384Y1366219D1*
X7359407Y1364753D1*
X7356965Y1359868D1*
X7355988Y1358403D1*
X7353546Y1353518D1*
X7352569Y1352053D1*
X7350615Y1348145D1*
X7349638Y1346680D1*
X7347196Y1341795D1*
X7346219Y1340330D1*
X7343777Y1335445D1*
X7342800Y1333980D1*
X7340846Y1330072D1*
X7339869Y1328606D1*
X7337427Y1323722D1*
X7336450Y1322256D1*
X7334007Y1317372D1*
X7333031Y1315906D1*
X7331077Y1311998D1*
X7330100Y1310533D1*
X7327657Y1305648D1*
X7326681Y1304183D1*
X7324238Y1299298D1*
X7323261Y1297833D1*
X7320819Y1292948D1*
X7319842Y1291483D1*
X7317888Y1287575D1*
X7316911Y1286110D1*
X7314469Y1281225D1*
X7313492Y1279759D1*
X7311050Y1274875D1*
X7310073Y1273409D1*
X7308119Y1269502D1*
X7307142Y1268036D1*
X7304700Y1263152D1*
X7303723Y1261686D1*
X7301281Y1256801D1*
X7300304Y1255336D1*
X7298350Y1251428D1*
X7297373Y1249963D1*
X7294931Y1245078D1*
X7293954Y1243613D1*
X7291511Y1238728D1*
X7290534Y1237263D1*
X7288581Y1233355D1*
X7287604Y1231889D1*
X7285161Y1227005D1*
X7284184Y1225539D1*
X7281742Y1220655D1*
X7280765Y1219189D1*
X7278811Y1215282D1*
X7277834Y1213816D1*
X7275392Y1208931D1*
X7274415Y1207466D1*
X7271973Y1202581D1*
X7270996Y1201116D1*
X7268554Y1196231D1*
X7267577Y1194766D1*
X7265623Y1190858D1*
X7264646Y1189393D1*
X7262204Y1184508D1*
X7261227Y1183043D1*
X7258784Y1178158D1*
X7257807Y1176692D1*
X7256342Y1173762D1*
Y1172296D1*
X7257319Y1170831D1*
X7258296Y1168877D1*
X7259273Y1167411D1*
X7260250Y1165458D1*
X7261227Y1163992D1*
X7262204Y1162038D1*
X7263181Y1160573D1*
X7264157Y1158619D1*
X7265134Y1157154D1*
X7265623Y1156177D1*
X7266600Y1154711D1*
X7267577Y1152757D1*
X7268554Y1151292D1*
X7269531Y1149338D1*
X7270507Y1147873D1*
X7271484Y1145919D1*
X7272461Y1144453D1*
X7273438Y1142500D1*
X7274415Y1141034D1*
X7274904Y1140057D1*
X7275881Y1138592D1*
X7276857Y1136638D1*
X7277834Y1135173D1*
X7278811Y1133219D1*
X7279788Y1131753D1*
X7280765Y1129799D1*
X7281742Y1128334D1*
X7282719Y1126380D1*
X7283696Y1124915D1*
X7284673Y1122961D1*
X7285650Y1121495D1*
X7286138Y1120518D1*
X7287115Y1119053D1*
X7288092Y1117099D1*
X7289069Y1115634D1*
X7290046Y1113680D1*
X7291023Y1112214D1*
X7292000Y1110261D1*
X7292977Y1108795D1*
X7293954Y1106841D1*
X7294931Y1105376D1*
X7295907Y1103422D1*
X7296884Y1101957D1*
X7297373Y1100980D1*
X7298350Y1099514D1*
X7299327Y1097560D1*
X7300304Y1096095D1*
X7301281Y1094141D1*
X7302257Y1092676D1*
X7303234Y1090722D1*
X7304211Y1089256D1*
X7305188Y1087302D1*
X7306165Y1085837D1*
X7306654Y1084860D1*
X7307631Y1083395D1*
X7308607Y1081441D1*
X7309584Y1079975D1*
X7310561Y1078022D1*
X7311538Y1076556D1*
X7312515Y1074602D1*
X7313492Y1073137D1*
X7314469Y1071183D1*
X7315446Y1069718D1*
X7316423Y1067764D1*
X7317400Y1066298D1*
X7317888Y1065321D1*
X7318865Y1063856D1*
X7319842Y1061902D1*
X7320819Y1060437D1*
X7321796Y1058483D1*
X7322773Y1057017D1*
X7323750Y1055063D1*
X7324727Y1053598D1*
X7325704Y1051644D1*
X7326681Y1050179D1*
X7327169Y1049202D1*
X7328146Y1047736D1*
X7329123Y1045783D1*
X7330100Y1044317D1*
X7331077Y1042363D1*
X7332054Y1040898D1*
X7333031Y1038944D1*
X7334007Y1037479D1*
X7334984Y1035525D1*
X7335961Y1034059D1*
X7336938Y1032105D1*
X7337915Y1030640D1*
X7338404Y1029663D1*
X7339381Y1028198D1*
X7340357Y1026244D1*
X7341334Y1024778D1*
X7342311Y1022825D1*
X7343288Y1021359D1*
X7344265Y1019405D1*
X7345242Y1017940D1*
X7346219Y1015986D1*
X7347196Y1014521D1*
X7348173Y1012567D1*
X7349150Y1011101D1*
X7349638Y1010124D1*
X7350615Y1008659D1*
X7351592Y1006705D1*
X7352569Y1005240D1*
X7353546Y1003286D1*
X7354523Y1001820D1*
X7355500Y999866D1*
X7356477Y998401D1*
X7357454Y996447D1*
X7358431Y994982D1*
X7358919Y994005D1*
X7359896Y992539D1*
X7360873Y990586D1*
X7361850Y989120D1*
X7362827Y987166D1*
X7363804Y985701D1*
X7364781Y983747D1*
X7365757Y982770D1*
X7366246Y1008170D1*
X7367223Y1065810D1*
Y1068741D1*
X7373573Y1069229D1*
X7379923D1*
X7386273Y1068741D1*
X7460519Y1067764D1*
X7485431D1*
X7489338Y1068252D1*
X7492269Y1068741D1*
X7496177Y1069718D1*
X7504969Y1072648D1*
X7513761Y1077045D1*
X7516204Y1078510D1*
X7519134Y1080464D1*
X7523042Y1083395D1*
X7525484Y1085349D1*
X7534277Y1094141D1*
X7536231Y1096583D1*
X7539161Y1100980D1*
X7539650Y1101957D1*
X7541604Y1104887D1*
X7542092Y1105864D1*
X7545023Y1110261D1*
X7545511Y1111237D1*
X7547465Y1114168D1*
X7547954Y1115145D1*
X7549907Y1118076D1*
X7550396Y1119053D1*
X7553327Y1123449D1*
X7553815Y1124426D1*
X7555769Y1127357D1*
X7556257Y1128334D1*
X7559188Y1132730D1*
X7559677Y1133707D1*
X7561631Y1136638D1*
X7562119Y1137615D1*
X7565050Y1142011D1*
X7565538Y1142988D1*
X7567492Y1145919D1*
X7567981Y1146896D1*
X7569934Y1149827D1*
X7570423Y1150804D1*
X7573354Y1155200D1*
X7573842Y1156177D1*
X7575796Y1159108D1*
X7576284Y1160084D1*
X7579215Y1164481D1*
X7579704Y1165458D1*
X7581657Y1168388D1*
X7582146Y1169365D1*
X7584100Y1172296D1*
X7584588Y1173273D1*
X7587519Y1177669D1*
X7588007Y1178646D1*
X7589961Y1181577D1*
X7590450Y1182554D1*
X7593381Y1186950D1*
X7593869Y1187927D1*
X7595823Y1190858D1*
X7596311Y1191835D1*
X7599242Y1196231D1*
X7599731Y1197208D1*
X7601684Y1200139D1*
X7602173Y1201116D1*
X7604127Y1204047D1*
X7604615Y1205024D1*
X7607546Y1209420D1*
X7608034Y1210397D1*
X7609988Y1213328D1*
X7610477Y1214305D1*
X7613407Y1218701D1*
X7613896Y1219678D1*
X7615850Y1222609D1*
X7616338Y1223585D1*
X7619269Y1227982D1*
X7619757Y1228959D1*
X7621711Y1231889D1*
X7622200Y1232866D1*
X7624154Y1235797D1*
X7624642Y1236774D1*
X7627573Y1241170D1*
X7628061Y1242147D1*
X7630015Y1245078D1*
X7630504Y1246055D1*
X7633434Y1250451D1*
X7633923Y1251428D1*
X7635877Y1254359D1*
X7636365Y1255336D1*
X7638319Y1258267D1*
X7638807Y1259244D1*
X7641738Y1263640D1*
X7642227Y1264617D1*
X7644181Y1267548D1*
X7644669Y1268525D1*
X7647600Y1272921D1*
X7648088Y1273898D1*
X7650042Y1276829D1*
X7650531Y1277806D1*
X7653461Y1282202D1*
X7653950Y1283179D1*
X7655904Y1286110D1*
X7656392Y1287087D1*
X7658346Y1290017D1*
X7658834Y1290994D1*
X7661765Y1295391D1*
X7662254Y1296367D1*
X7664207Y1299298D1*
X7664696Y1300275D1*
X7667627Y1304671D1*
X7668115Y1305648D1*
X7671046Y1310045D1*
X7673977Y1313464D1*
X7676907Y1317372D1*
X7679838Y1321768D1*
X7680327Y1322745D1*
X7681304Y1324210D1*
X7681792Y1325187D1*
X7684723Y1329583D1*
X7685211Y1330560D1*
X7686188Y1332026D1*
X7688142Y1335933D1*
X7689119Y1337399D1*
X7689607Y1338376D1*
X7690096Y1339841D1*
X7692050Y1343749D1*
X7692538Y1345214D1*
X7693027Y1346191D1*
X7694004Y1349122D1*
X7694492Y1350099D1*
X7694981Y1351565D1*
X7695469Y1353518D1*
X7696446Y1356449D1*
X7697423Y1360357D1*
X7697911Y1362799D1*
X7698888Y1368661D1*
X7699377Y1373546D1*
Y1388688D1*
X7698888Y1393573D1*
X7698400Y1396992D1*
X7697423Y1402854D1*
X7696934Y1404808D1*
X7696446Y1407250D1*
X7695957Y1409204D1*
X7694981Y1412135D1*
X7694492Y1414089D1*
X7693515Y1417019D1*
X7693027Y1417996D1*
X7692538Y1419462D1*
X7692050Y1420439D1*
X7691561Y1421904D1*
X7691073Y1422881D1*
X7690584Y1424346D1*
X7689119Y1427277D1*
X7688142Y1428743D1*
X7687165Y1430697D1*
X7686188Y1432162D1*
X7685211Y1434116D1*
X7684234Y1435581D1*
X7683257Y1437535D1*
X7682281Y1439001D1*
X7681304Y1440954D1*
X7680327Y1442420D1*
X7679350Y1444374D1*
X7678373Y1445839D1*
X7677396Y1447793D1*
X7676419Y1449258D1*
X7675442Y1451212D1*
X7674465Y1452678D1*
X7673488Y1454632D1*
X7672511Y1456097D1*
X7671534Y1458051D1*
X7670557Y1459516D1*
X7669581Y1461470D1*
X7668604Y1462936D1*
X7667627Y1464889D1*
X7666650Y1466355D1*
X7665673Y1468309D1*
X7664696Y1469774D1*
X7663719Y1471728D1*
X7662742Y1473193D1*
X7661765Y1475147D1*
X7660788Y1476613D1*
X7659811Y1478567D1*
X7658834Y1480032D1*
X7657857Y1481986D1*
X7656881Y1483451D1*
X7655904Y1485405D1*
X7654927Y1486871D1*
X7653950Y1488824D1*
X7652973Y1490290D1*
X7651996Y1492244D1*
X7651019Y1493709D1*
X7650042Y1495663D1*
X7649065Y1497128D1*
X7648088Y1499082D1*
X7647111Y1500548D1*
X7646134Y1502502D1*
X7645157Y1503967D1*
X7644181Y1505921D1*
X7643204Y1507386D1*
X7642227Y1509340D1*
X7641250Y1510806D1*
X7640761Y1511783D1*
X7639784Y1513248D1*
X7638807Y1515202D1*
X7637831Y1516667D1*
X7636854Y1518621D1*
X7635877Y1520087D1*
X7634900Y1522040D1*
X7633923Y1523506D1*
X7632946Y1525460D1*
X7631969Y1526925D1*
X7630992Y1528879D1*
X7630015Y1530344D1*
X7629038Y1532298D1*
X7628061Y1533764D1*
X7627084Y1535718D1*
X7626107Y1537183D1*
X7625131Y1539137D1*
X7624154Y1540602D1*
X7623177Y1542556D1*
X7622200Y1544022D1*
X7621223Y1545975D1*
X7620246Y1547441D1*
X7619269Y1549395D1*
X7618292Y1550860D1*
X7617315Y1552814D1*
X7616338Y1554279D1*
X7615361Y1556233D1*
X7614384Y1557699D1*
X7613407Y1559653D1*
X7612431Y1561118D1*
X7611454Y1563072D1*
X7610477Y1564537D1*
X7609500Y1566491D1*
X7608523Y1567957D1*
X7607546Y1569910D1*
X7606569Y1571376D1*
X7605592Y1573330D1*
X7604615Y1574795D1*
X7603638Y1576749D1*
X7602661Y1578214D1*
X7601684Y1580168D1*
X7600707Y1581634D1*
X7599731Y1583588D1*
X7598754Y1585053D1*
X7597777Y1587007D1*
X7596800Y1588472D1*
X7595823Y1590426D1*
X7594846Y1591892D1*
X7593869Y1593845D1*
X7592892Y1595311D1*
X7591915Y1597265D1*
X7590938Y1598242D1*
G37*
G36*
X6778627Y1563072D2*
X6779115Y1562583D1*
X6780581Y1561606D1*
X6787907Y1557210D1*
X6791327Y1555256D1*
X6808423Y1544998D1*
X6811842Y1543045D1*
X6826496Y1534252D1*
X6829915Y1532298D1*
X6844569Y1523506D1*
X6847988Y1521552D1*
X6850431Y1520087D1*
X6852384Y1519110D1*
X6852873Y1518621D1*
Y1517644D1*
X6851896Y1516667D1*
X6851407Y1515690D1*
X6850431Y1514225D1*
X6849942Y1513248D1*
X6848965Y1511783D1*
X6847988Y1509829D1*
X6847011Y1508363D1*
X6846523Y1507386D1*
X6845546Y1505921D1*
X6845057Y1504944D1*
X6844081Y1503479D1*
X6843592Y1502502D1*
X6842615Y1501036D1*
X6842127Y1500059D1*
X6841150Y1498594D1*
X6840173Y1496640D1*
X6839196Y1495175D1*
X6838707Y1494198D1*
X6837731Y1492732D1*
X6837242Y1491755D1*
X6836265Y1490290D1*
X6835777Y1489313D1*
X6834800Y1487848D1*
X6834311Y1486871D1*
X6833334Y1485405D1*
X6832357Y1483451D1*
X6831381Y1481986D1*
X6830892Y1481009D1*
X6829915Y1479544D1*
X6829427Y1478567D1*
X6828450Y1477101D1*
X6827961Y1476124D1*
X6826984Y1474659D1*
X6826496Y1473682D1*
X6825519Y1472216D1*
X6824542Y1470263D1*
X6823565Y1468797D1*
X6823077Y1467820D1*
X6822100Y1466355D1*
X6821611Y1465378D1*
X6820634Y1463913D1*
X6820146Y1462936D1*
X6819169Y1461470D1*
X6818681Y1460493D1*
X6817704Y1459028D1*
X6816727Y1457074D1*
X6815750Y1455609D1*
X6815261Y1454632D1*
X6814284Y1453166D1*
X6813796Y1452189D1*
X6812819Y1450724D1*
X6812331Y1449747D1*
X6811354Y1448281D1*
X6810865Y1447305D1*
X6809888Y1445839D1*
X6808911Y1443885D1*
X6807934Y1442420D1*
X6807446Y1441443D1*
X6806469Y1439978D1*
X6805981Y1439001D1*
X6805004Y1437535D1*
X6804515Y1436558D1*
X6803538Y1435093D1*
X6803050Y1434116D1*
X6802073Y1432650D1*
X6801096Y1430697D1*
X6800119Y1429231D1*
X6799631Y1428254D1*
X6798654Y1426789D1*
X6798165Y1425812D1*
X6797188Y1424346D1*
X6796700Y1423370D1*
X6795723Y1421904D1*
X6795234Y1420927D1*
X6794257Y1419462D1*
X6792304Y1415554D1*
X6791815Y1414089D1*
X6790838Y1412135D1*
X6788396Y1404808D1*
X6787907Y1402854D1*
X6787419Y1400411D1*
X6786931Y1396992D1*
X6786442Y1391619D1*
Y1385757D1*
X6786931Y1379896D1*
X6787419Y1376476D1*
X6787907Y1373546D1*
X6788396Y1371103D1*
X6789373Y1367196D1*
X6791815Y1359868D1*
X6796211Y1351076D1*
X6797188Y1349611D1*
X6800119Y1343749D1*
X6801096Y1342284D1*
X6804027Y1336422D1*
X6805004Y1334957D1*
X6808423Y1328118D1*
X6809400Y1326653D1*
X6812331Y1320791D1*
X6813307Y1319326D1*
X6816727Y1312487D1*
X6817704Y1311022D1*
X6820634Y1305160D1*
X6821611Y1303694D1*
X6824542Y1297833D1*
X6825519Y1296367D1*
X6828938Y1289529D1*
X6829915Y1288063D1*
X6832846Y1282202D1*
X6833823Y1280736D1*
X6837242Y1273898D1*
X6838219Y1272432D1*
X6841150Y1266571D1*
X6842127Y1265105D1*
X6845057Y1259244D1*
X6846034Y1257778D1*
X6849454Y1250940D1*
X6850431Y1249474D1*
X6853361Y1243613D1*
X6854338Y1242147D1*
X6857269Y1236286D1*
X6858246Y1234820D1*
X6861665Y1227982D1*
X6862642Y1226516D1*
X6865573Y1220655D1*
X6866550Y1219189D1*
X6869969Y1212351D1*
X6870946Y1210885D1*
X6873877Y1205024D1*
X6874854Y1203558D1*
X6877784Y1197697D1*
X6878761Y1196231D1*
X6882181Y1189393D1*
X6883157Y1187927D1*
X6886088Y1182066D1*
X6887065Y1180600D1*
X6890484Y1173762D1*
X6891461Y1172296D1*
X6894392Y1166435D1*
X6895369Y1164969D1*
X6898300Y1159108D1*
X6899277Y1157642D1*
X6902696Y1150804D1*
X6903673Y1149338D1*
X6906604Y1143476D1*
X6907581Y1142011D1*
X6911488Y1134196D1*
X6912954Y1129799D1*
X6913442Y1128822D1*
X6913931Y1127357D1*
X6920769Y1113680D1*
X6921746Y1112214D1*
X6922723Y1110261D1*
X6923700Y1108795D1*
X6924188Y1107818D1*
X6928096Y1101957D1*
X6929561Y1100003D1*
X6933469Y1095118D1*
X6943238Y1085349D1*
X6946169Y1082906D1*
X6947634Y1081929D1*
X6950077Y1079975D1*
X6954473Y1077045D1*
X6959357Y1074114D1*
X6967173Y1070206D1*
X6974500Y1067275D1*
X6983292Y1064344D1*
X6986711Y1063367D1*
X6990619Y1062391D1*
X6993061Y1061902D1*
X6999411Y1060925D1*
X7003807Y1060437D1*
X7199681D1*
X7200169Y1060925D1*
Y1284156D1*
X6958381Y1284644D1*
Y1285133D1*
X6959357Y1286110D1*
X6959846Y1287087D1*
X6960823Y1288552D1*
X6961800Y1290506D1*
X6962777Y1291971D1*
X6963265Y1292948D1*
X6964242Y1294414D1*
X6965219Y1296367D1*
X6966196Y1297833D1*
X6967173Y1299787D1*
X6968150Y1301252D1*
X6968638Y1302229D1*
X6969615Y1303694D1*
X6970592Y1305648D1*
X6971569Y1307114D1*
X6972546Y1309068D1*
X6973523Y1310533D1*
X6974011Y1311510D1*
X6974988Y1312975D1*
X6975965Y1314929D1*
X6976942Y1316395D1*
X6977919Y1318349D1*
X6978896Y1319814D1*
X6979384Y1320791D1*
X6980361Y1322256D1*
X6981338Y1324210D1*
X6982315Y1325676D1*
X6983292Y1327630D1*
X6984269Y1329095D1*
X6984757Y1330072D1*
X6985734Y1331537D1*
X6986711Y1333491D1*
X6987688Y1334957D1*
X6988665Y1336910D1*
X6989642Y1338376D1*
X6990131Y1339353D1*
X6991107Y1340818D1*
X6992084Y1342772D1*
X6993061Y1344237D1*
X6994038Y1346191D1*
X6995015Y1347657D1*
X6995504Y1348634D1*
X6996481Y1350099D1*
X6997457Y1352053D1*
X6998434Y1353518D1*
X6999411Y1355472D1*
X7000388Y1356938D1*
X7000877Y1357915D1*
X7001854Y1359380D1*
X7002831Y1361334D1*
X7003807Y1362799D1*
X7004784Y1364753D1*
X7005761Y1366219D1*
X7006250Y1367196D1*
X7007227Y1368661D1*
X7008204Y1370615D1*
X7009181Y1372080D1*
X7009669Y1373057D1*
X7010646Y1374523D1*
X7011623Y1376476D1*
X7012600Y1377942D1*
X7013577Y1379896D1*
X7014554Y1381361D1*
X7015042Y1382338D1*
X7016019Y1383804D1*
X7016996Y1385757D1*
X7017973Y1387223D1*
X7018950Y1389177D1*
X7019927Y1390642D1*
X7020415Y1391619D1*
X7021392Y1393084D1*
X7022369Y1395038D1*
X7023346Y1396504D1*
X7024323Y1398458D1*
X7025300Y1399923D1*
X7025788Y1400900D1*
X7026765Y1402365D1*
X7027742Y1404319D1*
X7028719Y1405785D1*
X7029696Y1407739D1*
X7030673Y1409204D1*
X7031161Y1410181D1*
X7032138Y1411646D1*
X7033115Y1413600D1*
X7034092Y1415066D1*
X7034581Y1416042D1*
Y1416531D1*
X7035557Y1417508D1*
X7036046D1*
X7037023Y1416531D1*
X7039465Y1415066D1*
X7040931Y1414089D1*
X7055584Y1405296D1*
X7057050Y1404319D1*
X7069261Y1396992D1*
X7070727Y1396015D1*
X7082938Y1388688D1*
X7084404Y1387711D1*
X7096615Y1380384D1*
X7098081Y1379407D1*
X7110292Y1372080D1*
X7111757Y1371103D1*
X7119084Y1366707D1*
X7120061Y1366219D1*
Y1366707D1*
X7119573Y1367684D1*
X7117619Y1370615D1*
X7117131Y1371592D1*
X7116154Y1373057D1*
X7115665Y1374034D1*
X7113711Y1376965D1*
X7113223Y1377942D1*
X7111269Y1380873D1*
X7110781Y1381850D1*
X7109804Y1383315D1*
X7109315Y1384292D1*
X7107361Y1387223D1*
X7106873Y1388200D1*
X7104919Y1391131D1*
X7104431Y1392107D1*
X7103454Y1393573D1*
X7102965Y1394550D1*
X7101011Y1397481D1*
X7100523Y1398458D1*
X7099546Y1399923D1*
X7099057Y1400900D1*
X7097104Y1403831D1*
X7096615Y1404808D1*
X7094661Y1407739D1*
X7094173Y1408715D1*
X7093196Y1410181D1*
X7092707Y1411158D1*
X7090754Y1414089D1*
X7090265Y1415066D1*
X7088311Y1417996D1*
X7087823Y1418973D1*
X7086846Y1420439D1*
X7086357Y1421416D1*
X7084404Y1424346D1*
X7083915Y1425323D1*
X7081961Y1428254D1*
X7081473Y1429231D1*
X7080496Y1430697D1*
X7080007Y1431674D1*
X7078054Y1434604D1*
X7077565Y1435581D1*
X7076588Y1437047D1*
X7076100Y1438024D1*
X7074146Y1440954D1*
X7073657Y1441931D1*
X7071704Y1444862D1*
X7071215Y1445839D1*
X7070238Y1447305D1*
X7069750Y1448281D1*
X7067796Y1451212D1*
X7067307Y1452189D1*
X7065354Y1455120D1*
X7064865Y1456097D1*
X7063888Y1457562D1*
X7063400Y1458539D1*
X7061446Y1461470D1*
X7060957Y1462447D1*
X7059981Y1463913D1*
X7059492Y1464889D1*
X7057538Y1467820D1*
X7057050Y1468797D1*
X7055096Y1471728D1*
X7054607Y1472705D1*
X7053631Y1474170D1*
X7053142Y1475147D1*
X7051188Y1478078D1*
X7050700Y1479055D1*
X7048746Y1481986D1*
X7048257Y1482963D1*
X7047281Y1484428D1*
X7046792Y1485405D1*
X7044838Y1488336D1*
X7044350Y1489313D1*
X7042396Y1492244D1*
X7041907Y1493221D1*
X7040931Y1494686D1*
X7040442Y1495663D1*
X7038488Y1498594D1*
X7038000Y1499571D1*
X7037023Y1501036D1*
X7036534Y1502013D1*
X7034581Y1504944D1*
X7034092Y1505921D1*
X7032138Y1508852D1*
X7031650Y1509829D1*
X7030673Y1511294D1*
X7030184Y1512271D1*
X7028231Y1515202D1*
X7027742Y1516179D1*
X7025788Y1519110D1*
X7025300Y1520087D1*
X7024323Y1521552D1*
X7023834Y1522529D1*
X7021881Y1525460D1*
X7021392Y1526437D1*
X7020415Y1527902D1*
X7019927Y1528879D1*
X7017973Y1531810D1*
X7017484Y1532787D1*
X7015531Y1535718D1*
X7015042Y1536694D1*
X7014065Y1538160D1*
X7013577Y1539137D1*
X7011623Y1542068D1*
X7011134Y1543045D1*
X7009181Y1545975D1*
X7008692Y1546952D1*
X7007715Y1548418D1*
X7007227Y1549395D1*
X7005273Y1552326D1*
X7004784Y1553302D1*
X7002831Y1556233D1*
X7002342Y1557210D1*
X7001365Y1558676D1*
X7000877Y1559653D1*
X6998923Y1562583D1*
X6998434Y1563072D1*
X6778627D1*
G37*
M02*
