G04 DipTrace 4.2.0.1*
G04 TopMask.gbr*
%MOMM*%
G04 #@! TF.FileFunction,Soldermask,Top*
G04 #@! TF.Part,Single*
%ADD21R,1.7X1.7*%
%ADD23R,1.6X1.6*%
%ADD30C,3.0*%
%ADD39C,3.4*%
%ADD44C,1.6*%
%ADD46C,2.1*%
%ADD48R,1.8X1.8*%
%ADD49C,1.8*%
%ADD50C,1.7*%
%ADD51R,2.1X2.1*%
%ADD53C,2.1*%
%FSLAX35Y35*%
G04*
G71*
G90*
G75*
G01*
G04 TopMask*
%LPD*%
D53*
X3825877Y1920877D3*
D51*
X1793877D3*
D30*
X216377Y5705000D3*
X9880127D3*
X216373Y216373D3*
X9880127Y216377D3*
D50*
X9540873Y3484623D3*
Y3095623D3*
D49*
X1939500Y423127D3*
D48*
X1489500D3*
D46*
X2064500Y673127D3*
X1364500D3*
D49*
X5289123Y423127D3*
D48*
X4839123D3*
D46*
X5414123Y673127D3*
X4714123D3*
D49*
X8622873Y423123D3*
D48*
X8172873D3*
D46*
X8747873Y673123D3*
X8047873D3*
D50*
X9826623Y5016500D3*
Y5270500D3*
X4429123Y1381127D3*
Y1635127D3*
Y1889127D3*
Y2143127D3*
Y2397127D3*
Y2651127D3*
Y2905127D3*
Y3159127D3*
Y3413127D3*
Y3667127D3*
Y3921127D3*
Y4175127D3*
Y4429127D3*
Y4683127D3*
Y4937127D3*
X6969123Y1381127D3*
Y1635127D3*
Y1889127D3*
Y2143127D3*
Y2397127D3*
Y2651127D3*
Y2905127D3*
Y3159127D3*
Y3413127D3*
Y3667127D3*
Y3921127D3*
Y4175127D3*
Y4429127D3*
Y4683127D3*
D21*
Y4937127D3*
D44*
X3870627Y3730627D3*
Y3984627D3*
Y4238627D3*
Y3476627D3*
D23*
Y3222627D3*
X9461500Y3984627D3*
D44*
Y4238627D3*
Y4492627D3*
Y4746627D3*
Y5000627D3*
Y5254627D3*
Y5508627D3*
Y5762627D3*
X7683500D3*
Y5508627D3*
Y5254627D3*
Y5000627D3*
Y4746627D3*
Y4492627D3*
Y4238627D3*
Y3984627D3*
D50*
X9445627Y714367D3*
Y968367D3*
Y1222367D3*
Y1476367D3*
D21*
Y1730367D3*
D50*
Y2809877D3*
Y2555877D3*
Y2301877D3*
D21*
Y2047877D3*
D50*
X1063627Y3175000D3*
Y2921000D3*
Y2667000D3*
D21*
Y3429000D3*
D50*
X555627Y4445000D3*
Y4191000D3*
Y3937000D3*
Y3683000D3*
Y3429000D3*
Y3175000D3*
Y2921000D3*
Y2667000D3*
Y2413000D3*
Y2159000D3*
Y1905000D3*
Y1651000D3*
Y1397000D3*
Y1143000D3*
X3101450Y4582000D3*
X2857550D3*
X3302050D3*
D21*
X3556050D3*
D39*
X2526750Y4843000D3*
X3886750D3*
D50*
X730250Y5079998D3*
X984250D3*
X1238250D3*
X1492250D3*
X1746250D3*
X2000250D3*
G36*
X7258000Y1399250D2*
X8948000D1*
Y859250D1*
X7258000D1*
Y1399250D1*
G37*
G36*
X17645434Y952500D2*
X17641038Y952012D1*
X17637618Y951523D1*
X17630780Y950058D1*
X17628826Y949569D1*
X17623942Y948104D1*
X17620034Y946638D1*
X17615149Y944684D1*
X17606357Y940288D1*
X17603915Y938823D1*
X17596588Y933938D1*
X17594145Y931984D1*
X17592192Y930519D1*
X17589261Y928077D1*
X17579003Y917819D1*
X17576561Y914888D1*
X17574607Y912445D1*
X17571676Y908538D1*
X17570699Y907072D1*
X17570211Y906095D1*
X17569234Y904630D1*
X17567768Y901699D1*
X17566792Y900234D1*
X17565326Y897303D1*
X17564349Y895838D1*
X17562884Y892907D1*
X17561907Y891441D1*
X17560442Y888510D1*
X17559465Y887045D1*
X17557999Y884114D1*
X17557022Y882649D1*
X17555068Y878741D1*
X17554092Y877276D1*
X17552626Y874345D1*
X17551649Y872879D1*
X17550184Y869949D1*
X17549207Y868483D1*
X17547742Y865552D1*
X17546765Y864087D1*
X17545299Y861156D1*
X17544322Y859691D1*
X17542857Y856760D1*
X17541880Y855295D1*
X17540415Y852364D1*
X17539438Y850898D1*
X17537972Y847968D1*
X17536995Y846502D1*
X17535530Y843571D1*
X17534553Y842106D1*
X17533088Y839175D1*
X17532111Y837710D1*
X17530645Y834779D1*
X17529668Y833313D1*
X17528203Y830383D1*
X17527226Y828917D1*
X17525761Y825986D1*
X17524784Y824521D1*
X17523318Y821590D1*
X17522342Y820125D1*
X17520876Y817194D1*
X17519899Y815729D1*
X17518434Y812798D1*
X17517457Y811332D1*
X17515992Y808401D1*
X17515015Y806936D1*
X17513549Y804005D1*
X17512572Y802540D1*
X17511107Y799609D1*
X17510130Y798144D1*
X17508665Y795213D1*
X17507688Y793747D1*
X17506222Y790817D1*
X17505245Y789351D1*
X17503780Y786420D1*
X17502803Y784955D1*
X17501338Y782024D1*
X17500361Y780559D1*
X17498895Y777628D1*
X17497918Y776162D1*
X17496453Y773232D1*
X17495476Y771766D1*
X17494011Y768835D1*
X17493034Y767370D1*
X17491568Y764439D1*
X17490592Y762974D1*
X17489126Y760043D1*
X17488149Y758578D1*
X17486684Y755647D1*
X17485707Y754181D1*
X17484242Y751251D1*
X17483265Y749785D1*
X17481799Y746854D1*
X17480822Y745389D1*
X17479357Y742458D1*
X17478380Y740993D1*
X17476915Y738062D1*
X17475938Y736596D1*
X17474961Y734643D1*
Y733666D1*
X17475449Y733177D1*
X17477892Y731712D1*
X17483265Y728781D1*
X17487661Y726339D1*
X17493034Y723408D1*
X17497430Y720965D1*
X17502803Y718035D1*
X17507199Y715592D1*
X17512572Y712661D1*
X17516968Y710219D1*
X17522342Y707288D1*
X17526738Y704846D1*
X17532111Y701915D1*
X17536507Y699473D1*
X17541880Y696542D1*
X17546276Y694100D1*
X17551649Y691169D1*
X17556045Y688726D1*
X17566792Y682865D1*
X17571188Y680422D1*
X17576561Y677492D1*
X17580957Y675049D1*
X17586330Y672118D1*
X17590726Y669676D1*
X17596099Y666745D1*
X17600495Y664303D1*
X17605868Y661372D1*
X17610265Y658930D1*
X17615638Y655999D1*
X17620034Y653557D1*
X17625407Y650626D1*
X17629803Y648183D1*
X17635176Y645253D1*
X17639572Y642810D1*
X17644945Y639879D1*
X17649342Y637437D1*
X17654715Y634506D1*
X17659111Y632064D1*
X17664484Y629133D1*
X17668880Y626691D1*
X17669857Y626202D1*
X17670834D1*
X17671811Y628156D1*
X17672788Y629622D1*
X17674253Y632552D1*
X17675230Y634018D1*
X17676695Y636949D1*
X17677672Y638414D1*
X17679138Y641345D1*
X17680115Y642810D1*
X17681580Y645741D1*
X17682557Y647207D1*
X17684022Y650137D1*
X17684999Y651603D1*
X17686465Y654534D1*
X17687442Y655999D1*
X17688907Y658930D1*
X17689884Y660395D1*
X17691349Y663326D1*
X17692326Y664791D1*
X17693792Y667722D1*
X17694768Y669188D1*
X17696234Y672118D1*
X17697211Y673584D1*
X17698676Y676515D1*
X17699653Y677980D1*
X17701118Y680911D1*
X17702095Y682376D1*
X17703561Y685307D1*
X17704538Y686773D1*
X17706003Y689703D1*
X17706980Y691169D1*
X17708445Y694100D1*
X17709422Y695565D1*
X17710888Y698496D1*
X17711865Y699961D1*
X17713330Y702892D1*
X17714307Y704357D1*
X17715772Y707288D1*
X17716749Y708754D1*
X17718215Y711685D1*
X17719192Y713150D1*
X17720657Y716081D1*
X17721634Y717546D1*
X17723099Y720477D1*
X17724076Y721942D1*
X17725542Y724873D1*
X17726518Y726339D1*
X17727984Y729269D1*
X17728961Y730735D1*
X17730426Y733666D1*
X17731403Y735131D1*
X17732868Y738062D1*
X17733845Y739527D1*
X17735311Y742458D1*
X17736288Y743923D1*
X17737753Y746854D1*
X17738730Y748320D1*
X17740195Y751251D1*
X17741172Y752716D1*
X17742638Y755647D1*
X17743615Y757112D1*
X17745080Y760043D1*
X17746057Y761508D1*
X17747522Y764439D1*
X17748499Y765905D1*
X17749965Y768835D1*
X17750942Y770301D1*
X17752407Y773232D1*
X17753384Y774697D1*
X17754849Y777628D1*
X17755826Y779093D1*
X17757292Y782024D1*
X17758268Y783490D1*
X17759734Y786420D1*
X17760711Y787886D1*
X17762176Y790817D1*
X17763153Y792282D1*
X17764618Y795213D1*
X17765595Y796678D1*
X17767061Y799609D1*
X17768038Y801074D1*
X17769503Y804005D1*
X17770480Y805471D1*
X17771945Y808401D1*
X17772922Y809867D1*
X17774388Y812798D1*
X17775365Y814263D1*
X17776830Y817194D1*
X17777807Y818659D1*
X17779272Y821590D1*
X17780249Y823056D1*
X17781715Y825986D1*
X17782692Y827452D1*
X17784157Y830383D1*
X17785134Y831848D1*
X17786599Y834779D1*
X17787576Y836244D1*
X17788065Y837221D1*
X17788144Y837599D1*
X17788444Y837999D1*
X17788679Y837976D1*
X17788954Y837578D1*
X17789042Y837221D1*
X17790018Y835756D1*
X17790507Y834779D1*
X17791484Y833313D1*
X17791972Y832336D1*
X17792949Y830871D1*
X17793926Y828917D1*
X17794903Y827452D1*
X17795392Y826475D1*
X17796368Y825009D1*
X17796857Y824033D1*
X17797834Y822567D1*
X17798811Y820613D1*
X17799788Y819148D1*
X17800276Y818171D1*
X17801253Y816705D1*
X17801742Y815729D1*
X17802718Y814263D1*
X17803695Y812309D1*
X17804672Y810844D1*
X17805161Y809867D1*
X17806138Y808401D1*
X17806626Y807425D1*
X17807603Y805959D1*
X17808092Y804982D1*
X17809068Y803517D1*
X17810045Y801563D1*
X17811022Y800097D1*
X17811511Y799121D1*
X17812488Y797655D1*
X17812976Y796678D1*
X17813953Y795213D1*
X17814930Y793259D1*
X17815907Y791794D1*
X17816395Y790817D1*
X17817372Y789351D1*
X17817861Y788374D1*
X17818838Y786909D1*
X17819815Y784955D1*
X17820792Y783490D1*
X17821280Y782513D1*
X17822257Y781047D1*
X17822745Y780070D1*
X17823722Y778605D1*
X17824211Y777628D1*
X17825188Y776162D1*
X17826165Y774209D1*
X17827142Y772743D1*
X17827630Y771766D1*
X17828607Y770301D1*
X17829095Y769324D1*
X17830072Y767859D1*
X17831049Y765905D1*
X17832026Y764439D1*
X17832515Y763462D1*
X17833492Y761997D1*
X17833980Y761020D1*
X17834957Y759555D1*
X17835934Y757601D1*
X17836911Y756135D1*
X17837399Y755158D1*
X17838376Y753693D1*
X17838865Y752716D1*
X17839842Y751251D1*
X17840818Y749297D1*
X17841795Y747831D1*
X17842284Y746854D1*
X17843261Y745389D1*
X17843749Y744412D1*
X17844726Y742947D1*
X17845215Y741970D1*
X17846192Y740504D1*
X17847168Y738550D1*
X17848145Y737085D1*
X17848634Y736108D1*
X17849611Y734643D1*
X17850099Y733666D1*
X17851076Y732200D1*
X17852053Y730246D1*
X17853030Y728781D1*
X17853518Y727804D1*
X17854495Y726339D1*
X17854984Y725362D1*
X17855961Y723896D1*
X17856938Y721942D1*
X17857915Y720477D1*
X17858403Y719500D1*
X17859380Y718035D1*
X17859868Y717058D1*
X17860845Y715592D1*
X17861334Y714615D1*
X17862311Y713150D1*
X17863288Y711196D1*
X17864265Y709731D1*
X17864753Y708754D1*
X17865730Y707288D1*
X17866218Y706311D1*
X17866612Y705681D1*
X17866707Y705334D1*
X17864753Y704357D1*
X17827142Y682865D1*
X17822745Y680422D1*
X17781715Y656976D1*
X17780738Y655999D1*
X17782203D1*
X17792461Y656487D1*
X18011780Y667234D1*
X18012268Y667722D1*
X18013245Y669676D1*
X18014222Y671142D1*
X18015688Y674072D1*
X18016665Y675538D1*
X18018618Y679446D1*
X18019595Y680911D1*
X18021061Y683842D1*
X18022038Y685307D1*
X18023503Y688238D1*
X18024480Y689703D1*
X18025945Y692634D1*
X18026922Y694100D1*
X18028388Y697030D1*
X18029365Y698496D1*
X18030830Y701427D1*
X18031807Y702892D1*
X18033761Y706800D1*
X18034738Y708265D1*
X18036203Y711196D1*
X18037180Y712661D1*
X18038645Y715592D1*
X18039622Y717058D1*
X18041088Y719988D1*
X18042065Y721454D1*
X18043530Y724385D1*
X18044507Y725850D1*
X18045972Y728781D1*
X18046949Y730246D1*
X18048415Y733177D1*
X18049392Y734643D1*
X18051345Y738550D1*
X18052322Y740016D1*
X18053788Y742947D1*
X18054765Y744412D1*
X18056230Y747343D1*
X18057207Y748808D1*
X18058672Y751739D1*
X18059649Y753204D1*
X18061115Y756135D1*
X18062092Y757601D1*
X18063557Y760531D1*
X18064534Y761997D1*
X18066488Y765905D1*
X18067465Y767370D1*
X18068930Y770301D1*
X18069907Y771766D1*
X18071372Y774697D1*
X18072349Y776162D1*
X18073815Y779093D1*
X18074792Y780559D1*
X18076257Y783490D1*
X18077234Y784955D1*
X18078699Y787886D1*
X18079676Y789351D1*
X18081630Y793259D1*
X18082607Y794724D1*
X18084072Y797655D1*
X18085049Y799121D1*
X18086515Y802051D1*
X18087492Y803517D1*
X18088957Y806448D1*
X18089934Y807913D1*
X18091399Y810844D1*
X18092376Y812309D1*
X18093842Y815240D1*
X18094818Y816705D1*
X18096772Y820613D1*
X18097749Y822079D1*
X18099215Y825009D1*
X18100192Y826475D1*
X18101657Y829406D1*
X18102634Y830871D1*
X18104099Y833802D1*
X18105076Y835267D1*
X18106542Y838198D1*
X18107518Y839664D1*
X18108984Y842594D1*
X18109961Y844060D1*
X18111426Y846991D1*
X18112403Y848456D1*
X18114357Y852364D1*
X18115334Y853829D1*
X18116799Y856760D1*
X18117776Y858225D1*
X18118265Y859202D1*
X18117776D1*
X18114845Y857737D1*
X18111426Y855783D1*
X18108984Y854318D1*
X18105565Y852364D1*
X18103122Y850898D1*
X18096284Y846991D1*
X18093842Y845525D1*
X18090422Y843571D1*
X18087980Y842106D1*
X18081142Y838198D1*
X18078699Y836733D1*
X18075280Y834779D1*
X18072838Y833313D1*
X18065999Y829406D1*
X18063557Y827940D1*
X18060138Y825986D1*
X18057695Y824521D1*
X18050857Y820613D1*
X18048415Y819148D1*
X18044995Y817194D1*
X18044018Y816217D1*
X18043530D1*
X18042553Y817194D1*
Y817682D1*
X18042065Y818659D1*
X18041088Y820125D1*
X18040599Y821102D1*
X18039622Y822567D1*
X18039134Y823544D1*
X18038157Y825009D1*
X18037180Y826963D1*
X18036203Y828429D1*
X18035715Y829406D1*
X18034738Y830871D1*
X18034249Y831848D1*
X18033272Y833313D1*
X18032295Y835267D1*
X18031318Y836733D1*
X18030830Y837710D1*
X18029853Y839175D1*
X18029365Y840152D1*
X18028388Y841617D1*
X18027411Y843571D1*
X18026434Y845037D1*
X18025945Y846014D1*
X18024968Y847479D1*
X18023992Y849433D1*
X18023015Y850898D1*
X18022526Y851875D1*
X18021549Y853341D1*
X18021061Y854318D1*
X18020084Y855783D1*
X18019107Y857737D1*
X18018130Y859202D1*
X18017642Y860179D1*
X18016665Y861645D1*
X18016176Y862622D1*
X18015199Y864087D1*
X18014222Y866041D1*
X18013245Y867506D1*
X18012757Y868483D1*
X18011780Y869949D1*
X18011292Y870926D1*
X18010315Y872391D1*
X18009338Y874345D1*
X18008361Y875810D1*
X18007872Y876787D1*
X18006895Y878253D1*
X18006407Y879230D1*
X18005430Y880695D1*
X18004453Y882649D1*
X18003476Y884114D1*
X18002988Y885091D1*
X18002011Y886557D1*
X18001522Y887534D1*
X18000545Y888999D1*
X17999568Y890953D1*
X17998592Y892418D1*
X17998103Y893395D1*
X17997126Y894861D1*
X17996638Y895838D1*
X17995661Y897303D1*
X17994684Y899257D1*
X17993707Y900722D1*
X17993218Y901699D1*
X17992242Y903165D1*
X17991753Y904142D1*
X17990776Y905607D1*
X17989799Y907561D1*
X17988822Y909026D1*
X17988334Y910003D1*
X17987357Y911469D1*
X17986380Y913422D1*
X17982472Y919284D1*
X17980518Y921726D1*
X17976611Y926123D1*
X17971238Y931007D1*
X17967330Y933938D1*
X17964888Y935404D1*
X17963422Y936381D1*
X17954630Y940777D1*
X17952188Y941754D1*
X17950722Y942242D1*
X17933138Y946150D1*
X17930695Y946638D1*
X17906761Y947127D1*
X17679138Y949569D1*
X17676207Y950058D1*
X17673765Y950546D1*
X17662530Y952500D1*
X17645434D1*
G37*
G36*
X18131942Y677492D2*
X18131453Y677003D1*
X18128522Y675538D1*
X18121684Y671630D1*
X18119242Y670165D1*
X18108984Y664303D1*
X18106542Y662838D1*
X18096284Y656976D1*
X18093842Y655511D1*
X18083584Y649649D1*
X18081142Y648183D1*
X18070884Y642322D1*
X18068442Y640856D1*
X18058184Y634995D1*
X18055742Y633529D1*
X18045484Y627668D1*
X18043042Y626202D1*
X18032784Y620341D1*
X18030342Y618875D1*
X18020084Y613014D1*
X18017642Y611548D1*
X18007384Y605687D1*
X18004942Y604221D1*
X17994684Y598360D1*
X17992242Y596894D1*
X17981984Y591033D1*
X17979542Y589567D1*
X17969284Y583705D1*
X17966842Y582240D1*
X17956584Y576378D1*
X17954142Y574913D1*
X17943884Y569051D1*
X17938999Y566121D1*
X17938511Y565632D1*
X17939488Y564167D1*
X17940465Y562213D1*
X17941442Y560747D1*
X17942418Y558794D1*
X17943395Y557328D1*
X17944372Y555374D1*
X17945349Y553909D1*
X17945838Y552932D1*
X17946815Y551466D1*
X17947792Y549513D1*
X17948768Y548047D1*
X17949745Y546093D1*
X17950722Y544628D1*
X17951699Y542674D1*
X17952676Y541209D1*
X17953653Y539255D1*
X17954630Y537789D1*
X17955607Y535835D1*
X17956584Y534370D1*
X17957072Y533393D1*
X17958049Y531928D1*
X17959026Y529974D1*
X17960003Y528508D1*
X17960980Y526555D1*
X17961957Y525089D1*
X17962934Y523135D1*
X17963911Y521670D1*
X17964888Y519716D1*
X17965865Y518251D1*
X17966842Y516297D1*
X17967818Y514831D1*
X17968307Y513854D1*
X17969284Y512389D1*
X17970261Y510435D1*
X17971238Y508970D1*
X17972215Y507016D1*
X17973192Y505550D1*
X17974168Y503596D1*
X17975145Y502131D1*
X17976122Y500177D1*
X17977099Y498712D1*
X17978076Y496758D1*
X17979053Y495292D1*
X17979542Y494316D1*
X17980518Y492850D1*
X17981495Y490896D1*
X17982472Y489431D1*
X17983449Y487477D1*
X17984426Y486012D1*
X17985403Y484058D1*
X17986380Y482592D1*
X17987357Y480638D1*
X17988334Y479173D1*
X17989311Y477219D1*
X17990288Y475754D1*
X17990776Y474777D1*
X17991753Y473311D1*
X17992730Y471357D1*
X17993707Y469892D1*
X17994684Y467938D1*
X17995661Y466473D1*
X17996638Y464519D1*
X17997615Y463054D1*
X17998592Y461100D1*
X17999568Y459634D1*
X18000545Y457680D1*
X18001522Y456215D1*
X18002011Y455238D1*
X18002988Y453773D1*
X18003965Y451819D1*
X18004942Y450353D1*
X18005918Y448399D1*
X18006895Y446934D1*
X18007872Y444980D1*
X18008849Y443515D1*
X18009826Y441561D1*
X18010803Y440095D1*
X18011780Y438142D1*
X18012757Y436676D1*
X18013245Y435699D1*
X18014222Y434234D1*
X18015199Y432280D1*
X18016176Y430815D1*
X18017153Y428861D1*
X18018130Y427395D1*
X18019107Y425441D1*
X18020084Y423976D1*
X18021061Y422022D1*
X18022038Y420557D1*
X18023015Y418603D1*
X18023992Y417137D1*
X18024480Y416160D1*
X18025457Y414695D1*
X18026434Y412741D1*
X18027411Y411276D1*
X18028388Y409322D1*
X18029365Y407856D1*
X18030342Y405903D1*
X18031318Y404437D1*
X18032295Y402483D1*
X18033272Y401018D1*
X18034249Y399064D1*
X18035226Y397599D1*
X18035715Y396622D1*
X18036692Y395156D1*
X18037668Y393202D1*
X18038645Y391737D1*
X18039622Y389783D1*
X18040599Y388318D1*
X18041576Y386364D1*
X18042553Y384898D1*
X18043530Y382944D1*
X18044507Y381479D1*
X18045484Y379525D1*
X18046461Y378060D1*
X18046949Y377083D1*
X18047926Y375617D1*
X18048903Y373664D1*
X18049880Y372198D1*
X18050857Y370244D1*
X18051834Y368779D1*
X18052811Y366825D1*
X18053788Y365360D1*
X18054765Y363406D1*
X18055742Y361940D1*
X18056718Y359986D1*
X18057695Y358521D1*
X18058184Y357544D1*
X18059161Y356567D1*
Y356079D1*
X18053950Y355590D1*
X18048740D1*
X18043530Y356079D1*
X17919949Y357056D1*
X17904807Y357544D1*
Y369267D1*
X17905295Y369756D1*
X17907249Y449376D1*
Y456215D1*
X17906761Y455726D1*
X17904318Y450842D1*
X17903342Y449376D1*
X17901388Y445469D1*
X17900411Y444003D1*
X17897968Y439118D1*
X17896992Y437653D1*
X17894549Y432768D1*
X17893572Y431303D1*
X17891618Y427395D1*
X17890642Y425930D1*
X17888199Y421045D1*
X17887222Y419580D1*
X17884780Y414695D1*
X17883803Y413230D1*
X17881849Y409322D1*
X17880872Y407856D1*
X17878430Y402972D1*
X17877453Y401506D1*
X17875011Y396622D1*
X17874034Y395156D1*
X17872080Y391248D1*
X17871103Y389783D1*
X17868661Y384898D1*
X17867684Y383433D1*
X17865242Y378548D1*
X17864265Y377083D1*
X17861822Y372198D1*
X17860845Y370733D1*
X17858892Y366825D1*
X17857915Y365360D1*
X17855472Y360475D1*
X17854495Y359009D1*
X17852053Y354125D1*
X17851076Y352659D1*
X17849122Y348752D1*
X17848145Y347286D1*
X17845703Y342402D1*
X17844726Y340936D1*
X17842284Y336051D1*
X17841307Y334586D1*
X17839353Y330678D1*
X17838376Y329213D1*
X17835934Y324328D1*
X17834957Y322863D1*
X17832515Y317978D1*
X17831538Y316513D1*
X17829584Y312605D1*
X17828607Y311139D1*
X17826165Y306255D1*
X17825188Y304789D1*
X17822745Y299905D1*
X17821768Y298439D1*
X17819815Y294532D1*
X17818838Y293066D1*
X17816395Y288181D1*
X17815418Y286716D1*
X17812976Y281831D1*
X17811999Y280366D1*
X17809557Y275481D1*
X17808580Y274016D1*
X17806626Y270108D1*
X17805649Y268643D1*
X17803207Y263758D1*
X17802230Y262293D1*
X17799788Y257408D1*
X17798811Y255942D1*
X17797345Y253012D1*
Y251546D1*
X17798322Y250081D1*
X17799299Y248127D1*
X17800276Y246661D1*
X17801253Y244708D1*
X17802230Y243242D1*
X17803207Y241288D1*
X17804184Y239823D1*
X17805161Y237869D1*
X17806138Y236404D1*
X17806626Y235427D1*
X17807603Y233961D1*
X17808580Y232007D1*
X17809557Y230542D1*
X17810534Y228588D1*
X17811511Y227123D1*
X17812488Y225169D1*
X17813465Y223703D1*
X17814442Y221750D1*
X17815418Y220284D1*
X17815907Y219307D1*
X17816884Y217842D1*
X17817861Y215888D1*
X17818838Y214423D1*
X17819815Y212469D1*
X17820792Y211003D1*
X17821768Y209049D1*
X17822745Y207584D1*
X17823722Y205630D1*
X17824699Y204165D1*
X17825676Y202211D1*
X17826653Y200745D1*
X17827142Y199768D1*
X17828118Y198303D1*
X17829095Y196349D1*
X17830072Y194884D1*
X17831049Y192930D1*
X17832026Y191464D1*
X17833003Y189511D1*
X17833980Y188045D1*
X17834957Y186091D1*
X17835934Y184626D1*
X17836911Y182672D1*
X17837888Y181207D1*
X17838376Y180230D1*
X17839353Y178764D1*
X17840330Y176810D1*
X17841307Y175345D1*
X17842284Y173391D1*
X17843261Y171926D1*
X17844238Y169972D1*
X17845215Y168506D1*
X17846192Y166552D1*
X17847168Y165087D1*
X17847657Y164110D1*
X17848634Y162645D1*
X17849611Y160691D1*
X17850588Y159225D1*
X17851565Y157272D1*
X17852542Y155806D1*
X17853518Y153852D1*
X17854495Y152387D1*
X17855472Y150433D1*
X17856449Y148968D1*
X17857426Y147014D1*
X17858403Y145548D1*
X17858892Y144571D1*
X17859868Y143106D1*
X17860845Y141152D1*
X17861822Y139687D1*
X17862799Y137733D1*
X17863776Y136267D1*
X17864753Y134313D1*
X17865730Y132848D1*
X17866707Y130894D1*
X17867684Y129429D1*
X17868172Y128452D1*
X17869149Y126986D1*
X17870126Y125033D1*
X17871103Y123567D1*
X17872080Y121613D1*
X17873057Y120148D1*
X17874034Y118194D1*
X17875011Y116729D1*
X17875988Y114775D1*
X17876965Y113309D1*
X17877942Y111355D1*
X17878918Y109890D1*
X17879407Y108913D1*
X17880384Y107448D1*
X17881361Y105494D1*
X17882338Y104028D1*
X17883315Y102075D1*
X17884292Y100609D1*
X17885268Y98655D1*
X17886245Y97190D1*
X17887222Y95236D1*
X17888199Y93771D1*
X17889176Y91817D1*
X17890153Y90351D1*
X17890642Y89374D1*
X17891618Y87909D1*
X17892595Y85955D1*
X17893572Y84490D1*
X17894549Y82536D1*
X17895526Y81070D1*
X17896503Y79116D1*
X17897480Y77651D1*
X17898457Y75697D1*
X17899434Y74232D1*
X17899922Y73255D1*
X17900899Y71789D1*
X17901876Y69836D1*
X17902853Y68370D1*
X17903830Y66416D1*
X17904807Y64951D1*
X17905784Y62997D1*
X17906761Y62020D1*
X17907249Y87420D1*
X17908226Y145060D1*
Y147991D1*
X17914576Y148479D1*
X17920926D1*
X17927276Y147991D1*
X18001522Y147014D1*
X18026434D1*
X18030342Y147502D1*
X18033272Y147991D1*
X18037180Y148968D1*
X18045972Y151898D1*
X18054765Y156295D1*
X18057207Y157760D1*
X18060138Y159714D1*
X18064045Y162645D1*
X18066488Y164599D1*
X18075280Y173391D1*
X18077234Y175833D1*
X18080165Y180230D1*
X18080653Y181207D1*
X18082607Y184137D1*
X18083095Y185114D1*
X18086026Y189511D1*
X18086515Y190487D1*
X18088468Y193418D1*
X18088957Y194395D1*
X18090911Y197326D1*
X18091399Y198303D1*
X18094330Y202699D1*
X18094818Y203676D1*
X18096772Y206607D1*
X18097261Y207584D1*
X18100192Y211980D1*
X18100680Y212957D1*
X18102634Y215888D1*
X18103122Y216865D1*
X18106053Y221261D1*
X18106542Y222238D1*
X18108495Y225169D1*
X18108984Y226146D1*
X18110938Y229077D1*
X18111426Y230054D1*
X18114357Y234450D1*
X18114845Y235427D1*
X18116799Y238358D1*
X18117288Y239334D1*
X18120218Y243731D1*
X18120707Y244708D1*
X18122661Y247638D1*
X18123149Y248615D1*
X18125103Y251546D1*
X18125592Y252523D1*
X18128522Y256919D1*
X18129011Y257896D1*
X18130965Y260827D1*
X18131453Y261804D1*
X18134384Y266200D1*
X18134872Y267177D1*
X18136826Y270108D1*
X18137315Y271085D1*
X18140245Y275481D1*
X18140734Y276458D1*
X18142688Y279389D1*
X18143176Y280366D1*
X18145130Y283297D1*
X18145618Y284274D1*
X18148549Y288670D1*
X18149038Y289647D1*
X18150992Y292578D1*
X18151480Y293555D1*
X18154411Y297951D1*
X18154899Y298928D1*
X18156853Y301859D1*
X18157342Y302835D1*
X18160272Y307232D1*
X18160761Y308209D1*
X18162715Y311139D1*
X18163203Y312116D1*
X18165157Y315047D1*
X18165645Y316024D1*
X18168576Y320420D1*
X18169065Y321397D1*
X18171018Y324328D1*
X18171507Y325305D1*
X18174438Y329701D1*
X18174926Y330678D1*
X18176880Y333609D1*
X18177368Y334586D1*
X18179322Y337517D1*
X18179811Y338494D1*
X18182742Y342890D1*
X18183230Y343867D1*
X18185184Y346798D1*
X18185672Y347775D1*
X18188603Y352171D1*
X18189092Y353148D1*
X18191045Y356079D1*
X18191534Y357056D1*
X18194465Y361452D1*
X18194953Y362429D1*
X18196907Y365360D1*
X18197395Y366337D1*
X18199349Y369267D1*
X18199838Y370244D1*
X18202768Y374641D1*
X18203257Y375617D1*
X18205211Y378548D1*
X18205699Y379525D1*
X18208630Y383921D1*
X18209118Y384898D1*
X18212049Y389295D1*
X18214980Y392714D1*
X18217911Y396622D1*
X18220842Y401018D1*
X18221330Y401995D1*
X18222307Y403460D1*
X18222795Y404437D1*
X18225726Y408833D1*
X18226215Y409810D1*
X18227192Y411276D1*
X18229145Y415183D1*
X18230122Y416649D1*
X18230611Y417626D1*
X18231099Y419091D1*
X18233053Y422999D1*
X18233542Y424464D1*
X18234030Y425441D1*
X18235007Y428372D1*
X18235495Y429349D1*
X18235984Y430815D1*
X18236472Y432768D1*
X18237449Y435699D1*
X18238426Y439607D1*
X18238915Y442049D1*
X18239892Y447911D1*
X18240380Y452796D1*
Y467938D1*
X18239892Y472823D1*
X18239403Y476242D1*
X18238426Y482104D1*
X18237938Y484058D1*
X18237449Y486500D1*
X18236961Y488454D1*
X18235984Y491385D1*
X18235495Y493339D1*
X18234518Y496269D1*
X18234030Y497246D1*
X18233542Y498712D1*
X18233053Y499689D1*
X18232565Y501154D1*
X18232076Y502131D1*
X18231588Y503596D1*
X18230122Y506527D1*
X18229145Y507993D1*
X18228168Y509947D1*
X18227192Y511412D1*
X18226215Y513366D1*
X18225238Y514831D1*
X18224261Y516785D1*
X18223284Y518251D1*
X18222307Y520204D1*
X18221330Y521670D1*
X18220353Y523624D1*
X18219376Y525089D1*
X18218399Y527043D1*
X18217422Y528508D1*
X18216445Y530462D1*
X18215468Y531928D1*
X18214492Y533882D1*
X18213515Y535347D1*
X18212538Y537301D1*
X18211561Y538766D1*
X18210584Y540720D1*
X18209607Y542186D1*
X18208630Y544139D1*
X18207653Y545605D1*
X18206676Y547559D1*
X18205699Y549024D1*
X18204722Y550978D1*
X18203745Y552443D1*
X18202768Y554397D1*
X18201792Y555863D1*
X18200815Y557817D1*
X18199838Y559282D1*
X18198861Y561236D1*
X18197884Y562701D1*
X18196907Y564655D1*
X18195930Y566121D1*
X18194953Y568074D1*
X18193976Y569540D1*
X18192999Y571494D1*
X18192022Y572959D1*
X18191045Y574913D1*
X18190068Y576378D1*
X18189092Y578332D1*
X18188115Y579798D1*
X18187138Y581752D1*
X18186161Y583217D1*
X18185184Y585171D1*
X18184207Y586636D1*
X18183230Y588590D1*
X18182253Y590056D1*
X18181765Y591033D1*
X18180788Y592498D1*
X18179811Y594452D1*
X18178834Y595917D1*
X18177857Y597871D1*
X18176880Y599337D1*
X18175903Y601290D1*
X18174926Y602756D1*
X18173949Y604710D1*
X18172972Y606175D1*
X18171995Y608129D1*
X18171018Y609594D1*
X18170042Y611548D1*
X18169065Y613014D1*
X18168088Y614968D1*
X18167111Y616433D1*
X18166134Y618387D1*
X18165157Y619852D1*
X18164180Y621806D1*
X18163203Y623272D1*
X18162226Y625225D1*
X18161249Y626691D1*
X18160272Y628645D1*
X18159295Y630110D1*
X18158318Y632064D1*
X18157342Y633529D1*
X18156365Y635483D1*
X18155388Y636949D1*
X18154411Y638903D1*
X18153434Y640368D1*
X18152457Y642322D1*
X18151480Y643787D1*
X18150503Y645741D1*
X18149526Y647207D1*
X18148549Y649160D1*
X18147572Y650626D1*
X18146595Y652580D1*
X18145618Y654045D1*
X18144642Y655999D1*
X18143665Y657464D1*
X18142688Y659418D1*
X18141711Y660884D1*
X18140734Y662838D1*
X18139757Y664303D1*
X18138780Y666257D1*
X18137803Y667722D1*
X18136826Y669676D1*
X18135849Y671142D1*
X18134872Y673095D1*
X18133895Y674561D1*
X18132918Y676515D1*
X18131942Y677492D1*
G37*
G36*
X17319630Y642322D2*
X17320118Y641833D1*
X17321584Y640856D1*
X17328911Y636460D1*
X17332330Y634506D1*
X17349426Y624248D1*
X17352845Y622295D1*
X17367499Y613502D1*
X17370918Y611548D1*
X17385572Y602756D1*
X17388992Y600802D1*
X17391434Y599337D1*
X17393388Y598360D1*
X17393876Y597871D1*
Y596894D1*
X17392899Y595917D1*
X17392411Y594940D1*
X17391434Y593475D1*
X17390945Y592498D1*
X17389968Y591033D1*
X17388992Y589079D1*
X17388015Y587613D1*
X17387526Y586636D1*
X17386549Y585171D1*
X17386061Y584194D1*
X17385084Y582729D1*
X17384595Y581752D1*
X17383618Y580286D1*
X17383130Y579309D1*
X17382153Y577844D1*
X17381176Y575890D1*
X17380199Y574425D1*
X17379711Y573448D1*
X17378734Y571982D1*
X17378245Y571005D1*
X17377268Y569540D1*
X17376780Y568563D1*
X17375803Y567098D1*
X17375315Y566121D1*
X17374338Y564655D1*
X17373361Y562701D1*
X17372384Y561236D1*
X17371895Y560259D1*
X17370918Y558794D1*
X17370430Y557817D1*
X17369453Y556351D1*
X17368965Y555374D1*
X17367988Y553909D1*
X17367499Y552932D1*
X17366522Y551466D1*
X17365545Y549513D1*
X17364568Y548047D1*
X17364080Y547070D1*
X17363103Y545605D1*
X17362615Y544628D1*
X17361638Y543163D1*
X17361149Y542186D1*
X17360172Y540720D1*
X17359684Y539743D1*
X17358707Y538278D1*
X17357730Y536324D1*
X17356753Y534859D1*
X17356265Y533882D1*
X17355288Y532416D1*
X17354799Y531439D1*
X17353822Y529974D1*
X17353334Y528997D1*
X17352357Y527531D1*
X17351868Y526555D1*
X17350892Y525089D1*
X17349915Y523135D1*
X17348938Y521670D1*
X17348449Y520693D1*
X17347472Y519228D1*
X17346984Y518251D1*
X17346007Y516785D1*
X17345518Y515808D1*
X17344542Y514343D1*
X17344053Y513366D1*
X17343076Y511900D1*
X17342099Y509947D1*
X17341122Y508481D1*
X17340634Y507504D1*
X17339657Y506039D1*
X17339168Y505062D1*
X17338192Y503596D1*
X17337703Y502620D1*
X17336726Y501154D1*
X17336238Y500177D1*
X17335261Y498712D1*
X17333307Y494804D1*
X17332818Y493339D1*
X17331842Y491385D1*
X17329399Y484058D1*
X17328911Y482104D1*
X17328422Y479661D1*
X17327934Y476242D1*
X17327445Y470869D1*
Y465007D1*
X17327934Y459146D1*
X17328422Y455726D1*
X17328911Y452796D1*
X17329399Y450353D1*
X17330376Y446446D1*
X17332818Y439118D1*
X17337215Y430326D1*
X17338192Y428861D1*
X17341122Y422999D1*
X17342099Y421534D1*
X17345030Y415672D1*
X17346007Y414207D1*
X17349426Y407368D1*
X17350403Y405903D1*
X17353334Y400041D1*
X17354311Y398576D1*
X17357730Y391737D1*
X17358707Y390272D1*
X17361638Y384410D1*
X17362615Y382944D1*
X17365545Y377083D1*
X17366522Y375617D1*
X17369942Y368779D1*
X17370918Y367313D1*
X17373849Y361452D1*
X17374826Y359986D1*
X17378245Y353148D1*
X17379222Y351682D1*
X17382153Y345821D1*
X17383130Y344355D1*
X17386061Y338494D1*
X17387038Y337028D1*
X17390457Y330190D1*
X17391434Y328724D1*
X17394365Y322863D1*
X17395342Y321397D1*
X17398272Y315536D1*
X17399249Y314070D1*
X17402668Y307232D1*
X17403645Y305766D1*
X17406576Y299905D1*
X17407553Y298439D1*
X17410972Y291601D1*
X17411949Y290135D1*
X17414880Y284274D1*
X17415857Y282808D1*
X17418788Y276947D1*
X17419765Y275481D1*
X17423184Y268643D1*
X17424161Y267177D1*
X17427092Y261316D1*
X17428068Y259850D1*
X17431488Y253012D1*
X17432465Y251546D1*
X17435395Y245685D1*
X17436372Y244219D1*
X17439303Y238358D1*
X17440280Y236892D1*
X17443699Y230054D1*
X17444676Y228588D1*
X17447607Y222726D1*
X17448584Y221261D1*
X17452492Y213446D1*
X17453957Y209049D1*
X17454445Y208072D1*
X17454934Y206607D1*
X17461772Y192930D1*
X17462749Y191464D1*
X17463726Y189511D1*
X17464703Y188045D1*
X17465192Y187068D1*
X17469099Y181207D1*
X17470565Y179253D1*
X17474472Y174368D1*
X17484242Y164599D1*
X17487172Y162156D1*
X17488638Y161179D1*
X17491080Y159225D1*
X17495476Y156295D1*
X17500361Y153364D1*
X17508176Y149456D1*
X17515503Y146525D1*
X17524295Y143594D1*
X17527715Y142617D1*
X17531622Y141641D1*
X17534065Y141152D1*
X17540415Y140175D1*
X17544811Y139687D1*
X17740684D1*
X17741172Y140175D1*
Y363406D1*
X17499384Y363894D1*
Y364383D1*
X17500361Y365360D1*
X17500849Y366337D1*
X17501826Y367802D1*
X17502803Y369756D1*
X17503780Y371221D1*
X17504268Y372198D1*
X17505245Y373664D1*
X17506222Y375617D1*
X17507199Y377083D1*
X17508176Y379037D1*
X17509153Y380502D1*
X17509642Y381479D1*
X17510618Y382944D1*
X17511595Y384898D1*
X17512572Y386364D1*
X17513549Y388318D1*
X17514526Y389783D1*
X17515015Y390760D1*
X17515992Y392225D1*
X17516968Y394179D1*
X17517945Y395645D1*
X17518922Y397599D1*
X17519899Y399064D1*
X17520388Y400041D1*
X17521365Y401506D1*
X17522342Y403460D1*
X17523318Y404926D1*
X17524295Y406880D1*
X17525272Y408345D1*
X17525761Y409322D1*
X17526738Y410787D1*
X17527715Y412741D1*
X17528692Y414207D1*
X17529668Y416160D1*
X17530645Y417626D1*
X17531134Y418603D1*
X17532111Y420068D1*
X17533088Y422022D1*
X17534065Y423487D1*
X17535042Y425441D1*
X17536018Y426907D1*
X17536507Y427884D1*
X17537484Y429349D1*
X17538461Y431303D1*
X17539438Y432768D1*
X17540415Y434722D1*
X17541392Y436188D1*
X17541880Y437165D1*
X17542857Y438630D1*
X17543834Y440584D1*
X17544811Y442049D1*
X17545788Y444003D1*
X17546765Y445469D1*
X17547253Y446446D1*
X17548230Y447911D1*
X17549207Y449865D1*
X17550184Y451330D1*
X17550672Y452307D1*
X17551649Y453773D1*
X17552626Y455726D1*
X17553603Y457192D1*
X17554580Y459146D1*
X17555557Y460611D1*
X17556045Y461588D1*
X17557022Y463054D1*
X17557999Y465007D1*
X17558976Y466473D1*
X17559953Y468427D1*
X17560930Y469892D1*
X17561418Y470869D1*
X17562395Y472334D1*
X17563372Y474288D1*
X17564349Y475754D1*
X17565326Y477708D1*
X17566303Y479173D1*
X17566792Y480150D1*
X17567768Y481615D1*
X17568745Y483569D1*
X17569722Y485035D1*
X17570699Y486989D1*
X17571676Y488454D1*
X17572165Y489431D1*
X17573142Y490896D1*
X17574118Y492850D1*
X17575095Y494316D1*
X17575584Y495292D1*
Y495781D1*
X17576561Y496758D1*
X17577049D1*
X17578026Y495781D1*
X17580468Y494316D1*
X17581934Y493339D1*
X17596588Y484546D1*
X17598053Y483569D1*
X17610265Y476242D1*
X17611730Y475265D1*
X17623942Y467938D1*
X17625407Y466961D1*
X17637618Y459634D1*
X17639084Y458657D1*
X17651295Y451330D1*
X17652761Y450353D1*
X17660088Y445957D1*
X17661065Y445469D1*
Y445957D1*
X17660576Y446934D1*
X17658622Y449865D1*
X17658134Y450842D1*
X17657157Y452307D1*
X17656668Y453284D1*
X17654715Y456215D1*
X17654226Y457192D1*
X17652272Y460123D1*
X17651784Y461100D1*
X17650807Y462565D1*
X17650318Y463542D1*
X17648365Y466473D1*
X17647876Y467450D1*
X17645922Y470381D1*
X17645434Y471357D1*
X17644457Y472823D1*
X17643968Y473800D1*
X17642015Y476731D1*
X17641526Y477708D1*
X17640549Y479173D1*
X17640061Y480150D1*
X17638107Y483081D1*
X17637618Y484058D1*
X17635665Y486989D1*
X17635176Y487965D1*
X17634199Y489431D1*
X17633711Y490408D1*
X17631757Y493339D1*
X17631268Y494316D1*
X17629315Y497246D1*
X17628826Y498223D1*
X17627849Y499689D1*
X17627361Y500666D1*
X17625407Y503596D1*
X17624918Y504573D1*
X17622965Y507504D1*
X17622476Y508481D1*
X17621499Y509947D1*
X17621011Y510924D1*
X17619057Y513854D1*
X17618568Y514831D1*
X17617592Y516297D1*
X17617103Y517274D1*
X17615149Y520204D1*
X17614661Y521181D1*
X17612707Y524112D1*
X17612218Y525089D1*
X17611242Y526555D1*
X17610753Y527531D1*
X17608799Y530462D1*
X17608311Y531439D1*
X17606357Y534370D1*
X17605868Y535347D1*
X17604892Y536812D1*
X17604403Y537789D1*
X17602449Y540720D1*
X17601961Y541697D1*
X17600984Y543163D1*
X17600495Y544139D1*
X17598542Y547070D1*
X17598053Y548047D1*
X17596099Y550978D1*
X17595611Y551955D1*
X17594634Y553420D1*
X17594145Y554397D1*
X17592192Y557328D1*
X17591703Y558305D1*
X17589749Y561236D1*
X17589261Y562213D1*
X17588284Y563678D1*
X17587795Y564655D1*
X17585842Y567586D1*
X17585353Y568563D1*
X17583399Y571494D1*
X17582911Y572471D1*
X17581934Y573936D1*
X17581445Y574913D1*
X17579492Y577844D1*
X17579003Y578821D1*
X17578026Y580286D1*
X17577538Y581263D1*
X17575584Y584194D1*
X17575095Y585171D1*
X17573142Y588102D1*
X17572653Y589079D1*
X17571676Y590544D1*
X17571188Y591521D1*
X17569234Y594452D1*
X17568745Y595429D1*
X17566792Y598360D1*
X17566303Y599337D1*
X17565326Y600802D1*
X17564838Y601779D1*
X17562884Y604710D1*
X17562395Y605687D1*
X17561418Y607152D1*
X17560930Y608129D1*
X17558976Y611060D1*
X17558488Y612037D1*
X17556534Y614968D1*
X17556045Y615944D1*
X17555068Y617410D1*
X17554580Y618387D1*
X17552626Y621318D1*
X17552138Y622295D1*
X17550184Y625225D1*
X17549695Y626202D1*
X17548718Y627668D1*
X17548230Y628645D1*
X17546276Y631576D1*
X17545788Y632552D1*
X17543834Y635483D1*
X17543345Y636460D1*
X17542368Y637926D1*
X17541880Y638903D1*
X17539926Y641833D1*
X17539438Y642322D1*
X17319630D1*
G37*
M02*
