G04 DipTrace 4.2.0.0*
G04 TopSilk.gbr*
%MOMM*%
G04 #@! TF.FileFunction,Legend,Top*
G04 #@! TF.Part,Single*
%ADD10C,0.12*%
%ADD56C,0.19608*%
%FSLAX35Y35*%
G04*
G71*
G90*
G75*
G01*
G04 TopSilk*
%LPD*%
X5222873Y5111750D2*
D10*
Y2317750D1*
X6492873D1*
Y5111750D1*
X5222873D1*
X1571623Y6064247D2*
X2047873D1*
Y5842000D1*
X1571623D1*
Y6064247D1*
X6667373Y6421873D2*
X6677373D1*
G36*
X7977424Y1566386D2*
X7987898Y1556254D1*
Y1551188D1*
X8014082Y1520792D1*
X8029792Y1500528D1*
X8050739Y1475198D1*
X8040266Y1454934D1*
X7998371Y1404273D1*
X7972187Y1373877D1*
X7909346Y1297886D1*
X7883162Y1267490D1*
X7862214Y1242160D1*
X7856662Y1236658D1*
X7853950Y1237481D1*
X7851741Y1242160D1*
Y1277622D1*
X7846504Y1343481D1*
X7841267Y1414405D1*
X7830794Y1546122D1*
X7825557Y1617047D1*
X7815083Y1748764D1*
X7794136D1*
Y1703169D1*
X7799373Y1637311D1*
X7809846Y1495462D1*
X7815083Y1429603D1*
X7820320Y1353613D1*
X7825557Y1272556D1*
X7830794Y1237094D1*
X7888398D1*
X7914582Y1267490D1*
X7946003Y1302953D1*
X7966951Y1328283D1*
X7982661Y1348547D1*
X8035029Y1409339D1*
X8055976Y1434669D1*
X8066450Y1449868D1*
X8070361Y1453121D1*
X8073009Y1452696D1*
X8075990Y1448507D1*
X8076923Y1444801D1*
X8103108Y1414405D1*
X8118818Y1394141D1*
X8145002Y1363745D1*
X8165949Y1338415D1*
X8192133Y1308019D1*
X8254975Y1232028D1*
X8281159Y1201632D1*
X8286396Y1196566D1*
Y1156038D1*
X8281159Y1150971D1*
X8265449Y1145905D1*
X8244501Y1135773D1*
X8239265Y1130707D1*
X8228791Y1110443D1*
Y1095245D1*
X8106599Y1090179D1*
X7984406D1*
X7862214Y1095245D1*
Y1135773D1*
X7856978Y1140839D1*
Y1201632D1*
X7872688Y1216830D1*
X7888398Y1237094D1*
X7830794D1*
Y1201632D1*
X7815083Y1186434D1*
X7794136Y1161104D1*
X7741768Y1100311D1*
X7726057Y1080047D1*
X7705110Y1054717D1*
X7699873Y1044585D1*
Y1034453D1*
X7705110Y1029387D1*
X7710347D1*
X7736531Y1054717D1*
X7799373Y1130707D1*
X7825557Y1161104D1*
X7829468Y1164357D1*
X7832181Y1164061D1*
X7836030Y1161104D1*
Y1125641D1*
X7841267Y1090179D1*
X8249738D1*
Y1105377D1*
X8265449Y1120575D1*
X8275922Y1125641D1*
X8284650Y1130707D1*
X8293378D1*
X8302106Y1125641D1*
X8312580Y1120575D1*
X8328290Y1105377D1*
Y1074981D1*
X8307343Y1054717D1*
X8295124Y1049651D1*
X8282904D1*
X8270685Y1054717D1*
X8260212Y1059783D1*
X8254001Y1065478D1*
X8254975Y1069915D1*
X8249738Y1090179D1*
X7841267D1*
Y1064849D1*
X7862214D1*
X7869197Y1069915D1*
X7876179D1*
X7883162Y1064849D1*
Y1054717D1*
X7876179Y1049651D1*
X7869197D1*
X7862214Y1054717D1*
Y1064849D1*
X7841267D1*
Y1034453D1*
X7851741Y1029387D1*
X7898872D1*
X7904109Y1034453D1*
Y1064849D1*
X8012336Y1069915D1*
X8120563D1*
X8228791Y1064849D1*
X8239265Y1054717D1*
Y1049651D1*
X8244501Y1044585D1*
X8260212Y1034453D1*
X8275922Y1029387D1*
X8296869D1*
X8312580Y1034453D1*
X8323053Y1039519D1*
X8344001Y1059783D1*
X8349237Y1069915D1*
Y1110443D1*
X8353148Y1113697D1*
X8355862Y1113401D1*
X8359711Y1110443D1*
X8370185Y1095245D1*
X8401606Y1059783D1*
X8422553Y1034453D1*
X8427790Y1029387D1*
X8438263D1*
X8443500Y1034453D1*
Y1044585D1*
X8433026Y1059783D1*
X8406842Y1090179D1*
X8385895Y1115509D1*
X8354474D1*
X8348922Y1110007D1*
X8346215Y1110820D1*
X8341627Y1118171D1*
X8347651Y1119404D1*
X8350590Y1118654D1*
X8354474Y1115509D1*
X8385895D1*
X8364948Y1135773D1*
X8338764D1*
X8333211Y1130271D1*
X8330505Y1131084D1*
X8325916Y1138435D1*
X8331941Y1139668D1*
X8334880Y1138918D1*
X8338764Y1135773D1*
X8364948D1*
Y1140839D1*
X8333527D1*
X8327974Y1135337D1*
X8325268Y1136150D1*
X8320680Y1143501D1*
X8326704Y1144734D1*
X8329643Y1143984D1*
X8333527Y1140839D1*
X8364948D1*
X8359711Y1145905D1*
X8328290D1*
X8321905Y1140619D1*
X8315850Y1141274D1*
X8312580Y1145905D1*
X8302106Y1150971D1*
Y1166170D1*
X8306017Y1169423D1*
X8308731Y1169127D1*
X8312580Y1166170D1*
X8328290Y1145905D1*
X8359711D1*
X8344001Y1166170D1*
X8317817Y1196566D1*
X8307343Y1237094D1*
X8291633D1*
X8286080Y1231592D1*
X8283368Y1232415D1*
X8281159Y1237094D1*
X8270685Y1252292D1*
X8228791Y1302953D1*
X8197370Y1338415D1*
X8176423Y1363745D1*
X8160712Y1384009D1*
X8108344Y1444801D1*
X8087397Y1465066D1*
Y1475198D1*
X8097871Y1485330D1*
X8150239Y1546122D1*
Y1551188D1*
X8165949Y1566386D1*
X8186896Y1571452D1*
X8192133Y1576518D1*
Y1601849D1*
X8213080Y1622113D1*
X8265449Y1682905D1*
X8281159Y1703169D1*
X8302106Y1728499D1*
X8317817Y1748764D1*
X8321727Y1752017D1*
X8324441Y1751721D1*
X8328290Y1748764D1*
Y1723433D1*
X8323053Y1718367D1*
X8317817Y1637311D1*
X8312580Y1561320D1*
X8307343Y1490396D1*
X8302106Y1424537D1*
X8296869Y1353613D1*
X8291633Y1287754D1*
Y1237094D1*
X8307343D1*
X8312580Y1242160D1*
X8323053Y1373877D1*
X8328290Y1444801D1*
X8338764Y1576518D1*
Y1637311D1*
X8391132Y1642377D1*
X8401606Y1652509D1*
Y1667707D1*
X8380658D1*
X8368439Y1662641D1*
X8356220D1*
X8344001Y1667707D1*
Y1687971D1*
X8356220Y1693037D1*
X8368439D1*
X8380658Y1687971D1*
Y1667707D1*
X8401606D1*
Y1698103D1*
X8396369Y1708235D1*
X8380658Y1713301D1*
X8349237Y1718367D1*
Y1753830D1*
X8354474Y1758896D1*
X8375422Y1763962D1*
X8380658Y1769028D1*
X8385895Y1804490D1*
X8391132Y1814622D1*
X8396369Y1839952D1*
X8422553Y1870348D1*
X8443500Y1895679D1*
Y1905811D1*
X8438263Y1910877D1*
X8427790D1*
X8412079Y1895679D1*
X8385895Y1865282D1*
X8384174Y1859136D1*
X8380658Y1855150D1*
X8344001Y1850084D1*
X8338448Y1844582D1*
X8335736Y1845405D1*
X8333527Y1850084D1*
X8317817Y1865282D1*
X8286396Y1880480D1*
X8249738Y1885546D1*
X8118818Y1895679D1*
X8112608Y1901374D1*
X8113581Y1905811D1*
X8103108Y1910877D1*
X8035029D1*
X8024555Y1900745D1*
X8022834Y1894598D1*
X8019319Y1890613D1*
X7893635Y1885546D1*
X7856978Y1880480D1*
X7841267Y1875414D1*
X7830794Y1870348D1*
X7794136Y1834886D1*
X7792806Y1828909D1*
X7788593Y1824287D1*
X7785881Y1825140D1*
X7783662Y1829820D1*
X7767952Y1850084D1*
X7747005Y1875414D1*
X7720821Y1905811D1*
X7715584Y1910877D1*
X7699873D1*
Y1895679D1*
X7710347Y1880480D1*
X7752241Y1829820D1*
X7757478Y1824754D1*
X7815083D1*
Y1829820D1*
X7825557Y1839952D1*
X7856978Y1855150D1*
X7998371Y1860216D1*
X8139765D1*
X8281159Y1855150D1*
X8296869Y1850084D1*
X8307343Y1845018D1*
X8328290Y1824754D1*
Y1819688D1*
X8333527Y1814622D1*
X8158967Y1809556D1*
X7984406D1*
X7809846Y1814622D1*
X7810864Y1818213D1*
X7815083Y1824754D1*
X7757478D1*
X7773189Y1809556D1*
X7762715Y1799424D1*
X7757478Y1784226D1*
Y1769028D1*
X7762715Y1763962D1*
X7788899Y1758896D1*
X7846504D1*
X7996626Y1763962D1*
X8146747D1*
X8296869Y1758896D1*
Y1753830D1*
X8275922Y1733565D1*
X8223554Y1672773D1*
X8207844Y1652509D1*
X8205203Y1647430D1*
X8202163Y1642139D1*
X8197047Y1636862D1*
X8194363Y1637685D1*
X8190990Y1643265D1*
X8192133Y1647443D1*
X8186896Y1652509D1*
X7951240D1*
X7940451Y1641941D1*
X7937739Y1642763D1*
X7935530Y1647443D1*
X7930293Y1657575D1*
X7904109Y1687971D1*
X7862214Y1738631D1*
X7846504Y1758896D1*
X7788899D1*
X7794136Y1748764D1*
X7815083D1*
X7818994Y1752017D1*
X7821643Y1751592D1*
X7824623Y1747403D1*
X7825557Y1743698D1*
X7867451Y1693037D1*
X7919819Y1632245D1*
X7925056Y1627179D1*
X7966951D1*
X8036774Y1632245D1*
X8106599D1*
X8176423Y1627179D1*
Y1617047D1*
X8171186Y1611981D1*
Y1606915D1*
X8160712Y1596783D1*
X8099616Y1591716D1*
X8038520D1*
X7977424Y1596783D1*
X7971214Y1602478D1*
X7972187Y1606915D1*
X7966951Y1627179D1*
X7925056D1*
X7935530Y1611981D1*
X7946003Y1576518D1*
X7951240Y1571452D1*
X7977424Y1566386D1*
X8003608D1*
X8047248Y1571452D1*
X8090888D1*
X8134528Y1566386D1*
Y1561320D1*
X8118818Y1546122D1*
X8087397Y1510660D1*
X8076923Y1495462D1*
X8071371Y1489960D1*
X8068659Y1490782D1*
X8066450Y1495462D1*
X8045503Y1520792D1*
X8019319Y1551188D1*
X8003608Y1566386D1*
X7977424D1*
G37*
G36*
X8281159Y1100311D2*
X8279438Y1094165D1*
X8275922Y1090179D1*
X8286396Y1080047D1*
X8291633D1*
X8296869Y1085113D1*
Y1095245D1*
X8291633Y1100311D1*
X8281159D1*
G37*
X762304Y6478048D2*
D56*
X810877Y6350439D1*
X859450Y6478048D1*
X989775Y6447725D2*
X983739Y6459798D1*
X971525Y6472012D1*
X959452Y6478048D1*
X935166D1*
X922952Y6472012D1*
X910879Y6459798D1*
X904702Y6447725D1*
X898666Y6429475D1*
Y6399012D1*
X904702Y6380902D1*
X910879Y6368689D1*
X922952Y6356616D1*
X935166Y6350439D1*
X959452D1*
X971525Y6356616D1*
X983739Y6368689D1*
X989775Y6380902D1*
X1120101Y6447725D2*
X1114064Y6459798D1*
X1101851Y6472012D1*
X1089778Y6478048D1*
X1065491D1*
X1053278Y6472012D1*
X1041205Y6459798D1*
X1035028Y6447725D1*
X1028991Y6429475D1*
Y6399012D1*
X1035028Y6380902D1*
X1041205Y6368689D1*
X1053278Y6356616D1*
X1065491Y6350439D1*
X1089778D1*
X1101851Y6356616D1*
X1114064Y6368689D1*
X1120101Y6380902D1*
X863414Y6221349D2*
X857377Y6233422D1*
X845164Y6245635D1*
X833090Y6251672D1*
X808804D1*
X796590Y6245635D1*
X784517Y6233422D1*
X778340Y6221349D1*
X772304Y6203099D1*
Y6172635D1*
X778340Y6154525D1*
X784517Y6142312D1*
X796590Y6130239D1*
X808804Y6124062D1*
X833090D1*
X845164Y6130239D1*
X857377Y6142312D1*
X863414Y6154525D1*
Y6172635D1*
X833090D1*
X987702Y6251672D2*
Y6124062D1*
X902629Y6251672D1*
Y6124062D1*
X1026918Y6251672D2*
Y6124062D1*
X1069455D1*
X1087705Y6130239D1*
X1099918Y6142312D1*
X1105955Y6154525D1*
X1111991Y6172635D1*
Y6203099D1*
X1105955Y6221349D1*
X1099918Y6233422D1*
X1087705Y6245635D1*
X1069455Y6251672D1*
X1026918D1*
X867377Y5991175D2*
X855304Y6003388D1*
X837054Y6009425D1*
X812767D1*
X794517Y6003388D1*
X782304Y5991175D1*
Y5979102D1*
X788481Y5966888D1*
X794517Y5960852D1*
X806590Y5954815D1*
X843090Y5942602D1*
X855304Y5936565D1*
X861340Y5930388D1*
X867377Y5918315D1*
Y5900065D1*
X855304Y5887992D1*
X837054Y5881815D1*
X812767D1*
X794517Y5887992D1*
X782304Y5900065D1*
X997702Y5979102D2*
X991666Y5991175D1*
X979452Y6003388D1*
X967379Y6009425D1*
X943093D1*
X930879Y6003388D1*
X918806Y5991175D1*
X912629Y5979102D1*
X906593Y5960852D1*
Y5930388D1*
X912629Y5912279D1*
X918806Y5900065D1*
X930879Y5887992D1*
X943093Y5881815D1*
X967379D1*
X979452Y5887992D1*
X991666Y5900065D1*
X997702Y5912279D1*
X1036918Y6009425D2*
Y5881815D1*
X1109778D1*
X857374Y5727172D2*
X845301Y5739385D1*
X827051Y5745422D1*
X802764D1*
X784514Y5739385D1*
X772301Y5727172D1*
Y5715099D1*
X778478Y5702885D1*
X784514Y5696849D1*
X796587Y5690812D1*
X833087Y5678599D1*
X845301Y5672562D1*
X851337Y5666385D1*
X857374Y5654312D1*
Y5636062D1*
X845301Y5623989D1*
X827051Y5617812D1*
X802764D1*
X784514Y5623989D1*
X772301Y5636062D1*
X896589Y5745422D2*
Y5617812D1*
X939126D1*
X957376Y5623989D1*
X969589Y5636062D1*
X975626Y5648275D1*
X981662Y5666385D1*
Y5696849D1*
X975626Y5715099D1*
X969589Y5727172D1*
X957376Y5739385D1*
X939126Y5745422D1*
X896589D1*
X1118165Y5617812D2*
X1069451Y5745422D1*
X1020878Y5617812D1*
X1039128Y5660349D2*
X1099915D1*
X772304Y5497298D2*
Y5369689D1*
X814840D1*
X833090Y5375866D1*
X845304Y5387939D1*
X851340Y5400152D1*
X857377Y5418262D1*
Y5448725D1*
X851340Y5466975D1*
X845304Y5479048D1*
X833090Y5491262D1*
X814840Y5497298D1*
X772304D1*
X896593D2*
Y5369689D1*
X981666Y5497298D2*
Y5369689D1*
X896593Y5436512D2*
X981666D1*
X1063418Y5497298D2*
Y5369689D1*
X1020881Y5497298D2*
X1105955D1*
X1151347Y5466835D2*
Y5472871D1*
X1157384Y5485085D1*
X1163420Y5491121D1*
X1175634Y5497158D1*
X1199920D1*
X1211993Y5491121D1*
X1218030Y5485085D1*
X1224207Y5472871D1*
Y5460798D1*
X1218030Y5448585D1*
X1205957Y5430475D1*
X1145170Y5369689D1*
X1230243D1*
X1275636Y5466835D2*
Y5472871D1*
X1281672Y5485085D1*
X1287709Y5491121D1*
X1299922Y5497158D1*
X1324209D1*
X1336282Y5491121D1*
X1342319Y5485085D1*
X1348496Y5472871D1*
Y5460798D1*
X1342319Y5448585D1*
X1330246Y5430475D1*
X1269459Y5369689D1*
X1354532D1*
X772301Y5233298D2*
Y5105689D1*
X814837D1*
X833087Y5111866D1*
X845301Y5123939D1*
X851337Y5136152D1*
X857374Y5154262D1*
Y5184725D1*
X851337Y5202975D1*
X845301Y5215048D1*
X833087Y5227262D1*
X814837Y5233298D1*
X772301D1*
X981662Y5215048D2*
X969589Y5227262D1*
X951339Y5233298D1*
X927053D1*
X908803Y5227262D1*
X896589Y5215048D1*
Y5202975D1*
X902766Y5190762D1*
X908803Y5184725D1*
X920876Y5178689D1*
X957376Y5166475D1*
X969589Y5160439D1*
X975626Y5154262D1*
X981662Y5142189D1*
Y5123939D1*
X969589Y5111866D1*
X951339Y5105689D1*
X927053D1*
X908803Y5111866D1*
X896589Y5123939D1*
X1020878Y5208871D2*
X1033092Y5215048D1*
X1051342Y5233158D1*
Y5105689D1*
X1120880Y5233158D2*
X1102771Y5227121D1*
X1096594Y5215048D1*
Y5202835D1*
X1102771Y5190762D1*
X1114844Y5184585D1*
X1139130Y5178548D1*
X1157380Y5172512D1*
X1169453Y5160298D1*
X1175490Y5148225D1*
Y5129975D1*
X1169453Y5117902D1*
X1163417Y5111725D1*
X1145167Y5105689D1*
X1120880D1*
X1102771Y5111725D1*
X1096594Y5117902D1*
X1090557Y5129975D1*
Y5148225D1*
X1096594Y5160298D1*
X1108807Y5172512D1*
X1126917Y5178548D1*
X1151203Y5184585D1*
X1163417Y5190762D1*
X1169453Y5202835D1*
Y5215048D1*
X1163417Y5227121D1*
X1145167Y5233158D1*
X1120880D1*
X1214706Y5233298D2*
Y5105689D1*
X1269456D1*
X1287706Y5111866D1*
X1293742Y5117902D1*
X1299779Y5129975D1*
Y5148225D1*
X1293742Y5160439D1*
X1287706Y5166475D1*
X1269456Y5172512D1*
X1287706Y5178689D1*
X1293742Y5184725D1*
X1299779Y5196798D1*
Y5209012D1*
X1293742Y5221085D1*
X1287706Y5227262D1*
X1269456Y5233298D1*
X1214706D1*
Y5172512D2*
X1269456D1*
X1345171Y5202835D2*
Y5208871D1*
X1351208Y5221085D1*
X1357244Y5227121D1*
X1369458Y5233158D1*
X1393744D1*
X1405817Y5227121D1*
X1411854Y5221085D1*
X1418031Y5208871D1*
Y5196798D1*
X1411854Y5184585D1*
X1399781Y5166475D1*
X1338994Y5105689D1*
X1424067D1*
X1499783Y5233158D2*
X1481533Y5227121D1*
X1469320Y5208871D1*
X1463283Y5178548D1*
Y5160298D1*
X1469320Y5129975D1*
X1481533Y5111725D1*
X1499783Y5105689D1*
X1511856D1*
X1530106Y5111725D1*
X1542179Y5129975D1*
X1548356Y5160298D1*
Y5178548D1*
X1542179Y5208871D1*
X1530106Y5227121D1*
X1511856Y5233158D1*
X1499783D1*
X1542179Y5208871D2*
X1469320Y5129975D1*
X6108422Y6811557D2*
X6236031Y6860130D1*
X6108422Y6908703D1*
X6138745Y7039029D2*
X6126672Y7032992D1*
X6114458Y7020779D1*
X6108422Y7008706D1*
Y6984419D1*
X6114458Y6972206D1*
X6126672Y6960133D1*
X6138745Y6953956D1*
X6156995Y6947919D1*
X6187458D1*
X6205568Y6953956D1*
X6217781Y6960133D1*
X6229854Y6972206D1*
X6236031Y6984419D1*
Y7008706D1*
X6229854Y7020779D1*
X6217781Y7032992D1*
X6205568Y7039029D1*
X6138745Y7169354D2*
X6126672Y7163317D1*
X6114458Y7151104D1*
X6108422Y7139031D1*
Y7114744D1*
X6114458Y7102531D1*
X6126672Y7090458D1*
X6138745Y7084281D1*
X6156995Y7078244D1*
X6187458D1*
X6205568Y7084281D1*
X6217781Y7090458D1*
X6229854Y7102531D1*
X6236031Y7114744D1*
Y7139031D1*
X6229854Y7151104D1*
X6217781Y7163317D1*
X6205568Y7169354D1*
X6399128Y6920777D2*
X6387055Y6914740D1*
X6374842Y6902527D1*
X6368805Y6890454D1*
Y6866167D1*
X6374842Y6853954D1*
X6387055Y6841881D1*
X6399128Y6835704D1*
X6417378Y6829667D1*
X6447842D1*
X6465951Y6835704D1*
X6478165Y6841881D1*
X6490238Y6853954D1*
X6496415Y6866167D1*
Y6890454D1*
X6490238Y6902527D1*
X6478165Y6914740D1*
X6465951Y6920777D1*
X6447842D1*
Y6890454D1*
X6368805Y7045066D2*
X6496415D1*
X6368805Y6959993D1*
X6496415D1*
X6368805Y7084281D2*
X6496415D1*
Y7126818D1*
X6490238Y7145068D1*
X6478165Y7157281D1*
X6465951Y7163318D1*
X6447842Y7169354D1*
X6417378D1*
X6399128Y7163318D1*
X6387055Y7157281D1*
X6374842Y7145068D1*
X6368805Y7126818D1*
Y7084281D1*
X6637782Y6942250D2*
X6625568Y6930177D1*
X6619532Y6911927D1*
Y6887641D1*
X6625568Y6869391D1*
X6637782Y6857177D1*
X6649855D1*
X6662068Y6863354D1*
X6668105Y6869391D1*
X6674141Y6881464D1*
X6686355Y6917964D1*
X6692391Y6930177D1*
X6698568Y6936214D1*
X6710641Y6942250D1*
X6728891D1*
X6740964Y6930177D1*
X6747141Y6911927D1*
Y6887641D1*
X6740964Y6869391D1*
X6728891Y6857177D1*
X6649855Y7072576D2*
X6637782Y7066539D1*
X6625568Y7054326D1*
X6619532Y7042253D1*
Y7017966D1*
X6625568Y7005753D1*
X6637782Y6993679D1*
X6649855Y6987503D1*
X6668105Y6981466D1*
X6698568D1*
X6716678Y6987503D1*
X6728891Y6993679D1*
X6740964Y7005753D1*
X6747141Y7017966D1*
Y7042253D1*
X6740964Y7054326D1*
X6728891Y7066539D1*
X6716678Y7072576D1*
X6619532Y7111791D2*
X6747141D1*
Y7184651D1*
X6895055Y6933057D2*
X6882842Y6920984D1*
X6876805Y6902734D1*
Y6878447D1*
X6882842Y6860197D1*
X6895055Y6847984D1*
X6907128D1*
X6919342Y6854161D1*
X6925378Y6860197D1*
X6931415Y6872270D1*
X6943628Y6908770D1*
X6949665Y6920984D1*
X6955842Y6927020D1*
X6967915Y6933057D1*
X6986165D1*
X6998238Y6920984D1*
X7004415Y6902734D1*
Y6878447D1*
X6998238Y6860197D1*
X6986165Y6847984D1*
X6876805Y6972273D2*
X7004415D1*
Y7014809D1*
X6998238Y7033059D1*
X6986165Y7045273D1*
X6973951Y7051309D1*
X6955842Y7057346D1*
X6925378D1*
X6907128Y7051309D1*
X6895055Y7045273D1*
X6882842Y7033059D1*
X6876805Y7014809D1*
Y6972273D1*
X7004415Y7193848D2*
X6876805Y7145135D1*
X7004415Y7096561D1*
X6961878Y7114811D2*
Y7175598D1*
X1295677Y941175D2*
X1344250Y813565D1*
X1392823Y941175D1*
X1523149Y910852D2*
X1517112Y922925D1*
X1504899Y935138D1*
X1492826Y941175D1*
X1468539D1*
X1456326Y935138D1*
X1444253Y922925D1*
X1438076Y910852D1*
X1432039Y892602D1*
Y862138D1*
X1438076Y844029D1*
X1444253Y831815D1*
X1456326Y819742D1*
X1468539Y813565D1*
X1492826D1*
X1504899Y819742D1*
X1517112Y831815D1*
X1523149Y844029D1*
X1653474Y910852D2*
X1647437Y922925D1*
X1635224Y935138D1*
X1623151Y941175D1*
X1598864D1*
X1586651Y935138D1*
X1574578Y922925D1*
X1568401Y910852D1*
X1562364Y892602D1*
Y862138D1*
X1568401Y844029D1*
X1574578Y831815D1*
X1586651Y819742D1*
X1598864Y813565D1*
X1623151D1*
X1635224Y819742D1*
X1647437Y831815D1*
X1653474Y844029D1*
X1386787Y1609352D2*
X1380750Y1621425D1*
X1368537Y1633638D1*
X1356464Y1639675D1*
X1332177D1*
X1319964Y1633638D1*
X1307891Y1621425D1*
X1301714Y1609352D1*
X1295677Y1591102D1*
Y1560638D1*
X1301714Y1542529D1*
X1307891Y1530315D1*
X1319964Y1518242D1*
X1332177Y1512065D1*
X1356464D1*
X1368537Y1518242D1*
X1380750Y1530315D1*
X1386787Y1542529D1*
Y1560638D1*
X1356464D1*
X1511076Y1639675D2*
Y1512065D1*
X1426003Y1639675D1*
Y1512065D1*
X1550291Y1639675D2*
Y1512065D1*
X1592828D1*
X1611078Y1518242D1*
X1623291Y1530315D1*
X1629328Y1542529D1*
X1635364Y1560638D1*
Y1591102D1*
X1629328Y1609352D1*
X1623291Y1621425D1*
X1611078Y1633638D1*
X1592828Y1639675D1*
X1550291D1*
X1386787Y1371222D2*
X1380750Y1383295D1*
X1368537Y1395508D1*
X1356464Y1401545D1*
X1332177D1*
X1319964Y1395508D1*
X1307891Y1383295D1*
X1301714Y1371222D1*
X1295677Y1352972D1*
Y1322508D1*
X1301714Y1304399D1*
X1307891Y1292185D1*
X1319964Y1280112D1*
X1332177Y1273935D1*
X1356464D1*
X1368537Y1280112D1*
X1380750Y1292185D1*
X1386787Y1304399D1*
Y1322508D1*
X1356464D1*
X1511076Y1401545D2*
Y1273935D1*
X1426003Y1401545D1*
Y1273935D1*
X1550291Y1401545D2*
Y1273935D1*
X1592828D1*
X1611078Y1280112D1*
X1623291Y1292185D1*
X1629328Y1304399D1*
X1635364Y1322508D1*
Y1352972D1*
X1629328Y1371222D1*
X1623291Y1383295D1*
X1611078Y1395508D1*
X1592828Y1401545D1*
X1550291D1*
X1295677Y1195172D2*
Y1067562D1*
X1338214D1*
X1356464Y1073739D1*
X1368677Y1085812D1*
X1374714Y1098025D1*
X1380750Y1116135D1*
Y1146599D1*
X1374714Y1164849D1*
X1368677Y1176922D1*
X1356464Y1189135D1*
X1338214Y1195172D1*
X1295677D1*
X1456466D2*
X1444253Y1189135D1*
X1432179Y1176922D1*
X1426003Y1164849D1*
X1419966Y1146599D1*
Y1116135D1*
X1426003Y1098025D1*
X1432179Y1085812D1*
X1444253Y1073739D1*
X1456466Y1067562D1*
X1480753D1*
X1492826Y1073739D1*
X1505039Y1085812D1*
X1511076Y1098025D1*
X1517112Y1116135D1*
Y1146599D1*
X1511076Y1164849D1*
X1505039Y1176922D1*
X1492826Y1189135D1*
X1480753Y1195172D1*
X1456466D1*
X1556328D2*
Y1104062D1*
X1562364Y1085812D1*
X1574578Y1073739D1*
X1592828Y1067562D1*
X1604901D1*
X1623151Y1073739D1*
X1635364Y1085812D1*
X1641401Y1104062D1*
Y1195172D1*
X1723153D2*
Y1067562D1*
X1680617Y1195172D2*
X1765690D1*
X7725051Y4338422D2*
X7773624Y4210812D1*
X7822197Y4338422D1*
X7952522Y4308099D2*
X7946486Y4320172D1*
X7934272Y4332385D1*
X7922199Y4338422D1*
X7897912D1*
X7885699Y4332385D1*
X7873626Y4320172D1*
X7867449Y4308099D1*
X7861412Y4289849D1*
Y4259385D1*
X7867449Y4241275D1*
X7873626Y4229062D1*
X7885699Y4216989D1*
X7897912Y4210812D1*
X7922199D1*
X7934272Y4216989D1*
X7946486Y4229062D1*
X7952522Y4241275D1*
X8082847Y4308099D2*
X8076811Y4320172D1*
X8064597Y4332385D1*
X8052524Y4338422D1*
X8028238D1*
X8016024Y4332385D1*
X8003951Y4320172D1*
X7997774Y4308099D1*
X7991738Y4289849D1*
Y4259385D1*
X7997774Y4241275D1*
X8003951Y4229062D1*
X8016024Y4216989D1*
X8028238Y4210812D1*
X8052524D1*
X8064597Y4216989D1*
X8076811Y4229062D1*
X8082847Y4241275D1*
X7910464Y4084425D2*
Y3956815D1*
X7867927Y4084425D2*
X7953000D1*
X7992216D2*
X8077289Y3956815D1*
Y4084425D2*
X7992216Y3956815D1*
X7867927Y3769638D2*
X7922537D1*
X7940787Y3775815D1*
X7946964Y3781852D1*
X7953000Y3793925D1*
Y3806138D1*
X7946964Y3818211D1*
X7940787Y3824388D1*
X7922537Y3830425D1*
X7867927D1*
Y3702815D1*
X7910464Y3769638D2*
X7953000Y3702815D1*
X7992216Y3830425D2*
X8077289Y3702815D1*
Y3830425D2*
X7992216Y3702815D1*
X7832037Y3546099D2*
X7826000Y3558172D1*
X7813787Y3570385D1*
X7801714Y3576422D1*
X7777427D1*
X7765214Y3570385D1*
X7753141Y3558172D1*
X7746964Y3546099D1*
X7740927Y3527849D1*
Y3497385D1*
X7746964Y3479275D1*
X7753141Y3467062D1*
X7765214Y3454989D1*
X7777427Y3448812D1*
X7801714D1*
X7813787Y3454989D1*
X7826000Y3467062D1*
X7832037Y3479275D1*
Y3497385D1*
X7801714D1*
X7956326Y3576422D2*
Y3448812D1*
X7871253Y3576422D1*
Y3448812D1*
X7995541Y3576422D2*
Y3448812D1*
X8038078D1*
X8056328Y3454989D1*
X8068541Y3467062D1*
X8074578Y3479275D1*
X8080614Y3497385D1*
Y3527849D1*
X8074578Y3546099D1*
X8068541Y3558172D1*
X8056328Y3570385D1*
X8038078Y3576422D1*
X7995541D1*
X8804551Y5338548D2*
X8853124Y5210939D1*
X8901697Y5338548D1*
X9032022Y5308225D2*
X9025986Y5320298D1*
X9013772Y5332512D1*
X9001699Y5338548D1*
X8977412D1*
X8965199Y5332512D1*
X8953126Y5320298D1*
X8946949Y5308225D1*
X8940912Y5289975D1*
Y5259512D1*
X8946949Y5241402D1*
X8953126Y5229189D1*
X8965199Y5217116D1*
X8977412Y5210939D1*
X9001699D1*
X9013772Y5217116D1*
X9025986Y5229189D1*
X9032022Y5241402D1*
X9162347Y5308225D2*
X9156311Y5320298D1*
X9144097Y5332512D1*
X9132024Y5338548D1*
X9107738D1*
X9095524Y5332512D1*
X9083451Y5320298D1*
X9077274Y5308225D1*
X9071238Y5289975D1*
Y5259512D1*
X9077274Y5241402D1*
X9083451Y5229189D1*
X9095524Y5217116D1*
X9107738Y5210939D1*
X9132024D1*
X9144097Y5217116D1*
X9156311Y5229189D1*
X9162347Y5241402D1*
X8927414Y5054225D2*
X8921377Y5066298D1*
X8909164Y5078512D1*
X8897090Y5084548D1*
X8872804D1*
X8860590Y5078512D1*
X8848517Y5066298D1*
X8842340Y5054225D1*
X8836304Y5035975D1*
Y5005512D1*
X8842340Y4987402D1*
X8848517Y4975189D1*
X8860590Y4963116D1*
X8872804Y4956939D1*
X8897090D1*
X8909164Y4963116D1*
X8921377Y4975189D1*
X8927414Y4987402D1*
Y5005512D1*
X8897090D1*
X9051702Y5084548D2*
Y4956939D1*
X8966629Y5084548D1*
Y4956939D1*
X9090918Y5084548D2*
Y4956939D1*
X9133455D1*
X9151705Y4963116D1*
X9163918Y4975189D1*
X9169955Y4987402D1*
X9175991Y5005512D1*
Y5035975D1*
X9169955Y5054225D1*
X9163918Y5066298D1*
X9151705Y5078512D1*
X9133455Y5084548D1*
X9090918D1*
X9054414Y4800225D2*
X9048377Y4812298D1*
X9036164Y4824512D1*
X9024090Y4830548D1*
X8999804D1*
X8987590Y4824512D1*
X8975517Y4812298D1*
X8969340Y4800225D1*
X8963304Y4781975D1*
Y4751512D1*
X8969340Y4733402D1*
X8975517Y4721189D1*
X8987590Y4709116D1*
X8999804Y4702939D1*
X9024090D1*
X9036164Y4709116D1*
X9048377Y4721189D1*
X9054414Y4733402D1*
X9178702Y4812298D2*
X9166629Y4824512D1*
X9148379Y4830548D1*
X9124093D1*
X9105843Y4824512D1*
X9093629Y4812298D1*
Y4800225D1*
X9099806Y4788012D1*
X9105843Y4781975D1*
X9117916Y4775939D1*
X9154416Y4763725D1*
X9166629Y4757689D1*
X9172666Y4751512D1*
X9178702Y4739439D1*
Y4721189D1*
X9166629Y4709116D1*
X9148379Y4702939D1*
X9124093D1*
X9105843Y4709116D1*
X9093629Y4721189D1*
X8852177Y4515762D2*
X8906787D1*
X8925037Y4521939D1*
X8931214Y4527975D1*
X8937250Y4540048D1*
Y4552262D1*
X8931214Y4564335D1*
X8925037Y4570512D1*
X8906787Y4576548D1*
X8852177D1*
Y4448939D1*
X8894714Y4515762D2*
X8937250Y4448939D1*
X9055362Y4576548D2*
X8976466D1*
Y4448939D1*
X9055362D1*
X8976466Y4515762D2*
X9025039D1*
X9179651Y4558298D2*
X9167578Y4570512D1*
X9149328Y4576548D1*
X9125041D1*
X9106791Y4570512D1*
X9094578Y4558298D1*
Y4546225D1*
X9100755Y4534012D1*
X9106791Y4527975D1*
X9118864Y4521939D1*
X9155364Y4509725D1*
X9167578Y4503689D1*
X9173614Y4497512D1*
X9179651Y4485439D1*
Y4467189D1*
X9167578Y4455116D1*
X9149328Y4448939D1*
X9125041D1*
X9106791Y4455116D1*
X9094578Y4467189D1*
X8963304Y4322548D2*
Y4194939D1*
X9005840D1*
X9024090Y4201116D1*
X9036304Y4213189D1*
X9042340Y4225402D1*
X9048377Y4243512D1*
Y4273975D1*
X9042340Y4292225D1*
X9036304Y4304298D1*
X9024090Y4316512D1*
X9005840Y4322548D1*
X8963304D1*
X9178702Y4292225D2*
X9172666Y4304298D1*
X9160452Y4316512D1*
X9148379Y4322548D1*
X9124093D1*
X9111879Y4316512D1*
X9099806Y4304298D1*
X9093629Y4292225D1*
X9087593Y4273975D1*
Y4243512D1*
X9093629Y4225402D1*
X9099806Y4213189D1*
X9111879Y4201116D1*
X9124093Y4194939D1*
X9148379D1*
X9160452Y4201116D1*
X9172666Y4213189D1*
X9178702Y4225402D1*
X9016624Y4050298D2*
X9004551Y4062512D1*
X8986301Y4068548D1*
X8962014D1*
X8943764Y4062512D1*
X8931551Y4050298D1*
Y4038225D1*
X8937728Y4026012D1*
X8943764Y4019975D1*
X8955837Y4013939D1*
X8992337Y4001725D1*
X9004551Y3995689D1*
X9010587Y3989512D1*
X9016624Y3977439D1*
Y3959189D1*
X9004551Y3947116D1*
X8986301Y3940939D1*
X8962014D1*
X8943764Y3947116D1*
X8931551Y3959189D1*
X9055839Y4068548D2*
Y3940939D1*
X9098376D1*
X9116626Y3947116D1*
X9128839Y3959189D1*
X9134876Y3971402D1*
X9140912Y3989512D1*
Y4019975D1*
X9134876Y4038225D1*
X9128839Y4050298D1*
X9116626Y4062512D1*
X9098376Y4068548D1*
X9055839D1*
X9180128D2*
Y3940939D1*
X8921377Y3796298D2*
X8909304Y3808512D1*
X8891054Y3814548D1*
X8866767D1*
X8848517Y3808512D1*
X8836304Y3796298D1*
Y3784225D1*
X8842481Y3772012D1*
X8848517Y3765975D1*
X8860590Y3759939D1*
X8897090Y3747725D1*
X8909304Y3741689D1*
X8915340Y3735512D1*
X8921377Y3723439D1*
Y3705189D1*
X8909304Y3693116D1*
X8891054Y3686939D1*
X8866767D1*
X8848517Y3693116D1*
X8836304Y3705189D1*
X9051702Y3784225D2*
X9045666Y3796298D1*
X9033452Y3808512D1*
X9021379Y3814548D1*
X8997093D1*
X8984879Y3808512D1*
X8972806Y3796298D1*
X8966629Y3784225D1*
X8960593Y3765975D1*
Y3735512D1*
X8966629Y3717402D1*
X8972806Y3705189D1*
X8984879Y3693116D1*
X8997093Y3686939D1*
X9021379D1*
X9033452Y3693116D1*
X9045666Y3705189D1*
X9051702Y3717402D1*
X9090918Y3814548D2*
Y3686939D1*
X9175991Y3814548D2*
X9090918Y3729475D1*
X9121241Y3759939D2*
X9175991Y3686939D1*
X8868051Y3560548D2*
Y3432939D1*
X8940910D1*
X9059022Y3560548D2*
X8980126D1*
Y3432939D1*
X9059022D1*
X8980126Y3499762D2*
X9028699D1*
X9098238Y3560548D2*
Y3432939D1*
X9140774D1*
X9159024Y3439116D1*
X9171238Y3451189D1*
X9177274Y3463402D1*
X9183311Y3481512D1*
Y3511975D1*
X9177274Y3530225D1*
X9171238Y3542298D1*
X9159024Y3554512D1*
X9140774Y3560548D1*
X9098238D1*
X8921377Y3288298D2*
X8909304Y3300512D1*
X8891054Y3306548D1*
X8866767D1*
X8848517Y3300512D1*
X8836304Y3288298D1*
Y3276225D1*
X8842481Y3264012D1*
X8848517Y3257975D1*
X8860590Y3251939D1*
X8897090Y3239725D1*
X8909304Y3233689D1*
X8915340Y3227512D1*
X8921377Y3215439D1*
Y3197189D1*
X8909304Y3185116D1*
X8891054Y3178939D1*
X8866767D1*
X8848517Y3185116D1*
X8836304Y3197189D1*
X8960593Y3306548D2*
Y3178939D1*
X9003129D1*
X9021379Y3185116D1*
X9033593Y3197189D1*
X9039629Y3209402D1*
X9045666Y3227512D1*
Y3257975D1*
X9039629Y3276225D1*
X9033593Y3288298D1*
X9021379Y3300512D1*
X9003129Y3306548D1*
X8960593D1*
X9121381D2*
X9109168Y3300512D1*
X9097095Y3288298D1*
X9090918Y3276225D1*
X9084881Y3257975D1*
Y3227512D1*
X9090918Y3209402D1*
X9097095Y3197189D1*
X9109168Y3185116D1*
X9121381Y3178939D1*
X9145668D1*
X9157741Y3185116D1*
X9169955Y3197189D1*
X9175991Y3209402D1*
X9182028Y3227512D1*
Y3257975D1*
X9175991Y3276225D1*
X9169955Y3288298D1*
X9157741Y3300512D1*
X9145668Y3306548D1*
X9121381D1*
X8624837Y3052548D2*
Y2924939D1*
X8582301Y3052548D2*
X8667374D1*
X8706589Y2903881D2*
X8821986D1*
X8952311Y3022225D2*
X8946274Y3034298D1*
X8934061Y3046512D1*
X8921988Y3052548D1*
X8897701D1*
X8885488Y3046512D1*
X8873415Y3034298D1*
X8867238Y3022225D1*
X8861201Y3003975D1*
Y2973512D1*
X8867238Y2955402D1*
X8873415Y2943189D1*
X8885488Y2931116D1*
X8897701Y2924939D1*
X8921988D1*
X8934061Y2931116D1*
X8946274Y2943189D1*
X8952311Y2955402D1*
X8991526Y3052548D2*
Y2924939D1*
X9064386D1*
X9103602Y3052548D2*
Y2924939D1*
X9188675Y3052548D2*
X9103602Y2967475D1*
X9133925Y2997939D2*
X9188675Y2924939D1*
X8735964Y2798548D2*
Y2670939D1*
X8693427Y2798548D2*
X8778500D1*
X8817716Y2649881D2*
X8933112D1*
X9063437Y2768225D2*
X9057401Y2780298D1*
X9045187Y2792512D1*
X9033114Y2798548D1*
X9008828D1*
X8996614Y2792512D1*
X8984541Y2780298D1*
X8978364Y2768225D1*
X8972328Y2749975D1*
Y2719512D1*
X8978364Y2701402D1*
X8984541Y2689189D1*
X8996614Y2677116D1*
X9008828Y2670939D1*
X9033114D1*
X9045187Y2677116D1*
X9057401Y2689189D1*
X9063437Y2701402D1*
X9187726Y2780298D2*
X9175653Y2792512D1*
X9157403Y2798548D1*
X9133117D1*
X9114867Y2792512D1*
X9102653Y2780298D1*
Y2768225D1*
X9108830Y2756012D1*
X9114867Y2749975D1*
X9126940Y2743939D1*
X9163440Y2731725D1*
X9175653Y2725689D1*
X9181690Y2719512D1*
X9187726Y2707439D1*
Y2689189D1*
X9175653Y2677116D1*
X9157403Y2670939D1*
X9133117D1*
X9114867Y2677116D1*
X9102653Y2689189D1*
X8704214Y2544548D2*
Y2416939D1*
X8661677Y2544548D2*
X8746750D1*
X8785966Y2395881D2*
X8901362D1*
X8940578Y2544548D2*
Y2416939D1*
X8983114D1*
X9001364Y2423116D1*
X9013578Y2435189D1*
X9019614Y2447402D1*
X9025651Y2465512D1*
Y2495975D1*
X9019614Y2514225D1*
X9013578Y2526298D1*
X9001364Y2538512D1*
X8983114Y2544548D1*
X8940578D1*
X9064867D2*
Y2416939D1*
X9189155Y2544548D2*
Y2416939D1*
X9104082Y2544548D1*
Y2416939D1*
X8735964Y2290548D2*
Y2162939D1*
X8693427Y2290548D2*
X8778500D1*
X8817716Y2141881D2*
X8933112D1*
X8972328Y2290548D2*
Y2162939D1*
X9014864D1*
X9033114Y2169116D1*
X9045328Y2181189D1*
X9051364Y2193402D1*
X9057401Y2211512D1*
Y2241975D1*
X9051364Y2260225D1*
X9045328Y2272298D1*
X9033114Y2284512D1*
X9014864Y2290548D1*
X8972328D1*
X9133117D2*
X9120903Y2284512D1*
X9108830Y2272298D1*
X9102653Y2260225D1*
X9096617Y2241975D1*
Y2211512D1*
X9102653Y2193402D1*
X9108830Y2181189D1*
X9120903Y2169116D1*
X9133117Y2162939D1*
X9157403D1*
X9169476Y2169116D1*
X9181690Y2181189D1*
X9187726Y2193402D1*
X9193763Y2211512D1*
Y2241975D1*
X9187726Y2260225D1*
X9181690Y2272298D1*
X9169476Y2284512D1*
X9157403Y2290548D1*
X9133117D1*
X8688337Y2036548D2*
Y1908939D1*
X8645801Y2036548D2*
X8730874D1*
X8770089Y1887881D2*
X8885486D1*
X8924701Y2036548D2*
Y1908939D1*
X8963917Y1975762D2*
X9018526D1*
X9036776Y1981939D1*
X9042953Y1987975D1*
X9048990Y2000048D1*
Y2012262D1*
X9042953Y2024335D1*
X9036776Y2030512D1*
X9018526Y2036548D1*
X8963917D1*
Y1908939D1*
X9006453Y1975762D2*
X9048990Y1908939D1*
X9124706Y2036548D2*
X9112633Y2030652D1*
X9100419Y2018439D1*
X9094383Y2006225D1*
X9088206Y1987975D1*
Y1957652D1*
X9094383Y1939402D1*
X9100419Y1927329D1*
X9112633Y1915116D1*
X9124706Y1909079D1*
X9148992D1*
X9161206Y1915116D1*
X9173279Y1927329D1*
X9179315Y1939402D1*
X9185492Y1957652D1*
Y1987975D1*
X9179315Y2006225D1*
X9173279Y2018439D1*
X9161206Y2030652D1*
X9148992Y2036548D1*
X9124706D1*
X9142956Y1933366D2*
X9179315Y1896866D1*
X916339Y4213014D2*
Y4279697D1*
X964912Y4243337D1*
Y4261587D1*
X970948Y4273660D1*
X976985Y4279697D1*
X995235Y4285874D1*
X1007308D1*
X1025558Y4279697D1*
X1037771Y4267624D1*
X1043808Y4249374D1*
Y4231124D1*
X1037771Y4213014D1*
X1031595Y4206978D1*
X1019521Y4200801D1*
X1031595Y4331126D2*
X1037771Y4325089D1*
X1043808Y4331126D1*
X1037771Y4337303D1*
X1031595Y4331126D1*
X916339Y4388732D2*
Y4455415D1*
X964912Y4419055D1*
Y4437305D1*
X970948Y4449378D1*
X976985Y4455415D1*
X995235Y4461592D1*
X1007308D1*
X1025558Y4455415D1*
X1037771Y4443342D1*
X1043808Y4425092D1*
Y4406842D1*
X1037771Y4388732D1*
X1031595Y4382695D1*
X1019521Y4376518D1*
X916198Y4500807D2*
X1043808Y4549380D1*
X916198Y4597953D1*
X1200521Y4355410D2*
X1188448Y4349374D1*
X1176235Y4337160D1*
X1170198Y4325087D1*
Y4300801D1*
X1176235Y4288587D1*
X1188448Y4276514D1*
X1200521Y4270337D1*
X1218771Y4264301D1*
X1249235D1*
X1267345Y4270337D1*
X1279558Y4276514D1*
X1291631Y4288587D1*
X1297808Y4300801D1*
Y4325087D1*
X1291631Y4337160D1*
X1279558Y4349374D1*
X1267345Y4355410D1*
X1249235D1*
Y4325087D1*
X1170198Y4479699D2*
X1297808D1*
X1170198Y4394626D1*
X1297808D1*
X1170198Y4518915D2*
X1297808D1*
Y4561451D1*
X1291631Y4579701D1*
X1279558Y4591915D1*
X1267345Y4597951D1*
X1249235Y4603988D1*
X1218771D1*
X1200521Y4597951D1*
X1188448Y4591915D1*
X1176235Y4579701D1*
X1170198Y4561451D1*
Y4518915D1*
X1470395Y4117287D2*
X1458322Y4111250D1*
X1446108Y4099037D1*
X1440072Y4086964D1*
Y4062677D1*
X1446108Y4050464D1*
X1458322Y4038391D1*
X1470395Y4032214D1*
X1488645Y4026177D1*
X1519108D1*
X1537218Y4032214D1*
X1549431Y4038391D1*
X1561504Y4050464D1*
X1567681Y4062677D1*
Y4086964D1*
X1561504Y4099037D1*
X1549431Y4111250D1*
X1537218Y4117287D1*
X1519108D1*
Y4086964D1*
X1506895Y4156503D2*
Y4211253D1*
X1500858Y4229362D1*
X1494681Y4235539D1*
X1482608Y4241576D1*
X1464358D1*
X1452285Y4235539D1*
X1446108Y4229362D1*
X1440072Y4211253D1*
Y4156503D1*
X1567681D1*
X1440072Y4280791D2*
X1567681D1*
X1440072Y4356507D2*
X1446108Y4344294D1*
X1458322Y4332220D1*
X1470395Y4326044D1*
X1488645Y4320007D1*
X1519108D1*
X1537218Y4326044D1*
X1549431Y4332220D1*
X1561504Y4344294D1*
X1567681Y4356507D1*
Y4380794D1*
X1561504Y4392867D1*
X1549431Y4405080D1*
X1537218Y4411117D1*
X1519108Y4417153D1*
X1488645D1*
X1470395Y4411117D1*
X1458322Y4405080D1*
X1446108Y4392867D1*
X1440072Y4380794D1*
Y4356507D1*
X1464499Y4456369D2*
X1458322Y4468582D1*
X1440212Y4486832D1*
X1567681D1*
X1440212Y4598908D2*
Y4538261D1*
X1494822Y4532225D1*
X1488785Y4538261D1*
X1482608Y4556511D1*
Y4574621D1*
X1488785Y4592871D1*
X1500858Y4605085D1*
X1519108Y4611121D1*
X1531181D1*
X1549431Y4605085D1*
X1561645Y4592871D1*
X1567681Y4574621D1*
Y4556511D1*
X1561645Y4538261D1*
X1555468Y4532225D1*
X1543395Y4526048D1*
X1724398Y4180787D2*
X1712325Y4174750D1*
X1700112Y4162537D1*
X1694075Y4150464D1*
Y4126177D1*
X1700112Y4113964D1*
X1712325Y4101891D1*
X1724398Y4095714D1*
X1742648Y4089677D1*
X1773112D1*
X1791221Y4095714D1*
X1803435Y4101891D1*
X1815508Y4113964D1*
X1821685Y4126177D1*
Y4150464D1*
X1815508Y4162537D1*
X1803435Y4174750D1*
X1791221Y4180787D1*
X1773112D1*
Y4150464D1*
X1760898Y4220003D2*
Y4274753D1*
X1754862Y4292862D1*
X1748685Y4299039D1*
X1736612Y4305076D1*
X1718362D1*
X1706289Y4299039D1*
X1700112Y4292862D1*
X1694075Y4274753D1*
Y4220003D1*
X1821685D1*
X1694075Y4344291D2*
X1821685D1*
X1694075Y4420007D2*
X1700112Y4407794D1*
X1712325Y4395720D1*
X1724398Y4389544D1*
X1742648Y4383507D1*
X1773112D1*
X1791221Y4389544D1*
X1803435Y4395720D1*
X1815508Y4407794D1*
X1821685Y4420007D1*
Y4444294D1*
X1815508Y4456367D1*
X1803435Y4468580D1*
X1791221Y4474617D1*
X1773112Y4480653D1*
X1742648D1*
X1724398Y4474617D1*
X1712325Y4468580D1*
X1700112Y4456367D1*
X1694075Y4444294D1*
Y4420007D1*
X1724539Y4526046D2*
X1718502D1*
X1706289Y4532082D1*
X1700252Y4538119D1*
X1694215Y4550332D1*
Y4574619D1*
X1700252Y4586692D1*
X1706289Y4592728D1*
X1718502Y4598905D1*
X1730575D1*
X1742789Y4592728D1*
X1760898Y4580655D1*
X1821685Y4519869D1*
Y4604942D1*
X1978398Y4164910D2*
X1966325Y4158874D1*
X1954112Y4146660D1*
X1948075Y4134587D1*
Y4110301D1*
X1954112Y4098087D1*
X1966325Y4086014D1*
X1978398Y4079837D1*
X1996648Y4073801D1*
X2027112D1*
X2045221Y4079837D1*
X2057435Y4086014D1*
X2069508Y4098087D1*
X2075685Y4110301D1*
Y4134587D1*
X2069508Y4146660D1*
X2057435Y4158874D1*
X2045221Y4164910D1*
X2027112D1*
Y4134587D1*
X2014898Y4204126D2*
Y4258876D1*
X2008862Y4276986D1*
X2002685Y4283162D1*
X1990612Y4289199D1*
X1972362D1*
X1960289Y4283162D1*
X1954112Y4276986D1*
X1948075Y4258876D1*
Y4204126D1*
X2075685D1*
X1948075Y4328415D2*
X2075685D1*
X1948075Y4404130D2*
X1954112Y4391917D1*
X1966325Y4379844D1*
X1978398Y4373667D1*
X1996648Y4367630D1*
X2027112D1*
X2045221Y4373667D1*
X2057435Y4379844D1*
X2069508Y4391917D1*
X2075685Y4404130D1*
Y4428417D1*
X2069508Y4440490D1*
X2057435Y4452703D1*
X2045221Y4458740D1*
X2027112Y4464776D1*
X1996648D1*
X1978398Y4458740D1*
X1966325Y4452703D1*
X1954112Y4440490D1*
X1948075Y4428417D1*
Y4404130D1*
X2075685Y4564779D2*
X1948215D1*
X2033148Y4503992D1*
Y4595102D1*
X2232398Y4101414D2*
X2220325Y4095377D1*
X2208112Y4083164D1*
X2202075Y4071090D1*
Y4046804D1*
X2208112Y4034590D1*
X2220325Y4022517D1*
X2232398Y4016340D1*
X2250648Y4010304D1*
X2281112D1*
X2299221Y4016340D1*
X2311435Y4022517D1*
X2323508Y4034590D1*
X2329685Y4046804D1*
Y4071090D1*
X2323508Y4083164D1*
X2311435Y4095377D1*
X2299221Y4101414D1*
X2281112D1*
Y4071090D1*
X2268898Y4140629D2*
Y4195379D1*
X2262862Y4213489D1*
X2256685Y4219666D1*
X2244612Y4225702D1*
X2226362D1*
X2214289Y4219666D1*
X2208112Y4213489D1*
X2202075Y4195379D1*
Y4140629D1*
X2329685D1*
X2202075Y4264918D2*
X2329685D1*
X2202075Y4340634D2*
X2208112Y4328420D1*
X2220325Y4316347D1*
X2232398Y4310170D1*
X2250648Y4304134D1*
X2281112D1*
X2299221Y4310170D1*
X2311435Y4316347D1*
X2323508Y4328420D1*
X2329685Y4340634D1*
Y4364920D1*
X2323508Y4376993D1*
X2311435Y4389207D1*
X2299221Y4395243D1*
X2281112Y4401280D1*
X2250648D1*
X2232398Y4395243D1*
X2220325Y4389207D1*
X2208112Y4376993D1*
X2202075Y4364920D1*
Y4340634D1*
X2226502Y4440496D2*
X2220325Y4452709D1*
X2202215Y4470959D1*
X2329685D1*
X2220325Y4583034D2*
X2208252Y4576998D1*
X2202215Y4558748D1*
Y4546675D1*
X2208252Y4528425D1*
X2226502Y4516211D1*
X2256825Y4510175D1*
X2287148D1*
X2311435Y4516211D1*
X2323648Y4528425D1*
X2329685Y4546675D1*
Y4552711D1*
X2323648Y4570821D1*
X2311435Y4583034D1*
X2293185Y4589071D1*
X2287148D1*
X2268898Y4583034D1*
X2256825Y4570821D1*
X2250789Y4552711D1*
Y4546675D1*
X2256825Y4528425D1*
X2268898Y4516211D1*
X2287148Y4510175D1*
X2470521Y4101414D2*
X2458448Y4095377D1*
X2446235Y4083164D1*
X2440198Y4071090D1*
Y4046804D1*
X2446235Y4034590D1*
X2458448Y4022517D1*
X2470521Y4016340D1*
X2488771Y4010304D1*
X2519235D1*
X2537345Y4016340D1*
X2549558Y4022517D1*
X2561631Y4034590D1*
X2567808Y4046804D1*
Y4071090D1*
X2561631Y4083164D1*
X2549558Y4095377D1*
X2537345Y4101414D1*
X2519235D1*
Y4071090D1*
X2507021Y4140629D2*
Y4195379D1*
X2500985Y4213489D1*
X2494808Y4219666D1*
X2482735Y4225702D1*
X2464485D1*
X2452412Y4219666D1*
X2446235Y4213489D1*
X2440198Y4195379D1*
Y4140629D1*
X2567808D1*
X2440198Y4264918D2*
X2567808D1*
X2440198Y4340634D2*
X2446235Y4328420D1*
X2458448Y4316347D1*
X2470521Y4310170D1*
X2488771Y4304134D1*
X2519235D1*
X2537345Y4310170D1*
X2549558Y4316347D1*
X2561631Y4328420D1*
X2567808Y4340634D1*
Y4364920D1*
X2561631Y4376993D1*
X2549558Y4389207D1*
X2537345Y4395243D1*
X2519235Y4401280D1*
X2488771D1*
X2470521Y4395243D1*
X2458448Y4389207D1*
X2446235Y4376993D1*
X2440198Y4364920D1*
Y4340634D1*
X2464625Y4440496D2*
X2458448Y4452709D1*
X2440339Y4470959D1*
X2567808D1*
Y4534461D2*
X2440339Y4595248D1*
Y4510175D1*
X2740395Y4164910D2*
X2728322Y4158874D1*
X2716108Y4146660D1*
X2710072Y4134587D1*
Y4110301D1*
X2716108Y4098087D1*
X2728322Y4086014D1*
X2740395Y4079837D1*
X2758645Y4073801D1*
X2789108D1*
X2807218Y4079837D1*
X2819431Y4086014D1*
X2831504Y4098087D1*
X2837681Y4110301D1*
Y4134587D1*
X2831504Y4146660D1*
X2819431Y4158874D1*
X2807218Y4164910D1*
X2789108D1*
Y4134587D1*
X2776895Y4204126D2*
Y4258876D1*
X2770858Y4276986D1*
X2764681Y4283162D1*
X2752608Y4289199D1*
X2734358D1*
X2722285Y4283162D1*
X2716108Y4276986D1*
X2710072Y4258876D1*
Y4204126D1*
X2837681D1*
X2710072Y4328415D2*
X2837681D1*
X2710072Y4404130D2*
X2716108Y4391917D1*
X2728322Y4379844D1*
X2740395Y4373667D1*
X2758645Y4367630D1*
X2789108D1*
X2807218Y4373667D1*
X2819431Y4379844D1*
X2831504Y4391917D1*
X2837681Y4404130D1*
Y4428417D1*
X2831504Y4440490D1*
X2819431Y4452703D1*
X2807218Y4458740D1*
X2789108Y4464776D1*
X2758645D1*
X2740395Y4458740D1*
X2728322Y4452703D1*
X2716108Y4440490D1*
X2710072Y4428417D1*
Y4404130D1*
X2710212Y4576852D2*
Y4516206D1*
X2764822Y4510169D1*
X2758785Y4516206D1*
X2752608Y4534456D1*
Y4552565D1*
X2758785Y4570815D1*
X2770858Y4583029D1*
X2789108Y4589065D1*
X2801181D1*
X2819431Y4583029D1*
X2831645Y4570815D1*
X2837681Y4552565D1*
Y4534456D1*
X2831645Y4516206D1*
X2825468Y4510169D1*
X2813395Y4503992D1*
X2994398Y4101414D2*
X2982325Y4095377D1*
X2970112Y4083164D1*
X2964075Y4071090D1*
Y4046804D1*
X2970112Y4034590D1*
X2982325Y4022517D1*
X2994398Y4016340D1*
X3012648Y4010304D1*
X3043112D1*
X3061221Y4016340D1*
X3073435Y4022517D1*
X3085508Y4034590D1*
X3091685Y4046804D1*
Y4071090D1*
X3085508Y4083164D1*
X3073435Y4095377D1*
X3061221Y4101414D1*
X3043112D1*
Y4071090D1*
X3030898Y4140629D2*
Y4195379D1*
X3024862Y4213489D1*
X3018685Y4219666D1*
X3006612Y4225702D1*
X2988362D1*
X2976289Y4219666D1*
X2970112Y4213489D1*
X2964075Y4195379D1*
Y4140629D1*
X3091685D1*
X2964075Y4264918D2*
X3091685D1*
X2964075Y4340634D2*
X2970112Y4328420D1*
X2982325Y4316347D1*
X2994398Y4310170D1*
X3012648Y4304134D1*
X3043112D1*
X3061221Y4310170D1*
X3073435Y4316347D1*
X3085508Y4328420D1*
X3091685Y4340634D1*
Y4364920D1*
X3085508Y4376993D1*
X3073435Y4389207D1*
X3061221Y4395243D1*
X3043112Y4401280D1*
X3012648D1*
X2994398Y4395243D1*
X2982325Y4389207D1*
X2970112Y4376993D1*
X2964075Y4364920D1*
Y4340634D1*
X2988502Y4440496D2*
X2982325Y4452709D1*
X2964215Y4470959D1*
X3091685D1*
X2964215Y4540498D2*
X2970252Y4522388D1*
X2982325Y4516211D1*
X2994539D1*
X3006612Y4522388D1*
X3012789Y4534461D1*
X3018825Y4558748D1*
X3024862Y4576998D1*
X3037075Y4589071D1*
X3049148Y4595107D1*
X3067398D1*
X3079471Y4589071D1*
X3085648Y4583034D1*
X3091685Y4564784D1*
Y4540498D1*
X3085648Y4522388D1*
X3079471Y4516211D1*
X3067398Y4510175D1*
X3049148D1*
X3037075Y4516211D1*
X3024862Y4528425D1*
X3018825Y4546534D1*
X3012789Y4570821D1*
X3006612Y4583034D1*
X2994539Y4589071D1*
X2982325D1*
X2970252Y4583034D1*
X2964215Y4564784D1*
Y4540498D1*
X3248395Y4101414D2*
X3236322Y4095377D1*
X3224108Y4083164D1*
X3218072Y4071090D1*
Y4046804D1*
X3224108Y4034590D1*
X3236322Y4022517D1*
X3248395Y4016340D1*
X3266645Y4010304D1*
X3297108D1*
X3315218Y4016340D1*
X3327431Y4022517D1*
X3339504Y4034590D1*
X3345681Y4046804D1*
Y4071090D1*
X3339504Y4083164D1*
X3327431Y4095377D1*
X3315218Y4101414D1*
X3297108D1*
Y4071090D1*
X3284895Y4140629D2*
Y4195379D1*
X3278858Y4213489D1*
X3272681Y4219666D1*
X3260608Y4225702D1*
X3242358D1*
X3230285Y4219666D1*
X3224108Y4213489D1*
X3218072Y4195379D1*
Y4140629D1*
X3345681D1*
X3218072Y4264918D2*
X3345681D1*
X3218072Y4340634D2*
X3224108Y4328420D1*
X3236322Y4316347D1*
X3248395Y4310170D1*
X3266645Y4304134D1*
X3297108D1*
X3315218Y4310170D1*
X3327431Y4316347D1*
X3339504Y4328420D1*
X3345681Y4340634D1*
Y4364920D1*
X3339504Y4376993D1*
X3327431Y4389207D1*
X3315218Y4395243D1*
X3297108Y4401280D1*
X3266645D1*
X3248395Y4395243D1*
X3236322Y4389207D1*
X3224108Y4376993D1*
X3218072Y4364920D1*
Y4340634D1*
X3242499Y4440496D2*
X3236322Y4452709D1*
X3218212Y4470959D1*
X3345681D1*
X3260608Y4589211D2*
X3278858Y4583034D1*
X3291072Y4570961D1*
X3297108Y4552711D1*
Y4546675D1*
X3291072Y4528425D1*
X3278858Y4516352D1*
X3260608Y4510175D1*
X3254572D1*
X3236322Y4516352D1*
X3224249Y4528425D1*
X3218212Y4546675D1*
Y4552711D1*
X3224249Y4570961D1*
X3236322Y4583034D1*
X3260608Y4589211D1*
X3291072D1*
X3321395Y4583034D1*
X3339645Y4570961D1*
X3345681Y4552711D1*
Y4540638D1*
X3339645Y4522388D1*
X3327431Y4516352D1*
X3502398Y4085537D2*
X3490325Y4079500D1*
X3478112Y4067287D1*
X3472075Y4055214D1*
Y4030927D1*
X3478112Y4018714D1*
X3490325Y4006641D1*
X3502398Y4000464D1*
X3520648Y3994427D1*
X3551112D1*
X3569221Y4000464D1*
X3581435Y4006641D1*
X3593508Y4018714D1*
X3599685Y4030927D1*
Y4055214D1*
X3593508Y4067287D1*
X3581435Y4079500D1*
X3569221Y4085537D1*
X3551112D1*
Y4055214D1*
X3538898Y4124753D2*
Y4179503D1*
X3532862Y4197612D1*
X3526685Y4203789D1*
X3514612Y4209826D1*
X3496362D1*
X3484289Y4203789D1*
X3478112Y4197612D1*
X3472075Y4179503D1*
Y4124753D1*
X3599685D1*
X3472075Y4249041D2*
X3599685D1*
X3472075Y4324757D2*
X3478112Y4312544D1*
X3490325Y4300470D1*
X3502398Y4294294D1*
X3520648Y4288257D1*
X3551112D1*
X3569221Y4294294D1*
X3581435Y4300470D1*
X3593508Y4312544D1*
X3599685Y4324757D1*
Y4349044D1*
X3593508Y4361117D1*
X3581435Y4373330D1*
X3569221Y4379367D1*
X3551112Y4385403D1*
X3520648D1*
X3502398Y4379367D1*
X3490325Y4373330D1*
X3478112Y4361117D1*
X3472075Y4349044D1*
Y4324757D1*
X3502539Y4430796D2*
X3496502D1*
X3484289Y4436832D1*
X3478252Y4442869D1*
X3472215Y4455082D1*
Y4479369D1*
X3478252Y4491442D1*
X3484289Y4497478D1*
X3496502Y4503655D1*
X3508575D1*
X3520789Y4497478D1*
X3538898Y4485405D1*
X3599685Y4424619D1*
Y4509692D1*
X3496502Y4548908D2*
X3490325Y4561121D1*
X3472215Y4579371D1*
X3599685D1*
X3786862Y4248427D2*
Y4303037D1*
X3780685Y4321287D1*
X3774648Y4327464D1*
X3762575Y4333500D1*
X3750362D1*
X3738289Y4327464D1*
X3732112Y4321287D1*
X3726075Y4303037D1*
Y4248427D1*
X3853685D1*
X3786862Y4290964D2*
X3853685Y4333500D1*
X3726075Y4372716D2*
X3853685Y4457789D1*
X3726075D2*
X3853685Y4372716D1*
X3726075Y4497005D2*
X3853685D1*
Y4539541D1*
X3847508Y4557791D1*
X3835435Y4570005D1*
X3823221Y4576041D1*
X3805112Y4582078D1*
X3774648D1*
X3756398Y4576041D1*
X3744325Y4570005D1*
X3732112Y4557791D1*
X3726075Y4539541D1*
Y4497005D1*
X3980075Y4290964D2*
X4107685D1*
X3980075Y4248427D2*
Y4333500D1*
Y4372716D2*
X4107685Y4457789D1*
X3980075D2*
X4107685Y4372716D1*
X3980075Y4497005D2*
X4107685D1*
Y4539541D1*
X4101508Y4557791D1*
X4089435Y4570005D1*
X4077221Y4576041D1*
X4059112Y4582078D1*
X4028648D1*
X4010398Y4576041D1*
X3998325Y4570005D1*
X3986112Y4557791D1*
X3980075Y4539541D1*
Y4497005D1*
X4264398Y4037914D2*
X4252325Y4031877D1*
X4240112Y4019664D1*
X4234075Y4007590D1*
Y3983304D1*
X4240112Y3971090D1*
X4252325Y3959017D1*
X4264398Y3952840D1*
X4282648Y3946804D1*
X4313112D1*
X4331221Y3952840D1*
X4343435Y3959017D1*
X4355508Y3971090D1*
X4361685Y3983304D1*
Y4007590D1*
X4355508Y4019664D1*
X4343435Y4031877D1*
X4331221Y4037914D1*
X4313112D1*
Y4007590D1*
X4300898Y4077129D2*
Y4131879D1*
X4294862Y4149989D1*
X4288685Y4156166D1*
X4276612Y4162202D1*
X4258362D1*
X4246289Y4156166D1*
X4240112Y4149989D1*
X4234075Y4131879D1*
Y4077129D1*
X4361685D1*
X4234075Y4201418D2*
X4361685D1*
X4234075Y4277134D2*
X4240112Y4264920D1*
X4252325Y4252847D1*
X4264398Y4246670D1*
X4282648Y4240634D1*
X4313112D1*
X4331221Y4246670D1*
X4343435Y4252847D1*
X4355508Y4264920D1*
X4361685Y4277134D1*
Y4301420D1*
X4355508Y4313493D1*
X4343435Y4325707D1*
X4331221Y4331743D1*
X4313112Y4337780D1*
X4282648D1*
X4264398Y4331743D1*
X4252325Y4325707D1*
X4240112Y4313493D1*
X4234075Y4301420D1*
Y4277134D1*
X4264539Y4383172D2*
X4258502D1*
X4246289Y4389209D1*
X4240252Y4395246D1*
X4234215Y4407459D1*
Y4431746D1*
X4240252Y4443819D1*
X4246289Y4449855D1*
X4258502Y4456032D1*
X4270575D1*
X4282789Y4449855D1*
X4300898Y4437782D1*
X4361685Y4376996D1*
Y4462069D1*
X4264539Y4507461D2*
X4258502D1*
X4246289Y4513498D1*
X4240252Y4519534D1*
X4234215Y4531748D1*
Y4556034D1*
X4240252Y4568107D1*
X4246289Y4574144D1*
X4258502Y4580321D1*
X4270575D1*
X4282789Y4574144D1*
X4300898Y4562071D1*
X4361685Y4501284D1*
Y4586357D1*
X4518398Y4037914D2*
X4506325Y4031877D1*
X4494112Y4019664D1*
X4488075Y4007590D1*
Y3983304D1*
X4494112Y3971090D1*
X4506325Y3959017D1*
X4518398Y3952840D1*
X4536648Y3946804D1*
X4567112D1*
X4585221Y3952840D1*
X4597435Y3959017D1*
X4609508Y3971090D1*
X4615685Y3983304D1*
Y4007590D1*
X4609508Y4019664D1*
X4597435Y4031877D1*
X4585221Y4037914D1*
X4567112D1*
Y4007590D1*
X4554898Y4077129D2*
Y4131879D1*
X4548862Y4149989D1*
X4542685Y4156166D1*
X4530612Y4162202D1*
X4512362D1*
X4500289Y4156166D1*
X4494112Y4149989D1*
X4488075Y4131879D1*
Y4077129D1*
X4615685D1*
X4488075Y4201418D2*
X4615685D1*
X4488075Y4277134D2*
X4494112Y4264920D1*
X4506325Y4252847D1*
X4518398Y4246670D1*
X4536648Y4240634D1*
X4567112D1*
X4585221Y4246670D1*
X4597435Y4252847D1*
X4609508Y4264920D1*
X4615685Y4277134D1*
Y4301420D1*
X4609508Y4313493D1*
X4597435Y4325707D1*
X4585221Y4331743D1*
X4567112Y4337780D1*
X4536648D1*
X4518398Y4331743D1*
X4506325Y4325707D1*
X4494112Y4313493D1*
X4488075Y4301420D1*
Y4277134D1*
X4518539Y4383172D2*
X4512502D1*
X4500289Y4389209D1*
X4494252Y4395246D1*
X4488215Y4407459D1*
Y4431746D1*
X4494252Y4443819D1*
X4500289Y4449855D1*
X4512502Y4456032D1*
X4524575D1*
X4536789Y4449855D1*
X4554898Y4437782D1*
X4615685Y4376996D1*
Y4462069D1*
X4488215Y4513498D2*
Y4580180D1*
X4536789Y4543821D1*
Y4562071D1*
X4542825Y4574144D1*
X4548862Y4580180D1*
X4567112Y4586357D1*
X4579185D1*
X4597435Y4580180D1*
X4609648Y4568107D1*
X4615685Y4549857D1*
Y4531607D1*
X4609648Y4513498D1*
X4603471Y4507461D1*
X4591398Y4501284D1*
X1470395Y2466287D2*
X1458322Y2460250D1*
X1446108Y2448037D1*
X1440072Y2435964D1*
Y2411677D1*
X1446108Y2399464D1*
X1458322Y2387391D1*
X1470395Y2381214D1*
X1488645Y2375177D1*
X1519108D1*
X1537218Y2381214D1*
X1549431Y2387391D1*
X1561504Y2399464D1*
X1567681Y2411677D1*
Y2435964D1*
X1561504Y2448037D1*
X1549431Y2460250D1*
X1537218Y2466287D1*
X1519108D1*
Y2435964D1*
X1506895Y2505503D2*
Y2560253D1*
X1500858Y2578362D1*
X1494681Y2584539D1*
X1482608Y2590576D1*
X1464358D1*
X1452285Y2584539D1*
X1446108Y2578362D1*
X1440072Y2560253D1*
Y2505503D1*
X1567681D1*
X1440072Y2629791D2*
X1567681D1*
X1440072Y2705507D2*
X1446108Y2693294D1*
X1458322Y2681220D1*
X1470395Y2675044D1*
X1488645Y2669007D1*
X1519108D1*
X1537218Y2675044D1*
X1549431Y2681220D1*
X1561504Y2693294D1*
X1567681Y2705507D1*
Y2729794D1*
X1561504Y2741867D1*
X1549431Y2754080D1*
X1537218Y2760117D1*
X1519108Y2766153D1*
X1488645D1*
X1470395Y2760117D1*
X1458322Y2754080D1*
X1446108Y2741867D1*
X1440072Y2729794D1*
Y2705507D1*
X1464499Y2805369D2*
X1458322Y2817582D1*
X1440212Y2835832D1*
X1567681D1*
X1440212Y2887261D2*
Y2953944D1*
X1488785Y2917585D1*
Y2935835D1*
X1494822Y2947908D1*
X1500858Y2953944D1*
X1519108Y2960121D1*
X1531181D1*
X1549431Y2953944D1*
X1561645Y2941871D1*
X1567681Y2923621D1*
Y2905371D1*
X1561645Y2887261D1*
X1555468Y2881225D1*
X1543395Y2875048D1*
X1724398Y2466287D2*
X1712325Y2460250D1*
X1700112Y2448037D1*
X1694075Y2435964D1*
Y2411677D1*
X1700112Y2399464D1*
X1712325Y2387391D1*
X1724398Y2381214D1*
X1742648Y2375177D1*
X1773112D1*
X1791221Y2381214D1*
X1803435Y2387391D1*
X1815508Y2399464D1*
X1821685Y2411677D1*
Y2435964D1*
X1815508Y2448037D1*
X1803435Y2460250D1*
X1791221Y2466287D1*
X1773112D1*
Y2435964D1*
X1760898Y2505503D2*
Y2560253D1*
X1754862Y2578362D1*
X1748685Y2584539D1*
X1736612Y2590576D1*
X1718362D1*
X1706289Y2584539D1*
X1700112Y2578362D1*
X1694075Y2560253D1*
Y2505503D1*
X1821685D1*
X1694075Y2629791D2*
X1821685D1*
X1694075Y2705507D2*
X1700112Y2693294D1*
X1712325Y2681220D1*
X1724398Y2675044D1*
X1742648Y2669007D1*
X1773112D1*
X1791221Y2675044D1*
X1803435Y2681220D1*
X1815508Y2693294D1*
X1821685Y2705507D1*
Y2729794D1*
X1815508Y2741867D1*
X1803435Y2754080D1*
X1791221Y2760117D1*
X1773112Y2766153D1*
X1742648D1*
X1724398Y2760117D1*
X1712325Y2754080D1*
X1700112Y2741867D1*
X1694075Y2729794D1*
Y2705507D1*
X1718502Y2805369D2*
X1712325Y2817582D1*
X1694215Y2835832D1*
X1821685D1*
X1724539Y2881225D2*
X1718502D1*
X1706289Y2887261D1*
X1700252Y2893298D1*
X1694215Y2905511D1*
Y2929798D1*
X1700252Y2941871D1*
X1706289Y2947908D1*
X1718502Y2954085D1*
X1730575D1*
X1742789Y2947908D1*
X1760898Y2935835D1*
X1821685Y2875048D1*
Y2960121D1*
X1962521Y2466287D2*
X1950448Y2460250D1*
X1938235Y2448037D1*
X1932198Y2435964D1*
Y2411677D1*
X1938235Y2399464D1*
X1950448Y2387391D1*
X1962521Y2381214D1*
X1980771Y2375177D1*
X2011235D1*
X2029345Y2381214D1*
X2041558Y2387391D1*
X2053631Y2399464D1*
X2059808Y2411677D1*
Y2435964D1*
X2053631Y2448037D1*
X2041558Y2460250D1*
X2029345Y2466287D1*
X2011235D1*
Y2435964D1*
X1999021Y2505503D2*
Y2560253D1*
X1992985Y2578362D1*
X1986808Y2584539D1*
X1974735Y2590576D1*
X1956485D1*
X1944412Y2584539D1*
X1938235Y2578362D1*
X1932198Y2560253D1*
Y2505503D1*
X2059808D1*
X1932198Y2629791D2*
X2059808D1*
X1932198Y2705507D2*
X1938235Y2693294D1*
X1950448Y2681220D1*
X1962521Y2675044D1*
X1980771Y2669007D1*
X2011235D1*
X2029345Y2675044D1*
X2041558Y2681220D1*
X2053631Y2693294D1*
X2059808Y2705507D1*
Y2729794D1*
X2053631Y2741867D1*
X2041558Y2754080D1*
X2029345Y2760117D1*
X2011235Y2766153D1*
X1980771D1*
X1962521Y2760117D1*
X1950448Y2754080D1*
X1938235Y2741867D1*
X1932198Y2729794D1*
Y2705507D1*
X1956625Y2805369D2*
X1950448Y2817582D1*
X1932339Y2835832D1*
X2059808D1*
Y2935835D2*
X1932339D1*
X2017271Y2875048D1*
Y2966158D1*
X932212Y2448037D2*
Y2387391D1*
X986822Y2381354D1*
X980785Y2387391D1*
X974608Y2405641D1*
Y2423750D1*
X980785Y2442000D1*
X992858Y2454214D1*
X1011108Y2460250D1*
X1023181D1*
X1041431Y2454214D1*
X1053645Y2442000D1*
X1059681Y2423750D1*
Y2405641D1*
X1053645Y2387391D1*
X1047468Y2381354D1*
X1035395Y2375177D1*
X932072Y2499466D2*
X1059681Y2548039D1*
X932072Y2596612D1*
X1216398Y2466287D2*
X1204325Y2460250D1*
X1192112Y2448037D1*
X1186075Y2435964D1*
Y2411677D1*
X1192112Y2399464D1*
X1204325Y2387391D1*
X1216398Y2381214D1*
X1234648Y2375177D1*
X1265112D1*
X1283221Y2381214D1*
X1295435Y2387391D1*
X1307508Y2399464D1*
X1313685Y2411677D1*
Y2435964D1*
X1307508Y2448037D1*
X1295435Y2460250D1*
X1283221Y2466287D1*
X1265112D1*
Y2435964D1*
X1186075Y2590576D2*
X1313685D1*
X1186075Y2505503D1*
X1313685D1*
X1186075Y2629791D2*
X1313685D1*
Y2672328D1*
X1307508Y2690578D1*
X1295435Y2702791D1*
X1283221Y2708828D1*
X1265112Y2714864D1*
X1234648D1*
X1216398Y2708828D1*
X1204325Y2702791D1*
X1192112Y2690578D1*
X1186075Y2672328D1*
Y2629791D1*
X2232398Y2466287D2*
X2220325Y2460250D1*
X2208112Y2448037D1*
X2202075Y2435964D1*
Y2411677D1*
X2208112Y2399464D1*
X2220325Y2387391D1*
X2232398Y2381214D1*
X2250648Y2375177D1*
X2281112D1*
X2299221Y2381214D1*
X2311435Y2387391D1*
X2323508Y2399464D1*
X2329685Y2411677D1*
Y2435964D1*
X2323508Y2448037D1*
X2311435Y2460250D1*
X2299221Y2466287D1*
X2281112D1*
Y2435964D1*
X2268898Y2505503D2*
Y2560253D1*
X2262862Y2578362D1*
X2256685Y2584539D1*
X2244612Y2590576D1*
X2226362D1*
X2214289Y2584539D1*
X2208112Y2578362D1*
X2202075Y2560253D1*
Y2505503D1*
X2329685D1*
X2202075Y2629791D2*
X2329685D1*
X2202075Y2705507D2*
X2208112Y2693294D1*
X2220325Y2681220D1*
X2232398Y2675044D1*
X2250648Y2669007D1*
X2281112D1*
X2299221Y2675044D1*
X2311435Y2681220D1*
X2323508Y2693294D1*
X2329685Y2705507D1*
Y2729794D1*
X2323508Y2741867D1*
X2311435Y2754080D1*
X2299221Y2760117D1*
X2281112Y2766153D1*
X2250648D1*
X2232398Y2760117D1*
X2220325Y2754080D1*
X2208112Y2741867D1*
X2202075Y2729794D1*
Y2705507D1*
X2232539Y2811546D2*
X2226502D1*
X2214289Y2817582D1*
X2208252Y2823619D1*
X2202215Y2835832D1*
Y2860119D1*
X2208252Y2872192D1*
X2214289Y2878228D1*
X2226502Y2884405D1*
X2238575D1*
X2250789Y2878228D1*
X2268898Y2866155D1*
X2329685Y2805369D1*
Y2890442D1*
Y2953944D2*
X2202215Y3014731D1*
Y2929658D1*
X2486398Y2466287D2*
X2474325Y2460250D1*
X2462112Y2448037D1*
X2456075Y2435964D1*
Y2411677D1*
X2462112Y2399464D1*
X2474325Y2387391D1*
X2486398Y2381214D1*
X2504648Y2375177D1*
X2535112D1*
X2553221Y2381214D1*
X2565435Y2387391D1*
X2577508Y2399464D1*
X2583685Y2411677D1*
Y2435964D1*
X2577508Y2448037D1*
X2565435Y2460250D1*
X2553221Y2466287D1*
X2535112D1*
Y2435964D1*
X2522898Y2505503D2*
Y2560253D1*
X2516862Y2578362D1*
X2510685Y2584539D1*
X2498612Y2590576D1*
X2480362D1*
X2468289Y2584539D1*
X2462112Y2578362D1*
X2456075Y2560253D1*
Y2505503D1*
X2583685D1*
X2456075Y2629791D2*
X2583685D1*
X2456075Y2705507D2*
X2462112Y2693294D1*
X2474325Y2681220D1*
X2486398Y2675044D1*
X2504648Y2669007D1*
X2535112D1*
X2553221Y2675044D1*
X2565435Y2681220D1*
X2577508Y2693294D1*
X2583685Y2705507D1*
Y2729794D1*
X2577508Y2741867D1*
X2565435Y2754080D1*
X2553221Y2760117D1*
X2535112Y2766153D1*
X2504648D1*
X2486398Y2760117D1*
X2474325Y2754080D1*
X2462112Y2741867D1*
X2456075Y2729794D1*
Y2705507D1*
X2486539Y2811546D2*
X2480502D1*
X2468289Y2817582D1*
X2462252Y2823619D1*
X2456215Y2835832D1*
Y2860119D1*
X2462252Y2872192D1*
X2468289Y2878228D1*
X2480502Y2884405D1*
X2492575D1*
X2504789Y2878228D1*
X2522898Y2866155D1*
X2583685Y2805369D1*
Y2890442D1*
X2474325Y3002517D2*
X2462252Y2996481D1*
X2456215Y2978231D1*
Y2966158D1*
X2462252Y2947908D1*
X2480502Y2935694D1*
X2510825Y2929658D1*
X2541148D1*
X2565435Y2935694D1*
X2577648Y2947908D1*
X2583685Y2966158D1*
Y2972194D1*
X2577648Y2990304D1*
X2565435Y3002517D1*
X2547185Y3008554D1*
X2541148D1*
X2522898Y3002517D1*
X2510825Y2990304D1*
X2504789Y2972194D1*
Y2966158D1*
X2510825Y2947908D1*
X2522898Y2935694D1*
X2541148Y2929658D1*
X2740395Y2466287D2*
X2728322Y2460250D1*
X2716108Y2448037D1*
X2710072Y2435964D1*
Y2411677D1*
X2716108Y2399464D1*
X2728322Y2387391D1*
X2740395Y2381214D1*
X2758645Y2375177D1*
X2789108D1*
X2807218Y2381214D1*
X2819431Y2387391D1*
X2831504Y2399464D1*
X2837681Y2411677D1*
Y2435964D1*
X2831504Y2448037D1*
X2819431Y2460250D1*
X2807218Y2466287D1*
X2789108D1*
Y2435964D1*
X2776895Y2505503D2*
Y2560253D1*
X2770858Y2578362D1*
X2764681Y2584539D1*
X2752608Y2590576D1*
X2734358D1*
X2722285Y2584539D1*
X2716108Y2578362D1*
X2710072Y2560253D1*
Y2505503D1*
X2837681D1*
X2710072Y2629791D2*
X2837681D1*
X2710072Y2705507D2*
X2716108Y2693294D1*
X2728322Y2681220D1*
X2740395Y2675044D1*
X2758645Y2669007D1*
X2789108D1*
X2807218Y2675044D1*
X2819431Y2681220D1*
X2831504Y2693294D1*
X2837681Y2705507D1*
Y2729794D1*
X2831504Y2741867D1*
X2819431Y2754080D1*
X2807218Y2760117D1*
X2789108Y2766153D1*
X2758645D1*
X2740395Y2760117D1*
X2728322Y2754080D1*
X2716108Y2741867D1*
X2710072Y2729794D1*
Y2705507D1*
X2740535Y2811546D2*
X2734499D1*
X2722285Y2817582D1*
X2716249Y2823619D1*
X2710212Y2835832D1*
Y2860119D1*
X2716249Y2872192D1*
X2722285Y2878228D1*
X2734499Y2884405D1*
X2746572D1*
X2758785Y2878228D1*
X2776895Y2866155D1*
X2837681Y2805369D1*
Y2890442D1*
X2710212Y3002517D2*
Y2941871D1*
X2764822Y2935835D1*
X2758785Y2941871D1*
X2752608Y2960121D1*
Y2978231D1*
X2758785Y2996481D1*
X2770858Y3008694D1*
X2789108Y3014731D1*
X2801181D1*
X2819431Y3008694D1*
X2831645Y2996481D1*
X2837681Y2978231D1*
Y2960121D1*
X2831645Y2941871D1*
X2825468Y2935835D1*
X2813395Y2929658D1*
X3248395Y2466287D2*
X3236322Y2460250D1*
X3224108Y2448037D1*
X3218072Y2435964D1*
Y2411677D1*
X3224108Y2399464D1*
X3236322Y2387391D1*
X3248395Y2381214D1*
X3266645Y2375177D1*
X3297108D1*
X3315218Y2381214D1*
X3327431Y2387391D1*
X3339504Y2399464D1*
X3345681Y2411677D1*
Y2435964D1*
X3339504Y2448037D1*
X3327431Y2460250D1*
X3315218Y2466287D1*
X3297108D1*
Y2435964D1*
X3284895Y2505503D2*
Y2560253D1*
X3278858Y2578362D1*
X3272681Y2584539D1*
X3260608Y2590576D1*
X3242358D1*
X3230285Y2584539D1*
X3224108Y2578362D1*
X3218072Y2560253D1*
Y2505503D1*
X3345681D1*
X3218072Y2629791D2*
X3345681D1*
X3218072Y2705507D2*
X3224108Y2693294D1*
X3236322Y2681220D1*
X3248395Y2675044D1*
X3266645Y2669007D1*
X3297108D1*
X3315218Y2675044D1*
X3327431Y2681220D1*
X3339504Y2693294D1*
X3345681Y2705507D1*
Y2729794D1*
X3339504Y2741867D1*
X3327431Y2754080D1*
X3315218Y2760117D1*
X3297108Y2766153D1*
X3266645D1*
X3248395Y2760117D1*
X3236322Y2754080D1*
X3224108Y2741867D1*
X3218072Y2729794D1*
Y2705507D1*
X3218212Y2817582D2*
Y2884265D1*
X3266785Y2847905D1*
Y2866155D1*
X3272822Y2878228D1*
X3278858Y2884265D1*
X3297108Y2890442D1*
X3309181D1*
X3327431Y2884265D1*
X3339645Y2872192D1*
X3345681Y2853942D1*
Y2835692D1*
X3339645Y2817582D1*
X3333468Y2811546D1*
X3321395Y2805369D1*
X3248535Y2935835D2*
X3242499D1*
X3230285Y2941871D1*
X3224249Y2947908D1*
X3218212Y2960121D1*
Y2984408D1*
X3224249Y2996481D1*
X3230285Y3002517D1*
X3242499Y3008694D1*
X3254572D1*
X3266785Y3002517D1*
X3284895Y2990444D1*
X3345681Y2929658D1*
Y3014731D1*
X2994398Y2466287D2*
X2982325Y2460250D1*
X2970112Y2448037D1*
X2964075Y2435964D1*
Y2411677D1*
X2970112Y2399464D1*
X2982325Y2387391D1*
X2994398Y2381214D1*
X3012648Y2375177D1*
X3043112D1*
X3061221Y2381214D1*
X3073435Y2387391D1*
X3085508Y2399464D1*
X3091685Y2411677D1*
Y2435964D1*
X3085508Y2448037D1*
X3073435Y2460250D1*
X3061221Y2466287D1*
X3043112D1*
Y2435964D1*
X3030898Y2505503D2*
Y2560253D1*
X3024862Y2578362D1*
X3018685Y2584539D1*
X3006612Y2590576D1*
X2988362D1*
X2976289Y2584539D1*
X2970112Y2578362D1*
X2964075Y2560253D1*
Y2505503D1*
X3091685D1*
X2964075Y2629791D2*
X3091685D1*
X2964075Y2705507D2*
X2970112Y2693294D1*
X2982325Y2681220D1*
X2994398Y2675044D1*
X3012648Y2669007D1*
X3043112D1*
X3061221Y2675044D1*
X3073435Y2681220D1*
X3085508Y2693294D1*
X3091685Y2705507D1*
Y2729794D1*
X3085508Y2741867D1*
X3073435Y2754080D1*
X3061221Y2760117D1*
X3043112Y2766153D1*
X3012648D1*
X2994398Y2760117D1*
X2982325Y2754080D1*
X2970112Y2741867D1*
X2964075Y2729794D1*
Y2705507D1*
X2964215Y2817582D2*
Y2884265D1*
X3012789Y2847905D1*
Y2866155D1*
X3018825Y2878228D1*
X3024862Y2884265D1*
X3043112Y2890442D1*
X3055185D1*
X3073435Y2884265D1*
X3085648Y2872192D1*
X3091685Y2853942D1*
Y2835692D1*
X3085648Y2817582D1*
X3079471Y2811546D1*
X3067398Y2805369D1*
X2964215Y2941871D2*
Y3008554D1*
X3012789Y2972194D1*
Y2990444D1*
X3018825Y3002517D1*
X3024862Y3008554D1*
X3043112Y3014731D1*
X3055185D1*
X3073435Y3008554D1*
X3085648Y2996481D1*
X3091685Y2978231D1*
Y2959981D1*
X3085648Y2941871D1*
X3079471Y2935835D1*
X3067398Y2929658D1*
X3502398Y2466287D2*
X3490325Y2460250D1*
X3478112Y2448037D1*
X3472075Y2435964D1*
Y2411677D1*
X3478112Y2399464D1*
X3490325Y2387391D1*
X3502398Y2381214D1*
X3520648Y2375177D1*
X3551112D1*
X3569221Y2381214D1*
X3581435Y2387391D1*
X3593508Y2399464D1*
X3599685Y2411677D1*
Y2435964D1*
X3593508Y2448037D1*
X3581435Y2460250D1*
X3569221Y2466287D1*
X3551112D1*
Y2435964D1*
X3538898Y2505503D2*
Y2560253D1*
X3532862Y2578362D1*
X3526685Y2584539D1*
X3514612Y2590576D1*
X3496362D1*
X3484289Y2584539D1*
X3478112Y2578362D1*
X3472075Y2560253D1*
Y2505503D1*
X3599685D1*
X3472075Y2629791D2*
X3599685D1*
X3472075Y2705507D2*
X3478112Y2693294D1*
X3490325Y2681220D1*
X3502398Y2675044D1*
X3520648Y2669007D1*
X3551112D1*
X3569221Y2675044D1*
X3581435Y2681220D1*
X3593508Y2693294D1*
X3599685Y2705507D1*
Y2729794D1*
X3593508Y2741867D1*
X3581435Y2754080D1*
X3569221Y2760117D1*
X3551112Y2766153D1*
X3520648D1*
X3502398Y2760117D1*
X3490325Y2754080D1*
X3478112Y2741867D1*
X3472075Y2729794D1*
Y2705507D1*
X3472215Y2817582D2*
Y2884265D1*
X3520789Y2847905D1*
Y2866155D1*
X3526825Y2878228D1*
X3532862Y2884265D1*
X3551112Y2890442D1*
X3563185D1*
X3581435Y2884265D1*
X3593648Y2872192D1*
X3599685Y2853942D1*
Y2835692D1*
X3593648Y2817582D1*
X3587471Y2811546D1*
X3575398Y2805369D1*
X3472215Y3002517D2*
Y2941871D1*
X3526825Y2935835D1*
X3520789Y2941871D1*
X3514612Y2960121D1*
Y2978231D1*
X3520789Y2996481D1*
X3532862Y3008694D1*
X3551112Y3014731D1*
X3563185D1*
X3581435Y3008694D1*
X3593648Y2996481D1*
X3599685Y2978231D1*
Y2960121D1*
X3593648Y2941871D1*
X3587471Y2935835D1*
X3575398Y2929658D1*
X3756398Y2466287D2*
X3744325Y2460250D1*
X3732112Y2448037D1*
X3726075Y2435964D1*
Y2411677D1*
X3732112Y2399464D1*
X3744325Y2387391D1*
X3756398Y2381214D1*
X3774648Y2375177D1*
X3805112D1*
X3823221Y2381214D1*
X3835435Y2387391D1*
X3847508Y2399464D1*
X3853685Y2411677D1*
Y2435964D1*
X3847508Y2448037D1*
X3835435Y2460250D1*
X3823221Y2466287D1*
X3805112D1*
Y2435964D1*
X3792898Y2505503D2*
Y2560253D1*
X3786862Y2578362D1*
X3780685Y2584539D1*
X3768612Y2590576D1*
X3750362D1*
X3738289Y2584539D1*
X3732112Y2578362D1*
X3726075Y2560253D1*
Y2505503D1*
X3853685D1*
X3726075Y2629791D2*
X3853685D1*
X3726075Y2705507D2*
X3732112Y2693294D1*
X3744325Y2681220D1*
X3756398Y2675044D1*
X3774648Y2669007D1*
X3805112D1*
X3823221Y2675044D1*
X3835435Y2681220D1*
X3847508Y2693294D1*
X3853685Y2705507D1*
Y2729794D1*
X3847508Y2741867D1*
X3835435Y2754080D1*
X3823221Y2760117D1*
X3805112Y2766153D1*
X3774648D1*
X3756398Y2760117D1*
X3744325Y2754080D1*
X3732112Y2741867D1*
X3726075Y2729794D1*
Y2705507D1*
X3726215Y2817582D2*
Y2884265D1*
X3774789Y2847905D1*
Y2866155D1*
X3780825Y2878228D1*
X3786862Y2884265D1*
X3805112Y2890442D1*
X3817185D1*
X3835435Y2884265D1*
X3847648Y2872192D1*
X3853685Y2853942D1*
Y2835692D1*
X3847648Y2817582D1*
X3841471Y2811546D1*
X3829398Y2805369D1*
X3853685Y2990444D2*
X3726215D1*
X3811148Y2929658D1*
Y3020767D1*
X4264398Y2466287D2*
X4252325Y2460250D1*
X4240112Y2448037D1*
X4234075Y2435964D1*
Y2411677D1*
X4240112Y2399464D1*
X4252325Y2387391D1*
X4264398Y2381214D1*
X4282648Y2375177D1*
X4313112D1*
X4331221Y2381214D1*
X4343435Y2387391D1*
X4355508Y2399464D1*
X4361685Y2411677D1*
Y2435964D1*
X4355508Y2448037D1*
X4343435Y2460250D1*
X4331221Y2466287D1*
X4313112D1*
Y2435964D1*
X4300898Y2505503D2*
Y2560253D1*
X4294862Y2578362D1*
X4288685Y2584539D1*
X4276612Y2590576D1*
X4258362D1*
X4246289Y2584539D1*
X4240112Y2578362D1*
X4234075Y2560253D1*
Y2505503D1*
X4361685D1*
X4234075Y2629791D2*
X4361685D1*
X4234075Y2705507D2*
X4240112Y2693294D1*
X4252325Y2681220D1*
X4264398Y2675044D1*
X4282648Y2669007D1*
X4313112D1*
X4331221Y2675044D1*
X4343435Y2681220D1*
X4355508Y2693294D1*
X4361685Y2705507D1*
Y2729794D1*
X4355508Y2741867D1*
X4343435Y2754080D1*
X4331221Y2760117D1*
X4313112Y2766153D1*
X4282648D1*
X4264398Y2760117D1*
X4252325Y2754080D1*
X4240112Y2741867D1*
X4234075Y2729794D1*
Y2705507D1*
X4234215Y2817582D2*
Y2884265D1*
X4282789Y2847905D1*
Y2866155D1*
X4288825Y2878228D1*
X4294862Y2884265D1*
X4313112Y2890442D1*
X4325185D1*
X4343435Y2884265D1*
X4355648Y2872192D1*
X4361685Y2853942D1*
Y2835692D1*
X4355648Y2817582D1*
X4349471Y2811546D1*
X4337398Y2805369D1*
X4252325Y3002517D2*
X4240252Y2996481D1*
X4234215Y2978231D1*
Y2966158D1*
X4240252Y2947908D1*
X4258502Y2935694D1*
X4288825Y2929658D1*
X4319148D1*
X4343435Y2935694D1*
X4355648Y2947908D1*
X4361685Y2966158D1*
Y2972194D1*
X4355648Y2990304D1*
X4343435Y3002517D1*
X4325185Y3008554D1*
X4319148D1*
X4300898Y3002517D1*
X4288825Y2990304D1*
X4282789Y2972194D1*
Y2966158D1*
X4288825Y2947908D1*
X4300898Y2935694D1*
X4319148Y2929658D1*
X4010398Y2466287D2*
X3998325Y2460250D1*
X3986112Y2448037D1*
X3980075Y2435964D1*
Y2411677D1*
X3986112Y2399464D1*
X3998325Y2387391D1*
X4010398Y2381214D1*
X4028648Y2375177D1*
X4059112D1*
X4077221Y2381214D1*
X4089435Y2387391D1*
X4101508Y2399464D1*
X4107685Y2411677D1*
Y2435964D1*
X4101508Y2448037D1*
X4089435Y2460250D1*
X4077221Y2466287D1*
X4059112D1*
Y2435964D1*
X4046898Y2505503D2*
Y2560253D1*
X4040862Y2578362D1*
X4034685Y2584539D1*
X4022612Y2590576D1*
X4004362D1*
X3992289Y2584539D1*
X3986112Y2578362D1*
X3980075Y2560253D1*
Y2505503D1*
X4107685D1*
X3980075Y2629791D2*
X4107685D1*
X3980075Y2705507D2*
X3986112Y2693294D1*
X3998325Y2681220D1*
X4010398Y2675044D1*
X4028648Y2669007D1*
X4059112D1*
X4077221Y2675044D1*
X4089435Y2681220D1*
X4101508Y2693294D1*
X4107685Y2705507D1*
Y2729794D1*
X4101508Y2741867D1*
X4089435Y2754080D1*
X4077221Y2760117D1*
X4059112Y2766153D1*
X4028648D1*
X4010398Y2760117D1*
X3998325Y2754080D1*
X3986112Y2741867D1*
X3980075Y2729794D1*
Y2705507D1*
X3980215Y2817582D2*
Y2884265D1*
X4028789Y2847905D1*
Y2866155D1*
X4034825Y2878228D1*
X4040862Y2884265D1*
X4059112Y2890442D1*
X4071185D1*
X4089435Y2884265D1*
X4101648Y2872192D1*
X4107685Y2853942D1*
Y2835692D1*
X4101648Y2817582D1*
X4095471Y2811546D1*
X4083398Y2805369D1*
X4022612Y3008694D2*
X4040862Y3002517D1*
X4053075Y2990444D1*
X4059112Y2972194D1*
Y2966158D1*
X4053075Y2947908D1*
X4040862Y2935835D1*
X4022612Y2929658D1*
X4016575D1*
X3998325Y2935835D1*
X3986252Y2947908D1*
X3980215Y2966158D1*
Y2972194D1*
X3986252Y2990444D1*
X3998325Y3002517D1*
X4022612Y3008694D1*
X4053075D1*
X4083398Y3002517D1*
X4101648Y2990444D1*
X4107685Y2972194D1*
Y2960121D1*
X4101648Y2941871D1*
X4089435Y2935835D1*
X4488075Y2454073D2*
Y2375177D1*
X4615685D1*
Y2454073D1*
X4548862Y2375177D2*
Y2423750D1*
X4488075Y2578362D2*
X4615685D1*
X4488075Y2493289D1*
X4615685D1*
X1474250Y6287798D2*
X1462177Y6300012D1*
X1443927Y6306048D1*
X1419641D1*
X1401391Y6300012D1*
X1389177Y6287798D1*
Y6275725D1*
X1395354Y6263512D1*
X1401391Y6257475D1*
X1413464Y6251439D1*
X1449964Y6239225D1*
X1462177Y6233189D1*
X1468214Y6227012D1*
X1474250Y6214939D1*
Y6196689D1*
X1462177Y6184616D1*
X1443927Y6178439D1*
X1419641D1*
X1401391Y6184616D1*
X1389177Y6196689D1*
X1513466Y6239225D2*
X1568216D1*
X1586326Y6245262D1*
X1592503Y6251439D1*
X1598539Y6263512D1*
Y6281762D1*
X1592503Y6293835D1*
X1586326Y6300012D1*
X1568216Y6306048D1*
X1513466D1*
Y6178439D1*
X1716651Y6306048D2*
X1637755D1*
Y6178439D1*
X1716651D1*
X1637755Y6245262D2*
X1686328D1*
X1853153Y6178439D2*
X1804440Y6306048D1*
X1755867Y6178439D1*
X1774117Y6220975D2*
X1834903D1*
X1892369Y6306048D2*
Y6178439D1*
X1977442Y6306048D2*
X1892369Y6220975D1*
X1922692Y6251439D2*
X1977442Y6178439D1*
X2095554Y6306048D2*
X2016658D1*
Y6178439D1*
X2095554D1*
X2016658Y6245262D2*
X2065231D1*
X2134769D2*
X2189379D1*
X2207629Y6251439D1*
X2213806Y6257475D1*
X2219843Y6269548D1*
Y6281762D1*
X2213806Y6293835D1*
X2207629Y6300012D1*
X2189379Y6306048D1*
X2134769D1*
Y6178439D1*
X2177306Y6245262D2*
X2219843Y6178439D1*
X5297712Y5151583D2*
X5425321Y5200156D1*
X5297712Y5248729D1*
X5328035Y5379054D2*
X5315962Y5373018D1*
X5303748Y5360804D1*
X5297712Y5348731D1*
Y5324444D1*
X5303748Y5312231D1*
X5315962Y5300158D1*
X5328035Y5293981D1*
X5346285Y5287944D1*
X5376748D1*
X5394858Y5293981D1*
X5407071Y5300158D1*
X5419144Y5312231D1*
X5425321Y5324444D1*
Y5348731D1*
X5419144Y5360804D1*
X5407071Y5373018D1*
X5394858Y5379054D1*
X5328035Y5509379D2*
X5315962Y5503343D1*
X5303748Y5491129D1*
X5297712Y5479056D1*
Y5454770D1*
X5303748Y5442556D1*
X5315962Y5430483D1*
X5328035Y5424306D1*
X5346285Y5418270D1*
X5376748D1*
X5394858Y5424306D1*
X5407071Y5430483D1*
X5419144Y5442556D1*
X5425321Y5454770D1*
Y5479056D1*
X5419144Y5491129D1*
X5407071Y5503343D1*
X5394858Y5509379D1*
X5572035Y5242685D2*
X5559962Y5236649D1*
X5547748Y5224435D1*
X5541712Y5212362D1*
Y5188076D1*
X5547748Y5175862D1*
X5559962Y5163789D1*
X5572035Y5157612D1*
X5590285Y5151576D1*
X5620748D1*
X5638858Y5157612D1*
X5651071Y5163789D1*
X5663144Y5175862D1*
X5669321Y5188076D1*
Y5212362D1*
X5663144Y5224435D1*
X5651071Y5236649D1*
X5638858Y5242685D1*
X5620748D1*
Y5212362D1*
X5541712Y5366974D2*
X5669321D1*
X5541712Y5281901D1*
X5669321D1*
X5541712Y5406190D2*
X5669321D1*
Y5448726D1*
X5663144Y5466976D1*
X5651071Y5479190D1*
X5638858Y5485226D1*
X5620748Y5491263D1*
X5590285D1*
X5572035Y5485226D1*
X5559962Y5479190D1*
X5547748Y5466976D1*
X5541712Y5448726D1*
Y5406190D1*
X5853095Y5161569D2*
Y5216178D1*
X5846918Y5234428D1*
X5840881Y5240605D1*
X5828808Y5246642D1*
X5816595D1*
X5804522Y5240605D1*
X5798345Y5234428D1*
X5792308Y5216178D1*
Y5161569D1*
X5919918D1*
X5853095Y5204105D2*
X5919918Y5246642D1*
X5792308Y5285858D2*
X5919918Y5370931D1*
X5792308D2*
X5919918Y5285858D1*
X5792308Y5410146D2*
X5919918D1*
Y5452683D1*
X5913741Y5470933D1*
X5901668Y5483146D1*
X5889455Y5489183D1*
X5871345Y5495219D1*
X5840881D1*
X5822631Y5489183D1*
X5810558Y5483146D1*
X5798345Y5470933D1*
X5792308Y5452683D1*
Y5410146D1*
X6039712Y5204102D2*
X6167321D1*
X6039712Y5161565D2*
Y5246639D1*
Y5285854D2*
X6167321Y5370927D1*
X6039712D2*
X6167321Y5285854D1*
X6039712Y5410143D2*
X6167321D1*
Y5452680D1*
X6161144Y5470930D1*
X6149071Y5483143D1*
X6136858Y5489180D1*
X6118748Y5495216D1*
X6088285D1*
X6070035Y5489180D1*
X6057962Y5483143D1*
X6045748Y5470930D1*
X6039712Y5452680D1*
Y5410143D1*
X6309322Y5246632D2*
X6297108Y5234559D1*
X6291072Y5216309D1*
Y5192023D1*
X6297108Y5173773D1*
X6309322Y5161559D1*
X6321395D1*
X6333608Y5167736D1*
X6339645Y5173773D1*
X6345681Y5185846D1*
X6357895Y5222346D1*
X6363931Y5234559D1*
X6370108Y5240596D1*
X6382181Y5246632D1*
X6400431D1*
X6412504Y5234559D1*
X6418681Y5216309D1*
Y5192023D1*
X6412504Y5173773D1*
X6400431Y5161559D1*
X6291072Y5364744D2*
Y5285848D1*
X6418681D1*
Y5364744D1*
X6351858Y5285848D2*
Y5334421D1*
X6291072Y5446496D2*
X6418681D1*
X6291072Y5403960D2*
Y5489033D1*
X5036887Y3455363D2*
X5164496D1*
X5036887Y3540436D2*
X5164496D1*
X5097673Y3455363D2*
Y3540436D1*
X5067210Y3670761D2*
X5055137Y3664725D1*
X5042923Y3652511D1*
X5036887Y3640438D1*
Y3616152D1*
X5042923Y3603938D1*
X5055137Y3591865D1*
X5067210Y3585688D1*
X5085460Y3579652D1*
X5115923D1*
X5134033Y3585688D1*
X5146246Y3591865D1*
X5158319Y3603938D1*
X5164496Y3616152D1*
Y3640438D1*
X5158319Y3652511D1*
X5146246Y3664725D1*
X5134033Y3670761D1*
X5100762Y3709977D2*
Y3780169D1*
X5061314Y3819385D2*
X5055137Y3831598D1*
X5037027Y3849848D1*
X5164496D1*
X5067350Y3895241D2*
X5061314D1*
X5049100Y3901278D1*
X5043064Y3907314D1*
X5037027Y3919528D1*
Y3943814D1*
X5043064Y3955887D1*
X5049100Y3961924D1*
X5061314Y3968101D1*
X5073387D1*
X5085600Y3961924D1*
X5103710Y3949851D1*
X5164496Y3889064D1*
Y3974137D1*
X2843623Y5392985D2*
X2892196Y5265375D1*
X2940769Y5392985D1*
X3071094Y5362662D2*
X3065058Y5374735D1*
X3052844Y5386948D1*
X3040771Y5392985D1*
X3016484D1*
X3004271Y5386948D1*
X2992198Y5374735D1*
X2986021Y5362662D1*
X2979984Y5344412D1*
Y5313948D1*
X2986021Y5295839D1*
X2992198Y5283625D1*
X3004271Y5271552D1*
X3016484Y5265375D1*
X3040771D1*
X3052844Y5271552D1*
X3065058Y5283625D1*
X3071094Y5295839D1*
X3201419Y5362662D2*
X3195383Y5374735D1*
X3183169Y5386948D1*
X3171096Y5392985D1*
X3146810D1*
X3134596Y5386948D1*
X3122523Y5374735D1*
X3116346Y5362662D1*
X3110310Y5344412D1*
Y5313948D1*
X3116346Y5295839D1*
X3122523Y5283625D1*
X3134596Y5271552D1*
X3146810Y5265375D1*
X3171096D1*
X3183169Y5271552D1*
X3195383Y5283625D1*
X3201419Y5295839D1*
X2843624Y5586198D2*
X2898234D1*
X2916484Y5592375D1*
X2922661Y5598412D1*
X2928697Y5610485D1*
Y5622698D1*
X2922661Y5634771D1*
X2916484Y5640948D1*
X2898234Y5646985D1*
X2843624D1*
Y5519375D1*
X2886161Y5586198D2*
X2928697Y5519375D1*
X2967913Y5646985D2*
X3052986Y5519375D1*
Y5646985D2*
X2967913Y5519375D1*
X2886161Y5900982D2*
Y5773372D1*
X2843624Y5900982D2*
X2928697D1*
X2967913D2*
X3052986Y5773372D1*
Y5900982D2*
X2967913Y5773372D1*
X2843623Y6154985D2*
Y6027375D1*
X2886160D1*
X2904410Y6033552D1*
X2916623Y6045625D1*
X2922660Y6057839D1*
X2928696Y6075948D1*
Y6106412D1*
X2922660Y6124662D1*
X2916623Y6136735D1*
X2904410Y6148948D1*
X2886160Y6154985D1*
X2843623D1*
X3065199Y6027375D2*
X3016485Y6154985D1*
X2967912Y6027375D1*
X2986162Y6069912D2*
X3046949D1*
X3195524Y6124662D2*
X3189487Y6136735D1*
X3177274Y6148948D1*
X3165201Y6154985D1*
X3140914D1*
X3128701Y6148948D1*
X3116628Y6136735D1*
X3110451Y6124662D1*
X3104414Y6106412D1*
Y6075948D1*
X3110451Y6057839D1*
X3116628Y6045625D1*
X3128701Y6033552D1*
X3140914Y6027375D1*
X3165201D1*
X3177274Y6033552D1*
X3189487Y6045625D1*
X3195524Y6057839D1*
X3234740Y6094198D2*
X3289349D1*
X3307599Y6100375D1*
X3313776Y6106412D1*
X3319813Y6118485D1*
Y6130698D1*
X3313776Y6142771D1*
X3307599Y6148948D1*
X3289349Y6154985D1*
X3234740D1*
Y6027375D1*
X3277276Y6094198D2*
X3319813Y6027375D1*
X2843624Y6408985D2*
Y6281375D1*
X2886160D1*
X2904410Y6287552D1*
X2916624Y6299625D1*
X2922660Y6311839D1*
X2928697Y6329948D1*
Y6360412D1*
X2922660Y6378662D1*
X2916624Y6390735D1*
X2904410Y6402948D1*
X2886160Y6408985D1*
X2843624D1*
X3065199Y6281375D2*
X3016485Y6408985D1*
X2967912Y6281375D1*
X2986162Y6323912D2*
X3046949D1*
X3195524Y6378662D2*
X3189488Y6390735D1*
X3177274Y6402948D1*
X3165201Y6408985D1*
X3140914D1*
X3128701Y6402948D1*
X3116628Y6390735D1*
X3110451Y6378662D1*
X3104414Y6360412D1*
Y6329948D1*
X3110451Y6311839D1*
X3116628Y6299625D1*
X3128701Y6287552D1*
X3140914Y6281375D1*
X3165201D1*
X3177274Y6287552D1*
X3189488Y6299625D1*
X3195524Y6311839D1*
X3234740Y6408985D2*
Y6281375D1*
X3307599D1*
X2928696Y6644732D2*
X2916623Y6656945D1*
X2898373Y6662982D1*
X2874086D1*
X2855836Y6656945D1*
X2843623Y6644732D1*
Y6632659D1*
X2849800Y6620445D1*
X2855836Y6614409D1*
X2867910Y6608372D1*
X2904410Y6596159D1*
X2916623Y6590122D1*
X2922660Y6583945D1*
X2928696Y6571872D1*
Y6553622D1*
X2916623Y6541549D1*
X2898373Y6535372D1*
X2874086D1*
X2855836Y6541549D1*
X2843623Y6553622D1*
X2967912Y6596159D2*
X3022662D1*
X3040771Y6602195D1*
X3046948Y6608372D1*
X3052985Y6620445D1*
Y6638695D1*
X3046948Y6650768D1*
X3040771Y6656945D1*
X3022662Y6662982D1*
X2967912D1*
Y6535372D1*
X3092201Y6662982D2*
Y6535372D1*
X3177274Y6662982D2*
X3092201Y6577909D1*
X3122524Y6608372D2*
X3177274Y6535372D1*
X3216489Y6638555D2*
X3228703Y6644732D1*
X3246953Y6662841D1*
Y6535372D1*
X2934732Y6886662D2*
X2928695Y6898735D1*
X2916482Y6910948D1*
X2904409Y6916985D1*
X2880122D1*
X2867909Y6910948D1*
X2855836Y6898735D1*
X2849659Y6886662D1*
X2843622Y6868412D1*
Y6837948D1*
X2849659Y6819839D1*
X2855836Y6807625D1*
X2867909Y6795552D1*
X2880122Y6789375D1*
X2904409D1*
X2916482Y6795552D1*
X2928695Y6807625D1*
X2934732Y6819839D1*
Y6837948D1*
X2904409D1*
X3059021Y6916985D2*
Y6789375D1*
X2973948Y6916985D1*
Y6789375D1*
X3098236Y6916985D2*
Y6789375D1*
X3140773D1*
X3159023Y6795552D1*
X3171236Y6807625D1*
X3177273Y6819839D1*
X3183309Y6837948D1*
Y6868412D1*
X3177273Y6886662D1*
X3171236Y6898735D1*
X3159023Y6910948D1*
X3140773Y6916985D1*
X3098236D1*
X2928696Y7152735D2*
X2916623Y7164948D1*
X2898373Y7170985D1*
X2874087D1*
X2855837Y7164948D1*
X2843623Y7152735D1*
Y7140662D1*
X2849800Y7128448D1*
X2855837Y7122412D1*
X2867910Y7116375D1*
X2904410Y7104162D1*
X2916623Y7098125D1*
X2922660Y7091948D1*
X2928696Y7079875D1*
Y7061625D1*
X2916623Y7049552D1*
X2898373Y7043375D1*
X2874087D1*
X2855837Y7049552D1*
X2843623Y7061625D1*
X2967912Y7104162D2*
X3022662D1*
X3040772Y7110198D1*
X3046949Y7116375D1*
X3052985Y7128448D1*
Y7146698D1*
X3046949Y7158771D1*
X3040772Y7164948D1*
X3022662Y7170985D1*
X2967912D1*
Y7043375D1*
X3092201Y7170985D2*
Y7043375D1*
X3177274Y7170985D2*
X3092201Y7085912D1*
X3122524Y7116375D2*
X3177274Y7043375D1*
X3222667Y7140521D2*
Y7146558D1*
X3228703Y7158771D1*
X3234740Y7164808D1*
X3246953Y7170845D1*
X3271240D1*
X3283313Y7164808D1*
X3289349Y7158771D1*
X3295526Y7146558D1*
Y7134485D1*
X3289349Y7122271D1*
X3277276Y7104162D1*
X3216490Y7043375D1*
X3301563D1*
X3899790Y5392985D2*
Y5265375D1*
X3954540D1*
X3972790Y5271552D1*
X3978827Y5277589D1*
X3984863Y5289662D1*
Y5307912D1*
X3978827Y5320125D1*
X3972790Y5326162D1*
X3954540Y5332198D1*
X3972790Y5338375D1*
X3978827Y5344412D1*
X3984863Y5356485D1*
Y5368698D1*
X3978827Y5380771D1*
X3972790Y5386948D1*
X3954540Y5392985D1*
X3899790D1*
Y5332198D2*
X3954540D1*
X4024079Y5392985D2*
Y5301875D1*
X4030116Y5283625D1*
X4042329Y5271552D1*
X4060579Y5265375D1*
X4072652D1*
X4090902Y5271552D1*
X4103116Y5283625D1*
X4109152Y5301875D1*
Y5392985D1*
X4233441Y5374735D2*
X4221368Y5386948D1*
X4203118Y5392985D1*
X4178831D1*
X4160581Y5386948D1*
X4148368Y5374735D1*
Y5362662D1*
X4154545Y5350448D1*
X4160581Y5344412D1*
X4172654Y5338375D1*
X4209154Y5326162D1*
X4221368Y5320125D1*
X4227404Y5313948D1*
X4233441Y5301875D1*
Y5283625D1*
X4221368Y5271552D1*
X4203118Y5265375D1*
X4178831D1*
X4160581Y5271552D1*
X4148368Y5283625D1*
X4272657Y5392985D2*
X4321230Y5332198D1*
Y5265375D1*
X4369803Y5392985D2*
X4321230Y5332198D1*
X3926744Y5646985D2*
Y5555875D1*
X3932781Y5537625D1*
X3944994Y5525552D1*
X3963244Y5519375D1*
X3975317D1*
X3993567Y5525552D1*
X4005781Y5537625D1*
X4011817Y5555875D1*
Y5646985D1*
X4136106Y5628735D2*
X4124033Y5640948D1*
X4105783Y5646985D1*
X4081496D1*
X4063246Y5640948D1*
X4051033Y5628735D1*
Y5616662D1*
X4057210Y5604448D1*
X4063246Y5598412D1*
X4075319Y5592375D1*
X4111819Y5580162D1*
X4124033Y5574125D1*
X4130069Y5567948D1*
X4136106Y5555875D1*
Y5537625D1*
X4124033Y5525552D1*
X4105783Y5519375D1*
X4081496D1*
X4063246Y5525552D1*
X4051033Y5537625D1*
X4175322Y5646985D2*
Y5519375D1*
X4230072D1*
X4248322Y5525552D1*
X4254358Y5531589D1*
X4260395Y5543662D1*
Y5561912D1*
X4254358Y5574125D1*
X4248322Y5580162D1*
X4230072Y5586198D1*
X4248322Y5592375D1*
X4254358Y5598412D1*
X4260395Y5610485D1*
Y5622698D1*
X4254358Y5634771D1*
X4248322Y5640948D1*
X4230072Y5646985D1*
X4175322D1*
Y5586198D2*
X4230072D1*
X4299610Y5583110D2*
X4369803D1*
X3887577Y5900985D2*
Y5809875D1*
X3893613Y5791625D1*
X3905827Y5779552D1*
X3924077Y5773375D1*
X3936150D1*
X3954400Y5779552D1*
X3966613Y5791625D1*
X3972650Y5809875D1*
Y5900985D1*
X4096939Y5882735D2*
X4084866Y5894948D1*
X4066616Y5900985D1*
X4042329D1*
X4024079Y5894948D1*
X4011866Y5882735D1*
Y5870662D1*
X4018043Y5858448D1*
X4024079Y5852412D1*
X4036152Y5846375D1*
X4072652Y5834162D1*
X4084866Y5828125D1*
X4090902Y5821948D1*
X4096939Y5809875D1*
Y5791625D1*
X4084866Y5779552D1*
X4066616Y5773375D1*
X4042329D1*
X4024079Y5779552D1*
X4011866Y5791625D1*
X4136154Y5900985D2*
Y5773375D1*
X4190904D1*
X4209154Y5779552D1*
X4215191Y5785589D1*
X4221227Y5797662D1*
Y5815912D1*
X4215191Y5828125D1*
X4209154Y5834162D1*
X4190904Y5840198D1*
X4209154Y5846375D1*
X4215191Y5852412D1*
X4221227Y5864485D1*
Y5876698D1*
X4215191Y5888771D1*
X4209154Y5894948D1*
X4190904Y5900985D1*
X4136154D1*
Y5840198D2*
X4190904D1*
X4315053Y5891790D2*
Y5782430D1*
X4260443Y5837040D2*
X4369803D1*
X3742463Y6027375D2*
X3693749Y6154985D1*
X3645176Y6027375D1*
X3663426Y6069912D2*
X3724213D1*
X3781678Y6154985D2*
Y6027375D1*
X3824215D1*
X3842465Y6033552D1*
X3854678Y6045625D1*
X3860715Y6057839D1*
X3866752Y6075948D1*
Y6106412D1*
X3860715Y6124662D1*
X3854678Y6136735D1*
X3842465Y6148948D1*
X3824215Y6154985D1*
X3781678D1*
X3905967D2*
Y6027375D1*
X3991040Y6154985D2*
X3905967Y6069912D1*
X3936290Y6100375D2*
X3991040Y6027375D1*
X4109152Y6154985D2*
X4030256D1*
Y6027375D1*
X4109152D1*
X4030256Y6094198D2*
X4078829D1*
X4148368Y6154985D2*
X4196941Y6094198D1*
Y6027375D1*
X4245514Y6154985D2*
X4196941Y6094198D1*
X4290907Y6124521D2*
Y6130558D1*
X4296943Y6142771D1*
X4302980Y6148808D1*
X4315193Y6154845D1*
X4339480D1*
X4351553Y6148808D1*
X4357589Y6142771D1*
X4363766Y6130558D1*
Y6118485D1*
X4357589Y6106271D1*
X4345516Y6088162D1*
X4284730Y6027375D1*
X4369803D1*
X3797072Y6281375D2*
X3748359Y6408985D1*
X3699786Y6281375D1*
X3718036Y6323912D2*
X3778822D1*
X3836288Y6408985D2*
Y6281375D1*
X3878825D1*
X3897075Y6287552D1*
X3909288Y6299625D1*
X3915325Y6311839D1*
X3921361Y6329948D1*
Y6360412D1*
X3915325Y6378662D1*
X3909288Y6390735D1*
X3897075Y6402948D1*
X3878825Y6408985D1*
X3836288D1*
X3960577D2*
Y6281375D1*
X4045650Y6408985D2*
X3960577Y6323912D1*
X3990900Y6354375D2*
X4045650Y6281375D1*
X4163762Y6408985D2*
X4084866D1*
Y6281375D1*
X4163762D1*
X4084866Y6348198D2*
X4133439D1*
X4202977Y6408985D2*
X4251551Y6348198D1*
Y6281375D1*
X4300124Y6408985D2*
X4251551Y6348198D1*
X4339339Y6384558D2*
X4351553Y6390735D1*
X4369803Y6408845D1*
Y6281375D1*
X4109155Y6662985D2*
Y6535375D1*
X4184871Y6662985D2*
X4172658Y6656948D1*
X4160585Y6644735D1*
X4154408Y6632662D1*
X4148371Y6614412D1*
Y6583948D1*
X4154408Y6565839D1*
X4160585Y6553625D1*
X4172658Y6541552D1*
X4184871Y6535375D1*
X4209158D1*
X4221231Y6541552D1*
X4233444Y6553625D1*
X4239481Y6565839D1*
X4245517Y6583948D1*
Y6614412D1*
X4239481Y6632662D1*
X4233444Y6644735D1*
X4221231Y6656948D1*
X4209158Y6662985D1*
X4184871D1*
X4290910Y6632521D2*
Y6638558D1*
X4296946Y6650771D1*
X4302983Y6656808D1*
X4315196Y6662845D1*
X4339483D1*
X4351556Y6656808D1*
X4357593Y6650771D1*
X4363770Y6638558D1*
Y6626485D1*
X4357593Y6614271D1*
X4345520Y6596162D1*
X4284733Y6535375D1*
X4369806D1*
X4121225Y6886662D2*
X4115189Y6898735D1*
X4102975Y6910948D1*
X4090902Y6916985D1*
X4066616D1*
X4054402Y6910948D1*
X4042329Y6898735D1*
X4036152Y6886662D1*
X4030116Y6868412D1*
Y6837948D1*
X4036152Y6819839D1*
X4042329Y6807625D1*
X4054402Y6795552D1*
X4066616Y6789375D1*
X4090902D1*
X4102975Y6795552D1*
X4115189Y6807625D1*
X4121225Y6819839D1*
Y6837948D1*
X4090902D1*
X4245514Y6916985D2*
Y6789375D1*
X4160441Y6916985D1*
Y6789375D1*
X4284730Y6916985D2*
Y6789375D1*
X4327266D1*
X4345516Y6795552D1*
X4357730Y6807625D1*
X4363766Y6819839D1*
X4369803Y6837948D1*
Y6868412D1*
X4363766Y6886662D1*
X4357730Y6898735D1*
X4345516Y6910948D1*
X4327266Y6916985D1*
X4284730D1*
X4163762Y7164172D2*
Y7036562D1*
X4239477Y7164172D2*
X4227264Y7158135D1*
X4215191Y7145922D1*
X4209014Y7133849D1*
X4202977Y7115599D1*
Y7085135D1*
X4209014Y7067025D1*
X4215191Y7054812D1*
X4227264Y7042739D1*
X4239477Y7036562D1*
X4263764D1*
X4275837Y7042739D1*
X4288051Y7054812D1*
X4294087Y7067025D1*
X4300124Y7085135D1*
Y7115599D1*
X4294087Y7133849D1*
X4288051Y7145922D1*
X4275837Y7158135D1*
X4263764Y7164172D1*
X4239477D1*
X4339339Y7139745D2*
X4351553Y7145922D1*
X4369803Y7164031D1*
Y7036562D1*
M02*
