G04 DipTrace 4.2.0.1*
G04 TopSilk.gbr*
%MOMM*%
G04 #@! TF.FileFunction,Legend,Top*
G04 #@! TF.Part,Single*
%ADD10C,0.12*%
%ADD55C,0.19608*%
%ADD59C,0.31373*%
%FSLAX35Y35*%
G04*
G71*
G90*
G75*
G01*
G04 TopSilk*
%LPD*%
X1936753Y1539877D2*
D10*
X1666877D1*
Y2301877D2*
X1936753D1*
X1666877Y1539877D2*
Y2301877D1*
X1936753Y1539877D2*
G03X1936753Y2301877I1063625J381000D01*
G01*
X9667873Y3095623D2*
X9763127D1*
X9667873Y3476623D2*
X9763127D1*
X10017127Y3540123D2*
X9763127D1*
Y3032123D1*
X10017127D1*
Y3540123D1*
X1714500Y538127D2*
X1904500D1*
Y598127D1*
X1973407D1*
X1714500Y538127D2*
X1524500D1*
Y598127D1*
X1455593D1*
X1980560Y198127D2*
X1439500D1*
X1909500Y18127D2*
Y198127D1*
X1519500D1*
Y18127D1*
X1909500D1*
X2099500Y178127D2*
X2034033D1*
G36*
X1331500Y423127D2*
X1331286Y419864D1*
X1330648Y416656D1*
X1329597Y413560D1*
X1328151Y410627D1*
X1326334Y407908D1*
X1324178Y405449D1*
X1321719Y403293D1*
X1319000Y401476D1*
X1316067Y400030D1*
X1312970Y398979D1*
X1309763Y398341D1*
X1306500Y398127D1*
X1303237Y398341D1*
X1300030Y398979D1*
X1296933Y400030D1*
X1294000Y401476D1*
X1291281Y403293D1*
X1288822Y405449D1*
X1286666Y407908D1*
X1284849Y410627D1*
X1283403Y413560D1*
X1282352Y416656D1*
X1281714Y419864D1*
X1281500Y423127D1*
D1*
X1281714Y426390D1*
X1282352Y429597D1*
X1283403Y432694D1*
X1284849Y435627D1*
X1286666Y438346D1*
X1288822Y440804D1*
X1291281Y442961D1*
X1294000Y444777D1*
X1296933Y446224D1*
X1300030Y447275D1*
X1303237Y447913D1*
X1306500Y448127D1*
X1309763Y447913D1*
X1312970Y447275D1*
X1316067Y446224D1*
X1319000Y444777D1*
X1321719Y442961D1*
X1324178Y440804D1*
X1326334Y438346D1*
X1328151Y435627D1*
X1329597Y432694D1*
X1330648Y429597D1*
X1331286Y426390D1*
X1331500Y423127D1*
D1*
G37*
X1974500Y596817D2*
D10*
Y538127D1*
X2014500D1*
Y493720D1*
Y352533D2*
Y229127D1*
X2049500D1*
Y556087D1*
Y790167D2*
Y823127D1*
X2079500D1*
Y790167D1*
Y556087D2*
Y413177D1*
X1454500Y596817D2*
Y538127D1*
X1414500D1*
Y526123D1*
Y320130D2*
Y229127D1*
X1379500D1*
Y556087D1*
Y790167D2*
Y823127D1*
X1349500D1*
Y790167D1*
Y556087D2*
Y482287D1*
X1408643Y178127D2*
X1329500D1*
Y263873D1*
Y329380D2*
Y378627D1*
Y467627D2*
Y560440D1*
Y785813D2*
Y843127D1*
X2099500D2*
Y785813D1*
Y560440D2*
Y471607D1*
Y405647D2*
Y317623D1*
Y251630D2*
Y178127D1*
X2079500Y413177D2*
Y310870D1*
Y198127D1*
X1980560D1*
X1714500D1*
X1349500Y482287D2*
X1348500Y272983D1*
X1349500Y273983D2*
Y198127D1*
X1714500D1*
X5064123Y538127D2*
X5254123D1*
Y598127D1*
X5323030D1*
X5064123Y538127D2*
X4874123D1*
Y598127D1*
X4805217D1*
X5330183Y198127D2*
X4789123D1*
X5259123Y18127D2*
Y198127D1*
X4869123D1*
Y18127D1*
X5259123D1*
X5449123Y178127D2*
X5383657D1*
G36*
X4681123Y423127D2*
X4680909Y419864D1*
X4680271Y416656D1*
X4679220Y413560D1*
X4677774Y410627D1*
X4675957Y407908D1*
X4673801Y405449D1*
X4671342Y403293D1*
X4668623Y401476D1*
X4665690Y400030D1*
X4662594Y398979D1*
X4659386Y398341D1*
X4656123Y398127D1*
X4652860Y398341D1*
X4649653Y398979D1*
X4646556Y400030D1*
X4643623Y401476D1*
X4640904Y403293D1*
X4638446Y405449D1*
X4636289Y407908D1*
X4634473Y410627D1*
X4633026Y413560D1*
X4631975Y416656D1*
X4631337Y419864D1*
X4631123Y423127D1*
D1*
X4631337Y426390D1*
X4631975Y429597D1*
X4633026Y432694D1*
X4634473Y435627D1*
X4636289Y438346D1*
X4638446Y440804D1*
X4640904Y442961D1*
X4643623Y444777D1*
X4646556Y446224D1*
X4649653Y447275D1*
X4652860Y447913D1*
X4656123Y448127D1*
X4659386Y447913D1*
X4662594Y447275D1*
X4665690Y446224D1*
X4668623Y444777D1*
X4671342Y442961D1*
X4673801Y440804D1*
X4675957Y438346D1*
X4677774Y435627D1*
X4679220Y432694D1*
X4680271Y429597D1*
X4680909Y426390D1*
X4681123Y423127D1*
D1*
G37*
X5324123Y596817D2*
D10*
Y538127D1*
X5364123D1*
Y493720D1*
Y352533D2*
Y229127D1*
X5399123D1*
Y556087D1*
Y790167D2*
Y823127D1*
X5429123D1*
Y790167D1*
Y556087D2*
Y413177D1*
X4804123Y596817D2*
Y538127D1*
X4764123D1*
Y526123D1*
Y320130D2*
Y229127D1*
X4729123D1*
Y556087D1*
Y790167D2*
Y823127D1*
X4699123D1*
Y790167D1*
Y556087D2*
Y482287D1*
X4758267Y178127D2*
X4679123D1*
Y263873D1*
Y329380D2*
Y378627D1*
Y467627D2*
Y560440D1*
Y785813D2*
Y843127D1*
X5449123D2*
Y785813D1*
Y560440D2*
Y471607D1*
Y405647D2*
Y317623D1*
Y251630D2*
Y178127D1*
X5429123Y413177D2*
Y310870D1*
Y198127D1*
X5330183D1*
X5064123D1*
X4699123Y482287D2*
X4698123Y272983D1*
X4699123Y273983D2*
Y198127D1*
X5064123D1*
X8397873Y538123D2*
X8587873D1*
Y598123D1*
X8656780D1*
X8397873Y538123D2*
X8207873D1*
Y598123D1*
X8138967D1*
X8663933Y198123D2*
X8122873D1*
X8592873Y18123D2*
Y198123D1*
X8202873D1*
Y18123D1*
X8592873D1*
X8782873Y178123D2*
X8717407D1*
G36*
X8014873Y423123D2*
X8014659Y419860D1*
X8014021Y416653D1*
X8012970Y413556D1*
X8011524Y410623D1*
X8009707Y407904D1*
X8007551Y405446D1*
X8005092Y403289D1*
X8002373Y401473D1*
X7999440Y400026D1*
X7996344Y398975D1*
X7993136Y398337D1*
X7989873Y398123D1*
X7986610Y398337D1*
X7983403Y398975D1*
X7980306Y400026D1*
X7977373Y401473D1*
X7974654Y403289D1*
X7972196Y405446D1*
X7970039Y407904D1*
X7968223Y410623D1*
X7966776Y413556D1*
X7965725Y416653D1*
X7965087Y419860D1*
X7964873Y423123D1*
D1*
X7965087Y426386D1*
X7965725Y429594D1*
X7966776Y432690D1*
X7968223Y435623D1*
X7970039Y438342D1*
X7972196Y440801D1*
X7974654Y442957D1*
X7977373Y444774D1*
X7980306Y446220D1*
X7983403Y447271D1*
X7986610Y447909D1*
X7989873Y448123D1*
X7993136Y447909D1*
X7996344Y447271D1*
X7999440Y446220D1*
X8002373Y444774D1*
X8005092Y442957D1*
X8007551Y440801D1*
X8009707Y438342D1*
X8011524Y435623D1*
X8012970Y432690D1*
X8014021Y429594D1*
X8014659Y426386D1*
X8014873Y423123D1*
D1*
G37*
X8657873Y596813D2*
D10*
Y538123D1*
X8697873D1*
Y493717D1*
Y352530D2*
Y229123D1*
X8732873D1*
Y556083D1*
Y790163D2*
Y823123D1*
X8762873D1*
Y790163D1*
Y556083D2*
Y413173D1*
X8137873Y596813D2*
Y538123D1*
X8097873D1*
Y526120D1*
Y320127D2*
Y229123D1*
X8062873D1*
Y556083D1*
Y790163D2*
Y823123D1*
X8032873D1*
Y790163D1*
Y556083D2*
Y482283D1*
X8092017Y178123D2*
X8012873D1*
Y263870D1*
Y329377D2*
Y378623D1*
Y467623D2*
Y560437D1*
Y785810D2*
Y843123D1*
X8782873D2*
Y785810D1*
Y560437D2*
Y471603D1*
Y405643D2*
Y317620D1*
Y251627D2*
Y178123D1*
X8762873Y413173D2*
Y310867D1*
Y198123D1*
X8663933D1*
X8397873D1*
X8032873Y482283D2*
X8031873Y272980D1*
X8032873Y273980D2*
Y198123D1*
X8397873D1*
X6937373Y5889627D2*
X4492623D1*
X4333873Y5699127D2*
G02X4333873Y5699127I158750J0D01*
G01*
X6746873D2*
G02X6746873Y5699127I158750J0D01*
G01*
Y1016002D2*
G02X6746873Y1016002I142875J0D01*
G01*
X4365623D2*
G02X4365623Y1016002I142875J0D01*
G01*
X4460873Y5889627D2*
G03X4302123Y5730877I0J-158750D01*
G01*
Y1000127D2*
G03X4492623Y809627I190502J2D01*
G01*
X6905623D2*
G03X7096123Y1000127I-2J190502D01*
G01*
Y5730877D2*
G03X6937373Y5889627I-158750J0D01*
G01*
X4460873D2*
X4492623D1*
X4302123Y5730877D2*
Y1000127D1*
X4492623Y809627D2*
X6905623D1*
X7096123Y1000127D2*
Y5730877D1*
X1203627Y3095627D2*
X3997627D1*
Y4365627D1*
X1203627D1*
Y3095627D1*
X8445500Y3857627D2*
X7556500D1*
X8699500D2*
G03X8445500Y3857627I-127000J0D01*
G01*
X7556500D2*
Y5889627D1*
X9588500D1*
Y3857627D1*
X8699500D1*
X10017127Y1920867D2*
X9318627D1*
Y523867D1*
X10017127D1*
Y1920867D1*
X10001250Y2936877D2*
X9334503D1*
Y1920877D1*
X10001250D1*
Y2936877D1*
X2516750Y5053000D2*
Y5883000D1*
X3896750D1*
Y5053000D1*
Y4633000D2*
Y4463000D1*
X2516750D1*
Y4633000D1*
X603250Y5111748D2*
X476250D1*
Y5873748D2*
X2254250D1*
Y5111748D2*
X2127250D1*
X476250D2*
Y5873748D1*
X2254250Y5111748D2*
Y5873748D1*
X428000Y4588873D2*
X688000D1*
Y299250D1*
X428000D1*
Y4588873D1*
X936627Y3589250D2*
X1174750D1*
Y1651000D1*
X936627D1*
Y3589250D1*
X9678000Y5439250D2*
X9978000D1*
Y4095750D1*
X9678000D1*
Y5439250D1*
X1599987Y2285857D2*
D55*
X1472377D1*
Y2231107D1*
X1478554Y2212857D1*
X1484590Y2206821D1*
X1496664Y2200784D1*
X1514914D1*
X1527127Y2206821D1*
X1533164Y2212857D1*
X1539200Y2231107D1*
X1545377Y2212857D1*
X1551414Y2206821D1*
X1563487Y2200784D1*
X1575700D1*
X1587773Y2206821D1*
X1593950Y2212857D1*
X1599987Y2231107D1*
Y2285857D1*
X1539200D2*
Y2231107D1*
X1472377Y2064282D2*
X1599987Y2112995D1*
X1472377Y2161568D1*
X1514914Y2143318D2*
Y2082532D1*
X1599987Y1982530D2*
X1472377D1*
X1599987Y2025066D2*
Y1939993D1*
X1599846Y1765118D2*
Y1698435D1*
X1551273Y1734794D1*
Y1716544D1*
X1545237Y1704471D1*
X1539200Y1698435D1*
X1520950Y1692258D1*
X1508877D1*
X1490627Y1698435D1*
X1478414Y1710508D1*
X1472377Y1728758D1*
Y1747008D1*
X1478414Y1765118D1*
X1484590Y1771154D1*
X1496664Y1777331D1*
X1599987Y1653042D2*
X1472377Y1604469D1*
X1599987Y1555896D1*
X9267990Y3228023D2*
X9274027Y3215950D1*
X9286240Y3203737D1*
X9298313Y3197700D1*
X9322600D1*
X9334813Y3203737D1*
X9346886Y3215950D1*
X9353063Y3228023D1*
X9359100Y3246273D1*
Y3276737D1*
X9353063Y3294846D1*
X9346886Y3307060D1*
X9334813Y3319133D1*
X9322600Y3325310D1*
X9298313D1*
X9286240Y3319133D1*
X9274027Y3307060D1*
X9267990Y3294846D1*
Y3276737D1*
X9298313D1*
X9228774Y3197700D2*
Y3325310D1*
X9155915D1*
X9043840Y3197840D2*
X9104486D1*
X9110522Y3252450D1*
X9104486Y3246414D1*
X9086236Y3240237D1*
X9068126D1*
X9049876Y3246414D1*
X9037663Y3258487D1*
X9031626Y3276737D1*
Y3288810D1*
X9037663Y3307060D1*
X9049876Y3319273D1*
X9068126Y3325310D1*
X9086236D1*
X9104486Y3319273D1*
X9110522Y3313096D1*
X9116699Y3301023D1*
X8919551Y3197840D2*
X8980197D1*
X8986234Y3252450D1*
X8980197Y3246414D1*
X8961947Y3240237D1*
X8943837D1*
X8925587Y3246414D1*
X8913374Y3258487D1*
X8907337Y3276737D1*
Y3288810D1*
X8913374Y3307060D1*
X8925587Y3319273D1*
X8943837Y3325310D1*
X8961947D1*
X8980197Y3319273D1*
X8986234Y3313096D1*
X8992410Y3301023D1*
X8861945Y3228164D2*
Y3222127D1*
X8855908Y3209914D1*
X8849872Y3203877D1*
X8837658Y3197840D1*
X8813372D1*
X8801299Y3203877D1*
X8795262Y3209914D1*
X8789085Y3222127D1*
Y3234200D1*
X8795262Y3246414D1*
X8807335Y3264523D1*
X8868122Y3325310D1*
X8783049D1*
X8713510Y3197840D2*
X8731619Y3203877D1*
X8737796Y3215950D1*
Y3228164D1*
X8731619Y3240237D1*
X8719546Y3246414D1*
X8695260Y3252450D1*
X8677010Y3258487D1*
X8664937Y3270700D1*
X8658900Y3282773D1*
Y3301023D1*
X8664937Y3313096D1*
X8670973Y3319273D1*
X8689223Y3325310D1*
X8713510D1*
X8731619Y3319273D1*
X8737796Y3313096D1*
X8743833Y3301023D1*
Y3282773D1*
X8737796Y3270700D1*
X8725583Y3258487D1*
X8707473Y3252450D1*
X8683187Y3246414D1*
X8670973Y3240237D1*
X8664937Y3228164D1*
Y3215950D1*
X8670973Y3203877D1*
X8689223Y3197840D1*
X8713510D1*
X3048242Y301197D2*
Y428806D1*
X3005706D1*
X2987456Y422629D1*
X2975242Y410556D1*
X2969206Y398343D1*
X2963169Y380233D1*
Y349770D1*
X2969206Y331520D1*
X2975242Y319447D1*
X2987456Y307233D1*
X3005706Y301197D1*
X3048242D1*
X2923954D2*
Y428806D1*
X2799665Y319447D2*
X2811738Y307233D1*
X2829988Y301197D1*
X2854274D1*
X2872524Y307233D1*
X2884738Y319447D1*
Y331520D1*
X2878561Y343733D1*
X2872524Y349770D1*
X2860451Y355806D1*
X2823951Y368020D1*
X2811738Y374056D1*
X2805701Y380233D1*
X2799665Y392306D1*
Y410556D1*
X2811738Y422629D1*
X2829988Y428806D1*
X2854274D1*
X2872524Y422629D1*
X2884738Y410556D1*
X2760449Y368020D2*
X2705699D1*
X2687590Y361983D1*
X2681413Y355806D1*
X2675376Y343733D1*
Y325483D1*
X2681413Y313410D1*
X2687590Y307233D1*
X2705699Y301197D1*
X2760449D1*
Y428806D1*
X2636160Y301197D2*
Y428806D1*
X2563301D1*
X2426799D2*
X2475512Y301197D1*
X2524085Y428806D1*
X2505835Y386270D2*
X2445049D1*
X2387583Y301197D2*
X2339010Y361983D1*
Y428806D1*
X2290437Y301197D2*
X2339010Y361983D1*
X2251221Y325624D2*
X2239008Y319447D1*
X2220758Y301337D1*
Y428806D1*
X6475171Y301197D2*
Y428806D1*
X6432634D1*
X6414384Y422629D1*
X6402171Y410556D1*
X6396134Y398343D1*
X6390097Y380233D1*
Y349770D1*
X6396134Y331520D1*
X6402171Y319447D1*
X6414384Y307233D1*
X6432634Y301197D1*
X6475171D1*
X6350882D2*
Y428806D1*
X6226593Y319447D2*
X6238666Y307233D1*
X6256916Y301197D1*
X6281203D1*
X6299453Y307233D1*
X6311666Y319447D1*
Y331520D1*
X6305489Y343733D1*
X6299453Y349770D1*
X6287380Y355806D1*
X6250880Y368020D1*
X6238666Y374056D1*
X6232630Y380233D1*
X6226593Y392306D1*
Y410556D1*
X6238666Y422629D1*
X6256916Y428806D1*
X6281203D1*
X6299453Y422629D1*
X6311666Y410556D1*
X6187377Y368020D2*
X6132627D1*
X6114518Y361983D1*
X6108341Y355806D1*
X6102304Y343733D1*
Y325483D1*
X6108341Y313410D1*
X6114518Y307233D1*
X6132627Y301197D1*
X6187377D1*
Y428806D1*
X6063089Y301197D2*
Y428806D1*
X5990229D1*
X5853727D2*
X5902440Y301197D1*
X5951013Y428806D1*
X5932763Y386270D2*
X5871977D1*
X5814511Y301197D2*
X5765938Y361983D1*
Y428806D1*
X5717365Y301197D2*
X5765938Y361983D1*
X5671972Y331660D2*
Y325624D1*
X5665936Y313410D1*
X5659899Y307374D1*
X5647686Y301337D1*
X5623399D1*
X5611326Y307374D1*
X5605290Y313410D1*
X5599113Y325624D1*
Y337697D1*
X5605290Y349910D1*
X5617363Y368020D1*
X5678149Y428806D1*
X5593076D1*
X9423844D2*
X9472558Y301197D1*
X9521131Y428806D1*
X9502881Y386270D2*
X9442094D1*
X9384628Y301197D2*
Y428806D1*
X9311769D1*
X9175267D2*
X9223980Y301197D1*
X9272553Y428806D1*
X9254303Y386270D2*
X9193517D1*
X9136051Y361983D2*
X9081441D1*
X9063191Y355806D1*
X9057014Y349770D1*
X9050978Y337697D1*
Y325483D1*
X9057014Y313410D1*
X9063191Y307233D1*
X9081441Y301197D1*
X9136051D1*
Y428806D1*
X9093514Y361983D2*
X9050978Y428806D1*
X8914616D2*
Y301197D1*
X8963189Y428806D1*
X9011762Y301197D1*
Y428806D1*
X9879830Y4787168D2*
X9892043Y4799241D1*
X9898080Y4817491D1*
Y4841778D1*
X9892043Y4860028D1*
X9879830Y4872241D1*
X9867757D1*
X9855543Y4866064D1*
X9849507Y4860028D1*
X9843470Y4847955D1*
X9831257Y4811455D1*
X9825220Y4799241D1*
X9819043Y4793205D1*
X9806970Y4787168D1*
X9788720D1*
X9776647Y4799241D1*
X9770470Y4817491D1*
Y4841778D1*
X9776647Y4860028D1*
X9788720Y4872241D1*
X9855543Y4747953D2*
X9727934D1*
X9837293D2*
X9849366Y4735739D1*
X9855543Y4723666D1*
Y4705416D1*
X9849366Y4693203D1*
X9837293Y4681129D1*
X9819043Y4674953D1*
X9806830D1*
X9788720Y4681129D1*
X9776507Y4693203D1*
X9770470Y4705416D1*
Y4723666D1*
X9776507Y4735739D1*
X9788720Y4747953D1*
X9819043Y4635737D2*
Y4562877D1*
X9831257D1*
X9843470Y4568914D1*
X9849507Y4574950D1*
X9855543Y4587164D1*
Y4605414D1*
X9849507Y4617487D1*
X9837293Y4629700D1*
X9819043Y4635737D1*
X9806970D1*
X9788720Y4629700D1*
X9776647Y4617487D1*
X9770470Y4605414D1*
Y4587164D1*
X9776647Y4574950D1*
X9788720Y4562877D1*
X9855543Y4450802D2*
X9770470D1*
X9837293D2*
X9849507Y4462875D1*
X9855543Y4475088D1*
Y4493198D1*
X9849507Y4505412D1*
X9837293Y4517485D1*
X9819043Y4523662D1*
X9806970D1*
X9788720Y4517485D1*
X9776647Y4505412D1*
X9770470Y4493198D1*
Y4475088D1*
X9776647Y4462875D1*
X9788720Y4450802D1*
X9898080Y4411586D2*
X9770470D1*
X9855543Y4350800D2*
X9794757Y4411586D1*
X9819043Y4387300D2*
X9770470Y4344763D1*
X9819043Y4305547D2*
Y4232688D1*
X9831257D1*
X9843470Y4238724D1*
X9849507Y4244761D1*
X9855543Y4256974D1*
Y4275224D1*
X9849507Y4287297D1*
X9837293Y4299511D1*
X9819043Y4305547D1*
X9806970D1*
X9788720Y4299511D1*
X9776647Y4287297D1*
X9770470Y4275224D1*
Y4256974D1*
X9776647Y4244761D1*
X9788720Y4232688D1*
X9855543Y4193472D2*
X9770470D1*
X9819043D2*
X9837293Y4187295D1*
X9849507Y4175222D1*
X9855543Y4163009D1*
Y4144759D1*
X7413160Y5643055D2*
D59*
X7325785D1*
X7296585Y5633172D1*
X7286702Y5623514D1*
X7277043Y5604197D1*
Y5584655D1*
X7286702Y5565338D1*
X7296585Y5555455D1*
X7325785Y5545797D1*
X7413160D1*
Y5749972D1*
X7345102Y5643055D2*
X7277043Y5749972D1*
X3974327Y5559123D2*
X3993644Y5539582D1*
X4022844Y5529923D1*
X4061702D1*
X4090902Y5539582D1*
X4110444Y5559123D1*
Y5578440D1*
X4100561Y5597982D1*
X4090902Y5607640D1*
X4071585Y5617299D1*
X4013185Y5636840D1*
X3993644Y5646499D1*
X3983985Y5656382D1*
X3974327Y5675699D1*
Y5704899D1*
X3993644Y5724216D1*
X4022844Y5734099D1*
X4061702D1*
X4090902Y5724216D1*
X4110444Y5704899D1*
X4259047Y4049313D2*
D55*
Y4128209D1*
X4131437D1*
Y4049313D1*
X4198260Y4128209D2*
Y4079636D1*
X4240797Y3925024D2*
X4253010Y3937097D1*
X4259047Y3955347D1*
Y3979634D1*
X4253010Y3997884D1*
X4240797Y4010097D1*
X4228724D1*
X4216510Y4003920D1*
X4210474Y3997884D1*
X4204437Y3985811D1*
X4192224Y3949311D1*
X4186187Y3937097D1*
X4180010Y3931061D1*
X4167937Y3925024D1*
X4149687D1*
X4137614Y3937097D1*
X4131437Y3955347D1*
Y3979634D1*
X4137614Y3997884D1*
X4149687Y4010097D1*
X4192224Y3885809D2*
Y3831059D1*
X4198260Y3812949D1*
X4204437Y3806772D1*
X4216510Y3800736D1*
X4234760D1*
X4246833Y3806772D1*
X4253010Y3812949D1*
X4259047Y3831059D1*
Y3885809D1*
X4131437D1*
X4258906Y3749306D2*
Y3682624D1*
X4210333Y3718983D1*
Y3700733D1*
X4204297Y3688660D1*
X4198260Y3682624D1*
X4180010Y3676447D1*
X4167937D1*
X4149687Y3682624D1*
X4137474Y3694697D1*
X4131437Y3712947D1*
Y3731197D1*
X4137474Y3749306D1*
X4143650Y3755343D1*
X4155724Y3761520D1*
X4228583Y3631054D2*
X4234620D1*
X4246833Y3625018D1*
X4252870Y3618981D1*
X4258906Y3606768D1*
Y3582481D1*
X4252870Y3570408D1*
X4246833Y3564371D1*
X4234620Y3558195D1*
X4222547D1*
X4210333Y3564371D1*
X4192224Y3576445D1*
X4131437Y3637231D1*
Y3552158D1*
X4259047Y3304423D2*
X4131437D1*
X4259047Y3389496D1*
X4131437D1*
X4216510Y3234884D2*
X4210474Y3246957D1*
X4198260Y3259171D1*
X4180010Y3265207D1*
X4167937D1*
X4149687Y3259171D1*
X4137614Y3246957D1*
X4131437Y3234884D1*
Y3216634D1*
X4137614Y3204421D1*
X4149687Y3192348D1*
X4167937Y3186171D1*
X4180010D1*
X4198260Y3192348D1*
X4210474Y3204421D1*
X4216510Y3216634D1*
Y3234884D1*
X4259047Y3074095D2*
X4131437D1*
X4198260D2*
X4210474Y3086168D1*
X4216510Y3098382D1*
Y3116632D1*
X4210474Y3128705D1*
X4198260Y3140918D1*
X4180010Y3146955D1*
X4167937D1*
X4149687Y3140918D1*
X4137614Y3128705D1*
X4131437Y3116632D1*
Y3098382D1*
X4137614Y3086168D1*
X4149687Y3074095D1*
X4180010Y3034880D2*
Y2962020D1*
X4192224D1*
X4204437Y2968057D1*
X4210474Y2974093D1*
X4216510Y2986307D1*
Y3004557D1*
X4210474Y3016630D1*
X4198260Y3028843D1*
X4180010Y3034880D1*
X4167937D1*
X4149687Y3028843D1*
X4137614Y3016630D1*
X4131437Y3004557D1*
Y2986307D1*
X4137614Y2974093D1*
X4149687Y2962020D1*
X4131437Y2825658D2*
X4259047D1*
X4131437Y2874231D1*
X4259047Y2922804D1*
X4131437D1*
X4228724Y2695333D2*
X4240797Y2701369D1*
X4253010Y2713583D1*
X4259047Y2725656D1*
Y2749942D1*
X4253010Y2762156D1*
X4240797Y2774229D1*
X4228724Y2780406D1*
X4210474Y2786442D1*
X4180010D1*
X4161900Y2780406D1*
X4149687Y2774229D1*
X4137614Y2762156D1*
X4131437Y2749942D1*
Y2725656D1*
X4137614Y2713583D1*
X4149687Y2701369D1*
X4161900Y2695333D1*
X4259047Y2656117D2*
X4167937D1*
X4149687Y2650081D1*
X4137614Y2637867D1*
X4131437Y2619617D1*
Y2607544D1*
X4137614Y2589294D1*
X4149687Y2577081D1*
X4167937Y2571044D1*
X4259047D1*
X1140550Y4355824D2*
X1012940D1*
X1140550Y4270751D2*
X1012940D1*
X1079763Y4355824D2*
Y4270751D1*
X1110227Y4140425D2*
X1122300Y4146462D1*
X1134513Y4158675D1*
X1140550Y4170749D1*
Y4195035D1*
X1134513Y4207249D1*
X1122300Y4219322D1*
X1110227Y4225499D1*
X1091977Y4231535D1*
X1061513D1*
X1043404Y4225499D1*
X1031190Y4219322D1*
X1019117Y4207249D1*
X1012940Y4195035D1*
Y4170749D1*
X1019117Y4158675D1*
X1031190Y4146462D1*
X1043404Y4140425D1*
X1076675Y4101210D2*
Y4031017D1*
X1116123Y3991802D2*
X1122300Y3979588D1*
X1140410Y3961338D1*
X1012940D1*
X1110086Y3915946D2*
X1116123D1*
X1128336Y3909909D1*
X1134373Y3903873D1*
X1140410Y3891659D1*
Y3867373D1*
X1134373Y3855300D1*
X1128336Y3849263D1*
X1116123Y3843086D1*
X1104050D1*
X1091836Y3849263D1*
X1073727Y3861336D1*
X1012940Y3922123D1*
Y3837050D1*
X9205434Y3671640D2*
Y3799250D1*
X9162897D1*
X9144647Y3793073D1*
X9132434Y3781000D1*
X9126397Y3768786D1*
X9120360Y3750677D1*
Y3720213D1*
X9126397Y3701963D1*
X9132434Y3689890D1*
X9144647Y3677677D1*
X9162897Y3671640D1*
X9205434D1*
X9002108D2*
X9081145D1*
Y3799250D1*
Y3732427D2*
X9032572D1*
X8962893Y3738463D2*
X8908143D1*
X8890033Y3732427D1*
X8883856Y3726250D1*
X8877819Y3714177D1*
Y3695927D1*
X8883856Y3683854D1*
X8890033Y3677677D1*
X8908143Y3671640D1*
X8962893D1*
Y3799250D1*
X8838604Y3671640D2*
Y3799250D1*
X8726528Y3714177D2*
Y3799250D1*
Y3732427D2*
X8738602Y3720213D1*
X8750815Y3714177D1*
X8768925D1*
X8781138Y3720213D1*
X8793211Y3732427D1*
X8799388Y3750677D1*
Y3762750D1*
X8793211Y3781000D1*
X8781138Y3793073D1*
X8768925Y3799250D1*
X8750815D1*
X8738602Y3793073D1*
X8726528Y3781000D1*
X8681136Y3714177D2*
X8644776Y3799250D1*
X8656849Y3823536D1*
X8669063Y3835750D1*
X8681136Y3841786D1*
X8687313D1*
X8608276Y3714177D2*
X8644776Y3799250D1*
X8569061Y3750677D2*
X8496201D1*
Y3738463D1*
X8502237Y3726250D1*
X8508274Y3720213D1*
X8520487Y3714177D1*
X8538737D1*
X8550811Y3720213D1*
X8563024Y3732427D1*
X8569061Y3750677D1*
Y3762750D1*
X8563024Y3781000D1*
X8550811Y3793073D1*
X8538737Y3799250D1*
X8520487D1*
X8508274Y3793073D1*
X8496201Y3781000D1*
X8456985Y3714177D2*
Y3799250D1*
Y3750677D2*
X8450808Y3732427D1*
X8438735Y3720213D1*
X8426522Y3714177D1*
X8408272D1*
X8148464Y3799250D2*
Y3671640D1*
X8197037Y3799250D1*
X8245610Y3671640D1*
Y3799250D1*
X8109248Y3671640D2*
X8103211Y3677677D1*
X8097034Y3671640D1*
X8103211Y3665463D1*
X8109248Y3671640D1*
X8103211Y3714177D2*
Y3799250D1*
X8057819Y3714177D2*
Y3799250D1*
Y3738463D2*
X8039569Y3720213D1*
X8027355Y3714177D1*
X8009246D1*
X7997032Y3720213D1*
X7990996Y3738463D1*
Y3799250D1*
X7951780Y3671640D2*
X7945743Y3677677D1*
X7939566Y3671640D1*
X7945743Y3665463D1*
X7951780Y3671640D1*
X7945743Y3714177D2*
Y3799250D1*
X9197237Y1548320D2*
X9069627D1*
Y1493570D1*
X9075804Y1475320D1*
X9081840Y1469284D1*
X9093914Y1463247D1*
X9112164D1*
X9124377Y1469284D1*
X9130414Y1475320D1*
X9136450Y1493570D1*
X9142627Y1475320D1*
X9148664Y1469284D1*
X9160737Y1463247D1*
X9172950D1*
X9185023Y1469284D1*
X9191200Y1475320D1*
X9197237Y1493570D1*
Y1548320D1*
X9136450D2*
Y1493570D1*
X9197237Y1424032D2*
X9069627D1*
X9197237Y1338958D2*
X9069627D1*
X9136450Y1424032D2*
Y1338958D1*
X9172810Y1299743D2*
X9178987Y1287529D1*
X9197096Y1269279D1*
X9069627D1*
Y1205777D2*
X9197096Y1144991D1*
Y1230064D1*
Y1032915D2*
Y1093561D1*
X9142487Y1099598D1*
X9148523Y1093561D1*
X9154700Y1075311D1*
Y1057202D1*
X9148523Y1038952D1*
X9136450Y1026738D1*
X9118200Y1020702D1*
X9106127D1*
X9087877Y1026738D1*
X9075664Y1038952D1*
X9069627Y1057202D1*
Y1075311D1*
X9075664Y1093561D1*
X9081840Y1099598D1*
X9093914Y1105775D1*
X9197096Y944986D2*
X9191060Y963236D1*
X9172810Y975450D1*
X9142487Y981486D1*
X9124237D1*
X9093914Y975450D1*
X9075664Y963236D1*
X9069627Y944986D1*
Y932913D1*
X9075664Y914663D1*
X9093914Y902590D1*
X9124237Y896413D1*
X9142487D1*
X9172810Y902590D1*
X9191060Y914663D1*
X9197096Y932913D1*
Y944986D1*
X9172810Y902590D2*
X9093914Y975450D1*
X9069627Y2824439D2*
X9197237D1*
X9069627Y2873012D1*
X9197237Y2921585D1*
X9069627D1*
Y2687937D2*
X9197237Y2736650D1*
X9069627Y2785224D1*
X9112164Y2766974D2*
Y2706187D1*
X9197237Y2648721D2*
X9069627Y2563648D1*
X9197237D2*
X9069627Y2648721D1*
Y2463646D2*
X9197096D1*
X9112164Y2524433D1*
Y2433323D1*
X9069627Y2333321D2*
X9197096D1*
X9112164Y2394107D1*
Y2302998D1*
X9197096Y2227282D2*
X9191060Y2245532D1*
X9172810Y2257745D1*
X9142487Y2263782D1*
X9124237D1*
X9093914Y2257745D1*
X9075664Y2245532D1*
X9069627Y2227282D1*
Y2215209D1*
X9075664Y2196959D1*
X9093914Y2184886D1*
X9124237Y2178709D1*
X9142487D1*
X9172810Y2184886D1*
X9191060Y2196959D1*
X9197096Y2215209D1*
Y2227282D1*
X9172810Y2184886D2*
X9093914Y2257745D1*
X9197096Y2102993D2*
X9191060Y2121243D1*
X9172810Y2133457D1*
X9142487Y2139493D1*
X9124237D1*
X9093914Y2133457D1*
X9075664Y2121243D1*
X9069627Y2102993D1*
Y2090920D1*
X9075664Y2072670D1*
X9093914Y2060597D1*
X9124237Y2054420D1*
X9142487D1*
X9172810Y2060597D1*
X9191060Y2072670D1*
X9197096Y2090920D1*
Y2102993D1*
X9172810Y2060597D2*
X9093914Y2133457D1*
X9154700Y1936168D2*
X9136450Y1942345D1*
X9124237Y1954418D1*
X9118200Y1972668D1*
Y1978704D1*
X9124237Y1996954D1*
X9136450Y2009028D1*
X9154700Y2015204D1*
X9160737D1*
X9178987Y2009028D1*
X9191060Y1996954D1*
X9197096Y1978704D1*
Y1972668D1*
X9191060Y1954418D1*
X9178987Y1942345D1*
X9154700Y1936168D1*
X9124237D1*
X9093914Y1942345D1*
X9075664Y1954418D1*
X9069627Y1972668D1*
Y1984741D1*
X9075664Y2002991D1*
X9087877Y2009028D1*
X1135083Y2390368D2*
X1007474D1*
X1135083Y2475441D1*
X1007474D1*
X1135083Y2272256D2*
Y2351152D1*
X1007474D1*
Y2272256D1*
X1074297Y2351152D2*
Y2302579D1*
X1135083Y2233040D2*
X1007474Y2147967D1*
X1135083D2*
X1007474Y2233040D1*
X1135083Y2066215D2*
X1007474D1*
X1135083Y2108752D2*
Y2023679D1*
Y1984463D2*
X1007474D1*
X1135083Y1908747D2*
X1129047Y1920961D1*
X1116833Y1933034D1*
X1104760Y1939211D1*
X1086510Y1945247D1*
X1056047D1*
X1037937Y1939211D1*
X1025724Y1933034D1*
X1013651Y1920961D1*
X1007474Y1908747D1*
Y1884461D1*
X1013651Y1872388D1*
X1025724Y1860174D1*
X1037937Y1854138D1*
X1056047Y1848101D1*
X1086510D1*
X1104760Y1854138D1*
X1116833Y1860174D1*
X1129047Y1872388D1*
X1135083Y1884461D1*
Y1908747D1*
Y1723812D2*
X1007474D1*
X1135083Y1808885D1*
X1007474D1*
X627083Y970918D2*
X499474D1*
X627083Y931703D2*
X499474D1*
Y858843D1*
X627083Y819627D2*
X499474D1*
X584547Y701375D2*
X566297Y707552D1*
X554083Y719625D1*
X548047Y737875D1*
Y743912D1*
X554083Y762162D1*
X566297Y774235D1*
X584547Y780412D1*
X590583D1*
X608833Y774235D1*
X620906Y762162D1*
X626943Y743912D1*
Y737875D1*
X620906Y719625D1*
X608833Y707552D1*
X584547Y701375D1*
X554083D1*
X523760Y707552D1*
X505510Y719625D1*
X499474Y737875D1*
Y749948D1*
X505510Y768198D1*
X517724Y774235D1*
X626943Y649946D2*
Y583263D1*
X578370Y619623D1*
Y601373D1*
X572333Y589300D1*
X566297Y583263D1*
X548047Y577086D1*
X535974D1*
X517724Y583263D1*
X505510Y595336D1*
X499474Y613586D1*
Y631836D1*
X505510Y649946D1*
X511687Y655982D1*
X523760Y662159D1*
X499474Y477084D2*
X626943D1*
X542010Y537871D1*
Y446761D1*
X602656Y407545D2*
X608833Y395332D1*
X626943Y377082D1*
X499474D1*
X2144254Y4814008D2*
X2113790Y4941618D1*
X2083467Y4814008D1*
X2053144Y4941618D1*
X2022681Y4814008D1*
X1983465D2*
Y4941618D1*
X1944249Y4874795D2*
X1889640D1*
X1871390Y4868618D1*
X1865213Y4862581D1*
X1859176Y4850508D1*
Y4838295D1*
X1865213Y4826222D1*
X1871390Y4820045D1*
X1889640Y4814008D1*
X1944249D1*
Y4941618D1*
X1901713Y4874795D2*
X1859176Y4941618D1*
X1741064Y4814008D2*
X1819961D1*
Y4941618D1*
X1741064D1*
X1819961Y4874795D2*
X1771387D1*
X1701849Y4814008D2*
Y4941618D1*
X1659312D1*
X1641062Y4935441D1*
X1628849Y4923368D1*
X1622812Y4911155D1*
X1616776Y4893045D1*
Y4862581D1*
X1622812Y4844331D1*
X1628849Y4832258D1*
X1641062Y4820045D1*
X1659312Y4814008D1*
X1701849D1*
X1577560Y4962676D2*
X1462164D1*
X1337875Y4832258D2*
X1349948Y4820045D1*
X1368198Y4814008D1*
X1392485D1*
X1410735Y4820045D1*
X1422948Y4832258D1*
Y4844331D1*
X1416771Y4856545D1*
X1410735Y4862581D1*
X1398662Y4868618D1*
X1362162Y4880831D1*
X1349948Y4886868D1*
X1343912Y4893045D1*
X1337875Y4905118D1*
Y4923368D1*
X1349948Y4935441D1*
X1368198Y4941618D1*
X1392485D1*
X1410735Y4935441D1*
X1422948Y4923368D1*
X1219763Y4814008D2*
X1298659D1*
Y4941618D1*
X1219763D1*
X1298659Y4874795D2*
X1250086D1*
X1095474Y4814008D2*
Y4941618D1*
X1180547Y4814008D1*
Y4941618D1*
X971186Y4832258D2*
X983259Y4820045D1*
X1001509Y4814008D1*
X1025795D1*
X1044045Y4820045D1*
X1056259Y4832258D1*
Y4844331D1*
X1050082Y4856545D1*
X1044045Y4862581D1*
X1031972Y4868618D1*
X995472Y4880831D1*
X983259Y4886868D1*
X977222Y4893045D1*
X971186Y4905118D1*
Y4923368D1*
X983259Y4935441D1*
X1001509Y4941618D1*
X1025795D1*
X1044045Y4935441D1*
X1056259Y4923368D1*
X895470Y4814008D2*
X907683Y4820045D1*
X919756Y4832258D1*
X925933Y4844331D1*
X931970Y4862581D1*
Y4893045D1*
X925933Y4911155D1*
X919756Y4923368D1*
X907683Y4935441D1*
X895470Y4941618D1*
X871183D1*
X859110Y4935441D1*
X846897Y4923368D1*
X840860Y4911155D1*
X834824Y4893045D1*
Y4862581D1*
X840860Y4844331D1*
X846897Y4832258D1*
X859110Y4820045D1*
X871183Y4814008D1*
X895470D1*
X795608Y4874795D2*
X740998D1*
X722748Y4868618D1*
X716572Y4862581D1*
X710535Y4850508D1*
Y4838295D1*
X716572Y4826222D1*
X722748Y4820045D1*
X740998Y4814008D1*
X795608D1*
Y4941618D1*
X753072Y4874795D2*
X710535Y4941618D1*
X586246Y4832258D2*
X598319Y4820045D1*
X616569Y4814008D1*
X640856D1*
X659106Y4820045D1*
X671319Y4832258D1*
Y4844331D1*
X665142Y4856545D1*
X659106Y4862581D1*
X647033Y4868618D1*
X610533Y4880831D1*
X598319Y4886868D1*
X592283Y4893045D1*
X586246Y4905118D1*
Y4923368D1*
X598319Y4935441D1*
X616569Y4941618D1*
X640856D1*
X659106Y4935441D1*
X671319Y4923368D1*
M02*
